# Blender 4.1.1
# www.blender.org
mtllib enemy.mtl
o Sphere
v -0.371539 0.640041 -0.032505
v -0.556047 0.427662 -0.048648
v -0.655902 0.150175 -0.057384
v -0.668752 0.000000 -0.058508
v -0.655902 -0.150175 -0.057384
v -0.556047 -0.427662 -0.048648
v -0.124966 0.754980 -0.045421
v -0.245129 0.711175 -0.089097
v -0.355872 0.640041 -0.129349
v -0.452940 0.544310 -0.164630
v -0.532601 0.427662 -0.193585
v -0.591794 0.294578 -0.215100
v -0.628245 0.150175 -0.228349
v -0.640553 0.000000 -0.232823
v -0.628245 -0.150175 -0.228349
v -0.591794 -0.294578 -0.215100
v -0.532601 -0.427662 -0.193585
v -0.452940 -0.544310 -0.164630
v -0.355872 -0.640041 -0.129349
v -0.245129 -0.711175 -0.089097
v -0.124966 -0.754980 -0.045421
v -0.114662 0.754980 -0.077683
v -0.224918 0.711175 -0.152381
v -0.326530 0.640041 -0.221222
v -0.415594 0.544310 -0.281563
v -0.488687 0.427662 -0.331083
v -0.542999 0.294578 -0.367879
v -0.576445 0.150175 -0.390539
v -0.587738 0.000000 -0.398190
v -0.576445 -0.150175 -0.390539
v -0.542999 -0.294578 -0.367879
v -0.488687 -0.427662 -0.331083
v -0.415594 -0.544310 -0.281563
v -0.326530 -0.640041 -0.221222
v -0.224918 -0.711175 -0.152381
v -0.114662 -0.754980 -0.077683
v -0.099952 0.754980 -0.106959
v -0.196063 0.711175 -0.209808
v -0.284639 0.640041 -0.304594
v -0.362277 0.544310 -0.387675
v -0.425993 0.427662 -0.455857
v -0.473338 0.294578 -0.506521
v -0.502493 0.150175 -0.537720
v -0.512337 0.000000 -0.548255
v -0.502493 -0.150175 -0.537720
v -0.473338 -0.294578 -0.506521
v -0.425993 -0.427662 -0.455857
v -0.362277 -0.544310 -0.387675
v -0.284639 -0.640041 -0.304594
v -0.196063 -0.711175 -0.209808
v -0.099952 -0.754980 -0.106959
v -0.081401 0.754980 -0.132125
v -0.159673 0.711175 -0.259173
v -0.231810 0.640041 -0.376260
v -0.295038 0.544310 -0.478888
v -0.346928 0.427662 -0.563113
v -0.385486 0.294578 -0.625698
v -0.409230 0.150175 -0.664237
v -0.417247 0.000000 -0.677250
v -0.409230 -0.150175 -0.664237
v -0.385486 -0.294578 -0.625698
v -0.346928 -0.427662 -0.563113
v -0.295038 -0.544310 -0.478888
v -0.231810 -0.640041 -0.376260
v -0.159673 -0.711175 -0.259173
v -0.081401 -0.754980 -0.132125
v -0.059721 0.754980 -0.152213
v -0.117148 0.711175 -0.298577
v -0.170072 0.640041 -0.433467
v -0.216461 0.544310 -0.551699
v -0.254531 0.427662 -0.648729
v -0.282820 0.294578 -0.720829
v -0.300240 0.150175 -0.765228
v -0.306122 0.000000 -0.780220
v -0.300240 -0.150175 -0.765228
v -0.282820 -0.294578 -0.720829
v -0.254531 -0.427662 -0.648729
v -0.216461 -0.544310 -0.551699
v -0.170072 -0.640041 -0.433467
v -0.117148 -0.711175 -0.298577
v -0.059721 -0.754980 -0.152213
v 0.000000 0.769771 0.000000
v -0.035747 0.754980 -0.166452
v -0.070120 0.711175 -0.326508
v -0.101799 0.640041 -0.474016
v -0.129566 0.544310 -0.603308
v -0.152353 0.427662 -0.709415
v -0.169286 0.294578 -0.788259
v -0.179713 0.150175 -0.836812
v -0.183233 0.000000 -0.853206
v -0.179713 -0.150175 -0.836812
v -0.169286 -0.294578 -0.788259
v -0.152353 -0.427662 -0.709415
v -0.129566 -0.544310 -0.603308
v -0.101799 -0.640041 -0.474016
v -0.070120 -0.711175 -0.326508
v -0.035747 -0.754980 -0.166452
v -0.010399 0.754980 -0.174294
v -0.020398 0.711175 -0.341891
v -0.029614 0.640041 -0.496349
v -0.037691 0.544310 -0.631732
v -0.044320 0.427662 -0.742838
v -0.049246 0.294578 -0.825397
v -0.052279 0.150175 -0.876237
v -0.053303 0.000000 -0.893404
v -0.052279 -0.150175 -0.876237
v -0.049246 -0.294578 -0.825397
v -0.044320 -0.427662 -0.742838
v -0.037691 -0.544310 -0.631732
v -0.029614 -0.640041 -0.496349
v -0.020398 -0.711175 -0.341891
v -0.010399 -0.754980 -0.174294
v 0.015349 0.754980 -0.175439
v 0.030108 0.711175 -0.344135
v 0.043710 0.640041 -0.499607
v 0.055632 0.544310 -0.635879
v 0.065417 0.427662 -0.747714
v 0.072687 0.294578 -0.830816
v 0.077164 0.150175 -0.881989
v 0.078676 0.000000 -0.899268
v 0.077164 -0.150175 -0.881989
v 0.072687 -0.294578 -0.830816
v 0.065417 -0.427662 -0.747714
v 0.055632 -0.544310 -0.635879
v 0.043710 -0.640041 -0.499607
v 0.030108 -0.711175 -0.344135
v 0.015349 -0.754980 -0.175439
v 0.040507 0.754980 -0.169841
v 0.079457 0.711175 -0.333155
v 0.115354 0.640041 -0.483665
v 0.146817 0.544310 -0.615589
v 0.172639 0.427662 -0.723856
v 0.191826 0.294578 -0.804306
v 0.203641 0.150175 -0.853847
v 0.207631 0.000000 -0.870575
v 0.203641 -0.150175 -0.853847
v 0.191826 -0.294578 -0.804306
v 0.172639 -0.427662 -0.723856
v 0.146817 -0.544310 -0.615589
v 0.115354 -0.640041 -0.483665
v 0.079457 -0.711175 -0.333155
v 0.040507 -0.754980 -0.169841
v 0.064108 0.754980 -0.157716
v 0.125753 0.711175 -0.309371
v 0.182564 0.640041 -0.449137
v 0.232360 0.544310 -0.571643
v 0.273227 0.427662 -0.672181
v 0.303593 0.294578 -0.746888
v 0.322293 0.150175 -0.792892
v 0.328607 0.000000 -0.808425
v 0.322293 -0.150175 -0.792892
v 0.303593 -0.294578 -0.746888
v 0.273227 -0.427662 -0.672181
v 0.232360 -0.544310 -0.571643
v 0.182564 -0.640041 -0.449137
v 0.125753 -0.711175 -0.309371
v 0.064108 -0.754980 -0.157716
v 0.085246 0.754980 -0.139530
v 0.167215 0.711175 -0.273699
v 0.242759 0.640041 -0.397349
v 0.308974 0.544310 -0.505729
v 0.363315 0.427662 -0.594674
v 0.403694 0.294578 -0.660767
v 0.428559 0.150175 -0.701466
v 0.436955 0.000000 -0.715209
v 0.428559 -0.150175 -0.701466
v 0.403694 -0.294578 -0.660767
v 0.363315 -0.427662 -0.594674
v 0.308974 -0.544310 -0.505729
v 0.242759 -0.640041 -0.397349
v 0.167215 -0.711175 -0.273699
v 0.085246 -0.754980 -0.139530
v 0.103107 0.754980 -0.115983
v 0.202252 0.711175 -0.227508
v 0.293625 0.640041 -0.330290
v 0.373714 0.544310 -0.420380
v 0.439441 0.427662 -0.494315
v 0.488281 0.294578 -0.549253
v 0.518356 0.150175 -0.583084
v 0.528511 0.000000 -0.594507
v 0.518356 -0.150175 -0.583084
v 0.488281 -0.294578 -0.549253
v 0.439441 -0.427662 -0.494315
v 0.373714 -0.544310 -0.420380
v 0.293625 -0.640041 -0.330290
v 0.202252 -0.711175 -0.227508
v 0.103107 -0.754980 -0.115983
v 0.117007 0.754980 -0.087978
v 0.229517 0.711175 -0.172575
v 0.333207 0.640041 -0.250539
v 0.424092 0.544310 -0.318876
v 0.498679 0.427662 -0.374959
v 0.554103 0.294578 -0.416632
v 0.588233 0.150175 -0.442294
v 0.599757 0.000000 -0.450959
v 0.588233 -0.150175 -0.442294
v 0.554103 -0.294578 -0.416632
v 0.498679 -0.427662 -0.374959
v 0.424092 -0.544310 -0.318876
v 0.333207 -0.640041 -0.250539
v 0.229517 -0.711175 -0.172575
v 0.117007 -0.754980 -0.087978
v 0.126410 0.754980 -0.056592
v 0.247961 0.711175 -0.111009
v 0.359984 0.640041 -0.161160
v 0.458173 0.544310 -0.205118
v 0.538754 0.427662 -0.241193
v 0.598631 0.294578 -0.268000
v 0.635504 0.150175 -0.284507
v 0.647954 0.000000 -0.290080
v 0.635504 -0.150175 -0.284507
v 0.598631 -0.294578 -0.268000
v 0.538754 -0.427662 -0.241193
v 0.458173 -0.544310 -0.205118
v 0.359984 -0.640041 -0.161160
v 0.247961 -0.711175 -0.111009
v 0.126410 -0.754980 -0.056592
v 0.130954 0.754980 -0.023031
v 0.256877 0.711175 -0.045178
v 0.372927 0.640041 -0.065588
v 0.474646 0.544310 -0.083477
v 0.558125 0.427662 -0.098159
v 0.620155 0.294578 -0.109068
v 0.658353 0.150175 -0.115786
v 0.671251 0.000000 -0.118054
v 0.658353 -0.150175 -0.115786
v 0.620155 -0.294578 -0.109068
v 0.558125 -0.427662 -0.098159
v 0.474646 -0.544310 -0.083477
v 0.372927 -0.640041 -0.065588
v 0.256877 -0.711175 -0.045178
v 0.130954 -0.754980 -0.023031
v 0.130467 0.754980 0.011414
v 0.255920 0.711175 0.022390
v 0.371539 0.640041 0.032505
v 0.472879 0.544310 0.041372
v 0.556047 0.427662 0.048648
v 0.617846 0.294578 0.054054
v 0.655902 0.150175 0.057384
v 0.668752 0.000000 0.058508
v 0.655902 -0.150175 0.057384
v 0.617846 -0.294578 0.054054
v 0.556047 -0.427662 0.048648
v 0.472879 -0.544310 0.041372
v 0.371539 -0.640041 0.032505
v 0.255920 -0.711175 0.022390
v 0.130467 -0.754980 0.011414
v 0.124966 0.754980 0.045421
v 0.245129 0.711175 0.089097
v 0.355872 0.640041 0.129349
v 0.452939 0.544310 0.164630
v 0.532600 0.427662 0.193585
v 0.591794 0.294578 0.215100
v 0.628245 0.150175 0.228349
v 0.640553 0.000000 0.232823
v 0.628245 -0.150175 0.228349
v 0.591794 -0.294578 0.215100
v 0.532600 -0.427662 0.193585
v 0.452939 -0.544310 0.164630
v 0.355872 -0.640041 0.129349
v 0.245129 -0.711175 0.089097
v 0.124966 -0.754980 0.045421
v 0.114662 0.754980 0.077683
v 0.224918 0.711175 0.152381
v 0.326530 0.640041 0.221222
v 0.415594 0.544310 0.281563
v 0.488686 0.427662 0.331083
v 0.542999 0.294578 0.367879
v 0.576445 0.150175 0.390539
v 0.587738 0.000000 0.398190
v 0.576445 -0.150175 0.390539
v 0.542999 -0.294578 0.367879
v 0.488686 -0.427662 0.331083
v 0.415594 -0.544310 0.281563
v 0.326530 -0.640041 0.221222
v 0.224918 -0.711175 0.152381
v 0.114662 -0.754980 0.077683
v 0.099952 0.754980 0.106959
v 0.196063 0.711175 0.209808
v 0.284639 0.640041 0.304594
v 0.362277 0.544310 0.387675
v 0.425992 0.427662 0.455857
v 0.473338 0.294578 0.506521
v 0.502492 0.150175 0.537720
v 0.512337 0.000000 0.548254
v 0.502492 -0.150175 0.537720
v 0.473338 -0.294578 0.506521
v 0.425992 -0.427662 0.455857
v 0.362277 -0.544310 0.387675
v 0.284639 -0.640041 0.304594
v 0.196063 -0.711175 0.209808
v 0.099952 -0.754980 0.106959
v 0.081401 0.754980 0.132125
v 0.159673 0.711175 0.259172
v 0.231810 0.640041 0.376260
v 0.295038 0.544310 0.478888
v 0.346928 0.427662 0.563113
v 0.385486 0.294578 0.625698
v 0.409229 0.150175 0.664237
v 0.417246 0.000000 0.677250
v 0.409229 -0.150175 0.664237
v 0.385486 -0.294578 0.625698
v 0.346928 -0.427662 0.563113
v 0.295038 -0.544310 0.478888
v 0.231810 -0.640041 0.376260
v 0.159673 -0.711175 0.259172
v 0.081401 -0.754980 0.132125
v 0.000000 -0.769771 0.000000
v 0.059721 0.754980 0.152213
v 0.117148 0.711175 0.298577
v 0.170072 0.640041 0.433467
v 0.216461 0.544310 0.551699
v 0.254531 0.427662 0.648729
v 0.282820 0.294578 0.720829
v 0.300240 0.150175 0.765228
v 0.306122 0.000000 0.780219
v 0.300240 -0.150175 0.765228
v 0.282820 -0.294578 0.720829
v 0.254531 -0.427662 0.648729
v 0.216461 -0.544310 0.551699
v 0.170072 -0.640041 0.433467
v 0.117148 -0.711175 0.298577
v 0.059721 -0.754980 0.152213
v 0.035747 0.754980 0.166452
v 0.070120 0.711175 0.326508
v 0.101799 0.640041 0.474016
v 0.129566 0.544310 0.603308
v 0.152353 0.427662 0.709414
v 0.169286 0.294578 0.788259
v 0.179712 0.150175 0.836812
v 0.183233 0.000000 0.853205
v 0.179712 -0.150175 0.836812
v 0.169286 -0.294578 0.788259
v 0.152353 -0.427662 0.709414
v 0.129566 -0.544310 0.603308
v 0.101799 -0.640041 0.474016
v 0.070120 -0.711175 0.326508
v 0.035747 -0.754980 0.166452
v 0.010399 0.754980 0.174294
v 0.020398 0.711175 0.341891
v 0.029613 0.640041 0.496348
v 0.037691 0.544310 0.631732
v 0.044320 0.427662 0.742838
v 0.049246 0.294578 0.825397
v 0.052279 0.150175 0.876237
v 0.053303 0.000000 0.893403
v 0.052279 -0.150175 0.876237
v 0.049246 -0.294578 0.825397
v 0.044320 -0.427662 0.742838
v 0.037691 -0.544310 0.631732
v 0.029613 -0.640041 0.496348
v 0.020398 -0.711175 0.341891
v 0.010399 -0.754980 0.174294
v -0.015349 0.754980 0.175438
v -0.030108 0.711175 0.344135
v -0.043710 0.640041 0.499606
v -0.055632 0.544310 0.635879
v -0.065417 0.427662 0.747714
v -0.072687 0.294578 0.830816
v -0.077164 0.150175 0.881989
v -0.078676 0.000000 0.899268
v -0.077164 -0.150175 0.881989
v -0.072687 -0.294578 0.830816
v -0.065417 -0.427662 0.747714
v -0.055632 -0.544310 0.635879
v -0.043710 -0.640041 0.499606
v -0.030108 -0.711175 0.344135
v -0.015349 -0.754980 0.175438
v -0.040507 0.754980 0.169841
v -0.079457 0.711175 0.333154
v -0.115354 0.640041 0.483665
v -0.146817 0.544310 0.615589
v -0.172639 0.427662 0.723856
v -0.191826 0.294578 0.804306
v -0.203642 0.150175 0.853847
v -0.207631 0.000000 0.870574
v -0.203642 -0.150175 0.853847
v -0.191826 -0.294578 0.804306
v -0.172639 -0.427662 0.723856
v -0.146817 -0.544310 0.615589
v -0.115354 -0.640041 0.483665
v -0.079457 -0.711175 0.333154
v -0.040507 -0.754980 0.169841
v -0.064108 0.754980 0.157716
v -0.125753 0.711175 0.309371
v -0.182564 0.640041 0.449137
v -0.232360 0.544310 0.571643
v -0.273227 0.427662 0.672181
v -0.303593 0.294578 0.746888
v -0.322293 0.150175 0.792892
v -0.328607 0.000000 0.808425
v -0.322293 -0.150175 0.792892
v -0.303593 -0.294578 0.746888
v -0.273227 -0.427662 0.672181
v -0.232360 -0.544310 0.571643
v -0.182564 -0.640041 0.449137
v -0.125753 -0.711175 0.309371
v -0.064108 -0.754980 0.157716
v -0.085246 0.754980 0.139530
v -0.167215 0.711175 0.273699
v -0.242759 0.640041 0.397348
v -0.308974 0.544310 0.505729
v -0.363315 0.427662 0.594674
v -0.403694 0.294578 0.660767
v -0.428559 0.150175 0.701466
v -0.436955 0.000000 0.715208
v -0.428559 -0.150175 0.701466
v -0.403694 -0.294578 0.660767
v -0.363315 -0.427662 0.594674
v -0.308974 -0.544310 0.505729
v -0.242759 -0.640041 0.397348
v -0.167215 -0.711175 0.273699
v -0.085246 -0.754980 0.139530
v -0.103107 0.754980 0.115983
v -0.202252 0.711175 0.227508
v -0.293625 0.640041 0.330290
v -0.373714 0.544310 0.420380
v -0.439441 0.427662 0.494314
v -0.488280 0.294578 0.549253
v -0.518356 0.150175 0.583084
v -0.528511 0.000000 0.594507
v -0.518356 -0.150175 0.583084
v -0.488280 -0.294578 0.549253
v -0.439441 -0.427662 0.494314
v -0.373714 -0.544310 0.420380
v -0.293625 -0.640041 0.330290
v -0.202252 -0.711175 0.227508
v -0.103107 -0.754980 0.115983
v -0.117007 0.754980 0.087978
v -0.229517 0.711175 0.172574
v -0.333207 0.640041 0.250539
v -0.424092 0.544310 0.318876
v -0.498679 0.427662 0.374958
v -0.554103 0.294578 0.416632
v -0.588232 0.150175 0.442294
v -0.599756 0.000000 0.450958
v -0.588232 -0.150175 0.442294
v -0.554103 -0.294578 0.416632
v -0.498679 -0.427662 0.374958
v -0.424092 -0.544310 0.318876
v -0.333207 -0.640041 0.250539
v -0.229517 -0.711175 0.172574
v -0.117007 -0.754980 0.087978
v -0.126409 0.754980 0.056592
v -0.247961 0.711175 0.111009
v -0.359984 0.640041 0.161160
v -0.458173 0.544310 0.205118
v -0.538754 0.427662 0.241193
v -0.598631 0.294578 0.267999
v -0.635504 0.150175 0.284506
v -0.647953 0.000000 0.290080
v -0.635504 -0.150175 0.284506
v -0.598631 -0.294578 0.267999
v -0.538754 -0.427662 0.241193
v -0.458173 -0.544310 0.205118
v -0.359984 -0.640041 0.161160
v -0.247961 -0.711175 0.111009
v -0.126409 -0.754980 0.056592
v -0.130954 0.754980 0.023031
v -0.256876 0.711175 0.045177
v -0.372927 0.640041 0.065587
v -0.474646 0.544310 0.083477
v -0.558124 0.427662 0.098159
v -0.620155 0.294578 0.109068
v -0.658353 0.150175 0.115786
v -0.671250 0.000000 0.118054
v -0.658353 -0.150175 0.115786
v -0.620155 -0.294578 0.109068
v -0.558124 -0.427662 0.098159
v -0.474646 -0.544310 0.083477
v -0.372927 -0.640041 0.065587
v -0.256876 -0.711175 0.045177
v -0.130954 -0.754980 0.023031
v -0.130467 0.754980 -0.011414
v -0.255920 0.711175 -0.022390
v -0.472879 0.544310 -0.041372
v -0.617846 0.294578 -0.054055
v -0.617846 -0.294578 -0.054055
v -0.472879 -0.544310 -0.041372
v -0.371538 -0.640041 -0.032506
v -0.255920 -0.711175 -0.022390
v -0.130467 -0.754980 -0.011414
vn -0.9545 -0.2551 -0.1544
vn -0.5169 0.8520 -0.0836
vn -0.8952 -0.4216 -0.1448
vn -0.6775 0.7273 -0.1096
vn -0.8035 -0.5810 -0.1300
vn -0.8035 0.5810 -0.1300
vn -0.6775 -0.7273 -0.1096
vn -0.8952 0.4216 -0.1448
vn -0.5169 -0.8520 -0.0836
vn -0.9545 0.2551 -0.1544
vn -0.3251 -0.9442 -0.0526
vn -0.9836 0.0854 -0.1591
vn -0.1111 0.9936 -0.0180
vn -0.1111 -0.9936 -0.0180
vn -0.9836 -0.0854 -0.1591
vn -0.3251 0.9442 -0.0526
vn -0.9490 -0.0868 -0.3031
vn -0.3090 0.9459 -0.0987
vn -0.9200 -0.2592 -0.2938
vn -0.4926 0.8559 -0.1573
vn -0.8612 -0.4275 -0.2750
vn -0.6478 0.7331 -0.2069
vn -0.7708 -0.5875 -0.2462
vn -0.7708 0.5875 -0.2462
vn -0.6478 -0.7331 -0.2069
vn -0.8612 0.4275 -0.2750
vn -0.4926 -0.8559 -0.1573
vn -0.9200 0.2592 -0.2938
vn -0.3090 -0.9459 -0.0987
vn -0.9490 0.0868 -0.3031
vn -0.1054 0.9939 -0.0337
vn -0.1054 -0.9939 -0.0337
vn -0.5968 -0.7442 -0.2999
vn -0.8028 0.4391 -0.4034
vn -0.4509 -0.8633 -0.2266
vn -0.8610 0.2673 -0.4326
vn -0.2813 -0.9491 -0.1414
vn -0.8899 0.0897 -0.4472
vn -0.0957 0.9943 -0.0481
vn -0.0957 -0.9943 -0.0481
vn -0.8899 -0.0897 -0.4472
vn -0.2813 0.9491 -0.1414
vn -0.8610 -0.2673 -0.4326
vn -0.4509 0.8633 -0.2266
vn -0.8028 -0.4391 -0.4034
vn -0.5968 0.7442 -0.2999
vn -0.7147 -0.6003 -0.3591
vn -0.7147 0.6003 -0.3591
vn -0.2429 0.9534 -0.1791
vn -0.7729 -0.2792 -0.5698
vn -0.3921 0.8733 -0.2890
vn -0.7164 -0.4559 -0.5281
vn -0.5236 0.7596 -0.3859
vn -0.6327 -0.6182 -0.4664
vn -0.6327 0.6182 -0.4664
vn -0.5236 -0.7596 -0.3859
vn -0.7164 0.4559 -0.5281
vn -0.3921 -0.8733 -0.2890
vn -0.7729 0.2792 -0.5698
vn -0.2429 -0.9534 -0.1791
vn -0.8014 0.0940 -0.5907
vn -0.0823 0.9948 -0.0607
vn -0.0823 -0.9948 -0.0607
vn -0.8014 -0.0940 -0.5907
vn -0.5976 0.4764 -0.6449
vn -0.3170 -0.8846 -0.3421
vn -0.6497 0.2939 -0.7011
vn -0.1948 -0.9580 -0.2103
vn -0.6763 0.0994 -0.7299
vn -0.0657 0.9953 -0.0709
vn -0.0657 -0.9953 -0.0709
vn -0.6763 -0.0994 -0.7299
vn -0.1948 0.9580 -0.2103
vn -0.6497 -0.2939 -0.7011
vn -0.3170 0.8846 -0.3421
vn -0.5976 -0.4764 -0.6449
vn -0.4277 0.7772 -0.4615
vn -0.5225 -0.6396 -0.5639
vn -0.5225 0.6396 -0.5639
vn -0.4277 -0.7772 -0.4615
vn -0.4855 -0.3099 -0.8175
vn -0.2274 0.8953 -0.3829
vn -0.4428 -0.4980 -0.7456
vn -0.3099 0.7947 -0.5219
vn -0.3830 -0.6614 -0.6449
vn -0.3830 0.6614 -0.6449
vn -0.3099 -0.7947 -0.5219
vn -0.4428 0.4980 -0.7456
vn -0.2274 -0.8953 -0.3829
vn -0.4855 0.3099 -0.8175
vn -0.1387 -0.9624 -0.2336
vn -0.5078 0.1052 -0.8550
vn -0.0466 0.9958 -0.0785
vn -0.0466 -0.9958 -0.0785
vn -0.5078 -0.1052 -0.8550
vn -0.1387 0.9624 -0.2336
vn -0.1264 -0.9039 -0.4087
vn -0.2796 0.3241 -0.9038
vn -0.0767 -0.9658 -0.2478
vn -0.2937 0.1105 -0.9495
vn -0.0257 0.9962 -0.0830
vn -0.0257 -0.9962 -0.0830
vn -0.2937 -0.1105 -0.9495
vn -0.0767 0.9658 -0.2478
vn -0.2796 -0.3241 -0.9038
vn -0.1264 0.9039 -0.4087
vn -0.2530 -0.5168 -0.8179
vn -0.1738 0.8089 -0.5616
vn -0.2168 -0.6797 -0.7007
vn -0.2168 0.6797 -0.7007
vn -0.1738 -0.8089 -0.5616
vn -0.2530 0.5168 -0.8179
vn -0.0377 -0.5278 -0.8485
vn -0.0256 0.8169 -0.5761
vn -0.0321 -0.6903 -0.7228
vn -0.0321 0.6903 -0.7228
vn -0.0256 -0.8169 -0.5761
vn -0.0377 0.5278 -0.8485
vn -0.0185 -0.9086 -0.4173
vn -0.0419 0.3326 -0.9421
vn -0.0112 -0.9676 -0.2522
vn -0.0441 0.1138 -0.9925
vn -0.0037 0.9964 -0.0843
vn -0.0037 -0.9964 -0.0843
vn -0.0441 -0.1138 -0.9925
vn -0.0112 0.9676 -0.2522
vn -0.0419 -0.3326 -0.9421
vn -0.0185 0.9086 -0.4173
vn 0.0548 -0.9676 -0.2465
vn 0.2158 0.1138 -0.9698
vn 0.0183 0.9964 -0.0824
vn 0.0183 -0.9964 -0.0824
vn 0.2158 -0.1138 -0.9698
vn 0.0548 0.9676 -0.2465
vn 0.2048 -0.3326 -0.9206
vn 0.0907 0.9086 -0.4078
vn 0.1845 -0.5278 -0.8291
vn 0.1253 0.8169 -0.5629
vn 0.1571 -0.6903 -0.7063
vn 0.1571 0.6903 -0.7063
vn 0.1253 -0.8169 -0.5629
vn 0.1845 0.5278 -0.8291
vn 0.0907 -0.9086 -0.4078
vn 0.2048 0.3326 -0.9206
vn 0.2686 0.8089 -0.5229
vn 0.3352 -0.6797 -0.6524
vn 0.3352 0.6797 -0.6524
vn 0.2686 -0.8089 -0.5229
vn 0.3912 0.5168 -0.7615
vn 0.1955 -0.9039 -0.3806
vn 0.4323 0.3241 -0.8415
vn 0.1186 -0.9658 -0.2308
vn 0.4542 0.1105 -0.8840
vn 0.0397 0.9962 -0.0773
vn 0.0397 -0.9962 -0.0773
vn 0.4542 -0.1105 -0.8840
vn 0.1186 0.9658 -0.2308
vn 0.4323 -0.3241 -0.8415
vn 0.1955 0.9039 -0.3806
vn 0.3912 -0.5168 -0.7615
vn 0.6486 0.1052 -0.7538
vn 0.0595 0.9958 -0.0692
vn 0.0595 -0.9958 -0.0692
vn 0.6486 -0.1052 -0.7538
vn 0.1772 0.9624 -0.2060
vn 0.6201 -0.3099 -0.7207
vn 0.2905 0.8953 -0.3376
vn 0.5655 -0.4980 -0.6573
vn 0.3959 0.7947 -0.4601
vn 0.4892 -0.6614 -0.5686
vn 0.4892 0.6614 -0.5686
vn 0.3959 -0.7947 -0.4601
vn 0.5655 0.4980 -0.6573
vn 0.2905 -0.8953 -0.3376
vn 0.6201 0.3099 -0.7207
vn 0.1772 -0.9624 -0.2060
vn 0.6125 -0.6396 -0.4646
vn 0.6125 0.6396 -0.4646
vn 0.5013 -0.7772 -0.3803
vn 0.7005 0.4764 -0.5313
vn 0.3716 -0.8846 -0.2819
vn 0.7615 0.2939 -0.5776
vn 0.2284 -0.9580 -0.1732
vn 0.7928 0.0994 -0.6014
vn 0.0770 0.9953 -0.0584
vn 0.0770 -0.9953 -0.0584
vn 0.7928 -0.0994 -0.6014
vn 0.2284 0.9580 -0.1732
vn 0.7615 -0.2939 -0.5776
vn 0.3716 0.8846 -0.2819
vn 0.7005 -0.4764 -0.5313
vn 0.5013 0.7772 -0.3803
vn 0.0916 0.9948 -0.0455
vn 0.0916 -0.9948 -0.0455
vn 0.8918 -0.0940 -0.4426
vn 0.2703 0.9534 -0.1342
vn 0.8601 -0.2792 -0.4269
vn 0.4363 0.8733 -0.2166
vn 0.7972 -0.4559 -0.3957
vn 0.5826 0.7596 -0.2892
vn 0.7041 -0.6182 -0.3494
vn 0.7041 0.6182 -0.3494
vn 0.5826 -0.7596 -0.2892
vn 0.7972 0.4559 -0.3957
vn 0.4363 -0.8733 -0.2166
vn 0.8601 0.2792 -0.4269
vn 0.2703 -0.9534 -0.1342
vn 0.8918 0.0940 -0.4426
vn 0.7662 0.6003 -0.2295
vn 0.6398 -0.7442 -0.1917
vn 0.8606 0.4391 -0.2578
vn 0.4834 -0.8633 -0.1448
vn 0.9231 0.2673 -0.2765
vn 0.3016 -0.9491 -0.0904
vn 0.9541 0.0897 -0.2858
vn 0.1026 0.9943 -0.0307
vn 0.1026 -0.9943 -0.0307
vn 0.9541 -0.0897 -0.2858
vn 0.3016 0.9491 -0.0904
vn 0.9231 -0.2673 -0.2765
vn 0.4834 0.8633 -0.1448
vn 0.8606 -0.4391 -0.2578
vn 0.6398 0.7442 -0.1917
vn 0.7662 -0.6003 -0.2295
vn 0.9872 -0.0868 -0.1337
vn 0.3214 0.9459 -0.0435
vn 0.9571 -0.2592 -0.1296
vn 0.5124 0.8559 -0.0694
vn 0.8958 -0.4275 -0.1213
vn 0.6739 0.7331 -0.0913
vn 0.8019 -0.5875 -0.1086
vn 0.8019 0.5875 -0.1086
vn 0.6739 -0.7331 -0.0913
vn 0.8958 0.4275 -0.1213
vn 0.5124 -0.8559 -0.0694
vn 0.9571 0.2592 -0.1296
vn 0.3214 -0.9459 -0.0435
vn 0.9872 0.0868 -0.1337
vn 0.1096 0.9939 -0.0148
vn 0.1096 -0.9939 -0.0148
vn 0.6862 -0.7273 0.0097
vn 0.9067 0.4216 0.0128
vn 0.5235 -0.8520 0.0074
vn 0.9668 0.2551 0.0137
vn 0.3293 -0.9442 0.0047
vn 0.9963 0.0853 0.0141
vn 0.1125 0.9936 0.0016
vn 0.1125 -0.9936 0.0016
vn 0.9963 -0.0854 0.0141
vn 0.3293 0.9442 0.0047
vn 0.9668 -0.2551 0.0137
vn 0.5235 0.8520 0.0074
vn 0.9067 -0.4216 0.0128
vn 0.6862 0.7273 0.0097
vn 0.8138 -0.5810 0.0115
vn 0.8138 0.5810 0.0115
vn 0.9545 -0.2551 0.1544
vn 0.5169 0.8520 0.0836
vn 0.8952 -0.4216 0.1448
vn 0.6775 0.7273 0.1096
vn 0.8035 -0.5810 0.1300
vn 0.8035 0.5810 0.1300
vn 0.6775 -0.7273 0.1096
vn 0.8952 0.4216 0.1448
vn 0.5169 -0.8520 0.0836
vn 0.9545 0.2551 0.1544
vn 0.3251 -0.9442 0.0526
vn 0.9836 0.0853 0.1591
vn 0.1111 0.9936 0.0180
vn 0.1111 -0.9936 0.0180
vn 0.9836 -0.0853 0.1591
vn 0.3251 0.9442 0.0526
vn 0.4926 -0.8559 0.1573
vn 0.9200 0.2592 0.2938
vn 0.3090 -0.9459 0.0987
vn 0.9490 0.0868 0.3031
vn 0.1054 0.9939 0.0337
vn 0.1054 -0.9939 0.0337
vn 0.9490 -0.0868 0.3031
vn 0.3090 0.9459 0.0987
vn 0.9200 -0.2592 0.2938
vn 0.4926 0.8559 0.1573
vn 0.8612 -0.4275 0.2750
vn 0.6478 0.7331 0.2069
vn 0.7708 -0.5875 0.2462
vn 0.7708 0.5875 0.2462
vn 0.6478 -0.7331 0.2069
vn 0.8612 0.4275 0.2750
vn 0.4509 0.8633 0.2266
vn 0.8028 -0.4391 0.4034
vn 0.5968 0.7442 0.2999
vn 0.7147 -0.6003 0.3591
vn 0.7147 0.6003 0.3591
vn 0.5968 -0.7442 0.2999
vn 0.8028 0.4391 0.4034
vn 0.4509 -0.8633 0.2266
vn 0.8610 0.2673 0.4326
vn 0.2813 -0.9491 0.1414
vn 0.8899 0.0897 0.4472
vn 0.0957 0.9943 0.0481
vn 0.0957 -0.9943 0.0481
vn 0.8899 -0.0897 0.4472
vn 0.2813 0.9491 0.1414
vn 0.8610 -0.2673 0.4326
vn 0.7729 0.2792 0.5698
vn 0.2429 -0.9534 0.1791
vn 0.8014 0.0940 0.5907
vn 0.0823 0.9948 0.0607
vn 0.0823 -0.9948 0.0607
vn 0.8014 -0.0940 0.5907
vn 0.2429 0.9534 0.1791
vn 0.7729 -0.2792 0.5698
vn 0.3921 0.8733 0.2890
vn 0.7164 -0.4559 0.5281
vn 0.5236 0.7596 0.3859
vn 0.6327 -0.6182 0.4664
vn 0.6327 0.6182 0.4664
vn 0.5236 -0.7596 0.3859
vn 0.7164 0.4559 0.5281
vn 0.3921 -0.8733 0.2890
vn 0.5976 -0.4764 0.6449
vn 0.4277 0.7772 0.4615
vn 0.5225 -0.6396 0.5639
vn 0.5225 0.6396 0.5639
vn 0.4277 -0.7772 0.4615
vn 0.5976 0.4764 0.6449
vn 0.3170 -0.8846 0.3421
vn 0.6497 0.2939 0.7011
vn 0.1948 -0.9580 0.2103
vn 0.6763 0.0994 0.7299
vn 0.0657 0.9953 0.0709
vn 0.0657 -0.9953 0.0709
vn 0.6763 -0.0994 0.7299
vn 0.1948 0.9580 0.2103
vn 0.6497 -0.2939 0.7011
vn 0.3170 0.8846 0.3421
vn 0.1387 -0.9624 0.2336
vn 0.5078 0.1052 0.8550
vn 0.0466 0.9958 0.0785
vn 0.0466 -0.9958 0.0785
vn 0.5078 -0.1052 0.8550
vn 0.1387 0.9624 0.2336
vn 0.4855 -0.3099 0.8175
vn 0.2274 0.8953 0.3829
vn 0.4428 -0.4980 0.7456
vn 0.3099 0.7947 0.5219
vn 0.3830 -0.6614 0.6449
vn 0.3830 0.6614 0.6449
vn 0.3099 -0.7947 0.5219
vn 0.4428 0.4980 0.7456
vn 0.2274 -0.8953 0.3829
vn 0.4855 0.3099 0.8175
vn 0.1738 0.8089 0.5616
vn 0.2168 -0.6797 0.7007
vn 0.2168 0.6797 0.7007
vn 0.1738 -0.8089 0.5616
vn 0.2530 0.5168 0.8179
vn 0.1265 -0.9039 0.4087
vn 0.2796 0.3241 0.9038
vn 0.0767 -0.9658 0.2478
vn 0.2937 0.1105 0.9495
vn 0.0257 0.9962 0.0830
vn 0.0257 -0.9962 0.0830
vn 0.2937 -0.1105 0.9495
vn 0.0767 0.9658 0.2478
vn 0.2796 -0.3241 0.9038
vn 0.1265 0.9039 0.4087
vn 0.2530 -0.5168 0.8179
vn 0.0441 0.1138 0.9925
vn 0.0037 0.9964 0.0843
vn 0.0037 -0.9964 0.0843
vn 0.0441 -0.1138 0.9925
vn 0.0112 0.9676 0.2522
vn 0.0419 -0.3326 0.9421
vn 0.0185 0.9086 0.4173
vn 0.0377 -0.5278 0.8485
vn 0.0256 0.8169 0.5761
vn 0.0321 -0.6903 0.7228
vn 0.0321 0.6903 0.7228
vn 0.0256 -0.8169 0.5761
vn 0.0377 0.5278 0.8485
vn 0.0185 -0.9086 0.4173
vn 0.0419 0.3326 0.9421
vn 0.0112 -0.9676 0.2522
vn -0.1571 -0.6903 0.7063
vn -0.1571 0.6903 0.7063
vn -0.1253 -0.8169 0.5629
vn -0.1845 0.5278 0.8291
vn -0.0907 -0.9086 0.4078
vn -0.2048 0.3326 0.9206
vn -0.0548 -0.9676 0.2465
vn -0.2158 0.1138 0.9698
vn -0.0183 0.9964 0.0824
vn -0.0183 -0.9964 0.0824
vn -0.2158 -0.1138 0.9698
vn -0.0548 0.9676 0.2465
vn -0.2048 -0.3326 0.9206
vn -0.0907 0.9086 0.4078
vn -0.1845 -0.5278 0.8291
vn -0.1253 0.8169 0.5629
vn -0.0397 -0.9962 0.0773
vn -0.4542 -0.1105 0.8840
vn -0.1186 0.9658 0.2308
vn -0.4323 -0.3241 0.8415
vn -0.1955 0.9039 0.3806
vn -0.3912 -0.5168 0.7615
vn -0.2686 0.8089 0.5229
vn -0.3352 -0.6797 0.6524
vn -0.3352 0.6797 0.6524
vn -0.2686 -0.8089 0.5229
vn -0.3912 0.5168 0.7615
vn -0.1955 -0.9039 0.3806
vn -0.4323 0.3241 0.8415
vn -0.1186 -0.9658 0.2308
vn -0.4542 0.1105 0.8840
vn -0.0397 0.9962 0.0773
vn -0.3959 -0.7947 0.4601
vn -0.5655 0.4980 0.6573
vn -0.2905 -0.8953 0.3376
vn -0.6201 0.3099 0.7207
vn -0.1772 -0.9624 0.2060
vn -0.6486 0.1052 0.7538
vn -0.0595 0.9958 0.0692
vn -0.0595 -0.9958 0.0692
vn -0.6486 -0.1052 0.7538
vn -0.1772 0.9624 0.2060
vn -0.6201 -0.3099 0.7207
vn -0.2905 0.8953 0.3376
vn -0.5655 -0.4980 0.6573
vn -0.3959 0.7947 0.4601
vn -0.4892 -0.6614 0.5686
vn -0.4892 0.6614 0.5686
vn -0.2284 0.9580 0.1732
vn -0.7615 -0.2939 0.5776
vn -0.3716 0.8846 0.2819
vn -0.7005 -0.4764 0.5313
vn -0.5013 0.7772 0.3803
vn -0.6125 -0.6396 0.4646
vn -0.6125 0.6396 0.4646
vn -0.5013 -0.7772 0.3803
vn -0.7005 0.4764 0.5313
vn -0.3716 -0.8846 0.2819
vn -0.7615 0.2939 0.5776
vn -0.2284 -0.9580 0.1732
vn -0.7928 0.0994 0.6014
vn -0.0770 0.9953 0.0584
vn -0.0770 -0.9953 0.0584
vn -0.7928 -0.0994 0.6014
vn -0.7972 0.4559 0.3957
vn -0.4363 -0.8733 0.2166
vn -0.8601 0.2792 0.4269
vn -0.2703 -0.9534 0.1342
vn -0.8918 0.0940 0.4426
vn -0.0916 0.9948 0.0455
vn -0.0916 -0.9948 0.0455
vn -0.8918 -0.0940 0.4426
vn -0.2703 0.9534 0.1342
vn -0.8601 -0.2792 0.4269
vn -0.4363 0.8733 0.2166
vn -0.7972 -0.4559 0.3957
vn -0.5826 0.7596 0.2892
vn -0.7041 -0.6182 0.3494
vn -0.7041 0.6182 0.3494
vn -0.5826 -0.7596 0.2892
vn -0.9231 -0.2673 0.2765
vn -0.4834 0.8633 0.1448
vn -0.8606 -0.4391 0.2578
vn -0.6398 0.7443 0.1917
vn -0.7662 -0.6003 0.2295
vn -0.7662 0.6003 0.2295
vn -0.6398 -0.7443 0.1917
vn -0.8606 0.4391 0.2578
vn -0.4834 -0.8633 0.1448
vn -0.9231 0.2673 0.2765
vn -0.3016 -0.9491 0.0904
vn -0.9541 0.0897 0.2858
vn -0.1026 0.9943 0.0307
vn -0.1026 -0.9943 0.0307
vn -0.9541 -0.0897 0.2858
vn -0.3016 0.9491 0.0904
vn -0.5124 -0.8559 0.0694
vn -0.9571 0.2592 0.1296
vn -0.3214 -0.9459 0.0435
vn -0.9872 0.0868 0.1337
vn -0.1096 0.9939 0.0148
vn -0.1096 -0.9939 0.0148
vn -0.9872 -0.0868 0.1337
vn -0.3214 0.9459 0.0435
vn -0.9571 -0.2592 0.1296
vn -0.5124 0.8559 0.0694
vn -0.8958 -0.4275 0.1213
vn -0.6739 0.7331 0.0913
vn -0.8019 -0.5875 0.1086
vn -0.8019 0.5875 0.1086
vn -0.6739 -0.7331 0.0913
vn -0.8958 0.4275 0.1213
vn -0.5235 0.8520 -0.0074
vn -0.9067 -0.4216 -0.0128
vn -0.6862 0.7273 -0.0097
vn -0.8138 -0.5810 -0.0115
vn -0.8138 0.5810 -0.0115
vn -0.6862 -0.7273 -0.0097
vn -0.9067 0.4216 -0.0128
vn -0.5235 -0.8520 -0.0074
vn -0.9668 0.2551 -0.0137
vn -0.3293 -0.9442 -0.0047
vn -0.9963 0.0854 -0.0141
vn -0.1125 0.9936 -0.0016
vn -0.1125 -0.9936 -0.0016
vn -0.9963 -0.0853 -0.0141
vn -0.3293 0.9442 -0.0047
vn -0.9668 -0.2551 -0.0137
vn 0.9963 0.0854 0.0141
vn 0.9963 -0.0853 0.0141
vn 0.1264 -0.9039 0.4087
vn 0.1264 0.9039 0.4087
vn -0.9963 0.0853 -0.0141
vn -0.9963 -0.0854 -0.0141
vt 0.323986 0.753170
vt 0.310921 0.727041
vt 0.323986 0.727041
vt 0.323986 0.909943
vt 0.310921 0.936071
vt 0.310921 0.909943
vt 0.310921 0.700913
vt 0.323986 0.700913
vt 0.323986 0.883814
vt 0.310921 0.883814
vt 0.310921 0.674784
vt 0.323986 0.674784
vt 0.323986 0.857685
vt 0.310921 0.857685
vt 0.310921 0.648655
vt 0.323986 0.648655
vt 0.323986 0.831556
vt 0.310921 0.831556
vt 0.310921 0.622526
vt 0.323986 0.622526
vt 0.323986 0.805428
vt 0.310921 0.805428
vt 0.310921 0.596398
vt 0.323986 0.596398
vt 0.310921 0.779299
vt 0.323986 0.779299
vt 0.323986 0.962200
vt 0.317454 0.988329
vt 0.310921 0.962200
vt 0.317454 0.570269
vt 0.310921 0.753170
vt 0.323986 0.936072
vt 0.297857 0.753170
vt 0.297857 0.936071
vt 0.297857 0.727041
vt 0.297857 0.909943
vt 0.297857 0.700913
vt 0.297857 0.883814
vt 0.297857 0.674784
vt 0.297857 0.857685
vt 0.297857 0.648655
vt 0.297857 0.831556
vt 0.297857 0.622526
vt 0.297857 0.805428
vt 0.297857 0.596398
vt 0.297857 0.779299
vt 0.304389 0.988329
vt 0.297857 0.962200
vt 0.304389 0.570269
vt 0.284793 0.674784
vt 0.284793 0.648655
vt 0.284793 0.831556
vt 0.284793 0.622526
vt 0.284793 0.805428
vt 0.284793 0.596398
vt 0.284793 0.779299
vt 0.291325 0.988329
vt 0.284793 0.962200
vt 0.291325 0.570269
vt 0.284793 0.753170
vt 0.284793 0.936071
vt 0.284793 0.727041
vt 0.284793 0.909943
vt 0.284793 0.700913
vt 0.284793 0.883814
vt 0.284793 0.857685
vt 0.271728 0.936071
vt 0.271728 0.727041
vt 0.271728 0.909943
vt 0.271728 0.700913
vt 0.271728 0.883814
vt 0.271728 0.674784
vt 0.271728 0.857685
vt 0.271728 0.648655
vt 0.271728 0.831556
vt 0.271728 0.622526
vt 0.271728 0.805428
vt 0.271728 0.596398
vt 0.271728 0.779299
vt 0.278260 0.988329
vt 0.271728 0.962200
vt 0.278260 0.570269
vt 0.271728 0.753170
vt 0.258664 0.831556
vt 0.258664 0.648655
vt 0.258664 0.622526
vt 0.258664 0.805428
vt 0.258664 0.596398
vt 0.258664 0.779299
vt 0.265196 0.988329
vt 0.258664 0.962200
vt 0.265196 0.570269
vt 0.258664 0.753170
vt 0.258664 0.936071
vt 0.258664 0.727041
vt 0.258664 0.909943
vt 0.258664 0.700913
vt 0.258664 0.883814
vt 0.258664 0.674784
vt 0.258664 0.857685
vt 0.245600 0.727041
vt 0.245600 0.909943
vt 0.245600 0.700913
vt 0.245600 0.883814
vt 0.245600 0.674784
vt 0.245600 0.857685
vt 0.245600 0.648655
vt 0.245600 0.831556
vt 0.245600 0.622526
vt 0.245600 0.805428
vt 0.245600 0.596398
vt 0.245600 0.779299
vt 0.252132 0.988329
vt 0.245600 0.962200
vt 0.252132 0.570269
vt 0.245600 0.753170
vt 0.245600 0.936071
vt 0.232535 0.648655
vt 0.232535 0.622526
vt 0.232535 0.831556
vt 0.232535 0.805428
vt 0.232535 0.596398
vt 0.232535 0.779299
vt 0.239067 0.988329
vt 0.232535 0.962200
vt 0.239067 0.570269
vt 0.232535 0.753170
vt 0.232535 0.936071
vt 0.232535 0.727041
vt 0.232535 0.909943
vt 0.232535 0.700913
vt 0.232535 0.883814
vt 0.232535 0.674784
vt 0.232535 0.857685
vt 0.219471 0.727041
vt 0.219471 0.700913
vt 0.219471 0.883814
vt 0.219471 0.674784
vt 0.219471 0.857685
vt 0.219471 0.648655
vt 0.219471 0.831556
vt 0.219471 0.622526
vt 0.219471 0.805428
vt 0.219471 0.596398
vt 0.219471 0.779299
vt 0.226003 0.988329
vt 0.219471 0.962200
vt 0.226003 0.570269
vt 0.219471 0.753170
vt 0.219471 0.936071
vt 0.219471 0.909943
vt 0.206406 0.596398
vt 0.206406 0.805428
vt 0.206406 0.779299
vt 0.212939 0.988329
vt 0.206406 0.962200
vt 0.212939 0.570269
vt 0.206406 0.753170
vt 0.206406 0.936071
vt 0.206406 0.727041
vt 0.206406 0.909943
vt 0.206406 0.700913
vt 0.206406 0.883814
vt 0.206406 0.674784
vt 0.206406 0.857685
vt 0.206406 0.648655
vt 0.206406 0.831556
vt 0.206406 0.622526
vt 0.193342 0.883814
vt 0.193342 0.674784
vt 0.193342 0.857685
vt 0.193342 0.648655
vt 0.193342 0.831556
vt 0.193342 0.622526
vt 0.193342 0.805428
vt 0.193342 0.596398
vt 0.193342 0.779299
vt 0.199874 0.988329
vt 0.193342 0.962200
vt 0.199874 0.570269
vt 0.193342 0.753170
vt 0.193342 0.936071
vt 0.193342 0.727041
vt 0.193342 0.909943
vt 0.193342 0.700913
vt 0.180278 0.805428
vt 0.180278 0.779299
vt 0.186810 0.988329
vt 0.180278 0.962200
vt 0.186810 0.570269
vt 0.180278 0.596398
vt 0.180278 0.753170
vt 0.180278 0.936071
vt 0.180278 0.727041
vt 0.180278 0.909943
vt 0.180278 0.700913
vt 0.180278 0.883814
vt 0.180278 0.674784
vt 0.180278 0.857685
vt 0.180278 0.648655
vt 0.180278 0.831556
vt 0.180278 0.622526
vt 0.167213 0.674784
vt 0.167213 0.883814
vt 0.167213 0.857685
vt 0.167213 0.648655
vt 0.167213 0.831556
vt 0.167213 0.622526
vt 0.167213 0.805428
vt 0.167213 0.596398
vt 0.167213 0.779299
vt 0.173745 0.988329
vt 0.167213 0.962200
vt 0.173745 0.570269
vt 0.167213 0.753170
vt 0.167213 0.936071
vt 0.167213 0.727041
vt 0.167213 0.909943
vt 0.167213 0.700913
vt 0.160681 0.988329
vt 0.154149 0.962200
vt 0.160681 0.570269
vt 0.154149 0.596398
vt 0.154149 0.753170
vt 0.154149 0.936071
vt 0.154149 0.727041
vt 0.154149 0.909943
vt 0.154149 0.700913
vt 0.154149 0.883814
vt 0.154149 0.674784
vt 0.154149 0.857685
vt 0.154149 0.648655
vt 0.154149 0.831556
vt 0.154149 0.622526
vt 0.154149 0.805428
vt 0.154149 0.779299
vt 0.141084 0.883814
vt 0.141084 0.857685
vt 0.141084 0.674784
vt 0.141084 0.648655
vt 0.141084 0.831556
vt 0.141084 0.622526
vt 0.141084 0.805428
vt 0.141084 0.596398
vt 0.141084 0.779299
vt 0.147617 0.988329
vt 0.141084 0.962200
vt 0.147617 0.570269
vt 0.141084 0.753170
vt 0.141084 0.936071
vt 0.141084 0.727041
vt 0.141084 0.909943
vt 0.141084 0.700913
vt 0.128020 0.753170
vt 0.128020 0.936071
vt 0.128020 0.727041
vt 0.128020 0.909943
vt 0.128020 0.700913
vt 0.128020 0.883814
vt 0.128020 0.674784
vt 0.128020 0.857685
vt 0.128020 0.648655
vt 0.128020 0.831556
vt 0.128020 0.622526
vt 0.128020 0.805428
vt 0.128020 0.596398
vt 0.128020 0.779299
vt 0.134552 0.988329
vt 0.128020 0.962200
vt 0.134552 0.570269
vt 0.114956 0.674784
vt 0.114956 0.648655
vt 0.114956 0.831556
vt 0.114956 0.622526
vt 0.114956 0.805428
vt 0.114956 0.596398
vt 0.114956 0.779299
vt 0.121488 0.988329
vt 0.114956 0.962200
vt 0.121488 0.570269
vt 0.114956 0.753170
vt 0.114956 0.936071
vt 0.114956 0.727041
vt 0.114956 0.909943
vt 0.114956 0.700913
vt 0.114956 0.883814
vt 0.114956 0.857685
vt 0.101891 0.727041
vt 0.101891 0.909943
vt 0.101891 0.700913
vt 0.101891 0.883814
vt 0.101891 0.674784
vt 0.101891 0.857685
vt 0.101891 0.648655
vt 0.101891 0.831556
vt 0.101891 0.622526
vt 0.101891 0.805428
vt 0.101891 0.596398
vt 0.101891 0.779299
vt 0.108424 0.988329
vt 0.101891 0.962200
vt 0.108424 0.570269
vt 0.101891 0.753170
vt 0.101891 0.936071
vt 0.088827 0.622526
vt 0.088827 0.831556
vt 0.088827 0.805428
vt 0.088827 0.596398
vt 0.088827 0.779299
vt 0.095359 0.988329
vt 0.088827 0.962200
vt 0.095359 0.570269
vt 0.088827 0.753170
vt 0.088827 0.936071
vt 0.088827 0.727041
vt 0.088827 0.909943
vt 0.088827 0.700913
vt 0.088827 0.883814
vt 0.088827 0.674784
vt 0.088827 0.857685
vt 0.088827 0.648655
vt 0.075763 0.909943
vt 0.075763 0.727041
vt 0.075763 0.700913
vt 0.075763 0.883814
vt 0.075763 0.674784
vt 0.075763 0.857685
vt 0.075763 0.648655
vt 0.075763 0.831556
vt 0.075763 0.622526
vt 0.075763 0.805428
vt 0.075763 0.596398
vt 0.075763 0.779299
vt 0.082295 0.988329
vt 0.075763 0.962200
vt 0.082295 0.570269
vt 0.075763 0.753170
vt 0.075763 0.936071
vt 0.062698 0.831556
vt 0.062698 0.805428
vt 0.062698 0.622526
vt 0.062698 0.596398
vt 0.062698 0.779299
vt 0.069230 0.988329
vt 0.062698 0.962200
vt 0.069230 0.570269
vt 0.062698 0.753170
vt 0.062698 0.936071
vt 0.062698 0.727041
vt 0.062698 0.909943
vt 0.062698 0.700913
vt 0.062698 0.883814
vt 0.062698 0.674784
vt 0.062698 0.857685
vt 0.062698 0.648655
vt 0.049634 0.727041
vt 0.049634 0.700913
vt 0.049634 0.883814
vt 0.049634 0.674784
vt 0.049634 0.857685
vt 0.049634 0.648655
vt 0.049634 0.831556
vt 0.049634 0.622526
vt 0.049634 0.805428
vt 0.049634 0.596398
vt 0.049634 0.779299
vt 0.056166 0.988329
vt 0.049634 0.962200
vt 0.056166 0.570269
vt 0.049634 0.753170
vt 0.049634 0.936071
vt 0.049634 0.909943
vt 0.036569 0.596398
vt 0.036569 0.805428
vt 0.036569 0.779299
vt 0.043102 0.988329
vt 0.036569 0.962200
vt 0.043102 0.570269
vt 0.036569 0.753170
vt 0.036569 0.936071
vt 0.036569 0.727041
vt 0.036569 0.909943
vt 0.036569 0.700913
vt 0.036569 0.883814
vt 0.036569 0.674784
vt 0.036569 0.857685
vt 0.036569 0.648655
vt 0.036569 0.831556
vt 0.036569 0.622526
vt 0.023505 0.883814
vt 0.023505 0.674784
vt 0.023505 0.857685
vt 0.023505 0.648655
vt 0.023505 0.831556
vt 0.023505 0.622526
vt 0.023505 0.805428
vt 0.023505 0.596398
vt 0.023505 0.779299
vt 0.030037 0.988329
vt 0.023505 0.962200
vt 0.030037 0.570269
vt 0.023505 0.753170
vt 0.023505 0.936072
vt 0.023505 0.727041
vt 0.023505 0.909943
vt 0.023505 0.700913
vt 0.010441 0.805428
vt 0.010441 0.779299
vt 0.016973 0.988329
vt 0.010441 0.962200
vt 0.016973 0.570269
vt 0.010441 0.596398
vt 0.010441 0.753170
vt 0.010441 0.936072
vt 0.010441 0.727041
vt 0.010441 0.909943
vt 0.010441 0.700913
vt 0.010441 0.883814
vt 0.010441 0.674784
vt 0.010441 0.857685
vt 0.010441 0.648655
vt 0.010441 0.831556
vt 0.010441 0.622526
vt 0.428501 0.700913
vt 0.415436 0.674784
vt 0.428501 0.674784
vt 0.428501 0.857685
vt 0.415436 0.883814
vt 0.415436 0.857685
vt 0.428501 0.648655
vt 0.415436 0.648655
vt 0.415436 0.831556
vt 0.428501 0.831556
vt 0.415436 0.622526
vt 0.428501 0.622526
vt 0.428501 0.805428
vt 0.415436 0.805428
vt 0.415436 0.596398
vt 0.428501 0.596398
vt 0.428501 0.779299
vt 0.415436 0.779299
vt 0.428501 0.962200
vt 0.421969 0.988329
vt 0.415436 0.962200
vt 0.421969 0.570269
vt 0.415436 0.753170
vt 0.428501 0.753170
vt 0.415436 0.936072
vt 0.428501 0.936072
vt 0.415436 0.727041
vt 0.428501 0.727041
vt 0.428501 0.909943
vt 0.415436 0.909943
vt 0.415436 0.700913
vt 0.428501 0.883814
vt 0.408904 0.570269
vt 0.402372 0.596398
vt 0.402372 0.753170
vt 0.402372 0.936072
vt 0.402372 0.727041
vt 0.402372 0.909943
vt 0.402372 0.700913
vt 0.402372 0.883814
vt 0.402372 0.674784
vt 0.402372 0.857685
vt 0.402372 0.648655
vt 0.402372 0.831556
vt 0.402372 0.622526
vt 0.402372 0.805428
vt 0.402372 0.779299
vt 0.408904 0.988329
vt 0.402372 0.962200
vt 0.389308 0.674784
vt 0.389308 0.648655
vt 0.389308 0.831556
vt 0.389308 0.622526
vt 0.389308 0.805428
vt 0.389308 0.596398
vt 0.389308 0.779299
vt 0.395840 0.988329
vt 0.389308 0.962200
vt 0.395840 0.570269
vt 0.389308 0.753170
vt 0.389308 0.936072
vt 0.389308 0.727041
vt 0.389308 0.909943
vt 0.389308 0.700913
vt 0.389308 0.883814
vt 0.389308 0.857685
vt 0.376243 0.936072
vt 0.376243 0.727041
vt 0.376243 0.909943
vt 0.376243 0.700913
vt 0.376243 0.883814
vt 0.376243 0.674784
vt 0.376243 0.857685
vt 0.376243 0.648655
vt 0.376243 0.831556
vt 0.376243 0.622526
vt 0.376243 0.805428
vt 0.376243 0.596398
vt 0.376243 0.779299
vt 0.382775 0.988329
vt 0.376243 0.962200
vt 0.382775 0.570269
vt 0.376243 0.753170
vt 0.363179 0.831556
vt 0.363179 0.622526
vt 0.363179 0.805428
vt 0.363179 0.596398
vt 0.363179 0.779299
vt 0.369711 0.988329
vt 0.363179 0.962200
vt 0.369711 0.570269
vt 0.363179 0.753170
vt 0.363179 0.936072
vt 0.363179 0.727041
vt 0.363179 0.909943
vt 0.363179 0.700913
vt 0.363179 0.883814
vt 0.363179 0.674784
vt 0.363179 0.857685
vt 0.363179 0.648655
vt 0.350115 0.727041
vt 0.350115 0.909943
vt 0.350115 0.700913
vt 0.350115 0.883814
vt 0.350115 0.674784
vt 0.350115 0.857685
vt 0.350115 0.648655
vt 0.350115 0.831556
vt 0.350115 0.622526
vt 0.350115 0.805428
vt 0.350115 0.596398
vt 0.350115 0.779299
vt 0.356647 0.988329
vt 0.350115 0.962200
vt 0.356647 0.570269
vt 0.350115 0.753170
vt 0.350115 0.936072
vt 0.337050 0.622526
vt 0.337050 0.831556
vt 0.337050 0.805428
vt 0.337050 0.596398
vt 0.337050 0.779299
vt 0.343582 0.988329
vt 0.337050 0.962200
vt 0.343582 0.570269
vt 0.337050 0.753170
vt 0.337050 0.936072
vt 0.337050 0.727041
vt 0.337050 0.909943
vt 0.337050 0.700913
vt 0.337050 0.883814
vt 0.337050 0.674784
vt 0.337050 0.857685
vt 0.337050 0.648655
vt 0.330518 0.988329
vt 0.330518 0.570269
s 0
usemtl Material
f 5/1/1 16/2/1 478/3/1
f 1/4/2 8/5/2 9/6/2
f 478/3/3 17/7/3 6/8/3
f 476/9/4 9/6/4 10/10/4
f 6/8/5 18/11/5 479/12/5
f 2/13/6 10/10/6 11/14/6
f 479/12/7 19/15/7 480/16/7
f 477/17/8 11/14/8 12/18/8
f 480/16/9 20/19/9 481/20/9
f 3/21/10 12/18/10 13/22/10
f 481/20/11 21/23/11 482/24/11
f 3/21/12 14/25/12 4/26/12
f 474/27/13 82/28/13 7/29/13
f 308/30/14 482/24/14 21/23/14
f 4/26/15 15/31/15 5/1/15
f 475/32/16 7/29/16 8/5/16
f 14/25/17 30/33/17 15/31/17
f 7/29/18 23/34/18 8/5/18
f 15/31/19 31/35/19 16/2/19
f 8/5/20 24/36/20 9/6/20
f 16/2/21 32/37/21 17/7/21
f 9/6/22 25/38/22 10/10/22
f 17/7/23 33/39/23 18/11/23
f 10/10/24 26/40/24 11/14/24
f 19/15/25 33/39/25 34/41/25
f 11/14/26 27/42/26 12/18/26
f 20/19/27 34/41/27 35/43/27
f 13/22/28 27/42/28 28/44/28
f 20/19/29 36/45/29 21/23/29
f 13/22/30 29/46/30 14/25/30
f 7/29/31 82/47/31 22/48/31
f 308/49/32 21/23/32 36/45/32
f 34/41/33 48/50/33 49/51/33
f 26/40/34 42/52/34 27/42/34
f 34/41/35 50/53/35 35/43/35
f 27/42/36 43/54/36 28/44/36
f 35/43/37 51/55/37 36/45/37
f 28/44/38 44/56/38 29/46/38
f 22/48/39 82/57/39 37/58/39
f 308/59/40 36/45/40 51/55/40
f 30/33/41 44/56/41 45/60/41
f 22/48/42 38/61/42 23/34/42
f 30/33/43 46/62/43 31/35/43
f 23/34/44 39/63/44 24/36/44
f 32/37/45 46/62/45 47/64/45
f 24/36/46 40/65/46 25/38/46
f 33/39/47 47/64/47 48/50/47
f 25/38/48 41/66/48 26/40/48
f 37/58/49 53/67/49 38/61/49
f 45/60/50 61/68/50 46/62/50
f 38/61/51 54/69/51 39/63/51
f 47/64/52 61/68/52 62/70/52
f 39/63/53 55/71/53 40/65/53
f 47/64/54 63/72/54 48/50/54
f 40/65/55 56/73/55 41/66/55
f 48/50/56 64/74/56 49/51/56
f 41/66/57 57/75/57 42/52/57
f 49/51/58 65/76/58 50/53/58
f 43/54/59 57/75/59 58/77/59
f 50/53/60 66/78/60 51/55/60
f 44/56/61 58/77/61 59/79/61
f 37/58/62 82/80/62 52/81/62
f 308/82/63 51/55/63 66/78/63
f 44/56/64 60/83/64 45/60/64
f 56/73/65 72/84/65 57/75/65
f 65/76/66 79/85/66 80/86/66
f 58/77/67 72/84/67 73/87/67
f 65/76/68 81/88/68 66/78/68
f 59/79/69 73/87/69 74/89/69
f 52/81/70 82/90/70 67/91/70
f 308/92/71 66/78/71 81/88/71
f 59/79/72 75/93/72 60/83/72
f 52/81/73 68/94/73 53/67/73
f 60/83/74 76/95/74 61/68/74
f 53/67/75 69/96/75 54/69/75
f 62/70/76 76/95/76 77/97/76
f 54/69/77 70/98/77 55/71/77
f 62/70/78 78/99/78 63/72/78
f 56/73/79 70/98/79 71/100/79
f 63/72/80 79/85/80 64/74/80
f 75/93/81 92/101/81 76/95/81
f 68/94/82 85/102/82 69/96/82
f 77/97/83 92/101/83 93/103/83
f 69/96/84 86/104/84 70/98/84
f 77/97/85 94/105/85 78/99/85
f 71/100/86 86/104/86 87/106/86
f 78/99/87 95/107/87 79/85/87
f 71/100/88 88/108/88 72/84/88
f 79/85/89 96/109/89 80/86/89
f 73/87/90 88/108/90 89/110/90
f 81/88/91 96/109/91 97/111/91
f 74/89/92 89/110/92 90/112/92
f 67/91/93 82/113/93 83/114/93
f 308/115/94 81/88/94 97/111/94
f 74/89/95 91/116/95 75/93/95
f 67/91/96 84/117/96 68/94/96
f 96/109/97 110/118/97 111/119/97
f 89/110/98 103/120/98 104/121/98
f 96/109/99 112/122/99 97/111/99
f 90/112/100 104/121/100 105/123/100
f 83/114/101 82/124/101 98/125/101
f 308/126/102 97/111/102 112/122/102
f 90/112/103 106/127/103 91/116/103
f 84/117/104 98/125/104 99/128/104
f 91/116/105 107/129/105 92/101/105
f 84/117/106 100/130/106 85/102/106
f 93/103/107 107/129/107 108/131/107
f 85/102/108 101/132/108 86/104/108
f 93/103/109 109/133/109 94/105/109
f 87/106/110 101/132/110 102/134/110
f 95/107/111 109/133/111 110/118/111
f 87/106/112 103/120/112 88/108/112
f 108/131/113 122/135/113 123/136/113
f 100/130/114 116/137/114 101/132/114
f 108/131/115 124/138/115 109/133/115
f 102/134/116 116/137/116 117/139/116
f 110/118/117 124/138/117 125/140/117
f 102/134/118 118/141/118 103/120/118
f 110/118/119 126/142/119 111/119/119
f 104/121/120 118/141/120 119/143/120
f 111/119/121 127/144/121 112/122/121
f 105/123/122 119/143/122 120/145/122
f 98/125/123 82/146/123 113/147/123
f 308/148/124 112/122/124 127/144/124
f 105/123/125 121/149/125 106/127/125
f 99/128/126 113/147/126 114/150/126
f 106/127/127 122/135/127 107/129/127
f 99/128/128 115/151/128 100/130/128
f 126/142/129 142/152/129 127/144/129
f 120/145/130 134/153/130 135/154/130
f 113/147/131 82/155/131 128/156/131
f 308/157/132 127/144/132 142/152/132
f 120/145/133 136/158/133 121/149/133
f 113/147/134 129/159/134 114/150/134
f 121/149/135 137/160/135 122/135/135
f 114/150/136 130/161/136 115/151/136
f 123/136/137 137/160/137 138/162/137
f 115/151/138 131/163/138 116/137/138
f 123/136/139 139/164/139 124/138/139
f 117/139/140 131/163/140 132/165/140
f 125/140/141 139/164/141 140/166/141
f 117/139/142 133/167/142 118/141/142
f 125/140/143 141/168/143 126/142/143
f 119/143/144 133/167/144 134/153/144
f 130/161/145 146/169/145 131/163/145
f 138/162/146 154/170/146 139/164/146
f 132/165/147 146/169/147 147/171/147
f 140/166/148 154/170/148 155/172/148
f 132/165/149 148/173/149 133/167/149
f 140/166/150 156/174/150 141/168/150
f 134/153/151 148/173/151 149/175/151
f 142/152/152 156/174/152 157/176/152
f 135/154/153 149/175/153 150/177/153
f 128/156/154 82/178/154 143/179/154
f 308/180/155 142/152/155 157/176/155
f 135/154/156 151/181/156 136/158/156
f 128/156/157 144/182/157 129/159/157
f 136/158/158 152/183/158 137/160/158
f 130/161/159 144/182/159 145/184/159
f 138/162/160 152/183/160 153/185/160
f 150/177/161 164/186/161 165/187/161
f 143/179/162 82/188/162 158/189/162
f 308/190/163 157/176/163 172/191/163
f 150/177/164 166/192/164 151/181/164
f 143/179/165 159/193/165 144/182/165
f 151/181/166 167/194/166 152/183/166
f 145/184/167 159/193/167 160/195/167
f 153/185/168 167/194/168 168/196/168
f 145/184/169 161/197/169 146/169/169
f 153/185/170 169/198/170 154/170/170
f 147/171/171 161/197/171 162/199/171
f 155/172/172 169/198/172 170/200/172
f 147/171/173 163/201/173 148/173/173
f 155/172/174 171/202/174 156/174/174
f 149/175/175 163/201/175 164/186/175
f 156/174/176 172/191/176 157/176/176
f 168/196/177 184/203/177 169/198/177
f 162/199/178 176/204/178 177/205/178
f 169/198/179 185/206/179 170/200/179
f 162/199/180 178/207/180 163/201/180
f 171/202/181 185/206/181 186/208/181
f 164/186/182 178/207/182 179/209/182
f 172/191/183 186/208/183 187/210/183
f 165/187/184 179/209/184 180/211/184
f 158/189/185 82/212/185 173/213/185
f 308/214/186 172/191/186 187/210/186
f 165/187/187 181/215/187 166/192/187
f 158/189/188 174/216/188 159/193/188
f 166/192/189 182/217/189 167/194/189
f 159/193/190 175/218/190 160/195/190
f 168/196/191 182/217/191 183/219/191
f 160/195/192 176/204/192 161/197/192
f 173/213/193 82/220/193 188/221/193
f 308/222/194 187/210/194 202/223/194
f 180/211/195 196/224/195 181/215/195
f 174/216/196 188/221/196 189/225/196
f 181/215/197 197/226/197 182/217/197
f 175/218/198 189/225/198 190/227/198
f 183/219/199 197/226/199 198/228/199
f 175/218/200 191/229/200 176/204/200
f 183/219/201 199/230/201 184/203/201
f 177/205/202 191/229/202 192/231/202
f 185/206/203 199/230/203 200/232/203
f 177/205/204 193/233/204 178/207/204
f 185/206/205 201/234/205 186/208/205
f 179/209/206 193/233/206 194/235/206
f 186/208/207 202/223/207 187/210/207
f 180/211/208 194/235/208 195/236/208
f 192/231/209 206/237/209 207/238/209
f 200/232/210 214/239/210 215/240/210
f 192/231/211 208/241/211 193/233/211
f 200/232/212 216/242/212 201/234/212
f 194/235/213 208/241/213 209/243/213
f 201/234/214 217/244/214 202/223/214
f 195/236/215 209/243/215 210/245/215
f 188/221/216 82/246/216 203/247/216
f 308/248/217 202/223/217 217/244/217
f 195/236/218 211/249/218 196/224/218
f 188/221/219 204/250/219 189/225/219
f 196/224/220 212/251/220 197/226/220
f 189/225/221 205/252/221 190/227/221
f 198/228/222 212/251/222 213/253/222
f 190/227/223 206/237/223 191/229/223
f 198/228/224 214/239/224 199/230/224
f 210/245/225 226/254/225 211/249/225
f 203/247/226 219/255/226 204/250/226
f 211/249/227 227/256/227 212/251/227
f 204/250/228 220/257/228 205/252/228
f 213/253/229 227/256/229 228/258/229
f 205/252/230 221/259/230 206/237/230
f 213/253/231 229/260/231 214/239/231
f 207/238/232 221/259/232 222/261/232
f 215/240/233 229/260/233 230/262/233
f 207/238/234 223/263/234 208/241/234
f 215/240/235 231/264/235 216/242/235
f 209/243/236 223/263/236 224/265/236
f 216/242/237 232/266/237 217/244/237
f 210/245/238 224/265/238 225/267/238
f 203/247/239 82/268/239 218/269/239
f 308/270/240 217/244/240 232/266/240
f 230/262/241 244/271/241 245/272/241
f 222/261/242 238/273/242 223/263/242
f 230/262/243 246/274/243 231/264/243
f 224/265/244 238/273/244 239/275/244
f 232/266/245 246/274/245 247/276/245
f 225/267/246 239/275/246 240/277/246
f 218/269/247 82/278/247 233/279/247
f 308/280/248 232/266/248 247/276/248
f 225/267/249 241/281/249 226/254/249
f 218/269/250 234/282/250 219/255/250
f 226/254/251 242/283/251 227/256/251
f 220/257/252 234/282/252 235/284/252
f 228/258/253 242/283/253 243/285/253
f 220/257/254 236/286/254 221/259/254
f 228/258/255 244/271/255 229/260/255
f 222/261/256 236/286/256 237/287/256
f 241/281/257 257/288/257 242/283/257
f 234/282/258 250/289/258 235/284/258
f 243/285/259 257/288/259 258/290/259
f 235/284/260 251/291/260 236/286/260
f 243/285/261 259/292/261 244/271/261
f 237/287/262 251/291/262 252/293/262
f 245/272/263 259/292/263 260/294/263
f 237/287/264 253/295/264 238/273/264
f 245/272/265 261/296/265 246/274/265
f 239/275/266 253/295/266 254/297/266
f 246/274/267 262/298/267 247/276/267
f 240/277/268 254/297/268 255/299/268
f 233/279/269 82/300/269 248/301/269
f 308/302/270 247/276/270 262/298/270
f 240/277/271 256/303/271 241/281/271
f 233/279/272 249/304/272 234/282/272
f 260/294/273 276/305/273 261/296/273
f 254/297/274 268/306/274 269/307/274
f 261/296/275 277/308/275 262/298/275
f 255/299/276 269/307/276 270/309/276
f 248/301/277 82/310/277 263/311/277
f 308/312/278 262/298/278 277/308/278
f 255/299/279 271/313/279 256/303/279
f 249/304/280 263/311/280 264/314/280
f 256/303/281 272/315/281 257/288/281
f 249/304/282 265/316/282 250/289/282
f 258/290/283 272/315/283 273/317/283
f 250/289/284 266/318/284 251/291/284
f 258/290/285 274/319/285 259/292/285
f 252/293/286 266/318/286 267/320/286
f 260/294/287 274/319/287 275/321/287
f 252/293/288 268/306/288 253/295/288
f 264/314/289 280/322/289 265/316/289
f 273/317/290 287/323/290 288/324/290
f 265/316/291 281/325/291 266/318/291
f 273/317/292 289/326/292 274/319/292
f 267/320/293 281/325/293 282/327/293
f 275/321/294 289/326/294 290/328/294
f 267/320/295 283/329/295 268/306/295
f 275/321/296 291/330/296 276/305/296
f 269/307/297 283/329/297 284/331/297
f 277/308/298 291/330/298 292/332/298
f 270/309/299 284/331/299 285/333/299
f 263/311/300 82/334/300 278/335/300
f 308/336/301 277/308/301 292/332/301
f 270/309/302 286/337/302 271/313/302
f 264/314/303 278/335/303 279/338/303
f 271/313/304 287/323/304 272/315/304
f 284/331/305 298/339/305 299/340/305
f 292/332/306 306/341/306 307/342/306
f 285/333/307 299/340/307 300/343/307
f 278/335/308 82/344/308 293/345/308
f 308/346/309 292/332/309 307/342/309
f 285/333/310 301/347/310 286/337/310
f 278/335/311 294/348/311 279/338/311
f 286/337/312 302/349/312 287/323/312
f 279/338/313 295/350/313 280/322/313
f 288/324/314 302/349/314 303/351/314
f 280/322/315 296/352/315 281/325/315
f 288/324/316 304/353/316 289/326/316
f 282/327/317 296/352/317 297/354/317
f 290/328/318 304/353/318 305/355/318
f 282/327/319 298/339/319 283/329/319
f 290/328/320 306/341/320 291/330/320
f 303/351/321 318/356/321 319/357/321
f 295/350/322 312/358/322 296/352/322
f 303/351/323 320/359/323 304/353/323
f 297/354/324 312/358/324 313/360/324
f 305/355/325 320/359/325 321/361/325
f 297/354/326 314/362/326 298/339/326
f 305/355/327 322/363/327 306/341/327
f 299/340/328 314/362/328 315/364/328
f 306/341/329 323/365/329 307/342/329
f 300/343/330 315/364/330 316/366/330
f 293/345/331 82/367/331 309/368/331
f 308/369/332 307/342/332 323/365/332
f 300/343/333 317/370/333 301/347/333
f 293/345/334 310/371/334 294/348/334
f 301/347/335 318/356/335 302/349/335
f 294/348/336 311/372/336 295/350/336
f 322/363/337 338/373/337 323/365/337
f 316/366/338 330/374/338 331/375/338
f 309/368/339 82/376/339 324/377/339
f 308/378/340 323/365/340 338/373/340
f 316/366/341 332/379/341 317/370/341
f 309/368/342 325/380/342 310/371/342
f 317/370/343 333/381/343 318/356/343
f 310/371/344 326/382/344 311/372/344
f 319/357/345 333/381/345 334/383/345
f 311/372/346 327/384/346 312/358/346
f 319/357/347 335/385/347 320/359/347
f 312/358/348 328/386/348 313/360/348
f 321/361/349 335/385/349 336/387/349
f 313/360/350 329/388/350 314/362/350
f 321/361/351 337/389/351 322/363/351
f 315/364/352 329/388/352 330/374/352
f 326/382/353 342/390/353 327/384/353
f 334/383/354 350/391/354 335/385/354
f 328/386/355 342/390/355 343/392/355
f 336/387/356 350/391/356 351/393/356
f 328/386/357 344/394/357 329/388/357
f 336/387/358 352/395/358 337/389/358
f 330/374/359 344/394/359 345/396/359
f 337/389/360 353/397/360 338/373/360
f 331/375/361 345/396/361 346/398/361
f 324/377/362 82/399/362 339/400/362
f 308/401/363 338/373/363 353/397/363
f 331/375/364 347/402/364 332/379/364
f 324/377/365 340/403/365 325/380/365
f 332/379/366 348/404/366 333/381/366
f 325/380/367 341/405/367 326/382/367
f 334/383/368 348/404/368 349/406/368
f 346/398/369 360/407/369 361/408/369
f 339/400/370 82/409/370 354/410/370
f 308/411/371 353/397/371 368/412/371
f 346/398/372 362/413/372 347/402/372
f 339/400/373 355/414/373 340/403/373
f 347/402/374 363/415/374 348/404/374
f 341/405/375 355/414/375 356/416/375
f 349/406/376 363/415/376 364/417/376
f 341/405/377 357/418/377 342/390/377
f 349/406/378 365/419/378 350/391/378
f 343/392/379 357/418/379 358/420/379
f 351/393/380 365/419/380 366/421/380
f 343/392/381 359/422/381 344/394/381
f 351/393/382 367/423/382 352/395/382
f 345/396/383 359/422/383 360/407/383
f 352/395/384 368/412/384 353/397/384
f 364/424/385 380/425/385 365/426/385
f 358/427/386 372/428/386 373/429/386
f 366/430/387 380/425/387 381/431/387
f 358/427/388 374/432/388 359/433/388
f 366/430/389 382/434/389 367/435/389
f 360/436/390 374/432/390 375/437/390
f 367/435/391 383/438/391 368/439/391
f 361/440/392 375/437/392 376/441/392
f 354/442/393 82/443/393 369/444/393
f 308/445/394 368/439/394 383/438/394
f 361/440/395 377/446/395 362/447/395
f 354/442/396 370/448/396 355/449/396
f 362/447/397 378/450/397 363/451/397
f 356/452/398 370/448/398 371/453/398
f 364/424/399 378/450/399 379/454/399
f 356/452/400 372/428/400 357/455/400
f 308/456/401 383/438/401 398/457/401
f 376/441/402 392/458/402 377/446/402
f 369/444/403 385/459/403 370/448/403
f 377/446/404 393/460/404 378/450/404
f 371/453/405 385/459/405 386/461/405
f 379/454/406 393/460/406 394/462/406
f 371/453/407 387/463/407 372/428/407
f 379/454/408 395/464/408 380/425/408
f 373/429/409 387/463/409 388/465/409
f 381/431/410 395/464/410 396/466/410
f 373/429/411 389/467/411 374/432/411
f 381/431/412 397/468/412 382/434/412
f 375/437/413 389/467/413 390/469/413
f 382/434/414 398/457/414 383/438/414
f 376/441/415 390/469/415 391/470/415
f 369/444/416 82/471/416 384/472/416
f 396/466/417 410/473/417 411/474/417
f 388/465/418 404/475/418 389/467/418
f 397/468/419 411/474/419 412/476/419
f 390/469/420 404/475/420 405/477/420
f 397/468/421 413/478/421 398/457/421
f 391/470/422 405/477/422 406/479/422
f 384/472/423 82/480/423 399/481/423
f 308/482/424 398/457/424 413/478/424
f 391/470/425 407/483/425 392/458/425
f 385/459/426 399/481/426 400/484/426
f 392/458/427 408/485/427 393/460/427
f 385/459/428 401/486/428 386/461/428
f 394/462/429 408/485/429 409/487/429
f 386/461/430 402/488/430 387/463/430
f 394/462/431 410/473/431 395/464/431
f 388/465/432 402/488/432 403/489/432
f 399/481/433 415/490/433 400/484/433
f 407/483/434 423/491/434 408/485/434
f 401/486/435 415/490/435 416/492/435
f 409/487/436 423/491/436 424/493/436
f 401/486/437 417/494/437 402/488/437
f 409/487/438 425/495/438 410/473/438
f 403/489/439 417/494/439 418/496/439
f 411/474/440 425/495/440 426/497/440
f 403/489/441 419/498/441 404/475/441
f 411/474/442 427/499/442 412/476/442
f 405/477/443 419/498/443 420/500/443
f 412/476/444 428/501/444 413/478/444
f 406/479/445 420/500/445 421/502/445
f 399/481/446 82/503/446 414/504/446
f 308/505/447 413/478/447 428/501/447
f 406/479/448 422/506/448 407/483/448
f 418/496/449 434/507/449 419/498/449
f 426/497/450 442/508/450 427/499/450
f 420/500/451 434/507/451 435/509/451
f 427/499/452 443/510/452 428/501/452
f 421/502/453 435/509/453 436/511/453
f 414/504/454 82/512/454 429/513/454
f 308/514/455 428/501/455 443/510/455
f 421/502/456 437/515/456 422/506/456
f 414/504/457 430/516/457 415/490/457
f 422/506/458 438/517/458 423/491/458
f 416/492/459 430/516/459 431/518/459
f 424/493/460 438/517/460 439/519/460
f 416/492/461 432/520/461 417/494/461
f 424/493/462 440/521/462 425/495/462
f 418/496/463 432/520/463 433/522/463
f 426/497/464 440/521/464 441/523/464
f 437/515/465 453/524/465 438/517/465
f 430/516/466 446/525/466 431/518/466
f 439/519/467 453/524/467 454/526/467
f 431/518/468 447/527/468 432/520/468
f 439/519/469 455/528/469 440/521/469
f 433/522/470 447/527/470 448/529/470
f 441/523/471 455/528/471 456/530/471
f 433/522/472 449/531/472 434/507/472
f 441/523/473 457/532/473 442/508/473
f 435/509/474 449/531/474 450/533/474
f 442/508/475 458/534/475 443/510/475
f 436/511/476 450/533/476 451/535/476
f 429/513/477 82/536/477 444/537/477
f 308/538/478 443/510/478 458/534/478
f 436/511/479 452/539/479 437/515/479
f 430/516/480 444/537/480 445/540/480
f 456/530/481 472/541/481 457/532/481
f 450/533/482 464/542/482 465/543/482
f 458/534/483 472/541/483 473/544/483
f 451/535/484 465/543/484 466/545/484
f 444/537/485 82/546/485 459/547/485
f 308/548/486 458/534/486 473/544/486
f 451/535/487 467/549/487 452/539/487
f 444/537/488 460/550/488 445/540/488
f 452/539/489 468/551/489 453/524/489
f 446/525/490 460/550/490 461/552/490
f 454/526/491 468/551/491 469/553/491
f 446/525/492 462/554/492 447/527/492
f 454/526/493 470/555/493 455/528/493
f 448/529/494 462/554/494 463/556/494
f 456/530/495 470/555/495 471/557/495
f 448/529/496 464/542/496 449/531/496
f 461/552/497 475/32/497 1/4/497
f 468/551/498 6/8/498 469/553/498
f 462/554/499 1/4/499 476/9/499
f 469/553/500 479/12/500 470/555/500
f 463/556/501 476/9/501 2/13/501
f 471/557/502 479/12/502 480/16/502
f 464/542/503 2/13/503 477/17/503
f 471/557/504 481/20/504 472/541/504
f 465/543/505 477/17/505 3/21/505
f 472/541/506 482/24/506 473/544/506
f 466/545/507 3/21/507 4/26/507
f 459/547/508 82/558/508 474/27/508
f 308/559/509 473/544/509 482/24/509
f 466/545/510 5/1/510 467/549/510
f 460/550/511 474/27/511 475/32/511
f 467/549/512 478/3/512 468/551/512
f 5/1/1 15/31/1 16/2/1
f 1/4/2 475/32/2 8/5/2
f 478/3/3 16/2/3 17/7/3
f 476/9/4 1/4/4 9/6/4
f 6/8/5 17/7/5 18/11/5
f 2/13/6 476/9/6 10/10/6
f 479/12/7 18/11/7 19/15/7
f 477/17/8 2/13/8 11/14/8
f 480/16/9 19/15/9 20/19/9
f 3/21/10 477/17/10 12/18/10
f 481/20/11 20/19/11 21/23/11
f 3/21/12 13/22/12 14/25/12
f 4/26/15 14/25/15 15/31/15
f 475/32/16 474/27/16 7/29/16
f 14/25/17 29/46/17 30/33/17
f 7/29/18 22/48/18 23/34/18
f 15/31/19 30/33/19 31/35/19
f 8/5/20 23/34/20 24/36/20
f 16/2/21 31/35/21 32/37/21
f 9/6/22 24/36/22 25/38/22
f 17/7/23 32/37/23 33/39/23
f 10/10/24 25/38/24 26/40/24
f 19/15/25 18/11/25 33/39/25
f 11/14/26 26/40/26 27/42/26
f 20/19/27 19/15/27 34/41/27
f 13/22/28 12/18/28 27/42/28
f 20/19/29 35/43/29 36/45/29
f 13/22/30 28/44/30 29/46/30
f 34/41/33 33/39/33 48/50/33
f 26/40/34 41/66/34 42/52/34
f 34/41/35 49/51/35 50/53/35
f 27/42/36 42/52/36 43/54/36
f 35/43/37 50/53/37 51/55/37
f 28/44/38 43/54/38 44/56/38
f 30/33/41 29/46/41 44/56/41
f 22/48/42 37/58/42 38/61/42
f 30/33/43 45/60/43 46/62/43
f 23/34/44 38/61/44 39/63/44
f 32/37/45 31/35/45 46/62/45
f 24/36/46 39/63/46 40/65/46
f 33/39/47 32/37/47 47/64/47
f 25/38/48 40/65/48 41/66/48
f 37/58/49 52/81/49 53/67/49
f 45/60/50 60/83/50 61/68/50
f 38/61/51 53/67/51 54/69/51
f 47/64/52 46/62/52 61/68/52
f 39/63/53 54/69/53 55/71/53
f 47/64/54 62/70/54 63/72/54
f 40/65/55 55/71/55 56/73/55
f 48/50/56 63/72/56 64/74/56
f 41/66/57 56/73/57 57/75/57
f 49/51/58 64/74/58 65/76/58
f 43/54/59 42/52/59 57/75/59
f 50/53/60 65/76/60 66/78/60
f 44/56/61 43/54/61 58/77/61
f 44/56/64 59/79/64 60/83/64
f 56/73/65 71/100/65 72/84/65
f 65/76/66 64/74/66 79/85/66
f 58/77/67 57/75/67 72/84/67
f 65/76/68 80/86/68 81/88/68
f 59/79/69 58/77/69 73/87/69
f 59/79/72 74/89/72 75/93/72
f 52/81/73 67/91/73 68/94/73
f 60/83/74 75/93/74 76/95/74
f 53/67/75 68/94/75 69/96/75
f 62/70/76 61/68/76 76/95/76
f 54/69/77 69/96/77 70/98/77
f 62/70/78 77/97/78 78/99/78
f 56/73/79 55/71/79 70/98/79
f 63/72/80 78/99/80 79/85/80
f 75/93/81 91/116/81 92/101/81
f 68/94/82 84/117/82 85/102/82
f 77/97/83 76/95/83 92/101/83
f 69/96/84 85/102/84 86/104/84
f 77/97/85 93/103/85 94/105/85
f 71/100/86 70/98/86 86/104/86
f 78/99/87 94/105/87 95/107/87
f 71/100/88 87/106/88 88/108/88
f 79/85/89 95/107/89 96/109/89
f 73/87/90 72/84/90 88/108/90
f 81/88/91 80/86/91 96/109/91
f 74/89/92 73/87/92 89/110/92
f 74/89/95 90/112/95 91/116/95
f 67/91/96 83/114/96 84/117/96
f 96/109/97 95/107/97 110/118/97
f 89/110/98 88/108/98 103/120/98
f 96/109/99 111/119/99 112/122/99
f 90/112/100 89/110/100 104/121/100
f 90/112/103 105/123/103 106/127/103
f 84/117/104 83/114/104 98/125/104
f 91/116/105 106/127/105 107/129/105
f 84/117/106 99/128/106 100/130/106
f 93/103/107 92/101/107 107/129/107
f 85/102/108 100/130/108 101/132/108
f 93/103/109 108/131/109 109/133/109
f 87/106/110 86/104/110 101/132/110
f 95/107/111 94/105/111 109/133/111
f 87/106/112 102/134/112 103/120/112
f 108/131/113 107/129/113 122/135/113
f 100/130/114 115/151/114 116/137/114
f 108/131/115 123/136/115 124/138/115
f 102/134/116 101/132/116 116/137/116
f 110/118/117 109/133/117 124/138/117
f 102/134/118 117/139/118 118/141/118
f 110/118/119 125/140/119 126/142/119
f 104/121/120 103/120/120 118/141/120
f 111/119/121 126/142/121 127/144/121
f 105/123/122 104/121/122 119/143/122
f 105/123/125 120/145/125 121/149/125
f 99/128/126 98/125/126 113/147/126
f 106/127/127 121/149/127 122/135/127
f 99/128/128 114/150/128 115/151/128
f 126/142/129 141/168/129 142/152/129
f 120/145/130 119/143/130 134/153/130
f 120/145/133 135/154/133 136/158/133
f 113/147/134 128/156/134 129/159/134
f 121/149/135 136/158/135 137/160/135
f 114/150/136 129/159/136 130/161/136
f 123/136/137 122/135/137 137/160/137
f 115/151/138 130/161/138 131/163/138
f 123/136/139 138/162/139 139/164/139
f 117/139/140 116/137/140 131/163/140
f 125/140/141 124/138/141 139/164/141
f 117/139/142 132/165/142 133/167/142
f 125/140/143 140/166/143 141/168/143
f 119/143/144 118/141/144 133/167/144
f 130/161/145 145/184/145 146/169/145
f 138/162/146 153/185/146 154/170/146
f 132/165/147 131/163/147 146/169/147
f 140/166/148 139/164/148 154/170/148
f 132/165/149 147/171/149 148/173/149
f 140/166/150 155/172/150 156/174/150
f 134/153/151 133/167/151 148/173/151
f 142/152/152 141/168/152 156/174/152
f 135/154/153 134/153/153 149/175/153
f 135/154/156 150/177/156 151/181/156
f 128/156/157 143/179/157 144/182/157
f 136/158/158 151/181/158 152/183/158
f 130/161/159 129/159/159 144/182/159
f 138/162/160 137/160/160 152/183/160
f 150/177/161 149/175/161 164/186/161
f 150/177/164 165/187/164 166/192/164
f 143/179/165 158/189/165 159/193/165
f 151/181/166 166/192/166 167/194/166
f 145/184/167 144/182/167 159/193/167
f 153/185/168 152/183/168 167/194/168
f 145/184/169 160/195/169 161/197/169
f 153/185/170 168/196/170 169/198/170
f 147/171/171 146/169/171 161/197/171
f 155/172/172 154/170/172 169/198/172
f 147/171/173 162/199/173 163/201/173
f 155/172/174 170/200/174 171/202/174
f 149/175/175 148/173/175 163/201/175
f 156/174/176 171/202/176 172/191/176
f 168/196/177 183/219/177 184/203/177
f 162/199/178 161/197/178 176/204/178
f 169/198/179 184/203/179 185/206/179
f 162/199/180 177/205/180 178/207/180
f 171/202/181 170/200/181 185/206/181
f 164/186/182 163/201/182 178/207/182
f 172/191/183 171/202/183 186/208/183
f 165/187/184 164/186/184 179/209/184
f 165/187/187 180/211/187 181/215/187
f 158/189/188 173/213/188 174/216/188
f 166/192/189 181/215/189 182/217/189
f 159/193/190 174/216/190 175/218/190
f 168/196/191 167/194/191 182/217/191
f 160/195/192 175/218/192 176/204/192
f 180/211/195 195/236/195 196/224/195
f 174/216/196 173/213/196 188/221/196
f 181/215/197 196/224/197 197/226/197
f 175/218/198 174/216/198 189/225/198
f 183/219/199 182/217/199 197/226/199
f 175/218/200 190/227/200 191/229/200
f 183/219/201 198/228/201 199/230/201
f 177/205/202 176/204/202 191/229/202
f 185/206/203 184/203/203 199/230/203
f 177/205/204 192/231/204 193/233/204
f 185/206/205 200/232/205 201/234/205
f 179/209/206 178/207/206 193/233/206
f 186/208/207 201/234/207 202/223/207
f 180/211/208 179/209/208 194/235/208
f 192/231/209 191/229/209 206/237/209
f 200/232/210 199/230/210 214/239/210
f 192/231/211 207/238/211 208/241/211
f 200/232/212 215/240/212 216/242/212
f 194/235/213 193/233/213 208/241/213
f 201/234/214 216/242/214 217/244/214
f 195/236/215 194/235/215 209/243/215
f 195/236/218 210/245/218 211/249/218
f 188/221/219 203/247/219 204/250/219
f 196/224/220 211/249/220 212/251/220
f 189/225/221 204/250/221 205/252/221
f 198/228/222 197/226/222 212/251/222
f 190/227/223 205/252/223 206/237/223
f 198/228/224 213/253/224 214/239/224
f 210/245/225 225/267/225 226/254/225
f 203/247/226 218/269/226 219/255/226
f 211/249/227 226/254/227 227/256/227
f 204/250/228 219/255/228 220/257/228
f 213/253/229 212/251/229 227/256/229
f 205/252/230 220/257/230 221/259/230
f 213/253/231 228/258/231 229/260/231
f 207/238/232 206/237/232 221/259/232
f 215/240/233 214/239/233 229/260/233
f 207/238/234 222/261/234 223/263/234
f 215/240/235 230/262/235 231/264/235
f 209/243/236 208/241/236 223/263/236
f 216/242/237 231/264/237 232/266/237
f 210/245/238 209/243/238 224/265/238
f 230/262/241 229/260/241 244/271/241
f 222/261/242 237/287/242 238/273/242
f 230/262/243 245/272/243 246/274/243
f 224/265/244 223/263/244 238/273/244
f 232/266/245 231/264/245 246/274/245
f 225/267/513 224/265/513 239/275/513
f 225/267/514 240/277/514 241/281/514
f 218/269/250 233/279/250 234/282/250
f 226/254/251 241/281/251 242/283/251
f 220/257/252 219/255/252 234/282/252
f 228/258/253 227/256/253 242/283/253
f 220/257/254 235/284/254 236/286/254
f 228/258/255 243/285/255 244/271/255
f 222/261/256 221/259/256 236/286/256
f 241/281/257 256/303/257 257/288/257
f 234/282/258 249/304/258 250/289/258
f 243/285/259 242/283/259 257/288/259
f 235/284/260 250/289/260 251/291/260
f 243/285/261 258/290/261 259/292/261
f 237/287/262 236/286/262 251/291/262
f 245/272/263 244/271/263 259/292/263
f 237/287/264 252/293/264 253/295/264
f 245/272/265 260/294/265 261/296/265
f 239/275/266 238/273/266 253/295/266
f 246/274/267 261/296/267 262/298/267
f 240/277/268 239/275/268 254/297/268
f 240/277/271 255/299/271 256/303/271
f 233/279/272 248/301/272 249/304/272
f 260/294/273 275/321/273 276/305/273
f 254/297/274 253/295/274 268/306/274
f 261/296/275 276/305/275 277/308/275
f 255/299/276 254/297/276 269/307/276
f 255/299/279 270/309/279 271/313/279
f 249/304/280 248/301/280 263/311/280
f 256/303/281 271/313/281 272/315/281
f 249/304/282 264/314/282 265/316/282
f 258/290/283 257/288/283 272/315/283
f 250/289/284 265/316/284 266/318/284
f 258/290/285 273/317/285 274/319/285
f 252/293/286 251/291/286 266/318/286
f 260/294/287 259/292/287 274/319/287
f 252/293/288 267/320/288 268/306/288
f 264/314/289 279/338/289 280/322/289
f 273/317/290 272/315/290 287/323/290
f 265/316/291 280/322/291 281/325/291
f 273/317/292 288/324/292 289/326/292
f 267/320/293 266/318/293 281/325/293
f 275/321/294 274/319/294 289/326/294
f 267/320/295 282/327/295 283/329/295
f 275/321/296 290/328/296 291/330/296
f 269/307/297 268/306/297 283/329/297
f 277/308/298 276/305/298 291/330/298
f 270/309/299 269/307/299 284/331/299
f 270/309/302 285/333/302 286/337/302
f 264/314/303 263/311/303 278/335/303
f 271/313/304 286/337/304 287/323/304
f 284/331/305 283/329/305 298/339/305
f 292/332/306 291/330/306 306/341/306
f 285/333/307 284/331/307 299/340/307
f 285/333/310 300/343/310 301/347/310
f 278/335/311 293/345/311 294/348/311
f 286/337/312 301/347/312 302/349/312
f 279/338/313 294/348/313 295/350/313
f 288/324/314 287/323/314 302/349/314
f 280/322/315 295/350/315 296/352/315
f 288/324/316 303/351/316 304/353/316
f 282/327/317 281/325/317 296/352/317
f 290/328/318 289/326/318 304/353/318
f 282/327/319 297/354/319 298/339/319
f 290/328/320 305/355/320 306/341/320
f 303/351/321 302/349/321 318/356/321
f 295/350/322 311/372/322 312/358/322
f 303/351/323 319/357/323 320/359/323
f 297/354/324 296/352/324 312/358/324
f 305/355/325 304/353/325 320/359/325
f 297/354/326 313/360/326 314/362/326
f 305/355/327 321/361/327 322/363/327
f 299/340/328 298/339/328 314/362/328
f 306/341/329 322/363/329 323/365/329
f 300/343/330 299/340/330 315/364/330
f 300/343/333 316/366/333 317/370/333
f 293/345/334 309/368/334 310/371/334
f 301/347/335 317/370/335 318/356/335
f 294/348/336 310/371/336 311/372/336
f 322/363/337 337/389/337 338/373/337
f 316/366/338 315/364/338 330/374/338
f 316/366/341 331/375/341 332/379/341
f 309/368/342 324/377/342 325/380/342
f 317/370/343 332/379/343 333/381/343
f 310/371/344 325/380/344 326/382/344
f 319/357/345 318/356/345 333/381/345
f 311/372/346 326/382/346 327/384/346
f 319/357/347 334/383/347 335/385/347
f 312/358/348 327/384/348 328/386/348
f 321/361/349 320/359/349 335/385/349
f 313/360/350 328/386/350 329/388/350
f 321/361/351 336/387/351 337/389/351
f 315/364/352 314/362/352 329/388/352
f 326/382/353 341/405/353 342/390/353
f 334/383/354 349/406/354 350/391/354
f 328/386/355 327/384/355 342/390/355
f 336/387/356 335/385/356 350/391/356
f 328/386/357 343/392/357 344/394/357
f 336/387/515 351/393/515 352/395/515
f 330/374/359 329/388/359 344/394/359
f 337/389/360 352/395/360 353/397/360
f 331/375/361 330/374/361 345/396/361
f 331/375/364 346/398/364 347/402/364
f 324/377/365 339/400/365 340/403/365
f 332/379/366 347/402/366 348/404/366
f 325/380/516 340/403/516 341/405/516
f 334/383/368 333/381/368 348/404/368
f 346/398/369 345/396/369 360/407/369
f 346/398/372 361/408/372 362/413/372
f 339/400/373 354/410/373 355/414/373
f 347/402/374 362/413/374 363/415/374
f 341/405/375 340/403/375 355/414/375
f 349/406/376 348/404/376 363/415/376
f 341/405/377 356/416/377 357/418/377
f 349/406/378 364/417/378 365/419/378
f 343/392/379 342/390/379 357/418/379
f 351/393/380 350/391/380 365/419/380
f 343/392/381 358/420/381 359/422/381
f 351/393/382 366/421/382 367/423/382
f 345/396/383 344/394/383 359/422/383
f 352/395/384 367/423/384 368/412/384
f 364/424/385 379/454/385 380/425/385
f 358/427/386 357/455/386 372/428/386
f 366/430/387 365/426/387 380/425/387
f 358/427/388 373/429/388 374/432/388
f 366/430/389 381/431/389 382/434/389
f 360/436/390 359/433/390 374/432/390
f 367/435/391 382/434/391 383/438/391
f 361/440/392 360/436/392 375/437/392
f 361/440/395 376/441/395 377/446/395
f 354/442/396 369/444/396 370/448/396
f 362/447/397 377/446/397 378/450/397
f 356/452/398 355/449/398 370/448/398
f 364/424/399 363/451/399 378/450/399
f 356/452/400 371/453/400 372/428/400
f 376/441/402 391/470/402 392/458/402
f 369/444/403 384/472/403 385/459/403
f 377/446/404 392/458/404 393/460/404
f 371/453/405 370/448/405 385/459/405
f 379/454/406 378/450/406 393/460/406
f 371/453/407 386/461/407 387/463/407
f 379/454/408 394/462/408 395/464/408
f 373/429/409 372/428/409 387/463/409
f 381/431/410 380/425/410 395/464/410
f 373/429/411 388/465/411 389/467/411
f 381/431/412 396/466/412 397/468/412
f 375/437/413 374/432/413 389/467/413
f 382/434/414 397/468/414 398/457/414
f 376/441/415 375/437/415 390/469/415
f 396/466/417 395/464/417 410/473/417
f 388/465/418 403/489/418 404/475/418
f 397/468/419 396/466/419 411/474/419
f 390/469/420 389/467/420 404/475/420
f 397/468/421 412/476/421 413/478/421
f 391/470/422 390/469/422 405/477/422
f 391/470/425 406/479/425 407/483/425
f 385/459/426 384/472/426 399/481/426
f 392/458/427 407/483/427 408/485/427
f 385/459/428 400/484/428 401/486/428
f 394/462/429 393/460/429 408/485/429
f 386/461/430 401/486/430 402/488/430
f 394/462/431 409/487/431 410/473/431
f 388/465/432 387/463/432 402/488/432
f 399/481/433 414/504/433 415/490/433
f 407/483/434 422/506/434 423/491/434
f 401/486/435 400/484/435 415/490/435
f 409/487/436 408/485/436 423/491/436
f 401/486/437 416/492/437 417/494/437
f 409/487/438 424/493/438 425/495/438
f 403/489/439 402/488/439 417/494/439
f 411/474/440 410/473/440 425/495/440
f 403/489/441 418/496/441 419/498/441
f 411/474/442 426/497/442 427/499/442
f 405/477/443 404/475/443 419/498/443
f 412/476/444 427/499/444 428/501/444
f 406/479/445 405/477/445 420/500/445
f 406/479/448 421/502/448 422/506/448
f 418/496/449 433/522/449 434/507/449
f 426/497/450 441/523/450 442/508/450
f 420/500/451 419/498/451 434/507/451
f 427/499/452 442/508/452 443/510/452
f 421/502/453 420/500/453 435/509/453
f 421/502/456 436/511/456 437/515/456
f 414/504/457 429/513/457 430/516/457
f 422/506/458 437/515/458 438/517/458
f 416/492/459 415/490/459 430/516/459
f 424/493/460 423/491/460 438/517/460
f 416/492/461 431/518/461 432/520/461
f 424/493/462 439/519/462 440/521/462
f 418/496/463 417/494/463 432/520/463
f 426/497/464 425/495/464 440/521/464
f 437/515/465 452/539/465 453/524/465
f 430/516/466 445/540/466 446/525/466
f 439/519/467 438/517/467 453/524/467
f 431/518/468 446/525/468 447/527/468
f 439/519/469 454/526/469 455/528/469
f 433/522/470 432/520/470 447/527/470
f 441/523/471 440/521/471 455/528/471
f 433/522/472 448/529/472 449/531/472
f 441/523/473 456/530/473 457/532/473
f 435/509/474 434/507/474 449/531/474
f 442/508/475 457/532/475 458/534/475
f 436/511/476 435/509/476 450/533/476
f 436/511/479 451/535/479 452/539/479
f 430/516/480 429/513/480 444/537/480
f 456/530/481 471/557/481 472/541/481
f 450/533/482 449/531/482 464/542/482
f 458/534/483 457/532/483 472/541/483
f 451/535/484 450/533/484 465/543/484
f 451/535/487 466/545/487 467/549/487
f 444/537/488 459/547/488 460/550/488
f 452/539/489 467/549/489 468/551/489
f 446/525/490 445/540/490 460/550/490
f 454/526/491 453/524/491 468/551/491
f 446/525/492 461/552/492 462/554/492
f 454/526/493 469/553/493 470/555/493
f 448/529/494 447/527/494 462/554/494
f 456/530/495 455/528/495 470/555/495
f 448/529/496 463/556/496 464/542/496
f 461/552/497 460/550/497 475/32/497
f 468/551/498 478/3/498 6/8/498
f 462/554/499 461/552/499 1/4/499
f 469/553/500 6/8/500 479/12/500
f 463/556/501 462/554/501 476/9/501
f 471/557/502 470/555/502 479/12/502
f 464/542/503 463/556/503 2/13/503
f 471/557/504 480/16/504 481/20/504
f 465/543/505 464/542/505 477/17/505
f 472/541/506 481/20/506 482/24/506
f 466/545/517 465/543/517 3/21/517
f 466/545/518 4/26/518 5/1/518
f 460/550/511 459/547/511 474/27/511
f 467/549/512 5/1/512 478/3/512
o Cone
v 0.491154 0.015663 -0.016486
v 0.493912 0.013723 -0.042028
v 0.497731 0.006943 -0.066589
v 0.502465 -0.004415 -0.089225
v 0.507932 -0.019916 -0.109065
v 0.513921 -0.038964 -0.125347
v 0.520203 -0.060826 -0.137446
v 0.526535 -0.084662 -0.144897
v 0.532676 -0.109557 -0.147412
v 0.538388 -0.134554 -0.144897
v 0.543453 -0.158692 -0.137446
v 0.547675 -0.181043 -0.125347
v 0.550892 -0.200749 -0.109065
v 0.552981 -0.217052 -0.089225
v 0.553861 -0.229326 -0.066589
v 0.553499 -0.237099 -0.042028
v 0.551909 -0.240073 -0.016486
v 0.549151 -0.238132 0.009057
v 0.545332 -0.231353 0.033618
v 0.540598 -0.219994 0.056253
v 0.535131 -0.204493 0.076094
v 0.529142 -0.185446 0.092376
v 0.522860 -0.163584 0.104475
v 0.516528 -0.139747 0.111925
v 0.510387 -0.114852 0.114441
v 0.504675 -0.089856 0.111925
v 0.499610 -0.065718 0.104475
v 0.495388 -0.043366 0.092376
v 0.492171 -0.023661 0.076094
v 0.490082 -0.007357 0.056253
v 0.489202 0.004917 0.033618
v 0.489564 0.012690 0.009057
v 0.776294 -0.051681 0.006424
vn 0.2333 0.9712 -0.0486
vn 0.2558 0.9413 -0.2201
vn 0.2851 0.8793 -0.3816
vn 0.3200 0.7873 -0.5270
vn 0.3592 0.6691 -0.6506
vn 0.4012 0.5291 -0.7477
vn 0.4444 0.3727 -0.8147
vn 0.4870 0.2059 -0.8488
vn 0.5276 0.0351 -0.8488
vn 0.5645 -0.1330 -0.8146
vn 0.5963 -0.2921 -0.7477
vn 0.6217 -0.4361 -0.6506
vn 0.6399 -0.5593 -0.5270
vn 0.6501 -0.6571 -0.3816
vn 0.6518 -0.7257 -0.2201
vn 0.6452 -0.7625 -0.0486
vn 0.6303 -0.7660 0.1262
vn 0.6078 -0.7362 0.2977
vn 0.5785 -0.6741 0.4593
vn 0.5436 -0.5822 0.6046
vn 0.5044 -0.4639 0.7283
vn 0.4624 -0.3239 0.8254
vn 0.4192 -0.1675 0.8923
vn 0.3765 -0.0007 0.9264
vn 0.3359 0.1700 0.9264
vn 0.2991 0.3382 0.8923
vn 0.2673 0.4973 0.8254
vn 0.2418 0.6412 0.7283
vn 0.2237 0.7645 0.6046
vn 0.2135 0.8623 0.4593
vn -0.9692 -0.2303 -0.0872
vn 0.2117 0.9309 0.2977
vn 0.2184 0.9677 0.1262
vt 0.225397 0.122551
vt 0.225397 0.070363
vt 0.235578 0.121549
vt 0.245368 0.118579
vt 0.254391 0.113756
vt 0.262300 0.107266
vt 0.268790 0.099357
vt 0.273613 0.090335
vt 0.276583 0.080544
vt 0.277585 0.070363
vt 0.276583 0.060181
vt 0.273613 0.050391
vt 0.268790 0.041368
vt 0.262300 0.033460
vt 0.254391 0.026970
vt 0.245368 0.022147
vt 0.235578 0.019177
vt 0.225397 0.018174
vt 0.215215 0.019177
vt 0.205425 0.022147
vt 0.196402 0.026970
vt 0.188494 0.033460
vt 0.182004 0.041368
vt 0.177181 0.050391
vt 0.174211 0.060181
vt 0.173208 0.070363
vt 0.174211 0.080544
vt 0.177181 0.090335
vt 0.182004 0.099357
vt 0.188494 0.107266
vt 0.196402 0.113756
vt 0.205425 0.118579
vt 0.344305 0.019177
vt 0.282937 0.060181
vt 0.323942 0.121549
vt 0.215215 0.121549
vt 0.334123 0.122551
vt 0.344305 0.121549
vt 0.354095 0.118579
vt 0.363117 0.113756
vt 0.371026 0.107266
vt 0.377516 0.099357
vt 0.382339 0.090335
vt 0.385309 0.080544
vt 0.386312 0.070363
vt 0.385309 0.060181
vt 0.382339 0.050391
vt 0.377516 0.041368
vt 0.371026 0.033460
vt 0.363117 0.026970
vt 0.354095 0.022147
vt 0.334123 0.018174
vt 0.323942 0.019177
vt 0.314151 0.022147
vt 0.305129 0.026970
vt 0.297220 0.033460
vt 0.290730 0.041368
vt 0.285907 0.050391
vt 0.281934 0.070363
vt 0.282937 0.080544
vt 0.285907 0.090335
vt 0.290730 0.099357
vt 0.297220 0.107266
vt 0.305129 0.113756
vt 0.314151 0.118579
s 0
usemtl Material
f 483/560/519 515/561/519 484/562/519
f 484/562/520 515/561/520 485/563/520
f 485/563/521 515/561/521 486/564/521
f 486/564/522 515/561/522 487/565/522
f 487/565/523 515/561/523 488/566/523
f 488/566/524 515/561/524 489/567/524
f 489/567/525 515/561/525 490/568/525
f 490/568/526 515/561/526 491/569/526
f 491/569/527 515/561/527 492/570/527
f 492/570/528 515/561/528 493/571/528
f 493/571/529 515/561/529 494/572/529
f 494/572/530 515/561/530 495/573/530
f 495/573/531 515/561/531 496/574/531
f 496/574/532 515/561/532 497/575/532
f 497/575/533 515/561/533 498/576/533
f 498/576/534 515/561/534 499/577/534
f 499/577/535 515/561/535 500/578/535
f 500/578/536 515/561/536 501/579/536
f 501/579/537 515/561/537 502/580/537
f 502/580/538 515/561/538 503/581/538
f 503/581/539 515/561/539 504/582/539
f 504/582/540 515/561/540 505/583/540
f 505/583/541 515/561/541 506/584/541
f 506/584/542 515/561/542 507/585/542
f 507/585/543 515/561/543 508/586/543
f 508/586/544 515/561/544 509/587/544
f 509/587/545 515/561/545 510/588/545
f 510/588/546 515/561/546 511/589/546
f 511/589/547 515/561/547 512/590/547
f 512/590/548 515/561/548 513/591/548
f 498/592/549 506/593/549 514/594/549
f 513/591/550 515/561/550 514/595/550
f 514/595/551 515/561/551 483/560/551
f 514/594/549 483/596/549 484/597/549
f 484/597/549 485/598/549 486/599/549
f 486/599/549 487/600/549 488/601/549
f 488/601/549 489/602/549 490/603/549
f 490/603/549 491/604/549 492/605/549
f 492/605/549 493/606/549 494/607/549
f 494/607/549 495/608/549 496/609/549
f 496/609/549 497/610/549 498/592/549
f 498/592/549 499/611/549 500/612/549
f 500/612/549 501/613/549 502/614/549
f 502/614/549 503/615/549 504/616/549
f 504/616/549 505/617/549 506/593/549
f 506/593/549 507/618/549 508/619/549
f 508/619/549 509/620/549 510/621/549
f 510/621/549 511/622/549 512/623/549
f 512/623/549 513/624/549 514/594/549
f 514/594/549 484/597/549 486/599/549
f 486/599/549 488/601/549 490/603/549
f 490/603/549 492/605/549 494/607/549
f 494/607/549 496/609/549 498/592/549
f 498/592/549 500/612/549 502/614/549
f 502/614/549 504/616/549 506/593/549
f 506/593/549 508/619/549 510/621/549
f 510/621/549 512/623/549 514/594/549
f 514/594/549 486/599/549 490/603/549
f 490/603/549 494/607/549 498/592/549
f 498/592/549 502/614/549 506/593/549
f 506/593/549 510/621/549 514/594/549
f 514/594/549 490/603/549 498/592/549
o Cone.001
v 0.536957 0.240235 -0.017878
v 0.538547 0.236804 -0.046526
v 0.538455 0.228077 -0.074073
v 0.536683 0.214389 -0.099460
v 0.533300 0.196267 -0.121713
v 0.528436 0.174408 -0.139975
v 0.522278 0.149650 -0.153544
v 0.515062 0.122946 -0.161901
v 0.507065 0.095322 -0.164722
v 0.498596 0.067839 -0.161901
v 0.489979 0.041554 -0.153544
v 0.481545 0.017476 -0.139975
v 0.473620 -0.003469 -0.121713
v 0.466506 -0.020476 -0.099460
v 0.460478 -0.032892 -0.074073
v 0.455767 -0.040239 -0.046526
v 0.452555 -0.042235 -0.017878
v 0.450965 -0.038804 0.010770
v 0.451057 -0.030077 0.038317
v 0.452829 -0.016389 0.063704
v 0.456211 0.001733 0.085956
v 0.461076 0.023592 0.104218
v 0.467234 0.048350 0.117788
v 0.474450 0.075054 0.126144
v 0.482446 0.102678 0.128966
v 0.490916 0.130161 0.126144
v 0.499533 0.156446 0.117788
v 0.507966 0.180524 0.104218
v 0.515892 0.201469 0.085956
v 0.523006 0.218476 0.063704
v 0.529034 0.230892 0.038317
v 0.533744 0.238239 0.010770
v 0.776151 0.014920 0.007816
vn 0.6876 0.7244 -0.0486
vn 0.6922 0.6873 -0.2201
vn 0.6865 0.6189 -0.3816
vn 0.6708 0.5219 -0.5270
vn 0.6456 0.3999 -0.6506
vn 0.6120 0.2576 -0.7477
vn 0.5712 0.1006 -0.8147
vn 0.5247 -0.0652 -0.8488
vn 0.4745 -0.2334 -0.8488
vn 0.4224 -0.3974 -0.8147
vn 0.3703 -0.5511 -0.7477
vn 0.3204 -0.6885 -0.6506
vn 0.2745 -0.8043 -0.5270
vn 0.2344 -0.8941 -0.3816
vn 0.2016 -0.9544 -0.2201
vn 0.1775 -0.9829 -0.0486
vn 0.1628 -0.9785 0.1262
vn 0.1582 -0.9414 0.2977
vn 0.1639 -0.8730 0.4593
vn 0.1797 -0.7760 0.6046
vn 0.2048 -0.6540 0.7283
vn 0.2385 -0.5117 0.8254
vn 0.2793 -0.3547 0.8923
vn 0.3257 -0.1889 0.9264
vn 0.3759 -0.0207 0.9264
vn 0.4281 0.1433 0.8923
vn 0.4801 0.2970 0.8254
vn 0.5300 0.4344 0.7283
vn 0.5759 0.5502 0.6046
vn 0.6160 0.6400 0.4593
vn -0.9545 0.2852 -0.0872
vn 0.6488 0.7003 0.2977
vn 0.6730 0.7288 0.1262
vt 0.776540 0.139354
vt 0.776540 0.075284
vt 0.789039 0.138123
vt 0.801058 0.134477
vt 0.812135 0.128556
vt 0.821844 0.120588
vt 0.829812 0.110880
vt 0.835733 0.099803
vt 0.839379 0.087784
vt 0.840610 0.075284
vt 0.839379 0.062785
vt 0.835733 0.050766
vt 0.829812 0.039689
vt 0.821844 0.029980
vt 0.812135 0.022012
vt 0.801058 0.016092
vt 0.789039 0.012446
vt 0.776540 0.011215
vt 0.764041 0.012446
vt 0.752022 0.016092
vt 0.740945 0.022012
vt 0.731236 0.029980
vt 0.723268 0.039689
vt 0.717348 0.050766
vt 0.713702 0.062785
vt 0.712470 0.075284
vt 0.713702 0.087784
vt 0.717348 0.099803
vt 0.723268 0.110880
vt 0.731236 0.120588
vt 0.740945 0.128556
vt 0.752022 0.134477
vt 0.922518 0.012446
vt 0.847180 0.062785
vt 0.897519 0.138123
vt 0.764041 0.138123
vt 0.910018 0.139354
vt 0.922518 0.138123
vt 0.934537 0.134477
vt 0.945614 0.128556
vt 0.955322 0.120588
vt 0.963290 0.110880
vt 0.969211 0.099803
vt 0.972857 0.087784
vt 0.974088 0.075284
vt 0.972857 0.062785
vt 0.969211 0.050766
vt 0.963290 0.039689
vt 0.955322 0.029980
vt 0.945614 0.022012
vt 0.934537 0.016092
vt 0.910018 0.011215
vt 0.897519 0.012446
vt 0.885500 0.016092
vt 0.874423 0.022012
vt 0.864714 0.029980
vt 0.856746 0.039689
vt 0.850826 0.050766
vt 0.845949 0.075284
vt 0.847180 0.087784
vt 0.850826 0.099803
vt 0.856746 0.110880
vt 0.864714 0.120588
vt 0.874423 0.128556
vt 0.885500 0.134477
s 0
usemtl Material
f 516/625/552 548/626/552 517/627/552
f 517/627/553 548/626/553 518/628/553
f 518/628/554 548/626/554 519/629/554
f 519/629/555 548/626/555 520/630/555
f 520/630/556 548/626/556 521/631/556
f 521/631/557 548/626/557 522/632/557
f 522/632/558 548/626/558 523/633/558
f 523/633/559 548/626/559 524/634/559
f 524/634/560 548/626/560 525/635/560
f 525/635/561 548/626/561 526/636/561
f 526/636/562 548/626/562 527/637/562
f 527/637/563 548/626/563 528/638/563
f 528/638/564 548/626/564 529/639/564
f 529/639/565 548/626/565 530/640/565
f 530/640/566 548/626/566 531/641/566
f 531/641/567 548/626/567 532/642/567
f 532/642/568 548/626/568 533/643/568
f 533/643/569 548/626/569 534/644/569
f 534/644/570 548/626/570 535/645/570
f 535/645/571 548/626/571 536/646/571
f 536/646/572 548/626/572 537/647/572
f 537/647/573 548/626/573 538/648/573
f 538/648/574 548/626/574 539/649/574
f 539/649/575 548/626/575 540/650/575
f 540/650/576 548/626/576 541/651/576
f 541/651/577 548/626/577 542/652/577
f 542/652/578 548/626/578 543/653/578
f 543/653/579 548/626/579 544/654/579
f 544/654/580 548/626/580 545/655/580
f 545/655/581 548/626/581 546/656/581
f 531/657/582 539/658/582 547/659/582
f 546/656/583 548/626/583 547/660/583
f 547/660/584 548/626/584 516/625/584
f 547/659/582 516/661/582 517/662/582
f 517/662/582 518/663/582 519/664/582
f 519/664/582 520/665/582 521/666/582
f 521/666/582 522/667/582 523/668/582
f 523/668/582 524/669/582 525/670/582
f 525/670/582 526/671/582 527/672/582
f 527/672/582 528/673/582 529/674/582
f 529/674/582 530/675/582 531/657/582
f 531/657/582 532/676/582 533/677/582
f 533/677/582 534/678/582 535/679/582
f 535/679/582 536/680/582 537/681/582
f 537/681/582 538/682/582 539/658/582
f 539/658/582 540/683/582 541/684/582
f 541/684/582 542/685/582 543/686/582
f 543/686/582 544/687/582 545/688/582
f 545/688/582 546/689/582 547/659/582
f 547/659/582 517/662/582 519/664/582
f 519/664/582 521/666/582 523/668/582
f 523/668/582 525/670/582 527/672/582
f 527/672/582 529/674/582 531/657/582
f 531/657/582 533/677/582 535/679/582
f 535/679/582 537/681/582 539/658/582
f 539/658/582 541/684/582 543/686/582
f 543/686/582 545/688/582 547/659/582
f 547/659/582 519/664/582 523/668/582
f 523/668/582 527/672/582 531/657/582
f 531/657/582 535/679/582 539/658/582
f 539/658/582 543/686/582 547/659/582
f 547/659/582 523/668/582 531/657/582
