# Blender 4.1.1
# www.blender.org
mtllib ma.mtl
o Text.008
v -0.380837 0.177263 -0.020000
v -0.360557 0.175142 -0.020000
v -0.342204 0.171747 -0.020000
v -0.325816 0.167200 -0.020000
v -0.311428 0.161631 -0.020000
v -0.299065 0.155179 -0.020000
v -0.288737 0.147991 -0.020000
v -0.280425 0.140215 -0.020000
v -0.274075 0.131978 -0.020000
v -0.269607 0.123362 -0.020000
v -0.266941 0.114380 -0.020000
v -0.266036 0.104898 -0.020000
v -0.266756 0.095296 -0.020000
v -0.268941 0.086210 -0.020000
v -0.272617 0.077734 -0.020000
v -0.277882 0.069818 -0.020000
v -0.284897 0.062443 -0.020000
v -0.293844 0.055653 -0.020000
v -0.304889 0.049551 -0.020000
v -0.318158 0.044269 -0.020000
v -0.333741 0.039948 -0.020000
v -0.351708 0.036718 -0.020000
v -0.372113 0.034700 -0.020000
v -0.395012 0.034004 -0.020000
v -0.408458 0.034381 -0.020000
v -0.421330 0.035574 -0.020000
v -0.433437 0.037664 -0.020000
v -0.444624 0.040717 -0.020000
v -0.454752 0.044785 -0.020000
v -0.463723 0.049913 -0.020000
v -0.471493 0.056167 -0.020000
v -0.478059 0.063677 -0.020000
v -0.483412 0.072659 -0.020000
v -0.487469 0.083384 -0.020000
v -0.490065 0.096106 -0.020000
v -0.490995 0.111233 -0.020000
v -0.490120 0.169888 -0.020000
v -0.490224 0.169866 -0.020000
v -0.482568 0.171329 -0.020000
v -0.474836 0.172639 -0.020000
v -0.467035 0.173798 -0.020000
v -0.459172 0.174809 -0.020000
v -0.451254 0.175674 -0.020000
v -0.443288 0.176398 -0.020000
v -0.435282 0.176983 -0.020000
v -0.427243 0.177433 -0.020000
v -0.419178 0.177750 -0.020000
v -0.411094 0.177938 -0.020000
v -0.403127 0.177999 -0.020000
v -0.481000 0.464000 -0.020000
v -0.481000 0.469000 -0.020000
v -0.481000 0.584000 -0.020000
v -0.446946 0.584000 -0.020000
v -0.428267 0.584202 -0.020000
v -0.407760 0.584779 -0.020000
v -0.385864 0.585683 -0.020000
v -0.362959 0.586867 -0.020000
v -0.339430 0.588288 -0.020000
v -0.315666 0.589900 -0.020000
v -0.292053 0.591658 -0.020000
v -0.268983 0.593516 -0.020000
v -0.246843 0.595430 -0.020000
v -0.226024 0.597356 -0.020000
v -0.206912 0.599247 -0.020000
v -0.181121 0.601996 -0.020000
v -0.179839 0.696867 -0.020000
v -0.208971 0.691925 -0.020000
v -0.228237 0.689112 -0.020000
v -0.249198 0.686428 -0.020000
v -0.271436 0.683906 -0.020000
v -0.294536 0.681576 -0.020000
v -0.318090 0.679465 -0.020000
v -0.341687 0.677603 -0.020000
v -0.364921 0.676018 -0.020000
v -0.387382 0.674737 -0.020000
v -0.408659 0.673790 -0.020000
v -0.428336 0.673202 -0.020000
v -0.446057 0.673000 -0.020000
v -0.482000 0.673000 -0.020000
v -0.482000 0.733955 -0.020000
v -0.481961 0.738320 -0.020000
v -0.481847 0.743077 -0.020000
v -0.481664 0.748170 -0.020000
v -0.481420 0.753497 -0.020000
v -0.481120 0.758957 -0.020000
v -0.480773 0.764452 -0.020000
v -0.480384 0.769884 -0.020000
v -0.479962 0.775155 -0.020000
v -0.479513 0.780165 -0.020000
v -0.479047 0.784811 -0.020000
v -0.478573 0.788987 -0.020000
v -0.476600 0.804000 -0.020000
v -0.584732 0.804000 -0.020000
v -0.582154 0.787931 -0.020000
v -0.581485 0.783401 -0.020000
v -0.580856 0.778740 -0.020000
v -0.580267 0.773921 -0.020000
v -0.579718 0.768920 -0.020000
v -0.579208 0.763709 -0.020000
v -0.578739 0.758264 -0.020000
v -0.578309 0.752559 -0.020000
v -0.577920 0.746571 -0.020000
v -0.577570 0.740273 -0.020000
v -0.577262 0.733643 -0.020000
v -0.576997 0.726727 -0.020000
v -0.576174 0.676511 -0.020000
v -0.587984 0.677090 -0.020000
v -0.610448 0.678397 -0.020000
v -0.632939 0.679912 -0.020000
v -0.655451 0.681634 -0.020000
v -0.677977 0.683564 -0.020000
v -0.700510 0.685701 -0.020000
v -0.723043 0.688046 -0.020000
v -0.745569 0.690598 -0.020000
v -0.768081 0.693358 -0.020000
v -0.790572 0.696325 -0.020000
v -0.813035 0.699499 -0.020000
v -0.847160 0.704645 -0.020000
v -0.845878 0.611044 -0.020000
v -0.817019 0.607812 -0.020000
v -0.796289 0.605574 -0.020000
v -0.774996 0.603364 -0.020000
v -0.753190 0.601195 -0.020000
v -0.730923 0.599082 -0.020000
v -0.708248 0.597038 -0.020000
v -0.685216 0.595078 -0.020000
v -0.661879 0.593215 -0.020000
v -0.638290 0.591463 -0.020000
v -0.614498 0.589836 -0.020000
v -0.590558 0.588348 -0.020000
v -0.576000 0.587540 -0.020000
v -0.576000 0.469000 -0.020000
v -0.576000 0.467468 -0.020000
v -0.589626 0.468092 -0.020000
v -0.613433 0.469399 -0.020000
v -0.637032 0.470914 -0.020000
v -0.660442 0.472636 -0.020000
v -0.683685 0.474566 -0.020000
v -0.706782 0.476703 -0.020000
v -0.729754 0.479048 -0.020000
v -0.752622 0.481600 -0.020000
v -0.775408 0.484359 -0.020000
v -0.798132 0.487327 -0.020000
v -0.820815 0.490501 -0.020000
v -0.855156 0.495626 -0.020000
v -0.853883 0.400155 -0.020000
v -0.821825 0.396157 -0.020000
v -0.798583 0.393404 -0.020000
v -0.775497 0.390824 -0.020000
v -0.752521 0.388421 -0.020000
v -0.729611 0.386199 -0.020000
v -0.706721 0.384161 -0.020000
v -0.683807 0.382311 -0.020000
v -0.660824 0.380652 -0.020000
v -0.637728 0.379189 -0.020000
v -0.614475 0.377924 -0.020000
v -0.591019 0.376862 -0.020000
v -0.577448 0.376371 -0.020000
v -0.583667 0.239549 -0.020000
v -0.609696 0.231776 -0.020000
v -0.641407 0.220558 -0.020000
v -0.671692 0.208226 -0.020000
v -0.700503 0.195004 -0.020000
v -0.727795 0.181113 -0.020000
v -0.753521 0.166775 -0.020000
v -0.777633 0.152211 -0.020000
v -0.800086 0.137641 -0.020000
v -0.820833 0.123287 -0.020000
v -0.839826 0.109368 -0.020000
v -0.857017 0.096105 -0.020000
v -0.879290 0.078122 -0.020000
v -0.822043 -0.010238 -0.020000
v -0.798180 0.011091 -0.020000
v -0.782148 0.024738 -0.020000
v -0.765179 0.038450 -0.020000
v -0.747300 0.052117 -0.020000
v -0.728536 0.065627 -0.020000
v -0.708914 0.078871 -0.020000
v -0.688460 0.091738 -0.020000
v -0.667199 0.104119 -0.020000
v -0.645158 0.115903 -0.020000
v -0.622364 0.126981 -0.020000
v -0.598841 0.137245 -0.020000
v -0.588481 0.141240 -0.020000
v -0.590009 0.093881 -0.020000
v -0.588971 0.075390 -0.020000
v -0.585729 0.056962 -0.020000
v -0.580124 0.038963 -0.020000
v -0.571998 0.021676 -0.020000
v -0.561207 0.005404 -0.020000
v -0.547639 -0.009539 -0.020000
v -0.531215 -0.022844 -0.020000
v -0.511877 -0.034232 -0.020000
v -0.489570 -0.043456 -0.020000
v -0.464224 -0.050296 -0.020000
v -0.435743 -0.054548 -0.020000
v -0.404077 -0.056007 -0.020000
v -0.368734 -0.054926 -0.020000
v -0.336169 -0.051689 -0.020000
v -0.306320 -0.046288 -0.020000
v -0.279218 -0.038704 -0.020000
v -0.254907 -0.028906 -0.020000
v -0.233457 -0.016856 -0.020000
v -0.214977 -0.002525 -0.020000
v -0.199617 0.014077 -0.020000
v -0.187543 0.032875 -0.020000
v -0.178884 0.053727 -0.020000
v -0.173697 0.076471 -0.020000
v -0.171972 0.101055 -0.020000
v -0.173896 0.124781 -0.020000
v -0.179638 0.147249 -0.020000
v -0.189080 0.168188 -0.020000
v -0.202061 0.187387 -0.020000
v -0.218388 0.204671 -0.020000
v -0.237872 0.219918 -0.020000
v -0.260340 0.233037 -0.020000
v -0.285648 0.243952 -0.020000
v -0.313674 0.252590 -0.020000
v -0.344307 0.258870 -0.020000
v -0.377446 0.262706 -0.020000
v -0.412846 0.264001 -0.020000
v -0.420345 0.263958 -0.020000
v -0.427649 0.263831 -0.020000
v -0.434913 0.263619 -0.020000
v -0.442137 0.263322 -0.020000
v -0.449320 0.262941 -0.020000
v -0.456463 0.262475 -0.020000
v -0.463565 0.261924 -0.020000
v -0.470626 0.261287 -0.020000
v -0.477647 0.260566 -0.020000
v -0.484627 0.259760 -0.020000
v -0.491567 0.258869 -0.020000
v -0.486656 0.259564 -0.020000
v -0.483290 0.374000 -0.020000
v -0.435966 0.374000 -0.020000
v -0.418044 0.374123 -0.020000
v -0.398636 0.374484 -0.020000
v -0.378049 0.375068 -0.020000
v -0.356556 0.375860 -0.020000
v -0.334430 0.376847 -0.020000
v -0.311945 0.378015 -0.020000
v -0.289377 0.379351 -0.020000
v -0.267001 0.380839 -0.020000
v -0.245091 0.382468 -0.020000
v -0.223922 0.384223 -0.020000
v -0.203765 0.386092 -0.020000
v -0.176119 0.388977 -0.020000
v -0.174843 0.484679 -0.020000
v -0.205239 0.480005 -0.020000
v -0.225310 0.477351 -0.020000
v -0.246539 0.474912 -0.020000
v -0.268603 0.472697 -0.020000
v -0.291183 0.470716 -0.020000
v -0.313960 0.468975 -0.020000
v -0.336617 0.467483 -0.020000
v -0.358838 0.466247 -0.020000
v -0.380305 0.465273 -0.020000
v -0.400701 0.464570 -0.020000
v -0.419706 0.464144 -0.020000
v -0.437041 0.464000 -0.020000
v -0.380837 0.177263 0.020000
v -0.360557 0.175142 0.020000
v -0.342204 0.171747 0.020000
v -0.325816 0.167200 0.020000
v -0.311428 0.161631 0.020000
v -0.299065 0.155179 0.020000
v -0.288737 0.147991 0.020000
v -0.280425 0.140215 0.020000
v -0.274075 0.131978 0.020000
v -0.269607 0.123362 0.020000
v -0.266941 0.114380 0.020000
v -0.266036 0.104898 0.020000
v -0.266756 0.095296 0.020000
v -0.268941 0.086210 0.020000
v -0.272617 0.077734 0.020000
v -0.277882 0.069818 0.020000
v -0.284897 0.062443 0.020000
v -0.293844 0.055653 0.020000
v -0.304889 0.049551 0.020000
v -0.318158 0.044269 0.020000
v -0.333741 0.039948 0.020000
v -0.351708 0.036718 0.020000
v -0.372113 0.034700 0.020000
v -0.395012 0.034004 0.020000
v -0.408458 0.034381 0.020000
v -0.421330 0.035574 0.020000
v -0.433437 0.037664 0.020000
v -0.444624 0.040717 0.020000
v -0.454752 0.044785 0.020000
v -0.463723 0.049913 0.020000
v -0.471493 0.056167 0.020000
v -0.478059 0.063677 0.020000
v -0.483412 0.072659 0.020000
v -0.487469 0.083384 0.020000
v -0.490065 0.096106 0.020000
v -0.490995 0.111233 0.020000
v -0.490120 0.169888 0.020000
v -0.490224 0.169866 0.020000
v -0.482568 0.171329 0.020000
v -0.474836 0.172639 0.020000
v -0.467035 0.173798 0.020000
v -0.459172 0.174809 0.020000
v -0.451254 0.175674 0.020000
v -0.443288 0.176398 0.020000
v -0.435282 0.176983 0.020000
v -0.427243 0.177433 0.020000
v -0.419178 0.177750 0.020000
v -0.411094 0.177938 0.020000
v -0.403127 0.177999 0.020000
v -0.481000 0.464000 0.020000
v -0.481000 0.469000 0.020000
v -0.481000 0.584000 0.020000
v -0.446946 0.584000 0.020000
v -0.428267 0.584202 0.020000
v -0.407760 0.584779 0.020000
v -0.385864 0.585683 0.020000
v -0.362959 0.586867 0.020000
v -0.339430 0.588288 0.020000
v -0.315666 0.589900 0.020000
v -0.292053 0.591658 0.020000
v -0.268983 0.593516 0.020000
v -0.246843 0.595430 0.020000
v -0.226024 0.597356 0.020000
v -0.206912 0.599247 0.020000
v -0.181121 0.601996 0.020000
v -0.179839 0.696867 0.020000
v -0.208971 0.691925 0.020000
v -0.228237 0.689112 0.020000
v -0.249198 0.686428 0.020000
v -0.271436 0.683906 0.020000
v -0.294536 0.681576 0.020000
v -0.318090 0.679465 0.020000
v -0.341687 0.677603 0.020000
v -0.364921 0.676018 0.020000
v -0.387382 0.674737 0.020000
v -0.408659 0.673790 0.020000
v -0.428336 0.673202 0.020000
v -0.446057 0.673000 0.020000
v -0.482000 0.673000 0.020000
v -0.482000 0.733955 0.020000
v -0.481961 0.738320 0.020000
v -0.481847 0.743077 0.020000
v -0.481664 0.748170 0.020000
v -0.481420 0.753497 0.020000
v -0.481120 0.758957 0.020000
v -0.480773 0.764452 0.020000
v -0.480384 0.769884 0.020000
v -0.479962 0.775155 0.020000
v -0.479513 0.780165 0.020000
v -0.479047 0.784811 0.020000
v -0.478573 0.788987 0.020000
v -0.476600 0.804000 0.020000
v -0.584732 0.804000 0.020000
v -0.582154 0.787931 0.020000
v -0.581485 0.783401 0.020000
v -0.580856 0.778740 0.020000
v -0.580267 0.773921 0.020000
v -0.579718 0.768920 0.020000
v -0.579208 0.763709 0.020000
v -0.578739 0.758264 0.020000
v -0.578309 0.752559 0.020000
v -0.577920 0.746571 0.020000
v -0.577570 0.740273 0.020000
v -0.577262 0.733643 0.020000
v -0.576997 0.726727 0.020000
v -0.576174 0.676511 0.020000
v -0.587984 0.677090 0.020000
v -0.610448 0.678397 0.020000
v -0.632939 0.679912 0.020000
v -0.655451 0.681634 0.020000
v -0.677977 0.683564 0.020000
v -0.700510 0.685701 0.020000
v -0.723043 0.688046 0.020000
v -0.745569 0.690598 0.020000
v -0.768081 0.693358 0.020000
v -0.790572 0.696325 0.020000
v -0.813035 0.699499 0.020000
v -0.847160 0.704645 0.020000
v -0.845878 0.611044 0.020000
v -0.817019 0.607812 0.020000
v -0.796289 0.605574 0.020000
v -0.774996 0.603364 0.020000
v -0.753190 0.601195 0.020000
v -0.730923 0.599082 0.020000
v -0.708248 0.597038 0.020000
v -0.685216 0.595078 0.020000
v -0.661879 0.593215 0.020000
v -0.638290 0.591463 0.020000
v -0.614498 0.589836 0.020000
v -0.590558 0.588348 0.020000
v -0.576000 0.587540 0.020000
v -0.576000 0.469000 0.020000
v -0.576000 0.467468 0.020000
v -0.589626 0.468092 0.020000
v -0.613433 0.469399 0.020000
v -0.637032 0.470914 0.020000
v -0.660442 0.472636 0.020000
v -0.683685 0.474566 0.020000
v -0.706782 0.476703 0.020000
v -0.729754 0.479048 0.020000
v -0.752622 0.481600 0.020000
v -0.775408 0.484359 0.020000
v -0.798132 0.487327 0.020000
v -0.820815 0.490501 0.020000
v -0.855156 0.495626 0.020000
v -0.853883 0.400155 0.020000
v -0.821825 0.396157 0.020000
v -0.798583 0.393404 0.020000
v -0.775497 0.390824 0.020000
v -0.752521 0.388421 0.020000
v -0.729611 0.386199 0.020000
v -0.706721 0.384161 0.020000
v -0.683807 0.382311 0.020000
v -0.660824 0.380652 0.020000
v -0.637728 0.379189 0.020000
v -0.614475 0.377924 0.020000
v -0.591019 0.376862 0.020000
v -0.577448 0.376371 0.020000
v -0.583667 0.239549 0.020000
v -0.609696 0.231776 0.020000
v -0.641407 0.220558 0.020000
v -0.671692 0.208226 0.020000
v -0.700503 0.195004 0.020000
v -0.727795 0.181113 0.020000
v -0.753521 0.166775 0.020000
v -0.777633 0.152211 0.020000
v -0.800086 0.137641 0.020000
v -0.820833 0.123287 0.020000
v -0.839826 0.109368 0.020000
v -0.857017 0.096105 0.020000
v -0.879290 0.078122 0.020000
v -0.822043 -0.010238 0.020000
v -0.798180 0.011091 0.020000
v -0.782148 0.024738 0.020000
v -0.765179 0.038450 0.020000
v -0.747300 0.052117 0.020000
v -0.728536 0.065627 0.020000
v -0.708914 0.078871 0.020000
v -0.688460 0.091738 0.020000
v -0.667199 0.104119 0.020000
v -0.645158 0.115903 0.020000
v -0.622364 0.126981 0.020000
v -0.598841 0.137245 0.020000
v -0.588481 0.141240 0.020000
v -0.590009 0.093881 0.020000
v -0.588971 0.075390 0.020000
v -0.585729 0.056962 0.020000
v -0.580124 0.038963 0.020000
v -0.571998 0.021676 0.020000
v -0.561207 0.005404 0.020000
v -0.547639 -0.009539 0.020000
v -0.531215 -0.022844 0.020000
v -0.511877 -0.034232 0.020000
v -0.489570 -0.043456 0.020000
v -0.464224 -0.050296 0.020000
v -0.435743 -0.054548 0.020000
v -0.404077 -0.056007 0.020000
v -0.368734 -0.054926 0.020000
v -0.336169 -0.051689 0.020000
v -0.306320 -0.046288 0.020000
v -0.279218 -0.038704 0.020000
v -0.254907 -0.028906 0.020000
v -0.233457 -0.016856 0.020000
v -0.214977 -0.002525 0.020000
v -0.199617 0.014077 0.020000
v -0.187543 0.032875 0.020000
v -0.178884 0.053727 0.020000
v -0.173697 0.076471 0.020000
v -0.171972 0.101055 0.020000
v -0.173896 0.124781 0.020000
v -0.179638 0.147249 0.020000
v -0.189080 0.168188 0.020000
v -0.202061 0.187387 0.020000
v -0.218388 0.204671 0.020000
v -0.237872 0.219918 0.020000
v -0.260340 0.233037 0.020000
v -0.285648 0.243952 0.020000
v -0.313674 0.252590 0.020000
v -0.344307 0.258870 0.020000
v -0.377446 0.262706 0.020000
v -0.412846 0.264001 0.020000
v -0.420345 0.263958 0.020000
v -0.427649 0.263831 0.020000
v -0.434913 0.263619 0.020000
v -0.442137 0.263322 0.020000
v -0.449320 0.262941 0.020000
v -0.456463 0.262475 0.020000
v -0.463565 0.261924 0.020000
v -0.470626 0.261287 0.020000
v -0.477647 0.260566 0.020000
v -0.484627 0.259760 0.020000
v -0.491567 0.258869 0.020000
v -0.486656 0.259564 0.020000
v -0.483290 0.374000 0.020000
v -0.435966 0.374000 0.020000
v -0.418044 0.374123 0.020000
v -0.398636 0.374484 0.020000
v -0.378049 0.375068 0.020000
v -0.356556 0.375860 0.020000
v -0.334430 0.376847 0.020000
v -0.311945 0.378015 0.020000
v -0.289377 0.379351 0.020000
v -0.267001 0.380839 0.020000
v -0.245091 0.382468 0.020000
v -0.223922 0.384223 0.020000
v -0.203765 0.386092 0.020000
v -0.176119 0.388977 0.020000
v -0.174843 0.484679 0.020000
v -0.205239 0.480005 0.020000
v -0.225310 0.477351 0.020000
v -0.246539 0.474912 0.020000
v -0.268603 0.472697 0.020000
v -0.291183 0.470716 0.020000
v -0.313960 0.468975 0.020000
v -0.336617 0.467483 0.020000
v -0.358838 0.466247 0.020000
v -0.380305 0.465273 0.020000
v -0.400701 0.464570 0.020000
v -0.419706 0.464144 0.020000
v -0.437041 0.464000 0.020000
v -0.380837 0.177263 0.020000
v -0.380837 0.177263 -0.020000
v -0.360557 0.175142 0.020000
v -0.360557 0.175142 -0.020000
v -0.342204 0.171747 0.020000
v -0.342204 0.171747 -0.020000
v -0.325816 0.167200 0.020000
v -0.325816 0.167200 -0.020000
v -0.311428 0.161631 0.020000
v -0.311428 0.161631 -0.020000
v -0.299065 0.155179 0.020000
v -0.299065 0.155179 -0.020000
v -0.288737 0.147991 0.020000
v -0.288737 0.147991 -0.020000
v -0.280425 0.140215 0.020000
v -0.280425 0.140215 -0.020000
v -0.274075 0.131978 0.020000
v -0.274075 0.131978 -0.020000
v -0.269607 0.123362 0.020000
v -0.269607 0.123362 -0.020000
v -0.266941 0.114380 0.020000
v -0.266941 0.114380 -0.020000
v -0.266036 0.104898 0.020000
v -0.266036 0.104898 -0.020000
v -0.266756 0.095296 0.020000
v -0.266756 0.095296 -0.020000
v -0.268941 0.086210 0.020000
v -0.268941 0.086210 -0.020000
v -0.272617 0.077734 0.020000
v -0.272617 0.077734 -0.020000
v -0.277882 0.069818 0.020000
v -0.277882 0.069818 -0.020000
v -0.284897 0.062443 0.020000
v -0.284897 0.062443 -0.020000
v -0.293844 0.055653 0.020000
v -0.293844 0.055653 -0.020000
v -0.304889 0.049551 0.020000
v -0.304889 0.049551 -0.020000
v -0.318158 0.044269 0.020000
v -0.318158 0.044269 -0.020000
v -0.333741 0.039948 0.020000
v -0.333741 0.039948 -0.020000
v -0.351708 0.036718 0.020000
v -0.351708 0.036718 -0.020000
v -0.372113 0.034700 0.020000
v -0.372113 0.034700 -0.020000
v -0.395012 0.034004 0.020000
v -0.395012 0.034004 -0.020000
v -0.408458 0.034381 0.020000
v -0.408458 0.034381 -0.020000
v -0.421330 0.035574 0.020000
v -0.421330 0.035574 -0.020000
v -0.433437 0.037664 0.020000
v -0.433437 0.037664 -0.020000
v -0.444624 0.040717 0.020000
v -0.444624 0.040717 -0.020000
v -0.454752 0.044785 0.020000
v -0.454752 0.044785 -0.020000
v -0.463723 0.049913 0.020000
v -0.463723 0.049913 -0.020000
v -0.471493 0.056167 0.020000
v -0.471493 0.056167 -0.020000
v -0.478059 0.063677 0.020000
v -0.478059 0.063677 -0.020000
v -0.483412 0.072659 0.020000
v -0.483412 0.072659 -0.020000
v -0.487469 0.083384 0.020000
v -0.487469 0.083384 -0.020000
v -0.490065 0.096106 0.020000
v -0.490065 0.096106 -0.020000
v -0.490995 0.111233 0.020000
v -0.490995 0.111233 -0.020000
v -0.490120 0.169888 0.020000
v -0.490120 0.169888 -0.020000
v -0.490224 0.169866 0.020000
v -0.490224 0.169866 -0.020000
v -0.482568 0.171329 0.020000
v -0.482568 0.171329 -0.020000
v -0.474836 0.172639 0.020000
v -0.474836 0.172639 -0.020000
v -0.467035 0.173798 0.020000
v -0.467035 0.173798 -0.020000
v -0.459172 0.174809 0.020000
v -0.459172 0.174809 -0.020000
v -0.451254 0.175674 0.020000
v -0.451254 0.175674 -0.020000
v -0.443288 0.176398 0.020000
v -0.443288 0.176398 -0.020000
v -0.435282 0.176983 0.020000
v -0.435282 0.176983 -0.020000
v -0.427243 0.177433 0.020000
v -0.427243 0.177433 -0.020000
v -0.419178 0.177750 0.020000
v -0.419178 0.177750 -0.020000
v -0.411094 0.177938 0.020000
v -0.411094 0.177938 -0.020000
v -0.403127 0.177999 0.020000
v -0.403127 0.177999 -0.020000
v -0.481000 0.464000 0.020000
v -0.481000 0.464000 -0.020000
v -0.481000 0.469000 0.020000
v -0.481000 0.469000 -0.020000
v -0.481000 0.584000 0.020000
v -0.481000 0.584000 -0.020000
v -0.446946 0.584000 0.020000
v -0.446946 0.584000 -0.020000
v -0.428267 0.584202 0.020000
v -0.428267 0.584202 -0.020000
v -0.407760 0.584779 0.020000
v -0.407760 0.584779 -0.020000
v -0.385864 0.585683 0.020000
v -0.385864 0.585683 -0.020000
v -0.362959 0.586867 0.020000
v -0.362959 0.586867 -0.020000
v -0.339430 0.588288 0.020000
v -0.339430 0.588288 -0.020000
v -0.315666 0.589900 0.020000
v -0.315666 0.589900 -0.020000
v -0.292053 0.591658 0.020000
v -0.292053 0.591658 -0.020000
v -0.268983 0.593516 0.020000
v -0.268983 0.593516 -0.020000
v -0.246843 0.595430 0.020000
v -0.246843 0.595430 -0.020000
v -0.226024 0.597356 0.020000
v -0.226024 0.597356 -0.020000
v -0.206912 0.599247 0.020000
v -0.206912 0.599247 -0.020000
v -0.181121 0.601996 0.020000
v -0.181121 0.601996 -0.020000
v -0.179839 0.696867 0.020000
v -0.179839 0.696867 -0.020000
v -0.208971 0.691925 0.020000
v -0.208971 0.691925 -0.020000
v -0.228237 0.689112 0.020000
v -0.228237 0.689112 -0.020000
v -0.249198 0.686428 0.020000
v -0.249198 0.686428 -0.020000
v -0.271436 0.683906 0.020000
v -0.271436 0.683906 -0.020000
v -0.294536 0.681576 0.020000
v -0.294536 0.681576 -0.020000
v -0.318090 0.679465 0.020000
v -0.318090 0.679465 -0.020000
v -0.341687 0.677603 0.020000
v -0.341687 0.677603 -0.020000
v -0.364921 0.676018 0.020000
v -0.364921 0.676018 -0.020000
v -0.387382 0.674737 0.020000
v -0.387382 0.674737 -0.020000
v -0.408659 0.673790 0.020000
v -0.408659 0.673790 -0.020000
v -0.428336 0.673202 0.020000
v -0.428336 0.673202 -0.020000
v -0.446057 0.673000 0.020000
v -0.446057 0.673000 -0.020000
v -0.482000 0.673000 0.020000
v -0.482000 0.673000 -0.020000
v -0.482000 0.733955 0.020000
v -0.482000 0.733955 -0.020000
v -0.481961 0.738320 0.020000
v -0.481961 0.738320 -0.020000
v -0.481847 0.743077 0.020000
v -0.481847 0.743077 -0.020000
v -0.481664 0.748170 0.020000
v -0.481664 0.748170 -0.020000
v -0.481420 0.753497 0.020000
v -0.481420 0.753497 -0.020000
v -0.481120 0.758957 0.020000
v -0.481120 0.758957 -0.020000
v -0.480773 0.764452 0.020000
v -0.480773 0.764452 -0.020000
v -0.480384 0.769884 0.020000
v -0.480384 0.769884 -0.020000
v -0.479962 0.775155 0.020000
v -0.479962 0.775155 -0.020000
v -0.479513 0.780165 0.020000
v -0.479513 0.780165 -0.020000
v -0.479047 0.784811 0.020000
v -0.479047 0.784811 -0.020000
v -0.478573 0.788987 0.020000
v -0.478573 0.788987 -0.020000
v -0.476600 0.804000 0.020000
v -0.476600 0.804000 -0.020000
v -0.584732 0.804000 0.020000
v -0.584732 0.804000 -0.020000
v -0.582154 0.787931 0.020000
v -0.582154 0.787931 -0.020000
v -0.581485 0.783401 0.020000
v -0.581485 0.783401 -0.020000
v -0.580856 0.778740 0.020000
v -0.580856 0.778740 -0.020000
v -0.580267 0.773921 0.020000
v -0.580267 0.773921 -0.020000
v -0.579718 0.768920 0.020000
v -0.579718 0.768920 -0.020000
v -0.579208 0.763709 0.020000
v -0.579208 0.763709 -0.020000
v -0.578739 0.758264 0.020000
v -0.578739 0.758264 -0.020000
v -0.578309 0.752559 0.020000
v -0.578309 0.752559 -0.020000
v -0.577920 0.746571 0.020000
v -0.577920 0.746571 -0.020000
v -0.577570 0.740273 0.020000
v -0.577570 0.740273 -0.020000
v -0.577262 0.733643 0.020000
v -0.577262 0.733643 -0.020000
v -0.576997 0.726727 0.020000
v -0.576997 0.726727 -0.020000
v -0.576174 0.676511 0.020000
v -0.576174 0.676511 -0.020000
v -0.587984 0.677090 0.020000
v -0.587984 0.677090 -0.020000
v -0.610448 0.678397 0.020000
v -0.610448 0.678397 -0.020000
v -0.632939 0.679912 0.020000
v -0.632939 0.679912 -0.020000
v -0.655451 0.681634 0.020000
v -0.655451 0.681634 -0.020000
v -0.677977 0.683564 0.020000
v -0.677977 0.683564 -0.020000
v -0.700510 0.685701 0.020000
v -0.700510 0.685701 -0.020000
v -0.723043 0.688046 0.020000
v -0.723043 0.688046 -0.020000
v -0.745569 0.690598 0.020000
v -0.745569 0.690598 -0.020000
v -0.768081 0.693358 0.020000
v -0.768081 0.693358 -0.020000
v -0.790572 0.696325 0.020000
v -0.790572 0.696325 -0.020000
v -0.813035 0.699499 0.020000
v -0.813035 0.699499 -0.020000
v -0.847160 0.704645 0.020000
v -0.847160 0.704645 -0.020000
v -0.845878 0.611044 0.020000
v -0.845878 0.611044 -0.020000
v -0.817019 0.607812 0.020000
v -0.817019 0.607812 -0.020000
v -0.796289 0.605574 0.020000
v -0.796289 0.605574 -0.020000
v -0.774996 0.603364 0.020000
v -0.774996 0.603364 -0.020000
v -0.753190 0.601195 0.020000
v -0.753190 0.601195 -0.020000
v -0.730923 0.599082 0.020000
v -0.730923 0.599082 -0.020000
v -0.708248 0.597038 0.020000
v -0.708248 0.597038 -0.020000
v -0.685216 0.595078 0.020000
v -0.685216 0.595078 -0.020000
v -0.661879 0.593215 0.020000
v -0.661879 0.593215 -0.020000
v -0.638290 0.591463 0.020000
v -0.638290 0.591463 -0.020000
v -0.614498 0.589836 0.020000
v -0.614498 0.589836 -0.020000
v -0.590558 0.588348 0.020000
v -0.590558 0.588348 -0.020000
v -0.576000 0.587540 0.020000
v -0.576000 0.587540 -0.020000
v -0.576000 0.469000 0.020000
v -0.576000 0.469000 -0.020000
v -0.576000 0.467468 0.020000
v -0.576000 0.467468 -0.020000
v -0.589626 0.468092 0.020000
v -0.589626 0.468092 -0.020000
v -0.613433 0.469399 0.020000
v -0.613433 0.469399 -0.020000
v -0.637032 0.470914 0.020000
v -0.637032 0.470914 -0.020000
v -0.660442 0.472636 0.020000
v -0.660442 0.472636 -0.020000
v -0.683685 0.474566 0.020000
v -0.683685 0.474566 -0.020000
v -0.706782 0.476703 0.020000
v -0.706782 0.476703 -0.020000
v -0.729754 0.479048 0.020000
v -0.729754 0.479048 -0.020000
v -0.752622 0.481600 0.020000
v -0.752622 0.481600 -0.020000
v -0.775408 0.484359 0.020000
v -0.775408 0.484359 -0.020000
v -0.798132 0.487327 0.020000
v -0.798132 0.487327 -0.020000
v -0.820815 0.490501 0.020000
v -0.820815 0.490501 -0.020000
v -0.855156 0.495626 0.020000
v -0.855156 0.495626 -0.020000
v -0.853883 0.400155 0.020000
v -0.853883 0.400155 -0.020000
v -0.821825 0.396157 0.020000
v -0.821825 0.396157 -0.020000
v -0.798583 0.393404 0.020000
v -0.798583 0.393404 -0.020000
v -0.775497 0.390824 0.020000
v -0.775497 0.390824 -0.020000
v -0.752521 0.388421 0.020000
v -0.752521 0.388421 -0.020000
v -0.729611 0.386199 0.020000
v -0.729611 0.386199 -0.020000
v -0.706721 0.384161 0.020000
v -0.706721 0.384161 -0.020000
v -0.683807 0.382311 0.020000
v -0.683807 0.382311 -0.020000
v -0.660824 0.380652 0.020000
v -0.660824 0.380652 -0.020000
v -0.637728 0.379189 0.020000
v -0.637728 0.379189 -0.020000
v -0.614475 0.377924 0.020000
v -0.614475 0.377924 -0.020000
v -0.591019 0.376862 0.020000
v -0.591019 0.376862 -0.020000
v -0.577448 0.376371 0.020000
v -0.577448 0.376371 -0.020000
v -0.583667 0.239549 0.020000
v -0.583667 0.239549 -0.020000
v -0.609696 0.231776 0.020000
v -0.609696 0.231776 -0.020000
v -0.641407 0.220558 0.020000
v -0.641407 0.220558 -0.020000
v -0.671692 0.208226 0.020000
v -0.671692 0.208226 -0.020000
v -0.700503 0.195004 0.020000
v -0.700503 0.195004 -0.020000
v -0.727795 0.181113 0.020000
v -0.727795 0.181113 -0.020000
v -0.753521 0.166775 0.020000
v -0.753521 0.166775 -0.020000
v -0.777633 0.152211 0.020000
v -0.777633 0.152211 -0.020000
v -0.800086 0.137641 0.020000
v -0.800086 0.137641 -0.020000
v -0.820833 0.123287 0.020000
v -0.820833 0.123287 -0.020000
v -0.839826 0.109368 0.020000
v -0.839826 0.109368 -0.020000
v -0.857017 0.096105 0.020000
v -0.857017 0.096105 -0.020000
v -0.879290 0.078122 0.020000
v -0.879290 0.078122 -0.020000
v -0.822043 -0.010238 0.020000
v -0.822043 -0.010238 -0.020000
v -0.798180 0.011091 0.020000
v -0.798180 0.011091 -0.020000
v -0.782148 0.024738 0.020000
v -0.782148 0.024738 -0.020000
v -0.765179 0.038450 0.020000
v -0.765179 0.038450 -0.020000
v -0.747300 0.052117 0.020000
v -0.747300 0.052117 -0.020000
v -0.728536 0.065627 0.020000
v -0.728536 0.065627 -0.020000
v -0.708914 0.078871 0.020000
v -0.708914 0.078871 -0.020000
v -0.688460 0.091738 0.020000
v -0.688460 0.091738 -0.020000
v -0.667199 0.104119 0.020000
v -0.667199 0.104119 -0.020000
v -0.645158 0.115903 0.020000
v -0.645158 0.115903 -0.020000
v -0.622364 0.126981 0.020000
v -0.622364 0.126981 -0.020000
v -0.598841 0.137245 0.020000
v -0.598841 0.137245 -0.020000
v -0.588481 0.141240 0.020000
v -0.588481 0.141240 -0.020000
v -0.590009 0.093881 0.020000
v -0.590009 0.093881 -0.020000
v -0.588971 0.075390 0.020000
v -0.588971 0.075390 -0.020000
v -0.585729 0.056962 0.020000
v -0.585729 0.056962 -0.020000
v -0.580124 0.038963 0.020000
v -0.580124 0.038963 -0.020000
v -0.571998 0.021676 0.020000
v -0.571998 0.021676 -0.020000
v -0.561207 0.005404 0.020000
v -0.561207 0.005404 -0.020000
v -0.547639 -0.009539 0.020000
v -0.547639 -0.009539 -0.020000
v -0.531215 -0.022844 0.020000
v -0.531215 -0.022844 -0.020000
v -0.511877 -0.034232 0.020000
v -0.511877 -0.034232 -0.020000
v -0.489570 -0.043456 0.020000
v -0.489570 -0.043456 -0.020000
v -0.464224 -0.050296 0.020000
v -0.464224 -0.050296 -0.020000
v -0.435743 -0.054548 0.020000
v -0.435743 -0.054548 -0.020000
v -0.404077 -0.056007 0.020000
v -0.404077 -0.056007 -0.020000
v -0.368734 -0.054926 0.020000
v -0.368734 -0.054926 -0.020000
v -0.336169 -0.051689 0.020000
v -0.336169 -0.051689 -0.020000
v -0.306320 -0.046288 0.020000
v -0.306320 -0.046288 -0.020000
v -0.279218 -0.038704 0.020000
v -0.279218 -0.038704 -0.020000
v -0.254907 -0.028906 0.020000
v -0.254907 -0.028906 -0.020000
v -0.233457 -0.016856 0.020000
v -0.233457 -0.016856 -0.020000
v -0.214977 -0.002525 0.020000
v -0.214977 -0.002525 -0.020000
v -0.199617 0.014077 0.020000
v -0.199617 0.014077 -0.020000
v -0.187543 0.032875 0.020000
v -0.187543 0.032875 -0.020000
v -0.178884 0.053727 0.020000
v -0.178884 0.053727 -0.020000
v -0.173697 0.076471 0.020000
v -0.173697 0.076471 -0.020000
v -0.171972 0.101055 0.020000
v -0.171972 0.101055 -0.020000
v -0.173896 0.124781 0.020000
v -0.173896 0.124781 -0.020000
v -0.179638 0.147249 0.020000
v -0.179638 0.147249 -0.020000
v -0.189080 0.168188 0.020000
v -0.189080 0.168188 -0.020000
v -0.202061 0.187387 0.020000
v -0.202061 0.187387 -0.020000
v -0.218388 0.204671 0.020000
v -0.218388 0.204671 -0.020000
v -0.237872 0.219918 0.020000
v -0.237872 0.219918 -0.020000
v -0.260340 0.233037 0.020000
v -0.260340 0.233037 -0.020000
v -0.285648 0.243952 0.020000
v -0.285648 0.243952 -0.020000
v -0.313674 0.252590 0.020000
v -0.313674 0.252590 -0.020000
v -0.344307 0.258870 0.020000
v -0.344307 0.258870 -0.020000
v -0.377446 0.262706 0.020000
v -0.377446 0.262706 -0.020000
v -0.412846 0.264001 0.020000
v -0.412846 0.264001 -0.020000
v -0.420345 0.263958 0.020000
v -0.420345 0.263958 -0.020000
v -0.427649 0.263831 0.020000
v -0.427649 0.263831 -0.020000
v -0.434913 0.263619 0.020000
v -0.434913 0.263619 -0.020000
v -0.442137 0.263322 0.020000
v -0.442137 0.263322 -0.020000
v -0.449320 0.262941 0.020000
v -0.449320 0.262941 -0.020000
v -0.456463 0.262475 0.020000
v -0.456463 0.262475 -0.020000
v -0.463565 0.261924 0.020000
v -0.463565 0.261924 -0.020000
v -0.470626 0.261287 0.020000
v -0.470626 0.261287 -0.020000
v -0.477647 0.260566 0.020000
v -0.477647 0.260566 -0.020000
v -0.484627 0.259760 0.020000
v -0.484627 0.259760 -0.020000
v -0.491567 0.258869 0.020000
v -0.491567 0.258869 -0.020000
v -0.486656 0.259564 0.020000
v -0.486656 0.259564 -0.020000
v -0.483290 0.374000 0.020000
v -0.483290 0.374000 -0.020000
v -0.435966 0.374000 0.020000
v -0.435966 0.374000 -0.020000
v -0.418044 0.374123 0.020000
v -0.418044 0.374123 -0.020000
v -0.398636 0.374484 0.020000
v -0.398636 0.374484 -0.020000
v -0.378049 0.375068 0.020000
v -0.378049 0.375068 -0.020000
v -0.356556 0.375860 0.020000
v -0.356556 0.375860 -0.020000
v -0.334430 0.376847 0.020000
v -0.334430 0.376847 -0.020000
v -0.311945 0.378015 0.020000
v -0.311945 0.378015 -0.020000
v -0.289377 0.379351 0.020000
v -0.289377 0.379351 -0.020000
v -0.267001 0.380839 0.020000
v -0.267001 0.380839 -0.020000
v -0.245091 0.382468 0.020000
v -0.245091 0.382468 -0.020000
v -0.223922 0.384223 0.020000
v -0.223922 0.384223 -0.020000
v -0.203765 0.386092 0.020000
v -0.203765 0.386092 -0.020000
v -0.176119 0.388977 0.020000
v -0.176119 0.388977 -0.020000
v -0.174843 0.484679 0.020000
v -0.174843 0.484679 -0.020000
v -0.205239 0.480005 0.020000
v -0.205239 0.480005 -0.020000
v -0.225310 0.477351 0.020000
v -0.225310 0.477351 -0.020000
v -0.246539 0.474912 0.020000
v -0.246539 0.474912 -0.020000
v -0.268603 0.472697 0.020000
v -0.268603 0.472697 -0.020000
v -0.291183 0.470716 0.020000
v -0.291183 0.470716 -0.020000
v -0.313960 0.468975 0.020000
v -0.313960 0.468975 -0.020000
v -0.336617 0.467483 0.020000
v -0.336617 0.467483 -0.020000
v -0.358838 0.466247 0.020000
v -0.358838 0.466247 -0.020000
v -0.380305 0.465273 0.020000
v -0.380305 0.465273 -0.020000
v -0.400701 0.464570 0.020000
v -0.400701 0.464570 -0.020000
v -0.419706 0.464144 0.020000
v -0.419706 0.464144 -0.020000
v -0.437041 0.464000 0.020000
v -0.437041 0.464000 -0.020000
vn -0.0000 -0.0000 -1.0000
vn -0.0000 -0.0000 1.0000
vn -0.1431 -0.9897 -0.0000
vn -0.0686 -0.9976 -0.0000
vn -0.2248 -0.9744 -0.0000
vn -0.3145 -0.9492 -0.0000
vn -0.4125 -0.9110 -0.0000
vn -0.5180 -0.8554 -0.0000
vn -0.6288 -0.7776 -0.0000
vn -0.7400 -0.6726 -0.0000
vn -0.8432 -0.5376 -0.0000
vn -0.9274 -0.3742 -0.0000
vn -0.9816 -0.1907 -0.0000
vn -0.9999 -0.0101 -0.0000
vn -0.9879 0.1548 -0.0000
vn -0.9484 0.3170 -0.0000
vn -0.8785 0.4777 -0.0000
vn -0.7815 0.6238 -0.0000
vn -0.6667 0.7453 -0.0000
vn -0.5455 0.8381 -0.0000
vn -0.4276 0.9040 -0.0000
vn -0.3190 0.9478 -0.0000
vn -0.2223 0.9750 -0.0000
vn -0.1378 0.9905 -0.0000
vn -0.0644 0.9979 -0.0000
vn -0.0012 1.0000 -0.0000
vn 0.0602 0.9982 -0.0000
vn 0.1313 0.9913 -0.0000
vn 0.2170 0.9762 -0.0000
vn 0.3186 0.9479 -0.0000
vn 0.2169 0.9762 -0.0000
vn 0.4355 0.9002 -0.0000
vn 0.5634 0.8262 -0.0000
vn 0.6926 0.7214 -0.0000
vn 0.8093 0.5875 -0.0000
vn 0.9007 0.4345 -0.0000
vn 0.8092 0.5875 -0.0000
vn 0.9607 0.2778 -0.0000
vn 0.9914 0.1310 -0.0000
vn 0.9606 0.2778 -0.0000
vn 0.9997 0.0233 -0.0000
vn 0.6346 0.7729 -0.0000
vn -0.9801 -0.1987 -0.0000
vn 0.6345 0.7729 -0.0000
vn 0.1774 -0.9841 -0.0000
vn -0.9803 -0.1977 -0.0000
vn 0.1570 -0.9876 -0.0000
vn 0.1372 -0.9905 -0.0000
vn 0.1181 -0.9930 -0.0000
vn 0.0996 -0.9950 -0.0000
vn 0.0817 -0.9967 -0.0000
vn 0.0644 -0.9979 -0.0000
vn 0.0476 -0.9989 -0.0000
vn 0.0313 -0.9995 -0.0000
vn 0.0154 -0.9999 -0.0000
vn -0.0127 -0.9999 -0.0000
vn 1.0000 -0.0000 -0.0000
vn 0.7071 0.7071 -0.0000
vn 0.7071 -0.7071 -0.0000
vn 0.0054 -1.0000 -0.0000
vn 0.0195 -0.9998 -0.0000
vn 0.0347 -0.9994 -0.0000
vn 0.0464 -0.9989 -0.0000
vn 0.0560 -0.9984 -0.0000
vn 0.0640 -0.9980 -0.0000
vn 0.0709 -0.9975 -0.0000
vn 0.0773 -0.9970 -0.0000
vn 0.0832 -0.9965 -0.0000
vn 0.0891 -0.9960 -0.0000
vn 0.0953 -0.9954 -0.0000
vn 0.1022 -0.9948 -0.0000
vn 0.7391 -0.6736 -0.0000
vn 0.6504 0.7596 -0.0000
vn -0.1559 0.9878 -0.0000
vn -0.1357 0.9907 -0.0000
vn -0.1198 0.9928 -0.0000
vn -0.1065 0.9943 -0.0000
vn -0.0948 0.9955 -0.0000
vn -0.0840 0.9965 -0.0000
vn -0.0734 0.9973 -0.0000
vn -0.0625 0.9980 -0.0000
vn -0.0507 0.9987 -0.0000
vn -0.0372 0.9993 -0.0000
vn -0.0206 0.9998 -0.0000
vn -0.0057 1.0000 -0.0000
vn 1.0000 -0.0045 -0.0000
vn 0.9999 -0.0165 -0.0000
vn 0.9996 -0.0298 -0.0000
vn 0.9992 -0.0408 -0.0000
vn 0.9987 -0.0503 -0.0000
vn 0.9983 -0.0590 -0.0000
vn 0.9977 -0.0673 -0.0000
vn 0.9971 -0.0756 -0.0000
vn 0.9964 -0.0845 -0.0000
vn 0.9955 -0.0945 -0.0000
vn 0.9943 -0.1064 -0.0000
vn 0.9926 -0.1216 -0.0000
vn 0.7517 0.6595 -0.0000
vn -0.7611 0.6487 -0.0000
vn 0.7518 0.6594 -0.0000
vn -0.9883 -0.1523 -0.0000
vn -0.7610 0.6487 -0.0000
vn -0.9902 -0.1400 -0.0000
vn -0.9918 -0.1276 -0.0000
vn -0.9933 -0.1153 -0.0000
vn -0.9947 -0.1032 -0.0000
vn -0.9958 -0.0916 -0.0000
vn -0.9968 -0.0805 -0.0000
vn -0.9975 -0.0700 -0.0000
vn -0.9982 -0.0601 -0.0000
vn -0.9987 -0.0509 -0.0000
vn -0.9991 -0.0424 -0.0000
vn -0.9996 -0.0273 -0.0000
vn -0.6955 0.7185 -0.0000
vn -0.9996 -0.0274 -0.0000
vn 0.0535 0.9986 -0.0000
vn 0.0626 0.9980 -0.0000
vn 0.0717 0.9974 -0.0000
vn 0.0808 0.9967 -0.0000
vn 0.0899 0.9960 -0.0000
vn 0.0990 0.9951 -0.0000
vn 0.1080 0.9941 -0.0000
vn 0.1171 0.9931 -0.0000
vn 0.1262 0.9920 -0.0000
vn 0.1354 0.9908 -0.0000
vn 0.1445 0.9895 -0.0000
vn -0.6574 0.7535 -0.0000
vn -0.7408 -0.6717 -0.0000
vn -0.1093 -0.9940 -0.0000
vn -0.1053 -0.9944 -0.0000
vn -0.1011 -0.9949 -0.0000
vn -0.0967 -0.9953 -0.0000
vn -0.0921 -0.9957 -0.0000
vn -0.0873 -0.9962 -0.0000
vn -0.0822 -0.9966 -0.0000
vn -0.0768 -0.9970 -0.0000
vn -0.0711 -0.9975 -0.0000
vn -0.0651 -0.9979 -0.0000
vn -0.0587 -0.9983 -0.0000
vn -0.7265 -0.6872 -0.0000
vn -1.0000 -0.0000 -0.0000
vn -0.7264 -0.6872 -0.0000
vn -0.6908 0.7231 -0.0000
vn 0.0503 0.9987 -0.0000
vn 0.0594 0.9982 -0.0000
vn 0.0687 0.9976 -0.0000
vn 0.0781 0.9969 -0.0000
vn 0.0874 0.9962 -0.0000
vn 0.0968 0.9953 -0.0000
vn 0.1062 0.9943 -0.0000
vn 0.1156 0.9933 -0.0000
vn 0.1249 0.9922 -0.0000
vn 0.1340 0.9910 -0.0000
vn 0.1431 0.9897 -0.0000
vn -0.6578 0.7531 -0.0000
vn -0.7451 -0.6669 -0.0000
vn -0.6579 0.7531 -0.0000
vn -0.1207 -0.9927 -0.0000
vn -0.1144 -0.9934 -0.0000
vn -0.1075 -0.9942 -0.0000
vn -0.1003 -0.9950 -0.0000
vn -0.0926 -0.9957 -0.0000
vn -0.0846 -0.9964 -0.0000
vn -0.0762 -0.9971 -0.0000
vn -0.0676 -0.9977 -0.0000
vn -0.0588 -0.9983 -0.0000
vn -0.0498 -0.9988 -0.0000
vn -0.0407 -0.9992 -0.0000
vn -0.7354 -0.6777 -0.0000
vn -0.7881 0.6155 -0.0000
vn -0.7353 -0.6777 -0.0000
vn -0.3099 0.9508 -0.0000
vn -0.3554 0.9347 -0.0000
vn -0.3972 0.9177 -0.0000
vn -0.4354 0.9002 -0.0000
vn -0.4703 0.8825 -0.0000
vn -0.5020 0.8649 -0.0000
vn -0.5307 0.8475 -0.0000
vn -0.5567 0.8307 -0.0000
vn -0.5801 0.8145 -0.0000
vn -0.6010 0.7992 -0.0000
vn -0.6195 0.7850 -0.0000
vn -0.9875 0.1577 -0.0000
vn -0.1328 -0.9911 -0.0000
vn 0.6573 -0.7536 -0.0000
vn 0.6384 -0.7697 -0.0000
vn 0.6180 -0.7862 -0.0000
vn 0.5959 -0.8031 -0.0000
vn 0.5720 -0.8203 -0.0000
vn 0.5460 -0.8378 -0.0000
vn 0.5179 -0.8554 -0.0000
vn 0.4874 -0.8732 -0.0000
vn 0.4544 -0.8908 -0.0000
vn 0.4186 -0.9082 -0.0000
vn 0.3800 -0.9250 -0.0000
vn -0.5790 -0.8153 -0.0000
vn -0.9999 -0.0119 -0.0000
vn -0.9934 -0.1149 -0.0000
vn -0.9718 -0.2358 -0.0000
vn -0.9321 -0.3622 -0.0000
vn -0.8715 -0.4904 -0.0000
vn -0.7891 -0.6142 -0.0000
vn -0.6869 -0.7267 -0.0000
vn -0.5700 -0.8216 -0.0000
vn -0.4459 -0.8951 -0.0000
vn -0.3220 -0.9467 -0.0000
vn -0.2044 -0.9789 -0.0000
vn -0.0970 -0.9953 -0.0000
vn -0.0077 -1.0000 -0.0000
vn 0.0648 -0.9979 -0.0000
vn 0.1386 -0.9903 -0.0000
vn 0.2240 -0.9746 -0.0000
vn 0.3221 -0.9467 -0.0000
vn 0.4327 -0.9015 -0.0000
vn 0.5528 -0.8333 -0.0000
vn 0.6757 -0.7372 -0.0000
vn 0.7908 -0.6121 -0.0000
vn 0.8859 -0.4638 -0.0000
vn 0.9527 -0.3040 -0.0000
vn 0.9892 -0.1466 -0.0000
vn 1.0000 0.0054 -0.0000
vn 0.9863 0.1648 -0.0000
vn 0.9438 0.3306 -0.0000
vn 0.8732 0.4874 -0.0000
vn 0.7802 0.6255 -0.0000
vn 0.6735 0.7392 -0.0000
vn 0.5616 0.8274 -0.0000
vn 0.4510 0.8925 -0.0000
vn 0.3458 0.9383 -0.0000
vn 0.2480 0.9688 -0.0000
vn 0.1581 0.9874 -0.0000
vn 0.0758 0.9971 -0.0000
vn 0.0154 0.9999 -0.0000
vn -0.0116 0.9999 -0.0000
vn -0.0233 0.9997 -0.0000
vn -0.0351 0.9994 -0.0000
vn -0.0470 0.9989 -0.0000
vn -0.0591 0.9983 -0.0000
vn -0.0713 0.9975 -0.0000
vn -0.0836 0.9965 -0.0000
vn -0.0960 0.9954 -0.0000
vn -0.1085 0.9941 -0.0000
vn -0.1211 0.9926 -0.0000
vn 0.9912 0.1327 -0.0000
vn 0.7453 -0.6667 -0.0000
vn 0.9911 0.1334 -0.0000
vn 0.6966 -0.7174 -0.0000
vn 0.0034 -1.0000 -0.0000
vn 0.0127 -0.9999 -0.0000
vn 0.0235 -0.9997 -0.0000
vn 0.0326 -0.9995 -0.0000
vn 0.0407 -0.9992 -0.0000
vn 0.0482 -0.9988 -0.0000
vn 0.0555 -0.9985 -0.0000
vn 0.0627 -0.9980 -0.0000
vn 0.0703 -0.9975 -0.0000
vn 0.0784 -0.9969 -0.0000
vn 0.0875 -0.9962 -0.0000
vn 0.0980 -0.9952 -0.0000
vn 0.7384 -0.6744 -0.0000
vn 0.6562 0.7546 -0.0000
vn -0.1416 0.9899 -0.0000
vn -0.1226 0.9925 -0.0000
vn -0.1070 0.9943 -0.0000
vn -0.0936 0.9956 -0.0000
vn -0.0818 0.9966 -0.0000
vn -0.0710 0.9975 -0.0000
vn -0.0606 0.9982 -0.0000
vn -0.0504 0.9987 -0.0000
vn -0.0399 0.9992 -0.0000
vn -0.0284 0.9996 -0.0000
vn -0.0154 0.9999 -0.0000
vn -0.0041 1.0000 -0.0000
vt 0.055482 0.795590
vt 0.055687 0.795590
vt 0.055584 0.795590
vt 0.055789 0.795590
vt 0.055380 0.795590
vt 0.055891 0.795590
vt 0.055278 0.795590
vt 0.055993 0.795590
vt 0.055175 0.795590
vt 0.056095 0.795590
vt 0.055073 0.795590
vt 0.056198 0.795590
vt 0.054971 0.795590
vt 0.056300 0.795590
vt 0.054869 0.795590
vt 0.056402 0.795590
vt 0.054767 0.795590
vt 0.056504 0.795590
vt 0.054664 0.795590
vt 0.056607 0.795590
vt 0.054562 0.795590
vt 0.056709 0.795590
vt 0.054460 0.795590
vt 0.056811 0.795590
vt 0.054358 0.795590
vt 0.054255 0.795590
vt 0.056913 0.795590
vt 0.057015 0.795590
vt 0.058140 0.795590
vt 0.058344 0.795590
vt 0.058242 0.795590
vt 0.058038 0.795590
vt 0.052824 0.795590
vt 0.053029 0.795590
vt 0.052926 0.795590
vt 0.057935 0.795590
vt 0.057833 0.795590
vt 0.053131 0.795590
vt 0.057731 0.795590
vt 0.053233 0.795590
vt 0.057629 0.795590
vt 0.053335 0.795590
vt 0.057527 0.795590
vt 0.053438 0.795590
vt 0.057424 0.795590
vt 0.057322 0.795590
vt 0.053540 0.795590
vt 0.057220 0.795590
vt 0.053642 0.795590
vt 0.057118 0.795590
vt 0.053744 0.795590
vt 0.053847 0.795590
vt 0.053949 0.795590
vt 0.054051 0.795590
vt 0.054153 0.795590
vt 0.058447 0.795590
vt 0.058549 0.795590
vt 0.058651 0.795590
vt 0.058753 0.795590
vt 0.052722 0.795590
vt 0.058855 0.795590
vt 0.052620 0.795590
vt 0.058958 0.795590
vt 0.052518 0.795590
vt 0.059060 0.795590
vt 0.052415 0.795590
vt 0.059162 0.795590
vt 0.052313 0.795590
vt 0.059264 0.795590
vt 0.052211 0.795590
vt 0.059367 0.795590
vt 0.052109 0.795590
vt 0.059469 0.795590
vt 0.059571 0.795590
vt 0.052006 0.795590
vt 0.051495 0.795590
vt 0.059673 0.795590
vt 0.051904 0.795590
vt 0.051802 0.795590
vt 0.051700 0.795590
vt 0.051598 0.795590
vt 0.051393 0.795590
vt 0.060900 0.795590
vt 0.061104 0.795590
vt 0.061002 0.795590
vt 0.060798 0.795590
vt 0.060695 0.795590
vt 0.071429 0.795590
vt 0.071633 0.795590
vt 0.071531 0.795590
vt 0.060593 0.795590
vt 0.060491 0.795590
vt 0.071735 0.795590
vt 0.060389 0.795590
vt 0.071838 0.795590
vt 0.060287 0.795590
vt 0.071940 0.795590
vt 0.060184 0.795590
vt 0.072042 0.795590
vt 0.060082 0.795590
vt 0.059980 0.795590
vt 0.072144 0.795590
vt 0.059878 0.795590
vt 0.051291 0.795590
vt 0.059775 0.795590
vt 0.072247 0.795590
vt 0.072349 0.795590
vt 0.072451 0.795590
vt 0.072553 0.795590
vt 0.072655 0.795590
vt 0.072758 0.795590
vt 0.061207 0.795590
vt 0.061309 0.795590
vt 0.061411 0.795590
vt 0.061513 0.795590
vt 0.071327 0.795590
vt 0.061615 0.795590
vt 0.061718 0.795590
vt 0.071224 0.795590
vt 0.071122 0.795590
vt 0.061820 0.795590
vt 0.071020 0.795590
vt 0.061922 0.795590
vt 0.070918 0.795590
vt 0.062024 0.795590
vt 0.070815 0.795590
vt 0.062127 0.795590
vt 0.070713 0.795590
vt 0.062229 0.795590
vt 0.062331 0.795590
vt 0.070611 0.795590
vt 0.070100 0.795590
vt 0.062433 0.795590
vt 0.070509 0.795590
vt 0.070407 0.795590
vt 0.070304 0.795590
vt 0.070202 0.795590
vt 0.069998 0.795590
vt 0.069895 0.795590
vt 0.068669 0.795590
vt 0.068873 0.795590
vt 0.068771 0.795590
vt 0.068975 0.795590
vt 0.069078 0.795590
vt 0.069180 0.795590
vt 0.069282 0.795590
vt 0.069384 0.795590
vt 0.068567 0.795590
vt 0.069487 0.795590
vt 0.069589 0.795590
vt 0.069691 0.795590
vt 0.069793 0.795590
vt 0.068464 0.795590
vt 0.068362 0.795590
vt 0.068260 0.795590
vt 0.062535 0.795590
vt 0.068158 0.795590
vt 0.062638 0.795590
vt 0.062740 0.795590
vt 0.068055 0.795590
vt 0.062842 0.795590
vt 0.067953 0.795590
vt 0.062944 0.795590
vt 0.067851 0.795590
vt 0.046282 0.795590
vt 0.051189 0.795590
vt 0.051086 0.795590
vt 0.050984 0.795590
vt 0.063047 0.795590
vt 0.050882 0.795590
vt 0.050780 0.795590
vt 0.046384 0.795590
vt 0.050678 0.795590
vt 0.050575 0.795590
vt 0.050473 0.795590
vt 0.046486 0.795590
vt 0.050371 0.795590
vt 0.050269 0.795590
vt 0.050166 0.795590
vt 0.046589 0.795590
vt 0.050064 0.795590
vt 0.049962 0.795590
vt 0.049860 0.795590
vt 0.064989 0.795590
vt 0.067749 0.795590
vt 0.046691 0.795590
vt 0.063149 0.795590
vt 0.046793 0.795590
vt 0.046895 0.795590
vt 0.063251 0.795590
vt 0.046998 0.795590
vt 0.067647 0.795590
vt 0.065091 0.795590
vt 0.064887 0.795590
vt 0.047100 0.795590
vt 0.063353 0.795590
vt 0.064784 0.795590
vt 0.047202 0.795590
vt 0.064682 0.795590
vt 0.067544 0.795590
vt 0.047304 0.795590
vt 0.063455 0.795590
vt 0.064580 0.795590
vt 0.047406 0.795590
vt 0.049758 0.795590
vt 0.063558 0.795590
vt 0.047509 0.795590
vt 0.064478 0.795590
vt 0.067442 0.795590
vt 0.049655 0.795590
vt 0.063660 0.795590
vt 0.047611 0.795590
vt 0.065193 0.795590
vt 0.064375 0.795590
vt 0.047713 0.795590
vt 0.049553 0.795590
vt 0.064273 0.795590
vt 0.064171 0.795590
vt 0.064069 0.795590
vt 0.063967 0.795590
vt 0.063864 0.795590
vt 0.063762 0.795590
vt 0.047815 0.795590
vt 0.067340 0.795590
vt 0.065295 0.795590
vt 0.049451 0.795590
vt 0.047918 0.795590
vt 0.049349 0.795590
vt 0.048020 0.795590
vt 0.065398 0.795590
vt 0.049246 0.795590
vt 0.048122 0.795590
vt 0.067238 0.795590
vt 0.049144 0.795590
vt 0.048224 0.795590
vt 0.049042 0.795590
vt 0.048326 0.795590
vt 0.048940 0.795590
vt 0.048429 0.795590
vt 0.065500 0.795590
vt 0.048838 0.795590
vt 0.048531 0.795590
vt 0.048735 0.795590
vt 0.048633 0.795590
vt 0.067135 0.795590
vt 0.065602 0.795590
vt 0.067033 0.795590
vt 0.065704 0.795590
vt 0.066931 0.795590
vt 0.065807 0.795590
vt 0.066829 0.795590
vt 0.065909 0.795590
vt 0.066727 0.795590
vt 0.066011 0.795590
vt 0.066624 0.795590
vt 0.066113 0.795590
vt 0.066522 0.795590
vt 0.066215 0.795590
vt 0.066420 0.795590
vt 0.066318 0.795590
vt 0.046822 0.822066
vt 0.046282 0.822066
vt 0.047363 0.822066
vt 0.046822 0.795590
vt 0.047903 0.822066
vt 0.047363 0.795590
vt 0.048443 0.822066
vt 0.047903 0.795590
vt 0.048984 0.822066
vt 0.048443 0.795590
vt 0.049524 0.822066
vt 0.048984 0.795590
vt 0.050064 0.822066
vt 0.049524 0.795590
vt 0.050605 0.822066
vt 0.051145 0.822066
vt 0.050605 0.795590
vt 0.051685 0.822066
vt 0.051145 0.795590
vt 0.052226 0.822066
vt 0.051685 0.795590
vt 0.052766 0.822066
vt 0.052226 0.795590
vt 0.053306 0.822066
vt 0.052766 0.795590
vt 0.053847 0.822066
vt 0.053306 0.795590
vt 0.054387 0.822066
vt 0.054927 0.822066
vt 0.054387 0.795590
vt 0.055467 0.822066
vt 0.054927 0.795590
vt 0.056008 0.822066
vt 0.055467 0.795590
vt 0.056548 0.822066
vt 0.056008 0.795590
vt 0.057088 0.822066
vt 0.056548 0.795590
vt 0.057629 0.822066
vt 0.057088 0.795590
vt 0.058169 0.822066
vt 0.058709 0.822066
vt 0.058169 0.795590
vt 0.059250 0.822066
vt 0.058709 0.795590
vt 0.059790 0.822066
vt 0.059250 0.795590
vt 0.060330 0.822066
vt 0.059790 0.795590
vt 0.060871 0.822066
vt 0.060330 0.795590
vt 0.061411 0.822066
vt 0.060871 0.795590
vt 0.061951 0.822066
vt 0.062492 0.822066
vt 0.061951 0.795590
vt 0.063032 0.822066
vt 0.062492 0.795590
vt 0.063572 0.822066
vt 0.063032 0.795590
vt 0.064113 0.822066
vt 0.063572 0.795590
vt 0.064653 0.822066
vt 0.064113 0.795590
vt 0.065193 0.822066
vt 0.064653 0.795590
vt 0.065734 0.822066
vt 0.066274 0.822066
vt 0.065734 0.795590
vt 0.066814 0.822066
vt 0.066274 0.795590
vt 0.067354 0.822066
vt 0.066814 0.795590
vt 0.067895 0.822066
vt 0.067354 0.795590
vt 0.068435 0.822066
vt 0.067895 0.795590
vt 0.068975 0.822066
vt 0.068435 0.795590
vt 0.069516 0.822066
vt 0.070056 0.822066
vt 0.069516 0.795590
vt 0.070596 0.822066
vt 0.070056 0.795590
vt 0.071137 0.822066
vt 0.070596 0.795590
vt 0.071677 0.822066
vt 0.071137 0.795590
vt 0.072217 0.822066
vt 0.071677 0.795590
vt 0.072758 0.822066
vt 0.072217 0.795590
vt 0.046407 0.822066
vt 0.046533 0.822066
vt 0.046407 0.795590
vt 0.046658 0.822066
vt 0.046533 0.795590
vt 0.046784 0.822066
vt 0.046658 0.795590
vt 0.046909 0.822066
vt 0.046784 0.795590
vt 0.047035 0.822066
vt 0.046909 0.795590
vt 0.047160 0.822066
vt 0.047035 0.795590
vt 0.047286 0.822066
vt 0.047160 0.795590
vt 0.047411 0.822066
vt 0.047286 0.795590
vt 0.047537 0.822066
vt 0.047411 0.795590
vt 0.047662 0.822066
vt 0.047537 0.795590
vt 0.047788 0.822066
vt 0.047662 0.795590
vt 0.047913 0.822066
vt 0.047788 0.795590
vt 0.048039 0.822066
vt 0.047913 0.795590
vt 0.048164 0.822066
vt 0.048039 0.795590
vt 0.048290 0.822066
vt 0.048164 0.795590
vt 0.048415 0.822066
vt 0.048290 0.795590
vt 0.048541 0.822066
vt 0.048415 0.795590
vt 0.048666 0.822066
vt 0.048541 0.795590
vt 0.048792 0.822066
vt 0.048666 0.795590
vt 0.048917 0.822066
vt 0.048792 0.795590
vt 0.049043 0.822066
vt 0.048917 0.795590
vt 0.049168 0.822066
vt 0.049043 0.795590
vt 0.049293 0.822066
vt 0.049168 0.795590
vt 0.049419 0.822066
vt 0.049293 0.795590
vt 0.049544 0.822066
vt 0.049419 0.795590
vt 0.049670 0.822066
vt 0.049544 0.795590
vt 0.049795 0.822066
vt 0.049670 0.795590
vt 0.049921 0.822066
vt 0.049795 0.795590
vt 0.050046 0.822066
vt 0.049921 0.795590
vt 0.050172 0.822066
vt 0.050046 0.795590
vt 0.050297 0.822066
vt 0.050172 0.795590
vt 0.050423 0.822066
vt 0.050297 0.795590
vt 0.050548 0.822066
vt 0.050423 0.795590
vt 0.050674 0.822066
vt 0.050548 0.795590
vt 0.050799 0.822066
vt 0.050674 0.795590
vt 0.050925 0.822066
vt 0.050799 0.795590
vt 0.051050 0.822066
vt 0.050925 0.795590
vt 0.051176 0.822066
vt 0.051050 0.795590
vt 0.051301 0.822066
vt 0.051176 0.795590
vt 0.051427 0.822066
vt 0.051301 0.795590
vt 0.051552 0.822066
vt 0.051427 0.795590
vt 0.051678 0.822066
vt 0.051552 0.795590
vt 0.051803 0.822066
vt 0.051678 0.795590
vt 0.051928 0.822066
vt 0.051803 0.795590
vt 0.052054 0.822066
vt 0.051928 0.795590
vt 0.052179 0.822066
vt 0.052054 0.795590
vt 0.052305 0.822066
vt 0.052179 0.795590
vt 0.052430 0.822066
vt 0.052305 0.795590
vt 0.052556 0.822066
vt 0.052430 0.795590
vt 0.052681 0.822066
vt 0.052556 0.795590
vt 0.052807 0.822066
vt 0.052681 0.795590
vt 0.052932 0.822066
vt 0.052807 0.795590
vt 0.053058 0.822066
vt 0.052932 0.795590
vt 0.053183 0.822066
vt 0.053058 0.795590
vt 0.053309 0.822066
vt 0.053183 0.795590
vt 0.053434 0.822066
vt 0.053309 0.795590
vt 0.053560 0.822066
vt 0.053434 0.795590
vt 0.053685 0.822066
vt 0.053560 0.795590
vt 0.053811 0.822066
vt 0.053685 0.795590
vt 0.053936 0.822066
vt 0.053811 0.795590
vt 0.054062 0.822066
vt 0.053936 0.795590
vt 0.054187 0.822066
vt 0.054062 0.795590
vt 0.054313 0.822066
vt 0.054187 0.795590
vt 0.054438 0.822066
vt 0.054313 0.795590
vt 0.054564 0.822066
vt 0.054438 0.795590
vt 0.054689 0.822066
vt 0.054564 0.795590
vt 0.054814 0.822066
vt 0.054689 0.795590
vt 0.054940 0.822066
vt 0.054814 0.795590
vt 0.055065 0.822066
vt 0.054940 0.795590
vt 0.055191 0.822066
vt 0.055065 0.795590
vt 0.055316 0.822066
vt 0.055191 0.795590
vt 0.055442 0.822066
vt 0.055316 0.795590
vt 0.055567 0.822066
vt 0.055442 0.795590
vt 0.055693 0.822066
vt 0.055567 0.795590
vt 0.055818 0.822066
vt 0.055693 0.795590
vt 0.055944 0.822066
vt 0.055818 0.795590
vt 0.056069 0.822066
vt 0.055944 0.795590
vt 0.056195 0.822066
vt 0.056069 0.795590
vt 0.056320 0.822066
vt 0.056195 0.795590
vt 0.056446 0.822066
vt 0.056320 0.795590
vt 0.056571 0.822066
vt 0.056446 0.795590
vt 0.056697 0.822066
vt 0.056571 0.795590
vt 0.056822 0.822066
vt 0.056697 0.795590
vt 0.056948 0.822066
vt 0.056822 0.795590
vt 0.057073 0.822066
vt 0.056948 0.795590
vt 0.057199 0.822066
vt 0.057073 0.795590
vt 0.057324 0.822066
vt 0.057199 0.795590
vt 0.057449 0.822066
vt 0.057324 0.795590
vt 0.057575 0.822066
vt 0.057449 0.795590
vt 0.057700 0.822066
vt 0.057575 0.795590
vt 0.057826 0.822066
vt 0.057700 0.795590
vt 0.057951 0.822066
vt 0.057826 0.795590
vt 0.058077 0.822066
vt 0.057951 0.795590
vt 0.058202 0.822066
vt 0.058077 0.795590
vt 0.058328 0.822066
vt 0.058202 0.795590
vt 0.058453 0.822066
vt 0.058328 0.795590
vt 0.058579 0.822066
vt 0.058453 0.795590
vt 0.058704 0.822066
vt 0.058579 0.795590
vt 0.058830 0.822066
vt 0.058704 0.795590
vt 0.058955 0.822066
vt 0.058830 0.795590
vt 0.059081 0.822066
vt 0.058955 0.795590
vt 0.059206 0.822066
vt 0.059081 0.795590
vt 0.059332 0.822066
vt 0.059206 0.795590
vt 0.059457 0.822066
vt 0.059332 0.795590
vt 0.059583 0.822066
vt 0.059457 0.795590
vt 0.059708 0.822066
vt 0.059583 0.795590
vt 0.059834 0.822066
vt 0.059708 0.795590
vt 0.059959 0.822066
vt 0.059834 0.795590
vt 0.060084 0.822066
vt 0.059959 0.795590
vt 0.060210 0.822066
vt 0.060084 0.795590
vt 0.060335 0.822066
vt 0.060210 0.795590
vt 0.060461 0.822066
vt 0.060335 0.795590
vt 0.060586 0.822066
vt 0.060461 0.795590
vt 0.060712 0.822066
vt 0.060586 0.795590
vt 0.060837 0.822066
vt 0.060712 0.795590
vt 0.060963 0.822066
vt 0.060837 0.795590
vt 0.061088 0.822066
vt 0.060963 0.795590
vt 0.061214 0.822066
vt 0.061088 0.795590
vt 0.061339 0.822066
vt 0.061214 0.795590
vt 0.061465 0.822066
vt 0.061339 0.795590
vt 0.061590 0.822066
vt 0.061465 0.795590
vt 0.061716 0.822066
vt 0.061590 0.795590
vt 0.061841 0.822066
vt 0.061716 0.795590
vt 0.061967 0.822066
vt 0.061841 0.795590
vt 0.062092 0.822066
vt 0.061967 0.795590
vt 0.062218 0.822066
vt 0.062092 0.795590
vt 0.062343 0.822066
vt 0.062218 0.795590
vt 0.062469 0.822066
vt 0.062343 0.795590
vt 0.062594 0.822066
vt 0.062469 0.795590
vt 0.062719 0.822066
vt 0.062594 0.795590
vt 0.062845 0.822066
vt 0.062719 0.795590
vt 0.062970 0.822066
vt 0.062845 0.795590
vt 0.063096 0.822066
vt 0.062970 0.795590
vt 0.063221 0.822066
vt 0.063096 0.795590
vt 0.063347 0.822066
vt 0.063221 0.795590
vt 0.063472 0.822066
vt 0.063347 0.795590
vt 0.063598 0.822066
vt 0.063472 0.795590
vt 0.063723 0.822066
vt 0.063598 0.795590
vt 0.063849 0.822066
vt 0.063723 0.795590
vt 0.063974 0.822066
vt 0.063849 0.795590
vt 0.064100 0.822066
vt 0.063974 0.795590
vt 0.064225 0.822066
vt 0.064100 0.795590
vt 0.064351 0.822066
vt 0.064225 0.795590
vt 0.064476 0.822066
vt 0.064351 0.795590
vt 0.064602 0.822066
vt 0.064476 0.795590
vt 0.064727 0.822066
vt 0.064602 0.795590
vt 0.064853 0.822066
vt 0.064727 0.795590
vt 0.064978 0.822066
vt 0.064853 0.795590
vt 0.065104 0.822066
vt 0.064978 0.795590
vt 0.065229 0.822066
vt 0.065104 0.795590
vt 0.065355 0.822066
vt 0.065229 0.795590
vt 0.065480 0.822066
vt 0.065355 0.795590
vt 0.065605 0.822066
vt 0.065480 0.795590
vt 0.065731 0.822066
vt 0.065605 0.795590
vt 0.065856 0.822066
vt 0.065731 0.795590
vt 0.065982 0.822066
vt 0.065856 0.795590
vt 0.066107 0.822066
vt 0.065982 0.795590
vt 0.066233 0.822066
vt 0.066107 0.795590
vt 0.066358 0.822066
vt 0.066233 0.795590
vt 0.066484 0.822066
vt 0.066358 0.795590
vt 0.066609 0.822066
vt 0.066484 0.795590
vt 0.066735 0.822066
vt 0.066609 0.795590
vt 0.066860 0.822066
vt 0.066735 0.795590
vt 0.066986 0.822066
vt 0.066860 0.795590
vt 0.067111 0.822066
vt 0.066986 0.795590
vt 0.067237 0.822066
vt 0.067111 0.795590
vt 0.067362 0.822066
vt 0.067237 0.795590
vt 0.067488 0.822066
vt 0.067362 0.795590
vt 0.067613 0.822066
vt 0.067488 0.795590
vt 0.067739 0.822066
vt 0.067613 0.795590
vt 0.067864 0.822066
vt 0.067739 0.795590
vt 0.067990 0.822066
vt 0.067864 0.795590
vt 0.068115 0.822066
vt 0.067990 0.795590
vt 0.068240 0.822066
vt 0.068115 0.795590
vt 0.068366 0.822066
vt 0.068240 0.795590
vt 0.068491 0.822066
vt 0.068366 0.795590
vt 0.068617 0.822066
vt 0.068491 0.795590
vt 0.068742 0.822066
vt 0.068617 0.795590
vt 0.068868 0.822066
vt 0.068742 0.795590
vt 0.068993 0.822066
vt 0.068868 0.795590
vt 0.069119 0.822066
vt 0.068993 0.795590
vt 0.069244 0.822066
vt 0.069119 0.795590
vt 0.069370 0.822066
vt 0.069244 0.795590
vt 0.069495 0.822066
vt 0.069370 0.795590
vt 0.069621 0.822066
vt 0.069495 0.795590
vt 0.069746 0.822066
vt 0.069621 0.795590
vt 0.069872 0.822066
vt 0.069746 0.795590
vt 0.069997 0.822066
vt 0.069872 0.795590
vt 0.070123 0.822066
vt 0.069997 0.795590
vt 0.070248 0.822066
vt 0.070123 0.795590
vt 0.070374 0.822066
vt 0.070248 0.795590
vt 0.070499 0.822066
vt 0.070374 0.795590
vt 0.070625 0.822066
vt 0.070499 0.795590
vt 0.070750 0.822066
vt 0.070625 0.795590
vt 0.070876 0.822066
vt 0.070750 0.795590
vt 0.071001 0.822066
vt 0.070876 0.795590
vt 0.071126 0.822066
vt 0.071001 0.795590
vt 0.071252 0.822066
vt 0.071126 0.795590
vt 0.071377 0.822066
vt 0.071252 0.795590
vt 0.071503 0.822066
vt 0.071377 0.795590
vt 0.071628 0.822066
vt 0.071503 0.795590
vt 0.071754 0.822066
vt 0.071628 0.795590
vt 0.071879 0.822066
vt 0.071754 0.795590
vt 0.072005 0.822066
vt 0.071879 0.795590
vt 0.072130 0.822066
vt 0.072005 0.795590
vt 0.072256 0.822066
vt 0.072130 0.795590
vt 0.072381 0.822066
vt 0.072256 0.795590
vt 0.072507 0.822066
vt 0.072381 0.795590
vt 0.072632 0.822066
vt 0.072507 0.795590
vt 0.072632 0.795590
s 0
usemtl Material
f 91/1/1 93/2/1 92/3/1
f 91/1/1 94/4/1 93/2/1
f 90/5/1 94/4/1 91/1/1
f 90/5/1 95/6/1 94/4/1
f 89/7/1 95/6/1 90/5/1
f 89/7/1 96/8/1 95/6/1
f 88/9/1 96/8/1 89/7/1
f 88/9/1 97/10/1 96/8/1
f 87/11/1 97/10/1 88/9/1
f 87/11/1 98/12/1 97/10/1
f 86/13/1 98/12/1 87/11/1
f 86/13/1 99/14/1 98/12/1
f 85/15/1 99/14/1 86/13/1
f 85/15/1 100/16/1 99/14/1
f 84/17/1 100/16/1 85/15/1
f 84/17/1 101/18/1 100/16/1
f 83/19/1 101/18/1 84/17/1
f 83/19/1 102/20/1 101/18/1
f 82/21/1 102/20/1 83/19/1
f 82/21/1 103/22/1 102/20/1
f 81/23/1 103/22/1 82/21/1
f 81/23/1 104/24/1 103/22/1
f 80/25/1 104/24/1 81/23/1
f 79/26/1 104/24/1 80/25/1
f 79/26/1 105/27/1 104/24/1
f 79/26/1 106/28/1 105/27/1
f 117/29/1 119/30/1 118/31/1
f 116/32/1 119/30/1 117/29/1
f 65/33/1 67/34/1 66/35/1
f 115/36/1 119/30/1 116/32/1
f 114/37/1 119/30/1 115/36/1
f 65/33/1 68/38/1 67/34/1
f 113/39/1 119/30/1 114/37/1
f 65/33/1 69/40/1 68/38/1
f 112/41/1 119/30/1 113/39/1
f 65/33/1 70/42/1 69/40/1
f 111/43/1 119/30/1 112/41/1
f 65/33/1 71/44/1 70/42/1
f 110/45/1 119/30/1 111/43/1
f 109/46/1 119/30/1 110/45/1
f 65/33/1 72/47/1 71/44/1
f 108/48/1 119/30/1 109/46/1
f 65/33/1 73/49/1 72/47/1
f 107/50/1 119/30/1 108/48/1
f 65/33/1 74/51/1 73/49/1
f 106/28/1 119/30/1 107/50/1
f 79/26/1 119/30/1 106/28/1
f 65/33/1 75/52/1 74/51/1
f 65/33/1 76/53/1 75/52/1
f 65/33/1 77/54/1 76/53/1
f 65/33/1 78/55/1 77/54/1
f 65/33/1 79/26/1 78/55/1
f 65/33/1 119/30/1 79/26/1
f 65/33/1 120/56/1 119/30/1
f 65/33/1 121/57/1 120/56/1
f 65/33/1 122/58/1 121/57/1
f 65/33/1 123/59/1 122/58/1
f 64/60/1 123/59/1 65/33/1
f 64/60/1 124/61/1 123/59/1
f 63/62/1 124/61/1 64/60/1
f 63/62/1 125/63/1 124/61/1
f 62/64/1 125/63/1 63/62/1
f 62/64/1 126/65/1 125/63/1
f 61/66/1 126/65/1 62/64/1
f 61/66/1 127/67/1 126/65/1
f 60/68/1 127/67/1 61/66/1
f 60/68/1 128/69/1 127/67/1
f 59/70/1 128/69/1 60/68/1
f 59/70/1 129/71/1 128/69/1
f 58/72/1 129/71/1 59/70/1
f 58/72/1 130/73/1 129/71/1
f 58/72/1 131/74/1 130/73/1
f 57/75/1 131/74/1 58/72/1
f 57/75/1 52/76/1 131/74/1
f 52/76/1 132/77/1 131/74/1
f 56/78/1 52/76/1 57/75/1
f 55/79/1 52/76/1 56/78/1
f 54/80/1 52/76/1 55/79/1
f 53/81/1 52/76/1 54/80/1
f 51/82/1 132/77/1 52/76/1
f 144/83/1 146/84/1 145/85/1
f 143/86/1 146/84/1 144/83/1
f 142/87/1 146/84/1 143/86/1
f 247/88/1 249/89/1 248/90/1
f 141/91/1 146/84/1 142/87/1
f 140/92/1 146/84/1 141/91/1
f 247/88/1 250/93/1 249/89/1
f 139/94/1 146/84/1 140/92/1
f 247/88/1 251/95/1 250/93/1
f 138/96/1 146/84/1 139/94/1
f 247/88/1 252/97/1 251/95/1
f 137/98/1 146/84/1 138/96/1
f 247/88/1 253/99/1 252/97/1
f 136/100/1 146/84/1 137/98/1
f 135/101/1 146/84/1 136/100/1
f 247/88/1 254/102/1 253/99/1
f 134/103/1 146/84/1 135/101/1
f 50/104/1 132/77/1 51/82/1
f 50/104/1 133/105/1 132/77/1
f 247/88/1 255/106/1 254/102/1
f 133/105/1 146/84/1 134/103/1
f 247/88/1 256/107/1 255/106/1
f 50/104/1 146/84/1 133/105/1
f 247/88/1 257/108/1 256/107/1
f 247/88/1 258/109/1 257/108/1
f 247/88/1 259/110/1 258/109/1
f 247/88/1 260/111/1 259/110/1
f 247/88/1 50/104/1 260/111/1
f 247/88/1 146/84/1 50/104/1
f 247/88/1 147/112/1 146/84/1
f 247/88/1 148/113/1 147/112/1
f 247/88/1 149/114/1 148/113/1
f 247/88/1 150/115/1 149/114/1
f 246/116/1 150/115/1 247/88/1
f 246/116/1 151/117/1 150/115/1
f 246/116/1 152/118/1 151/117/1
f 245/119/1 152/118/1 246/116/1
f 244/120/1 152/118/1 245/119/1
f 244/120/1 153/121/1 152/118/1
f 243/122/1 153/121/1 244/120/1
f 243/122/1 154/123/1 153/121/1
f 242/124/1 154/123/1 243/122/1
f 242/124/1 155/125/1 154/123/1
f 241/126/1 155/125/1 242/124/1
f 241/126/1 156/127/1 155/125/1
f 240/128/1 156/127/1 241/126/1
f 240/128/1 157/129/1 156/127/1
f 240/128/1 158/130/1 157/129/1
f 239/131/1 158/130/1 240/128/1
f 239/131/1 234/132/1 158/130/1
f 234/132/1 159/133/1 158/130/1
f 238/134/1 234/132/1 239/131/1
f 237/135/1 234/132/1 238/134/1
f 236/136/1 234/132/1 237/135/1
f 235/137/1 234/132/1 236/136/1
f 233/138/1 232/139/1 234/132/1
f 232/139/1 159/133/1 234/132/1
f 220/140/1 222/141/1 221/142/1
f 220/140/1 223/143/1 222/141/1
f 220/140/1 224/144/1 223/143/1
f 220/140/1 225/145/1 224/144/1
f 220/140/1 226/146/1 225/145/1
f 220/140/1 227/147/1 226/146/1
f 219/148/1 227/147/1 220/140/1
f 219/148/1 228/149/1 227/147/1
f 219/148/1 229/150/1 228/149/1
f 219/148/1 230/151/1 229/150/1
f 219/148/1 231/152/1 230/151/1
f 219/148/1 232/139/1 231/152/1
f 218/153/1 232/139/1 219/148/1
f 218/153/1 159/133/1 232/139/1
f 217/154/1 159/133/1 218/153/1
f 216/155/1 159/133/1 217/154/1
f 216/155/1 160/156/1 159/133/1
f 215/157/1 160/156/1 216/155/1
f 215/157/1 161/158/1 160/156/1
f 215/157/1 162/159/1 161/158/1
f 214/160/1 162/159/1 215/157/1
f 214/160/1 163/161/1 162/159/1
f 213/162/1 163/161/1 214/160/1
f 213/162/1 164/163/1 163/161/1
f 212/164/1 1/165/1 213/162/1
f 1/165/1 49/166/1 213/162/1
f 49/166/1 164/163/1 213/162/1
f 49/166/1 48/167/1 164/163/1
f 48/167/1 47/168/1 164/163/1
f 47/168/1 165/169/1 164/163/1
f 46/170/1 165/169/1 47/168/1
f 45/171/1 165/169/1 46/170/1
f 212/164/1 2/172/1 1/165/1
f 44/173/1 165/169/1 45/171/1
f 43/174/1 165/169/1 44/173/1
f 42/175/1 165/169/1 43/174/1
f 212/164/1 3/176/1 2/172/1
f 41/177/1 165/169/1 42/175/1
f 40/178/1 165/169/1 41/177/1
f 39/179/1 165/169/1 40/178/1
f 212/164/1 4/180/1 3/176/1
f 38/181/1 37/182/1 39/179/1
f 37/182/1 165/169/1 39/179/1
f 36/183/1 184/184/1 37/182/1
f 184/184/1 165/169/1 37/182/1
f 211/185/1 4/180/1 212/164/1
f 211/185/1 5/186/1 4/180/1
f 184/184/1 166/187/1 165/169/1
f 211/185/1 6/188/1 5/186/1
f 211/185/1 7/189/1 6/188/1
f 184/184/1 167/190/1 166/187/1
f 211/185/1 8/191/1 7/189/1
f 210/192/1 8/191/1 211/185/1
f 36/183/1 185/193/1 184/184/1
f 183/194/1 167/190/1 184/184/1
f 210/192/1 9/195/1 8/191/1
f 183/194/1 168/196/1 167/190/1
f 182/197/1 168/196/1 183/194/1
f 210/192/1 10/198/1 9/195/1
f 181/199/1 168/196/1 182/197/1
f 209/200/1 10/198/1 210/192/1
f 209/200/1 11/201/1 10/198/1
f 181/199/1 169/202/1 168/196/1
f 180/203/1 169/202/1 181/199/1
f 209/200/1 12/204/1 11/201/1
f 35/205/1 185/193/1 36/183/1
f 180/203/1 170/206/1 169/202/1
f 209/200/1 13/207/1 12/204/1
f 179/208/1 170/206/1 180/203/1
f 208/209/1 13/207/1 209/200/1
f 34/210/1 185/193/1 35/205/1
f 179/208/1 171/211/1 170/206/1
f 208/209/1 14/212/1 13/207/1
f 34/210/1 186/213/1 185/193/1
f 178/214/1 171/211/1 179/208/1
f 208/209/1 15/215/1 14/212/1
f 33/216/1 186/213/1 34/210/1
f 177/217/1 171/211/1 178/214/1
f 177/217/1 176/218/1 171/211/1
f 176/218/1 175/219/1 171/211/1
f 175/219/1 174/220/1 171/211/1
f 174/220/1 173/221/1 171/211/1
f 173/221/1 172/222/1 171/211/1
f 208/209/1 16/223/1 15/215/1
f 207/224/1 16/223/1 208/209/1
f 33/216/1 187/225/1 186/213/1
f 32/226/1 187/225/1 33/216/1
f 207/224/1 17/227/1 16/223/1
f 31/228/1 187/225/1 32/226/1
f 207/224/1 18/229/1 17/227/1
f 31/228/1 188/230/1 187/225/1
f 30/231/1 188/230/1 31/228/1
f 207/224/1 19/232/1 18/229/1
f 206/233/1 19/232/1 207/224/1
f 29/234/1 188/230/1 30/231/1
f 206/233/1 20/235/1 19/232/1
f 28/236/1 188/230/1 29/234/1
f 206/233/1 21/237/1 20/235/1
f 27/238/1 188/230/1 28/236/1
f 206/233/1 22/239/1 21/237/1
f 27/238/1 189/240/1 188/230/1
f 26/241/1 189/240/1 27/238/1
f 206/233/1 23/242/1 22/239/1
f 25/243/1 189/240/1 26/241/1
f 206/233/1 24/244/1 23/242/1
f 24/244/1 189/240/1 25/243/1
f 206/233/1 189/240/1 24/244/1
f 205/245/1 189/240/1 206/233/1
f 205/245/1 190/246/1 189/240/1
f 204/247/1 190/246/1 205/245/1
f 204/247/1 191/248/1 190/246/1
f 203/249/1 191/248/1 204/247/1
f 203/249/1 192/250/1 191/248/1
f 202/251/1 192/250/1 203/249/1
f 202/251/1 193/252/1 192/250/1
f 201/253/1 193/252/1 202/251/1
f 201/253/1 194/254/1 193/252/1
f 200/255/1 194/254/1 201/253/1
f 200/255/1 195/256/1 194/254/1
f 199/257/1 195/256/1 200/255/1
f 199/257/1 196/258/1 195/256/1
f 198/259/1 196/258/1 199/257/1
f 198/259/1 197/260/1 196/258/1
f 351/1/2 352/3/2 353/2/2
f 351/1/2 353/2/2 354/4/2
f 350/5/2 351/1/2 354/4/2
f 350/5/2 354/4/2 355/6/2
f 349/7/2 350/5/2 355/6/2
f 349/7/2 355/6/2 356/8/2
f 348/9/2 349/7/2 356/8/2
f 348/9/2 356/8/2 357/10/2
f 347/11/2 348/9/2 357/10/2
f 347/11/2 357/10/2 358/12/2
f 346/13/2 347/11/2 358/12/2
f 346/13/2 358/12/2 359/14/2
f 345/15/2 346/13/2 359/14/2
f 345/15/2 359/14/2 360/16/2
f 344/17/2 345/15/2 360/16/2
f 344/17/2 360/16/2 361/18/2
f 343/19/2 344/17/2 361/18/2
f 343/19/2 361/18/2 362/20/2
f 342/21/2 343/19/2 362/20/2
f 342/21/2 362/20/2 363/22/2
f 341/23/2 342/21/2 363/22/2
f 341/23/2 363/22/2 364/24/2
f 340/25/2 341/23/2 364/24/2
f 339/26/2 340/25/2 364/24/2
f 339/26/2 364/24/2 365/27/2
f 339/26/2 365/27/2 366/28/2
f 377/29/2 378/31/2 379/30/2
f 376/32/2 377/29/2 379/30/2
f 325/33/2 326/35/2 327/34/2
f 375/36/2 376/32/2 379/30/2
f 374/37/2 375/36/2 379/30/2
f 325/33/2 327/34/2 328/38/2
f 373/39/2 374/37/2 379/30/2
f 325/33/2 328/38/2 329/40/2
f 372/41/2 373/39/2 379/30/2
f 325/33/2 329/40/2 330/42/2
f 371/43/2 372/41/2 379/30/2
f 325/33/2 330/42/2 331/44/2
f 370/45/2 371/43/2 379/30/2
f 369/46/2 370/45/2 379/30/2
f 325/33/2 331/44/2 332/47/2
f 368/48/2 369/46/2 379/30/2
f 325/33/2 332/47/2 333/49/2
f 367/50/2 368/48/2 379/30/2
f 325/33/2 333/49/2 334/51/2
f 366/28/2 367/50/2 379/30/2
f 339/26/2 366/28/2 379/30/2
f 325/33/2 334/51/2 335/52/2
f 325/33/2 335/52/2 336/53/2
f 325/33/2 336/53/2 337/54/2
f 325/33/2 337/54/2 338/55/2
f 325/33/2 338/55/2 339/26/2
f 325/33/2 339/26/2 379/30/2
f 325/33/2 379/30/2 380/56/2
f 325/33/2 380/56/2 381/57/2
f 325/33/2 381/57/2 382/58/2
f 325/33/2 382/58/2 383/59/2
f 324/60/2 325/33/2 383/59/2
f 324/60/2 383/59/2 384/61/2
f 323/62/2 324/60/2 384/61/2
f 323/62/2 384/61/2 385/63/2
f 322/64/2 323/62/2 385/63/2
f 322/64/2 385/63/2 386/65/2
f 321/66/2 322/64/2 386/65/2
f 321/66/2 386/65/2 387/67/2
f 320/68/2 321/66/2 387/67/2
f 320/68/2 387/67/2 388/69/2
f 319/70/2 320/68/2 388/69/2
f 319/70/2 388/69/2 389/71/2
f 318/72/2 319/70/2 389/71/2
f 318/72/2 389/71/2 390/73/2
f 318/72/2 390/73/2 391/74/2
f 317/75/2 318/72/2 391/74/2
f 317/75/2 391/74/2 312/76/2
f 312/76/2 391/74/2 392/77/2
f 316/78/2 317/75/2 312/76/2
f 315/79/2 316/78/2 312/76/2
f 314/80/2 315/79/2 312/76/2
f 313/81/2 314/80/2 312/76/2
f 311/82/2 312/76/2 392/77/2
f 404/83/2 405/85/2 406/84/2
f 403/86/2 404/83/2 406/84/2
f 402/87/2 403/86/2 406/84/2
f 507/88/2 508/90/2 509/89/2
f 401/91/2 402/87/2 406/84/2
f 400/92/2 401/91/2 406/84/2
f 507/88/2 509/89/2 510/93/2
f 399/94/2 400/92/2 406/84/2
f 507/88/2 510/93/2 511/95/2
f 398/96/2 399/94/2 406/84/2
f 507/88/2 511/95/2 512/97/2
f 397/98/2 398/96/2 406/84/2
f 507/88/2 512/97/2 513/99/2
f 396/100/2 397/98/2 406/84/2
f 395/101/2 396/100/2 406/84/2
f 507/88/2 513/99/2 514/102/2
f 394/103/2 395/101/2 406/84/2
f 310/104/2 311/82/2 392/77/2
f 310/104/2 392/77/2 393/105/2
f 507/88/2 514/102/2 515/106/2
f 393/105/2 394/103/2 406/84/2
f 507/88/2 515/106/2 516/107/2
f 310/104/2 393/105/2 406/84/2
f 507/88/2 516/107/2 517/108/2
f 507/88/2 517/108/2 518/109/2
f 507/88/2 518/109/2 519/110/2
f 507/88/2 519/110/2 520/111/2
f 507/88/2 520/111/2 310/104/2
f 507/88/2 310/104/2 406/84/2
f 507/88/2 406/84/2 407/112/2
f 507/88/2 407/112/2 408/113/2
f 507/88/2 408/113/2 409/114/2
f 507/88/2 409/114/2 410/115/2
f 506/116/2 507/88/2 410/115/2
f 506/116/2 410/115/2 411/117/2
f 506/116/2 411/117/2 412/118/2
f 505/119/2 506/116/2 412/118/2
f 504/120/2 505/119/2 412/118/2
f 504/120/2 412/118/2 413/121/2
f 503/122/2 504/120/2 413/121/2
f 503/122/2 413/121/2 414/123/2
f 502/124/2 503/122/2 414/123/2
f 502/124/2 414/123/2 415/125/2
f 501/126/2 502/124/2 415/125/2
f 501/126/2 415/125/2 416/127/2
f 500/128/2 501/126/2 416/127/2
f 500/128/2 416/127/2 417/129/2
f 500/128/2 417/129/2 418/130/2
f 499/131/2 500/128/2 418/130/2
f 499/131/2 418/130/2 494/132/2
f 494/132/2 418/130/2 419/133/2
f 498/134/2 499/131/2 494/132/2
f 497/135/2 498/134/2 494/132/2
f 496/136/2 497/135/2 494/132/2
f 495/137/2 496/136/2 494/132/2
f 493/138/2 494/132/2 492/139/2
f 492/139/2 494/132/2 419/133/2
f 480/140/2 481/142/2 482/141/2
f 480/140/2 482/141/2 483/143/2
f 480/140/2 483/143/2 484/144/2
f 480/140/2 484/144/2 485/145/2
f 480/140/2 485/145/2 486/146/2
f 480/140/2 486/146/2 487/147/2
f 479/148/2 480/140/2 487/147/2
f 479/148/2 487/147/2 488/149/2
f 479/148/2 488/149/2 489/150/2
f 479/148/2 489/150/2 490/151/2
f 479/148/2 490/151/2 491/152/2
f 479/148/2 491/152/2 492/139/2
f 478/153/2 479/148/2 492/139/2
f 478/153/2 492/139/2 419/133/2
f 477/154/2 478/153/2 419/133/2
f 476/155/2 477/154/2 419/133/2
f 476/155/2 419/133/2 420/156/2
f 475/157/2 476/155/2 420/156/2
f 475/157/2 420/156/2 421/158/2
f 475/157/2 421/158/2 422/159/2
f 474/160/2 475/157/2 422/159/2
f 474/160/2 422/159/2 423/161/2
f 473/162/2 474/160/2 423/161/2
f 473/162/2 423/161/2 424/163/2
f 472/164/2 473/162/2 261/165/2
f 261/165/2 473/162/2 309/166/2
f 309/166/2 473/162/2 424/163/2
f 309/166/2 424/163/2 308/167/2
f 308/167/2 424/163/2 307/168/2
f 307/168/2 424/163/2 425/169/2
f 306/170/2 307/168/2 425/169/2
f 305/171/2 306/170/2 425/169/2
f 472/164/2 261/165/2 262/172/2
f 304/173/2 305/171/2 425/169/2
f 303/174/2 304/173/2 425/169/2
f 302/175/2 303/174/2 425/169/2
f 472/164/2 262/172/2 263/176/2
f 301/177/2 302/175/2 425/169/2
f 300/178/2 301/177/2 425/169/2
f 299/179/2 300/178/2 425/169/2
f 472/164/2 263/176/2 264/180/2
f 298/181/2 299/179/2 297/182/2
f 297/182/2 299/179/2 425/169/2
f 296/183/2 297/182/2 444/184/2
f 444/184/2 297/182/2 425/169/2
f 471/185/2 472/164/2 264/180/2
f 471/185/2 264/180/2 265/186/2
f 444/184/2 425/169/2 426/187/2
f 471/185/2 265/186/2 266/188/2
f 471/185/2 266/188/2 267/189/2
f 444/184/2 426/187/2 427/190/2
f 471/185/2 267/189/2 268/191/2
f 470/192/2 471/185/2 268/191/2
f 296/183/2 444/184/2 445/193/2
f 443/194/2 444/184/2 427/190/2
f 470/192/2 268/191/2 269/195/2
f 443/194/2 427/190/2 428/196/2
f 442/197/2 443/194/2 428/196/2
f 470/192/2 269/195/2 270/198/2
f 441/199/2 442/197/2 428/196/2
f 469/200/2 470/192/2 270/198/2
f 469/200/2 270/198/2 271/201/2
f 441/199/2 428/196/2 429/202/2
f 440/203/2 441/199/2 429/202/2
f 469/200/2 271/201/2 272/204/2
f 295/205/2 296/183/2 445/193/2
f 440/203/2 429/202/2 430/206/2
f 469/200/2 272/204/2 273/207/2
f 439/208/2 440/203/2 430/206/2
f 468/209/2 469/200/2 273/207/2
f 294/210/2 295/205/2 445/193/2
f 439/208/2 430/206/2 431/211/2
f 468/209/2 273/207/2 274/212/2
f 294/210/2 445/193/2 446/213/2
f 438/214/2 439/208/2 431/211/2
f 468/209/2 274/212/2 275/215/2
f 293/216/2 294/210/2 446/213/2
f 437/217/2 438/214/2 431/211/2
f 437/217/2 431/211/2 436/218/2
f 436/218/2 431/211/2 435/219/2
f 435/219/2 431/211/2 434/220/2
f 434/220/2 431/211/2 433/221/2
f 433/221/2 431/211/2 432/222/2
f 468/209/2 275/215/2 276/223/2
f 467/224/2 468/209/2 276/223/2
f 293/216/2 446/213/2 447/225/2
f 292/226/2 293/216/2 447/225/2
f 467/224/2 276/223/2 277/227/2
f 291/228/2 292/226/2 447/225/2
f 467/224/2 277/227/2 278/229/2
f 291/228/2 447/225/2 448/230/2
f 290/231/2 291/228/2 448/230/2
f 467/224/2 278/229/2 279/232/2
f 466/233/2 467/224/2 279/232/2
f 289/234/2 290/231/2 448/230/2
f 466/233/2 279/232/2 280/235/2
f 288/236/2 289/234/2 448/230/2
f 466/233/2 280/235/2 281/237/2
f 287/238/2 288/236/2 448/230/2
f 466/233/2 281/237/2 282/239/2
f 287/238/2 448/230/2 449/240/2
f 286/241/2 287/238/2 449/240/2
f 466/233/2 282/239/2 283/242/2
f 285/243/2 286/241/2 449/240/2
f 466/233/2 283/242/2 284/244/2
f 284/244/2 285/243/2 449/240/2
f 466/233/2 284/244/2 449/240/2
f 465/245/2 466/233/2 449/240/2
f 465/245/2 449/240/2 450/246/2
f 464/247/2 465/245/2 450/246/2
f 464/247/2 450/246/2 451/248/2
f 463/249/2 464/247/2 451/248/2
f 463/249/2 451/248/2 452/250/2
f 462/251/2 463/249/2 452/250/2
f 462/251/2 452/250/2 453/252/2
f 461/253/2 462/251/2 453/252/2
f 461/253/2 453/252/2 454/254/2
f 460/255/2 461/253/2 454/254/2
f 460/255/2 454/254/2 455/256/2
f 459/257/2 460/255/2 455/256/2
f 459/257/2 455/256/2 456/258/2
f 458/259/2 459/257/2 456/258/2
f 458/259/2 456/258/2 457/260/2
s 1
f 524/261/3 521/165/4 522/262/4
f 526/263/5 523/264/3 524/261/3
f 528/265/6 525/266/5 526/263/5
f 530/267/7 527/268/6 528/265/6
f 532/269/8 529/270/7 530/267/7
f 534/271/9 531/272/8 532/269/8
f 536/273/10 533/274/9 534/271/9
f 538/275/11 535/181/10 536/273/10
f 540/276/12 537/277/11 538/275/11
f 542/278/13 539/279/12 540/276/12
f 544/280/14 541/281/13 542/278/13
f 546/282/15 543/283/14 544/280/14
f 548/284/16 545/285/15 546/282/15
f 550/286/17 547/287/16 548/284/16
f 552/288/18 549/52/17 550/286/17
f 554/289/19 551/290/18 552/288/18
f 556/291/20 553/292/19 554/289/19
f 558/293/21 555/294/20 556/291/20
f 560/295/22 557/296/21 558/293/21
f 562/297/23 559/298/22 560/295/22
f 564/299/24 561/300/23 562/297/23
f 566/301/25 563/41/24 564/299/24
f 568/302/26 565/303/25 566/301/25
f 570/304/27 567/305/26 568/302/26
f 572/306/28 569/307/27 570/304/27
f 574/308/29 571/309/28 572/306/28
f 576/310/30 573/311/31 574/308/29
f 578/312/32 575/313/30 576/310/30
f 580/314/33 577/114/32 578/312/32
f 582/315/34 579/316/33 580/314/33
f 584/317/35 581/318/34 582/315/34
f 586/319/36 583/320/37 584/317/35
f 588/321/38 585/322/36 586/319/36
f 590/323/39 587/324/40 588/321/38
f 592/325/41 589/326/39 590/323/39
f 594/327/42 591/213/41 592/325/41
f 596/328/43 593/329/44 594/327/42
f 598/330/45 595/331/46 596/328/43
f 600/332/47 597/333/45 598/330/45
f 602/334/48 599/335/47 600/332/47
f 604/336/49 601/337/48 602/334/48
f 606/338/50 603/339/49 604/336/49
f 608/340/51 605/143/50 606/338/50
f 610/341/52 607/342/51 608/340/51
f 612/343/53 609/344/52 610/341/52
f 614/345/54 611/346/53 612/343/53
f 616/347/55 613/348/54 614/345/54
f 618/349/56 615/350/55 616/347/55
f 522/351/4 617/352/56 618/349/56
f 622/353/57 619/165/58 620/262/58
f 624/354/59 621/355/57 622/353/57
f 626/356/60 623/357/59 624/354/59
f 628/358/61 625/359/60 626/356/60
f 630/360/62 627/361/61 628/358/61
f 632/362/63 629/363/62 630/360/62
f 634/364/64 631/365/63 632/362/63
f 636/366/65 633/367/64 634/364/64
f 638/368/66 635/369/65 636/366/65
f 640/370/67 637/371/66 638/368/66
f 642/372/68 639/373/67 640/370/67
f 644/374/69 641/375/68 642/372/68
f 646/376/70 643/377/69 644/374/69
f 648/378/71 645/379/70 646/376/70
f 650/380/72 647/381/71 648/378/71
f 652/382/73 649/383/72 650/380/72
f 654/384/74 651/385/73 652/382/73
f 656/386/75 653/387/74 654/384/74
f 658/388/76 655/389/75 656/386/75
f 660/390/77 657/391/76 658/388/76
f 662/392/78 659/393/77 660/390/77
f 664/394/79 661/395/78 662/392/78
f 666/396/80 663/397/79 664/394/79
f 668/398/81 665/399/80 666/396/80
f 670/400/82 667/401/81 668/398/81
f 672/402/83 669/403/82 670/400/82
f 674/404/84 671/405/83 672/402/83
f 676/406/85 673/407/84 674/404/84
f 678/408/58 675/409/85 676/406/85
f 680/410/86 677/411/58 678/408/58
f 682/412/87 679/413/86 680/410/86
f 684/414/88 681/415/87 682/412/87
f 686/416/89 683/417/88 684/414/88
f 688/418/90 685/419/89 686/416/89
f 690/420/91 687/421/90 688/418/90
f 692/422/92 689/423/91 690/420/91
f 694/424/93 691/425/92 692/422/92
f 696/426/94 693/427/93 694/424/93
f 698/428/95 695/429/94 696/426/94
f 700/430/96 697/431/95 698/428/95
f 702/432/97 699/433/96 700/430/96
f 704/434/98 701/435/97 702/432/97
f 706/436/99 703/437/100 704/434/98
f 708/438/101 705/439/102 706/436/99
f 710/440/103 707/441/101 708/438/101
f 712/442/104 709/443/103 710/440/103
f 714/444/105 711/445/104 712/442/104
f 716/446/106 713/447/105 714/444/105
f 718/448/107 715/449/106 716/446/106
f 720/450/108 717/451/107 718/448/107
f 722/452/109 719/453/108 720/450/108
f 724/454/110 721/455/109 722/452/109
f 726/456/111 723/457/110 724/454/110
f 728/458/112 725/459/111 726/456/111
f 730/460/113 727/461/112 728/458/112
f 732/462/114 729/463/115 730/460/113
f 734/464/116 731/465/114 732/462/114
f 736/466/117 733/467/116 734/464/116
f 738/468/118 735/469/117 736/466/117
f 740/470/119 737/471/118 738/468/118
f 742/472/120 739/473/119 740/470/119
f 744/474/121 741/475/120 742/472/120
f 746/476/122 743/477/121 744/474/121
f 748/478/123 745/479/122 746/476/122
f 750/480/124 747/481/123 748/478/123
f 752/482/125 749/483/124 750/480/124
f 754/484/126 751/485/125 752/482/125
f 756/486/127 753/487/126 754/484/126
f 758/488/128 755/489/127 756/486/127
f 760/490/129 757/491/128 758/488/128
f 762/492/130 759/493/129 760/490/129
f 764/494/131 761/495/130 762/492/130
f 766/496/132 763/497/131 764/494/131
f 768/498/133 765/499/132 766/496/132
f 770/500/134 767/501/133 768/498/133
f 772/502/135 769/503/134 770/500/134
f 774/504/136 771/505/135 772/502/135
f 776/506/137 773/507/136 774/504/136
f 778/508/138 775/509/137 776/506/137
f 780/510/139 777/511/138 778/508/138
f 782/512/140 779/513/139 780/510/139
f 784/514/141 781/515/142 782/512/140
f 786/516/143 783/517/141 784/514/141
f 788/518/144 785/519/143 786/516/143
f 790/520/145 787/521/144 788/518/144
f 792/522/146 789/523/145 790/520/145
f 794/524/147 791/525/146 792/522/146
f 796/526/148 793/527/147 794/524/147
f 798/528/149 795/529/148 796/526/148
f 800/530/150 797/531/149 798/528/149
f 802/532/151 799/533/150 800/530/150
f 804/534/152 801/535/151 802/532/151
f 806/536/153 803/537/152 804/534/152
f 808/538/154 805/539/153 806/536/153
f 810/540/155 807/541/154 808/538/154
f 812/542/156 809/543/157 810/540/155
f 814/544/158 811/545/156 812/542/156
f 816/546/159 813/547/158 814/544/158
f 818/548/160 815/549/159 816/546/159
f 820/550/161 817/551/160 818/548/160
f 822/552/162 819/553/161 820/550/161
f 824/554/163 821/555/162 822/552/162
f 826/556/164 823/557/163 824/554/163
f 828/558/165 825/559/164 826/556/164
f 830/560/166 827/561/165 828/558/165
f 832/562/167 829/563/166 830/560/166
f 834/564/168 831/565/167 832/562/167
f 836/566/169 833/567/168 834/564/168
f 838/568/170 835/569/171 836/566/169
f 840/570/172 837/571/170 838/568/170
f 842/572/173 839/573/172 840/570/172
f 844/574/174 841/575/173 842/572/173
f 846/576/175 843/577/174 844/574/174
f 848/578/176 845/579/175 846/576/175
f 850/580/177 847/581/176 848/578/176
f 852/582/178 849/583/177 850/580/177
f 854/584/179 851/585/178 852/582/178
f 856/586/180 853/587/179 854/584/179
f 858/588/181 855/589/180 856/586/180
f 860/590/182 857/591/181 858/588/181
f 862/592/183 859/593/182 860/590/182
f 864/594/184 861/595/183 862/592/183
f 866/596/185 863/597/184 864/594/184
f 868/598/186 865/599/185 866/596/185
f 870/600/187 867/601/186 868/598/186
f 872/602/188 869/603/187 870/600/187
f 874/604/189 871/605/188 872/602/188
f 876/606/190 873/607/189 874/604/189
f 878/608/191 875/609/190 876/606/190
f 880/610/192 877/611/191 878/608/191
f 882/612/193 879/613/192 880/610/192
f 884/614/194 881/615/193 882/612/193
f 886/616/195 883/617/194 884/614/194
f 888/618/196 885/619/195 886/616/195
f 890/620/197 887/621/196 888/618/196
f 892/622/198 889/623/197 890/620/197
f 894/624/199 891/625/198 892/622/198
f 896/626/200 893/627/199 894/624/199
f 898/628/201 895/629/200 896/626/200
f 900/630/202 897/631/201 898/628/201
f 902/632/203 899/633/202 900/630/202
f 904/634/204 901/635/203 902/632/203
f 906/636/205 903/637/204 904/634/204
f 908/638/206 905/639/205 906/636/205
f 910/640/207 907/641/206 908/638/206
f 912/642/208 909/643/207 910/640/207
f 914/644/209 911/645/208 912/642/208
f 916/646/210 913/647/209 914/644/209
f 918/648/211 915/649/210 916/646/210
f 920/650/212 917/651/211 918/648/211
f 922/652/213 919/653/212 920/650/212
f 924/654/214 921/655/213 922/652/213
f 926/656/215 923/657/214 924/654/214
f 928/658/216 925/659/215 926/656/215
f 930/660/217 927/661/216 928/658/216
f 932/662/218 929/663/217 930/660/217
f 934/664/219 931/665/218 932/662/218
f 936/666/220 933/667/219 934/664/219
f 938/668/221 935/669/220 936/666/220
f 940/670/222 937/671/221 938/668/221
f 942/672/223 939/673/222 940/670/222
f 944/674/224 941/675/223 942/672/223
f 946/676/225 943/677/224 944/674/224
f 948/678/226 945/679/225 946/676/225
f 950/680/227 947/681/226 948/678/226
f 952/682/228 949/683/227 950/680/227
f 954/684/229 951/685/228 952/682/228
f 956/686/230 953/687/229 954/684/229
f 958/688/231 955/689/230 956/686/230
f 960/690/232 957/691/231 958/688/231
f 962/692/233 959/693/232 960/690/232
f 964/694/234 961/695/233 962/692/233
f 966/696/235 963/697/234 964/694/234
f 968/698/236 965/699/235 966/696/235
f 970/700/237 967/701/236 968/698/236
f 972/702/238 969/703/237 970/700/237
f 974/704/239 971/705/238 972/702/238
f 976/706/240 973/707/239 974/704/239
f 978/708/241 975/709/240 976/706/240
f 980/710/242 977/711/241 978/708/241
f 982/712/243 979/713/242 980/710/242
f 984/714/244 981/715/243 982/712/243
f 986/716/245 983/717/246 984/714/244
f 988/718/247 985/719/245 986/716/245
f 990/720/248 987/721/247 988/718/247
f 992/722/249 989/723/248 990/720/248
f 994/724/250 991/725/249 992/722/249
f 996/726/251 993/727/250 994/724/250
f 998/728/252 995/729/251 996/726/251
f 1000/730/253 997/731/252 998/728/252
f 1002/732/254 999/733/253 1000/730/253
f 1004/734/255 1001/735/254 1002/732/254
f 1006/736/256 1003/737/255 1004/734/255
f 1008/738/257 1005/739/256 1006/736/256
f 1010/740/258 1007/741/257 1008/738/257
f 1012/742/259 1009/743/258 1010/740/258
f 1014/744/260 1011/745/259 1012/742/259
f 1016/746/261 1013/747/260 1014/744/260
f 1018/748/262 1015/749/261 1016/746/261
f 1020/750/263 1017/751/262 1018/748/262
f 1022/752/264 1019/753/263 1020/750/263
f 1024/754/265 1021/755/264 1022/752/264
f 1026/756/266 1023/757/265 1024/754/265
f 1028/758/267 1025/759/266 1026/756/266
f 1030/760/268 1027/761/267 1028/758/267
f 1032/762/269 1029/763/268 1030/760/268
f 1034/764/270 1031/765/269 1032/762/269
f 1036/766/271 1033/767/270 1034/764/270
f 1038/768/272 1035/769/271 1036/766/271
f 1040/770/273 1037/771/272 1038/768/272
f 620/351/58 1039/772/273 1040/770/273
f 524/261/3 523/264/3 521/165/4
f 526/263/5 525/266/5 523/264/3
f 528/265/6 527/268/6 525/266/5
f 530/267/7 529/270/7 527/268/6
f 532/269/8 531/272/8 529/270/7
f 534/271/9 533/274/9 531/272/8
f 536/273/10 535/181/10 533/274/9
f 538/275/11 537/277/11 535/181/10
f 540/276/12 539/279/12 537/277/11
f 542/278/13 541/281/13 539/279/12
f 544/280/14 543/283/14 541/281/13
f 546/282/15 545/285/15 543/283/14
f 548/284/16 547/287/16 545/285/15
f 550/286/17 549/52/17 547/287/16
f 552/288/18 551/290/18 549/52/17
f 554/289/19 553/292/19 551/290/18
f 556/291/20 555/294/20 553/292/19
f 558/293/21 557/296/21 555/294/20
f 560/295/22 559/298/22 557/296/21
f 562/297/23 561/300/23 559/298/22
f 564/299/24 563/41/24 561/300/23
f 566/301/25 565/303/25 563/41/24
f 568/302/26 567/305/26 565/303/25
f 570/304/27 569/307/27 567/305/26
f 572/306/28 571/309/28 569/307/27
f 574/308/29 573/311/31 571/309/28
f 576/310/30 575/313/30 573/311/31
f 578/312/32 577/114/32 575/313/30
f 580/314/33 579/316/33 577/114/32
f 582/315/34 581/318/34 579/316/33
f 584/317/35 583/320/37 581/318/34
f 586/319/36 585/322/36 583/320/37
f 588/321/38 587/324/40 585/322/36
f 590/323/39 589/326/39 587/324/40
f 592/325/41 591/213/41 589/326/39
f 594/327/42 593/329/44 591/213/41
f 596/328/43 595/331/46 593/329/44
f 598/330/45 597/333/45 595/331/46
f 600/332/47 599/335/47 597/333/45
f 602/334/48 601/337/48 599/335/47
f 604/336/49 603/339/49 601/337/48
f 606/338/50 605/143/50 603/339/49
f 608/340/51 607/342/51 605/143/50
f 610/341/52 609/344/52 607/342/51
f 612/343/53 611/346/53 609/344/52
f 614/345/54 613/348/54 611/346/53
f 616/347/55 615/350/55 613/348/54
f 618/349/56 617/352/56 615/350/55
f 522/351/4 521/111/4 617/352/56
f 622/353/57 621/355/57 619/165/58
f 624/354/59 623/357/59 621/355/57
f 626/356/60 625/359/60 623/357/59
f 628/358/61 627/361/61 625/359/60
f 630/360/62 629/363/62 627/361/61
f 632/362/63 631/365/63 629/363/62
f 634/364/64 633/367/64 631/365/63
f 636/366/65 635/369/65 633/367/64
f 638/368/66 637/371/66 635/369/65
f 640/370/67 639/373/67 637/371/66
f 642/372/68 641/375/68 639/373/67
f 644/374/69 643/377/69 641/375/68
f 646/376/70 645/379/70 643/377/69
f 648/378/71 647/381/71 645/379/70
f 650/380/72 649/383/72 647/381/71
f 652/382/73 651/385/73 649/383/72
f 654/384/74 653/387/74 651/385/73
f 656/386/75 655/389/75 653/387/74
f 658/388/76 657/391/76 655/389/75
f 660/390/77 659/393/77 657/391/76
f 662/392/78 661/395/78 659/393/77
f 664/394/79 663/397/79 661/395/78
f 666/396/80 665/399/80 663/397/79
f 668/398/81 667/401/81 665/399/80
f 670/400/82 669/403/82 667/401/81
f 672/402/83 671/405/83 669/403/82
f 674/404/84 673/407/84 671/405/83
f 676/406/85 675/409/85 673/407/84
f 678/408/58 677/411/58 675/409/85
f 680/410/86 679/413/86 677/411/58
f 682/412/87 681/415/87 679/413/86
f 684/414/88 683/417/88 681/415/87
f 686/416/89 685/419/89 683/417/88
f 688/418/90 687/421/90 685/419/89
f 690/420/91 689/423/91 687/421/90
f 692/422/92 691/425/92 689/423/91
f 694/424/93 693/427/93 691/425/92
f 696/426/94 695/429/94 693/427/93
f 698/428/95 697/431/95 695/429/94
f 700/430/96 699/433/96 697/431/95
f 702/432/97 701/435/97 699/433/96
f 704/434/98 703/437/100 701/435/97
f 706/436/99 705/439/102 703/437/100
f 708/438/101 707/441/101 705/439/102
f 710/440/103 709/443/103 707/441/101
f 712/442/104 711/445/104 709/443/103
f 714/444/105 713/447/105 711/445/104
f 716/446/106 715/449/106 713/447/105
f 718/448/107 717/451/107 715/449/106
f 720/450/108 719/453/108 717/451/107
f 722/452/109 721/455/109 719/453/108
f 724/454/110 723/457/110 721/455/109
f 726/456/111 725/459/111 723/457/110
f 728/458/112 727/461/112 725/459/111
f 730/460/113 729/463/115 727/461/112
f 732/462/114 731/465/114 729/463/115
f 734/464/116 733/467/116 731/465/114
f 736/466/117 735/469/117 733/467/116
f 738/468/118 737/471/118 735/469/117
f 740/470/119 739/473/119 737/471/118
f 742/472/120 741/475/120 739/473/119
f 744/474/121 743/477/121 741/475/120
f 746/476/122 745/479/122 743/477/121
f 748/478/123 747/481/123 745/479/122
f 750/480/124 749/483/124 747/481/123
f 752/482/125 751/485/125 749/483/124
f 754/484/126 753/487/126 751/485/125
f 756/486/127 755/489/127 753/487/126
f 758/488/128 757/491/128 755/489/127
f 760/490/129 759/493/129 757/491/128
f 762/492/130 761/495/130 759/493/129
f 764/494/131 763/497/131 761/495/130
f 766/496/132 765/499/132 763/497/131
f 768/498/133 767/501/133 765/499/132
f 770/500/134 769/503/134 767/501/133
f 772/502/135 771/505/135 769/503/134
f 774/504/136 773/507/136 771/505/135
f 776/506/137 775/509/137 773/507/136
f 778/508/138 777/511/138 775/509/137
f 780/510/139 779/513/139 777/511/138
f 782/512/140 781/515/142 779/513/139
f 784/514/141 783/517/141 781/515/142
f 786/516/143 785/519/143 783/517/141
f 788/518/144 787/521/144 785/519/143
f 790/520/145 789/523/145 787/521/144
f 792/522/146 791/525/146 789/523/145
f 794/524/147 793/527/147 791/525/146
f 796/526/148 795/529/148 793/527/147
f 798/528/149 797/531/149 795/529/148
f 800/530/150 799/533/150 797/531/149
f 802/532/151 801/535/151 799/533/150
f 804/534/152 803/537/152 801/535/151
f 806/536/153 805/539/153 803/537/152
f 808/538/154 807/541/154 805/539/153
f 810/540/155 809/543/157 807/541/154
f 812/542/156 811/545/156 809/543/157
f 814/544/158 813/547/158 811/545/156
f 816/546/159 815/549/159 813/547/158
f 818/548/160 817/551/160 815/549/159
f 820/550/161 819/553/161 817/551/160
f 822/552/162 821/555/162 819/553/161
f 824/554/163 823/557/163 821/555/162
f 826/556/164 825/559/164 823/557/163
f 828/558/165 827/561/165 825/559/164
f 830/560/166 829/563/166 827/561/165
f 832/562/167 831/565/167 829/563/166
f 834/564/168 833/567/168 831/565/167
f 836/566/169 835/569/171 833/567/168
f 838/568/170 837/571/170 835/569/171
f 840/570/172 839/573/172 837/571/170
f 842/572/173 841/575/173 839/573/172
f 844/574/174 843/577/174 841/575/173
f 846/576/175 845/579/175 843/577/174
f 848/578/176 847/581/176 845/579/175
f 850/580/177 849/583/177 847/581/176
f 852/582/178 851/585/178 849/583/177
f 854/584/179 853/587/179 851/585/178
f 856/586/180 855/589/180 853/587/179
f 858/588/181 857/591/181 855/589/180
f 860/590/182 859/593/182 857/591/181
f 862/592/183 861/595/183 859/593/182
f 864/594/184 863/597/184 861/595/183
f 866/596/185 865/599/185 863/597/184
f 868/598/186 867/601/186 865/599/185
f 870/600/187 869/603/187 867/601/186
f 872/602/188 871/605/188 869/603/187
f 874/604/189 873/607/189 871/605/188
f 876/606/190 875/609/190 873/607/189
f 878/608/191 877/611/191 875/609/190
f 880/610/192 879/613/192 877/611/191
f 882/612/193 881/615/193 879/613/192
f 884/614/194 883/617/194 881/615/193
f 886/616/195 885/619/195 883/617/194
f 888/618/196 887/621/196 885/619/195
f 890/620/197 889/623/197 887/621/196
f 892/622/198 891/625/198 889/623/197
f 894/624/199 893/627/199 891/625/198
f 896/626/200 895/629/200 893/627/199
f 898/628/201 897/631/201 895/629/200
f 900/630/202 899/633/202 897/631/201
f 902/632/203 901/635/203 899/633/202
f 904/634/204 903/637/204 901/635/203
f 906/636/205 905/639/205 903/637/204
f 908/638/206 907/641/206 905/639/205
f 910/640/207 909/643/207 907/641/206
f 912/642/208 911/645/208 909/643/207
f 914/644/209 913/647/209 911/645/208
f 916/646/210 915/649/210 913/647/209
f 918/648/211 917/651/211 915/649/210
f 920/650/212 919/653/212 917/651/211
f 922/652/213 921/655/213 919/653/212
f 924/654/214 923/657/214 921/655/213
f 926/656/215 925/659/215 923/657/214
f 928/658/216 927/661/216 925/659/215
f 930/660/217 929/663/217 927/661/216
f 932/662/218 931/665/218 929/663/217
f 934/664/219 933/667/219 931/665/218
f 936/666/220 935/669/220 933/667/219
f 938/668/221 937/671/221 935/669/220
f 940/670/222 939/673/222 937/671/221
f 942/672/223 941/675/223 939/673/222
f 944/674/224 943/677/224 941/675/223
f 946/676/225 945/679/225 943/677/224
f 948/678/226 947/681/226 945/679/225
f 950/680/227 949/683/227 947/681/226
f 952/682/228 951/685/228 949/683/227
f 954/684/229 953/687/229 951/685/228
f 956/686/230 955/689/230 953/687/229
f 958/688/231 957/691/231 955/689/230
f 960/690/232 959/693/232 957/691/231
f 962/692/233 961/695/233 959/693/232
f 964/694/234 963/697/234 961/695/233
f 966/696/235 965/699/235 963/697/234
f 968/698/236 967/701/236 965/699/235
f 970/700/237 969/703/237 967/701/236
f 972/702/238 971/705/238 969/703/237
f 974/704/239 973/707/239 971/705/238
f 976/706/240 975/709/240 973/707/239
f 978/708/241 977/711/241 975/709/240
f 980/710/242 979/713/242 977/711/241
f 982/712/243 981/715/243 979/713/242
f 984/714/244 983/717/246 981/715/243
f 986/716/245 985/719/245 983/717/246
f 988/718/247 987/721/247 985/719/245
f 990/720/248 989/723/248 987/721/247
f 992/722/249 991/725/249 989/723/248
f 994/724/250 993/727/250 991/725/249
f 996/726/251 995/729/251 993/727/250
f 998/728/252 997/731/252 995/729/251
f 1000/730/253 999/733/253 997/731/252
f 1002/732/254 1001/735/254 999/733/253
f 1004/734/255 1003/737/255 1001/735/254
f 1006/736/256 1005/739/256 1003/737/255
f 1008/738/257 1007/741/257 1005/739/256
f 1010/740/258 1009/743/258 1007/741/257
f 1012/742/259 1011/745/259 1009/743/258
f 1014/744/260 1013/747/260 1011/745/259
f 1016/746/261 1015/749/261 1013/747/260
f 1018/748/262 1017/751/262 1015/749/261
f 1020/750/263 1019/753/263 1017/751/262
f 1022/752/264 1021/755/264 1019/753/263
f 1024/754/265 1023/757/265 1021/755/264
f 1026/756/266 1025/759/266 1023/757/265
f 1028/758/267 1027/761/267 1025/759/266
f 1030/760/268 1029/763/268 1027/761/267
f 1032/762/269 1031/765/269 1029/763/268
f 1034/764/270 1033/767/270 1031/765/269
f 1036/766/271 1035/769/271 1033/767/270
f 1038/768/272 1037/771/272 1035/769/271
f 1040/770/273 1039/772/273 1037/771/272
f 620/351/58 619/111/58 1039/772/273
