# Blender 4.1.1
# www.blender.org
mtllib ta.mtl
o Text.010
v -0.734851 0.500937 -0.020000
v -0.749720 0.500749 -0.020000
v -0.764582 0.500434 -0.020000
v -0.779414 0.499994 -0.020000
v -0.794191 0.499429 -0.020000
v -0.808890 0.498737 -0.020000
v -0.823486 0.497919 -0.020000
v -0.837957 0.496976 -0.020000
v -0.852278 0.495906 -0.020000
v -0.866425 0.494710 -0.020000
v -0.880376 0.493388 -0.020000
v -0.903240 0.490975 -0.020000
v -0.900704 0.394630 -0.020000
v -0.876828 0.397786 -0.020000
v -0.863713 0.399387 -0.020000
v -0.850329 0.400885 -0.020000
v -0.836708 0.402268 -0.020000
v -0.822880 0.403528 -0.020000
v -0.808879 0.404653 -0.020000
v -0.794735 0.405633 -0.020000
v -0.780481 0.406458 -0.020000
v -0.766149 0.407117 -0.020000
v -0.751770 0.407601 -0.020000
v -0.737377 0.407898 -0.020000
v -0.722985 0.408000 -0.020000
v -0.707371 0.407937 -0.020000
v -0.691818 0.407747 -0.020000
v -0.676330 0.407425 -0.020000
v -0.660896 0.406969 -0.020000
v -0.645507 0.406374 -0.020000
v -0.630151 0.405639 -0.020000
v -0.614818 0.404758 -0.020000
v -0.599497 0.403729 -0.020000
v -0.584178 0.402549 -0.020000
v -0.568849 0.401213 -0.020000
v -0.553501 0.399719 -0.020000
v -0.527000 0.396865 -0.020000
v -0.527000 0.491133 -0.020000
v -0.549642 0.493190 -0.020000
v -0.563712 0.494371 -0.020000
v -0.578219 0.495489 -0.020000
v -0.593113 0.496534 -0.020000
v -0.608342 0.497495 -0.020000
v -0.623854 0.498362 -0.020000
v -0.639599 0.499124 -0.020000
v -0.655523 0.499771 -0.020000
v -0.671577 0.500293 -0.020000
v -0.687709 0.500679 -0.020000
v -0.703868 0.500918 -0.020000
v -0.719996 0.501000 -0.020000
v -0.554551 0.138408 -0.020000
v -0.556313 0.128237 -0.020000
v -0.559511 0.118622 -0.020000
v -0.564394 0.109571 -0.020000
v -0.571310 0.101042 -0.020000
v -0.580714 0.093037 -0.020000
v -0.593095 0.085668 -0.020000
v -0.608892 0.079139 -0.020000
v -0.628474 0.073687 -0.020000
v -0.652158 0.069544 -0.020000
v -0.680241 0.066919 -0.020000
v -0.713095 0.066001 -0.020000
v -0.729150 0.066144 -0.020000
v -0.745429 0.066573 -0.020000
v -0.761795 0.067284 -0.020000
v -0.778204 0.068273 -0.020000
v -0.794614 0.069538 -0.020000
v -0.810982 0.071073 -0.020000
v -0.827266 0.072877 -0.020000
v -0.843422 0.074945 -0.020000
v -0.859408 0.077273 -0.020000
v -0.875181 0.079858 -0.020000
v -0.890697 0.082695 -0.020000
v -0.918463 0.088325 -0.020000
v -0.914684 -0.013723 -0.020000
v -0.892605 -0.016864 -0.020000
v -0.878261 -0.018738 -0.020000
v -0.863451 -0.020499 -0.020000
v -0.848192 -0.022135 -0.020000
v -0.832501 -0.023630 -0.020000
v -0.816394 -0.024971 -0.020000
v -0.799890 -0.026144 -0.020000
v -0.783005 -0.027135 -0.020000
v -0.765756 -0.027930 -0.020000
v -0.748161 -0.028515 -0.020000
v -0.730236 -0.028877 -0.020000
v -0.711902 -0.029001 -0.020000
v -0.673446 -0.027987 -0.020000
v -0.637853 -0.024919 -0.020000
v -0.605240 -0.019764 -0.020000
v -0.575635 -0.012478 -0.020000
v -0.549077 -0.002996 -0.020000
v -0.525625 0.008758 -0.020000
v -0.505380 0.022866 -0.020000
v -0.488500 0.039381 -0.020000
v -0.475185 0.058281 -0.020000
v -0.465612 0.079452 -0.020000
v -0.459875 0.102728 -0.020000
v -0.457995 0.127697 -0.020000
v -0.458145 0.138000 -0.020000
v -0.458570 0.147924 -0.020000
v -0.459251 0.157791 -0.020000
v -0.460164 0.167623 -0.020000
v -0.461287 0.177444 -0.020000
v -0.462598 0.187276 -0.020000
v -0.464075 0.197143 -0.020000
v -0.465695 0.207070 -0.020000
v -0.467436 0.217080 -0.020000
v -0.469277 0.227200 -0.020000
v -0.471198 0.237454 -0.020000
v -0.474873 0.256802 -0.020000
v -0.570681 0.247860 -0.020000
v -0.565524 0.228323 -0.020000
v -0.563569 0.220377 -0.020000
v -0.561787 0.212542 -0.020000
v -0.560180 0.204831 -0.020000
v -0.558751 0.197255 -0.020000
v -0.557505 0.189825 -0.020000
v -0.556443 0.182554 -0.020000
v -0.555569 0.175453 -0.020000
v -0.554886 0.168535 -0.020000
v -0.554396 0.161812 -0.020000
v -0.554100 0.155297 -0.020000
v -0.554004 0.149175 -0.020000
v -0.320891 0.635584 -0.020000
v -0.322505 0.644053 -0.020000
v -0.324037 0.652340 -0.020000
v -0.325487 0.660411 -0.020000
v -0.326854 0.668236 -0.020000
v -0.328138 0.675783 -0.020000
v -0.329340 0.683021 -0.020000
v -0.330460 0.689919 -0.020000
v -0.331497 0.696445 -0.020000
v -0.332451 0.702568 -0.020000
v -0.333322 0.708258 -0.020000
v -0.334098 0.713400 -0.020000
v -0.335010 0.720321 -0.020000
v -0.335801 0.727427 -0.020000
v -0.336472 0.734665 -0.020000
v -0.337022 0.741965 -0.020000
v -0.337450 0.749255 -0.020000
v -0.337756 0.756466 -0.020000
v -0.337939 0.763528 -0.020000
v -0.338000 0.770368 -0.020000
v -0.337939 0.776916 -0.020000
v -0.337758 0.783097 -0.020000
v -0.337458 0.788834 -0.020000
v -0.336100 0.805943 -0.020000
v -0.455719 0.795975 -0.020000
v -0.451145 0.778687 -0.020000
v -0.449570 0.772429 -0.020000
v -0.447947 0.765717 -0.020000
v -0.446299 0.758676 -0.020000
v -0.444648 0.751429 -0.020000
v -0.443016 0.744097 -0.020000
v -0.441423 0.736801 -0.020000
v -0.439892 0.729661 -0.020000
v -0.438444 0.722795 -0.020000
v -0.437099 0.716323 -0.020000
v -0.435880 0.710364 -0.020000
v -0.434802 0.705018 -0.020000
v -0.422573 0.644692 -0.020000
v -0.424948 0.644996 -0.020000
v -0.441137 0.647232 -0.020000
v -0.457326 0.649634 -0.020000
v -0.473491 0.652201 -0.020000
v -0.489613 0.654934 -0.020000
v -0.505670 0.657831 -0.020000
v -0.521641 0.660894 -0.020000
v -0.537505 0.664121 -0.020000
v -0.553240 0.667513 -0.020000
v -0.568826 0.671069 -0.020000
v -0.584240 0.674789 -0.020000
v -0.612000 0.681872 -0.020000
v -0.612000 0.581988 -0.020000
v -0.587707 0.576559 -0.020000
v -0.570878 0.573029 -0.020000
v -0.553801 0.569663 -0.020000
v -0.536514 0.566455 -0.020000
v -0.519054 0.563402 -0.020000
v -0.501457 0.560501 -0.020000
v -0.483763 0.557747 -0.020000
v -0.466008 0.555138 -0.020000
v -0.448230 0.552668 -0.020000
v -0.430467 0.550335 -0.020000
v -0.412756 0.548135 -0.020000
v -0.402326 0.546910 -0.020000
v -0.401495 0.542901 -0.020000
v -0.399112 0.531738 -0.020000
v -0.396653 0.520520 -0.020000
v -0.394121 0.509261 -0.020000
v -0.391519 0.497976 -0.020000
v -0.388851 0.486677 -0.020000
v -0.386121 0.475378 -0.020000
v -0.383331 0.464093 -0.020000
v -0.380485 0.452836 -0.020000
v -0.377587 0.441621 -0.020000
v -0.374640 0.430460 -0.020000
v -0.371664 0.419429 -0.020000
v -0.362015 0.382650 -0.020000
v -0.351173 0.343665 -0.020000
v -0.339332 0.303138 -0.020000
v -0.326659 0.261618 -0.020000
v -0.313318 0.219656 -0.020000
v -0.299475 0.177802 -0.020000
v -0.285295 0.136609 -0.020000
v -0.270943 0.096626 -0.020000
v -0.256581 0.058402 -0.020000
v -0.242371 0.022482 -0.020000
v -0.228472 -0.010592 -0.020000
v -0.211368 -0.048395 -0.020000
v -0.103513 -0.011626 -0.020000
v -0.124333 0.026362 -0.020000
v -0.139674 0.057373 -0.020000
v -0.155204 0.091494 -0.020000
v -0.170752 0.128140 -0.020000
v -0.186151 0.166734 -0.020000
v -0.201240 0.206703 -0.020000
v -0.215857 0.247479 -0.020000
v -0.229845 0.288491 -0.020000
v -0.243043 0.329171 -0.020000
v -0.255295 0.368952 -0.020000
v -0.266442 0.407264 -0.020000
v -0.276348 0.443615 -0.020000
v -0.278586 0.451923 -0.020000
v -0.280818 0.460404 -0.020000
v -0.283044 0.469049 -0.020000
v -0.285262 0.477833 -0.020000
v -0.287466 0.486733 -0.020000
v -0.289654 0.495722 -0.020000
v -0.291822 0.504776 -0.020000
v -0.293967 0.513872 -0.020000
v -0.296084 0.522983 -0.020000
v -0.298171 0.532086 -0.020000
v -0.300223 0.541157 -0.020000
v -0.299349 0.537245 -0.020000
v -0.304353 0.537537 -0.020000
v -0.296186 0.537097 -0.020000
v -0.288110 0.536699 -0.020000
v -0.280126 0.536342 -0.020000
v -0.272238 0.536028 -0.020000
v -0.264450 0.535755 -0.020000
v -0.256765 0.535525 -0.020000
v -0.249186 0.535336 -0.020000
v -0.241717 0.535189 -0.020000
v -0.234360 0.535084 -0.020000
v -0.227120 0.535021 -0.020000
v -0.219996 0.535000 -0.020000
v -0.209088 0.535041 -0.020000
v -0.198483 0.535158 -0.020000
v -0.188160 0.535346 -0.020000
v -0.178091 0.535596 -0.020000
v -0.168248 0.535903 -0.020000
v -0.158607 0.536258 -0.020000
v -0.149138 0.536654 -0.020000
v -0.139816 0.537086 -0.020000
v -0.130613 0.537544 -0.020000
v -0.121502 0.538024 -0.020000
v -0.112456 0.538516 -0.020000
v -0.094357 0.539519 -0.020000
v -0.090558 0.638312 -0.020000
v -0.113877 0.635539 -0.020000
v -0.125053 0.634348 -0.020000
v -0.135812 0.633337 -0.020000
v -0.146196 0.632490 -0.020000
v -0.156248 0.631795 -0.020000
v -0.166013 0.631237 -0.020000
v -0.175534 0.630802 -0.020000
v -0.184855 0.630477 -0.020000
v -0.194019 0.630248 -0.020000
v -0.203069 0.630101 -0.020000
v -0.212049 0.630023 -0.020000
v -0.220988 0.630000 -0.020000
v -0.229216 0.630041 -0.020000
v -0.237563 0.630160 -0.020000
v -0.246042 0.630356 -0.020000
v -0.254652 0.630624 -0.020000
v -0.263393 0.630961 -0.020000
v -0.272265 0.631363 -0.020000
v -0.281268 0.631828 -0.020000
v -0.290401 0.632352 -0.020000
v -0.299665 0.632932 -0.020000
v -0.309058 0.633564 -0.020000
v -0.318581 0.634245 -0.020000
v -0.320658 0.634401 -0.020000
v -0.734851 0.500937 0.020000
v -0.749720 0.500749 0.020000
v -0.764582 0.500434 0.020000
v -0.779414 0.499994 0.020000
v -0.794191 0.499429 0.020000
v -0.808890 0.498737 0.020000
v -0.823486 0.497919 0.020000
v -0.837957 0.496976 0.020000
v -0.852278 0.495906 0.020000
v -0.866425 0.494710 0.020000
v -0.880376 0.493388 0.020000
v -0.903240 0.490975 0.020000
v -0.900704 0.394630 0.020000
v -0.876828 0.397786 0.020000
v -0.863713 0.399387 0.020000
v -0.850329 0.400885 0.020000
v -0.836708 0.402268 0.020000
v -0.822880 0.403528 0.020000
v -0.808879 0.404653 0.020000
v -0.794735 0.405633 0.020000
v -0.780481 0.406458 0.020000
v -0.766149 0.407117 0.020000
v -0.751770 0.407601 0.020000
v -0.737377 0.407898 0.020000
v -0.722985 0.408000 0.020000
v -0.707371 0.407937 0.020000
v -0.691818 0.407747 0.020000
v -0.676330 0.407425 0.020000
v -0.660896 0.406969 0.020000
v -0.645507 0.406374 0.020000
v -0.630151 0.405639 0.020000
v -0.614818 0.404758 0.020000
v -0.599497 0.403729 0.020000
v -0.584178 0.402549 0.020000
v -0.568849 0.401213 0.020000
v -0.553501 0.399719 0.020000
v -0.527000 0.396865 0.020000
v -0.527000 0.491133 0.020000
v -0.549642 0.493190 0.020000
v -0.563712 0.494371 0.020000
v -0.578219 0.495489 0.020000
v -0.593113 0.496534 0.020000
v -0.608342 0.497495 0.020000
v -0.623854 0.498362 0.020000
v -0.639599 0.499124 0.020000
v -0.655523 0.499771 0.020000
v -0.671577 0.500293 0.020000
v -0.687709 0.500679 0.020000
v -0.703868 0.500918 0.020000
v -0.719996 0.501000 0.020000
v -0.554551 0.138408 0.020000
v -0.556313 0.128237 0.020000
v -0.559511 0.118622 0.020000
v -0.564394 0.109571 0.020000
v -0.571310 0.101042 0.020000
v -0.580714 0.093037 0.020000
v -0.593095 0.085668 0.020000
v -0.608892 0.079139 0.020000
v -0.628474 0.073687 0.020000
v -0.652158 0.069544 0.020000
v -0.680241 0.066919 0.020000
v -0.713095 0.066001 0.020000
v -0.729150 0.066144 0.020000
v -0.745429 0.066573 0.020000
v -0.761795 0.067284 0.020000
v -0.778204 0.068273 0.020000
v -0.794614 0.069538 0.020000
v -0.810982 0.071073 0.020000
v -0.827266 0.072877 0.020000
v -0.843422 0.074945 0.020000
v -0.859408 0.077273 0.020000
v -0.875181 0.079858 0.020000
v -0.890697 0.082695 0.020000
v -0.918463 0.088325 0.020000
v -0.914684 -0.013723 0.020000
v -0.892605 -0.016864 0.020000
v -0.878261 -0.018738 0.020000
v -0.863451 -0.020499 0.020000
v -0.848192 -0.022135 0.020000
v -0.832501 -0.023630 0.020000
v -0.816394 -0.024971 0.020000
v -0.799890 -0.026144 0.020000
v -0.783005 -0.027135 0.020000
v -0.765756 -0.027930 0.020000
v -0.748161 -0.028515 0.020000
v -0.730236 -0.028877 0.020000
v -0.711902 -0.029001 0.020000
v -0.673446 -0.027987 0.020000
v -0.637853 -0.024919 0.020000
v -0.605240 -0.019764 0.020000
v -0.575635 -0.012478 0.020000
v -0.549077 -0.002996 0.020000
v -0.525625 0.008758 0.020000
v -0.505380 0.022866 0.020000
v -0.488500 0.039381 0.020000
v -0.475185 0.058281 0.020000
v -0.465612 0.079452 0.020000
v -0.459875 0.102728 0.020000
v -0.457995 0.127697 0.020000
v -0.458145 0.138000 0.020000
v -0.458570 0.147924 0.020000
v -0.459251 0.157791 0.020000
v -0.460164 0.167623 0.020000
v -0.461287 0.177444 0.020000
v -0.462598 0.187276 0.020000
v -0.464075 0.197143 0.020000
v -0.465695 0.207070 0.020000
v -0.467436 0.217080 0.020000
v -0.469277 0.227200 0.020000
v -0.471198 0.237454 0.020000
v -0.474873 0.256802 0.020000
v -0.570681 0.247860 0.020000
v -0.565524 0.228323 0.020000
v -0.563569 0.220377 0.020000
v -0.561787 0.212542 0.020000
v -0.560180 0.204831 0.020000
v -0.558751 0.197255 0.020000
v -0.557505 0.189825 0.020000
v -0.556443 0.182554 0.020000
v -0.555569 0.175453 0.020000
v -0.554886 0.168535 0.020000
v -0.554396 0.161812 0.020000
v -0.554100 0.155297 0.020000
v -0.554004 0.149175 0.020000
v -0.320891 0.635584 0.020000
v -0.322505 0.644053 0.020000
v -0.324037 0.652340 0.020000
v -0.325487 0.660411 0.020000
v -0.326854 0.668236 0.020000
v -0.328138 0.675783 0.020000
v -0.329340 0.683021 0.020000
v -0.330460 0.689919 0.020000
v -0.331497 0.696445 0.020000
v -0.332451 0.702568 0.020000
v -0.333322 0.708258 0.020000
v -0.334098 0.713400 0.020000
v -0.335010 0.720321 0.020000
v -0.335801 0.727427 0.020000
v -0.336472 0.734665 0.020000
v -0.337022 0.741965 0.020000
v -0.337450 0.749255 0.020000
v -0.337756 0.756466 0.020000
v -0.337939 0.763528 0.020000
v -0.338000 0.770368 0.020000
v -0.337939 0.776916 0.020000
v -0.337758 0.783097 0.020000
v -0.337458 0.788834 0.020000
v -0.336100 0.805943 0.020000
v -0.455719 0.795975 0.020000
v -0.451145 0.778687 0.020000
v -0.449570 0.772429 0.020000
v -0.447947 0.765717 0.020000
v -0.446299 0.758676 0.020000
v -0.444648 0.751429 0.020000
v -0.443016 0.744097 0.020000
v -0.441423 0.736801 0.020000
v -0.439892 0.729661 0.020000
v -0.438444 0.722795 0.020000
v -0.437099 0.716323 0.020000
v -0.435880 0.710364 0.020000
v -0.434802 0.705018 0.020000
v -0.422573 0.644692 0.020000
v -0.424948 0.644996 0.020000
v -0.441137 0.647232 0.020000
v -0.457326 0.649634 0.020000
v -0.473491 0.652201 0.020000
v -0.489613 0.654934 0.020000
v -0.505670 0.657831 0.020000
v -0.521641 0.660894 0.020000
v -0.537505 0.664121 0.020000
v -0.553240 0.667513 0.020000
v -0.568826 0.671069 0.020000
v -0.584240 0.674789 0.020000
v -0.612000 0.681872 0.020000
v -0.612000 0.581988 0.020000
v -0.587707 0.576559 0.020000
v -0.570878 0.573029 0.020000
v -0.553801 0.569663 0.020000
v -0.536514 0.566455 0.020000
v -0.519054 0.563402 0.020000
v -0.501457 0.560501 0.020000
v -0.483763 0.557747 0.020000
v -0.466008 0.555138 0.020000
v -0.448230 0.552668 0.020000
v -0.430467 0.550335 0.020000
v -0.412756 0.548135 0.020000
v -0.402326 0.546910 0.020000
v -0.401495 0.542901 0.020000
v -0.399112 0.531738 0.020000
v -0.396653 0.520520 0.020000
v -0.394121 0.509261 0.020000
v -0.391519 0.497976 0.020000
v -0.388851 0.486677 0.020000
v -0.386121 0.475378 0.020000
v -0.383331 0.464093 0.020000
v -0.380485 0.452836 0.020000
v -0.377587 0.441621 0.020000
v -0.374640 0.430460 0.020000
v -0.371664 0.419429 0.020000
v -0.362015 0.382650 0.020000
v -0.351173 0.343665 0.020000
v -0.339332 0.303138 0.020000
v -0.326659 0.261618 0.020000
v -0.313318 0.219656 0.020000
v -0.299475 0.177802 0.020000
v -0.285295 0.136609 0.020000
v -0.270943 0.096626 0.020000
v -0.256581 0.058402 0.020000
v -0.242371 0.022482 0.020000
v -0.228472 -0.010592 0.020000
v -0.211368 -0.048395 0.020000
v -0.103513 -0.011626 0.020000
v -0.124333 0.026362 0.020000
v -0.139674 0.057373 0.020000
v -0.155204 0.091494 0.020000
v -0.170752 0.128140 0.020000
v -0.186151 0.166734 0.020000
v -0.201240 0.206703 0.020000
v -0.215857 0.247479 0.020000
v -0.229845 0.288491 0.020000
v -0.243043 0.329171 0.020000
v -0.255295 0.368952 0.020000
v -0.266442 0.407264 0.020000
v -0.276348 0.443615 0.020000
v -0.278586 0.451923 0.020000
v -0.280818 0.460404 0.020000
v -0.283044 0.469049 0.020000
v -0.285262 0.477833 0.020000
v -0.287466 0.486733 0.020000
v -0.289654 0.495722 0.020000
v -0.291822 0.504776 0.020000
v -0.293967 0.513872 0.020000
v -0.296084 0.522983 0.020000
v -0.298171 0.532086 0.020000
v -0.300223 0.541157 0.020000
v -0.299349 0.537245 0.020000
v -0.304353 0.537537 0.020000
v -0.296186 0.537097 0.020000
v -0.288110 0.536699 0.020000
v -0.280126 0.536342 0.020000
v -0.272238 0.536028 0.020000
v -0.264450 0.535755 0.020000
v -0.256765 0.535525 0.020000
v -0.249186 0.535336 0.020000
v -0.241717 0.535189 0.020000
v -0.234360 0.535084 0.020000
v -0.227120 0.535021 0.020000
v -0.219996 0.535000 0.020000
v -0.209088 0.535041 0.020000
v -0.198483 0.535158 0.020000
v -0.188160 0.535346 0.020000
v -0.178091 0.535596 0.020000
v -0.168248 0.535903 0.020000
v -0.158607 0.536258 0.020000
v -0.149138 0.536654 0.020000
v -0.139816 0.537086 0.020000
v -0.130613 0.537544 0.020000
v -0.121502 0.538024 0.020000
v -0.112456 0.538516 0.020000
v -0.094357 0.539519 0.020000
v -0.090558 0.638312 0.020000
v -0.113877 0.635539 0.020000
v -0.125053 0.634348 0.020000
v -0.135812 0.633337 0.020000
v -0.146196 0.632490 0.020000
v -0.156248 0.631795 0.020000
v -0.166013 0.631237 0.020000
v -0.175534 0.630802 0.020000
v -0.184855 0.630477 0.020000
v -0.194019 0.630248 0.020000
v -0.203069 0.630101 0.020000
v -0.212049 0.630023 0.020000
v -0.220988 0.630000 0.020000
v -0.229216 0.630041 0.020000
v -0.237563 0.630160 0.020000
v -0.246042 0.630356 0.020000
v -0.254652 0.630624 0.020000
v -0.263393 0.630961 0.020000
v -0.272265 0.631363 0.020000
v -0.281268 0.631828 0.020000
v -0.290401 0.632352 0.020000
v -0.299665 0.632932 0.020000
v -0.309058 0.633564 0.020000
v -0.318581 0.634245 0.020000
v -0.320658 0.634401 0.020000
v -0.734851 0.500937 0.020000
v -0.734851 0.500937 -0.020000
v -0.749720 0.500749 0.020000
v -0.749720 0.500749 -0.020000
v -0.764582 0.500434 0.020000
v -0.764582 0.500434 -0.020000
v -0.779414 0.499994 0.020000
v -0.779414 0.499994 -0.020000
v -0.794191 0.499429 0.020000
v -0.794191 0.499429 -0.020000
v -0.808890 0.498737 0.020000
v -0.808890 0.498737 -0.020000
v -0.823486 0.497919 0.020000
v -0.823486 0.497919 -0.020000
v -0.837957 0.496976 0.020000
v -0.837957 0.496976 -0.020000
v -0.852278 0.495906 0.020000
v -0.852278 0.495906 -0.020000
v -0.866425 0.494710 0.020000
v -0.866425 0.494710 -0.020000
v -0.880376 0.493388 0.020000
v -0.880376 0.493388 -0.020000
v -0.903240 0.490975 0.020000
v -0.903240 0.490975 -0.020000
v -0.900704 0.394630 0.020000
v -0.900704 0.394630 -0.020000
v -0.876828 0.397786 0.020000
v -0.876828 0.397786 -0.020000
v -0.863713 0.399387 0.020000
v -0.863713 0.399387 -0.020000
v -0.850329 0.400885 0.020000
v -0.850329 0.400885 -0.020000
v -0.836708 0.402268 0.020000
v -0.836708 0.402268 -0.020000
v -0.822880 0.403528 0.020000
v -0.822880 0.403528 -0.020000
v -0.808879 0.404653 0.020000
v -0.808879 0.404653 -0.020000
v -0.794735 0.405633 0.020000
v -0.794735 0.405633 -0.020000
v -0.780481 0.406458 0.020000
v -0.780481 0.406458 -0.020000
v -0.766149 0.407117 0.020000
v -0.766149 0.407117 -0.020000
v -0.751770 0.407601 0.020000
v -0.751770 0.407601 -0.020000
v -0.737377 0.407898 0.020000
v -0.737377 0.407898 -0.020000
v -0.722985 0.408000 0.020000
v -0.722985 0.408000 -0.020000
v -0.707371 0.407937 0.020000
v -0.707371 0.407937 -0.020000
v -0.691818 0.407747 0.020000
v -0.691818 0.407747 -0.020000
v -0.676330 0.407425 0.020000
v -0.676330 0.407425 -0.020000
v -0.660896 0.406969 0.020000
v -0.660896 0.406969 -0.020000
v -0.645507 0.406374 0.020000
v -0.645507 0.406374 -0.020000
v -0.630151 0.405639 0.020000
v -0.630151 0.405639 -0.020000
v -0.614818 0.404758 0.020000
v -0.614818 0.404758 -0.020000
v -0.599497 0.403729 0.020000
v -0.599497 0.403729 -0.020000
v -0.584178 0.402549 0.020000
v -0.584178 0.402549 -0.020000
v -0.568849 0.401213 0.020000
v -0.568849 0.401213 -0.020000
v -0.553501 0.399719 0.020000
v -0.553501 0.399719 -0.020000
v -0.527000 0.396865 0.020000
v -0.527000 0.396865 -0.020000
v -0.527000 0.491133 0.020000
v -0.527000 0.491133 -0.020000
v -0.549642 0.493190 0.020000
v -0.549642 0.493190 -0.020000
v -0.563712 0.494371 0.020000
v -0.563712 0.494371 -0.020000
v -0.578219 0.495489 0.020000
v -0.578219 0.495489 -0.020000
v -0.593113 0.496534 0.020000
v -0.593113 0.496534 -0.020000
v -0.608342 0.497495 0.020000
v -0.608342 0.497495 -0.020000
v -0.623854 0.498362 0.020000
v -0.623854 0.498362 -0.020000
v -0.639599 0.499124 0.020000
v -0.639599 0.499124 -0.020000
v -0.655523 0.499771 0.020000
v -0.655523 0.499771 -0.020000
v -0.671577 0.500293 0.020000
v -0.671577 0.500293 -0.020000
v -0.687709 0.500679 0.020000
v -0.687709 0.500679 -0.020000
v -0.703868 0.500918 0.020000
v -0.703868 0.500918 -0.020000
v -0.719996 0.501000 0.020000
v -0.719996 0.501000 -0.020000
v -0.554551 0.138408 0.020000
v -0.554551 0.138408 -0.020000
v -0.556313 0.128237 0.020000
v -0.556313 0.128237 -0.020000
v -0.559511 0.118622 0.020000
v -0.559511 0.118622 -0.020000
v -0.564394 0.109571 0.020000
v -0.564394 0.109571 -0.020000
v -0.571310 0.101042 0.020000
v -0.571310 0.101042 -0.020000
v -0.580714 0.093037 0.020000
v -0.580714 0.093037 -0.020000
v -0.593095 0.085668 0.020000
v -0.593095 0.085668 -0.020000
v -0.608892 0.079139 0.020000
v -0.608892 0.079139 -0.020000
v -0.628474 0.073687 0.020000
v -0.628474 0.073687 -0.020000
v -0.652158 0.069544 0.020000
v -0.652158 0.069544 -0.020000
v -0.680241 0.066919 0.020000
v -0.680241 0.066919 -0.020000
v -0.713095 0.066001 0.020000
v -0.713095 0.066001 -0.020000
v -0.729150 0.066144 0.020000
v -0.729150 0.066144 -0.020000
v -0.745429 0.066573 0.020000
v -0.745429 0.066573 -0.020000
v -0.761795 0.067284 0.020000
v -0.761795 0.067284 -0.020000
v -0.778204 0.068273 0.020000
v -0.778204 0.068273 -0.020000
v -0.794614 0.069538 0.020000
v -0.794614 0.069538 -0.020000
v -0.810982 0.071073 0.020000
v -0.810982 0.071073 -0.020000
v -0.827266 0.072877 0.020000
v -0.827266 0.072877 -0.020000
v -0.843422 0.074945 0.020000
v -0.843422 0.074945 -0.020000
v -0.859408 0.077273 0.020000
v -0.859408 0.077273 -0.020000
v -0.875181 0.079858 0.020000
v -0.875181 0.079858 -0.020000
v -0.890697 0.082695 0.020000
v -0.890697 0.082695 -0.020000
v -0.918463 0.088325 0.020000
v -0.918463 0.088325 -0.020000
v -0.914684 -0.013723 0.020000
v -0.914684 -0.013723 -0.020000
v -0.892605 -0.016864 0.020000
v -0.892605 -0.016864 -0.020000
v -0.878261 -0.018738 0.020000
v -0.878261 -0.018738 -0.020000
v -0.863451 -0.020499 0.020000
v -0.863451 -0.020499 -0.020000
v -0.848192 -0.022135 0.020000
v -0.848192 -0.022135 -0.020000
v -0.832501 -0.023630 0.020000
v -0.832501 -0.023630 -0.020000
v -0.816394 -0.024971 0.020000
v -0.816394 -0.024971 -0.020000
v -0.799890 -0.026144 0.020000
v -0.799890 -0.026144 -0.020000
v -0.783005 -0.027135 0.020000
v -0.783005 -0.027135 -0.020000
v -0.765756 -0.027930 0.020000
v -0.765756 -0.027930 -0.020000
v -0.748161 -0.028515 0.020000
v -0.748161 -0.028515 -0.020000
v -0.730236 -0.028877 0.020000
v -0.730236 -0.028877 -0.020000
v -0.711902 -0.029001 0.020000
v -0.711902 -0.029001 -0.020000
v -0.673446 -0.027987 0.020000
v -0.673446 -0.027987 -0.020000
v -0.637853 -0.024919 0.020000
v -0.637853 -0.024919 -0.020000
v -0.605240 -0.019764 0.020000
v -0.605240 -0.019764 -0.020000
v -0.575635 -0.012478 0.020000
v -0.575635 -0.012478 -0.020000
v -0.549077 -0.002996 0.020000
v -0.549077 -0.002996 -0.020000
v -0.525625 0.008758 0.020000
v -0.525625 0.008758 -0.020000
v -0.505380 0.022866 0.020000
v -0.505380 0.022866 -0.020000
v -0.488500 0.039381 0.020000
v -0.488500 0.039381 -0.020000
v -0.475185 0.058281 0.020000
v -0.475185 0.058281 -0.020000
v -0.465612 0.079452 0.020000
v -0.465612 0.079452 -0.020000
v -0.459875 0.102728 0.020000
v -0.459875 0.102728 -0.020000
v -0.457995 0.127697 0.020000
v -0.457995 0.127697 -0.020000
v -0.458145 0.138000 0.020000
v -0.458145 0.138000 -0.020000
v -0.458570 0.147924 0.020000
v -0.458570 0.147924 -0.020000
v -0.459251 0.157791 0.020000
v -0.459251 0.157791 -0.020000
v -0.460164 0.167623 0.020000
v -0.460164 0.167623 -0.020000
v -0.461287 0.177444 0.020000
v -0.461287 0.177444 -0.020000
v -0.462598 0.187276 0.020000
v -0.462598 0.187276 -0.020000
v -0.464075 0.197143 0.020000
v -0.464075 0.197143 -0.020000
v -0.465695 0.207070 0.020000
v -0.465695 0.207070 -0.020000
v -0.467436 0.217080 0.020000
v -0.467436 0.217080 -0.020000
v -0.469277 0.227200 0.020000
v -0.469277 0.227200 -0.020000
v -0.471198 0.237454 0.020000
v -0.471198 0.237454 -0.020000
v -0.474873 0.256802 0.020000
v -0.474873 0.256802 -0.020000
v -0.570681 0.247860 0.020000
v -0.570681 0.247860 -0.020000
v -0.565524 0.228323 0.020000
v -0.565524 0.228323 -0.020000
v -0.563569 0.220377 0.020000
v -0.563569 0.220377 -0.020000
v -0.561787 0.212542 0.020000
v -0.561787 0.212542 -0.020000
v -0.560180 0.204831 0.020000
v -0.560180 0.204831 -0.020000
v -0.558751 0.197255 0.020000
v -0.558751 0.197255 -0.020000
v -0.557505 0.189825 0.020000
v -0.557505 0.189825 -0.020000
v -0.556443 0.182554 0.020000
v -0.556443 0.182554 -0.020000
v -0.555569 0.175453 0.020000
v -0.555569 0.175453 -0.020000
v -0.554886 0.168535 0.020000
v -0.554886 0.168535 -0.020000
v -0.554396 0.161812 0.020000
v -0.554396 0.161812 -0.020000
v -0.554100 0.155297 0.020000
v -0.554100 0.155297 -0.020000
v -0.554004 0.149175 0.020000
v -0.554004 0.149175 -0.020000
v -0.320891 0.635584 0.020000
v -0.320891 0.635584 -0.020000
v -0.322505 0.644053 0.020000
v -0.322505 0.644053 -0.020000
v -0.324037 0.652340 0.020000
v -0.324037 0.652340 -0.020000
v -0.325487 0.660411 0.020000
v -0.325487 0.660411 -0.020000
v -0.326854 0.668236 0.020000
v -0.326854 0.668236 -0.020000
v -0.328138 0.675783 0.020000
v -0.328138 0.675783 -0.020000
v -0.329340 0.683021 0.020000
v -0.329340 0.683021 -0.020000
v -0.330460 0.689919 0.020000
v -0.330460 0.689919 -0.020000
v -0.331497 0.696445 0.020000
v -0.331497 0.696445 -0.020000
v -0.332451 0.702568 0.020000
v -0.332451 0.702568 -0.020000
v -0.333322 0.708258 0.020000
v -0.333322 0.708258 -0.020000
v -0.334098 0.713400 0.020000
v -0.334098 0.713400 -0.020000
v -0.335010 0.720321 0.020000
v -0.335010 0.720321 -0.020000
v -0.335801 0.727427 0.020000
v -0.335801 0.727427 -0.020000
v -0.336472 0.734665 0.020000
v -0.336472 0.734665 -0.020000
v -0.337022 0.741965 0.020000
v -0.337022 0.741965 -0.020000
v -0.337450 0.749255 0.020000
v -0.337450 0.749255 -0.020000
v -0.337756 0.756466 0.020000
v -0.337756 0.756466 -0.020000
v -0.337939 0.763528 0.020000
v -0.337939 0.763528 -0.020000
v -0.338000 0.770368 0.020000
v -0.338000 0.770368 -0.020000
v -0.337939 0.776916 0.020000
v -0.337939 0.776916 -0.020000
v -0.337758 0.783097 0.020000
v -0.337758 0.783097 -0.020000
v -0.337458 0.788834 0.020000
v -0.337458 0.788834 -0.020000
v -0.336100 0.805943 0.020000
v -0.336100 0.805943 -0.020000
v -0.455719 0.795975 0.020000
v -0.455719 0.795975 -0.020000
v -0.451145 0.778687 0.020000
v -0.451145 0.778687 -0.020000
v -0.449570 0.772429 0.020000
v -0.449570 0.772429 -0.020000
v -0.447947 0.765717 0.020000
v -0.447947 0.765717 -0.020000
v -0.446299 0.758676 0.020000
v -0.446299 0.758676 -0.020000
v -0.444648 0.751429 0.020000
v -0.444648 0.751429 -0.020000
v -0.443016 0.744097 0.020000
v -0.443016 0.744097 -0.020000
v -0.441423 0.736801 0.020000
v -0.441423 0.736801 -0.020000
v -0.439892 0.729661 0.020000
v -0.439892 0.729661 -0.020000
v -0.438444 0.722795 0.020000
v -0.438444 0.722795 -0.020000
v -0.437099 0.716323 0.020000
v -0.437099 0.716323 -0.020000
v -0.435880 0.710364 0.020000
v -0.435880 0.710364 -0.020000
v -0.434802 0.705018 0.020000
v -0.434802 0.705018 -0.020000
v -0.422573 0.644692 0.020000
v -0.422573 0.644692 -0.020000
v -0.424948 0.644996 0.020000
v -0.424948 0.644996 -0.020000
v -0.441137 0.647232 0.020000
v -0.441137 0.647232 -0.020000
v -0.457326 0.649634 0.020000
v -0.457326 0.649634 -0.020000
v -0.473491 0.652201 0.020000
v -0.473491 0.652201 -0.020000
v -0.489613 0.654934 0.020000
v -0.489613 0.654934 -0.020000
v -0.505670 0.657831 0.020000
v -0.505670 0.657831 -0.020000
v -0.521641 0.660894 0.020000
v -0.521641 0.660894 -0.020000
v -0.537505 0.664121 0.020000
v -0.537505 0.664121 -0.020000
v -0.553240 0.667513 0.020000
v -0.553240 0.667513 -0.020000
v -0.568826 0.671069 0.020000
v -0.568826 0.671069 -0.020000
v -0.584240 0.674789 0.020000
v -0.584240 0.674789 -0.020000
v -0.612000 0.681872 0.020000
v -0.612000 0.681872 -0.020000
v -0.612000 0.581988 0.020000
v -0.612000 0.581988 -0.020000
v -0.587707 0.576559 0.020000
v -0.587707 0.576559 -0.020000
v -0.570878 0.573029 0.020000
v -0.570878 0.573029 -0.020000
v -0.553801 0.569663 0.020000
v -0.553801 0.569663 -0.020000
v -0.536514 0.566455 0.020000
v -0.536514 0.566455 -0.020000
v -0.519054 0.563402 0.020000
v -0.519054 0.563402 -0.020000
v -0.501457 0.560501 0.020000
v -0.501457 0.560501 -0.020000
v -0.483763 0.557747 0.020000
v -0.483763 0.557747 -0.020000
v -0.466008 0.555138 0.020000
v -0.466008 0.555138 -0.020000
v -0.448230 0.552668 0.020000
v -0.448230 0.552668 -0.020000
v -0.430467 0.550335 0.020000
v -0.430467 0.550335 -0.020000
v -0.412756 0.548135 0.020000
v -0.412756 0.548135 -0.020000
v -0.402326 0.546910 0.020000
v -0.402326 0.546910 -0.020000
v -0.401495 0.542901 0.020000
v -0.401495 0.542901 -0.020000
v -0.399112 0.531738 0.020000
v -0.399112 0.531738 -0.020000
v -0.396653 0.520520 0.020000
v -0.396653 0.520520 -0.020000
v -0.394121 0.509261 0.020000
v -0.394121 0.509261 -0.020000
v -0.391519 0.497976 0.020000
v -0.391519 0.497976 -0.020000
v -0.388851 0.486677 0.020000
v -0.388851 0.486677 -0.020000
v -0.386121 0.475378 0.020000
v -0.386121 0.475378 -0.020000
v -0.383331 0.464093 0.020000
v -0.383331 0.464093 -0.020000
v -0.380485 0.452836 0.020000
v -0.380485 0.452836 -0.020000
v -0.377587 0.441621 0.020000
v -0.377587 0.441621 -0.020000
v -0.374640 0.430460 0.020000
v -0.374640 0.430460 -0.020000
v -0.371664 0.419429 0.020000
v -0.371664 0.419429 -0.020000
v -0.362015 0.382650 0.020000
v -0.362015 0.382650 -0.020000
v -0.351173 0.343665 0.020000
v -0.351173 0.343665 -0.020000
v -0.339332 0.303138 0.020000
v -0.339332 0.303138 -0.020000
v -0.326659 0.261618 0.020000
v -0.326659 0.261618 -0.020000
v -0.313318 0.219656 0.020000
v -0.313318 0.219656 -0.020000
v -0.299475 0.177802 0.020000
v -0.299475 0.177802 -0.020000
v -0.285295 0.136609 0.020000
v -0.285295 0.136609 -0.020000
v -0.270943 0.096626 0.020000
v -0.270943 0.096626 -0.020000
v -0.256581 0.058402 0.020000
v -0.256581 0.058402 -0.020000
v -0.242371 0.022482 0.020000
v -0.242371 0.022482 -0.020000
v -0.228472 -0.010592 0.020000
v -0.228472 -0.010592 -0.020000
v -0.211368 -0.048395 0.020000
v -0.211368 -0.048395 -0.020000
v -0.103513 -0.011626 0.020000
v -0.103513 -0.011626 -0.020000
v -0.124333 0.026362 0.020000
v -0.124333 0.026362 -0.020000
v -0.139674 0.057373 0.020000
v -0.139674 0.057373 -0.020000
v -0.155204 0.091494 0.020000
v -0.155204 0.091494 -0.020000
v -0.170752 0.128140 0.020000
v -0.170752 0.128140 -0.020000
v -0.186151 0.166734 0.020000
v -0.186151 0.166734 -0.020000
v -0.201240 0.206703 0.020000
v -0.201240 0.206703 -0.020000
v -0.215857 0.247479 0.020000
v -0.215857 0.247479 -0.020000
v -0.229845 0.288491 0.020000
v -0.229845 0.288491 -0.020000
v -0.243043 0.329171 0.020000
v -0.243043 0.329171 -0.020000
v -0.255295 0.368952 0.020000
v -0.255295 0.368952 -0.020000
v -0.266442 0.407264 0.020000
v -0.266442 0.407264 -0.020000
v -0.276348 0.443615 0.020000
v -0.276348 0.443615 -0.020000
v -0.278586 0.451923 0.020000
v -0.278586 0.451923 -0.020000
v -0.280818 0.460404 0.020000
v -0.280818 0.460404 -0.020000
v -0.283044 0.469049 0.020000
v -0.283044 0.469049 -0.020000
v -0.285262 0.477833 0.020000
v -0.285262 0.477833 -0.020000
v -0.287466 0.486733 0.020000
v -0.287466 0.486733 -0.020000
v -0.289654 0.495722 0.020000
v -0.289654 0.495722 -0.020000
v -0.291822 0.504776 0.020000
v -0.291822 0.504776 -0.020000
v -0.293967 0.513872 0.020000
v -0.293967 0.513872 -0.020000
v -0.296084 0.522983 0.020000
v -0.296084 0.522983 -0.020000
v -0.298171 0.532086 0.020000
v -0.298171 0.532086 -0.020000
v -0.300223 0.541157 0.020000
v -0.300223 0.541157 -0.020000
v -0.299349 0.537245 0.020000
v -0.299349 0.537245 -0.020000
v -0.304353 0.537537 0.020000
v -0.304353 0.537537 -0.020000
v -0.296186 0.537097 0.020000
v -0.296186 0.537097 -0.020000
v -0.288110 0.536699 0.020000
v -0.288110 0.536699 -0.020000
v -0.280126 0.536342 0.020000
v -0.280126 0.536342 -0.020000
v -0.272238 0.536028 0.020000
v -0.272238 0.536028 -0.020000
v -0.264450 0.535755 0.020000
v -0.264450 0.535755 -0.020000
v -0.256765 0.535525 0.020000
v -0.256765 0.535525 -0.020000
v -0.249186 0.535336 0.020000
v -0.249186 0.535336 -0.020000
v -0.241717 0.535189 0.020000
v -0.241717 0.535189 -0.020000
v -0.234360 0.535084 0.020000
v -0.234360 0.535084 -0.020000
v -0.227120 0.535021 0.020000
v -0.227120 0.535021 -0.020000
v -0.219996 0.535000 0.020000
v -0.219996 0.535000 -0.020000
v -0.209088 0.535041 0.020000
v -0.209088 0.535041 -0.020000
v -0.198483 0.535158 0.020000
v -0.198483 0.535158 -0.020000
v -0.188160 0.535346 0.020000
v -0.188160 0.535346 -0.020000
v -0.178091 0.535596 0.020000
v -0.178091 0.535596 -0.020000
v -0.168248 0.535903 0.020000
v -0.168248 0.535903 -0.020000
v -0.158607 0.536258 0.020000
v -0.158607 0.536258 -0.020000
v -0.149138 0.536654 0.020000
v -0.149138 0.536654 -0.020000
v -0.139816 0.537086 0.020000
v -0.139816 0.537086 -0.020000
v -0.130613 0.537544 0.020000
v -0.130613 0.537544 -0.020000
v -0.121502 0.538024 0.020000
v -0.121502 0.538024 -0.020000
v -0.112456 0.538516 0.020000
v -0.112456 0.538516 -0.020000
v -0.094357 0.539519 0.020000
v -0.094357 0.539519 -0.020000
v -0.090558 0.638312 0.020000
v -0.090558 0.638312 -0.020000
v -0.113877 0.635539 0.020000
v -0.113877 0.635539 -0.020000
v -0.125053 0.634348 0.020000
v -0.125053 0.634348 -0.020000
v -0.135812 0.633337 0.020000
v -0.135812 0.633337 -0.020000
v -0.146196 0.632490 0.020000
v -0.146196 0.632490 -0.020000
v -0.156248 0.631795 0.020000
v -0.156248 0.631795 -0.020000
v -0.166013 0.631237 0.020000
v -0.166013 0.631237 -0.020000
v -0.175534 0.630802 0.020000
v -0.175534 0.630802 -0.020000
v -0.184855 0.630477 0.020000
v -0.184855 0.630477 -0.020000
v -0.194019 0.630248 0.020000
v -0.194019 0.630248 -0.020000
v -0.203069 0.630101 0.020000
v -0.203069 0.630101 -0.020000
v -0.212049 0.630023 0.020000
v -0.212049 0.630023 -0.020000
v -0.220988 0.630000 0.020000
v -0.220988 0.630000 -0.020000
v -0.229216 0.630041 0.020000
v -0.229216 0.630041 -0.020000
v -0.237563 0.630160 0.020000
v -0.237563 0.630160 -0.020000
v -0.246042 0.630356 0.020000
v -0.246042 0.630356 -0.020000
v -0.254652 0.630624 0.020000
v -0.254652 0.630624 -0.020000
v -0.263393 0.630961 0.020000
v -0.263393 0.630961 -0.020000
v -0.272265 0.631363 0.020000
v -0.272265 0.631363 -0.020000
v -0.281268 0.631828 0.020000
v -0.281268 0.631828 -0.020000
v -0.290401 0.632352 0.020000
v -0.290401 0.632352 -0.020000
v -0.299665 0.632932 0.020000
v -0.299665 0.632932 -0.020000
v -0.309058 0.633564 0.020000
v -0.309058 0.633564 -0.020000
v -0.318581 0.634245 0.020000
v -0.318581 0.634245 -0.020000
v -0.320658 0.634401 0.020000
v -0.320658 0.634401 -0.020000
vn -0.0000 -0.0000 -1.0000
vn -0.0000 -0.0000 1.0000
vn -0.0169 0.9999 -0.0000
vn -0.0085 1.0000 -0.0000
vn -0.0254 0.9997 -0.0000
vn -0.0340 0.9994 -0.0000
vn -0.0426 0.9991 -0.0000
vn -0.0515 0.9987 -0.0000
vn -0.0605 0.9982 -0.0000
vn -0.0698 0.9976 -0.0000
vn -0.0794 0.9968 -0.0000
vn -0.0893 0.9960 -0.0000
vn -0.0997 0.9950 -0.0000
vn -0.7520 0.6591 -0.0000
vn -0.6492 -0.7606 -0.0000
vn -0.7520 0.6592 -0.0000
vn 0.1261 -0.9920 -0.0000
vn 0.1162 -0.9932 -0.0000
vn 0.1061 -0.9944 -0.0000
vn 0.0959 -0.9954 -0.0000
vn 0.0854 -0.9963 -0.0000
vn 0.0746 -0.9972 -0.0000
vn 0.0635 -0.9980 -0.0000
vn 0.0519 -0.9987 -0.0000
vn 0.0398 -0.9992 -0.0000
vn 0.0271 -0.9996 -0.0000
vn 0.0139 -0.9999 -0.0000
vn 0.0015 -1.0000 -0.0000
vn -0.0081 -1.0000 -0.0000
vn -0.0165 -0.9999 -0.0000
vn -0.0252 -0.9997 -0.0000
vn -0.0341 -0.9994 -0.0000
vn -0.0432 -0.9991 -0.0000
vn -0.0526 -0.9986 -0.0000
vn -0.0622 -0.9981 -0.0000
vn -0.0719 -0.9974 -0.0000
vn -0.0818 -0.9966 -0.0000
vn -0.0919 -0.9958 -0.0000
vn -0.1020 -0.9948 -0.0000
vn -0.0918 -0.9958 -0.0000
vn 0.6682 -0.7440 -0.0000
vn 0.7384 0.6744 -0.0000
vn 0.0871 0.9962 -0.0000
vn 0.0802 0.9968 -0.0000
vn 0.0734 0.9973 -0.0000
vn 0.0665 0.9978 -0.0000
vn 0.0594 0.9982 -0.0000
vn 0.0521 0.9986 -0.0000
vn 0.0445 0.9990 -0.0000
vn 0.0366 0.9993 -0.0000
vn 0.0282 0.9996 -0.0000
vn 0.0194 0.9998 -0.0000
vn 0.0099 1.0000 -0.0000
vn 0.0004 1.0000 -0.0000
vn -0.9698 0.2439 -0.0000
vn -0.9938 0.1109 -0.0000
vn -0.9180 0.3967 -0.0000
vn -0.8320 0.5547 -0.0000
vn -0.7155 0.6986 -0.0000
vn -0.5819 0.8133 -0.0000
vn -0.4479 0.8941 -0.0000
vn -0.3257 0.9455 -0.0000
vn -0.2205 0.9754 -0.0000
vn -0.1328 0.9911 -0.0000
vn -0.0095 1.0000 -0.0000
vn 0.0176 0.9998 -0.0000
vn 0.0349 0.9994 -0.0000
vn 0.0518 0.9987 -0.0000
vn 0.0685 0.9977 -0.0000
vn 0.0851 0.9964 -0.0000
vn 0.1018 0.9948 -0.0000
vn 0.1185 0.9930 -0.0000
vn 0.1355 0.9908 -0.0000
vn 0.1529 0.9882 -0.0000
vn 0.1708 0.9853 -0.0000
vn 0.1893 0.9819 -0.0000
vn -0.6472 0.7623 -0.0000
vn -0.7430 -0.6693 -0.0000
vn -0.6472 0.7624 -0.0000
vn -0.1352 -0.9908 -0.0000
vn -0.1238 -0.9923 -0.0000
vn -0.1123 -0.9937 -0.0000
vn -0.1007 -0.9949 -0.0000
vn -0.0889 -0.9960 -0.0000
vn -0.0769 -0.9970 -0.0000
vn -0.0647 -0.9979 -0.0000
vn -0.0523 -0.9986 -0.0000
vn -0.0397 -0.9992 -0.0000
vn -0.0267 -0.9996 -0.0000
vn -0.0135 -0.9999 -0.0000
vn 0.0098 -1.0000 -0.0000
vn 0.0561 -0.9984 -0.0000
vn 0.1211 -0.9926 -0.0000
vn 0.1977 -0.9803 -0.0000
vn 0.2880 -0.9576 -0.0000
vn 0.3929 -0.9196 -0.0000
vn 0.5112 -0.8594 -0.0000
vn 0.6377 -0.7703 -0.0000
vn 0.7616 -0.6481 -0.0000
vn 0.8682 -0.4962 -0.0000
vn 0.9450 -0.3271 -0.0000
vn 0.9875 -0.1578 -0.0000
vn 0.9995 -0.0302 -0.0000
vn 0.9996 0.0287 -0.0000
vn 0.9984 0.0558 -0.0000
vn 0.9967 0.0806 -0.0000
vn 0.9947 0.1031 -0.0000
vn 0.9924 0.1229 -0.0000
vn 0.9901 0.1401 -0.0000
vn 0.9880 0.1545 -0.0000
vn 0.9861 0.1662 -0.0000
vn 0.9845 0.1752 -0.0000
vn 0.9834 0.1816 -0.0000
vn 0.9827 0.1854 -0.0000
vn 0.6012 0.7991 -0.0000
vn -0.8198 0.5727 -0.0000
vn -0.9690 -0.2471 -0.0000
vn -0.8197 0.5727 -0.0000
vn -0.9731 -0.2304 -0.0000
vn -0.9771 -0.2130 -0.0000
vn -0.9809 -0.1947 -0.0000
vn -0.9845 -0.1754 -0.0000
vn -0.9879 -0.1550 -0.0000
vn -0.9911 -0.1333 -0.0000
vn -0.9939 -0.1102 -0.0000
vn -0.9963 -0.0855 -0.0000
vn -0.9983 -0.0590 -0.0000
vn -0.9995 -0.0305 -0.0000
vn -0.9983 -0.0591 -0.0000
vn -0.9998 0.0175 -0.0000
vn 0.9828 0.1845 -0.0000
vn 0.9818 0.1902 -0.0000
vn 0.9818 0.1901 -0.0000
vn 0.9838 0.1793 -0.0000
vn 0.9847 0.1744 -0.0000
vn 0.9855 0.1700 -0.0000
vn 0.9862 0.1658 -0.0000
vn 0.9868 0.1620 -0.0000
vn 0.9874 0.1585 -0.0000
vn 0.9878 0.1554 -0.0000
vn 0.9883 0.1527 -0.0000
vn 0.9886 0.1503 -0.0000
vn 0.9902 0.1400 -0.0000
vn 0.9927 0.1207 -0.0000
vn 0.9948 0.1015 -0.0000
vn 0.9965 0.0837 -0.0000
vn 0.9978 0.0668 -0.0000
vn 0.9987 0.0505 -0.0000
vn 0.9978 0.0669 -0.0000
vn 0.9994 0.0341 -0.0000
vn 0.9998 0.0174 -0.0000
vn 1.0000 -0.0002 -0.0000
vn 0.9998 -0.0193 -0.0000
vn 0.9992 -0.0407 -0.0000
vn 0.9978 -0.0657 -0.0000
vn 0.7057 0.7085 -0.0000
vn -0.8171 0.5765 -0.0000
vn -0.9683 -0.2499 -0.0000
vn -0.8170 0.5766 -0.0000
vn -0.9709 -0.2395 -0.0000
vn -0.9728 -0.2315 -0.0000
vn -0.9744 -0.2250 -0.0000
vn -0.9756 -0.2197 -0.0000
vn -0.9766 -0.2153 -0.0000
vn -0.9774 -0.2114 -0.0000
vn -0.9781 -0.2080 -0.0000
vn -0.9788 -0.2049 -0.0000
vn -0.9794 -0.2020 -0.0000
vn -0.9800 -0.1991 -0.0000
vn -0.9802 -0.1982 -0.0000
vn -0.7323 0.6810 -0.0000
vn 0.1319 0.9913 -0.0000
vn 0.1418 0.9899 -0.0000
vn 0.1518 0.9884 -0.0000
vn 0.1620 0.9868 -0.0000
vn 0.1723 0.9850 -0.0000
vn 0.1830 0.9831 -0.0000
vn 0.1938 0.9810 -0.0000
vn 0.2050 0.9788 -0.0000
vn 0.2166 0.9763 -0.0000
vn 0.2285 0.9735 -0.0000
vn 0.2409 0.9705 -0.0000
vn -0.6135 0.7897 -0.0000
vn -0.7804 -0.6253 -0.0000
vn -0.2117 -0.9773 -0.0000
vn -0.1994 -0.9799 -0.0000
vn -0.1879 -0.9822 -0.0000
vn -0.1773 -0.9842 -0.0000
vn -0.1674 -0.9859 -0.0000
vn -0.1582 -0.9874 -0.0000
vn -0.1496 -0.9887 -0.0000
vn -0.1415 -0.9899 -0.0000
vn -0.1339 -0.9910 -0.0000
vn -0.1267 -0.9919 -0.0000
vn -0.1200 -0.9928 -0.0000
vn -0.6755 -0.7374 -0.0000
vn -0.9786 -0.2060 -0.0000
vn -0.6754 -0.7374 -0.0000
vn -0.9762 -0.2168 -0.0000
vn -0.9750 -0.2220 -0.0000
vn -0.9738 -0.2272 -0.0000
vn -0.9726 -0.2323 -0.0000
vn -0.9714 -0.2374 -0.0000
vn -0.9701 -0.2425 -0.0000
vn -0.9689 -0.2476 -0.0000
vn -0.9675 -0.2527 -0.0000
vn -0.9662 -0.2579 -0.0000
vn -0.9664 -0.2571 -0.0000
vn -0.9654 -0.2609 -0.0000
vn -0.9617 -0.2742 -0.0000
vn -0.9582 -0.2862 -0.0000
vn -0.9547 -0.2975 -0.0000
vn -0.9512 -0.3085 -0.0000
vn -0.9475 -0.3198 -0.0000
vn -0.9434 -0.3317 -0.0000
vn -0.9387 -0.3448 -0.0000
vn -0.9330 -0.3598 -0.0000
vn -0.9259 -0.3777 -0.0000
vn -0.9166 -0.3999 -0.0000
vn -0.3974 -0.9176 -0.0000
vn 0.9322 -0.3620 -0.0000
vn 0.8868 0.4621 -0.0000
vn 0.9034 0.4289 -0.0000
vn 0.9154 0.4025 -0.0000
vn 0.9247 0.3806 -0.0000
vn 0.9322 0.3619 -0.0000
vn 0.9385 0.3453 -0.0000
vn 0.9439 0.3301 -0.0000
vn 0.9489 0.3157 -0.0000
vn 0.9535 0.3015 -0.0000
vn 0.9580 0.2869 -0.0000
vn 0.9625 0.2712 -0.0000
vn 0.9652 0.2615 -0.0000
vn 0.9663 0.2573 -0.0000
vn 0.9677 0.2520 -0.0000
vn 0.9690 0.2471 -0.0000
vn 0.9701 0.2426 -0.0000
vn 0.9711 0.2385 -0.0000
vn 0.9721 0.2347 -0.0000
vn 0.9729 0.2312 -0.0000
vn 0.9737 0.2279 -0.0000
vn 0.9744 0.2249 -0.0000
vn 0.9750 0.2221 -0.0000
vn -0.2321 0.9727 -0.0000
vn -0.7619 0.6477 -0.0000
vn -0.2237 0.9747 -0.0000
vn 0.9985 -0.0551 -0.0000
vn -0.0515 -0.9987 -0.0000
vn 0.9987 -0.0505 -0.0000
vn -0.0469 -0.9989 -0.0000
vn -0.0422 -0.9991 -0.0000
vn -0.0374 -0.9993 -0.0000
vn -0.0325 -0.9995 -0.0000
vn -0.0275 -0.9996 -0.0000
vn -0.0223 -0.9998 -0.0000
vn -0.0170 -0.9999 -0.0000
vn -0.0115 -0.9999 -0.0000
vn -0.0058 -1.0000 -0.0000
vn 0.0004 -1.0000 -0.0000
vn 0.0074 -1.0000 -0.0000
vn 0.0146 -0.9999 -0.0000
vn 0.0215 -0.9998 -0.0000
vn 0.0280 -0.9996 -0.0000
vn 0.0339 -0.9994 -0.0000
vn 0.0393 -0.9992 -0.0000
vn 0.0440 -0.9990 -0.0000
vn 0.0480 -0.9988 -0.0000
vn 0.0512 -0.9987 -0.0000
vn 0.0535 -0.9986 -0.0000
vn 0.0548 -0.9985 -0.0000
vn 0.7131 -0.7011 -0.0000
vn 0.6783 0.7348 -0.0000
vn 0.7130 -0.7011 -0.0000
vn -0.1120 0.9937 -0.0000
vn -0.0998 0.9950 -0.0000
vn -0.0874 0.9962 -0.0000
vn -0.0751 0.9972 -0.0000
vn -0.0630 0.9980 -0.0000
vn -0.0513 0.9987 -0.0000
vn -0.0402 0.9992 -0.0000
vn -0.0299 0.9996 -0.0000
vn -0.0206 0.9998 -0.0000
vn -0.0125 0.9999 -0.0000
vn -0.0056 1.0000 -0.0000
vn 0.0012 1.0000 -0.0000
vn 0.0096 1.0000 -0.0000
vn 0.0187 0.9998 -0.0000
vn 0.0271 0.9996 -0.0000
vn 0.0348 0.9994 -0.0000
vn 0.0419 0.9991 -0.0000
vn 0.0485 0.9988 -0.0000
vn 0.0544 0.9985 -0.0000
vn 0.0599 0.9982 -0.0000
vn 0.0648 0.9979 -0.0000
vn 0.0692 0.9976 -0.0000
vn 0.0731 0.9973 -0.0000
vn 0.6637 0.7480 -0.0000
vt 0.316221 0.772535
vt 0.316611 0.772535
vt 0.316416 0.772535
vt 0.316806 0.772535
vt 0.316026 0.772535
vt 0.315831 0.772535
vt 0.317001 0.772535
vt 0.315636 0.772535
vt 0.317196 0.772535
vt 0.315441 0.772535
vt 0.317391 0.772535
vt 0.315246 0.772535
vt 0.317586 0.772535
vt 0.315051 0.772535
vt 0.317780 0.772535
vt 0.314856 0.772535
vt 0.317975 0.772535
vt 0.314662 0.772535
vt 0.318170 0.772535
vt 0.314467 0.772535
vt 0.318365 0.772535
vt 0.314272 0.772535
vt 0.318560 0.772535
vt 0.314077 0.772535
vt 0.318755 0.772535
vt 0.313882 0.772535
vt 0.318950 0.772535
vt 0.313687 0.772535
vt 0.319145 0.772535
vt 0.313492 0.772535
vt 0.313297 0.772535
vt 0.313102 0.772535
vt 0.312907 0.772535
vt 0.321289 0.772535
vt 0.321679 0.772535
vt 0.321484 0.772535
vt 0.312712 0.772535
vt 0.321094 0.772535
vt 0.320899 0.772535
vt 0.312517 0.772535
vt 0.320704 0.772535
vt 0.320510 0.772535
vt 0.320315 0.772535
vt 0.312322 0.772535
vt 0.320120 0.772535
vt 0.319925 0.772535
vt 0.312127 0.772535
vt 0.319730 0.772535
vt 0.319535 0.772535
vt 0.319340 0.772535
vt 0.311933 0.772535
vt 0.338248 0.772535
vt 0.338638 0.772535
vt 0.338443 0.772535
vt 0.343122 0.772535
vt 0.338833 0.772535
vt 0.342927 0.772535
vt 0.339028 0.772535
vt 0.342732 0.772535
vt 0.342537 0.772535
vt 0.339223 0.772535
vt 0.342342 0.772535
vt 0.339418 0.772535
vt 0.342147 0.772535
vt 0.341952 0.772535
vt 0.339613 0.772535
vt 0.341757 0.772535
vt 0.339808 0.772535
vt 0.341562 0.772535
vt 0.340003 0.772535
vt 0.341367 0.772535
vt 0.340198 0.772535
vt 0.341172 0.772535
vt 0.340393 0.772535
vt 0.340977 0.772535
vt 0.340588 0.772535
vt 0.340782 0.772535
vt 0.321874 0.772535
vt 0.322069 0.772535
vt 0.322264 0.772535
vt 0.322459 0.772535
vt 0.322654 0.772535
vt 0.322849 0.772535
vt 0.323044 0.772535
vt 0.323239 0.772535
vt 0.323433 0.772535
vt 0.323628 0.772535
vt 0.323823 0.772535
vt 0.324018 0.772535
vt 0.324213 0.772535
vt 0.333375 0.772535
vt 0.324408 0.772535
vt 0.333960 0.772535
vt 0.333180 0.772535
vt 0.333570 0.772535
vt 0.333765 0.772535
vt 0.338053 0.772535
vt 0.337858 0.772535
vt 0.337664 0.772535
vt 0.337469 0.772535
vt 0.334155 0.772535
vt 0.337274 0.772535
vt 0.334350 0.772535
vt 0.337079 0.772535
vt 0.334545 0.772535
vt 0.336884 0.772535
vt 0.334740 0.772535
vt 0.336689 0.772535
vt 0.334935 0.772535
vt 0.336494 0.772535
vt 0.335129 0.772535
vt 0.336299 0.772535
vt 0.335324 0.772535
vt 0.335519 0.772535
vt 0.336104 0.772535
vt 0.335714 0.772535
vt 0.335909 0.772535
vt 0.332985 0.772535
vt 0.324603 0.772535
vt 0.332790 0.772535
vt 0.324798 0.772535
vt 0.332595 0.772535
vt 0.324993 0.772535
vt 0.332400 0.772535
vt 0.297118 0.772535
vt 0.287761 0.772535
vt 0.297313 0.772535
vt 0.287956 0.772535
vt 0.296923 0.772535
vt 0.288151 0.772535
vt 0.296728 0.772535
vt 0.288346 0.772535
vt 0.296533 0.772535
vt 0.288541 0.772535
vt 0.296338 0.772535
vt 0.288736 0.772535
vt 0.296143 0.772535
vt 0.288931 0.772535
vt 0.295948 0.772535
vt 0.325188 0.772535
vt 0.289125 0.772535
vt 0.295753 0.772535
vt 0.289320 0.772535
vt 0.295558 0.772535
vt 0.289515 0.772535
vt 0.332205 0.772535
vt 0.295363 0.772535
vt 0.289710 0.772535
vt 0.295168 0.772535
vt 0.289905 0.772535
vt 0.294973 0.772535
vt 0.294778 0.772535
vt 0.294584 0.772535
vt 0.294389 0.772535
vt 0.294194 0.772535
vt 0.293999 0.772535
vt 0.293804 0.772535
vt 0.293609 0.772535
vt 0.293414 0.772535
vt 0.293219 0.772535
vt 0.293024 0.772535
vt 0.292829 0.772535
vt 0.292634 0.772535
vt 0.292439 0.772535
vt 0.292244 0.772535
vt 0.292049 0.772535
vt 0.291855 0.772535
vt 0.291660 0.772535
vt 0.291465 0.772535
vt 0.291270 0.772535
vt 0.291075 0.772535
vt 0.290880 0.772535
vt 0.290685 0.772535
vt 0.290490 0.772535
vt 0.290295 0.772535
vt 0.290100 0.772535
vt 0.332010 0.772535
vt 0.325383 0.772535
vt 0.331816 0.772535
vt 0.325578 0.772535
vt 0.331621 0.772535
vt 0.325773 0.772535
vt 0.331426 0.772535
vt 0.325968 0.772535
vt 0.331231 0.772535
vt 0.331036 0.772535
vt 0.326163 0.772535
vt 0.326357 0.772535
vt 0.326552 0.772535
vt 0.330841 0.772535
vt 0.326747 0.772535
vt 0.330646 0.772535
vt 0.326942 0.772535
vt 0.330451 0.772535
vt 0.327137 0.772535
vt 0.330256 0.772535
vt 0.327332 0.772535
vt 0.309009 0.772535
vt 0.309398 0.772535
vt 0.309203 0.772535
vt 0.309593 0.772535
vt 0.330061 0.772535
vt 0.308814 0.772535
vt 0.309788 0.772535
vt 0.308619 0.772535
vt 0.309983 0.772535
vt 0.327527 0.772535
vt 0.308424 0.772535
vt 0.310178 0.772535
vt 0.308229 0.772535
vt 0.329866 0.772535
vt 0.310373 0.772535
vt 0.310568 0.772535
vt 0.308034 0.772535
vt 0.310763 0.772535
vt 0.307839 0.772535
vt 0.310958 0.772535
vt 0.327722 0.772535
vt 0.307644 0.772535
vt 0.311153 0.772535
vt 0.311348 0.772535
vt 0.307449 0.772535
vt 0.329671 0.772535
vt 0.311543 0.772535
vt 0.307254 0.772535
vt 0.311738 0.772535
vt 0.297508 0.772535
vt 0.307059 0.772535
vt 0.297702 0.772535
vt 0.306864 0.772535
vt 0.327917 0.772535
vt 0.297897 0.772535
vt 0.329476 0.772535
vt 0.306669 0.772535
vt 0.298092 0.772535
vt 0.298287 0.772535
vt 0.306474 0.772535
vt 0.298482 0.772535
vt 0.328112 0.772535
vt 0.298677 0.772535
vt 0.329281 0.772535
vt 0.301796 0.772535
vt 0.302186 0.772535
vt 0.301991 0.772535
vt 0.298872 0.772535
vt 0.301601 0.772535
vt 0.301406 0.772535
vt 0.306279 0.772535
vt 0.299067 0.772535
vt 0.301211 0.772535
vt 0.301016 0.772535
vt 0.299262 0.772535
vt 0.300821 0.772535
vt 0.300626 0.772535
vt 0.299457 0.772535
vt 0.300432 0.772535
vt 0.300237 0.772535
vt 0.300042 0.772535
vt 0.299652 0.772535
vt 0.299847 0.772535
vt 0.328307 0.772535
vt 0.306085 0.772535
vt 0.329087 0.772535
vt 0.305890 0.772535
vt 0.328892 0.772535
vt 0.305695 0.772535
vt 0.328502 0.772535
vt 0.305500 0.772535
vt 0.305305 0.772535
vt 0.328697 0.772535
vt 0.305110 0.772535
vt 0.302381 0.772535
vt 0.302576 0.772535
vt 0.302771 0.772535
vt 0.304915 0.772535
vt 0.302966 0.772535
vt 0.303161 0.772535
vt 0.303355 0.772535
vt 0.304720 0.772535
vt 0.303550 0.772535
vt 0.303745 0.772535
vt 0.303940 0.772535
vt 0.304135 0.772535
vt 0.304525 0.772535
vt 0.304330 0.772535
vt 0.288868 0.827896
vt 0.287761 0.827896
vt 0.289975 0.827896
vt 0.288868 0.772535
vt 0.291083 0.827896
vt 0.289975 0.772535
vt 0.292190 0.827896
vt 0.291083 0.772535
vt 0.293297 0.827896
vt 0.292190 0.772535
vt 0.294404 0.827896
vt 0.293297 0.772535
vt 0.295511 0.827896
vt 0.294404 0.772535
vt 0.296619 0.827896
vt 0.295511 0.772535
vt 0.297726 0.827896
vt 0.296619 0.772535
vt 0.298833 0.827896
vt 0.297726 0.772535
vt 0.299940 0.827896
vt 0.298833 0.772535
vt 0.301048 0.827896
vt 0.299940 0.772535
vt 0.302155 0.827896
vt 0.301048 0.772535
vt 0.303262 0.827896
vt 0.302155 0.772535
vt 0.304369 0.827896
vt 0.303262 0.772535
vt 0.305476 0.827896
vt 0.304369 0.772535
vt 0.306584 0.827896
vt 0.305476 0.772535
vt 0.307691 0.827896
vt 0.306584 0.772535
vt 0.308798 0.827896
vt 0.307691 0.772535
vt 0.309905 0.827896
vt 0.308798 0.772535
vt 0.311012 0.827896
vt 0.309905 0.772535
vt 0.312120 0.827896
vt 0.311012 0.772535
vt 0.313227 0.827896
vt 0.312120 0.772535
vt 0.314334 0.827896
vt 0.313227 0.772535
vt 0.315441 0.827896
vt 0.314334 0.772535
vt 0.316548 0.827896
vt 0.317656 0.827896
vt 0.316548 0.772535
vt 0.318763 0.827896
vt 0.317656 0.772535
vt 0.319870 0.827896
vt 0.318763 0.772535
vt 0.320977 0.827896
vt 0.319870 0.772535
vt 0.322085 0.827896
vt 0.320977 0.772535
vt 0.323192 0.827896
vt 0.322085 0.772535
vt 0.324299 0.827896
vt 0.323192 0.772535
vt 0.325406 0.827896
vt 0.324299 0.772535
vt 0.326513 0.827896
vt 0.325406 0.772535
vt 0.327621 0.827896
vt 0.326513 0.772535
vt 0.328728 0.827896
vt 0.327621 0.772535
vt 0.329835 0.827896
vt 0.328728 0.772535
vt 0.330942 0.827896
vt 0.329835 0.772535
vt 0.332049 0.827896
vt 0.330942 0.772535
vt 0.333157 0.827896
vt 0.332049 0.772535
vt 0.334264 0.827896
vt 0.333157 0.772535
vt 0.335371 0.827896
vt 0.334264 0.772535
vt 0.336478 0.827896
vt 0.335371 0.772535
vt 0.337586 0.827896
vt 0.336478 0.772535
vt 0.338693 0.827896
vt 0.337586 0.772535
vt 0.339800 0.827896
vt 0.338693 0.772535
vt 0.340907 0.827896
vt 0.339800 0.772535
vt 0.342014 0.827896
vt 0.340907 0.772535
vt 0.343122 0.827896
vt 0.342014 0.772535
vt 0.288509 0.827896
vt 0.289257 0.827896
vt 0.288509 0.772535
vt 0.290005 0.827896
vt 0.289257 0.772535
vt 0.290753 0.827896
vt 0.290005 0.772535
vt 0.291502 0.827896
vt 0.290753 0.772535
vt 0.292250 0.827896
vt 0.291502 0.772535
vt 0.292998 0.827896
vt 0.292250 0.772535
vt 0.293746 0.827896
vt 0.292998 0.772535
vt 0.294494 0.827896
vt 0.293746 0.772535
vt 0.295242 0.827896
vt 0.294494 0.772535
vt 0.295990 0.827896
vt 0.295242 0.772535
vt 0.296738 0.827896
vt 0.295990 0.772535
vt 0.297486 0.827896
vt 0.296738 0.772535
vt 0.298235 0.827896
vt 0.297486 0.772535
vt 0.298983 0.827896
vt 0.298235 0.772535
vt 0.299731 0.827896
vt 0.298983 0.772535
vt 0.300479 0.827896
vt 0.299731 0.772535
vt 0.301227 0.827896
vt 0.300479 0.772535
vt 0.301975 0.827896
vt 0.301227 0.772535
vt 0.302723 0.827896
vt 0.301975 0.772535
vt 0.303471 0.827896
vt 0.302723 0.772535
vt 0.304220 0.827896
vt 0.303471 0.772535
vt 0.304968 0.827896
vt 0.304220 0.772535
vt 0.305716 0.827896
vt 0.304968 0.772535
vt 0.306464 0.827896
vt 0.305716 0.772535
vt 0.307212 0.827896
vt 0.306464 0.772535
vt 0.307960 0.827896
vt 0.307212 0.772535
vt 0.308708 0.827896
vt 0.307960 0.772535
vt 0.309456 0.827896
vt 0.308708 0.772535
vt 0.310204 0.827896
vt 0.309456 0.772535
vt 0.310953 0.827896
vt 0.310204 0.772535
vt 0.311701 0.827896
vt 0.310953 0.772535
vt 0.312449 0.827896
vt 0.311701 0.772535
vt 0.313197 0.827896
vt 0.312449 0.772535
vt 0.313945 0.827896
vt 0.313197 0.772535
vt 0.314693 0.827896
vt 0.313945 0.772535
vt 0.314693 0.772535
vt 0.316189 0.827896
vt 0.316938 0.827896
vt 0.316189 0.772535
vt 0.317686 0.827896
vt 0.316938 0.772535
vt 0.318434 0.827896
vt 0.317686 0.772535
vt 0.319182 0.827896
vt 0.318434 0.772535
vt 0.319930 0.827896
vt 0.319182 0.772535
vt 0.320678 0.827896
vt 0.319930 0.772535
vt 0.321426 0.827896
vt 0.320678 0.772535
vt 0.322174 0.827896
vt 0.321426 0.772535
vt 0.322922 0.827896
vt 0.322174 0.772535
vt 0.323671 0.827896
vt 0.322922 0.772535
vt 0.324419 0.827896
vt 0.323671 0.772535
vt 0.325167 0.827896
vt 0.324419 0.772535
vt 0.325915 0.827896
vt 0.325167 0.772535
vt 0.326663 0.827896
vt 0.325915 0.772535
vt 0.327411 0.827896
vt 0.326663 0.772535
vt 0.328159 0.827896
vt 0.327411 0.772535
vt 0.328907 0.827896
vt 0.328159 0.772535
vt 0.329655 0.827896
vt 0.328907 0.772535
vt 0.330404 0.827896
vt 0.329655 0.772535
vt 0.331152 0.827896
vt 0.330404 0.772535
vt 0.331900 0.827896
vt 0.331152 0.772535
vt 0.332648 0.827896
vt 0.331900 0.772535
vt 0.333396 0.827896
vt 0.332648 0.772535
vt 0.334144 0.827896
vt 0.333396 0.772535
vt 0.334892 0.827896
vt 0.334144 0.772535
vt 0.335640 0.827896
vt 0.334892 0.772535
vt 0.336389 0.827896
vt 0.335640 0.772535
vt 0.337137 0.827896
vt 0.336389 0.772535
vt 0.337885 0.827896
vt 0.337137 0.772535
vt 0.338633 0.827896
vt 0.337885 0.772535
vt 0.339381 0.827896
vt 0.338633 0.772535
vt 0.340129 0.827896
vt 0.339381 0.772535
vt 0.340877 0.827896
vt 0.340129 0.772535
vt 0.341625 0.827896
vt 0.340877 0.772535
vt 0.342374 0.827896
vt 0.341625 0.772535
vt 0.342374 0.772535
vt 0.288105 0.827896
vt 0.288449 0.827896
vt 0.288105 0.772535
vt 0.288793 0.827896
vt 0.288449 0.772535
vt 0.289136 0.827896
vt 0.288793 0.772535
vt 0.289480 0.827896
vt 0.289136 0.772535
vt 0.289824 0.827896
vt 0.289480 0.772535
vt 0.290168 0.827896
vt 0.289824 0.772535
vt 0.290512 0.827896
vt 0.290168 0.772535
vt 0.290856 0.827896
vt 0.290512 0.772535
vt 0.291200 0.827896
vt 0.290856 0.772535
vt 0.291543 0.827896
vt 0.291200 0.772535
vt 0.291887 0.827896
vt 0.291543 0.772535
vt 0.292231 0.827896
vt 0.291887 0.772535
vt 0.292575 0.827896
vt 0.292231 0.772535
vt 0.292919 0.827896
vt 0.292575 0.772535
vt 0.293263 0.827896
vt 0.292919 0.772535
vt 0.293606 0.827896
vt 0.293263 0.772535
vt 0.293950 0.827896
vt 0.293606 0.772535
vt 0.294294 0.827896
vt 0.293950 0.772535
vt 0.294638 0.827896
vt 0.294294 0.772535
vt 0.294982 0.827896
vt 0.294638 0.772535
vt 0.295326 0.827896
vt 0.294982 0.772535
vt 0.295670 0.827896
vt 0.295326 0.772535
vt 0.296013 0.827896
vt 0.295670 0.772535
vt 0.296357 0.827896
vt 0.296013 0.772535
vt 0.296701 0.827896
vt 0.296357 0.772535
vt 0.297045 0.827896
vt 0.296701 0.772535
vt 0.297389 0.827896
vt 0.297045 0.772535
vt 0.297733 0.827896
vt 0.297389 0.772535
vt 0.298077 0.827896
vt 0.297733 0.772535
vt 0.298420 0.827896
vt 0.298077 0.772535
vt 0.298764 0.827896
vt 0.298420 0.772535
vt 0.299108 0.827896
vt 0.298764 0.772535
vt 0.299452 0.827896
vt 0.299108 0.772535
vt 0.299796 0.827896
vt 0.299452 0.772535
vt 0.300140 0.827896
vt 0.299796 0.772535
vt 0.300484 0.827896
vt 0.300140 0.772535
vt 0.300827 0.827896
vt 0.300484 0.772535
vt 0.301171 0.827896
vt 0.300827 0.772535
vt 0.301515 0.827896
vt 0.301171 0.772535
vt 0.301859 0.827896
vt 0.301515 0.772535
vt 0.302203 0.827896
vt 0.301859 0.772535
vt 0.302547 0.827896
vt 0.302203 0.772535
vt 0.302891 0.827896
vt 0.302547 0.772535
vt 0.303234 0.827896
vt 0.302891 0.772535
vt 0.303578 0.827896
vt 0.303234 0.772535
vt 0.303922 0.827896
vt 0.303578 0.772535
vt 0.304266 0.827896
vt 0.303922 0.772535
vt 0.304610 0.827896
vt 0.304266 0.772535
vt 0.304954 0.827896
vt 0.304610 0.772535
vt 0.305298 0.827896
vt 0.304954 0.772535
vt 0.305641 0.827896
vt 0.305298 0.772535
vt 0.305985 0.827896
vt 0.305641 0.772535
vt 0.306329 0.827896
vt 0.305985 0.772535
vt 0.306673 0.827896
vt 0.306329 0.772535
vt 0.307017 0.827896
vt 0.306673 0.772535
vt 0.307361 0.827896
vt 0.307017 0.772535
vt 0.307705 0.827896
vt 0.307361 0.772535
vt 0.308048 0.827896
vt 0.307705 0.772535
vt 0.308392 0.827896
vt 0.308048 0.772535
vt 0.308736 0.827896
vt 0.308392 0.772535
vt 0.309080 0.827896
vt 0.308736 0.772535
vt 0.309424 0.827896
vt 0.309080 0.772535
vt 0.309768 0.827896
vt 0.309424 0.772535
vt 0.310112 0.827896
vt 0.309768 0.772535
vt 0.310455 0.827896
vt 0.310112 0.772535
vt 0.310799 0.827896
vt 0.310455 0.772535
vt 0.311143 0.827896
vt 0.310799 0.772535
vt 0.311487 0.827896
vt 0.311143 0.772535
vt 0.311831 0.827896
vt 0.311487 0.772535
vt 0.312175 0.827896
vt 0.311831 0.772535
vt 0.312519 0.827896
vt 0.312175 0.772535
vt 0.312862 0.827896
vt 0.312519 0.772535
vt 0.313206 0.827896
vt 0.312862 0.772535
vt 0.313550 0.827896
vt 0.313206 0.772535
vt 0.313894 0.827896
vt 0.313550 0.772535
vt 0.314238 0.827896
vt 0.313894 0.772535
vt 0.314582 0.827896
vt 0.314238 0.772535
vt 0.314925 0.827896
vt 0.314582 0.772535
vt 0.315269 0.827896
vt 0.314925 0.772535
vt 0.315613 0.827896
vt 0.315269 0.772535
vt 0.315957 0.827896
vt 0.315613 0.772535
vt 0.316301 0.827896
vt 0.315957 0.772535
vt 0.316645 0.827896
vt 0.316301 0.772535
vt 0.316989 0.827896
vt 0.316645 0.772535
vt 0.317332 0.827896
vt 0.316989 0.772535
vt 0.317676 0.827896
vt 0.317332 0.772535
vt 0.318020 0.827896
vt 0.317676 0.772535
vt 0.318364 0.827896
vt 0.318020 0.772535
vt 0.318708 0.827896
vt 0.318364 0.772535
vt 0.319052 0.827896
vt 0.318708 0.772535
vt 0.319396 0.827896
vt 0.319052 0.772535
vt 0.319739 0.827896
vt 0.319396 0.772535
vt 0.320083 0.827896
vt 0.319739 0.772535
vt 0.320427 0.827896
vt 0.320083 0.772535
vt 0.320771 0.827896
vt 0.320427 0.772535
vt 0.321115 0.827896
vt 0.320771 0.772535
vt 0.321459 0.827896
vt 0.321115 0.772535
vt 0.321803 0.827896
vt 0.321459 0.772535
vt 0.322146 0.827896
vt 0.321803 0.772535
vt 0.322490 0.827896
vt 0.322146 0.772535
vt 0.322834 0.827896
vt 0.322490 0.772535
vt 0.323178 0.827896
vt 0.322834 0.772535
vt 0.323522 0.827896
vt 0.323178 0.772535
vt 0.323866 0.827896
vt 0.323522 0.772535
vt 0.324210 0.827896
vt 0.323866 0.772535
vt 0.324553 0.827896
vt 0.324210 0.772535
vt 0.324897 0.827896
vt 0.324553 0.772535
vt 0.325241 0.827896
vt 0.324897 0.772535
vt 0.325585 0.827896
vt 0.325241 0.772535
vt 0.325929 0.827896
vt 0.325585 0.772535
vt 0.326273 0.827896
vt 0.325929 0.772535
vt 0.326617 0.827896
vt 0.326273 0.772535
vt 0.326960 0.827896
vt 0.326617 0.772535
vt 0.327304 0.827896
vt 0.326960 0.772535
vt 0.327648 0.827896
vt 0.327304 0.772535
vt 0.327992 0.827896
vt 0.327648 0.772535
vt 0.328336 0.827896
vt 0.327992 0.772535
vt 0.328680 0.827896
vt 0.328336 0.772535
vt 0.329024 0.827896
vt 0.328680 0.772535
vt 0.329367 0.827896
vt 0.329024 0.772535
vt 0.329711 0.827896
vt 0.329367 0.772535
vt 0.330055 0.827896
vt 0.329711 0.772535
vt 0.330399 0.827896
vt 0.330055 0.772535
vt 0.330743 0.827896
vt 0.330399 0.772535
vt 0.331087 0.827896
vt 0.330743 0.772535
vt 0.331431 0.827896
vt 0.331087 0.772535
vt 0.331774 0.827896
vt 0.331431 0.772535
vt 0.332118 0.827896
vt 0.331774 0.772535
vt 0.332462 0.827896
vt 0.332118 0.772535
vt 0.332806 0.827896
vt 0.332462 0.772535
vt 0.333150 0.827896
vt 0.332806 0.772535
vt 0.333494 0.827896
vt 0.333150 0.772535
vt 0.333838 0.827896
vt 0.333494 0.772535
vt 0.334181 0.827896
vt 0.333838 0.772535
vt 0.334525 0.827896
vt 0.334181 0.772535
vt 0.334869 0.827896
vt 0.334525 0.772535
vt 0.335213 0.827896
vt 0.334869 0.772535
vt 0.335557 0.827896
vt 0.335213 0.772535
vt 0.335901 0.827896
vt 0.335557 0.772535
vt 0.336244 0.827896
vt 0.335901 0.772535
vt 0.336588 0.827896
vt 0.336244 0.772535
vt 0.336932 0.827896
vt 0.336588 0.772535
vt 0.337276 0.827896
vt 0.336932 0.772535
vt 0.337620 0.827896
vt 0.337276 0.772535
vt 0.337964 0.827896
vt 0.337620 0.772535
vt 0.338308 0.827896
vt 0.337964 0.772535
vt 0.338652 0.827896
vt 0.338308 0.772535
vt 0.338995 0.827896
vt 0.338652 0.772535
vt 0.339339 0.827896
vt 0.338995 0.772535
vt 0.339683 0.827896
vt 0.339339 0.772535
vt 0.340027 0.827896
vt 0.339683 0.772535
vt 0.340371 0.827896
vt 0.340027 0.772535
vt 0.340715 0.827896
vt 0.340371 0.772535
vt 0.341058 0.827896
vt 0.340715 0.772535
vt 0.341402 0.827896
vt 0.341058 0.772535
vt 0.341746 0.827896
vt 0.341402 0.772535
vt 0.342090 0.827896
vt 0.341746 0.772535
vt 0.342434 0.827896
vt 0.342090 0.772535
vt 0.342778 0.827896
vt 0.342434 0.772535
vt 0.342778 0.772535
s 0
usemtl Material
f 147/1/1 149/2/1 148/3/1
f 147/1/1 150/4/1 149/2/1
f 146/5/1 150/4/1 147/1/1
f 145/6/1 150/4/1 146/5/1
f 145/6/1 151/7/1 150/4/1
f 144/8/1 151/7/1 145/6/1
f 144/8/1 152/9/1 151/7/1
f 143/10/1 152/9/1 144/8/1
f 143/10/1 153/11/1 152/9/1
f 142/12/1 153/11/1 143/10/1
f 142/12/1 154/13/1 153/11/1
f 141/14/1 154/13/1 142/12/1
f 141/14/1 155/15/1 154/13/1
f 140/16/1 155/15/1 141/14/1
f 140/16/1 156/17/1 155/15/1
f 139/18/1 156/17/1 140/16/1
f 139/18/1 157/19/1 156/17/1
f 138/20/1 157/19/1 139/18/1
f 138/20/1 158/21/1 157/19/1
f 137/22/1 158/21/1 138/20/1
f 137/22/1 159/23/1 158/21/1
f 136/24/1 159/23/1 137/22/1
f 136/24/1 160/25/1 159/23/1
f 135/26/1 160/25/1 136/24/1
f 135/26/1 161/27/1 160/25/1
f 134/28/1 161/27/1 135/26/1
f 134/28/1 162/29/1 161/27/1
f 133/30/1 162/29/1 134/28/1
f 132/31/1 162/29/1 133/30/1
f 131/32/1 162/29/1 132/31/1
f 130/33/1 162/29/1 131/32/1
f 173/34/1 175/35/1 174/36/1
f 129/37/1 162/29/1 130/33/1
f 172/38/1 175/35/1 173/34/1
f 171/39/1 175/35/1 172/38/1
f 128/40/1 162/29/1 129/37/1
f 170/41/1 175/35/1 171/39/1
f 169/42/1 175/35/1 170/41/1
f 168/43/1 175/35/1 169/42/1
f 127/44/1 162/29/1 128/40/1
f 167/45/1 175/35/1 168/43/1
f 166/46/1 175/35/1 167/45/1
f 126/47/1 162/29/1 127/44/1
f 165/48/1 175/35/1 166/46/1
f 164/49/1 175/35/1 165/48/1
f 163/50/1 175/35/1 164/49/1
f 162/29/1 175/35/1 163/50/1
f 126/47/1 175/35/1 162/29/1
f 125/51/1 175/35/1 126/47/1
f 260/52/1 262/53/1 261/54/1
f 285/55/1 175/35/1 125/51/1
f 260/52/1 263/56/1 262/53/1
f 284/57/1 175/35/1 285/55/1
f 260/52/1 264/58/1 263/56/1
f 283/59/1 175/35/1 284/57/1
f 282/60/1 175/35/1 283/59/1
f 260/52/1 265/61/1 264/58/1
f 281/62/1 175/35/1 282/60/1
f 260/52/1 266/63/1 265/61/1
f 280/64/1 175/35/1 281/62/1
f 279/65/1 175/35/1 280/64/1
f 260/52/1 267/66/1 266/63/1
f 278/67/1 175/35/1 279/65/1
f 260/52/1 268/68/1 267/66/1
f 277/69/1 175/35/1 278/67/1
f 260/52/1 269/70/1 268/68/1
f 276/71/1 175/35/1 277/69/1
f 260/52/1 270/72/1 269/70/1
f 275/73/1 175/35/1 276/71/1
f 260/52/1 271/74/1 270/72/1
f 274/75/1 175/35/1 275/73/1
f 260/52/1 272/76/1 271/74/1
f 273/77/1 175/35/1 274/75/1
f 260/52/1 273/77/1 272/76/1
f 260/52/1 175/35/1 273/77/1
f 260/52/1 176/78/1 175/35/1
f 260/52/1 177/79/1 176/78/1
f 260/52/1 178/80/1 177/79/1
f 260/52/1 179/81/1 178/80/1
f 260/52/1 180/82/1 179/81/1
f 260/52/1 181/83/1 180/82/1
f 260/52/1 182/84/1 181/83/1
f 260/52/1 183/85/1 182/84/1
f 260/52/1 184/86/1 183/85/1
f 260/52/1 185/87/1 184/86/1
f 260/52/1 186/88/1 185/87/1
f 260/52/1 187/89/1 186/88/1
f 260/52/1 188/90/1 187/89/1
f 260/52/1 235/91/1 188/90/1
f 235/91/1 189/92/1 188/90/1
f 260/52/1 238/93/1 235/91/1
f 238/93/1 234/94/1 235/91/1
f 236/95/1 237/96/1 235/91/1
f 237/96/1 189/92/1 235/91/1
f 259/97/1 238/93/1 260/52/1
f 258/98/1 238/93/1 259/97/1
f 257/99/1 238/93/1 258/98/1
f 256/100/1 238/93/1 257/99/1
f 238/93/1 189/92/1 237/96/1
f 256/100/1 239/101/1 238/93/1
f 234/94/1 189/92/1 238/93/1
f 255/102/1 239/101/1 256/100/1
f 255/102/1 240/103/1 239/101/1
f 254/104/1 240/103/1 255/102/1
f 254/104/1 241/105/1 240/103/1
f 253/106/1 241/105/1 254/104/1
f 253/106/1 242/107/1 241/105/1
f 252/108/1 242/107/1 253/106/1
f 252/108/1 243/109/1 242/107/1
f 251/110/1 243/109/1 252/108/1
f 251/110/1 244/111/1 243/109/1
f 250/112/1 244/111/1 251/110/1
f 250/112/1 245/113/1 244/111/1
f 250/112/1 246/114/1 245/113/1
f 249/115/1 246/114/1 250/112/1
f 249/115/1 247/116/1 246/114/1
f 248/117/1 247/116/1 249/115/1
f 233/118/1 189/92/1 234/94/1
f 233/118/1 190/119/1 189/92/1
f 232/120/1 190/119/1 233/118/1
f 232/120/1 191/121/1 190/119/1
f 231/122/1 191/121/1 232/120/1
f 231/122/1 192/123/1 191/121/1
f 230/124/1 192/123/1 231/122/1
f 49/125/1 1/126/1 50/127/1
f 49/125/1 2/128/1 1/126/1
f 48/129/1 2/128/1 49/125/1
f 48/129/1 3/130/1 2/128/1
f 47/131/1 3/130/1 48/129/1
f 47/131/1 4/132/1 3/130/1
f 46/133/1 4/132/1 47/131/1
f 46/133/1 5/134/1 4/132/1
f 45/135/1 5/134/1 46/133/1
f 45/135/1 6/136/1 5/134/1
f 44/137/1 6/136/1 45/135/1
f 44/137/1 7/138/1 6/136/1
f 43/139/1 7/138/1 44/137/1
f 230/124/1 193/140/1 192/123/1
f 43/139/1 8/141/1 7/138/1
f 42/142/1 8/141/1 43/139/1
f 42/142/1 9/143/1 8/141/1
f 41/144/1 9/143/1 42/142/1
f 41/144/1 10/145/1 9/143/1
f 229/146/1 193/140/1 230/124/1
f 40/147/1 10/145/1 41/144/1
f 40/147/1 11/148/1 10/145/1
f 39/149/1 11/148/1 40/147/1
f 39/149/1 12/150/1 11/148/1
f 38/151/1 12/150/1 39/149/1
f 37/152/1 12/150/1 38/151/1
f 37/152/1 36/153/1 12/150/1
f 36/153/1 35/154/1 12/150/1
f 35/154/1 34/155/1 12/150/1
f 34/155/1 33/156/1 12/150/1
f 33/156/1 32/157/1 12/150/1
f 32/157/1 31/158/1 12/150/1
f 31/158/1 30/159/1 12/150/1
f 30/159/1 29/160/1 12/150/1
f 29/160/1 28/161/1 12/150/1
f 28/161/1 27/162/1 12/150/1
f 27/162/1 26/163/1 12/150/1
f 26/163/1 25/164/1 12/150/1
f 25/164/1 24/165/1 12/150/1
f 24/165/1 23/166/1 12/150/1
f 23/166/1 22/167/1 12/150/1
f 22/167/1 21/168/1 12/150/1
f 21/168/1 20/169/1 12/150/1
f 20/169/1 19/170/1 12/150/1
f 19/170/1 18/171/1 12/150/1
f 18/171/1 17/172/1 12/150/1
f 17/172/1 16/173/1 12/150/1
f 16/173/1 15/174/1 12/150/1
f 15/174/1 14/175/1 12/150/1
f 14/175/1 13/176/1 12/150/1
f 228/177/1 193/140/1 229/146/1
f 228/177/1 194/178/1 193/140/1
f 227/179/1 194/178/1 228/177/1
f 227/179/1 195/180/1 194/178/1
f 226/181/1 195/180/1 227/179/1
f 226/181/1 196/182/1 195/180/1
f 225/183/1 196/182/1 226/181/1
f 225/183/1 197/184/1 196/182/1
f 224/185/1 197/184/1 225/183/1
f 223/186/1 197/184/1 224/185/1
f 223/186/1 198/187/1 197/184/1
f 223/186/1 199/188/1 198/187/1
f 223/186/1 200/189/1 199/188/1
f 222/190/1 200/189/1 223/186/1
f 222/190/1 201/191/1 200/189/1
f 221/192/1 201/191/1 222/190/1
f 221/192/1 202/193/1 201/191/1
f 220/194/1 202/193/1 221/192/1
f 220/194/1 203/195/1 202/193/1
f 219/196/1 203/195/1 220/194/1
f 219/196/1 204/197/1 203/195/1
f 110/198/1 112/199/1 111/200/1
f 110/198/1 113/201/1 112/199/1
f 218/202/1 204/197/1 219/196/1
f 109/203/1 113/201/1 110/198/1
f 109/203/1 114/204/1 113/201/1
f 108/205/1 114/204/1 109/203/1
f 108/205/1 115/206/1 114/204/1
f 218/202/1 205/207/1 204/197/1
f 107/208/1 115/206/1 108/205/1
f 107/208/1 116/209/1 115/206/1
f 106/210/1 116/209/1 107/208/1
f 217/211/1 205/207/1 218/202/1
f 106/210/1 117/212/1 116/209/1
f 106/210/1 118/213/1 117/212/1
f 105/214/1 118/213/1 106/210/1
f 105/214/1 119/215/1 118/213/1
f 104/216/1 119/215/1 105/214/1
f 104/216/1 120/217/1 119/215/1
f 217/211/1 206/218/1 205/207/1
f 103/219/1 120/217/1 104/216/1
f 103/219/1 121/220/1 120/217/1
f 103/219/1 122/221/1 121/220/1
f 102/222/1 122/221/1 103/219/1
f 216/223/1 206/218/1 217/211/1
f 102/222/1 123/224/1 122/221/1
f 101/225/1 123/224/1 102/222/1
f 101/225/1 124/226/1 123/224/1
f 101/225/1 51/227/1 124/226/1
f 100/228/1 51/227/1 101/225/1
f 100/228/1 52/229/1 51/227/1
f 99/230/1 52/229/1 100/228/1
f 216/223/1 207/231/1 206/218/1
f 99/230/1 53/232/1 52/229/1
f 215/233/1 207/231/1 216/223/1
f 98/234/1 53/232/1 99/230/1
f 98/234/1 54/235/1 53/232/1
f 98/234/1 55/236/1 54/235/1
f 97/237/1 55/236/1 98/234/1
f 97/237/1 56/238/1 55/236/1
f 215/233/1 208/239/1 207/231/1
f 97/237/1 57/240/1 56/238/1
f 214/241/1 208/239/1 215/233/1
f 73/242/1 75/243/1 74/244/1
f 97/237/1 58/245/1 57/240/1
f 72/246/1 75/243/1 73/242/1
f 71/247/1 75/243/1 72/246/1
f 96/248/1 58/245/1 97/237/1
f 96/248/1 59/249/1 58/245/1
f 70/250/1 75/243/1 71/247/1
f 69/251/1 75/243/1 70/250/1
f 96/248/1 60/252/1 59/249/1
f 68/253/1 75/243/1 69/251/1
f 67/254/1 75/243/1 68/253/1
f 96/248/1 61/255/1 60/252/1
f 66/256/1 75/243/1 67/254/1
f 65/257/1 75/243/1 66/256/1
f 64/258/1 75/243/1 65/257/1
f 96/248/1 62/259/1 61/255/1
f 63/260/1 75/243/1 64/258/1
f 62/259/1 75/243/1 63/260/1
f 96/248/1 75/243/1 62/259/1
f 214/241/1 209/261/1 208/239/1
f 95/262/1 75/243/1 96/248/1
f 213/263/1 209/261/1 214/241/1
f 94/264/1 75/243/1 95/262/1
f 212/265/1 209/261/1 213/263/1
f 93/266/1 75/243/1 94/264/1
f 212/265/1 210/267/1 209/261/1
f 92/268/1 75/243/1 93/266/1
f 91/269/1 75/243/1 92/268/1
f 212/265/1 211/270/1 210/267/1
f 90/271/1 75/243/1 91/269/1
f 90/271/1 76/272/1 75/243/1
f 90/271/1 77/273/1 76/272/1
f 90/271/1 78/274/1 77/273/1
f 89/275/1 78/274/1 90/271/1
f 89/275/1 79/276/1 78/274/1
f 89/275/1 80/277/1 79/276/1
f 89/275/1 81/278/1 80/277/1
f 88/279/1 81/278/1 89/275/1
f 88/279/1 82/280/1 81/278/1
f 88/279/1 83/281/1 82/280/1
f 88/279/1 84/282/1 83/281/1
f 88/279/1 85/283/1 84/282/1
f 87/284/1 85/283/1 88/279/1
f 87/284/1 86/285/1 85/283/1
f 432/1/2 433/3/2 434/2/2
f 432/1/2 434/2/2 435/4/2
f 431/5/2 432/1/2 435/4/2
f 430/6/2 431/5/2 435/4/2
f 430/6/2 435/4/2 436/7/2
f 429/8/2 430/6/2 436/7/2
f 429/8/2 436/7/2 437/9/2
f 428/10/2 429/8/2 437/9/2
f 428/10/2 437/9/2 438/11/2
f 427/12/2 428/10/2 438/11/2
f 427/12/2 438/11/2 439/13/2
f 426/14/2 427/12/2 439/13/2
f 426/14/2 439/13/2 440/15/2
f 425/16/2 426/14/2 440/15/2
f 425/16/2 440/15/2 441/17/2
f 424/18/2 425/16/2 441/17/2
f 424/18/2 441/17/2 442/19/2
f 423/20/2 424/18/2 442/19/2
f 423/20/2 442/19/2 443/21/2
f 422/22/2 423/20/2 443/21/2
f 422/22/2 443/21/2 444/23/2
f 421/24/2 422/22/2 444/23/2
f 421/24/2 444/23/2 445/25/2
f 420/26/2 421/24/2 445/25/2
f 420/26/2 445/25/2 446/27/2
f 419/28/2 420/26/2 446/27/2
f 419/28/2 446/27/2 447/29/2
f 418/30/2 419/28/2 447/29/2
f 417/31/2 418/30/2 447/29/2
f 416/32/2 417/31/2 447/29/2
f 415/33/2 416/32/2 447/29/2
f 458/34/2 459/36/2 460/35/2
f 414/37/2 415/33/2 447/29/2
f 457/38/2 458/34/2 460/35/2
f 456/39/2 457/38/2 460/35/2
f 413/40/2 414/37/2 447/29/2
f 455/41/2 456/39/2 460/35/2
f 454/42/2 455/41/2 460/35/2
f 453/43/2 454/42/2 460/35/2
f 412/44/2 413/40/2 447/29/2
f 452/45/2 453/43/2 460/35/2
f 451/46/2 452/45/2 460/35/2
f 411/47/2 412/44/2 447/29/2
f 450/48/2 451/46/2 460/35/2
f 449/49/2 450/48/2 460/35/2
f 448/50/2 449/49/2 460/35/2
f 447/29/2 448/50/2 460/35/2
f 411/47/2 447/29/2 460/35/2
f 410/51/2 411/47/2 460/35/2
f 545/52/2 546/54/2 547/53/2
f 570/55/2 410/51/2 460/35/2
f 545/52/2 547/53/2 548/56/2
f 569/57/2 570/55/2 460/35/2
f 545/52/2 548/56/2 549/58/2
f 568/59/2 569/57/2 460/35/2
f 567/60/2 568/59/2 460/35/2
f 545/52/2 549/58/2 550/61/2
f 566/62/2 567/60/2 460/35/2
f 545/52/2 550/61/2 551/63/2
f 565/64/2 566/62/2 460/35/2
f 564/65/2 565/64/2 460/35/2
f 545/52/2 551/63/2 552/66/2
f 563/67/2 564/65/2 460/35/2
f 545/52/2 552/66/2 553/68/2
f 562/69/2 563/67/2 460/35/2
f 545/52/2 553/68/2 554/70/2
f 561/71/2 562/69/2 460/35/2
f 545/52/2 554/70/2 555/72/2
f 560/73/2 561/71/2 460/35/2
f 545/52/2 555/72/2 556/74/2
f 559/75/2 560/73/2 460/35/2
f 545/52/2 556/74/2 557/76/2
f 558/77/2 559/75/2 460/35/2
f 545/52/2 557/76/2 558/77/2
f 545/52/2 558/77/2 460/35/2
f 545/52/2 460/35/2 461/78/2
f 545/52/2 461/78/2 462/79/2
f 545/52/2 462/79/2 463/80/2
f 545/52/2 463/80/2 464/81/2
f 545/52/2 464/81/2 465/82/2
f 545/52/2 465/82/2 466/83/2
f 545/52/2 466/83/2 467/84/2
f 545/52/2 467/84/2 468/85/2
f 545/52/2 468/85/2 469/86/2
f 545/52/2 469/86/2 470/87/2
f 545/52/2 470/87/2 471/88/2
f 545/52/2 471/88/2 472/89/2
f 545/52/2 472/89/2 473/90/2
f 545/52/2 473/90/2 520/91/2
f 520/91/2 473/90/2 474/92/2
f 545/52/2 520/91/2 523/93/2
f 523/93/2 520/91/2 519/94/2
f 521/95/2 520/91/2 522/96/2
f 522/96/2 520/91/2 474/92/2
f 544/97/2 545/52/2 523/93/2
f 543/98/2 544/97/2 523/93/2
f 542/99/2 543/98/2 523/93/2
f 541/100/2 542/99/2 523/93/2
f 523/93/2 522/96/2 474/92/2
f 541/100/2 523/93/2 524/101/2
f 519/94/2 523/93/2 474/92/2
f 540/102/2 541/100/2 524/101/2
f 540/102/2 524/101/2 525/103/2
f 539/104/2 540/102/2 525/103/2
f 539/104/2 525/103/2 526/105/2
f 538/106/2 539/104/2 526/105/2
f 538/106/2 526/105/2 527/107/2
f 537/108/2 538/106/2 527/107/2
f 537/108/2 527/107/2 528/109/2
f 536/110/2 537/108/2 528/109/2
f 536/110/2 528/109/2 529/111/2
f 535/112/2 536/110/2 529/111/2
f 535/112/2 529/111/2 530/113/2
f 535/112/2 530/113/2 531/114/2
f 534/115/2 535/112/2 531/114/2
f 534/115/2 531/114/2 532/116/2
f 533/117/2 534/115/2 532/116/2
f 518/118/2 519/94/2 474/92/2
f 518/118/2 474/92/2 475/119/2
f 517/120/2 518/118/2 475/119/2
f 517/120/2 475/119/2 476/121/2
f 516/122/2 517/120/2 476/121/2
f 516/122/2 476/121/2 477/123/2
f 515/124/2 516/122/2 477/123/2
f 334/125/2 335/127/2 286/126/2
f 334/125/2 286/126/2 287/128/2
f 333/129/2 334/125/2 287/128/2
f 333/129/2 287/128/2 288/130/2
f 332/131/2 333/129/2 288/130/2
f 332/131/2 288/130/2 289/132/2
f 331/133/2 332/131/2 289/132/2
f 331/133/2 289/132/2 290/134/2
f 330/135/2 331/133/2 290/134/2
f 330/135/2 290/134/2 291/136/2
f 329/137/2 330/135/2 291/136/2
f 329/137/2 291/136/2 292/138/2
f 328/139/2 329/137/2 292/138/2
f 515/124/2 477/123/2 478/140/2
f 328/139/2 292/138/2 293/141/2
f 327/142/2 328/139/2 293/141/2
f 327/142/2 293/141/2 294/143/2
f 326/144/2 327/142/2 294/143/2
f 326/144/2 294/143/2 295/145/2
f 514/146/2 515/124/2 478/140/2
f 325/147/2 326/144/2 295/145/2
f 325/147/2 295/145/2 296/148/2
f 324/149/2 325/147/2 296/148/2
f 324/149/2 296/148/2 297/150/2
f 323/151/2 324/149/2 297/150/2
f 322/152/2 323/151/2 297/150/2
f 322/152/2 297/150/2 321/153/2
f 321/153/2 297/150/2 320/154/2
f 320/154/2 297/150/2 319/155/2
f 319/155/2 297/150/2 318/156/2
f 318/156/2 297/150/2 317/157/2
f 317/157/2 297/150/2 316/158/2
f 316/158/2 297/150/2 315/159/2
f 315/159/2 297/150/2 314/160/2
f 314/160/2 297/150/2 313/161/2
f 313/161/2 297/150/2 312/162/2
f 312/162/2 297/150/2 311/163/2
f 311/163/2 297/150/2 310/164/2
f 310/164/2 297/150/2 309/165/2
f 309/165/2 297/150/2 308/166/2
f 308/166/2 297/150/2 307/167/2
f 307/167/2 297/150/2 306/168/2
f 306/168/2 297/150/2 305/169/2
f 305/169/2 297/150/2 304/170/2
f 304/170/2 297/150/2 303/171/2
f 303/171/2 297/150/2 302/172/2
f 302/172/2 297/150/2 301/173/2
f 301/173/2 297/150/2 300/174/2
f 300/174/2 297/150/2 299/175/2
f 299/175/2 297/150/2 298/176/2
f 513/177/2 514/146/2 478/140/2
f 513/177/2 478/140/2 479/178/2
f 512/179/2 513/177/2 479/178/2
f 512/179/2 479/178/2 480/180/2
f 511/181/2 512/179/2 480/180/2
f 511/181/2 480/180/2 481/182/2
f 510/183/2 511/181/2 481/182/2
f 510/183/2 481/182/2 482/184/2
f 509/185/2 510/183/2 482/184/2
f 508/186/2 509/185/2 482/184/2
f 508/186/2 482/184/2 483/187/2
f 508/186/2 483/187/2 484/188/2
f 508/186/2 484/188/2 485/189/2
f 507/190/2 508/186/2 485/189/2
f 507/190/2 485/189/2 486/191/2
f 506/192/2 507/190/2 486/191/2
f 506/192/2 486/191/2 487/193/2
f 505/194/2 506/192/2 487/193/2
f 505/194/2 487/193/2 488/195/2
f 504/196/2 505/194/2 488/195/2
f 504/196/2 488/195/2 489/197/2
f 395/198/2 396/200/2 397/199/2
f 395/198/2 397/199/2 398/201/2
f 503/202/2 504/196/2 489/197/2
f 394/203/2 395/198/2 398/201/2
f 394/203/2 398/201/2 399/204/2
f 393/205/2 394/203/2 399/204/2
f 393/205/2 399/204/2 400/206/2
f 503/202/2 489/197/2 490/207/2
f 392/208/2 393/205/2 400/206/2
f 392/208/2 400/206/2 401/209/2
f 391/210/2 392/208/2 401/209/2
f 502/211/2 503/202/2 490/207/2
f 391/210/2 401/209/2 402/212/2
f 391/210/2 402/212/2 403/213/2
f 390/214/2 391/210/2 403/213/2
f 390/214/2 403/213/2 404/215/2
f 389/216/2 390/214/2 404/215/2
f 389/216/2 404/215/2 405/217/2
f 502/211/2 490/207/2 491/218/2
f 388/219/2 389/216/2 405/217/2
f 388/219/2 405/217/2 406/220/2
f 388/219/2 406/220/2 407/221/2
f 387/222/2 388/219/2 407/221/2
f 501/223/2 502/211/2 491/218/2
f 387/222/2 407/221/2 408/224/2
f 386/225/2 387/222/2 408/224/2
f 386/225/2 408/224/2 409/226/2
f 386/225/2 409/226/2 336/227/2
f 385/228/2 386/225/2 336/227/2
f 385/228/2 336/227/2 337/229/2
f 384/230/2 385/228/2 337/229/2
f 501/223/2 491/218/2 492/231/2
f 384/230/2 337/229/2 338/232/2
f 500/233/2 501/223/2 492/231/2
f 383/234/2 384/230/2 338/232/2
f 383/234/2 338/232/2 339/235/2
f 383/234/2 339/235/2 340/236/2
f 382/237/2 383/234/2 340/236/2
f 382/237/2 340/236/2 341/238/2
f 500/233/2 492/231/2 493/239/2
f 382/237/2 341/238/2 342/240/2
f 499/241/2 500/233/2 493/239/2
f 358/242/2 359/244/2 360/243/2
f 382/237/2 342/240/2 343/245/2
f 357/246/2 358/242/2 360/243/2
f 356/247/2 357/246/2 360/243/2
f 381/248/2 382/237/2 343/245/2
f 381/248/2 343/245/2 344/249/2
f 355/250/2 356/247/2 360/243/2
f 354/251/2 355/250/2 360/243/2
f 381/248/2 344/249/2 345/252/2
f 353/253/2 354/251/2 360/243/2
f 352/254/2 353/253/2 360/243/2
f 381/248/2 345/252/2 346/255/2
f 351/256/2 352/254/2 360/243/2
f 350/257/2 351/256/2 360/243/2
f 349/258/2 350/257/2 360/243/2
f 381/248/2 346/255/2 347/259/2
f 348/260/2 349/258/2 360/243/2
f 347/259/2 348/260/2 360/243/2
f 381/248/2 347/259/2 360/243/2
f 499/241/2 493/239/2 494/261/2
f 380/262/2 381/248/2 360/243/2
f 498/263/2 499/241/2 494/261/2
f 379/264/2 380/262/2 360/243/2
f 497/265/2 498/263/2 494/261/2
f 378/266/2 379/264/2 360/243/2
f 497/265/2 494/261/2 495/267/2
f 377/268/2 378/266/2 360/243/2
f 376/269/2 377/268/2 360/243/2
f 497/265/2 495/267/2 496/270/2
f 375/271/2 376/269/2 360/243/2
f 375/271/2 360/243/2 361/272/2
f 375/271/2 361/272/2 362/273/2
f 375/271/2 362/273/2 363/274/2
f 374/275/2 375/271/2 363/274/2
f 374/275/2 363/274/2 364/276/2
f 374/275/2 364/276/2 365/277/2
f 374/275/2 365/277/2 366/278/2
f 373/279/2 374/275/2 366/278/2
f 373/279/2 366/278/2 367/280/2
f 373/279/2 367/280/2 368/281/2
f 373/279/2 368/281/2 369/282/2
f 373/279/2 369/282/2 370/283/2
f 372/284/2 373/279/2 370/283/2
f 372/284/2 370/283/2 371/285/2
s 1
f 574/286/3 571/126/4 572/287/4
f 576/288/5 573/289/3 574/286/3
f 578/290/6 575/291/5 576/288/5
f 580/292/7 577/293/6 578/290/6
f 582/294/8 579/295/7 580/292/7
f 584/296/9 581/297/8 582/294/8
f 586/298/10 583/299/9 584/296/9
f 588/300/11 585/301/10 586/298/10
f 590/302/12 587/303/11 588/300/11
f 592/304/13 589/305/12 590/302/12
f 594/306/14 591/307/13 592/304/13
f 596/308/15 593/309/16 594/306/14
f 598/310/17 595/311/15 596/308/15
f 600/312/18 597/313/17 598/310/17
f 602/314/19 599/315/18 600/312/18
f 604/316/20 601/317/19 602/314/19
f 606/318/21 603/319/20 604/316/20
f 608/320/22 605/321/21 606/318/21
f 610/322/23 607/323/22 608/320/22
f 612/324/24 609/325/23 610/322/23
f 614/326/25 611/327/24 612/324/24
f 616/328/26 613/329/25 614/326/25
f 618/330/27 615/331/26 616/328/26
f 620/332/28 617/333/27 618/330/27
f 622/334/29 619/335/28 620/332/28
f 624/336/30 621/10/29 622/334/29
f 626/337/31 623/338/30 624/336/30
f 628/339/32 625/340/31 626/337/31
f 630/341/33 627/342/32 628/339/32
f 632/343/34 629/344/33 630/341/33
f 634/345/35 631/346/34 632/343/34
f 636/347/36 633/348/35 634/345/35
f 638/349/37 635/350/36 636/347/36
f 640/351/38 637/352/37 638/349/37
f 642/353/39 639/354/40 640/351/38
f 644/355/41 641/356/39 642/353/39
f 646/357/42 643/358/41 644/355/41
f 648/359/43 645/360/42 646/357/42
f 650/361/44 647/362/43 648/359/43
f 652/363/45 649/364/44 650/361/44
f 654/365/46 651/366/45 652/363/45
f 656/367/47 653/368/46 654/365/46
f 658/369/48 655/370/47 656/367/47
f 660/371/49 657/372/48 658/369/48
f 662/373/50 659/374/49 660/371/49
f 664/375/51 661/376/50 662/373/50
f 666/377/52 663/378/51 664/375/51
f 668/379/53 665/380/52 666/377/52
f 670/381/54 667/382/53 668/379/53
f 572/383/4 669/384/54 670/381/54
f 674/385/55 671/126/56 672/287/56
f 676/386/57 673/387/55 674/385/55
f 678/388/58 675/389/57 676/386/57
f 680/390/59 677/391/58 678/388/58
f 682/392/60 679/393/59 680/390/59
f 684/394/61 681/395/60 682/392/60
f 686/396/62 683/397/61 684/394/61
f 688/398/63 685/399/62 686/396/62
f 690/400/64 687/401/63 688/398/63
f 692/402/9 689/403/64 690/400/64
f 694/404/65 691/405/9 692/402/9
f 696/406/66 693/407/65 694/404/65
f 698/408/67 695/409/66 696/406/66
f 700/410/68 697/411/67 698/408/67
f 702/412/69 699/413/68 700/410/68
f 704/414/70 701/415/69 702/412/69
f 706/416/71 703/417/70 704/414/70
f 708/418/72 705/419/71 706/416/71
f 710/420/73 707/421/72 708/418/72
f 712/422/74 709/423/73 710/420/73
f 714/424/75 711/425/74 712/422/74
f 716/426/76 713/427/75 714/424/75
f 718/428/77 715/429/76 716/426/76
f 720/430/78 717/431/79 718/428/77
f 722/432/80 719/433/78 720/430/78
f 724/434/81 721/435/80 722/432/80
f 726/436/82 723/437/81 724/434/81
f 728/438/83 725/439/82 726/436/82
f 730/440/84 727/441/83 728/438/83
f 732/442/85 729/443/84 730/440/84
f 734/444/86 731/445/85 732/442/85
f 736/446/87 733/447/86 734/444/86
f 738/448/88 735/449/87 736/446/87
f 740/450/89 737/451/88 738/448/88
f 742/452/90 739/453/89 740/450/89
f 744/454/91 741/455/90 742/452/90
f 746/334/92 743/456/91 744/454/91
f 748/457/93 745/10/92 746/334/92
f 750/458/94 747/459/93 748/457/93
f 752/460/95 749/461/94 750/458/94
f 754/462/96 751/463/95 752/460/95
f 756/464/97 753/465/96 754/462/96
f 758/466/98 755/467/97 756/464/97
f 760/468/99 757/469/98 758/466/98
f 762/470/100 759/471/99 760/468/99
f 764/472/101 761/473/100 762/470/100
f 766/474/102 763/475/101 764/472/101
f 768/476/103 765/477/102 766/474/102
f 770/478/104 767/479/103 768/476/103
f 772/480/105 769/481/104 770/478/104
f 774/482/106 771/483/105 772/480/105
f 776/484/107 773/485/106 774/482/106
f 778/486/108 775/487/107 776/484/107
f 780/488/109 777/489/108 778/486/108
f 782/490/110 779/491/109 780/488/109
f 784/492/111 781/493/110 782/490/110
f 786/494/112 783/495/111 784/492/111
f 788/496/113 785/497/112 786/494/112
f 790/498/114 787/499/113 788/496/113
f 792/500/115 789/501/114 790/498/114
f 794/502/116 791/503/115 792/500/115
f 796/504/117 793/505/118 794/502/116
f 798/506/119 795/507/117 796/504/117
f 800/508/120 797/509/119 798/506/119
f 802/510/121 799/511/120 800/508/120
f 804/512/122 801/513/121 802/510/121
f 806/514/123 803/515/122 804/512/122
f 808/516/124 805/517/123 806/514/123
f 810/518/125 807/519/124 808/516/124
f 812/520/126 809/521/125 810/518/125
f 814/522/127 811/523/126 812/520/126
f 816/524/128 813/525/129 814/522/127
f 818/526/130 815/527/128 816/524/128
f 672/383/56 817/528/130 818/526/130
f 822/529/131 819/126/132 820/287/133
f 824/530/134 821/531/131 822/529/131
f 826/532/135 823/533/134 824/530/134
f 828/534/136 825/535/135 826/532/135
f 830/536/137 827/537/136 828/534/136
f 832/538/138 829/539/137 830/536/137
f 834/540/139 831/541/138 832/538/138
f 836/542/140 833/543/139 834/540/139
f 838/544/141 835/545/140 836/542/140
f 840/546/142 837/547/141 838/544/141
f 842/548/143 839/549/142 840/546/142
f 844/550/144 841/551/143 842/548/143
f 846/552/145 843/553/144 844/550/144
f 848/554/146 845/555/145 846/552/145
f 850/556/147 847/557/146 848/554/146
f 852/558/148 849/559/149 850/556/147
f 854/560/150 851/561/148 852/558/148
f 856/562/151 853/563/150 854/560/150
f 858/564/152 855/565/151 856/562/151
f 860/566/153 857/567/152 858/564/152
f 862/568/154 859/569/153 860/566/153
f 864/570/155 861/571/154 862/568/154
f 866/572/156 863/573/155 864/570/155
f 868/574/157 865/575/156 866/572/156
f 870/576/158 867/577/159 868/574/157
f 872/578/160 869/579/158 870/576/158
f 874/580/161 871/581/160 872/578/160
f 876/582/162 873/583/161 874/580/161
f 878/584/163 875/585/162 876/582/162
f 880/586/164 877/587/163 878/584/163
f 882/588/165 879/589/164 880/586/164
f 884/590/166 881/591/165 882/588/165
f 886/592/167 883/593/166 884/590/166
f 888/594/168 885/595/167 886/592/167
f 890/596/169 887/597/168 888/594/168
f 892/598/170 889/599/169 890/596/169
f 894/600/171 891/601/170 892/598/170
f 896/602/172 893/603/171 894/600/171
f 898/604/173 895/605/172 896/602/172
f 900/606/174 897/607/173 898/604/173
f 902/608/175 899/609/174 900/606/174
f 904/610/176 901/611/175 902/608/175
f 906/612/177 903/613/176 904/610/176
f 908/614/178 905/615/177 906/612/177
f 910/616/179 907/617/178 908/614/178
f 912/618/180 909/619/179 910/616/179
f 914/620/181 911/621/180 912/618/180
f 916/622/182 913/623/181 914/620/181
f 918/624/183 915/625/182 916/622/182
f 920/626/184 917/627/183 918/624/183
f 922/628/185 919/629/184 920/626/184
f 924/630/186 921/631/185 922/628/185
f 926/632/187 923/633/186 924/630/186
f 928/634/188 925/635/187 926/632/187
f 930/636/189 927/637/188 928/634/188
f 932/638/190 929/639/189 930/636/189
f 934/640/191 931/641/190 932/638/190
f 936/642/192 933/643/191 934/640/191
f 938/644/193 935/645/192 936/642/192
f 940/646/194 937/647/193 938/644/193
f 942/648/195 939/649/194 940/646/194
f 944/650/196 941/651/195 942/648/195
f 946/652/197 943/653/198 944/650/196
f 948/654/165 945/655/197 946/652/197
f 950/656/199 947/657/165 948/654/165
f 952/658/200 949/659/199 950/656/199
f 954/660/201 951/661/200 952/658/200
f 956/662/202 953/663/201 954/660/201
f 958/664/203 955/665/202 956/662/202
f 960/666/204 957/667/203 958/664/203
f 962/668/205 959/669/204 960/666/204
f 964/670/206 961/671/205 962/668/205
f 966/672/207 963/673/206 964/670/206
f 968/674/208 965/675/207 966/672/207
f 970/676/209 967/677/208 968/674/208
f 972/678/210 969/679/209 970/676/209
f 974/680/211 971/681/210 972/678/210
f 976/682/212 973/683/211 974/680/211
f 978/684/213 975/685/212 976/682/212
f 980/686/214 977/687/213 978/684/213
f 982/688/215 979/689/214 980/686/214
f 984/690/216 981/691/215 982/688/215
f 986/692/217 983/693/216 984/690/216
f 988/694/218 985/695/217 986/692/217
f 990/696/219 987/697/218 988/694/218
f 992/698/220 989/699/219 990/696/219
f 994/700/221 991/701/220 992/698/220
f 996/702/222 993/703/221 994/700/221
f 998/704/223 995/705/222 996/702/222
f 1000/706/224 997/707/223 998/704/223
f 1002/708/225 999/709/224 1000/706/224
f 1004/710/226 1001/711/225 1002/708/225
f 1006/712/227 1003/713/226 1004/710/226
f 1008/714/228 1005/715/227 1006/712/227
f 1010/716/229 1007/717/228 1008/714/228
f 1012/718/230 1009/719/229 1010/716/229
f 1014/720/231 1011/721/230 1012/718/230
f 1016/722/232 1013/723/231 1014/720/231
f 1018/724/233 1015/725/232 1016/722/232
f 1020/726/234 1017/727/233 1018/724/233
f 1022/728/235 1019/729/234 1020/726/234
f 1024/730/236 1021/731/235 1022/728/235
f 1026/732/237 1023/733/236 1024/730/236
f 1028/734/238 1025/735/237 1026/732/237
f 1030/736/239 1027/737/238 1028/734/238
f 1032/738/240 1029/739/239 1030/736/239
f 1034/740/241 1031/741/240 1032/738/240
f 1036/742/242 1033/743/241 1034/740/241
f 1038/744/243 1035/745/242 1036/742/242
f 1040/746/244 1037/747/243 1038/744/243
f 1042/748/245 1039/749/246 1040/746/244
f 1044/750/247 1041/751/245 1042/748/245
f 1046/752/248 1043/753/249 1044/750/247
f 1048/754/250 1045/755/248 1046/752/248
f 1050/756/251 1047/757/250 1048/754/250
f 1052/758/252 1049/759/251 1050/756/251
f 1054/760/253 1051/761/252 1052/758/252
f 1056/762/254 1053/763/253 1054/760/253
f 1058/764/255 1055/765/254 1056/762/254
f 1060/766/256 1057/767/255 1058/764/255
f 1062/768/257 1059/769/256 1060/766/256
f 1064/770/258 1061/771/257 1062/768/257
f 1066/772/259 1063/773/258 1064/770/258
f 1068/774/260 1065/775/259 1066/772/259
f 1070/776/261 1067/777/260 1068/774/260
f 1072/778/262 1069/779/261 1070/776/261
f 1074/780/263 1071/781/262 1072/778/262
f 1076/782/264 1073/783/263 1074/780/263
f 1078/784/265 1075/785/264 1076/782/264
f 1080/786/266 1077/787/265 1078/784/265
f 1082/788/267 1079/789/266 1080/786/266
f 1084/790/268 1081/791/267 1082/788/267
f 1086/792/269 1083/793/268 1084/790/268
f 1088/794/270 1085/795/269 1086/792/269
f 1090/796/271 1087/797/270 1088/794/270
f 1092/798/272 1089/799/273 1090/796/271
f 1094/800/274 1091/801/272 1092/798/272
f 1096/802/275 1093/803/274 1094/800/274
f 1098/804/276 1095/805/275 1096/802/275
f 1100/806/277 1097/807/276 1098/804/276
f 1102/808/278 1099/809/277 1100/806/277
f 1104/810/279 1101/811/278 1102/808/278
f 1106/812/280 1103/813/279 1104/810/279
f 1108/814/281 1105/815/280 1106/812/280
f 1110/816/282 1107/817/281 1108/814/281
f 1112/818/283 1109/819/282 1110/816/282
f 1114/820/284 1111/821/283 1112/818/283
f 1116/822/285 1113/823/284 1114/820/284
f 1118/824/286 1115/825/285 1116/822/285
f 1120/826/287 1117/827/286 1118/824/286
f 1122/828/288 1119/829/287 1120/826/287
f 1124/830/289 1121/831/288 1122/828/288
f 1126/832/290 1123/833/289 1124/830/289
f 1128/834/291 1125/835/290 1126/832/290
f 1130/836/292 1127/837/291 1128/834/291
f 1132/838/293 1129/839/292 1130/836/292
f 1134/840/294 1131/841/293 1132/838/293
f 1136/842/295 1133/843/294 1134/840/294
f 1138/844/296 1135/845/295 1136/842/295
f 1140/846/297 1137/847/296 1138/844/296
f 820/383/133 1139/848/297 1140/846/297
f 574/286/3 573/289/3 571/126/4
f 576/288/5 575/291/5 573/289/3
f 578/290/6 577/293/6 575/291/5
f 580/292/7 579/295/7 577/293/6
f 582/294/8 581/297/8 579/295/7
f 584/296/9 583/299/9 581/297/8
f 586/298/10 585/301/10 583/299/9
f 588/300/11 587/303/11 585/301/10
f 590/302/12 589/305/12 587/303/11
f 592/304/13 591/307/13 589/305/12
f 594/306/14 593/309/16 591/307/13
f 596/308/15 595/311/15 593/309/16
f 598/310/17 597/313/17 595/311/15
f 600/312/18 599/315/18 597/313/17
f 602/314/19 601/317/19 599/315/18
f 604/316/20 603/319/20 601/317/19
f 606/318/21 605/321/21 603/319/20
f 608/320/22 607/323/22 605/321/21
f 610/322/23 609/325/23 607/323/22
f 612/324/24 611/327/24 609/325/23
f 614/326/25 613/329/25 611/327/24
f 616/328/26 615/331/26 613/329/25
f 618/330/27 617/333/27 615/331/26
f 620/332/28 619/335/28 617/333/27
f 622/334/29 621/10/29 619/335/28
f 624/336/30 623/338/30 621/10/29
f 626/337/31 625/340/31 623/338/30
f 628/339/32 627/342/32 625/340/31
f 630/341/33 629/344/33 627/342/32
f 632/343/34 631/346/34 629/344/33
f 634/345/35 633/348/35 631/346/34
f 636/347/36 635/350/36 633/348/35
f 638/349/37 637/352/37 635/350/36
f 640/351/38 639/354/40 637/352/37
f 642/353/39 641/356/39 639/354/40
f 644/355/41 643/358/41 641/356/39
f 646/357/42 645/360/42 643/358/41
f 648/359/43 647/362/43 645/360/42
f 650/361/44 649/364/44 647/362/43
f 652/363/45 651/366/45 649/364/44
f 654/365/46 653/368/46 651/366/45
f 656/367/47 655/370/47 653/368/46
f 658/369/48 657/372/48 655/370/47
f 660/371/49 659/374/49 657/372/48
f 662/373/50 661/376/50 659/374/49
f 664/375/51 663/378/51 661/376/50
f 666/377/52 665/380/52 663/378/51
f 668/379/53 667/382/53 665/380/52
f 670/381/54 669/384/54 667/382/53
f 572/383/4 571/55/4 669/384/54
f 674/385/55 673/387/55 671/126/56
f 676/386/57 675/389/57 673/387/55
f 678/388/58 677/391/58 675/389/57
f 680/390/59 679/393/59 677/391/58
f 682/392/60 681/395/60 679/393/59
f 684/394/61 683/397/61 681/395/60
f 686/396/62 685/399/62 683/397/61
f 688/398/63 687/401/63 685/399/62
f 690/400/64 689/403/64 687/401/63
f 692/402/9 691/405/9 689/403/64
f 694/404/65 693/407/65 691/405/9
f 696/406/66 695/409/66 693/407/65
f 698/408/67 697/411/67 695/409/66
f 700/410/68 699/413/68 697/411/67
f 702/412/69 701/415/69 699/413/68
f 704/414/70 703/417/70 701/415/69
f 706/416/71 705/419/71 703/417/70
f 708/418/72 707/421/72 705/419/71
f 710/420/73 709/423/73 707/421/72
f 712/422/74 711/425/74 709/423/73
f 714/424/75 713/427/75 711/425/74
f 716/426/76 715/429/76 713/427/75
f 718/428/77 717/431/79 715/429/76
f 720/430/78 719/433/78 717/431/79
f 722/432/80 721/435/80 719/433/78
f 724/434/81 723/437/81 721/435/80
f 726/436/82 725/439/82 723/437/81
f 728/438/83 727/441/83 725/439/82
f 730/440/84 729/443/84 727/441/83
f 732/442/85 731/445/85 729/443/84
f 734/444/86 733/447/86 731/445/85
f 736/446/87 735/449/87 733/447/86
f 738/448/88 737/451/88 735/449/87
f 740/450/89 739/453/89 737/451/88
f 742/452/90 741/455/90 739/453/89
f 744/454/91 743/456/91 741/455/90
f 746/334/92 745/10/92 743/456/91
f 748/457/93 747/459/93 745/10/92
f 750/458/94 749/461/94 747/459/93
f 752/460/95 751/463/95 749/461/94
f 754/462/96 753/465/96 751/463/95
f 756/464/97 755/467/97 753/465/96
f 758/466/98 757/469/98 755/467/97
f 760/468/99 759/471/99 757/469/98
f 762/470/100 761/473/100 759/471/99
f 764/472/101 763/475/101 761/473/100
f 766/474/102 765/477/102 763/475/101
f 768/476/103 767/479/103 765/477/102
f 770/478/104 769/481/104 767/479/103
f 772/480/105 771/483/105 769/481/104
f 774/482/106 773/485/106 771/483/105
f 776/484/107 775/487/107 773/485/106
f 778/486/108 777/489/108 775/487/107
f 780/488/109 779/491/109 777/489/108
f 782/490/110 781/493/110 779/491/109
f 784/492/111 783/495/111 781/493/110
f 786/494/112 785/497/112 783/495/111
f 788/496/113 787/499/113 785/497/112
f 790/498/114 789/501/114 787/499/113
f 792/500/115 791/503/115 789/501/114
f 794/502/116 793/505/118 791/503/115
f 796/504/117 795/507/117 793/505/118
f 798/506/119 797/509/119 795/507/117
f 800/508/120 799/511/120 797/509/119
f 802/510/121 801/513/121 799/511/120
f 804/512/122 803/515/122 801/513/121
f 806/514/123 805/517/123 803/515/122
f 808/516/124 807/519/124 805/517/123
f 810/518/125 809/521/125 807/519/124
f 812/520/126 811/523/126 809/521/125
f 814/522/127 813/525/129 811/523/126
f 816/524/128 815/527/128 813/525/129
f 818/526/130 817/528/130 815/527/128
f 672/383/56 671/55/56 817/528/130
f 822/529/131 821/531/131 819/126/132
f 824/530/134 823/533/134 821/531/131
f 826/532/135 825/535/135 823/533/134
f 828/534/136 827/537/136 825/535/135
f 830/536/137 829/539/137 827/537/136
f 832/538/138 831/541/138 829/539/137
f 834/540/139 833/543/139 831/541/138
f 836/542/140 835/545/140 833/543/139
f 838/544/141 837/547/141 835/545/140
f 840/546/142 839/549/142 837/547/141
f 842/548/143 841/551/143 839/549/142
f 844/550/144 843/553/144 841/551/143
f 846/552/145 845/555/145 843/553/144
f 848/554/146 847/557/146 845/555/145
f 850/556/147 849/559/149 847/557/146
f 852/558/148 851/561/148 849/559/149
f 854/560/150 853/563/150 851/561/148
f 856/562/151 855/565/151 853/563/150
f 858/564/152 857/567/152 855/565/151
f 860/566/153 859/569/153 857/567/152
f 862/568/154 861/571/154 859/569/153
f 864/570/155 863/573/155 861/571/154
f 866/572/156 865/575/156 863/573/155
f 868/574/157 867/577/159 865/575/156
f 870/576/158 869/579/158 867/577/159
f 872/578/160 871/581/160 869/579/158
f 874/580/161 873/583/161 871/581/160
f 876/582/162 875/585/162 873/583/161
f 878/584/163 877/587/163 875/585/162
f 880/586/164 879/589/164 877/587/163
f 882/588/165 881/591/165 879/589/164
f 884/590/166 883/593/166 881/591/165
f 886/592/167 885/595/167 883/593/166
f 888/594/168 887/597/168 885/595/167
f 890/596/169 889/599/169 887/597/168
f 892/598/170 891/601/170 889/599/169
f 894/600/171 893/603/171 891/601/170
f 896/602/172 895/605/172 893/603/171
f 898/604/173 897/607/173 895/605/172
f 900/606/174 899/609/174 897/607/173
f 902/608/175 901/611/175 899/609/174
f 904/610/176 903/613/176 901/611/175
f 906/612/177 905/615/177 903/613/176
f 908/614/178 907/617/178 905/615/177
f 910/616/179 909/619/179 907/617/178
f 912/618/180 911/621/180 909/619/179
f 914/620/181 913/623/181 911/621/180
f 916/622/182 915/625/182 913/623/181
f 918/624/183 917/627/183 915/625/182
f 920/626/184 919/629/184 917/627/183
f 922/628/185 921/631/185 919/629/184
f 924/630/186 923/633/186 921/631/185
f 926/632/187 925/635/187 923/633/186
f 928/634/188 927/637/188 925/635/187
f 930/636/189 929/639/189 927/637/188
f 932/638/190 931/641/190 929/639/189
f 934/640/191 933/643/191 931/641/190
f 936/642/192 935/645/192 933/643/191
f 938/644/193 937/647/193 935/645/192
f 940/646/194 939/649/194 937/647/193
f 942/648/195 941/651/195 939/649/194
f 944/650/196 943/653/198 941/651/195
f 946/652/197 945/655/197 943/653/198
f 948/654/165 947/657/165 945/655/197
f 950/656/199 949/659/199 947/657/165
f 952/658/200 951/661/200 949/659/199
f 954/660/201 953/663/201 951/661/200
f 956/662/202 955/665/202 953/663/201
f 958/664/203 957/667/203 955/665/202
f 960/666/204 959/669/204 957/667/203
f 962/668/205 961/671/205 959/669/204
f 964/670/206 963/673/206 961/671/205
f 966/672/207 965/675/207 963/673/206
f 968/674/208 967/677/208 965/675/207
f 970/676/209 969/679/209 967/677/208
f 972/678/210 971/681/210 969/679/209
f 974/680/211 973/683/211 971/681/210
f 976/682/212 975/685/212 973/683/211
f 978/684/213 977/687/213 975/685/212
f 980/686/214 979/689/214 977/687/213
f 982/688/215 981/691/215 979/689/214
f 984/690/216 983/693/216 981/691/215
f 986/692/217 985/695/217 983/693/216
f 988/694/218 987/697/218 985/695/217
f 990/696/219 989/699/219 987/697/218
f 992/698/220 991/701/220 989/699/219
f 994/700/221 993/703/221 991/701/220
f 996/702/222 995/705/222 993/703/221
f 998/704/223 997/707/223 995/705/222
f 1000/706/224 999/709/224 997/707/223
f 1002/708/225 1001/711/225 999/709/224
f 1004/710/226 1003/713/226 1001/711/225
f 1006/712/227 1005/715/227 1003/713/226
f 1008/714/228 1007/717/228 1005/715/227
f 1010/716/229 1009/719/229 1007/717/228
f 1012/718/230 1011/721/230 1009/719/229
f 1014/720/231 1013/723/231 1011/721/230
f 1016/722/232 1015/725/232 1013/723/231
f 1018/724/233 1017/727/233 1015/725/232
f 1020/726/234 1019/729/234 1017/727/233
f 1022/728/235 1021/731/235 1019/729/234
f 1024/730/236 1023/733/236 1021/731/235
f 1026/732/237 1025/735/237 1023/733/236
f 1028/734/238 1027/737/238 1025/735/237
f 1030/736/239 1029/739/239 1027/737/238
f 1032/738/240 1031/741/240 1029/739/239
f 1034/740/241 1033/743/241 1031/741/240
f 1036/742/242 1035/745/242 1033/743/241
f 1038/744/243 1037/747/243 1035/745/242
f 1040/746/244 1039/749/246 1037/747/243
f 1042/748/245 1041/751/245 1039/749/246
f 1044/750/247 1043/753/249 1041/751/245
f 1046/752/248 1045/755/248 1043/753/249
f 1048/754/250 1047/757/250 1045/755/248
f 1050/756/251 1049/759/251 1047/757/250
f 1052/758/252 1051/761/252 1049/759/251
f 1054/760/253 1053/763/253 1051/761/252
f 1056/762/254 1055/765/254 1053/763/253
f 1058/764/255 1057/767/255 1055/765/254
f 1060/766/256 1059/769/256 1057/767/255
f 1062/768/257 1061/771/257 1059/769/256
f 1064/770/258 1063/773/258 1061/771/257
f 1066/772/259 1065/775/259 1063/773/258
f 1068/774/260 1067/777/260 1065/775/259
f 1070/776/261 1069/779/261 1067/777/260
f 1072/778/262 1071/781/262 1069/779/261
f 1074/780/263 1073/783/263 1071/781/262
f 1076/782/264 1075/785/264 1073/783/263
f 1078/784/265 1077/787/265 1075/785/264
f 1080/786/266 1079/789/266 1077/787/265
f 1082/788/267 1081/791/267 1079/789/266
f 1084/790/268 1083/793/268 1081/791/267
f 1086/792/269 1085/795/269 1083/793/268
f 1088/794/270 1087/797/270 1085/795/269
f 1090/796/271 1089/799/273 1087/797/270
f 1092/798/272 1091/801/272 1089/799/273
f 1094/800/274 1093/803/274 1091/801/272
f 1096/802/275 1095/805/275 1093/803/274
f 1098/804/276 1097/807/276 1095/805/275
f 1100/806/277 1099/809/277 1097/807/276
f 1102/808/278 1101/811/278 1099/809/277
f 1104/810/279 1103/813/279 1101/811/278
f 1106/812/280 1105/815/280 1103/813/279
f 1108/814/281 1107/817/281 1105/815/280
f 1110/816/282 1109/819/282 1107/817/281
f 1112/818/283 1111/821/283 1109/819/282
f 1114/820/284 1113/823/284 1111/821/283
f 1116/822/285 1115/825/285 1113/823/284
f 1118/824/286 1117/827/286 1115/825/285
f 1120/826/287 1119/829/287 1117/827/286
f 1122/828/288 1121/831/288 1119/829/287
f 1124/830/289 1123/833/289 1121/831/288
f 1126/832/290 1125/835/290 1123/833/289
f 1128/834/291 1127/837/291 1125/835/290
f 1130/836/292 1129/839/292 1127/837/291
f 1132/838/293 1131/841/293 1129/839/292
f 1134/840/294 1133/843/294 1131/841/293
f 1136/842/295 1135/845/295 1133/843/294
f 1138/844/296 1137/847/296 1135/845/295
f 1140/846/297 1139/848/297 1137/847/296
f 820/383/133 819/55/132 1139/848/297
