# Blender 4.1.1
# www.blender.org
mtllib parachute.mtl
o Sphere
v 0.555570 0.831470 0.000000
v 0.923880 0.382683 0.000000
v 0.980785 0.195090 0.000000
v 0.192126 0.980785 0.033877
v 0.376870 0.923880 0.066452
v 0.547130 0.831470 0.096474
v 0.696364 0.707107 0.122788
v 0.818838 0.555570 0.144383
v 0.909844 0.382683 0.160430
v 0.965885 0.195090 0.170312
v 0.984808 0.000000 0.173648
v 0.183325 0.980785 0.066725
v 0.359605 0.923880 0.130885
v 0.522065 0.831470 0.190016
v 0.664463 0.707107 0.241845
v 0.781326 0.555570 0.284379
v 0.868163 0.382683 0.315985
v 0.921637 0.195090 0.335448
v 0.939693 0.000000 0.342020
v 0.168953 0.980785 0.097545
v 0.331414 0.923880 0.191342
v 0.481138 0.831470 0.277785
v 0.612372 0.707107 0.353553
v 0.720074 0.555570 0.415735
v 0.800103 0.382683 0.461940
v 0.849385 0.195090 0.490393
v 0.866025 0.000000 0.500000
v 0.149448 0.980785 0.125402
v 0.293153 0.923880 0.245984
v 0.425591 0.831470 0.357114
v 0.541675 0.707107 0.454519
v 0.636943 0.555570 0.534458
v 0.707733 0.382683 0.593858
v 0.751325 0.195090 0.630437
v 0.766044 0.000000 0.642788
v 0.125402 0.980785 0.149448
v 0.245984 0.923880 0.293153
v 0.357114 0.831470 0.425591
v 0.454519 0.707107 0.541675
v 0.534458 0.555570 0.636943
v 0.593858 0.382683 0.707733
v 0.630436 0.195090 0.751325
v 0.642788 0.000000 0.766044
v 0.097545 0.980785 0.168953
v 0.191342 0.923880 0.331414
v 0.277785 0.831470 0.481138
v 0.353553 0.707107 0.612372
v 0.415735 0.555570 0.720074
v 0.461940 0.382683 0.800103
v 0.490393 0.195090 0.849385
v 0.500000 0.000000 0.866025
v 0.066725 0.980785 0.183325
v 0.130885 0.923880 0.359605
v 0.190016 0.831470 0.522065
v 0.241845 0.707107 0.664463
v 0.284379 0.555570 0.781326
v 0.315985 0.382683 0.868163
v 0.335448 0.195090 0.921637
v 0.342020 0.000000 0.939692
v 0.033877 0.980785 0.192126
v 0.066452 0.923880 0.376870
v 0.096474 0.831470 0.547130
v 0.122788 0.707107 0.696364
v 0.144383 0.555570 0.818838
v 0.160430 0.382683 0.909844
v 0.170311 0.195090 0.965885
v 0.173648 0.000000 0.984808
v 0.000000 0.980785 0.195090
v -0.000000 0.923880 0.382683
v -0.000000 0.831470 0.555570
v -0.000000 0.707107 0.707107
v -0.000000 0.555570 0.831470
v -0.000000 0.382683 0.923879
v -0.000000 0.195090 0.980785
v 0.000000 0.000000 1.000000
v -0.033877 0.980785 0.192126
v -0.066452 0.923880 0.376870
v -0.096474 0.831470 0.547130
v -0.122788 0.707107 0.696364
v -0.144383 0.555570 0.818838
v -0.160430 0.382683 0.909843
v -0.170312 0.195090 0.965885
v -0.173648 0.000000 0.984808
v -0.066725 0.980785 0.183325
v -0.130885 0.923880 0.359605
v -0.190016 0.831470 0.522065
v -0.241845 0.707107 0.664463
v -0.284379 0.555570 0.781326
v -0.315985 0.382683 0.868162
v -0.335448 0.195090 0.921636
v -0.342020 0.000000 0.939692
v -0.097545 0.980785 0.168953
v -0.191342 0.923880 0.331414
v -0.277785 0.831470 0.481138
v -0.353553 0.707107 0.612372
v -0.415735 0.555570 0.720074
v -0.461940 0.382683 0.800103
v -0.490393 0.195090 0.849385
v -0.500000 0.000000 0.866025
v -0.125402 0.980785 0.149448
v -0.245984 0.923880 0.293152
v -0.357114 0.831470 0.425591
v -0.454519 0.707107 0.541675
v -0.534458 0.555570 0.636943
v -0.593858 0.382683 0.707732
v -0.630437 0.195090 0.751325
v -0.642787 0.000000 0.766044
v -0.149448 0.980785 0.125402
v -0.293152 0.923880 0.245984
v -0.425591 0.831470 0.357113
v -0.541675 0.707107 0.454519
v -0.636943 0.555570 0.534458
v -0.707733 0.382683 0.593858
v -0.751325 0.195090 0.630436
v -0.766044 0.000000 0.642787
v -0.168953 0.980785 0.097545
v -0.331413 0.923880 0.191342
v -0.481138 0.831470 0.277785
v -0.612372 0.707107 0.353553
v -0.720074 0.555570 0.415735
v -0.800103 0.382683 0.461939
v -0.849385 0.195090 0.490392
v -0.866025 0.000000 0.500000
v -0.183325 0.980785 0.066725
v -0.359605 0.923880 0.130885
v -0.522065 0.831470 0.190016
v -0.664463 0.707107 0.241845
v -0.781326 0.555570 0.284379
v -0.868162 0.382683 0.315985
v -0.921636 0.195090 0.335448
v -0.939692 0.000000 0.342020
v -0.192126 0.980785 0.033877
v -0.376869 0.923880 0.066452
v -0.547130 0.831470 0.096474
v -0.696364 0.707107 0.122788
v -0.818838 0.555570 0.144383
v -0.909843 0.382683 0.160430
v -0.965885 0.195090 0.170311
v -0.984807 0.000000 0.173648
v -0.195090 0.980785 0.000000
v -0.382683 0.923880 -0.000000
v -0.555570 0.831470 -0.000000
v -0.707107 0.707107 -0.000000
v -0.831470 0.555570 -0.000000
v -0.923879 0.382683 -0.000000
v -0.980785 0.195090 -0.000000
v -1.000000 0.000000 -0.000000
v -0.192126 0.980785 -0.033877
v -0.376869 0.923880 -0.066452
v -0.547130 0.831470 -0.096474
v -0.696364 0.707107 -0.122788
v -0.818838 0.555570 -0.144383
v -0.909843 0.382683 -0.160430
v -0.965884 0.195090 -0.170312
v -0.984807 0.000000 -0.173648
v -0.183325 0.980785 -0.066725
v -0.359605 0.923880 -0.130885
v -0.522065 0.831470 -0.190016
v -0.664463 0.707107 -0.241845
v -0.781326 0.555570 -0.284379
v -0.868162 0.382683 -0.315985
v -0.921636 0.195090 -0.335448
v -0.939692 0.000000 -0.342020
v -0.168953 0.980785 -0.097545
v -0.331413 0.923880 -0.191342
v -0.481138 0.831470 -0.277785
v -0.612372 0.707107 -0.353553
v -0.720074 0.555570 -0.415735
v -0.800103 0.382683 -0.461940
v -0.849384 0.195090 -0.490393
v -0.866025 0.000000 -0.500000
v -0.149448 0.980785 -0.125402
v -0.293152 0.923880 -0.245984
v -0.425591 0.831470 -0.357114
v -0.541675 0.707107 -0.454519
v -0.636943 0.555570 -0.534458
v -0.707732 0.382683 -0.593858
v -0.751325 0.195090 -0.630436
v -0.766044 0.000000 -0.642787
v -0.125402 0.980785 -0.149448
v -0.245984 0.923880 -0.293152
v -0.357113 0.831470 -0.425591
v -0.454519 0.707107 -0.541675
v -0.534458 0.555570 -0.636943
v -0.593858 0.382683 -0.707732
v -0.630436 0.195090 -0.751325
v -0.642787 0.000000 -0.766044
v -0.097545 0.980785 -0.168953
v -0.191342 0.923880 -0.331413
v -0.277785 0.831470 -0.481138
v -0.353553 0.707107 -0.612372
v -0.415735 0.555570 -0.720074
v -0.461939 0.382683 -0.800103
v -0.490392 0.195090 -0.849385
v -0.500000 0.000000 -0.866025
v -0.066725 0.980785 -0.183325
v -0.130885 0.923880 -0.359605
v -0.190016 0.831470 -0.522065
v -0.241845 0.707107 -0.664463
v -0.284379 0.555570 -0.781326
v -0.315985 0.382683 -0.868162
v -0.335448 0.195090 -0.921636
v -0.342020 0.000000 -0.939692
v 0.000000 1.000000 0.000000
v -0.033877 0.980785 -0.192126
v -0.066452 0.923880 -0.376869
v -0.096474 0.831470 -0.547130
v -0.122788 0.707107 -0.696364
v -0.144383 0.555570 -0.818838
v -0.160430 0.382683 -0.909843
v -0.170311 0.195090 -0.965884
v -0.173648 0.000000 -0.984807
v 0.000000 0.980785 -0.195090
v 0.000000 0.923880 -0.382683
v 0.000000 0.831470 -0.555570
v 0.000000 0.707107 -0.707107
v 0.000000 0.555570 -0.831470
v 0.000000 0.382683 -0.923879
v 0.000000 0.195090 -0.980785
v 0.000000 0.000000 -0.999999
v 0.033877 0.980785 -0.192126
v 0.066452 0.923880 -0.376869
v 0.096474 0.831470 -0.547129
v 0.122788 0.707107 -0.696364
v 0.144383 0.555570 -0.818838
v 0.160430 0.382683 -0.909843
v 0.170312 0.195090 -0.965884
v 0.173648 0.000000 -0.984807
v 0.066725 0.980785 -0.183325
v 0.130885 0.923880 -0.359605
v 0.190016 0.831470 -0.522065
v 0.241845 0.707107 -0.664463
v 0.284379 0.555570 -0.781326
v 0.315985 0.382683 -0.868162
v 0.335448 0.195090 -0.921636
v 0.342020 0.000000 -0.939692
v 0.097545 0.980785 -0.168953
v 0.191342 0.923880 -0.331413
v 0.277785 0.831470 -0.481137
v 0.353553 0.707107 -0.612372
v 0.415735 0.555570 -0.720074
v 0.461940 0.382683 -0.800102
v 0.490393 0.195090 -0.849384
v 0.500000 0.000000 -0.866025
v 0.125402 0.980785 -0.149448
v 0.245984 0.923880 -0.293152
v 0.357113 0.831470 -0.425591
v 0.454519 0.707107 -0.541675
v 0.534458 0.555570 -0.636943
v 0.593858 0.382683 -0.707732
v 0.630436 0.195090 -0.751324
v 0.642787 0.000000 -0.766044
v 0.149448 0.980785 -0.125402
v 0.293152 0.923880 -0.245984
v 0.425591 0.831470 -0.357113
v 0.541675 0.707107 -0.454519
v 0.636943 0.555570 -0.534458
v 0.707732 0.382683 -0.593858
v 0.751325 0.195090 -0.630436
v 0.766044 0.000000 -0.642787
v 0.168953 0.980785 -0.097545
v 0.331413 0.923880 -0.191341
v 0.481138 0.831470 -0.277785
v 0.612372 0.707107 -0.353553
v 0.720074 0.555570 -0.415735
v 0.800103 0.382683 -0.461939
v 0.849384 0.195090 -0.490392
v 0.866025 0.000000 -0.500000
v 0.183325 0.980785 -0.066725
v 0.359604 0.923880 -0.130885
v 0.522065 0.831470 -0.190016
v 0.664463 0.707107 -0.241845
v 0.781326 0.555570 -0.284379
v 0.868162 0.382683 -0.315985
v 0.921636 0.195090 -0.335448
v 0.939692 0.000000 -0.342020
v 0.192126 0.980785 -0.033877
v 0.376869 0.923880 -0.066452
v 0.547129 0.831470 -0.096473
v 0.696364 0.707107 -0.122788
v 0.818838 0.555570 -0.144383
v 0.909843 0.382683 -0.160430
v 0.965884 0.195090 -0.170311
v 0.984807 0.000000 -0.173648
v 0.195090 0.980785 0.000000
v 0.382683 0.923880 0.000000
v 0.707106 0.707107 0.000000
v 0.831470 0.555570 0.000000
v 0.999999 0.000000 0.000000
vn 0.6334 0.7718 0.0554
vn 0.7712 0.6329 0.0675
vn 0.8793 0.4700 0.0769
vn 0.9536 0.2893 0.0834
vn 0.9914 0.0976 0.0867
vn 0.0980 0.9951 0.0086
vn 0.2902 0.9566 0.0254
vn 0.4710 0.8812 0.0412
vn 0.4567 0.8812 0.1224
vn 0.6142 0.7718 0.1646
vn 0.7478 0.6329 0.2004
vn 0.8526 0.4700 0.2285
vn 0.9246 0.2893 0.2478
vn 0.9613 0.0976 0.2576
vn 0.0950 0.9951 0.0255
vn 0.2814 0.9566 0.0754
vn 0.8676 0.2893 0.4046
vn 0.9020 0.0976 0.4206
vn 0.0892 0.9951 0.0416
vn 0.2640 0.9566 0.1231
vn 0.4285 0.8812 0.1998
vn 0.5763 0.7718 0.2687
vn 0.7017 0.6329 0.3272
vn 0.8000 0.4700 0.3730
vn 0.5208 0.7718 0.3647
vn 0.6342 0.6329 0.4441
vn 0.7230 0.4700 0.5063
vn 0.7841 0.2893 0.5491
vn 0.8152 0.0976 0.5708
vn 0.0806 0.9951 0.0564
vn 0.2386 0.9566 0.1671
vn 0.3873 0.8812 0.2712
vn 0.7037 0.0976 0.7037
vn 0.0696 0.9951 0.0696
vn 0.2060 0.9566 0.2060
vn 0.3343 0.8812 0.3343
vn 0.4496 0.7718 0.4496
vn 0.5474 0.6329 0.5474
vn 0.6241 0.4700 0.6241
vn 0.6769 0.2893 0.6769
vn 0.3647 0.7718 0.5208
vn 0.4441 0.6329 0.6342
vn 0.5063 0.4700 0.7230
vn 0.5491 0.2893 0.7841
vn 0.5708 0.0976 0.8152
vn 0.0564 0.9951 0.0806
vn 0.1671 0.9566 0.2386
vn 0.2712 0.8812 0.3873
vn 0.4206 0.0976 0.9020
vn 0.0416 0.9951 0.0892
vn 0.1231 0.9566 0.2640
vn 0.1998 0.8812 0.4285
vn 0.2687 0.7718 0.5763
vn 0.3272 0.6329 0.7017
vn 0.3730 0.4700 0.8000
vn 0.4045 0.2893 0.8676
vn 0.2004 0.6329 0.7478
vn 0.2285 0.4700 0.8526
vn 0.2478 0.2893 0.9246
vn 0.2576 0.0976 0.9613
vn 0.0255 0.9951 0.0950
vn 0.0754 0.9566 0.2814
vn 0.1224 0.8812 0.4567
vn 0.1646 0.7718 0.6142
vn 0.0086 0.9951 0.0980
vn 0.0254 0.9566 0.2902
vn 0.0412 0.8812 0.4710
vn 0.0554 0.7718 0.6334
vn 0.0675 0.6329 0.7712
vn 0.0769 0.4700 0.8793
vn 0.0834 0.2893 0.9536
vn 0.0867 0.0976 0.9914
vn -0.0675 0.6329 0.7712
vn -0.0769 0.4700 0.8793
vn -0.0834 0.2893 0.9536
vn -0.0867 0.0976 0.9914
vn -0.0086 0.9951 0.0980
vn -0.0254 0.9566 0.2902
vn -0.0412 0.8812 0.4710
vn -0.0554 0.7718 0.6334
vn -0.0754 0.9566 0.2814
vn -0.1224 0.8812 0.4567
vn -0.1646 0.7718 0.6142
vn -0.2004 0.6329 0.7478
vn -0.2285 0.4700 0.8526
vn -0.2478 0.2893 0.9246
vn -0.2576 0.0976 0.9613
vn -0.0255 0.9951 0.0950
vn -0.3730 0.4700 0.8000
vn -0.4045 0.2893 0.8676
vn -0.4206 0.0976 0.9020
vn -0.0416 0.9951 0.0892
vn -0.1231 0.9566 0.2640
vn -0.1998 0.8812 0.4285
vn -0.2687 0.7718 0.5763
vn -0.3272 0.6329 0.7017
vn -0.2712 0.8812 0.3873
vn -0.3647 0.7718 0.5208
vn -0.4441 0.6329 0.6342
vn -0.5063 0.4700 0.7230
vn -0.5491 0.2893 0.7841
vn -0.5708 0.0976 0.8152
vn -0.0564 0.9951 0.0806
vn -0.1671 0.9566 0.2386
vn -0.6769 0.2893 0.6769
vn -0.7037 0.0976 0.7037
vn -0.0696 0.9951 0.0696
vn -0.2060 0.9566 0.2060
vn -0.3343 0.8812 0.3343
vn -0.4496 0.7718 0.4496
vn -0.5474 0.6329 0.5474
vn -0.6241 0.4700 0.6241
vn -0.3873 0.8812 0.2712
vn -0.5208 0.7718 0.3647
vn -0.6342 0.6329 0.4441
vn -0.7230 0.4700 0.5063
vn -0.7841 0.2893 0.5491
vn -0.8152 0.0976 0.5708
vn -0.0806 0.9951 0.0564
vn -0.2386 0.9566 0.1671
vn -0.8676 0.2893 0.4045
vn -0.9020 0.0976 0.4206
vn -0.0892 0.9951 0.0416
vn -0.2640 0.9566 0.1231
vn -0.4285 0.8812 0.1998
vn -0.5763 0.7718 0.2687
vn -0.7017 0.6329 0.3272
vn -0.8000 0.4700 0.3730
vn -0.6142 0.7718 0.1646
vn -0.7478 0.6329 0.2004
vn -0.8526 0.4700 0.2285
vn -0.9246 0.2893 0.2478
vn -0.9613 0.0976 0.2576
vn -0.0950 0.9951 0.0255
vn -0.2814 0.9566 0.0754
vn -0.4567 0.8812 0.1224
vn -0.9914 0.0976 0.0867
vn -0.0980 0.9951 0.0086
vn -0.2902 0.9566 0.0254
vn -0.4710 0.8812 0.0412
vn -0.6334 0.7718 0.0554
vn -0.7712 0.6329 0.0675
vn -0.8793 0.4700 0.0769
vn -0.9536 0.2893 0.0834
vn -0.6334 0.7718 -0.0554
vn -0.7712 0.6329 -0.0675
vn -0.8793 0.4700 -0.0769
vn -0.9536 0.2893 -0.0834
vn -0.9914 0.0976 -0.0867
vn -0.0980 0.9951 -0.0086
vn -0.2902 0.9566 -0.0254
vn -0.4710 0.8812 -0.0412
vn -0.9613 0.0976 -0.2576
vn -0.0950 0.9951 -0.0255
vn -0.2814 0.9566 -0.0754
vn -0.4567 0.8812 -0.1224
vn -0.6142 0.7718 -0.1646
vn -0.7478 0.6329 -0.2004
vn -0.8526 0.4700 -0.2285
vn -0.9246 0.2893 -0.2478
vn -0.7017 0.6329 -0.3272
vn -0.8000 0.4700 -0.3730
vn -0.8676 0.2893 -0.4046
vn -0.9020 0.0976 -0.4206
vn -0.0892 0.9951 -0.0416
vn -0.2640 0.9566 -0.1231
vn -0.4285 0.8812 -0.1998
vn -0.5763 0.7718 -0.2687
vn -0.2386 0.9566 -0.1671
vn -0.3873 0.8812 -0.2712
vn -0.5208 0.7718 -0.3647
vn -0.6342 0.6329 -0.4441
vn -0.7230 0.4700 -0.5063
vn -0.7841 0.2893 -0.5491
vn -0.8152 0.0976 -0.5708
vn -0.0806 0.9951 -0.0564
vn -0.6241 0.4700 -0.6241
vn -0.6769 0.2893 -0.6769
vn -0.7037 0.0976 -0.7037
vn -0.0696 0.9951 -0.0696
vn -0.2060 0.9566 -0.2060
vn -0.3343 0.8812 -0.3343
vn -0.4496 0.7718 -0.4496
vn -0.5474 0.6329 -0.5474
vn -0.1671 0.9566 -0.2386
vn -0.2712 0.8812 -0.3873
vn -0.3647 0.7718 -0.5208
vn -0.4441 0.6329 -0.6342
vn -0.5063 0.4700 -0.7230
vn -0.5491 0.2893 -0.7841
vn -0.5708 0.0976 -0.8152
vn -0.0564 0.9951 -0.0806
vn -0.3730 0.4700 -0.8000
vn -0.4045 0.2893 -0.8676
vn -0.4206 0.0976 -0.9020
vn -0.0416 0.9951 -0.0892
vn -0.1231 0.9566 -0.2640
vn -0.1998 0.8812 -0.4285
vn -0.2687 0.7718 -0.5763
vn -0.3272 0.6329 -0.7017
vn -0.1224 0.8812 -0.4567
vn -0.1646 0.7718 -0.6142
vn -0.2004 0.6329 -0.7478
vn -0.2285 0.4700 -0.8526
vn -0.2478 0.2893 -0.9246
vn -0.2576 0.0976 -0.9613
vn -0.0255 0.9951 -0.0950
vn -0.0754 0.9566 -0.2814
vn -0.0834 0.2893 -0.9536
vn -0.0867 0.0976 -0.9914
vn -0.0086 0.9951 -0.0980
vn -0.0254 0.9566 -0.2902
vn -0.0412 0.8812 -0.4710
vn -0.0554 0.7718 -0.6334
vn -0.0675 0.6329 -0.7712
vn -0.0769 0.4700 -0.8793
vn 0.0412 0.8812 -0.4710
vn 0.0554 0.7718 -0.6334
vn 0.0675 0.6329 -0.7712
vn 0.0769 0.4700 -0.8793
vn 0.0834 0.2893 -0.9536
vn 0.0867 0.0976 -0.9914
vn 0.0086 0.9951 -0.0980
vn 0.0254 0.9566 -0.2902
vn 0.2478 0.2893 -0.9246
vn 0.2576 0.0976 -0.9613
vn 0.0255 0.9951 -0.0950
vn 0.0754 0.9566 -0.2814
vn 0.1224 0.8812 -0.4567
vn 0.1646 0.7718 -0.6142
vn 0.2004 0.6329 -0.7478
vn 0.2285 0.4700 -0.8526
vn 0.2687 0.7718 -0.5763
vn 0.3272 0.6329 -0.7017
vn 0.3730 0.4700 -0.8000
vn 0.4045 0.2893 -0.8676
vn 0.4206 0.0976 -0.9020
vn 0.0416 0.9951 -0.0892
vn 0.1231 0.9566 -0.2640
vn 0.1998 0.8812 -0.4285
vn 0.5708 0.0976 -0.8152
vn 0.0564 0.9951 -0.0806
vn 0.1671 0.9566 -0.2386
vn 0.2712 0.8812 -0.3873
vn 0.3647 0.7718 -0.5208
vn 0.4441 0.6329 -0.6342
vn 0.5063 0.4700 -0.7230
vn 0.5491 0.2893 -0.7841
vn 0.5474 0.6329 -0.5474
vn 0.6241 0.4700 -0.6241
vn 0.6769 0.2893 -0.6769
vn 0.7037 0.0976 -0.7037
vn 0.0696 0.9951 -0.0696
vn 0.2060 0.9566 -0.2060
vn 0.3343 0.8812 -0.3343
vn 0.4496 0.7718 -0.4496
vn 0.0806 0.9951 -0.0564
vn 0.2386 0.9566 -0.1671
vn 0.3873 0.8812 -0.2712
vn 0.5208 0.7718 -0.3647
vn 0.6342 0.6329 -0.4441
vn 0.7230 0.4700 -0.5063
vn 0.7841 0.2893 -0.5491
vn 0.8152 0.0976 -0.5708
vn 0.7017 0.6329 -0.3272
vn 0.8000 0.4700 -0.3730
vn 0.8676 0.2893 -0.4045
vn 0.9020 0.0976 -0.4206
vn 0.0892 0.9951 -0.0416
vn 0.2640 0.9566 -0.1231
vn 0.4285 0.8812 -0.1998
vn 0.5763 0.7718 -0.2687
vn 0.2814 0.9566 -0.0754
vn 0.4567 0.8812 -0.1224
vn 0.6142 0.7718 -0.1646
vn 0.7478 0.6329 -0.2004
vn 0.8526 0.4700 -0.2285
vn 0.9246 0.2893 -0.2478
vn 0.9613 0.0976 -0.2576
vn 0.0950 0.9951 -0.0255
vn 0.8793 0.4700 -0.0769
vn 0.9536 0.2893 -0.0834
vn 0.9914 0.0976 -0.0867
vn 0.0980 0.9951 -0.0086
vn 0.2902 0.9566 -0.0254
vn 0.4710 0.8812 -0.0412
vn 0.6334 0.7718 -0.0554
vn 0.7712 0.6329 -0.0675
vn 0.8676 0.2893 0.4045
vn 0.4046 0.2893 0.8676
vn -0.4046 0.2893 0.8676
vn -0.4046 0.2893 -0.8676
vn 0.4046 0.2893 -0.8676
vt 0.719408 0.265226
vt 0.695576 0.318847
vt 0.695576 0.265226
vt 0.719408 0.211604
vt 0.695576 0.211604
vt 0.695576 0.157983
vt 0.719408 0.157983
vt 0.695576 0.104361
vt 0.719408 0.104361
vt 0.719408 0.050739
vt 0.695576 0.050739
vt 0.719408 0.426091
vt 0.707492 0.479712
vt 0.695576 0.426091
vt 0.719408 0.372469
vt 0.695576 0.372469
vt 0.719408 0.318847
vt 0.671744 0.318847
vt 0.671744 0.265226
vt 0.671744 0.211604
vt 0.671744 0.157983
vt 0.671744 0.104361
vt 0.671744 0.050739
vt 0.683660 0.479712
vt 0.671744 0.426091
vt 0.671744 0.372469
vt 0.647913 0.104361
vt 0.647913 0.050739
vt 0.659828 0.479712
vt 0.647913 0.426091
vt 0.647913 0.372469
vt 0.647913 0.318847
vt 0.647913 0.265226
vt 0.647913 0.211604
vt 0.647913 0.157983
vt 0.624081 0.265226
vt 0.624081 0.211604
vt 0.624081 0.157983
vt 0.624081 0.104361
vt 0.624081 0.050739
vt 0.635997 0.479712
vt 0.624081 0.426091
vt 0.624081 0.372469
vt 0.624081 0.318847
vt 0.600249 0.050739
vt 0.612165 0.479712
vt 0.600249 0.426091
vt 0.600249 0.372469
vt 0.600249 0.318847
vt 0.600249 0.265226
vt 0.600249 0.211604
vt 0.600249 0.157983
vt 0.600249 0.104361
vt 0.576417 0.265226
vt 0.576417 0.211604
vt 0.576417 0.157983
vt 0.576417 0.104361
vt 0.576417 0.050739
vt 0.588333 0.479712
vt 0.576417 0.426091
vt 0.576417 0.372469
vt 0.576417 0.318847
vt 0.552585 0.050739
vt 0.564501 0.479712
vt 0.552585 0.426091
vt 0.552585 0.372469
vt 0.552585 0.318847
vt 0.552585 0.265226
vt 0.552585 0.211604
vt 0.552585 0.157983
vt 0.552585 0.104361
vt 0.528753 0.211604
vt 0.528753 0.157983
vt 0.528753 0.104361
vt 0.528753 0.050739
vt 0.540669 0.479712
vt 0.528753 0.426091
vt 0.528753 0.372469
vt 0.528753 0.318847
vt 0.528753 0.265226
vt 0.516837 0.479712
vt 0.504922 0.426091
vt 0.504922 0.372469
vt 0.504922 0.318847
vt 0.504922 0.265226
vt 0.504922 0.211604
vt 0.504922 0.157983
vt 0.504922 0.104361
vt 0.504922 0.050739
vt 0.481090 0.265226
vt 0.481090 0.211604
vt 0.481090 0.157983
vt 0.481090 0.104361
vt 0.481090 0.050739
vt 0.493006 0.479712
vt 0.481090 0.426091
vt 0.481090 0.372469
vt 0.481090 0.318847
vt 0.457258 0.372469
vt 0.457258 0.318847
vt 0.457258 0.265226
vt 0.457258 0.211604
vt 0.457258 0.157983
vt 0.457258 0.104361
vt 0.457258 0.050739
vt 0.469174 0.479712
vt 0.457258 0.426091
vt 0.433426 0.211604
vt 0.433426 0.157983
vt 0.433426 0.104361
vt 0.433426 0.050739
vt 0.445342 0.479712
vt 0.433426 0.426091
vt 0.433426 0.372469
vt 0.433426 0.318847
vt 0.433426 0.265226
vt 0.409594 0.318847
vt 0.409594 0.265226
vt 0.409594 0.211604
vt 0.409594 0.157983
vt 0.409594 0.104361
vt 0.409594 0.050739
vt 0.421510 0.479712
vt 0.409594 0.426091
vt 0.409594 0.372469
vt 0.385762 0.104361
vt 0.385762 0.050739
vt 0.397678 0.479712
vt 0.385762 0.426091
vt 0.385762 0.372469
vt 0.385762 0.318847
vt 0.385762 0.265226
vt 0.385762 0.211604
vt 0.385762 0.157983
vt 0.361931 0.372469
vt 0.361931 0.318847
vt 0.361931 0.265226
vt 0.361931 0.211604
vt 0.361931 0.157983
vt 0.361931 0.104361
vt 0.361931 0.050739
vt 0.373847 0.479712
vt 0.361931 0.426091
vt 0.338099 0.104361
vt 0.338099 0.050739
vt 0.350015 0.479712
vt 0.338099 0.426091
vt 0.338099 0.372469
vt 0.338099 0.318847
vt 0.338099 0.265226
vt 0.338099 0.211604
vt 0.338099 0.157983
vt 0.314267 0.265226
vt 0.314267 0.211604
vt 0.314267 0.157983
vt 0.314267 0.104361
vt 0.314267 0.050739
vt 0.326183 0.479712
vt 0.314267 0.426091
vt 0.314267 0.372469
vt 0.314267 0.318847
vt 0.290435 0.050739
vt 0.302351 0.479712
vt 0.290435 0.426091
vt 0.290435 0.372469
vt 0.290435 0.318847
vt 0.290435 0.265226
vt 0.290435 0.211604
vt 0.290435 0.157983
vt 0.290435 0.104361
vt 0.266603 0.265226
vt 0.266603 0.211604
vt 0.266603 0.157983
vt 0.266603 0.104361
vt 0.266603 0.050739
vt 0.278519 0.479712
vt 0.266603 0.426091
vt 0.266603 0.372469
vt 0.266603 0.318847
vt 0.242772 0.050739
vt 0.254687 0.479712
vt 0.242772 0.426091
vt 0.242772 0.372469
vt 0.242771 0.318847
vt 0.242772 0.265226
vt 0.242772 0.211604
vt 0.242771 0.157983
vt 0.242771 0.104361
vt 0.218940 0.211604
vt 0.218940 0.157983
vt 0.218940 0.104361
vt 0.218940 0.050739
vt 0.230856 0.479712
vt 0.218940 0.426091
vt 0.218940 0.372469
vt 0.218940 0.318847
vt 0.218940 0.265226
vt 0.195108 0.372469
vt 0.195108 0.318847
vt 0.195108 0.265226
vt 0.195108 0.211604
vt 0.195108 0.157983
vt 0.195108 0.104361
vt 0.195108 0.050739
vt 0.207024 0.479712
vt 0.195108 0.426091
vt 0.171276 0.211604
vt 0.171276 0.157983
vt 0.171276 0.104361
vt 0.171276 0.050739
vt 0.183192 0.479712
vt 0.171276 0.426091
vt 0.171276 0.372469
vt 0.171276 0.318847
vt 0.171276 0.265226
vt 0.147444 0.372469
vt 0.147444 0.318847
vt 0.147444 0.265226
vt 0.147444 0.211604
vt 0.147444 0.157983
vt 0.147444 0.104361
vt 0.147444 0.050739
vt 0.159360 0.479712
vt 0.147444 0.426091
vt 0.123612 0.211604
vt 0.123612 0.157983
vt 0.123612 0.104361
vt 0.123612 0.050739
vt 0.135528 0.479712
vt 0.123612 0.426091
vt 0.123612 0.372469
vt 0.123612 0.318847
vt 0.123612 0.265226
vt 0.099781 0.372469
vt 0.099780 0.318847
vt 0.099781 0.265226
vt 0.099781 0.211604
vt 0.099781 0.157983
vt 0.099780 0.104361
vt 0.099781 0.050739
vt 0.111696 0.479712
vt 0.099781 0.426091
vt 0.075949 0.157983
vt 0.075949 0.104361
vt 0.075949 0.050739
vt 0.087865 0.479712
vt 0.075949 0.426091
vt 0.075949 0.372469
vt 0.075949 0.318847
vt 0.075949 0.265226
vt 0.075949 0.211604
vt 0.933894 0.318847
vt 0.910063 0.372469
vt 0.910063 0.318847
vt 0.910063 0.265226
vt 0.933894 0.265226
vt 0.910063 0.211604
vt 0.933894 0.211604
vt 0.933894 0.157983
vt 0.910063 0.157983
vt 0.933894 0.104361
vt 0.910063 0.104361
vt 0.910063 0.050739
vt 0.933894 0.050739
vt 0.933894 0.426091
vt 0.921978 0.479712
vt 0.910063 0.426091
vt 0.933894 0.372469
vt 0.886231 0.157983
vt 0.886231 0.104361
vt 0.886231 0.050739
vt 0.898147 0.479712
vt 0.886231 0.426091
vt 0.886231 0.372469
vt 0.886231 0.318848
vt 0.886231 0.265226
vt 0.886231 0.211604
vt 0.862399 0.265226
vt 0.862399 0.211604
vt 0.862399 0.157983
vt 0.862399 0.104361
vt 0.862399 0.050739
vt 0.874315 0.479712
vt 0.862399 0.426091
vt 0.862399 0.372469
vt 0.862399 0.318848
vt 0.838567 0.050739
vt 0.850483 0.479712
vt 0.838567 0.426091
vt 0.838567 0.372469
vt 0.838567 0.318848
vt 0.838567 0.265226
vt 0.838567 0.211604
vt 0.838567 0.157983
vt 0.838567 0.104361
vt 0.814735 0.211604
vt 0.814735 0.157983
vt 0.814735 0.104361
vt 0.814735 0.050739
vt 0.826651 0.479712
vt 0.814735 0.426091
vt 0.814735 0.372469
vt 0.814735 0.318848
vt 0.814735 0.265226
vt 0.802819 0.479712
vt 0.790903 0.426091
vt 0.790903 0.372469
vt 0.790903 0.318848
vt 0.790903 0.265226
vt 0.790903 0.211604
vt 0.790903 0.157983
vt 0.790903 0.104361
vt 0.790903 0.050739
vt 0.767072 0.211604
vt 0.767072 0.157983
vt 0.767072 0.104361
vt 0.767072 0.050739
vt 0.778988 0.479712
vt 0.767072 0.426091
vt 0.767072 0.372469
vt 0.767072 0.318848
vt 0.767072 0.265226
vt 0.743240 0.426091
vt 0.743240 0.372469
vt 0.743240 0.318848
vt 0.743240 0.265226
vt 0.743240 0.211604
vt 0.743240 0.157983
vt 0.743240 0.104361
vt 0.743240 0.050739
vt 0.755156 0.479712
vt 0.731324 0.479712
s 0
f 287/1/1 6/2/1 7/3/1
f 288/4/2 7/3/2 8/5/2
f 288/4/3 9/6/3 2/7/3
f 2/7/4 10/8/4 3/9/4
f 289/10/5 10/8/5 11/11/5
f 285/12/6 204/13/6 4/14/6
f 286/15/7 4/14/7 5/16/7
f 1/17/8 5/16/8 6/2/8
f 5/16/9 14/18/9 6/2/9
f 6/2/10 15/19/10 7/3/10
f 7/3/11 16/20/11 8/5/11
f 8/5/12 17/21/12 9/6/12
f 9/6/13 18/22/13 10/8/13
f 10/8/14 19/23/14 11/11/14
f 4/14/15 204/24/15 12/25/15
f 4/14/16 13/26/16 5/16/16
f 17/21/17 26/27/17 18/22/17
f 18/22/18 27/28/18 19/23/18
f 12/25/19 204/29/19 20/30/19
f 13/26/20 20/30/20 21/31/20
f 13/26/21 22/32/21 14/18/21
f 14/18/22 23/33/22 15/19/22
f 16/20/23 23/33/23 24/34/23
f 16/20/24 25/35/24 17/21/24
f 22/32/25 31/36/25 23/33/25
f 23/33/26 32/37/26 24/34/26
f 24/34/27 33/38/27 25/35/27
f 25/35/28 34/39/28 26/27/28
f 26/27/29 35/40/29 27/28/29
f 20/30/30 204/41/30 28/42/30
f 20/30/31 29/43/31 21/31/31
f 21/31/32 30/44/32 22/32/32
f 34/39/33 43/45/33 35/40/33
f 28/42/34 204/46/34 36/47/34
f 28/42/35 37/48/35 29/43/35
f 30/44/36 37/48/36 38/49/36
f 31/36/37 38/49/37 39/50/37
f 31/36/38 40/51/38 32/37/38
f 32/37/39 41/52/39 33/38/39
f 34/39/40 41/52/40 42/53/40
f 38/49/41 47/54/41 39/50/41
f 39/50/42 48/55/42 40/51/42
f 40/51/43 49/56/43 41/52/43
f 41/52/44 50/57/44 42/53/44
f 42/53/45 51/58/45 43/45/45
f 36/47/46 204/59/46 44/60/46
f 37/48/47 44/60/47 45/61/47
f 37/48/48 46/62/48 38/49/48
f 50/57/49 59/63/49 51/58/49
f 44/60/50 204/64/50 52/65/50
f 44/60/51 53/66/51 45/61/51
f 45/61/52 54/67/52 46/62/52
f 46/62/53 55/68/53 47/54/53
f 47/54/54 56/69/54 48/55/54
f 48/55/55 57/70/55 49/56/55
f 49/56/56 58/71/56 50/57/56
f 55/68/57 64/72/57 56/69/57
f 56/69/58 65/73/58 57/70/58
f 57/70/59 66/74/59 58/71/59
f 58/71/60 67/75/60 59/63/60
f 52/65/61 204/76/61 60/77/61
f 52/65/62 61/78/62 53/66/62
f 53/66/63 62/79/63 54/67/63
f 54/67/64 63/80/64 55/68/64
f 60/77/65 204/81/65 68/82/65
f 60/77/66 69/83/66 61/78/66
f 61/78/67 70/84/67 62/79/67
f 62/79/68 71/85/68 63/80/68
f 64/72/69 71/85/69 72/86/69
f 64/72/70 73/87/70 65/73/70
f 66/74/71 73/87/71 74/88/71
f 66/74/72 75/89/72 67/75/72
f 72/86/73 79/90/73 80/91/73
f 72/86/74 81/92/74 73/87/74
f 74/88/75 81/92/75 82/93/75
f 74/88/76 83/94/76 75/89/76
f 68/82/77 204/95/77 76/96/77
f 68/82/78 77/97/78 69/83/78
f 69/83/79 78/98/79 70/84/79
f 71/85/80 78/98/80 79/90/80
f 76/96/81 85/99/81 77/97/81
f 77/97/82 86/100/82 78/98/82
f 78/98/83 87/101/83 79/90/83
f 80/91/84 87/101/84 88/102/84
f 80/91/85 89/103/85 81/92/85
f 81/92/86 90/104/86 82/93/86
f 82/93/87 91/105/87 83/94/87
f 76/96/88 204/106/88 84/107/88
f 89/103/89 96/108/89 97/109/89
f 89/103/90 98/110/90 90/104/90
f 90/104/91 99/111/91 91/105/91
f 84/107/92 204/112/92 92/113/92
f 84/107/93 93/114/93 85/99/93
f 85/99/94 94/115/94 86/100/94
f 86/100/95 95/116/95 87/101/95
f 88/102/96 95/116/96 96/108/96
f 93/114/97 102/117/97 94/115/97
f 94/115/98 103/118/98 95/116/98
f 95/116/99 104/119/99 96/108/99
f 97/109/100 104/119/100 105/120/100
f 97/109/101 106/121/101 98/110/101
f 98/110/102 107/122/102 99/111/102
f 92/113/103 204/123/103 100/124/103
f 92/113/104 101/125/104 93/114/104
f 105/120/105 114/126/105 106/121/105
f 106/121/106 115/127/106 107/122/106
f 100/124/107 204/128/107 108/129/107
f 101/125/108 108/129/108 109/130/108
f 101/125/109 110/131/109 102/117/109
f 102/117/110 111/132/110 103/118/110
f 104/119/111 111/132/111 112/133/111
f 105/120/112 112/133/112 113/134/112
f 110/131/113 117/135/113 118/136/113
f 110/131/114 119/137/114 111/132/114
f 111/132/115 120/138/115 112/133/115
f 113/134/116 120/138/116 121/139/116
f 113/134/117 122/140/117 114/126/117
f 114/126/118 123/141/118 115/127/118
f 108/129/119 204/142/119 116/143/119
f 108/129/120 117/135/120 109/130/120
f 121/139/121 130/144/121 122/140/121
f 122/140/122 131/145/122 123/141/122
f 116/143/123 204/146/123 124/147/123
f 116/143/124 125/148/124 117/135/124
f 117/135/125 126/149/125 118/136/125
f 118/136/126 127/150/126 119/137/126
f 120/138/127 127/150/127 128/151/127
f 120/138/128 129/152/128 121/139/128
f 126/149/129 135/153/129 127/150/129
f 128/151/130 135/153/130 136/154/130
f 129/152/131 136/154/131 137/155/131
f 130/144/132 137/155/132 138/156/132
f 130/144/133 139/157/133 131/145/133
f 124/147/134 204/158/134 132/159/134
f 124/147/135 133/160/135 125/148/135
f 125/148/136 134/161/136 126/149/136
f 138/156/137 147/162/137 139/157/137
f 132/159/138 204/163/138 140/164/138
f 133/160/139 140/164/139 141/165/139
f 133/160/140 142/166/140 134/161/140
f 134/161/141 143/167/141 135/153/141
f 135/153/142 144/168/142 136/154/142
f 137/155/143 144/168/143 145/169/143
f 137/155/144 146/170/144 138/156/144
f 142/166/145 151/171/145 143/167/145
f 143/167/146 152/172/146 144/168/146
f 145/169/147 152/172/147 153/173/147
f 146/170/148 153/173/148 154/174/148
f 146/170/149 155/175/149 147/162/149
f 140/164/150 204/176/150 148/177/150
f 140/164/151 149/178/151 141/165/151
f 142/166/152 149/178/152 150/179/152
f 154/174/153 163/180/153 155/175/153
f 148/177/154 204/181/154 156/182/154
f 148/177/155 157/183/155 149/178/155
f 149/178/156 158/184/156 150/179/156
f 150/179/157 159/185/157 151/171/157
f 151/171/158 160/186/158 152/172/158
f 153/173/159 160/186/159 161/187/159
f 154/174/160 161/187/160 162/188/160
f 159/185/161 168/189/161 160/186/161
f 160/186/162 169/190/162 161/187/162
f 162/188/163 169/190/163 170/191/163
f 162/188/164 171/192/164 163/180/164
f 156/182/165 204/193/165 164/194/165
f 156/182/166 165/195/166 157/183/166
f 158/184/167 165/195/167 166/196/167
f 158/184/168 167/197/168 159/185/168
f 164/194/169 173/198/169 165/195/169
f 166/196/170 173/198/170 174/199/170
f 166/196/171 175/200/171 167/197/171
f 167/197/172 176/201/172 168/189/172
f 169/190/173 176/201/173 177/202/173
f 170/191/174 177/202/174 178/203/174
f 170/191/175 179/204/175 171/192/175
f 164/194/176 204/205/176 172/206/176
f 177/202/177 184/207/177 185/208/177
f 178/203/178 185/208/178 186/209/178
f 178/203/179 187/210/179 179/204/179
f 172/206/180 204/211/180 180/212/180
f 172/206/181 181/213/181 173/198/181
f 174/199/182 181/213/182 182/214/182
f 174/199/183 183/215/183 175/200/183
f 175/200/184 184/207/184 176/201/184
f 180/212/185 189/216/185 181/213/185
f 182/214/186 189/216/186 190/217/186
f 182/214/187 191/218/187 183/215/187
f 183/215/188 192/219/188 184/207/188
f 185/208/189 192/219/189 193/220/189
f 186/209/190 193/220/190 194/221/190
f 186/209/191 195/222/191 187/210/191
f 180/212/192 204/223/192 188/224/192
f 193/220/193 200/225/193 201/226/193
f 194/221/194 201/226/194 202/227/194
f 194/221/195 203/228/195 195/222/195
f 188/224/196 204/229/196 196/230/196
f 188/224/197 197/231/197 189/216/197
f 189/216/198 198/232/198 190/217/198
f 190/217/199 199/233/199 191/218/199
f 191/218/200 200/225/200 192/219/200
f 198/232/201 206/234/201 207/235/201
f 198/232/202 208/236/202 199/233/202
f 199/233/203 209/237/203 200/225/203
f 201/226/204 209/237/204 210/238/204
f 202/227/205 210/238/205 211/239/205
f 202/227/206 212/240/206 203/228/206
f 196/230/207 204/241/207 205/242/207
f 196/230/208 206/234/208 197/231/208
f 211/239/209 218/243/209 219/244/209
f 211/239/210 220/245/210 212/240/210
f 205/242/211 204/246/211 213/247/211
f 205/242/212 214/248/212 206/234/212
f 206/234/213 215/249/213 207/235/213
f 207/235/214 216/250/214 208/236/214
f 208/236/215 217/251/215 209/237/215
f 210/238/216 217/251/216 218/243/216
f 215/252/217 222/253/217 223/254/217
f 215/252/218 224/255/218 216/256/218
f 216/256/219 225/257/219 217/258/219
f 218/259/220 225/257/220 226/260/220
f 219/261/221 226/260/221 227/262/221
f 219/261/222 228/263/222 220/264/222
f 213/265/223 204/266/223 221/267/223
f 214/268/224 221/267/224 222/253/224
f 227/262/225 234/269/225 235/270/225
f 227/262/226 236/271/226 228/263/226
f 221/267/227 204/272/227 229/273/227
f 221/267/228 230/274/228 222/253/228
f 223/254/229 230/274/229 231/275/229
f 223/254/230 232/276/230 224/255/230
f 224/255/231 233/277/231 225/257/231
f 226/260/232 233/277/232 234/269/232
f 231/275/233 240/278/233 232/276/233
f 232/276/234 241/279/234 233/277/234
f 234/269/235 241/279/235 242/280/235
f 235/270/236 242/280/236 243/281/236
f 235/270/237 244/282/237 236/271/237
f 229/273/238 204/283/238 237/284/238
f 229/273/239 238/285/239 230/274/239
f 231/275/240 238/285/240 239/286/240
f 243/281/241 252/287/241 244/282/241
f 237/284/242 204/288/242 245/289/242
f 237/284/243 246/290/243 238/285/243
f 239/286/244 246/290/244 247/291/244
f 239/286/245 248/292/245 240/278/245
f 240/278/246 249/293/246 241/279/246
f 242/280/247 249/293/247 250/294/247
f 242/280/248 251/295/248 243/281/248
f 248/292/249 257/296/249 249/293/249
f 250/294/250 257/296/250 258/297/250
f 250/294/251 259/298/251 251/295/251
f 251/295/252 260/299/252 252/287/252
f 245/289/253 204/300/253 253/301/253
f 245/289/254 254/302/254 246/290/254
f 247/291/255 254/302/255 255/303/255
f 247/291/256 256/304/256 248/292/256
f 253/301/257 204/305/257 261/306/257
f 253/301/258 262/307/258 254/302/258
f 254/302/259 263/308/259 255/303/259
f 255/303/260 264/309/260 256/304/260
f 256/304/261 265/310/261 257/296/261
f 258/297/262 265/310/262 266/311/262
f 258/297/263 267/312/263 259/298/263
f 259/298/264 268/313/264 260/299/264
f 264/309/265 273/314/265 265/310/265
f 266/311/266 273/314/266 274/315/266
f 266/311/267 275/316/267 267/312/267
f 267/312/268 276/317/268 268/313/268
f 261/306/269 204/318/269 269/319/269
f 261/306/270 270/320/270 262/307/270
f 263/308/271 270/320/271 271/321/271
f 263/308/272 272/322/272 264/309/272
f 270/320/273 277/323/273 278/324/273
f 271/321/274 278/324/274 279/325/274
f 271/321/275 280/326/275 272/322/275
f 273/314/276 280/326/276 281/327/276
f 274/315/277 281/327/277 282/328/277
f 274/315/278 283/329/278 275/316/278
f 275/316/279 284/330/279 276/317/279
f 269/319/280 204/331/280 277/323/280
f 282/328/281 288/4/281 2/7/281
f 283/329/282 2/7/282 3/9/282
f 283/329/283 289/10/283 284/330/283
f 277/323/284 204/332/284 285/12/284
f 277/323/285 286/15/285 278/324/285
f 279/325/286 286/15/286 1/17/286
f 280/326/287 1/17/287 287/1/287
f 280/326/288 288/4/288 281/327/288
f 287/1/1 1/17/1 6/2/1
f 288/4/2 287/1/2 7/3/2
f 288/4/3 8/5/3 9/6/3
f 2/7/4 9/6/4 10/8/4
f 289/10/5 3/9/5 10/8/5
f 286/15/7 285/12/7 4/14/7
f 1/17/8 286/15/8 5/16/8
f 5/16/9 13/26/9 14/18/9
f 6/2/10 14/18/10 15/19/10
f 7/3/11 15/19/11 16/20/11
f 8/5/12 16/20/12 17/21/12
f 9/6/13 17/21/13 18/22/13
f 10/8/14 18/22/14 19/23/14
f 4/14/16 12/25/16 13/26/16
f 17/21/289 25/35/289 26/27/289
f 18/22/18 26/27/18 27/28/18
f 13/26/20 12/25/20 20/30/20
f 13/26/21 21/31/21 22/32/21
f 14/18/22 22/32/22 23/33/22
f 16/20/23 15/19/23 23/33/23
f 16/20/24 24/34/24 25/35/24
f 22/32/25 30/44/25 31/36/25
f 23/33/26 31/36/26 32/37/26
f 24/34/27 32/37/27 33/38/27
f 25/35/28 33/38/28 34/39/28
f 26/27/29 34/39/29 35/40/29
f 20/30/31 28/42/31 29/43/31
f 21/31/32 29/43/32 30/44/32
f 34/39/33 42/53/33 43/45/33
f 28/42/35 36/47/35 37/48/35
f 30/44/36 29/43/36 37/48/36
f 31/36/37 30/44/37 38/49/37
f 31/36/38 39/50/38 40/51/38
f 32/37/39 40/51/39 41/52/39
f 34/39/40 33/38/40 41/52/40
f 38/49/41 46/62/41 47/54/41
f 39/50/42 47/54/42 48/55/42
f 40/51/43 48/55/43 49/56/43
f 41/52/44 49/56/44 50/57/44
f 42/53/45 50/57/45 51/58/45
f 37/48/47 36/47/47 44/60/47
f 37/48/48 45/61/48 46/62/48
f 50/57/49 58/71/49 59/63/49
f 44/60/51 52/65/51 53/66/51
f 45/61/52 53/66/52 54/67/52
f 46/62/53 54/67/53 55/68/53
f 47/54/54 55/68/54 56/69/54
f 48/55/55 56/69/55 57/70/55
f 49/56/290 57/70/290 58/71/290
f 55/68/57 63/80/57 64/72/57
f 56/69/58 64/72/58 65/73/58
f 57/70/59 65/73/59 66/74/59
f 58/71/60 66/74/60 67/75/60
f 52/65/62 60/77/62 61/78/62
f 53/66/63 61/78/63 62/79/63
f 54/67/64 62/79/64 63/80/64
f 60/77/66 68/82/66 69/83/66
f 61/78/67 69/83/67 70/84/67
f 62/79/68 70/84/68 71/85/68
f 64/72/69 63/80/69 71/85/69
f 64/72/70 72/86/70 73/87/70
f 66/74/71 65/73/71 73/87/71
f 66/74/72 74/88/72 75/89/72
f 72/86/73 71/85/73 79/90/73
f 72/86/74 80/91/74 81/92/74
f 74/88/75 73/87/75 81/92/75
f 74/88/76 82/93/76 83/94/76
f 68/82/78 76/96/78 77/97/78
f 69/83/79 77/97/79 78/98/79
f 71/85/80 70/84/80 78/98/80
f 76/96/81 84/107/81 85/99/81
f 77/97/82 85/99/82 86/100/82
f 78/98/83 86/100/83 87/101/83
f 80/91/84 79/90/84 87/101/84
f 80/91/85 88/102/85 89/103/85
f 81/92/86 89/103/86 90/104/86
f 82/93/87 90/104/87 91/105/87
f 89/103/89 88/102/89 96/108/89
f 89/103/291 97/109/291 98/110/291
f 90/104/91 98/110/91 99/111/91
f 84/107/93 92/113/93 93/114/93
f 85/99/94 93/114/94 94/115/94
f 86/100/95 94/115/95 95/116/95
f 88/102/96 87/101/96 95/116/96
f 93/114/97 101/125/97 102/117/97
f 94/115/98 102/117/98 103/118/98
f 95/116/99 103/118/99 104/119/99
f 97/109/100 96/108/100 104/119/100
f 97/109/101 105/120/101 106/121/101
f 98/110/102 106/121/102 107/122/102
f 92/113/104 100/124/104 101/125/104
f 105/120/105 113/134/105 114/126/105
f 106/121/106 114/126/106 115/127/106
f 101/125/108 100/124/108 108/129/108
f 101/125/109 109/130/109 110/131/109
f 102/117/110 110/131/110 111/132/110
f 104/119/111 103/118/111 111/132/111
f 105/120/112 104/119/112 112/133/112
f 110/131/113 109/130/113 117/135/113
f 110/131/114 118/136/114 119/137/114
f 111/132/115 119/137/115 120/138/115
f 113/134/116 112/133/116 120/138/116
f 113/134/117 121/139/117 122/140/117
f 114/126/118 122/140/118 123/141/118
f 108/129/120 116/143/120 117/135/120
f 121/139/121 129/152/121 130/144/121
f 122/140/122 130/144/122 131/145/122
f 116/143/124 124/147/124 125/148/124
f 117/135/125 125/148/125 126/149/125
f 118/136/126 126/149/126 127/150/126
f 120/138/127 119/137/127 127/150/127
f 120/138/128 128/151/128 129/152/128
f 126/149/129 134/161/129 135/153/129
f 128/151/130 127/150/130 135/153/130
f 129/152/131 128/151/131 136/154/131
f 130/144/132 129/152/132 137/155/132
f 130/144/133 138/156/133 139/157/133
f 124/147/135 132/159/135 133/160/135
f 125/148/136 133/160/136 134/161/136
f 138/156/137 146/170/137 147/162/137
f 133/160/139 132/159/139 140/164/139
f 133/160/140 141/165/140 142/166/140
f 134/161/141 142/166/141 143/167/141
f 135/153/142 143/167/142 144/168/142
f 137/155/143 136/154/143 144/168/143
f 137/155/144 145/169/144 146/170/144
f 142/166/145 150/179/145 151/171/145
f 143/167/146 151/171/146 152/172/146
f 145/169/147 144/168/147 152/172/147
f 146/170/148 145/169/148 153/173/148
f 146/170/149 154/174/149 155/175/149
f 140/164/151 148/177/151 149/178/151
f 142/166/152 141/165/152 149/178/152
f 154/174/153 162/188/153 163/180/153
f 148/177/155 156/182/155 157/183/155
f 149/178/156 157/183/156 158/184/156
f 150/179/157 158/184/157 159/185/157
f 151/171/158 159/185/158 160/186/158
f 153/173/159 152/172/159 160/186/159
f 154/174/160 153/173/160 161/187/160
f 159/185/161 167/197/161 168/189/161
f 160/186/162 168/189/162 169/190/162
f 162/188/163 161/187/163 169/190/163
f 162/188/164 170/191/164 171/192/164
f 156/182/166 164/194/166 165/195/166
f 158/184/167 157/183/167 165/195/167
f 158/184/168 166/196/168 167/197/168
f 164/194/169 172/206/169 173/198/169
f 166/196/170 165/195/170 173/198/170
f 166/196/171 174/199/171 175/200/171
f 167/197/172 175/200/172 176/201/172
f 169/190/173 168/189/173 176/201/173
f 170/191/174 169/190/174 177/202/174
f 170/191/175 178/203/175 179/204/175
f 177/202/177 176/201/177 184/207/177
f 178/203/178 177/202/178 185/208/178
f 178/203/179 186/209/179 187/210/179
f 172/206/181 180/212/181 181/213/181
f 174/199/182 173/198/182 181/213/182
f 174/199/183 182/214/183 183/215/183
f 175/200/184 183/215/184 184/207/184
f 180/212/185 188/224/185 189/216/185
f 182/214/186 181/213/186 189/216/186
f 182/214/187 190/217/187 191/218/187
f 183/215/188 191/218/188 192/219/188
f 185/208/189 184/207/189 192/219/189
f 186/209/190 185/208/190 193/220/190
f 186/209/191 194/221/191 195/222/191
f 193/220/193 192/219/193 200/225/193
f 194/221/292 193/220/292 201/226/292
f 194/221/195 202/227/195 203/228/195
f 188/224/197 196/230/197 197/231/197
f 189/216/198 197/231/198 198/232/198
f 190/217/199 198/232/199 199/233/199
f 191/218/200 199/233/200 200/225/200
f 198/232/201 197/231/201 206/234/201
f 198/232/202 207/235/202 208/236/202
f 199/233/203 208/236/203 209/237/203
f 201/226/204 200/225/204 209/237/204
f 202/227/205 201/226/205 210/238/205
f 202/227/206 211/239/206 212/240/206
f 196/230/208 205/242/208 206/234/208
f 211/239/209 210/238/209 218/243/209
f 211/239/210 219/244/210 220/245/210
f 205/242/212 213/247/212 214/248/212
f 206/234/213 214/248/213 215/249/213
f 207/235/214 215/249/214 216/250/214
f 208/236/215 216/250/215 217/251/215
f 210/238/216 209/237/216 217/251/216
f 215/252/217 214/268/217 222/253/217
f 215/252/218 223/254/218 224/255/218
f 216/256/219 224/255/219 225/257/219
f 218/259/220 217/258/220 225/257/220
f 219/261/221 218/259/221 226/260/221
f 219/261/222 227/262/222 228/263/222
f 214/268/224 213/265/224 221/267/224
f 227/262/225 226/260/225 234/269/225
f 227/262/226 235/270/226 236/271/226
f 221/267/228 229/273/228 230/274/228
f 223/254/229 222/253/229 230/274/229
f 223/254/230 231/275/230 232/276/230
f 224/255/231 232/276/231 233/277/231
f 226/260/232 225/257/232 233/277/232
f 231/275/233 239/286/233 240/278/233
f 232/276/234 240/278/234 241/279/234
f 234/269/235 233/277/235 241/279/235
f 235/270/293 234/269/293 242/280/293
f 235/270/237 243/281/237 244/282/237
f 229/273/239 237/284/239 238/285/239
f 231/275/240 230/274/240 238/285/240
f 243/281/241 251/295/241 252/287/241
f 237/284/243 245/289/243 246/290/243
f 239/286/244 238/285/244 246/290/244
f 239/286/245 247/291/245 248/292/245
f 240/278/246 248/292/246 249/293/246
f 242/280/247 241/279/247 249/293/247
f 242/280/248 250/294/248 251/295/248
f 248/292/249 256/304/249 257/296/249
f 250/294/250 249/293/250 257/296/250
f 250/294/251 258/297/251 259/298/251
f 251/295/252 259/298/252 260/299/252
f 245/289/254 253/301/254 254/302/254
f 247/291/255 246/290/255 254/302/255
f 247/291/256 255/303/256 256/304/256
f 253/301/258 261/306/258 262/307/258
f 254/302/259 262/307/259 263/308/259
f 255/303/260 263/308/260 264/309/260
f 256/304/261 264/309/261 265/310/261
f 258/297/262 257/296/262 265/310/262
f 258/297/263 266/311/263 267/312/263
f 259/298/264 267/312/264 268/313/264
f 264/309/265 272/322/265 273/314/265
f 266/311/266 265/310/266 273/314/266
f 266/311/267 274/315/267 275/316/267
f 267/312/268 275/316/268 276/317/268
f 261/306/270 269/319/270 270/320/270
f 263/308/271 262/307/271 270/320/271
f 263/308/272 271/321/272 272/322/272
f 270/320/273 269/319/273 277/323/273
f 271/321/274 270/320/274 278/324/274
f 271/321/275 279/325/275 280/326/275
f 273/314/276 272/322/276 280/326/276
f 274/315/277 273/314/277 281/327/277
f 274/315/278 282/328/278 283/329/278
f 275/316/279 283/329/279 284/330/279
f 282/328/281 281/327/281 288/4/281
f 283/329/282 282/328/282 2/7/282
f 283/329/283 3/9/283 289/10/283
f 277/323/285 285/12/285 286/15/285
f 279/325/286 278/324/286 286/15/286
f 280/326/287 279/325/287 1/17/287
f 280/326/288 287/1/288 288/4/288
o Plane
v 0.208999 -0.570242 0.302855
v 0.208999 0.072428 0.966080
v 0.198196 -0.570242 0.302855
v 0.198196 0.072428 0.966080
vn -0.0000 0.7181 -0.6959
vt 0.523753 0.736819
vt 0.471130 0.789442
vt 0.471130 0.736819
vt 0.523753 0.789442
s 0
f 291/333/294 290/335/294 292/334/294
f 291/333/294 292/334/294 293/336/294
o Plane.001
v 0.479215 -0.634310 0.179366
v 0.892970 0.154018 0.384678
v 0.474612 -0.633909 0.187102
v 0.888368 0.154419 0.392414
vn -0.7308 0.5036 -0.4608
vt 0.156859 0.784590
vt 0.045213 0.896236
vt 0.045213 0.784590
vt 0.156859 0.896236
s 0
f 295/337/295 294/339/295 296/338/295
f 295/337/295 296/338/295 297/340/295
o Plane.002
v -0.076914 -0.586727 -0.183421
v 0.030360 0.130083 -0.980091
v -0.068089 -0.586365 -0.181907
v 0.039185 0.130445 -0.978578
vn -0.1422 0.7453 0.6514
vt 0.772235 0.862154
vt 0.660912 0.973477
vt 0.660912 0.862154
vt 0.772235 0.973477
s 0
f 299/341/296 298/343/296 300/342/296
f 299/341/296 300/342/296 301/344/296
o Plane.003
v -0.306356 -0.632544 -0.115913
v -0.975920 0.100043 -0.278711
v -0.304040 -0.632196 -0.123874
v -0.973604 0.100391 -0.286672
vn 0.6920 0.6839 0.2312
vt 0.390893 0.866440
vt 0.268064 0.989269
vt 0.268064 0.866440
vt 0.390893 0.989269
s 0
f 303/345/297 302/347/297 304/346/297
f 303/345/297 304/346/297 305/348/297
o Plane.004
v -0.029051 -0.631191 0.138970
v -0.674444 0.172790 0.724832
v -0.033787 -0.628424 0.129954
v -0.679181 0.175558 0.715816
vn 0.7088 0.6867 -0.1616
vt 0.070557 0.930674
vt 0.004189 0.997042
vt 0.004189 0.930674
vt 0.070557 0.997042
s 0
f 307/349/298 306/351/298 308/350/298
f 307/349/298 308/350/298 309/352/298
o Plane.005
v 0.195944 -0.627970 -0.211226
v 0.775364 0.191338 -0.532944
v 0.197884 -0.626804 -0.204764
v 0.777304 0.192504 -0.526481
vn -0.7857 0.6054 0.1267
vt 0.605830 0.834157
vt 0.458200 0.981788
vt 0.458200 0.834157
vt 0.605830 0.981788
s 0
f 311/353/299 310/355/299 312/354/299
f 311/353/299 312/354/299 313/356/299
