# Blender 4.1.1
# www.blender.org
mtllib wind.mtl
o Cube.001
v 0.045764 1.287958 -5.849411
v 0.045764 3.066704 -5.849411
v 0.045764 1.287958 -5.778606
v 0.045764 3.066704 -5.778606
v -0.045764 1.287958 -5.849411
v -0.045764 3.066704 -5.849411
v -0.045764 1.287958 -5.778606
v -0.045764 3.066704 -5.778606
vn 1.0000 -0.0000 -0.0000
vn -0.0000 -0.0000 1.0000
vn -1.0000 -0.0000 -0.0000
vn -0.0000 -0.0000 -1.0000
vn -0.0000 -1.0000 -0.0000
vn -0.0000 1.0000 -0.0000
vt 0.100022 0.260070
vt 0.079666 0.280426
vt 0.079666 0.260070
vt 0.100022 0.280426
vt 0.079666 0.300781
vt 0.100022 0.300781
vt 0.079666 0.321137
vt 0.100022 0.321137
vt 0.079666 0.341493
vt 0.059310 0.321137
vt 0.059310 0.300781
vt 0.120377 0.300781
vt 0.100022 0.341493
vt 0.120377 0.321137
s 0
usemtl Material.001
f 2/1/1 3/2/1 1/3/1
f 4/4/2 7/5/2 3/2/2
f 8/6/3 5/7/3 7/5/3
f 6/8/4 1/9/4 5/7/4
f 7/5/5 1/10/5 3/11/5
f 4/12/6 6/8/6 8/6/6
f 2/1/1 4/4/1 3/2/1
f 4/4/2 8/6/2 7/5/2
f 8/6/3 6/8/3 5/7/3
f 6/8/4 2/13/4 1/9/4
f 7/5/5 5/7/5 1/10/5
f 4/12/6 2/14/6 6/8/6
o Cube.002
v 0.045764 2.690184 -3.902761
v 0.045764 4.468929 -3.902761
v 0.045764 2.690184 -3.831955
v 0.045764 4.468929 -3.831955
v -0.045764 2.690184 -3.902761
v -0.045764 4.468929 -3.902761
v -0.045764 2.690184 -3.831955
v -0.045764 4.468929 -3.831955
vn 1.0000 -0.0000 -0.0000
vn -0.0000 -0.0000 1.0000
vn -1.0000 -0.0000 -0.0000
vn -0.0000 -0.0000 -1.0000
vn -0.0000 -1.0000 -0.0000
vn -0.0000 1.0000 -0.0000
vt 0.469871 0.261139
vt 0.452004 0.279007
vt 0.452004 0.261139
vt 0.469871 0.279007
vt 0.452004 0.296875
vt 0.469871 0.296875
vt 0.452004 0.314743
vt 0.469871 0.314743
vt 0.452004 0.332611
vt 0.434136 0.314743
vt 0.434136 0.296875
vt 0.487739 0.296875
vt 0.469871 0.332611
vt 0.487739 0.314743
s 0
usemtl Material.001
f 10/15/7 11/16/7 9/17/7
f 12/18/8 15/19/8 11/16/8
f 16/20/9 13/21/9 15/19/9
f 14/22/10 9/23/10 13/21/10
f 15/19/11 9/24/11 11/25/11
f 12/26/12 14/22/12 16/20/12
f 10/15/7 12/18/7 11/16/7
f 12/18/8 16/20/8 15/19/8
f 16/20/9 14/22/9 13/21/9
f 14/22/10 10/27/10 9/23/10
f 15/19/11 13/21/11 9/24/11
f 12/26/12 10/28/12 14/22/12
o Cube.003
v 0.045764 3.835843 -0.907136
v 0.045764 5.614588 -0.907136
v 0.045764 3.835843 -0.836330
v 0.045764 5.614588 -0.836330
v -0.045764 3.835843 -0.907136
v -0.045764 5.614588 -0.907136
v -0.045764 3.835843 -0.836330
v -0.045764 5.614588 -0.836330
vn 1.0000 -0.0000 -0.0000
vn -0.0000 -0.0000 1.0000
vn -1.0000 -0.0000 -0.0000
vn -0.0000 -0.0000 -1.0000
vn -0.0000 -1.0000 -0.0000
vn -0.0000 1.0000 -0.0000
vt 0.914960 0.301098
vt 0.874103 0.341955
vt 0.874103 0.301098
vt 0.914960 0.341955
vt 0.874103 0.382812
vt 0.914960 0.382812
vt 0.874103 0.423670
vt 0.914960 0.423670
vt 0.874103 0.464527
vt 0.833245 0.423670
vt 0.833245 0.382812
vt 0.955817 0.382812
vt 0.914960 0.464527
vt 0.955817 0.423670
s 0
usemtl Material.001
f 18/29/13 19/30/13 17/31/13
f 20/32/14 23/33/14 19/30/14
f 24/34/15 21/35/15 23/33/15
f 22/36/16 17/37/16 21/35/16
f 23/33/17 17/38/17 19/39/17
f 20/40/18 22/36/18 24/34/18
f 18/29/13 20/32/13 19/30/13
f 20/32/14 24/34/14 23/33/14
f 24/34/15 22/36/15 21/35/15
f 22/36/16 18/41/16 17/37/16
f 23/33/17 21/35/17 17/38/17
f 20/40/18 18/42/18 22/36/18
o Cube.004
v 0.045764 2.326942 4.074091
v 0.045764 4.105688 4.074091
v 0.045764 2.326942 4.144897
v 0.045764 4.105688 4.144897
v -0.045764 2.326942 4.074091
v -0.045764 4.105688 4.074091
v -0.045764 2.326942 4.144897
v -0.045764 4.105688 4.144897
vn 1.0000 -0.0000 -0.0000
vn -0.0000 -0.0000 1.0000
vn -1.0000 -0.0000 -0.0000
vn -0.0000 -0.0000 -1.0000
vn -0.0000 -1.0000 -0.0000
vn -0.0000 1.0000 -0.0000
vt 0.602165 0.376497
vt 0.585335 0.393327
vt 0.585335 0.376497
vt 0.602165 0.393327
vt 0.585335 0.410156
vt 0.602165 0.410156
vt 0.585335 0.426986
vt 0.602165 0.426986
vt 0.585335 0.443816
vt 0.568505 0.426986
vt 0.568505 0.410156
vt 0.618995 0.410156
vt 0.602165 0.443816
vt 0.618995 0.426986
s 0
usemtl Material.001
f 26/43/19 27/44/19 25/45/19
f 28/46/20 31/47/20 27/44/20
f 32/48/21 29/49/21 31/47/21
f 30/50/22 25/51/22 29/49/22
f 31/47/23 25/52/23 27/53/23
f 28/54/24 30/50/24 32/48/24
f 26/43/19 28/46/19 27/44/19
f 28/46/20 32/48/20 31/47/20
f 32/48/21 30/50/21 29/49/21
f 30/50/22 26/55/22 25/51/22
f 31/47/23 29/49/23 25/52/23
f 28/54/24 26/56/24 30/50/24
o Cube.005
v 0.045764 4.214286 1.748638
v 0.045764 5.993032 1.748638
v 0.045764 4.214286 1.819444
v 0.045764 5.993032 1.819444
v -0.045764 4.214286 1.748638
v -0.045764 5.993032 1.748638
v -0.045764 4.214286 1.819444
v -0.045764 5.993032 1.819444
vn 1.0000 -0.0000 -0.0000
vn -0.0000 -0.0000 1.0000
vn -1.0000 -0.0000 -0.0000
vn -0.0000 -0.0000 -1.0000
vn -0.0000 -1.0000 -0.0000
vn -0.0000 1.0000 -0.0000
vt 0.107908 0.008348
vt 0.088770 0.027485
vt 0.088770 0.008348
vt 0.107908 0.027485
vt 0.088770 0.046623
vt 0.107908 0.046623
vt 0.088770 0.065760
vt 0.107908 0.065760
vt 0.088770 0.084898
vt 0.069633 0.065760
vt 0.069633 0.046623
vt 0.127045 0.046623
vt 0.107908 0.084898
vt 0.127045 0.065760
s 0
usemtl Material.001
f 34/57/25 35/58/25 33/59/25
f 36/60/26 39/61/26 35/58/26
f 40/62/27 37/63/27 39/61/27
f 38/64/28 33/65/28 37/63/28
f 39/61/29 33/66/29 35/67/29
f 36/68/30 38/64/30 40/62/30
f 34/57/25 36/60/25 35/58/25
f 36/60/26 40/62/26 39/61/26
f 40/62/27 38/64/27 37/63/27
f 38/64/28 34/69/28 33/65/28
f 39/61/29 37/63/29 33/66/29
f 36/68/30 34/70/30 38/64/30
o Cube.006
v 0.045764 1.378926 6.342621
v 0.045764 3.157672 6.342621
v 0.045764 1.378926 6.413427
v 0.045764 3.157672 6.413427
v -0.045764 1.378926 6.342621
v -0.045764 3.157672 6.342621
v -0.045764 1.378926 6.413427
v -0.045764 3.157672 6.413427
vn 1.0000 -0.0000 -0.0000
vn -0.0000 -0.0000 1.0000
vn -1.0000 -0.0000 -0.0000
vn -0.0000 -0.0000 -1.0000
vn -0.0000 -1.0000 -0.0000
vn -0.0000 1.0000 -0.0000
vt 0.751209 0.012785
vt 0.734139 0.029854
vt 0.734139 0.012785
vt 0.751209 0.029854
vt 0.734139 0.046924
vt 0.751209 0.046924
vt 0.734139 0.063994
vt 0.751209 0.063994
vt 0.734139 0.081064
vt 0.717069 0.063994
vt 0.717069 0.046924
vt 0.768278 0.046924
vt 0.751209 0.081064
vt 0.768278 0.063994
s 0
usemtl Material.001
f 42/71/31 43/72/31 41/73/31
f 44/74/32 47/75/32 43/72/32
f 48/76/33 45/77/33 47/75/33
f 46/78/34 41/79/34 45/77/34
f 47/75/35 41/80/35 43/81/35
f 44/82/36 46/78/36 48/76/36
f 42/71/31 44/74/31 43/72/31
f 44/74/32 48/76/32 47/75/32
f 48/76/33 46/78/33 45/77/33
f 46/78/34 42/83/34 41/79/34
f 47/75/35 45/77/35 41/80/35
f 44/82/36 42/84/36 46/78/36
o Cube.007
v 0.045764 0.013253 -2.075927
v 0.045764 1.791999 -2.075927
v 0.045764 0.013253 -2.005121
v 0.045764 1.791999 -2.005121
v -0.045764 0.013253 -2.075927
v -0.045764 1.791999 -2.075927
v -0.045764 0.013253 -2.005121
v -0.045764 1.791999 -2.005121
vn 1.0000 -0.0000 -0.0000
vn -0.0000 -0.0000 1.0000
vn -1.0000 -0.0000 -0.0000
vn -0.0000 -0.0000 -1.0000
vn -0.0000 -1.0000 -0.0000
vn -0.0000 1.0000 -0.0000
vt 0.631434 0.075827
vt 0.610754 0.096507
vt 0.610754 0.075827
vt 0.631434 0.096507
vt 0.610754 0.117188
vt 0.631434 0.117188
vt 0.610754 0.137868
vt 0.631434 0.137868
vt 0.610754 0.158548
vt 0.590074 0.137868
vt 0.590074 0.117188
vt 0.652114 0.117188
vt 0.631434 0.158548
vt 0.652114 0.137868
s 0
usemtl Material.001
f 50/85/37 51/86/37 49/87/37
f 52/88/38 55/89/38 51/86/38
f 56/90/39 53/91/39 55/89/39
f 54/92/40 49/93/40 53/91/40
f 55/89/41 49/94/41 51/95/41
f 52/96/42 54/92/42 56/90/42
f 50/85/37 52/88/37 51/86/37
f 52/88/38 56/90/38 55/89/38
f 56/90/39 54/92/39 53/91/39
f 54/92/40 50/97/40 49/93/40
f 55/89/41 53/91/41 49/94/41
f 52/96/42 50/98/42 54/92/42
o Cube.008
v 0.045764 0.059857 2.501740
v 0.045764 1.838602 2.501740
v 0.045764 0.059857 2.572546
v 0.045764 1.838602 2.572546
v -0.045764 0.059857 2.501740
v -0.045764 1.838602 2.501740
v -0.045764 0.059857 2.572546
v -0.045764 1.838602 2.572546
vn 1.0000 -0.0000 -0.0000
vn -0.0000 -0.0000 1.0000
vn -1.0000 -0.0000 -0.0000
vn -0.0000 -0.0000 -1.0000
vn -0.0000 -1.0000 -0.0000
vn -0.0000 1.0000 -0.0000
vt 0.904649 0.033748
vt 0.868788 0.069608
vt 0.868788 0.033748
vt 0.904649 0.069608
vt 0.868788 0.105469
vt 0.904649 0.105469
vt 0.868788 0.141329
vt 0.904649 0.141329
vt 0.868788 0.177190
vt 0.832928 0.141329
vt 0.832928 0.105469
vt 0.940510 0.105469
vt 0.904649 0.177190
vt 0.940510 0.141329
s 0
usemtl Material.001
f 58/99/43 59/100/43 57/101/43
f 60/102/44 63/103/44 59/100/44
f 64/104/45 61/105/45 63/103/45
f 62/106/46 57/107/46 61/105/46
f 63/103/47 57/108/47 59/109/47
f 60/110/48 62/106/48 64/104/48
f 58/99/43 60/102/43 59/100/43
f 60/102/44 64/104/44 63/103/44
f 64/104/45 62/106/45 61/105/45
f 62/106/46 58/111/46 57/107/46
f 63/103/47 61/105/47 57/108/47
f 60/110/48 58/112/48 62/106/48
o Cube.009
v 0.045764 7.416317 -3.902761
v 0.045764 9.195063 -3.902761
v 0.045764 7.416317 -3.831955
v 0.045764 9.195063 -3.831955
v -0.045764 7.416317 -3.902761
v -0.045764 9.195063 -3.902761
v -0.045764 7.416317 -3.831955
v -0.045764 9.195063 -3.831955
vn 1.0000 -0.0000 -0.0000
vn -0.0000 -0.0000 1.0000
vn -1.0000 -0.0000 -0.0000
vn -0.0000 -0.0000 -1.0000
vn -0.0000 -1.0000 -0.0000
vn -0.0000 1.0000 -0.0000
vt 0.117889 0.465945
vt 0.061799 0.522035
vt 0.061799 0.465945
vt 0.117889 0.522035
vt 0.061799 0.578125
vt 0.117889 0.578125
vt 0.061799 0.634215
vt 0.117889 0.634215
vt 0.061799 0.690305
vt 0.005708 0.634215
vt 0.005708 0.578125
vt 0.173979 0.578125
vt 0.117889 0.690305
vt 0.173979 0.634215
s 0
usemtl Material.001
f 66/113/49 67/114/49 65/115/49
f 68/116/50 71/117/50 67/114/50
f 72/118/51 69/119/51 71/117/51
f 70/120/52 65/121/52 69/119/52
f 71/117/53 65/122/53 67/123/53
f 68/124/54 70/120/54 72/118/54
f 66/113/49 68/116/49 67/114/49
f 68/116/50 72/118/50 71/117/50
f 72/118/51 70/120/51 69/119/51
f 70/120/52 66/125/52 65/121/52
f 71/117/53 69/119/53 65/122/53
f 68/124/54 66/126/54 70/120/54
o Cube.010
v 0.045764 7.729108 -0.907136
v 0.045764 9.507854 -0.907136
v 0.045764 7.729108 -0.836330
v 0.045764 9.507854 -0.836330
v -0.045764 7.729108 -0.907136
v -0.045764 9.507854 -0.907136
v -0.045764 7.729108 -0.836330
v -0.045764 9.507854 -0.836330
vn 1.0000 -0.0000 -0.0000
vn -0.0000 -0.0000 1.0000
vn -1.0000 -0.0000 -0.0000
vn -0.0000 -0.0000 -1.0000
vn -0.0000 -1.0000 -0.0000
vn -0.0000 1.0000 -0.0000
vt 0.576516 0.428310
vt 0.517234 0.487593
vt 0.517234 0.428310
vt 0.576516 0.487593
vt 0.517234 0.546875
vt 0.576516 0.546875
vt 0.517234 0.606157
vt 0.576516 0.606157
vt 0.517234 0.665440
vt 0.457952 0.606157
vt 0.457952 0.546875
vt 0.635798 0.546875
vt 0.576516 0.665440
vt 0.635798 0.606157
s 0
usemtl Material.001
f 74/127/55 75/128/55 73/129/55
f 76/130/56 79/131/56 75/128/56
f 80/132/57 77/133/57 79/131/57
f 78/134/58 73/135/58 77/133/58
f 79/131/59 73/136/59 75/137/59
f 76/138/60 78/134/60 80/132/60
f 74/127/55 76/130/55 75/128/55
f 76/130/56 80/132/56 79/131/56
f 80/132/57 78/134/57 77/133/57
f 78/134/58 74/139/58 73/135/58
f 79/131/59 77/133/59 73/136/59
f 76/138/60 74/140/60 78/134/60
o Cube.011
v 0.045764 8.842746 4.074091
v 0.045764 10.621491 4.074091
v 0.045764 8.842746 4.144897
v 0.045764 10.621491 4.144897
v -0.045764 8.842746 4.074091
v -0.045764 10.621491 4.074091
v -0.045764 8.842746 4.144897
v -0.045764 10.621491 4.144897
vn 1.0000 -0.0000 -0.0000
vn -0.0000 -0.0000 1.0000
vn -1.0000 -0.0000 -0.0000
vn -0.0000 -0.0000 -1.0000
vn -0.0000 -1.0000 -0.0000
vn -0.0000 1.0000 -0.0000
vt 0.904450 0.534544
vt 0.884612 0.554381
vt 0.884612 0.534544
vt 0.904450 0.554381
vt 0.884612 0.574219
vt 0.904450 0.574219
vt 0.884612 0.594056
vt 0.904450 0.594056
vt 0.884612 0.613894
vt 0.864775 0.594056
vt 0.864775 0.574219
vt 0.924288 0.574219
vt 0.904450 0.613894
vt 0.924288 0.594056
s 0
usemtl Material.001
f 82/141/61 83/142/61 81/143/61
f 84/144/62 87/145/62 83/142/62
f 88/146/63 85/147/63 87/145/63
f 86/148/64 81/149/64 85/147/64
f 87/145/65 81/150/65 83/151/65
f 84/152/66 86/148/66 88/146/66
f 82/141/61 84/144/61 83/142/61
f 84/144/62 88/146/62 87/145/62
f 88/146/63 86/148/63 85/147/63
f 86/148/64 82/153/64 81/149/64
f 87/145/65 85/147/65 81/150/65
f 84/152/66 82/154/66 86/148/66
o Cube.012
v 0.045764 14.187781 -0.907136
v 0.045764 15.966527 -0.907136
v 0.045764 14.187781 -0.836330
v 0.045764 15.966527 -0.836330
v -0.045764 14.187781 -0.907136
v -0.045764 15.966527 -0.907136
v -0.045764 14.187781 -0.836330
v -0.045764 15.966527 -0.836330
vn 1.0000 -0.0000 -0.0000
vn -0.0000 -0.0000 1.0000
vn -1.0000 -0.0000 -0.0000
vn -0.0000 -0.0000 -1.0000
vn -0.0000 -1.0000 -0.0000
vn -0.0000 1.0000 -0.0000
vt 0.139920 0.737195
vt 0.078830 0.798285
vt 0.078830 0.737195
vt 0.139920 0.798285
vt 0.078830 0.859375
vt 0.139920 0.859375
vt 0.078830 0.920465
vt 0.139920 0.920465
vt 0.078830 0.981555
vt 0.017740 0.920465
vt 0.017740 0.859375
vt 0.201010 0.859375
vt 0.139920 0.981555
vt 0.201010 0.920465
s 0
usemtl Material.001
f 90/155/67 91/156/67 89/157/67
f 92/158/68 95/159/68 91/156/68
f 96/160/69 93/161/69 95/159/69
f 94/162/70 89/163/70 93/161/70
f 95/159/71 89/164/71 91/165/71
f 92/166/72 94/162/72 96/160/72
f 90/155/67 92/158/67 91/156/67
f 92/158/68 96/160/68 95/159/68
f 96/160/69 94/162/69 93/161/69
f 94/162/70 90/167/70 89/163/70
f 95/159/71 93/161/71 89/164/71
f 92/166/72 90/168/72 94/162/72
o Cube.013
v 0.045764 11.395482 -3.902761
v 0.045764 13.174228 -3.902761
v 0.045764 11.395482 -3.831955
v 0.045764 13.174228 -3.831955
v -0.045764 11.395482 -3.902761
v -0.045764 13.174228 -3.902761
v -0.045764 11.395482 -3.831955
v -0.045764 13.174228 -3.831955
vn 1.0000 -0.0000 -0.0000
vn -0.0000 -0.0000 1.0000
vn -1.0000 -0.0000 -0.0000
vn -0.0000 -0.0000 -1.0000
vn -0.0000 -1.0000 -0.0000
vn -0.0000 1.0000 -0.0000
vt 0.354391 0.769936
vt 0.301859 0.822468
vt 0.301859 0.769936
vt 0.354391 0.822468
vt 0.301859 0.875000
vt 0.354391 0.875000
vt 0.301859 0.927532
vt 0.354391 0.927532
vt 0.301859 0.980064
vt 0.249327 0.927532
vt 0.249327 0.875000
vt 0.406923 0.875000
vt 0.354391 0.980064
vt 0.406923 0.927532
s 0
usemtl Material.001
f 98/169/73 99/170/73 97/171/73
f 100/172/74 103/173/74 99/170/74
f 104/174/75 101/175/75 103/173/75
f 102/176/76 97/177/76 101/175/76
f 103/173/77 97/178/77 99/179/77
f 100/180/78 102/176/78 104/174/78
f 98/169/73 100/172/73 99/170/73
f 100/172/74 104/174/74 103/173/74
f 104/174/75 102/176/75 101/175/75
f 102/176/76 98/181/76 97/177/76
f 103/173/77 101/175/77 97/178/77
f 100/180/78 98/182/78 102/176/78
o Cube.014
v 0.045764 11.097239 1.748638
v 0.045764 12.875985 1.748638
v 0.045764 11.097239 1.819444
v 0.045764 12.875985 1.819444
v -0.045764 11.097239 1.748638
v -0.045764 12.875985 1.748638
v -0.045764 11.097239 1.819444
v -0.045764 12.875985 1.819444
vn 1.0000 -0.0000 -0.0000
vn -0.0000 -0.0000 1.0000
vn -1.0000 -0.0000 -0.0000
vn -0.0000 -0.0000 -1.0000
vn -0.0000 -1.0000 -0.0000
vn -0.0000 1.0000 -0.0000
vt 0.678086 0.744689
vt 0.618789 0.803985
vt 0.618789 0.744689
vt 0.678086 0.803985
vt 0.618789 0.863281
vt 0.678086 0.863281
vt 0.618789 0.922578
vt 0.678086 0.922578
vt 0.618789 0.981874
vt 0.559493 0.922578
vt 0.559493 0.863281
vt 0.737382 0.863281
vt 0.678086 0.981874
vt 0.737382 0.922578
s 0
usemtl Material.001
f 106/183/79 107/184/79 105/185/79
f 108/186/80 111/187/80 107/184/80
f 112/188/81 109/189/81 111/187/81
f 110/190/82 105/191/82 109/189/82
f 111/187/83 105/192/83 107/193/83
f 108/194/84 110/190/84 112/188/84
f 106/183/79 108/186/79 107/184/79
f 108/186/80 112/188/80 111/187/80
f 112/188/81 110/190/81 109/189/81
f 110/190/82 106/195/82 105/191/82
f 111/187/83 109/189/83 105/192/83
f 108/194/84 106/196/84 110/190/84
