# Blender 4.1.1
# www.blender.org
mtllib r.mtl
o Text.001
v -0.294548 0.541284 -0.020000
v -0.308898 0.568232 -0.020000
v -0.325633 0.595082 -0.020000
v -0.344628 0.621339 -0.020000
v -0.365763 0.646504 -0.020000
v -0.388921 0.670068 -0.020000
v -0.413991 0.691516 -0.020000
v -0.440866 0.710324 -0.020000
v -0.469439 0.725949 -0.020000
v -0.499591 0.737830 -0.020000
v -0.531178 0.745387 -0.020000
v -0.564019 0.748034 -0.020000
v -0.598135 0.745153 -0.020000
v -0.630467 0.736622 -0.020000
v -0.660697 0.722660 -0.020000
v -0.688541 0.703532 -0.020000
v -0.713760 0.679518 -0.020000
v -0.736159 0.650891 -0.020000
v -0.755565 0.617902 -0.020000
v -0.771820 0.580778 -0.020000
v -0.784762 0.539731 -0.020000
v -0.794223 0.494958 -0.020000
v -0.800031 0.446653 -0.020000
v -0.802010 0.394922 -0.020000
v -0.798387 0.327573 -0.020000
v -0.787701 0.266265 -0.020000
v -0.770263 0.210834 -0.020000
v -0.746401 0.161085 -0.020000
v -0.716485 0.116831 -0.020000
v -0.680921 0.077874 -0.020000
v -0.640134 0.043978 -0.020000
v -0.594545 0.014867 -0.020000
v -0.544552 -0.009761 -0.020000
v -0.490528 -0.030215 -0.020000
v -0.432830 -0.046807 -0.020000
v -0.365377 -0.061213 -0.020000
v -0.306325 0.029251 -0.020000
v -0.374194 0.041049 -0.020000
v -0.424363 0.052885 -0.020000
v -0.471594 0.067735 -0.020000
v -0.515458 0.085923 -0.020000
v -0.555542 0.107766 -0.020000
v -0.591464 0.133582 -0.020000
v -0.622875 0.163711 -0.020000
v -0.649452 0.198540 -0.020000
v -0.670860 0.238512 -0.020000
v -0.686717 0.284108 -0.020000
v -0.696585 0.335798 -0.020000
v -0.699992 0.394146 -0.020000
v -0.698890 0.431938 -0.020000
v -0.695589 0.467741 -0.020000
v -0.690118 0.501145 -0.020000
v -0.682515 0.531891 -0.020000
v -0.672826 0.559720 -0.020000
v -0.661115 0.584385 -0.020000
v -0.647459 0.605657 -0.020000
v -0.631939 0.623351 -0.020000
v -0.614605 0.637336 -0.020000
v -0.595430 0.647523 -0.020000
v -0.574283 0.653799 -0.020000
v -0.551125 0.655946 -0.020000
v -0.522231 0.652538 -0.020000
v -0.493794 0.642749 -0.020000
v -0.465952 0.627151 -0.020000
v -0.439114 0.606422 -0.020000
v -0.413707 0.581315 -0.020000
v -0.390142 0.552631 -0.020000
v -0.368806 0.521192 -0.020000
v -0.350068 0.487831 -0.020000
v -0.334281 0.453387 -0.020000
v -0.321789 0.418710 -0.020000
v -0.312920 0.384662 -0.020000
v -0.307913 0.351671 -0.020000
v -0.306821 0.342304 -0.020000
v -0.305964 0.333024 -0.020000
v -0.305345 0.323815 -0.020000
v -0.304959 0.314596 -0.020000
v -0.304803 0.305288 -0.020000
v -0.304874 0.295814 -0.020000
v -0.305169 0.286094 -0.020000
v -0.305686 0.276054 -0.020000
v -0.306422 0.265616 -0.020000
v -0.307377 0.254708 -0.020000
v -0.308547 0.243256 -0.020000
v -0.311115 0.220836 -0.020000
v -0.214292 0.213291 -0.020000
v -0.211810 0.232631 -0.020000
v -0.210517 0.243294 -0.020000
v -0.209231 0.254652 -0.020000
v -0.207975 0.266676 -0.020000
v -0.206775 0.279331 -0.020000
v -0.205656 0.292588 -0.020000
v -0.204641 0.306415 -0.020000
v -0.203756 0.320780 -0.020000
v -0.203025 0.335653 -0.020000
v -0.202472 0.351001 -0.020000
v -0.202122 0.366794 -0.020000
v -0.201999 0.383039 -0.020000
v -0.202384 0.408046 -0.020000
v -0.203475 0.434794 -0.020000
v -0.205180 0.462843 -0.020000
v -0.207405 0.491795 -0.020000
v -0.210060 0.521251 -0.020000
v -0.213056 0.550806 -0.020000
v -0.216300 0.580054 -0.020000
v -0.219704 0.608591 -0.020000
v -0.223177 0.636008 -0.020000
v -0.226629 0.661898 -0.020000
v -0.229969 0.685852 -0.020000
v -0.233092 0.707355 -0.020000
v -0.234035 0.714705 -0.020000
v -0.234907 0.722050 -0.020000
v -0.235712 0.729354 -0.020000
v -0.236456 0.736615 -0.020000
v -0.237146 0.743829 -0.020000
v -0.237788 0.750993 -0.020000
v -0.238389 0.758103 -0.020000
v -0.238957 0.765157 -0.020000
v -0.239498 0.772151 -0.020000
v -0.240018 0.779081 -0.020000
v -0.240526 0.785946 -0.020000
v -0.241735 0.802322 -0.020000
v -0.351919 0.798565 -0.020000
v -0.343474 0.767080 -0.020000
v -0.338398 0.745716 -0.020000
v -0.333436 0.722597 -0.020000
v -0.328641 0.698181 -0.020000
v -0.324062 0.672924 -0.020000
v -0.319746 0.647272 -0.020000
v -0.315739 0.621674 -0.020000
v -0.312089 0.596577 -0.020000
v -0.308840 0.572426 -0.020000
v -0.306039 0.549670 -0.020000
v -0.303732 0.528759 -0.020000
v -0.307733 0.570869 -0.020000
v -0.294548 0.541284 0.020000
v -0.308898 0.568232 0.020000
v -0.325633 0.595082 0.020000
v -0.344628 0.621339 0.020000
v -0.365763 0.646504 0.020000
v -0.388921 0.670068 0.020000
v -0.413991 0.691516 0.020000
v -0.440866 0.710324 0.020000
v -0.469439 0.725949 0.020000
v -0.499591 0.737830 0.020000
v -0.531178 0.745387 0.020000
v -0.564019 0.748034 0.020000
v -0.598135 0.745153 0.020000
v -0.630467 0.736622 0.020000
v -0.660697 0.722660 0.020000
v -0.688541 0.703532 0.020000
v -0.713760 0.679518 0.020000
v -0.736159 0.650891 0.020000
v -0.755565 0.617902 0.020000
v -0.771820 0.580778 0.020000
v -0.784762 0.539731 0.020000
v -0.794223 0.494958 0.020000
v -0.800031 0.446653 0.020000
v -0.802010 0.394922 0.020000
v -0.798387 0.327573 0.020000
v -0.787701 0.266265 0.020000
v -0.770263 0.210834 0.020000
v -0.746401 0.161085 0.020000
v -0.716485 0.116831 0.020000
v -0.680921 0.077874 0.020000
v -0.640134 0.043978 0.020000
v -0.594545 0.014867 0.020000
v -0.544552 -0.009761 0.020000
v -0.490528 -0.030215 0.020000
v -0.432830 -0.046807 0.020000
v -0.365377 -0.061213 0.020000
v -0.306325 0.029251 0.020000
v -0.374194 0.041049 0.020000
v -0.424363 0.052885 0.020000
v -0.471594 0.067735 0.020000
v -0.515458 0.085923 0.020000
v -0.555542 0.107766 0.020000
v -0.591464 0.133582 0.020000
v -0.622875 0.163711 0.020000
v -0.649452 0.198540 0.020000
v -0.670860 0.238512 0.020000
v -0.686717 0.284108 0.020000
v -0.696585 0.335798 0.020000
v -0.699992 0.394146 0.020000
v -0.698890 0.431938 0.020000
v -0.695589 0.467741 0.020000
v -0.690118 0.501145 0.020000
v -0.682515 0.531891 0.020000
v -0.672826 0.559720 0.020000
v -0.661115 0.584385 0.020000
v -0.647459 0.605657 0.020000
v -0.631939 0.623351 0.020000
v -0.614605 0.637336 0.020000
v -0.595430 0.647523 0.020000
v -0.574283 0.653799 0.020000
v -0.551125 0.655946 0.020000
v -0.522231 0.652538 0.020000
v -0.493794 0.642749 0.020000
v -0.465952 0.627151 0.020000
v -0.439114 0.606422 0.020000
v -0.413707 0.581315 0.020000
v -0.390142 0.552631 0.020000
v -0.368806 0.521192 0.020000
v -0.350068 0.487831 0.020000
v -0.334281 0.453387 0.020000
v -0.321789 0.418710 0.020000
v -0.312920 0.384662 0.020000
v -0.307913 0.351671 0.020000
v -0.306821 0.342304 0.020000
v -0.305964 0.333024 0.020000
v -0.305345 0.323815 0.020000
v -0.304959 0.314596 0.020000
v -0.304803 0.305288 0.020000
v -0.304874 0.295814 0.020000
v -0.305169 0.286094 0.020000
v -0.305686 0.276054 0.020000
v -0.306422 0.265616 0.020000
v -0.307377 0.254708 0.020000
v -0.308547 0.243256 0.020000
v -0.311115 0.220836 0.020000
v -0.214292 0.213291 0.020000
v -0.211810 0.232631 0.020000
v -0.210517 0.243294 0.020000
v -0.209231 0.254652 0.020000
v -0.207975 0.266676 0.020000
v -0.206775 0.279331 0.020000
v -0.205656 0.292588 0.020000
v -0.204641 0.306415 0.020000
v -0.203756 0.320780 0.020000
v -0.203025 0.335653 0.020000
v -0.202472 0.351001 0.020000
v -0.202122 0.366794 0.020000
v -0.201999 0.383039 0.020000
v -0.202384 0.408046 0.020000
v -0.203475 0.434794 0.020000
v -0.205180 0.462843 0.020000
v -0.207405 0.491795 0.020000
v -0.210060 0.521251 0.020000
v -0.213056 0.550806 0.020000
v -0.216300 0.580054 0.020000
v -0.219704 0.608591 0.020000
v -0.223177 0.636008 0.020000
v -0.226629 0.661898 0.020000
v -0.229969 0.685852 0.020000
v -0.233092 0.707355 0.020000
v -0.234035 0.714705 0.020000
v -0.234907 0.722050 0.020000
v -0.235712 0.729354 0.020000
v -0.236456 0.736615 0.020000
v -0.237146 0.743829 0.020000
v -0.237788 0.750993 0.020000
v -0.238389 0.758103 0.020000
v -0.238957 0.765157 0.020000
v -0.239498 0.772151 0.020000
v -0.240018 0.779081 0.020000
v -0.240526 0.785946 0.020000
v -0.241735 0.802322 0.020000
v -0.351919 0.798565 0.020000
v -0.343474 0.767080 0.020000
v -0.338398 0.745716 0.020000
v -0.333436 0.722597 0.020000
v -0.328641 0.698181 0.020000
v -0.324062 0.672924 0.020000
v -0.319746 0.647272 0.020000
v -0.315739 0.621674 0.020000
v -0.312089 0.596577 0.020000
v -0.308840 0.572426 0.020000
v -0.306039 0.549670 0.020000
v -0.303732 0.528759 0.020000
v -0.307733 0.570869 0.020000
v -0.294548 0.541284 0.020000
v -0.294548 0.541284 -0.020000
v -0.308898 0.568232 0.020000
v -0.308898 0.568232 -0.020000
v -0.325633 0.595082 0.020000
v -0.325633 0.595082 -0.020000
v -0.344628 0.621339 0.020000
v -0.344628 0.621339 -0.020000
v -0.365763 0.646504 0.020000
v -0.365763 0.646504 -0.020000
v -0.388921 0.670068 0.020000
v -0.388921 0.670068 -0.020000
v -0.413991 0.691516 0.020000
v -0.413991 0.691516 -0.020000
v -0.440866 0.710324 0.020000
v -0.440866 0.710324 -0.020000
v -0.469439 0.725949 0.020000
v -0.469439 0.725949 -0.020000
v -0.499591 0.737830 0.020000
v -0.499591 0.737830 -0.020000
v -0.531178 0.745387 0.020000
v -0.531178 0.745387 -0.020000
v -0.564019 0.748034 0.020000
v -0.564019 0.748034 -0.020000
v -0.598135 0.745153 0.020000
v -0.598135 0.745153 -0.020000
v -0.630467 0.736622 0.020000
v -0.630467 0.736622 -0.020000
v -0.660697 0.722660 0.020000
v -0.660697 0.722660 -0.020000
v -0.688541 0.703532 0.020000
v -0.688541 0.703532 -0.020000
v -0.713760 0.679518 0.020000
v -0.713760 0.679518 -0.020000
v -0.736159 0.650891 0.020000
v -0.736159 0.650891 -0.020000
v -0.755565 0.617902 0.020000
v -0.755565 0.617902 -0.020000
v -0.771820 0.580778 0.020000
v -0.771820 0.580778 -0.020000
v -0.784762 0.539731 0.020000
v -0.784762 0.539731 -0.020000
v -0.794223 0.494958 0.020000
v -0.794223 0.494958 -0.020000
v -0.800031 0.446653 0.020000
v -0.800031 0.446653 -0.020000
v -0.802010 0.394922 0.020000
v -0.802010 0.394922 -0.020000
v -0.798387 0.327573 0.020000
v -0.798387 0.327573 -0.020000
v -0.787701 0.266265 0.020000
v -0.787701 0.266265 -0.020000
v -0.770263 0.210834 0.020000
v -0.770263 0.210834 -0.020000
v -0.746401 0.161085 0.020000
v -0.746401 0.161085 -0.020000
v -0.716485 0.116831 0.020000
v -0.716485 0.116831 -0.020000
v -0.680921 0.077874 0.020000
v -0.680921 0.077874 -0.020000
v -0.640134 0.043978 0.020000
v -0.640134 0.043978 -0.020000
v -0.594545 0.014867 0.020000
v -0.594545 0.014867 -0.020000
v -0.544552 -0.009761 0.020000
v -0.544552 -0.009761 -0.020000
v -0.490528 -0.030215 0.020000
v -0.490528 -0.030215 -0.020000
v -0.432830 -0.046807 0.020000
v -0.432830 -0.046807 -0.020000
v -0.365377 -0.061213 0.020000
v -0.365377 -0.061213 -0.020000
v -0.306325 0.029251 0.020000
v -0.306325 0.029251 -0.020000
v -0.374194 0.041049 0.020000
v -0.374194 0.041049 -0.020000
v -0.424363 0.052885 0.020000
v -0.424363 0.052885 -0.020000
v -0.471594 0.067735 0.020000
v -0.471594 0.067735 -0.020000
v -0.515458 0.085923 0.020000
v -0.515458 0.085923 -0.020000
v -0.555542 0.107766 0.020000
v -0.555542 0.107766 -0.020000
v -0.591464 0.133582 0.020000
v -0.591464 0.133582 -0.020000
v -0.622875 0.163711 0.020000
v -0.622875 0.163711 -0.020000
v -0.649452 0.198540 0.020000
v -0.649452 0.198540 -0.020000
v -0.670860 0.238512 0.020000
v -0.670860 0.238512 -0.020000
v -0.686717 0.284108 0.020000
v -0.686717 0.284108 -0.020000
v -0.696585 0.335798 0.020000
v -0.696585 0.335798 -0.020000
v -0.699992 0.394146 0.020000
v -0.699992 0.394146 -0.020000
v -0.698890 0.431938 0.020000
v -0.698890 0.431938 -0.020000
v -0.695589 0.467741 0.020000
v -0.695589 0.467741 -0.020000
v -0.690118 0.501145 0.020000
v -0.690118 0.501145 -0.020000
v -0.682515 0.531891 0.020000
v -0.682515 0.531891 -0.020000
v -0.672826 0.559720 0.020000
v -0.672826 0.559720 -0.020000
v -0.661115 0.584385 0.020000
v -0.661115 0.584385 -0.020000
v -0.647459 0.605657 0.020000
v -0.647459 0.605657 -0.020000
v -0.631939 0.623351 0.020000
v -0.631939 0.623351 -0.020000
v -0.614605 0.637336 0.020000
v -0.614605 0.637336 -0.020000
v -0.595430 0.647523 0.020000
v -0.595430 0.647523 -0.020000
v -0.574283 0.653799 0.020000
v -0.574283 0.653799 -0.020000
v -0.551125 0.655946 0.020000
v -0.551125 0.655946 -0.020000
v -0.522231 0.652538 0.020000
v -0.522231 0.652538 -0.020000
v -0.493794 0.642749 0.020000
v -0.493794 0.642749 -0.020000
v -0.465952 0.627151 0.020000
v -0.465952 0.627151 -0.020000
v -0.439114 0.606422 0.020000
v -0.439114 0.606422 -0.020000
v -0.413707 0.581315 0.020000
v -0.413707 0.581315 -0.020000
v -0.390142 0.552631 0.020000
v -0.390142 0.552631 -0.020000
v -0.368806 0.521192 0.020000
v -0.368806 0.521192 -0.020000
v -0.350068 0.487831 0.020000
v -0.350068 0.487831 -0.020000
v -0.334281 0.453387 0.020000
v -0.334281 0.453387 -0.020000
v -0.321789 0.418710 0.020000
v -0.321789 0.418710 -0.020000
v -0.312920 0.384662 0.020000
v -0.312920 0.384662 -0.020000
v -0.307913 0.351671 0.020000
v -0.307913 0.351671 -0.020000
v -0.306821 0.342304 0.020000
v -0.306821 0.342304 -0.020000
v -0.305964 0.333024 0.020000
v -0.305964 0.333024 -0.020000
v -0.305345 0.323815 0.020000
v -0.305345 0.323815 -0.020000
v -0.304959 0.314596 0.020000
v -0.304959 0.314596 -0.020000
v -0.304803 0.305288 0.020000
v -0.304803 0.305288 -0.020000
v -0.304874 0.295814 0.020000
v -0.304874 0.295814 -0.020000
v -0.305169 0.286094 0.020000
v -0.305169 0.286094 -0.020000
v -0.305686 0.276054 0.020000
v -0.305686 0.276054 -0.020000
v -0.306422 0.265616 0.020000
v -0.306422 0.265616 -0.020000
v -0.307377 0.254708 0.020000
v -0.307377 0.254708 -0.020000
v -0.308547 0.243256 0.020000
v -0.308547 0.243256 -0.020000
v -0.311115 0.220836 0.020000
v -0.311115 0.220836 -0.020000
v -0.214292 0.213291 0.020000
v -0.214292 0.213291 -0.020000
v -0.211810 0.232631 0.020000
v -0.211810 0.232631 -0.020000
v -0.210517 0.243294 0.020000
v -0.210517 0.243294 -0.020000
v -0.209231 0.254652 0.020000
v -0.209231 0.254652 -0.020000
v -0.207975 0.266676 0.020000
v -0.207975 0.266676 -0.020000
v -0.206775 0.279331 0.020000
v -0.206775 0.279331 -0.020000
v -0.205656 0.292588 0.020000
v -0.205656 0.292588 -0.020000
v -0.204641 0.306415 0.020000
v -0.204641 0.306415 -0.020000
v -0.203756 0.320780 0.020000
v -0.203756 0.320780 -0.020000
v -0.203025 0.335653 0.020000
v -0.203025 0.335653 -0.020000
v -0.202472 0.351001 0.020000
v -0.202472 0.351001 -0.020000
v -0.202122 0.366794 0.020000
v -0.202122 0.366794 -0.020000
v -0.201999 0.383039 0.020000
v -0.201999 0.383039 -0.020000
v -0.202384 0.408046 0.020000
v -0.202384 0.408046 -0.020000
v -0.203475 0.434794 0.020000
v -0.203475 0.434794 -0.020000
v -0.205180 0.462843 0.020000
v -0.205180 0.462843 -0.020000
v -0.207405 0.491795 0.020000
v -0.207405 0.491795 -0.020000
v -0.210060 0.521251 0.020000
v -0.210060 0.521251 -0.020000
v -0.213056 0.550806 0.020000
v -0.213056 0.550806 -0.020000
v -0.216300 0.580054 0.020000
v -0.216300 0.580054 -0.020000
v -0.219704 0.608591 0.020000
v -0.219704 0.608591 -0.020000
v -0.223177 0.636008 0.020000
v -0.223177 0.636008 -0.020000
v -0.226629 0.661898 0.020000
v -0.226629 0.661898 -0.020000
v -0.229969 0.685852 0.020000
v -0.229969 0.685852 -0.020000
v -0.233092 0.707355 0.020000
v -0.233092 0.707355 -0.020000
v -0.234035 0.714705 0.020000
v -0.234035 0.714705 -0.020000
v -0.234907 0.722050 0.020000
v -0.234907 0.722050 -0.020000
v -0.235712 0.729354 0.020000
v -0.235712 0.729354 -0.020000
v -0.236456 0.736615 0.020000
v -0.236456 0.736615 -0.020000
v -0.237146 0.743829 0.020000
v -0.237146 0.743829 -0.020000
v -0.237788 0.750993 0.020000
v -0.237788 0.750993 -0.020000
v -0.238389 0.758103 0.020000
v -0.238389 0.758103 -0.020000
v -0.238957 0.765157 0.020000
v -0.238957 0.765157 -0.020000
v -0.239498 0.772151 0.020000
v -0.239498 0.772151 -0.020000
v -0.240018 0.779081 0.020000
v -0.240018 0.779081 -0.020000
v -0.240526 0.785946 0.020000
v -0.240526 0.785946 -0.020000
v -0.241735 0.802322 0.020000
v -0.241735 0.802322 -0.020000
v -0.351919 0.798565 0.020000
v -0.351919 0.798565 -0.020000
v -0.343474 0.767080 0.020000
v -0.343474 0.767080 -0.020000
v -0.338398 0.745716 0.020000
v -0.338398 0.745716 -0.020000
v -0.333436 0.722597 0.020000
v -0.333436 0.722597 -0.020000
v -0.328641 0.698181 0.020000
v -0.328641 0.698181 -0.020000
v -0.324062 0.672924 0.020000
v -0.324062 0.672924 -0.020000
v -0.319746 0.647272 0.020000
v -0.319746 0.647272 -0.020000
v -0.315739 0.621674 0.020000
v -0.315739 0.621674 -0.020000
v -0.312089 0.596577 0.020000
v -0.312089 0.596577 -0.020000
v -0.308840 0.572426 0.020000
v -0.308840 0.572426 -0.020000
v -0.306039 0.549670 0.020000
v -0.306039 0.549670 -0.020000
v -0.303732 0.528759 0.020000
v -0.303732 0.528759 -0.020000
v -0.307733 0.570869 0.020000
v -0.307733 0.570869 -0.020000
vn -0.0000 -0.0000 -1.0000
vn -0.0000 -0.0000 1.0000
vn 0.8662 0.4998 -0.0000
vn -0.4384 0.8988 -0.0000
vn -0.4394 0.8983 -0.0000
vn 0.8299 0.5579 -0.0000
vn 0.7885 0.6150 -0.0000
vn 0.7401 0.6725 -0.0000
vn 0.6823 0.7311 -0.0000
vn 0.6124 0.7905 -0.0000
vn 0.5274 0.8496 -0.0000
vn 0.4240 0.9056 -0.0000
vn 0.3004 0.9538 -0.0000
vn 0.1570 0.9876 -0.0000
vn -0.0019 1.0000 -0.0000
vn -0.1703 0.9854 -0.0000
vn -0.3385 0.9410 -0.0000
vn -0.4945 0.8692 -0.0000
vn -0.6299 0.7767 -0.0000
vn -0.7406 0.6720 -0.0000
vn -0.8266 0.5629 -0.0000
vn -0.8906 0.4549 -0.0000
vn -0.9362 0.3514 -0.0000
vn -0.9672 0.2540 -0.0000
vn -0.9866 0.1632 -0.0000
vn -0.9969 0.0789 -0.0000
vn -1.0000 -0.0078 -0.0000
vn -0.9936 -0.1129 -0.0000
vn -0.9717 -0.2364 -0.0000
vn -0.9301 -0.3672 -0.0000
vn -0.8674 -0.4976 -0.0000
vn -0.7856 -0.6188 -0.0000
vn -0.6905 -0.7234 -0.0000
vn -0.5898 -0.8075 -0.0000
vn -0.4908 -0.8713 -0.0000
vn -0.3985 -0.9172 -0.0000
vn -0.3155 -0.9489 -0.0000
vn -0.3984 -0.9172 -0.0000
vn -0.2428 -0.9701 -0.0000
vn 0.3811 -0.9245 -0.0000
vn 0.9170 0.3988 -0.0000
vn 0.2005 0.9797 -0.0000
vn 0.9171 0.3988 -0.0000
vn 0.2649 0.9643 -0.0000
vn 0.3418 0.9398 -0.0000
vn 0.4314 0.9022 -0.0000
vn 0.5321 0.8467 -0.0000
vn 0.6395 0.7688 -0.0000
vn 0.7458 0.6661 -0.0000
vn 0.8410 0.5411 -0.0000
vn 0.9158 0.4015 -0.0000
vn 0.9660 0.2587 -0.0000
vn 0.9924 0.1232 -0.0000
vn 0.9999 0.0146 -0.0000
vn 0.9982 -0.0605 -0.0000
vn 0.9919 -0.1268 -0.0000
vn 0.9796 -0.2010 -0.0000
vn 0.9586 -0.2847 -0.0000
vn 0.9252 -0.3794 -0.0000
vn 0.8742 -0.4856 -0.0000
vn 0.7989 -0.6015 -0.0000
vn 0.6924 -0.7215 -0.0000
vn 0.5510 -0.8345 -0.0000
vn 0.3787 -0.9255 -0.0000
vn 0.1893 -0.9819 -0.0000
vn -0.0125 -0.9999 -0.0000
vn -0.2226 -0.9749 -0.0000
vn -0.4088 -0.9126 -0.0000
vn -0.5515 -0.8342 -0.0000
vn -0.6583 -0.7527 -0.0000
vn -0.7388 -0.6739 -0.0000
vn -0.8009 -0.5988 -0.0000
vn -0.8504 -0.5261 -0.0000
vn -0.8912 -0.4536 -0.0000
vn -0.9258 -0.3781 -0.0000
vn -0.9552 -0.2958 -0.0000
vn -0.9795 -0.2013 -0.0000
vn -0.9553 -0.2958 -0.0000
vn -0.9911 -0.1329 -0.0000
vn -0.9946 -0.1038 -0.0000
vn -0.9968 -0.0795 -0.0000
vn -0.9985 -0.0545 -0.0000
vn -0.9996 -0.0293 -0.0000
vn -1.0000 -0.0047 -0.0000
vn -0.9998 0.0189 -0.0000
vn -0.9992 0.0409 -0.0000
vn -0.9981 0.0609 -0.0000
vn -0.9969 0.0788 -0.0000
vn -0.9955 0.0944 -0.0000
vn -0.9942 0.1077 -0.0000
vn -0.7716 -0.6361 -0.0000
vn 0.6309 -0.7759 -0.0000
vn 0.9923 -0.1239 -0.0000
vn 0.9932 -0.1165 -0.0000
vn 0.9941 -0.1082 -0.0000
vn 0.9951 -0.0991 -0.0000
vn 0.9960 -0.0893 -0.0000
vn 0.9969 -0.0787 -0.0000
vn 0.9977 -0.0674 -0.0000
vn 0.9985 -0.0553 -0.0000
vn 0.9991 -0.0426 -0.0000
vn 0.9996 -0.0291 -0.0000
vn 0.9999 -0.0148 -0.0000
vn 1.0000 0.0039 -0.0000
vn 0.9996 0.0281 -0.0000
vn 0.9987 0.0507 -0.0000
vn 0.9976 0.0686 -0.0000
vn 0.9965 0.0832 -0.0000
vn 0.9954 0.0953 -0.0000
vn 0.9944 0.1055 -0.0000
vn 0.9934 0.1144 -0.0000
vn 0.9925 0.1221 -0.0000
vn 0.9917 0.1289 -0.0000
vn 0.9908 0.1351 -0.0000
vn 0.9900 0.1409 -0.0000
vn 0.9908 0.1355 -0.0000
vn 0.9925 0.1226 -0.0000
vn 0.9935 0.1137 -0.0000
vn 0.9944 0.1057 -0.0000
vn 0.9951 0.0985 -0.0000
vn 0.9957 0.0922 -0.0000
vn 0.9962 0.0868 -0.0000
vn 0.9966 0.0823 -0.0000
vn 0.9969 0.0787 -0.0000
vn 0.9971 0.0760 -0.0000
vn 0.9972 0.0743 -0.0000
vn 0.9973 0.0737 -0.0000
vn 0.6680 0.7442 -0.0000
vn -0.8037 0.5950 -0.0000
vn 0.6680 0.7441 -0.0000
vn -0.9695 -0.2451 -0.0000
vn -0.9754 -0.2205 -0.0000
vn -0.9826 -0.1856 -0.0000
vn -0.9851 -0.1722 -0.0000
vn -0.9871 -0.1603 -0.0000
vn -0.9888 -0.1493 -0.0000
vn -0.9903 -0.1386 -0.0000
vn -0.9918 -0.1277 -0.0000
vn -0.9933 -0.1159 -0.0000
vn 0.1037 -0.9946 -0.0000
vn 0.2543 -0.9671 -0.0000
vn 0.1058 -0.9944 -0.0000
vn 0.2540 -0.9672 -0.0000
vt 0.164262 0.951275
vt 0.163701 0.951275
vt 0.163982 0.951275
vt 0.163421 0.951275
vt 0.164542 0.951275
vt 0.164822 0.951275
vt 0.165102 0.951275
vt 0.163141 0.951275
vt 0.165382 0.951275
vt 0.165662 0.951275
vt 0.165943 0.951275
vt 0.195078 0.951275
vt 0.194517 0.951275
vt 0.194798 0.951275
vt 0.162861 0.951275
vt 0.195358 0.951275
vt 0.194237 0.951275
vt 0.166223 0.951275
vt 0.195638 0.951275
vt 0.193957 0.951275
vt 0.166503 0.951275
vt 0.166783 0.951275
vt 0.195918 0.951275
vt 0.193677 0.951275
vt 0.162581 0.951275
vt 0.167063 0.951275
vt 0.167343 0.951275
vt 0.196198 0.951275
vt 0.167623 0.951275
vt 0.193397 0.951275
vt 0.162301 0.951275
vt 0.196478 0.951275
vt 0.167904 0.951275
vt 0.193117 0.951275
vt 0.162021 0.951275
vt 0.196759 0.951275
vt 0.181070 0.951275
vt 0.168184 0.951275
vt 0.180790 0.951275
vt 0.181351 0.951275
vt 0.181631 0.951275
vt 0.180510 0.951275
vt 0.192837 0.951275
vt 0.181911 0.951275
vt 0.161740 0.951275
vt 0.197039 0.951275
vt 0.180230 0.951275
vt 0.182191 0.951275
vt 0.168464 0.951275
vt 0.179950 0.951275
vt 0.182471 0.951275
vt 0.161460 0.951275
vt 0.197319 0.951275
vt 0.192556 0.951275
vt 0.168744 0.951275
vt 0.179670 0.951275
vt 0.182751 0.951275
vt 0.161180 0.951275
vt 0.197599 0.951275
vt 0.183031 0.951275
vt 0.179390 0.951275
vt 0.192276 0.951275
vt 0.169024 0.951275
vt 0.160340 0.951275
vt 0.160900 0.951275
vt 0.197879 0.951275
vt 0.160620 0.951275
vt 0.183312 0.951275
vt 0.179109 0.951275
vt 0.169304 0.951275
vt 0.191996 0.951275
vt 0.183592 0.951275
vt 0.169584 0.951275
vt 0.178829 0.951275
vt 0.183872 0.951275
vt 0.191716 0.951275
vt 0.169865 0.951275
vt 0.178549 0.951275
vt 0.184152 0.951275
vt 0.170145 0.951275
vt 0.178269 0.951275
vt 0.191436 0.951275
vt 0.170425 0.951275
vt 0.184432 0.951275
vt 0.177989 0.951275
vt 0.170705 0.951275
vt 0.191156 0.951275
vt 0.184712 0.951275
vt 0.177709 0.951275
vt 0.170985 0.951275
vt 0.171265 0.951275
vt 0.177429 0.951275
vt 0.171546 0.951275
vt 0.177148 0.951275
vt 0.184992 0.951275
vt 0.171826 0.951275
vt 0.176868 0.951275
vt 0.190876 0.951275
vt 0.176588 0.951275
vt 0.172106 0.951275
vt 0.176308 0.951275
vt 0.172386 0.951275
vt 0.176028 0.951275
vt 0.175748 0.951275
vt 0.172666 0.951275
vt 0.175468 0.951275
vt 0.185273 0.951275
vt 0.172946 0.951275
vt 0.175187 0.951275
vt 0.173226 0.951275
vt 0.190595 0.951275
vt 0.174907 0.951275
vt 0.174627 0.951275
vt 0.173507 0.951275
vt 0.173787 0.951275
vt 0.174347 0.951275
vt 0.185553 0.951275
vt 0.174067 0.951275
vt 0.190315 0.951275
vt 0.185833 0.951275
vt 0.186113 0.951275
vt 0.190035 0.951275
vt 0.186393 0.951275
vt 0.189755 0.951275
vt 0.186673 0.951275
vt 0.186954 0.951275
vt 0.189475 0.951275
vt 0.187234 0.951275
vt 0.187514 0.951275
vt 0.189195 0.951275
vt 0.187794 0.951275
vt 0.188074 0.951275
vt 0.188915 0.951275
vt 0.188634 0.951275
vt 0.188354 0.951275
vt 0.197601 0.913735
vt 0.197879 0.913735
vt 0.197323 0.913735
vt 0.197601 0.951275
vt 0.197045 0.913735
vt 0.197323 0.951275
vt 0.196767 0.913735
vt 0.197045 0.951275
vt 0.196489 0.913735
vt 0.196767 0.951275
vt 0.196211 0.913735
vt 0.196489 0.951275
vt 0.195933 0.913735
vt 0.196211 0.951275
vt 0.195655 0.913735
vt 0.195933 0.951275
vt 0.195377 0.913735
vt 0.195655 0.951275
vt 0.195098 0.913735
vt 0.195377 0.951275
vt 0.194820 0.913735
vt 0.195098 0.951275
vt 0.194542 0.913735
vt 0.194820 0.951275
vt 0.194264 0.913735
vt 0.194542 0.951275
vt 0.193986 0.913735
vt 0.194264 0.951275
vt 0.193708 0.913735
vt 0.193986 0.951275
vt 0.193430 0.913735
vt 0.193708 0.951275
vt 0.193152 0.913735
vt 0.193430 0.951275
vt 0.192874 0.913735
vt 0.193152 0.951275
vt 0.192596 0.913735
vt 0.192874 0.951275
vt 0.192318 0.913735
vt 0.192596 0.951275
vt 0.192040 0.913735
vt 0.192318 0.951275
vt 0.191762 0.913735
vt 0.192040 0.951275
vt 0.191484 0.913735
vt 0.191762 0.951275
vt 0.191205 0.913735
vt 0.191484 0.951275
vt 0.190927 0.913735
vt 0.191205 0.951275
vt 0.190649 0.913735
vt 0.190927 0.951275
vt 0.190371 0.913735
vt 0.190649 0.951275
vt 0.190093 0.913735
vt 0.190371 0.951275
vt 0.189815 0.913735
vt 0.190093 0.951275
vt 0.189537 0.913735
vt 0.189815 0.951275
vt 0.189259 0.913735
vt 0.189537 0.951275
vt 0.188981 0.913735
vt 0.189259 0.951275
vt 0.188703 0.913735
vt 0.188981 0.951275
vt 0.188425 0.913735
vt 0.188703 0.951275
vt 0.188147 0.913735
vt 0.188425 0.951275
vt 0.187869 0.913735
vt 0.188147 0.951275
vt 0.187591 0.913735
vt 0.187869 0.951275
vt 0.187313 0.913735
vt 0.187591 0.951275
vt 0.187034 0.913735
vt 0.187313 0.951275
vt 0.186756 0.913735
vt 0.187034 0.951275
vt 0.186478 0.913735
vt 0.186756 0.951275
vt 0.186200 0.913735
vt 0.186478 0.951275
vt 0.185922 0.913735
vt 0.186200 0.951275
vt 0.185644 0.913735
vt 0.185922 0.951275
vt 0.185366 0.913735
vt 0.185644 0.951275
vt 0.185088 0.913735
vt 0.185366 0.951275
vt 0.184810 0.913735
vt 0.185088 0.951275
vt 0.184532 0.913735
vt 0.184810 0.951275
vt 0.184254 0.913735
vt 0.184532 0.951275
vt 0.183976 0.913735
vt 0.184254 0.951275
vt 0.183698 0.913735
vt 0.183976 0.951275
vt 0.183419 0.913735
vt 0.183698 0.951275
vt 0.183141 0.913735
vt 0.183419 0.951275
vt 0.182863 0.913735
vt 0.183141 0.951275
vt 0.182585 0.913735
vt 0.182863 0.951275
vt 0.182307 0.913735
vt 0.182585 0.951275
vt 0.182029 0.913735
vt 0.182307 0.951275
vt 0.181751 0.913735
vt 0.182029 0.951275
vt 0.181473 0.913735
vt 0.181751 0.951275
vt 0.181195 0.913735
vt 0.181473 0.951275
vt 0.180917 0.913735
vt 0.181195 0.951275
vt 0.180639 0.913735
vt 0.180917 0.951275
vt 0.180361 0.913735
vt 0.180639 0.951275
vt 0.180083 0.913735
vt 0.180361 0.951275
vt 0.179805 0.913735
vt 0.180083 0.951275
vt 0.179527 0.913735
vt 0.179805 0.951275
vt 0.179248 0.913735
vt 0.179527 0.951275
vt 0.178970 0.913735
vt 0.179248 0.951275
vt 0.178692 0.913735
vt 0.178970 0.951275
vt 0.178414 0.913735
vt 0.178692 0.951275
vt 0.178136 0.913735
vt 0.178414 0.951275
vt 0.177858 0.913735
vt 0.178136 0.951275
vt 0.177580 0.913735
vt 0.177858 0.951275
vt 0.177302 0.913735
vt 0.177580 0.951275
vt 0.177024 0.913735
vt 0.177302 0.951275
vt 0.176746 0.913735
vt 0.177024 0.951275
vt 0.176468 0.913735
vt 0.176746 0.951275
vt 0.176190 0.913735
vt 0.176468 0.951275
vt 0.175912 0.913735
vt 0.176190 0.951275
vt 0.175634 0.913735
vt 0.175912 0.951275
vt 0.175355 0.913735
vt 0.175634 0.951275
vt 0.175077 0.913735
vt 0.175355 0.951275
vt 0.174799 0.913735
vt 0.175077 0.951275
vt 0.174521 0.913735
vt 0.174799 0.951275
vt 0.174243 0.913735
vt 0.174521 0.951275
vt 0.173965 0.913735
vt 0.174243 0.951275
vt 0.173687 0.913735
vt 0.173965 0.951275
vt 0.173409 0.913735
vt 0.173687 0.951275
vt 0.173131 0.913735
vt 0.173409 0.951275
vt 0.172853 0.913735
vt 0.173131 0.951275
vt 0.172575 0.913735
vt 0.172853 0.951275
vt 0.172297 0.913735
vt 0.172575 0.951275
vt 0.172019 0.913735
vt 0.172297 0.951275
vt 0.171741 0.913735
vt 0.172019 0.951275
vt 0.171462 0.913735
vt 0.171741 0.951275
vt 0.171184 0.913735
vt 0.171462 0.951275
vt 0.170906 0.913735
vt 0.171184 0.951275
vt 0.170628 0.913735
vt 0.170906 0.951275
vt 0.170350 0.913735
vt 0.170628 0.951275
vt 0.170072 0.913735
vt 0.170350 0.951275
vt 0.169794 0.913735
vt 0.170072 0.951275
vt 0.169516 0.913735
vt 0.169794 0.951275
vt 0.169238 0.913735
vt 0.169516 0.951275
vt 0.168960 0.913735
vt 0.169238 0.951275
vt 0.168682 0.913735
vt 0.168960 0.951275
vt 0.168404 0.913735
vt 0.168682 0.951275
vt 0.168126 0.913735
vt 0.168404 0.951275
vt 0.167848 0.913735
vt 0.168126 0.951275
vt 0.167570 0.913735
vt 0.167848 0.951275
vt 0.167291 0.913735
vt 0.167570 0.951275
vt 0.167013 0.913735
vt 0.167291 0.951275
vt 0.166735 0.913735
vt 0.167013 0.951275
vt 0.166457 0.913735
vt 0.166735 0.951275
vt 0.166179 0.913735
vt 0.166457 0.951275
vt 0.165901 0.913735
vt 0.166179 0.951275
vt 0.165623 0.913735
vt 0.165901 0.951275
vt 0.165345 0.913735
vt 0.165623 0.951275
vt 0.165067 0.913735
vt 0.165345 0.951275
vt 0.164789 0.913735
vt 0.165067 0.951275
vt 0.164511 0.913735
vt 0.164789 0.951275
vt 0.164233 0.913735
vt 0.164511 0.951275
vt 0.163955 0.913735
vt 0.164233 0.951275
vt 0.163677 0.913735
vt 0.163955 0.951275
vt 0.163398 0.913735
vt 0.163677 0.951275
vt 0.163120 0.913735
vt 0.163398 0.951275
vt 0.162842 0.913735
vt 0.163120 0.951275
vt 0.162564 0.913735
vt 0.162842 0.951275
vt 0.162286 0.913735
vt 0.162564 0.951275
vt 0.162008 0.913735
vt 0.162286 0.951275
vt 0.161730 0.913735
vt 0.162008 0.951275
vt 0.161452 0.913735
vt 0.161730 0.951275
vt 0.161174 0.913735
vt 0.161452 0.951275
vt 0.160896 0.913735
vt 0.161174 0.951275
vt 0.160618 0.913735
vt 0.160896 0.951275
vt 0.160340 0.913735
vt 0.160618 0.951275
s 0
usemtl Material
f 121/1/1 123/2/1 122/3/1
f 121/1/1 124/4/1 123/2/1
f 120/5/1 124/4/1 121/1/1
f 119/6/1 124/4/1 120/5/1
f 118/7/1 124/4/1 119/6/1
f 118/7/1 125/8/1 124/4/1
f 117/9/1 125/8/1 118/7/1
f 116/10/1 125/8/1 117/9/1
f 115/11/1 125/8/1 116/10/1
f 11/12/1 13/13/1 12/14/1
f 115/11/1 126/15/1 125/8/1
f 10/16/1 13/13/1 11/12/1
f 10/16/1 14/17/1 13/13/1
f 114/18/1 126/15/1 115/11/1
f 9/19/1 14/17/1 10/16/1
f 9/19/1 15/20/1 14/17/1
f 113/21/1 126/15/1 114/18/1
f 112/22/1 126/15/1 113/21/1
f 8/23/1 15/20/1 9/19/1
f 8/23/1 16/24/1 15/20/1
f 112/22/1 127/25/1 126/15/1
f 111/26/1 127/25/1 112/22/1
f 110/27/1 127/25/1 111/26/1
f 7/28/1 16/24/1 8/23/1
f 109/29/1 127/25/1 110/27/1
f 7/28/1 17/30/1 16/24/1
f 109/29/1 128/31/1 127/25/1
f 6/32/1 17/30/1 7/28/1
f 108/33/1 128/31/1 109/29/1
f 6/32/1 18/34/1 17/30/1
f 108/33/1 129/35/1 128/31/1
f 5/36/1 61/37/1 6/32/1
f 61/37/1 18/34/1 6/32/1
f 107/38/1 129/35/1 108/33/1
f 5/36/1 62/39/1 61/37/1
f 60/40/1 18/34/1 61/37/1
f 59/41/1 18/34/1 60/40/1
f 5/36/1 63/42/1 62/39/1
f 59/41/1 19/43/1 18/34/1
f 58/44/1 19/43/1 59/41/1
f 107/38/1 130/45/1 129/35/1
f 4/46/1 63/42/1 5/36/1
f 4/46/1 64/47/1 63/42/1
f 57/48/1 19/43/1 58/44/1
f 106/49/1 130/45/1 107/38/1
f 4/46/1 65/50/1 64/47/1
f 56/51/1 19/43/1 57/48/1
f 106/49/1 131/52/1 130/45/1
f 3/53/1 65/50/1 4/46/1
f 56/51/1 20/54/1 19/43/1
f 105/55/1 131/52/1 106/49/1
f 3/53/1 66/56/1 65/50/1
f 55/57/1 20/54/1 56/51/1
f 105/55/1 132/58/1 131/52/1
f 2/59/1 66/56/1 3/53/1
f 54/60/1 20/54/1 55/57/1
f 2/59/1 67/61/1 66/56/1
f 54/60/1 21/62/1 20/54/1
f 104/63/1 132/58/1 105/55/1
f 104/63/1 135/64/1 132/58/1
f 135/64/1 133/65/1 132/58/1
f 104/63/1 1/66/1 135/64/1
f 134/67/1 133/65/1 135/64/1
f 1/66/1 67/61/1 2/59/1
f 53/68/1 21/62/1 54/60/1
f 1/66/1 68/69/1 67/61/1
f 103/70/1 1/66/1 104/63/1
f 103/70/1 68/69/1 1/66/1
f 53/68/1 22/71/1 21/62/1
f 52/72/1 22/71/1 53/68/1
f 102/73/1 68/69/1 103/70/1
f 102/73/1 69/74/1 68/69/1
f 51/75/1 22/71/1 52/72/1
f 51/75/1 23/76/1 22/71/1
f 101/77/1 69/74/1 102/73/1
f 101/77/1 70/78/1 69/74/1
f 50/79/1 23/76/1 51/75/1
f 100/80/1 70/78/1 101/77/1
f 100/80/1 71/81/1 70/78/1
f 50/79/1 24/82/1 23/76/1
f 99/83/1 71/81/1 100/80/1
f 49/84/1 24/82/1 50/79/1
f 99/83/1 72/85/1 71/81/1
f 98/86/1 72/85/1 99/83/1
f 49/84/1 25/87/1 24/82/1
f 48/88/1 25/87/1 49/84/1
f 98/86/1 73/89/1 72/85/1
f 97/90/1 73/89/1 98/86/1
f 96/91/1 73/89/1 97/90/1
f 96/91/1 74/92/1 73/89/1
f 95/93/1 74/92/1 96/91/1
f 95/93/1 75/94/1 74/92/1
f 47/95/1 25/87/1 48/88/1
f 94/96/1 75/94/1 95/93/1
f 94/96/1 76/97/1 75/94/1
f 47/95/1 26/98/1 25/87/1
f 94/96/1 77/99/1 76/97/1
f 93/100/1 77/99/1 94/96/1
f 93/100/1 78/101/1 77/99/1
f 92/102/1 78/101/1 93/100/1
f 92/102/1 79/103/1 78/101/1
f 92/102/1 80/104/1 79/103/1
f 91/105/1 80/104/1 92/102/1
f 91/105/1 81/106/1 80/104/1
f 46/107/1 26/98/1 47/95/1
f 90/108/1 81/106/1 91/105/1
f 90/108/1 82/109/1 81/106/1
f 89/110/1 82/109/1 90/108/1
f 46/107/1 27/111/1 26/98/1
f 89/110/1 83/112/1 82/109/1
f 89/110/1 84/113/1 83/112/1
f 88/114/1 84/113/1 89/110/1
f 87/115/1 84/113/1 88/114/1
f 87/115/1 85/116/1 84/113/1
f 45/117/1 27/111/1 46/107/1
f 86/118/1 85/116/1 87/115/1
f 45/117/1 28/119/1 27/111/1
f 44/120/1 28/119/1 45/117/1
f 43/121/1 28/119/1 44/120/1
f 43/121/1 29/122/1 28/119/1
f 42/123/1 29/122/1 43/121/1
f 42/123/1 30/124/1 29/122/1
f 41/125/1 30/124/1 42/123/1
f 40/126/1 30/124/1 41/125/1
f 40/126/1 31/127/1 30/124/1
f 39/128/1 31/127/1 40/126/1
f 38/129/1 31/127/1 39/128/1
f 38/129/1 32/130/1 31/127/1
f 37/131/1 32/130/1 38/129/1
f 36/132/1 32/130/1 37/131/1
f 36/132/1 33/133/1 32/130/1
f 36/132/1 34/134/1 33/133/1
f 36/132/1 35/135/1 34/134/1
f 256/1/2 257/3/2 258/2/2
f 256/1/2 258/2/2 259/4/2
f 255/5/2 256/1/2 259/4/2
f 254/6/2 255/5/2 259/4/2
f 253/7/2 254/6/2 259/4/2
f 253/7/2 259/4/2 260/8/2
f 252/9/2 253/7/2 260/8/2
f 251/10/2 252/9/2 260/8/2
f 250/11/2 251/10/2 260/8/2
f 146/12/2 147/14/2 148/13/2
f 250/11/2 260/8/2 261/15/2
f 145/16/2 146/12/2 148/13/2
f 145/16/2 148/13/2 149/17/2
f 249/18/2 250/11/2 261/15/2
f 144/19/2 145/16/2 149/17/2
f 144/19/2 149/17/2 150/20/2
f 248/21/2 249/18/2 261/15/2
f 247/22/2 248/21/2 261/15/2
f 143/23/2 144/19/2 150/20/2
f 143/23/2 150/20/2 151/24/2
f 247/22/2 261/15/2 262/25/2
f 246/26/2 247/22/2 262/25/2
f 245/27/2 246/26/2 262/25/2
f 142/28/2 143/23/2 151/24/2
f 244/29/2 245/27/2 262/25/2
f 142/28/2 151/24/2 152/30/2
f 244/29/2 262/25/2 263/31/2
f 141/32/2 142/28/2 152/30/2
f 243/33/2 244/29/2 263/31/2
f 141/32/2 152/30/2 153/34/2
f 243/33/2 263/31/2 264/35/2
f 140/36/2 141/32/2 196/37/2
f 196/37/2 141/32/2 153/34/2
f 242/38/2 243/33/2 264/35/2
f 140/36/2 196/37/2 197/39/2
f 195/40/2 196/37/2 153/34/2
f 194/41/2 195/40/2 153/34/2
f 140/36/2 197/39/2 198/42/2
f 194/41/2 153/34/2 154/43/2
f 193/44/2 194/41/2 154/43/2
f 242/38/2 264/35/2 265/45/2
f 139/46/2 140/36/2 198/42/2
f 139/46/2 198/42/2 199/47/2
f 192/48/2 193/44/2 154/43/2
f 241/49/2 242/38/2 265/45/2
f 139/46/2 199/47/2 200/50/2
f 191/51/2 192/48/2 154/43/2
f 241/49/2 265/45/2 266/52/2
f 138/53/2 139/46/2 200/50/2
f 191/51/2 154/43/2 155/54/2
f 240/55/2 241/49/2 266/52/2
f 138/53/2 200/50/2 201/56/2
f 190/57/2 191/51/2 155/54/2
f 240/55/2 266/52/2 267/58/2
f 137/59/2 138/53/2 201/56/2
f 189/60/2 190/57/2 155/54/2
f 137/59/2 201/56/2 202/61/2
f 189/60/2 155/54/2 156/62/2
f 239/63/2 240/55/2 267/58/2
f 239/63/2 267/58/2 270/64/2
f 270/64/2 267/58/2 268/65/2
f 239/63/2 270/64/2 136/66/2
f 269/67/2 270/64/2 268/65/2
f 136/66/2 137/59/2 202/61/2
f 188/68/2 189/60/2 156/62/2
f 136/66/2 202/61/2 203/69/2
f 238/70/2 239/63/2 136/66/2
f 238/70/2 136/66/2 203/69/2
f 188/68/2 156/62/2 157/71/2
f 187/72/2 188/68/2 157/71/2
f 237/73/2 238/70/2 203/69/2
f 237/73/2 203/69/2 204/74/2
f 186/75/2 187/72/2 157/71/2
f 186/75/2 157/71/2 158/76/2
f 236/77/2 237/73/2 204/74/2
f 236/77/2 204/74/2 205/78/2
f 185/79/2 186/75/2 158/76/2
f 235/80/2 236/77/2 205/78/2
f 235/80/2 205/78/2 206/81/2
f 185/79/2 158/76/2 159/82/2
f 234/83/2 235/80/2 206/81/2
f 184/84/2 185/79/2 159/82/2
f 234/83/2 206/81/2 207/85/2
f 233/86/2 234/83/2 207/85/2
f 184/84/2 159/82/2 160/87/2
f 183/88/2 184/84/2 160/87/2
f 233/86/2 207/85/2 208/89/2
f 232/90/2 233/86/2 208/89/2
f 231/91/2 232/90/2 208/89/2
f 231/91/2 208/89/2 209/92/2
f 230/93/2 231/91/2 209/92/2
f 230/93/2 209/92/2 210/94/2
f 182/95/2 183/88/2 160/87/2
f 229/96/2 230/93/2 210/94/2
f 229/96/2 210/94/2 211/97/2
f 182/95/2 160/87/2 161/98/2
f 229/96/2 211/97/2 212/99/2
f 228/100/2 229/96/2 212/99/2
f 228/100/2 212/99/2 213/101/2
f 227/102/2 228/100/2 213/101/2
f 227/102/2 213/101/2 214/103/2
f 227/102/2 214/103/2 215/104/2
f 226/105/2 227/102/2 215/104/2
f 226/105/2 215/104/2 216/106/2
f 181/107/2 182/95/2 161/98/2
f 225/108/2 226/105/2 216/106/2
f 225/108/2 216/106/2 217/109/2
f 224/110/2 225/108/2 217/109/2
f 181/107/2 161/98/2 162/111/2
f 224/110/2 217/109/2 218/112/2
f 224/110/2 218/112/2 219/113/2
f 223/114/2 224/110/2 219/113/2
f 222/115/2 223/114/2 219/113/2
f 222/115/2 219/113/2 220/116/2
f 180/117/2 181/107/2 162/111/2
f 221/118/2 222/115/2 220/116/2
f 180/117/2 162/111/2 163/119/2
f 179/120/2 180/117/2 163/119/2
f 178/121/2 179/120/2 163/119/2
f 178/121/2 163/119/2 164/122/2
f 177/123/2 178/121/2 164/122/2
f 177/123/2 164/122/2 165/124/2
f 176/125/2 177/123/2 165/124/2
f 175/126/2 176/125/2 165/124/2
f 175/126/2 165/124/2 166/127/2
f 174/128/2 175/126/2 166/127/2
f 173/129/2 174/128/2 166/127/2
f 173/129/2 166/127/2 167/130/2
f 172/131/2 173/129/2 167/130/2
f 171/132/2 172/131/2 167/130/2
f 171/132/2 167/130/2 168/133/2
f 171/132/2 168/133/2 169/134/2
f 171/132/2 169/134/2 170/135/2
s 1
f 274/136/3 271/66/4 272/137/5
f 276/138/6 273/139/3 274/136/3
f 278/140/7 275/141/6 276/138/6
f 280/142/8 277/143/7 278/140/7
f 282/144/9 279/145/8 280/142/8
f 284/146/10 281/147/9 282/144/9
f 286/148/11 283/149/10 284/146/10
f 288/150/12 285/151/11 286/148/11
f 290/152/13 287/153/12 288/150/12
f 292/154/14 289/155/13 290/152/13
f 294/156/15 291/157/14 292/154/14
f 296/158/16 293/159/15 294/156/15
f 298/160/17 295/161/16 296/158/16
f 300/162/18 297/163/17 298/160/17
f 302/164/19 299/165/18 300/162/18
f 304/166/20 301/167/19 302/164/19
f 306/168/21 303/169/20 304/166/20
f 308/170/22 305/171/21 306/168/21
f 310/172/23 307/173/22 308/170/22
f 312/174/24 309/175/23 310/172/23
f 314/176/25 311/177/24 312/174/24
f 316/178/26 313/179/25 314/176/25
f 318/180/27 315/181/26 316/178/26
f 320/182/28 317/183/27 318/180/27
f 322/184/29 319/185/28 320/182/28
f 324/186/30 321/187/29 322/184/29
f 326/188/31 323/189/30 324/186/30
f 328/190/32 325/191/31 326/188/31
f 330/192/33 327/193/32 328/190/32
f 332/194/34 329/195/33 330/192/33
f 334/196/35 331/197/34 332/194/34
f 336/198/36 333/199/35 334/196/35
f 338/200/37 335/201/38 336/198/36
f 340/202/39 337/203/37 338/200/37
f 342/204/40 339/205/39 340/202/39
f 344/206/41 341/207/40 342/204/40
f 346/208/42 343/209/43 344/206/41
f 348/210/44 345/211/42 346/208/42
f 350/212/45 347/213/44 348/210/44
f 352/214/46 349/215/45 350/212/45
f 354/216/47 351/217/46 352/214/46
f 356/218/48 353/219/47 354/216/47
f 358/220/49 355/221/48 356/218/48
f 360/222/50 357/223/49 358/220/49
f 362/224/51 359/225/50 360/222/50
f 364/226/52 361/227/51 362/224/51
f 366/228/53 363/229/52 364/226/52
f 368/230/54 365/231/53 366/228/53
f 370/232/55 367/233/54 368/230/54
f 372/234/56 369/235/55 370/232/55
f 374/236/57 371/237/56 372/234/56
f 376/238/58 373/239/57 374/236/57
f 378/240/59 375/241/58 376/238/58
f 380/242/60 377/243/59 378/240/59
f 382/244/61 379/245/60 380/242/60
f 384/246/62 381/247/61 382/244/61
f 386/248/63 383/249/62 384/246/62
f 388/250/64 385/251/63 386/248/63
f 390/252/65 387/253/64 388/250/64
f 392/254/66 389/255/65 390/252/65
f 394/256/67 391/257/66 392/254/66
f 396/258/68 393/259/67 394/256/67
f 398/260/69 395/261/68 396/258/68
f 400/262/70 397/263/69 398/260/69
f 402/264/71 399/265/70 400/262/70
f 404/266/72 401/267/71 402/264/71
f 406/268/73 403/269/72 404/266/72
f 408/270/74 405/271/73 406/268/73
f 410/272/75 407/273/74 408/270/74
f 412/274/76 409/275/75 410/272/75
f 414/276/77 411/277/78 412/274/76
f 416/278/79 413/279/77 414/276/77
f 418/280/80 415/281/79 416/278/79
f 420/282/81 417/283/80 418/280/80
f 422/284/82 419/285/81 420/282/81
f 424/286/83 421/287/82 422/284/82
f 426/288/84 423/289/83 424/286/83
f 428/290/85 425/291/84 426/288/84
f 430/292/86 427/293/85 428/290/85
f 432/294/87 429/295/86 430/292/86
f 434/296/88 431/297/87 432/294/87
f 436/298/89 433/299/88 434/296/88
f 438/300/90 435/301/89 436/298/89
f 440/302/91 437/303/90 438/300/90
f 442/304/92 439/305/91 440/302/91
f 444/306/93 441/307/92 442/304/92
f 446/308/94 443/309/93 444/306/93
f 448/310/95 445/311/94 446/308/94
f 450/312/96 447/313/95 448/310/95
f 452/314/97 449/315/96 450/312/96
f 454/316/98 451/317/97 452/314/97
f 456/318/99 453/319/98 454/316/98
f 458/320/100 455/321/99 456/318/99
f 460/322/101 457/323/100 458/320/100
f 462/324/102 459/325/101 460/322/101
f 464/326/103 461/327/102 462/324/102
f 466/328/104 463/329/103 464/326/103
f 468/330/105 465/331/104 466/328/104
f 470/332/106 467/333/105 468/330/105
f 472/334/107 469/335/106 470/332/106
f 474/336/108 471/337/107 472/334/107
f 476/338/109 473/339/108 474/336/108
f 478/340/110 475/341/109 476/338/109
f 480/342/111 477/343/110 478/340/110
f 482/344/112 479/345/111 480/342/111
f 484/346/113 481/347/112 482/344/112
f 486/348/114 483/349/113 484/346/113
f 488/350/115 485/351/114 486/348/114
f 490/352/116 487/353/115 488/350/115
f 492/354/117 489/355/116 490/352/116
f 494/356/118 491/357/117 492/354/117
f 496/358/119 493/359/118 494/356/118
f 498/360/120 495/361/119 496/358/119
f 500/362/121 497/363/120 498/360/120
f 502/364/122 499/365/121 500/362/121
f 504/366/123 501/367/122 502/364/122
f 506/368/124 503/369/123 504/366/123
f 508/370/125 505/371/124 506/368/124
f 510/372/126 507/373/125 508/370/125
f 512/374/127 509/375/126 510/372/126
f 514/376/128 511/377/127 512/374/127
f 516/378/129 513/379/130 514/376/128
f 518/380/131 515/381/129 516/378/129
f 520/382/132 517/383/131 518/380/131
f 522/384/77 519/385/132 520/382/132
f 524/386/133 521/387/77 522/384/77
f 526/388/134 523/389/133 524/386/133
f 528/390/135 525/391/134 526/388/134
f 530/392/136 527/393/135 528/390/135
f 532/394/137 529/395/136 530/392/136
f 534/396/138 531/397/137 532/394/137
f 536/398/139 533/399/138 534/396/138
f 538/400/140 535/401/139 536/398/139
f 540/402/141 537/403/142 538/400/140
f 272/404/5 539/405/143 540/402/141
f 274/136/3 273/139/3 271/66/4
f 276/138/6 275/141/6 273/139/3
f 278/140/7 277/143/7 275/141/6
f 280/142/8 279/145/8 277/143/7
f 282/144/9 281/147/9 279/145/8
f 284/146/10 283/149/10 281/147/9
f 286/148/11 285/151/11 283/149/10
f 288/150/12 287/153/12 285/151/11
f 290/152/13 289/155/13 287/153/12
f 292/154/14 291/157/14 289/155/13
f 294/156/15 293/159/15 291/157/14
f 296/158/16 295/161/16 293/159/15
f 298/160/17 297/163/17 295/161/16
f 300/162/18 299/165/18 297/163/17
f 302/164/19 301/167/19 299/165/18
f 304/166/20 303/169/20 301/167/19
f 306/168/21 305/171/21 303/169/20
f 308/170/22 307/173/22 305/171/21
f 310/172/23 309/175/23 307/173/22
f 312/174/24 311/177/24 309/175/23
f 314/176/25 313/179/25 311/177/24
f 316/178/26 315/181/26 313/179/25
f 318/180/27 317/183/27 315/181/26
f 320/182/28 319/185/28 317/183/27
f 322/184/29 321/187/29 319/185/28
f 324/186/30 323/189/30 321/187/29
f 326/188/31 325/191/31 323/189/30
f 328/190/32 327/193/32 325/191/31
f 330/192/33 329/195/33 327/193/32
f 332/194/34 331/197/34 329/195/33
f 334/196/35 333/199/35 331/197/34
f 336/198/36 335/201/38 333/199/35
f 338/200/37 337/203/37 335/201/38
f 340/202/39 339/205/39 337/203/37
f 342/204/40 341/207/40 339/205/39
f 344/206/41 343/209/43 341/207/40
f 346/208/42 345/211/42 343/209/43
f 348/210/44 347/213/44 345/211/42
f 350/212/45 349/215/45 347/213/44
f 352/214/46 351/217/46 349/215/45
f 354/216/47 353/219/47 351/217/46
f 356/218/48 355/221/48 353/219/47
f 358/220/49 357/223/49 355/221/48
f 360/222/50 359/225/50 357/223/49
f 362/224/51 361/227/51 359/225/50
f 364/226/52 363/229/52 361/227/51
f 366/228/53 365/231/53 363/229/52
f 368/230/54 367/233/54 365/231/53
f 370/232/55 369/235/55 367/233/54
f 372/234/56 371/237/56 369/235/55
f 374/236/57 373/239/57 371/237/56
f 376/238/58 375/241/58 373/239/57
f 378/240/59 377/243/59 375/241/58
f 380/242/60 379/245/60 377/243/59
f 382/244/61 381/247/61 379/245/60
f 384/246/62 383/249/62 381/247/61
f 386/248/63 385/251/63 383/249/62
f 388/250/64 387/253/64 385/251/63
f 390/252/65 389/255/65 387/253/64
f 392/254/66 391/257/66 389/255/65
f 394/256/67 393/259/67 391/257/66
f 396/258/68 395/261/68 393/259/67
f 398/260/69 397/263/69 395/261/68
f 400/262/70 399/265/70 397/263/69
f 402/264/71 401/267/71 399/265/70
f 404/266/72 403/269/72 401/267/71
f 406/268/73 405/271/73 403/269/72
f 408/270/74 407/273/74 405/271/73
f 410/272/75 409/275/75 407/273/74
f 412/274/76 411/277/78 409/275/75
f 414/276/77 413/279/77 411/277/78
f 416/278/79 415/281/79 413/279/77
f 418/280/80 417/283/80 415/281/79
f 420/282/81 419/285/81 417/283/80
f 422/284/82 421/287/82 419/285/81
f 424/286/83 423/289/83 421/287/82
f 426/288/84 425/291/84 423/289/83
f 428/290/85 427/293/85 425/291/84
f 430/292/86 429/295/86 427/293/85
f 432/294/87 431/297/87 429/295/86
f 434/296/88 433/299/88 431/297/87
f 436/298/89 435/301/89 433/299/88
f 438/300/90 437/303/90 435/301/89
f 440/302/91 439/305/91 437/303/90
f 442/304/92 441/307/92 439/305/91
f 444/306/93 443/309/93 441/307/92
f 446/308/94 445/311/94 443/309/93
f 448/310/95 447/313/95 445/311/94
f 450/312/96 449/315/96 447/313/95
f 452/314/97 451/317/97 449/315/96
f 454/316/98 453/319/98 451/317/97
f 456/318/99 455/321/99 453/319/98
f 458/320/100 457/323/100 455/321/99
f 460/322/101 459/325/101 457/323/100
f 462/324/102 461/327/102 459/325/101
f 464/326/103 463/329/103 461/327/102
f 466/328/104 465/331/104 463/329/103
f 468/330/105 467/333/105 465/331/104
f 470/332/106 469/335/106 467/333/105
f 472/334/107 471/337/107 469/335/106
f 474/336/108 473/339/108 471/337/107
f 476/338/109 475/341/109 473/339/108
f 478/340/110 477/343/110 475/341/109
f 480/342/111 479/345/111 477/343/110
f 482/344/112 481/347/112 479/345/111
f 484/346/113 483/349/113 481/347/112
f 486/348/114 485/351/114 483/349/113
f 488/350/115 487/353/115 485/351/114
f 490/352/116 489/355/116 487/353/115
f 492/354/117 491/357/117 489/355/116
f 494/356/118 493/359/118 491/357/117
f 496/358/119 495/361/119 493/359/118
f 498/360/120 497/363/120 495/361/119
f 500/362/121 499/365/121 497/363/120
f 502/364/122 501/367/122 499/365/121
f 504/366/123 503/369/123 501/367/122
f 506/368/124 505/371/124 503/369/123
f 508/370/125 507/373/125 505/371/124
f 510/372/126 509/375/126 507/373/125
f 512/374/127 511/377/127 509/375/126
f 514/376/128 513/379/130 511/377/127
f 516/378/129 515/381/129 513/379/130
f 518/380/131 517/383/131 515/381/129
f 520/382/132 519/385/132 517/383/131
f 522/384/77 521/387/77 519/385/132
f 524/386/133 523/389/133 521/387/77
f 526/388/134 525/391/134 523/389/133
f 528/390/135 527/393/135 525/391/134
f 530/392/136 529/395/136 527/393/135
f 532/394/137 531/397/137 529/395/136
f 534/396/138 533/399/138 531/397/137
f 536/398/139 535/401/139 533/399/138
f 538/400/140 537/403/142 535/401/139
f 540/402/141 539/405/143 537/403/142
f 272/404/5 271/64/4 539/405/143
