# Blender 4.1.1
# www.blender.org
mtllib enter.mtl
o Text
v -0.193000 0.574000 -0.060000
v -0.193000 0.408000 -0.060000
v -0.472000 0.408000 -0.060000
v -0.472000 0.280000 -0.060000
v -0.193000 0.280000 -0.060000
v -0.193000 0.108000 -0.060000
v -0.491000 0.108000 -0.060000
v -0.491000 -0.020000 -0.060000
v -0.055000 -0.020000 -0.060000
v -0.055000 0.702000 -0.060000
v -0.482000 0.702000 -0.060000
v -0.482000 0.574000 -0.060000
v -0.193000 0.574000 0.060000
v -0.193000 0.408000 0.060000
v -0.472000 0.408000 0.060000
v -0.472000 0.280000 0.060000
v -0.193000 0.280000 0.060000
v -0.193000 0.108000 0.060000
v -0.491000 0.108000 0.060000
v -0.491000 -0.020000 0.060000
v -0.055000 -0.020000 0.060000
v -0.055000 0.702000 0.060000
v -0.482000 0.702000 0.060000
v -0.482000 0.574000 0.060000
v -0.193000 0.574000 0.060000
v -0.193000 0.574000 -0.060000
v -0.193000 0.408000 0.060000
v -0.193000 0.408000 -0.060000
v -0.472000 0.408000 0.060000
v -0.472000 0.408000 -0.060000
v -0.472000 0.280000 0.060000
v -0.472000 0.280000 -0.060000
v -0.193000 0.280000 0.060000
v -0.193000 0.280000 -0.060000
v -0.193000 0.108000 0.060000
v -0.193000 0.108000 -0.060000
v -0.491000 0.108000 0.060000
v -0.491000 0.108000 -0.060000
v -0.491000 -0.020000 0.060000
v -0.491000 -0.020000 -0.060000
v -0.055000 -0.020000 0.060000
v -0.055000 -0.020000 -0.060000
v -0.055000 0.702000 0.060000
v -0.055000 0.702000 -0.060000
v -0.482000 0.702000 0.060000
v -0.482000 0.702000 -0.060000
v -0.482000 0.574000 0.060000
v -0.482000 0.574000 -0.060000
vn -0.0000 -0.0000 -1.0000
vn -0.0000 -0.0000 1.0000
vn -0.7071 0.7071 -0.0000
vn -0.7071 -0.7071 -0.0000
vn 0.7071 -0.7071 -0.0000
vn 0.7071 0.7071 -0.0000
vt 0.727273 0.000000
vt 0.000000 0.000000
vt 0.818182 0.000000
vt 0.909091 0.000000
vt 1.000000 0.000000
vt 0.090909 0.000000
vt 0.363636 0.000000
vt 0.181818 0.000000
vt 0.272727 0.000000
vt 0.454545 0.000000
vt 0.545455 0.000000
vt 0.636364 0.000000
vt 0.083333 1.000000
vt 0.000000 1.000000
vt 0.166667 1.000000
vt 0.083333 0.000000
vt 0.250000 1.000000
vt 0.166667 0.000000
vt 0.333333 1.000000
vt 0.250000 0.000000
vt 0.416667 1.000000
vt 0.333333 0.000000
vt 0.500000 1.000000
vt 0.416667 0.000000
vt 0.583333 1.000000
vt 0.500000 0.000000
vt 0.666667 1.000000
vt 0.583333 0.000000
vt 0.750000 1.000000
vt 0.666667 0.000000
vt 0.833333 1.000000
vt 0.750000 0.000000
vt 0.916667 1.000000
vt 0.833333 0.000000
vt 1.000000 1.000000
vt 0.916667 0.000000
s 0
usemtl 
f 9/1/1 1/2/1 10/3/1
f 1/2/1 11/4/1 10/3/1
f 1/2/1 12/5/1 11/4/1
f 9/1/1 2/6/1 1/2/1
f 9/1/1 5/7/1 2/6/1
f 5/7/1 3/8/1 2/6/1
f 5/7/1 4/9/1 3/8/1
f 9/1/1 6/10/1 5/7/1
f 9/1/1 7/11/1 6/10/1
f 9/1/1 8/12/1 7/11/1
f 21/1/2 22/3/2 13/2/2
f 13/2/2 22/3/2 23/4/2
f 13/2/2 23/4/2 24/5/2
f 21/1/2 13/2/2 14/6/2
f 21/1/2 14/6/2 17/7/2
f 17/7/2 14/6/2 15/8/2
f 17/7/2 15/8/2 16/9/2
f 21/1/2 17/7/2 18/10/2
f 21/1/2 18/10/2 19/11/2
f 21/1/2 19/11/2 20/12/2
s 1
f 28/13/3 25/2/4 26/14/4
f 30/15/3 27/16/3 28/13/3
f 32/17/4 29/18/3 30/15/3
f 34/19/4 31/20/4 32/17/4
f 36/21/3 33/22/4 34/19/4
f 38/23/3 35/24/3 36/21/3
f 40/25/4 37/26/3 38/23/3
f 42/27/5 39/28/4 40/25/4
f 44/29/6 41/30/5 42/27/5
f 46/31/3 43/32/6 44/29/6
f 48/33/4 45/34/3 46/31/3
f 26/35/4 47/36/4 48/33/4
f 28/13/3 27/16/3 25/2/4
f 30/15/3 29/18/3 27/16/3
f 32/17/4 31/20/4 29/18/3
f 34/19/4 33/22/4 31/20/4
f 36/21/3 35/24/3 33/22/4
f 38/23/3 37/26/3 35/24/3
f 40/25/4 39/28/4 37/26/3
f 42/27/5 41/30/5 39/28/4
f 44/29/6 43/32/6 41/30/5
f 46/31/3 45/34/3 43/32/6
f 48/33/4 47/36/4 45/34/3
f 26/35/4 25/5/4 47/36/4
o Text.001
v -1.183389 -0.020000 -0.060000
v -0.756508 0.471474 -0.060000
v -0.756508 -0.020000 -0.060000
v -0.624508 -0.020000 -0.060000
v -0.624508 0.702000 -0.060000
v -0.731584 0.702000 -0.060000
v -1.164508 0.207229 -0.060000
v -1.164508 0.702000 -0.060000
v -1.296508 0.702000 -0.060000
v -1.296508 -0.020000 -0.060000
v -1.183389 -0.020000 0.060000
v -0.756508 0.471474 0.060000
v -0.756508 -0.020000 0.060000
v -0.624508 -0.020000 0.060000
v -0.624508 0.702000 0.060000
v -0.731584 0.702000 0.060000
v -1.164508 0.207229 0.060000
v -1.164508 0.702000 0.060000
v -1.296508 0.702000 0.060000
v -1.296508 -0.020000 0.060000
v -1.183389 -0.020000 0.060000
v -1.183389 -0.020000 -0.060000
v -0.756508 0.471474 0.060000
v -0.756508 0.471474 -0.060000
v -0.756508 -0.020000 0.060000
v -0.756508 -0.020000 -0.060000
v -0.624508 -0.020000 0.060000
v -0.624508 -0.020000 -0.060000
v -0.624508 0.702000 0.060000
v -0.624508 0.702000 -0.060000
v -0.731584 0.702000 0.060000
v -0.731584 0.702000 -0.060000
v -1.164508 0.207229 0.060000
v -1.164508 0.207229 -0.060000
v -1.164508 0.702000 0.060000
v -1.164508 0.702000 -0.060000
v -1.296508 0.702000 0.060000
v -1.296508 0.702000 -0.060000
v -1.296508 -0.020000 0.060000
v -1.296508 -0.020000 -0.060000
vn -0.0000 -0.0000 -1.0000
vn -0.0000 -0.0000 1.0000
vn -0.3500 -0.9367 -0.0000
vn 0.4149 -0.9099 -0.0000
vn -0.7071 -0.7071 -0.0000
vn -0.3500 -0.9368 -0.0000
vn 0.7071 -0.7071 -0.0000
vn 0.7071 0.7071 -0.0000
vn -0.4132 0.9106 -0.0000
vn 0.3517 0.9361 -0.0000
vn -0.7071 0.7071 -0.0000
vt 0.333333 0.000000
vt 0.555556 0.000000
vt 0.444444 0.000000
vt 0.111111 0.000000
vt 0.666667 0.000000
vt 0.888889 0.000000
vt 0.777778 0.000000
vt 1.000000 0.000000
vt 0.222222 0.000000
vt 0.000000 0.000000
vt 0.100000 1.000000
vt 0.000000 1.000000
vt 0.200000 1.000000
vt 0.100000 0.000000
vt 0.300000 1.000000
vt 0.200000 0.000000
vt 0.400000 1.000000
vt 0.300000 0.000000
vt 0.500000 1.000000
vt 0.400000 0.000000
vt 0.600000 1.000000
vt 0.500000 0.000000
vt 0.700000 1.000000
vt 0.600000 0.000000
vt 0.800000 1.000000
vt 0.700000 0.000000
vt 0.900000 1.000000
vt 0.800000 0.000000
vt 1.000000 1.000000
vt 0.900000 0.000000
s 0
usemtl 
f 52/37/7 54/38/7 53/39/7
f 52/37/7 50/40/7 54/38/7
f 50/40/7 55/41/7 54/38/7
f 55/41/7 57/42/7 56/43/7
f 55/41/7 58/44/7 57/42/7
f 52/37/7 51/45/7 50/40/7
f 49/46/7 55/41/7 50/40/7
f 49/46/7 58/44/7 55/41/7
f 62/37/8 63/39/8 64/38/8
f 62/37/8 64/38/8 60/40/8
f 60/40/8 64/38/8 65/41/8
f 65/41/8 66/43/8 67/42/8
f 65/41/8 67/42/8 68/44/8
f 62/37/8 60/40/8 61/45/8
f 59/46/8 60/40/8 65/41/8
f 59/46/8 65/41/8 68/44/8
s 1
f 72/47/9 69/46/10 70/48/10
f 74/49/11 71/50/12 72/47/9
f 76/51/13 73/52/11 74/49/11
f 78/53/14 75/54/13 76/51/13
f 80/55/15 77/56/14 78/53/14
f 82/57/16 79/58/15 80/55/15
f 84/59/14 81/60/16 82/57/16
f 86/61/17 83/62/14 84/59/14
f 88/63/11 85/64/17 86/61/17
f 70/65/10 87/66/11 88/63/11
f 72/47/9 71/50/12 69/46/10
f 74/49/11 73/52/11 71/50/12
f 76/51/13 75/54/13 73/52/11
f 78/53/14 77/56/14 75/54/13
f 80/55/15 79/58/15 77/56/14
f 82/57/16 81/60/16 79/58/15
f 84/59/14 83/62/14 81/60/16
f 86/61/17 85/64/17 83/62/14
f 88/63/11 87/66/11 85/64/17
f 70/65/10 69/44/10 87/66/11
o Text.002
v -1.789406 0.574000 -0.060000
v -1.789406 -0.020000 -0.060000
v -1.651406 -0.020000 -0.060000
v -1.651406 0.574000 -0.060000
v -1.415406 0.574000 -0.060000
v -1.415406 0.702000 -0.060000
v -2.025406 0.702000 -0.060000
v -2.025406 0.574000 -0.060000
v -1.789406 0.574000 0.060000
v -1.789406 -0.020000 0.060000
v -1.651406 -0.020000 0.060000
v -1.651406 0.574000 0.060000
v -1.415406 0.574000 0.060000
v -1.415406 0.702000 0.060000
v -2.025406 0.702000 0.060000
v -2.025406 0.574000 0.060000
v -1.789406 0.574000 0.060000
v -1.789406 0.574000 -0.060000
v -1.789406 -0.020000 0.060000
v -1.789406 -0.020000 -0.060000
v -1.651406 -0.020000 0.060000
v -1.651406 -0.020000 -0.060000
v -1.651406 0.574000 0.060000
v -1.651406 0.574000 -0.060000
v -1.415406 0.574000 0.060000
v -1.415406 0.574000 -0.060000
v -1.415406 0.702000 0.060000
v -1.415406 0.702000 -0.060000
v -2.025406 0.702000 0.060000
v -2.025406 0.702000 -0.060000
v -2.025406 0.574000 0.060000
v -2.025406 0.574000 -0.060000
vn -0.0000 -0.0000 -1.0000
vn -0.0000 -0.0000 1.0000
vn -0.7071 -0.7071 -0.0000
vn 0.7071 -0.7071 -0.0000
vn 0.7071 0.7071 -0.0000
vn -0.7071 0.7071 -0.0000
vt 0.571429 0.000000
vt 0.857143 0.000000
vt 0.714286 0.000000
vt 1.000000 0.000000
vt 0.428571 0.000000
vt 0.285714 0.000000
vt 0.000000 0.000000
vt 0.142857 0.000000
vt 0.125000 1.000000
vt 0.000000 1.000000
vt 0.250000 1.000000
vt 0.125000 0.000000
vt 0.375000 1.000000
vt 0.250000 0.000000
vt 0.500000 1.000000
vt 0.375000 0.000000
vt 0.625000 1.000000
vt 0.500000 0.000000
vt 0.750000 1.000000
vt 0.625000 0.000000
vt 0.875000 1.000000
vt 0.750000 0.000000
vt 1.000000 1.000000
vt 0.875000 0.000000
s 0
usemtl 
f 93/67/18 95/68/18 94/69/18
f 93/67/18 96/70/18 95/68/18
f 92/71/19 96/70/19 93/67/19
f 91/72/18 89/73/18 92/71/18
f 89/73/18 96/70/18 92/71/18
f 91/72/18 90/74/18 89/73/18
f 101/67/19 102/69/19 103/68/19
f 101/67/19 103/68/19 104/70/19
f 100/71/18 101/67/18 104/70/18
f 99/72/19 100/71/19 97/73/19
f 97/73/18 100/71/18 104/70/18
f 99/72/19 97/73/19 98/74/19
s 1
f 108/75/20 105/73/20 106/76/20
f 110/77/21 107/78/20 108/75/20
f 112/79/21 109/80/21 110/77/21
f 114/81/21 111/82/21 112/79/21
f 116/83/22 113/84/21 114/81/21
f 118/85/23 115/86/22 116/83/22
f 120/87/20 117/88/23 118/85/23
f 106/89/20 119/90/20 120/87/20
f 108/75/20 107/78/20 105/73/20
f 110/77/21 109/80/21 107/78/20
f 112/79/21 111/82/21 109/80/21
f 114/81/21 113/84/21 111/82/21
f 116/83/22 115/86/22 113/84/21
f 118/85/23 117/88/23 115/86/22
f 120/87/20 119/90/20 117/88/23
f 106/89/20 105/70/20 119/90/20
o Text.003
v -2.306393 0.574000 -0.060000
v -2.306393 0.408000 -0.060000
v -2.585393 0.408000 -0.060000
v -2.585393 0.280000 -0.060000
v -2.306393 0.280000 -0.060000
v -2.306393 0.108000 -0.060000
v -2.604393 0.108000 -0.060000
v -2.604393 -0.020000 -0.060000
v -2.168393 -0.020000 -0.060000
v -2.168393 0.702000 -0.060000
v -2.595393 0.702000 -0.060000
v -2.595393 0.574000 -0.060000
v -2.306393 0.574000 0.060000
v -2.306393 0.408000 0.060000
v -2.585393 0.408000 0.060000
v -2.585393 0.280000 0.060000
v -2.306393 0.280000 0.060000
v -2.306393 0.108000 0.060000
v -2.604393 0.108000 0.060000
v -2.604393 -0.020000 0.060000
v -2.168393 -0.020000 0.060000
v -2.168393 0.702000 0.060000
v -2.595393 0.702000 0.060000
v -2.595393 0.574000 0.060000
v -2.306393 0.574000 0.060000
v -2.306393 0.574000 -0.060000
v -2.306393 0.408000 0.060000
v -2.306393 0.408000 -0.060000
v -2.585393 0.408000 0.060000
v -2.585393 0.408000 -0.060000
v -2.585393 0.280000 0.060000
v -2.585393 0.280000 -0.060000
v -2.306393 0.280000 0.060000
v -2.306393 0.280000 -0.060000
v -2.306393 0.108000 0.060000
v -2.306393 0.108000 -0.060000
v -2.604393 0.108000 0.060000
v -2.604393 0.108000 -0.060000
v -2.604393 -0.020000 0.060000
v -2.604393 -0.020000 -0.060000
v -2.168393 -0.020000 0.060000
v -2.168393 -0.020000 -0.060000
v -2.168393 0.702000 0.060000
v -2.168393 0.702000 -0.060000
v -2.595393 0.702000 0.060000
v -2.595393 0.702000 -0.060000
v -2.595393 0.574000 0.060000
v -2.595393 0.574000 -0.060000
vn -0.0000 -0.0000 -1.0000
vn -0.0000 -0.0000 1.0000
vn -0.7071 0.7071 -0.0000
vn -0.7071 -0.7071 -0.0000
vn 0.7071 -0.7071 -0.0000
vn 0.7071 0.7071 -0.0000
vt 0.727273 0.000000
vt 0.000000 0.000000
vt 0.818182 0.000000
vt 0.909091 0.000000
vt 1.000000 0.000000
vt 0.090909 0.000000
vt 0.363636 0.000000
vt 0.181818 0.000000
vt 0.272727 0.000000
vt 0.454545 0.000000
vt 0.545455 0.000000
vt 0.636364 0.000000
vt 0.083333 1.000000
vt 0.000000 1.000000
vt 0.166667 1.000000
vt 0.083333 0.000000
vt 0.250000 1.000000
vt 0.166667 0.000000
vt 0.333333 1.000000
vt 0.250000 0.000000
vt 0.416667 1.000000
vt 0.333333 0.000000
vt 0.500000 1.000000
vt 0.416667 0.000000
vt 0.583333 1.000000
vt 0.500000 0.000000
vt 0.666667 1.000000
vt 0.583333 0.000000
vt 0.750000 1.000000
vt 0.666667 0.000000
vt 0.833333 1.000000
vt 0.750000 0.000000
vt 0.916667 1.000000
vt 0.833333 0.000000
vt 1.000000 1.000000
vt 0.916667 0.000000
s 0
usemtl 
f 129/91/24 121/92/24 130/93/24
f 121/92/24 131/94/24 130/93/24
f 121/92/24 132/95/24 131/94/24
f 129/91/24 122/96/24 121/92/24
f 129/91/24 125/97/24 122/96/24
f 125/97/24 123/98/24 122/96/24
f 125/97/24 124/99/24 123/98/24
f 129/91/24 126/100/24 125/97/24
f 129/91/24 127/101/24 126/100/24
f 129/91/24 128/102/24 127/101/24
f 141/91/25 142/93/25 133/92/25
f 133/92/25 142/93/25 143/94/25
f 133/92/25 143/94/25 144/95/25
f 141/91/25 133/92/25 134/96/25
f 141/91/25 134/96/25 137/97/25
f 137/97/25 134/96/25 135/98/25
f 137/97/25 135/98/25 136/99/25
f 141/91/25 137/97/25 138/100/25
f 141/91/25 138/100/25 139/101/25
f 141/91/25 139/101/25 140/102/25
s 1
f 148/103/26 145/92/27 146/104/27
f 150/105/26 147/106/26 148/103/26
f 152/107/27 149/108/26 150/105/26
f 154/109/27 151/110/27 152/107/27
f 156/111/26 153/112/27 154/109/27
f 158/113/26 155/114/26 156/111/26
f 160/115/27 157/116/26 158/113/26
f 162/117/28 159/118/27 160/115/27
f 164/119/29 161/120/28 162/117/28
f 166/121/26 163/122/29 164/119/29
f 168/123/27 165/124/26 166/121/26
f 146/125/27 167/126/27 168/123/27
f 148/103/26 147/106/26 145/92/27
f 150/105/26 149/108/26 147/106/26
f 152/107/27 151/110/27 149/108/26
f 154/109/27 153/112/27 151/110/27
f 156/111/26 155/114/26 153/112/27
f 158/113/26 157/116/26 155/114/26
f 160/115/27 159/118/27 157/116/26
f 162/117/28 161/120/28 159/118/27
f 164/119/29 163/122/29 161/120/28
f 166/121/26 165/124/26 163/122/29
f 168/123/27 167/126/27 165/124/26
f 146/125/27 145/95/27 167/126/27
o Text.004
v -2.985689 0.700431 -0.060000
v -3.018821 0.695694 -0.060000
v -3.049706 0.687844 -0.060000
v -3.078192 0.676917 -0.060000
v -3.104092 0.662950 -0.060000
v -3.127188 0.646006 -0.060000
v -3.147233 0.626191 -0.060000
v -3.163979 0.603667 -0.060000
v -3.177208 0.578651 -0.060000
v -3.186760 0.551387 -0.060000
v -3.192529 0.522111 -0.060000
v -3.194449 0.491181 -0.060000
v -3.193513 0.469874 -0.060000
v -3.190731 0.449537 -0.060000
v -3.186098 0.430042 -0.060000
v -3.179631 0.411467 -0.060000
v -3.171356 0.393898 -0.060000
v -3.161315 0.377423 -0.060000
v -3.149568 0.362126 -0.060000
v -3.136185 0.348081 -0.060000
v -3.121243 0.335348 -0.060000
v -3.104820 0.323971 -0.060000
v -3.086993 0.313982 -0.060000
v -3.100468 0.320015 -0.060000
v -3.087610 0.329181 -0.060000
v -3.102787 0.316715 -0.060000
v -3.117099 0.303338 -0.060000
v -3.130669 0.289085 -0.060000
v -3.143632 0.273986 -0.060000
v -3.156130 0.258061 -0.060000
v -3.168308 0.241324 -0.060000
v -3.180312 0.223779 -0.060000
v -3.192287 0.205426 -0.060000
v -3.204378 0.186258 -0.060000
v -3.216728 0.166269 -0.060000
v -3.229441 0.145505 -0.060000
v -3.236382 0.134351 -0.060000
v -3.242955 0.123987 -0.060000
v -3.249310 0.114177 -0.060000
v -3.255598 0.104682 -0.060000
v -3.261973 0.095260 -0.060000
v -3.268589 0.085674 -0.060000
v -3.275597 0.075686 -0.060000
v -3.283144 0.065065 -0.060000
v -3.291378 0.053583 -0.060000
v -3.300442 0.041014 -0.060000
v -3.310479 0.027134 -0.060000
v -3.344573 -0.020000 -0.060000
v -3.177503 -0.020000 -0.060000
v -3.081673 0.129070 -0.060000
v -3.060416 0.161162 -0.060000
v -3.041174 0.188244 -0.060000
v -3.023718 0.210770 -0.060000
v -3.007904 0.229093 -0.060000
v -2.993601 0.243584 -0.060000
v -2.980687 0.254646 -0.060000
v -2.969015 0.262739 -0.060000
v -2.958354 0.268387 -0.060000
v -2.948338 0.272130 -0.060000
v -2.938479 0.274437 -0.060000
v -2.928272 0.275642 -0.060000
v -2.917102 0.276000 -0.060000
v -2.896422 0.276000 -0.060000
v -2.896422 -0.020000 -0.060000
v -2.758422 -0.020000 -0.060000
v -2.758422 0.702000 -0.060000
v -2.950872 0.702000 -0.060000
v -2.938979 0.404000 -0.060000
v -2.962245 0.405031 -0.060000
v -2.981834 0.407886 -0.060000
v -2.998332 0.412302 -0.060000
v -3.011969 0.417992 -0.060000
v -3.023052 0.424707 -0.060000
v -3.031948 0.432281 -0.060000
v -3.039013 0.440660 -0.060000
v -3.044525 0.449868 -0.060000
v -3.048651 0.459937 -0.060000
v -3.051474 0.470841 -0.060000
v -3.053041 0.482478 -0.060000
v -3.053402 0.494631 -0.060000
v -3.052511 0.507989 -0.060000
v -3.050318 0.519918 -0.060000
v -3.046880 0.530446 -0.060000
v -3.042225 0.539684 -0.060000
v -3.036290 0.547818 -0.060000
v -3.028882 0.555038 -0.060000
v -3.019710 0.561444 -0.060000
v -3.008476 0.567007 -0.060000
v -2.994946 0.571602 -0.060000
v -2.978972 0.575064 -0.060000
v -2.960471 0.577237 -0.060000
v -2.939066 0.578000 -0.060000
v -2.896422 0.578000 -0.060000
v -2.896422 0.404000 -0.060000
v -2.985689 0.700431 0.060000
v -3.018821 0.695694 0.060000
v -3.049706 0.687844 0.060000
v -3.078192 0.676917 0.060000
v -3.104092 0.662950 0.060000
v -3.127188 0.646006 0.060000
v -3.147233 0.626191 0.060000
v -3.163979 0.603667 0.060000
v -3.177208 0.578651 0.060000
v -3.186760 0.551387 0.060000
v -3.192529 0.522111 0.060000
v -3.194449 0.491181 0.060000
v -3.193513 0.469874 0.060000
v -3.190731 0.449537 0.060000
v -3.186098 0.430042 0.060000
v -3.179631 0.411467 0.060000
v -3.171356 0.393898 0.060000
v -3.161315 0.377423 0.060000
v -3.149568 0.362126 0.060000
v -3.136185 0.348081 0.060000
v -3.121243 0.335348 0.060000
v -3.104820 0.323971 0.060000
v -3.086993 0.313982 0.060000
v -3.100468 0.320015 0.060000
v -3.087610 0.329181 0.060000
v -3.102787 0.316715 0.060000
v -3.117099 0.303338 0.060000
v -3.130669 0.289085 0.060000
v -3.143632 0.273986 0.060000
v -3.156130 0.258061 0.060000
v -3.168308 0.241324 0.060000
v -3.180312 0.223779 0.060000
v -3.192287 0.205426 0.060000
v -3.204378 0.186258 0.060000
v -3.216728 0.166269 0.060000
v -3.229441 0.145505 0.060000
v -3.236382 0.134351 0.060000
v -3.242955 0.123987 0.060000
v -3.249310 0.114177 0.060000
v -3.255598 0.104682 0.060000
v -3.261973 0.095260 0.060000
v -3.268589 0.085674 0.060000
v -3.275597 0.075686 0.060000
v -3.283144 0.065065 0.060000
v -3.291378 0.053583 0.060000
v -3.300442 0.041014 0.060000
v -3.310479 0.027134 0.060000
v -3.344573 -0.020000 0.060000
v -3.177503 -0.020000 0.060000
v -3.081673 0.129070 0.060000
v -3.060416 0.161162 0.060000
v -3.041174 0.188244 0.060000
v -3.023718 0.210770 0.060000
v -3.007904 0.229093 0.060000
v -2.993601 0.243584 0.060000
v -2.980687 0.254646 0.060000
v -2.969015 0.262739 0.060000
v -2.958354 0.268387 0.060000
v -2.948338 0.272130 0.060000
v -2.938479 0.274437 0.060000
v -2.928272 0.275642 0.060000
v -2.917102 0.276000 0.060000
v -2.896422 0.276000 0.060000
v -2.896422 -0.020000 0.060000
v -2.758422 -0.020000 0.060000
v -2.758422 0.702000 0.060000
v -2.950872 0.702000 0.060000
v -2.938979 0.404000 0.060000
v -2.962245 0.405031 0.060000
v -2.981834 0.407886 0.060000
v -2.998332 0.412302 0.060000
v -3.011969 0.417992 0.060000
v -3.023052 0.424707 0.060000
v -3.031948 0.432281 0.060000
v -3.039013 0.440660 0.060000
v -3.044525 0.449868 0.060000
v -3.048651 0.459937 0.060000
v -3.051474 0.470841 0.060000
v -3.053041 0.482478 0.060000
v -3.053402 0.494631 0.060000
v -3.052511 0.507989 0.060000
v -3.050318 0.519918 0.060000
v -3.046880 0.530446 0.060000
v -3.042225 0.539684 0.060000
v -3.036290 0.547818 0.060000
v -3.028882 0.555038 0.060000
v -3.019710 0.561444 0.060000
v -3.008476 0.567007 0.060000
v -2.994946 0.571602 0.060000
v -2.978972 0.575064 0.060000
v -2.960471 0.577237 0.060000
v -2.939066 0.578000 0.060000
v -2.896422 0.578000 0.060000
v -2.896422 0.404000 0.060000
v -2.985689 0.700431 0.060000
v -2.985689 0.700431 -0.060000
v -3.018821 0.695694 0.060000
v -3.018821 0.695694 -0.060000
v -3.049706 0.687844 0.060000
v -3.049706 0.687844 -0.060000
v -3.078192 0.676917 0.060000
v -3.078192 0.676917 -0.060000
v -3.104092 0.662950 0.060000
v -3.104092 0.662950 -0.060000
v -3.127188 0.646006 0.060000
v -3.127188 0.646006 -0.060000
v -3.147233 0.626191 0.060000
v -3.147233 0.626191 -0.060000
v -3.163979 0.603667 0.060000
v -3.163979 0.603667 -0.060000
v -3.177208 0.578651 0.060000
v -3.177208 0.578651 -0.060000
v -3.186760 0.551387 0.060000
v -3.186760 0.551387 -0.060000
v -3.192529 0.522111 0.060000
v -3.192529 0.522111 -0.060000
v -3.194449 0.491181 0.060000
v -3.194449 0.491181 -0.060000
v -3.193513 0.469874 0.060000
v -3.193513 0.469874 -0.060000
v -3.190731 0.449537 0.060000
v -3.190731 0.449537 -0.060000
v -3.186098 0.430042 0.060000
v -3.186098 0.430042 -0.060000
v -3.179631 0.411467 0.060000
v -3.179631 0.411467 -0.060000
v -3.171356 0.393898 0.060000
v -3.171356 0.393898 -0.060000
v -3.161315 0.377423 0.060000
v -3.161315 0.377423 -0.060000
v -3.149568 0.362126 0.060000
v -3.149568 0.362126 -0.060000
v -3.136185 0.348081 0.060000
v -3.136185 0.348081 -0.060000
v -3.121243 0.335348 0.060000
v -3.121243 0.335348 -0.060000
v -3.104820 0.323971 0.060000
v -3.104820 0.323971 -0.060000
v -3.086993 0.313982 0.060000
v -3.086993 0.313982 -0.060000
v -3.100468 0.320015 0.060000
v -3.100468 0.320015 -0.060000
v -3.087610 0.329181 0.060000
v -3.087610 0.329181 -0.060000
v -3.102787 0.316715 0.060000
v -3.102787 0.316715 -0.060000
v -3.117099 0.303338 0.060000
v -3.117099 0.303338 -0.060000
v -3.130669 0.289085 0.060000
v -3.130669 0.289085 -0.060000
v -3.143632 0.273986 0.060000
v -3.143632 0.273986 -0.060000
v -3.156130 0.258061 0.060000
v -3.156130 0.258061 -0.060000
v -3.168308 0.241324 0.060000
v -3.168308 0.241324 -0.060000
v -3.180312 0.223779 0.060000
v -3.180312 0.223779 -0.060000
v -3.192287 0.205426 0.060000
v -3.192287 0.205426 -0.060000
v -3.204378 0.186258 0.060000
v -3.204378 0.186258 -0.060000
v -3.216728 0.166269 0.060000
v -3.216728 0.166269 -0.060000
v -3.229441 0.145505 0.060000
v -3.229441 0.145505 -0.060000
v -3.236382 0.134351 0.060000
v -3.236382 0.134351 -0.060000
v -3.242955 0.123987 0.060000
v -3.242955 0.123987 -0.060000
v -3.249310 0.114177 0.060000
v -3.249310 0.114177 -0.060000
v -3.255598 0.104682 0.060000
v -3.255598 0.104682 -0.060000
v -3.261973 0.095260 0.060000
v -3.261973 0.095260 -0.060000
v -3.268589 0.085674 0.060000
v -3.268589 0.085674 -0.060000
v -3.275597 0.075686 0.060000
v -3.275597 0.075686 -0.060000
v -3.283144 0.065065 0.060000
v -3.283144 0.065065 -0.060000
v -3.291378 0.053583 0.060000
v -3.291378 0.053583 -0.060000
v -3.300442 0.041014 0.060000
v -3.300442 0.041014 -0.060000
v -3.310479 0.027134 0.060000
v -3.310479 0.027134 -0.060000
v -3.344573 -0.020000 0.060000
v -3.344573 -0.020000 -0.060000
v -3.177503 -0.020000 0.060000
v -3.177503 -0.020000 -0.060000
v -3.081673 0.129070 0.060000
v -3.081673 0.129070 -0.060000
v -3.060416 0.161162 0.060000
v -3.060416 0.161162 -0.060000
v -3.041174 0.188244 0.060000
v -3.041174 0.188244 -0.060000
v -3.023718 0.210770 0.060000
v -3.023718 0.210770 -0.060000
v -3.007904 0.229093 0.060000
v -3.007904 0.229093 -0.060000
v -2.993601 0.243584 0.060000
v -2.993601 0.243584 -0.060000
v -2.980687 0.254646 0.060000
v -2.980687 0.254646 -0.060000
v -2.969015 0.262739 0.060000
v -2.969015 0.262739 -0.060000
v -2.958354 0.268387 0.060000
v -2.958354 0.268387 -0.060000
v -2.948338 0.272130 0.060000
v -2.948338 0.272130 -0.060000
v -2.938479 0.274437 0.060000
v -2.938479 0.274437 -0.060000
v -2.928272 0.275642 0.060000
v -2.928272 0.275642 -0.060000
v -2.917102 0.276000 0.060000
v -2.917102 0.276000 -0.060000
v -2.896422 0.276000 0.060000
v -2.896422 0.276000 -0.060000
v -2.896422 -0.020000 0.060000
v -2.896422 -0.020000 -0.060000
v -2.758422 -0.020000 0.060000
v -2.758422 -0.020000 -0.060000
v -2.758422 0.702000 0.060000
v -2.758422 0.702000 -0.060000
v -2.950872 0.702000 0.060000
v -2.950872 0.702000 -0.060000
v -2.938979 0.404000 0.060000
v -2.938979 0.404000 -0.060000
v -2.962245 0.405031 0.060000
v -2.962245 0.405031 -0.060000
v -2.981834 0.407886 0.060000
v -2.981834 0.407886 -0.060000
v -2.998332 0.412302 0.060000
v -2.998332 0.412302 -0.060000
v -3.011969 0.417992 0.060000
v -3.011969 0.417992 -0.060000
v -3.023052 0.424707 0.060000
v -3.023052 0.424707 -0.060000
v -3.031948 0.432281 0.060000
v -3.031948 0.432281 -0.060000
v -3.039013 0.440660 0.060000
v -3.039013 0.440660 -0.060000
v -3.044525 0.449868 0.060000
v -3.044525 0.449868 -0.060000
v -3.048651 0.459937 0.060000
v -3.048651 0.459937 -0.060000
v -3.051474 0.470841 0.060000
v -3.051474 0.470841 -0.060000
v -3.053041 0.482478 0.060000
v -3.053041 0.482478 -0.060000
v -3.053402 0.494631 0.060000
v -3.053402 0.494631 -0.060000
v -3.052511 0.507989 0.060000
v -3.052511 0.507989 -0.060000
v -3.050318 0.519918 0.060000
v -3.050318 0.519918 -0.060000
v -3.046880 0.530446 0.060000
v -3.046880 0.530446 -0.060000
v -3.042225 0.539684 0.060000
v -3.042225 0.539684 -0.060000
v -3.036290 0.547818 0.060000
v -3.036290 0.547818 -0.060000
v -3.028882 0.555038 0.060000
v -3.028882 0.555038 -0.060000
v -3.019710 0.561444 0.060000
v -3.019710 0.561444 -0.060000
v -3.008476 0.567007 0.060000
v -3.008476 0.567007 -0.060000
v -2.994946 0.571602 0.060000
v -2.994946 0.571602 -0.060000
v -2.978972 0.575064 0.060000
v -2.978972 0.575064 -0.060000
v -2.960471 0.577237 0.060000
v -2.960471 0.577237 -0.060000
v -2.939066 0.578000 0.060000
v -2.939066 0.578000 -0.060000
v -2.896422 0.578000 0.060000
v -2.896422 0.578000 -0.060000
v -2.896422 0.404000 0.060000
v -2.896422 0.404000 -0.060000
vn -0.0000 -0.0000 -1.0000
vn -0.0000 -0.0000 1.0000
vn -0.1942 0.9810 -0.0000
vn -0.0934 0.9956 -0.0000
vn -0.3028 0.9531 -0.0000
vn -0.4173 0.9088 -0.0000
vn -0.5344 0.8453 -0.0000
vn -0.6490 0.7608 -0.0000
vn -0.7549 0.6558 -0.0000
vn -0.8457 0.5336 -0.0000
vn -0.9164 0.4002 -0.0000
vn -0.9649 0.2627 -0.0000
vn -0.9918 0.1279 -0.0000
vn -1.0000 0.0090 -0.0000
vn -0.9960 -0.0898 -0.0000
vn -0.9830 -0.1836 -0.0000
vn -0.9599 -0.2804 -0.0000
vn -0.9258 -0.3780 -0.0000
vn -0.8806 -0.4739 -0.0000
vn -0.8247 -0.5655 -0.0000
vn -0.7596 -0.6504 -0.0000
vn -0.6872 -0.7265 -0.0000
vn -0.6098 -0.7926 -0.0000
vn -0.5297 -0.8482 -0.0000
vn -0.8934 0.4493 -0.0000
vn 0.9951 0.0990 -0.0000
vn -0.8934 0.4492 -0.0000
vn -0.7940 -0.6080 -0.0000
vn -0.6591 0.7520 -0.0000
vn -0.7939 -0.6080 -0.0000
vn -0.7038 0.7104 -0.0000
vn -0.7417 0.6707 -0.0000
vn -0.7729 0.6345 -0.0000
vn -0.7978 0.6030 -0.0000
vn -0.8171 0.5766 -0.0000
vn -0.8315 0.5556 -0.0000
vn -0.8417 0.5400 -0.0000
vn -0.8483 0.5296 -0.0000
vn -0.8518 0.5239 -0.0000
vn -0.8509 0.5253 -0.0000
vn -0.8468 0.5320 -0.0000
vn -0.8419 0.5396 -0.0000
vn -0.8365 0.5479 -0.0000
vn -0.8310 0.5563 -0.0000
vn -0.8256 0.5642 -0.0000
vn -0.8208 0.5712 -0.0000
vn -0.8169 0.5768 -0.0000
vn -0.8139 0.5810 -0.0000
vn -0.8119 0.5838 -0.0000
vn -0.8107 0.5854 -0.0000
vn -0.8103 0.5860 -0.0000
vn -0.8905 -0.4550 -0.0000
vn 0.4792 -0.8777 -0.0000
vn -0.8905 -0.4549 -0.0000
vn 0.8375 -0.5465 -0.0000
vn 0.8246 -0.5658 -0.0000
vn 0.8030 -0.5960 -0.0000
vn 0.7740 -0.6332 -0.0000
vn 0.7348 -0.6783 -0.0000
vn 0.6817 -0.7316 -0.0000
vn 0.6110 -0.7917 -0.0000
vn 0.5199 -0.8542 -0.0000
vn 0.4100 -0.9121 -0.0000
vn 0.2895 -0.9572 -0.0000
vn 0.1728 -0.9850 -0.0000
vn 0.0747 -0.9972 -0.0000
vn 0.0160 -0.9999 -0.0000
vn -0.7071 -0.7071 -0.0000
vn 0.7071 -0.7071 -0.0000
vn 0.7071 0.7071 -0.0000
vn -0.0225 0.9997 -0.0000
vn 0.0944 0.9955 -0.0000
vn 0.0221 0.9998 -0.0000
vn 0.2017 0.9794 -0.0000
vn 0.3225 0.9466 -0.0000
vn 0.4529 0.8916 -0.0000
vn 0.5851 0.8110 -0.0000
vn 0.7088 0.7054 -0.0000
vn 0.8139 0.5810 -0.0000
vn 0.8942 0.4477 -0.0000
vn 0.9489 0.3156 -0.0000
vn 0.9813 0.1924 -0.0000
vn 0.9967 0.0817 -0.0000
vn 0.9998 -0.0184 -0.0000
vn 0.9923 -0.1239 -0.0000
vn 0.9692 -0.2462 -0.0000
vn 0.9245 -0.3813 -0.0000
vn 0.8533 -0.5215 -0.0000
vn 0.7555 -0.6551 -0.0000
vn 0.6374 -0.7705 -0.0000
vn 0.5096 -0.8604 -0.0000
vn 0.3835 -0.9235 -0.0000
vn 0.2671 -0.9637 -0.0000
vn 0.1644 -0.9864 -0.0000
vn 0.0762 -0.9971 -0.0000
vn 0.0178 -0.9998 -0.0000
vn -0.7071 0.7071 -0.0000
vt 0.688172 0.000000
vt 0.989247 0.000000
vt 0.698925 0.000000
vt 0.709677 0.000000
vt 0.000000 0.000000
vt 0.010753 0.000000
vt 0.021505 0.000000
vt 0.032258 0.000000
vt 0.043011 0.000000
vt 0.053763 0.000000
vt 0.064516 0.000000
vt 0.075269 0.000000
vt 0.086022 0.000000
vt 0.978495 0.000000
vt 0.967742 0.000000
vt 0.096774 0.000000
vt 1.000000 0.000000
vt 0.956989 0.000000
vt 0.946237 0.000000
vt 0.935484 0.000000
vt 0.924731 0.000000
vt 0.913979 0.000000
vt 0.903226 0.000000
vt 0.107527 0.000000
vt 0.892473 0.000000
vt 0.881720 0.000000
vt 0.870968 0.000000
vt 0.118280 0.000000
vt 0.860215 0.000000
vt 0.849462 0.000000
vt 0.838710 0.000000
vt 0.129032 0.000000
vt 0.827957 0.000000
vt 0.817204 0.000000
vt 0.139785 0.000000
vt 0.806452 0.000000
vt 0.795699 0.000000
vt 0.150538 0.000000
vt 0.784946 0.000000
vt 0.774194 0.000000
vt 0.161290 0.000000
vt 0.763441 0.000000
vt 0.752688 0.000000
vt 0.741935 0.000000
vt 0.172043 0.000000
vt 0.731183 0.000000
vt 0.720430 0.000000
vt 0.666667 0.000000
vt 0.182796 0.000000
vt 0.193548 0.000000
vt 0.204301 0.000000
vt 0.258065 0.000000
vt 0.215054 0.000000
vt 0.225806 0.000000
vt 0.236559 0.000000
vt 0.268817 0.000000
vt 0.247312 0.000000
vt 0.279570 0.000000
vt 0.290323 0.000000
vt 0.655914 0.000000
vt 0.301075 0.000000
vt 0.677419 0.000000
vt 0.645161 0.000000
vt 0.634409 0.000000
vt 0.623656 0.000000
vt 0.311828 0.000000
vt 0.612903 0.000000
vt 0.602151 0.000000
vt 0.591398 0.000000
vt 0.322581 0.000000
vt 0.580645 0.000000
vt 0.569892 0.000000
vt 0.333333 0.000000
vt 0.559140 0.000000
vt 0.344086 0.000000
vt 0.548387 0.000000
vt 0.354839 0.000000
vt 0.537634 0.000000
vt 0.365591 0.000000
vt 0.376344 0.000000
vt 0.526882 0.000000
vt 0.387097 0.000000
vt 0.397849 0.000000
vt 0.516129 0.000000
vt 0.408602 0.000000
vt 0.419355 0.000000
vt 0.430108 0.000000
vt 0.440860 0.000000
vt 0.451613 0.000000
vt 0.462366 0.000000
vt 0.473118 0.000000
vt 0.483871 0.000000
vt 0.494624 0.000000
vt 0.505376 0.000000
vt 0.014925 1.000000
vt 0.000000 1.000000
vt 0.029851 1.000000
vt 0.014925 0.000000
vt 0.044776 1.000000
vt 0.029851 0.000000
vt 0.059701 1.000000
vt 0.044776 0.000000
vt 0.074627 1.000000
vt 0.059701 0.000000
vt 0.089552 1.000000
vt 0.074627 0.000000
vt 0.104478 1.000000
vt 0.089552 0.000000
vt 0.119403 1.000000
vt 0.104478 0.000000
vt 0.134328 1.000000
vt 0.119403 0.000000
vt 0.149254 1.000000
vt 0.134328 0.000000
vt 0.164179 1.000000
vt 0.149254 0.000000
vt 0.179104 1.000000
vt 0.164179 0.000000
vt 0.194030 1.000000
vt 0.179104 0.000000
vt 0.208955 1.000000
vt 0.194030 0.000000
vt 0.223881 1.000000
vt 0.208955 0.000000
vt 0.238806 1.000000
vt 0.223881 0.000000
vt 0.253731 1.000000
vt 0.238806 0.000000
vt 0.268657 1.000000
vt 0.253731 0.000000
vt 0.283582 1.000000
vt 0.268657 0.000000
vt 0.298507 1.000000
vt 0.283582 0.000000
vt 0.313433 1.000000
vt 0.298507 0.000000
vt 0.328358 1.000000
vt 0.313433 0.000000
vt 0.343284 1.000000
vt 0.328358 0.000000
vt 0.358209 1.000000
vt 0.343284 0.000000
vt 0.373134 1.000000
vt 0.358209 0.000000
vt 0.388060 1.000000
vt 0.373134 0.000000
vt 0.402985 1.000000
vt 0.388060 0.000000
vt 0.417910 1.000000
vt 0.402985 0.000000
vt 0.432836 1.000000
vt 0.417910 0.000000
vt 0.447761 1.000000
vt 0.432836 0.000000
vt 0.462687 1.000000
vt 0.447761 0.000000
vt 0.477612 1.000000
vt 0.462687 0.000000
vt 0.492537 1.000000
vt 0.477612 0.000000
vt 0.507463 1.000000
vt 0.492537 0.000000
vt 0.522388 1.000000
vt 0.507463 0.000000
vt 0.537313 1.000000
vt 0.522388 0.000000
vt 0.552239 1.000000
vt 0.537313 0.000000
vt 0.567164 1.000000
vt 0.552239 0.000000
vt 0.582090 1.000000
vt 0.567164 0.000000
vt 0.597015 1.000000
vt 0.582090 0.000000
vt 0.611940 1.000000
vt 0.597015 0.000000
vt 0.626866 1.000000
vt 0.611940 0.000000
vt 0.641791 1.000000
vt 0.626866 0.000000
vt 0.656716 1.000000
vt 0.641791 0.000000
vt 0.671642 1.000000
vt 0.656716 0.000000
vt 0.686567 1.000000
vt 0.671642 0.000000
vt 0.701493 1.000000
vt 0.686567 0.000000
vt 0.716418 1.000000
vt 0.701493 0.000000
vt 0.731343 1.000000
vt 0.716418 0.000000
vt 0.746269 1.000000
vt 0.731343 0.000000
vt 0.761194 1.000000
vt 0.746269 0.000000
vt 0.776119 1.000000
vt 0.761194 0.000000
vt 0.791045 1.000000
vt 0.776119 0.000000
vt 0.805970 1.000000
vt 0.791045 0.000000
vt 0.820895 1.000000
vt 0.805970 0.000000
vt 0.835821 1.000000
vt 0.820895 0.000000
vt 0.850746 1.000000
vt 0.835821 0.000000
vt 0.865672 1.000000
vt 0.850746 0.000000
vt 0.880597 1.000000
vt 0.865672 0.000000
vt 0.895522 1.000000
vt 0.880597 0.000000
vt 0.910448 1.000000
vt 0.895522 0.000000
vt 0.925373 1.000000
vt 0.910448 0.000000
vt 0.940298 1.000000
vt 0.925373 0.000000
vt 0.955224 1.000000
vt 0.940298 0.000000
vt 0.970149 1.000000
vt 0.955224 0.000000
vt 0.985075 1.000000
vt 0.970149 0.000000
vt 1.000000 1.000000
vt 0.985075 0.000000
vt 0.037037 1.000000
vt 0.074074 1.000000
vt 0.037037 0.000000
vt 0.111111 1.000000
vt 0.074074 0.000000
vt 0.148148 1.000000
vt 0.111111 0.000000
vt 0.185185 1.000000
vt 0.148148 0.000000
vt 0.222222 1.000000
vt 0.185185 0.000000
vt 0.259259 1.000000
vt 0.222222 0.000000
vt 0.296296 1.000000
vt 0.259259 0.000000
vt 0.333333 1.000000
vt 0.296296 0.000000
vt 0.370370 1.000000
vt 0.407407 1.000000
vt 0.370370 0.000000
vt 0.444444 1.000000
vt 0.407407 0.000000
vt 0.481481 1.000000
vt 0.444444 0.000000
vt 0.518519 1.000000
vt 0.481481 0.000000
vt 0.555556 1.000000
vt 0.518519 0.000000
vt 0.592593 1.000000
vt 0.555556 0.000000
vt 0.629630 1.000000
vt 0.592593 0.000000
vt 0.666667 1.000000
vt 0.629630 0.000000
vt 0.703704 1.000000
vt 0.740741 1.000000
vt 0.703704 0.000000
vt 0.777778 1.000000
vt 0.740741 0.000000
vt 0.814815 1.000000
vt 0.777778 0.000000
vt 0.851852 1.000000
vt 0.814815 0.000000
vt 0.888889 1.000000
vt 0.851852 0.000000
vt 0.925926 1.000000
vt 0.888889 0.000000
vt 0.962963 1.000000
vt 0.925926 0.000000
vt 0.962963 0.000000
s 0
usemtl 
f 233/127/30 261/128/30 234/129/30
f 261/128/30 235/130/30 234/129/30
f 261/128/30 169/131/30 235/130/30
f 261/128/30 170/132/30 169/131/30
f 261/128/30 171/133/30 170/132/30
f 261/128/30 172/134/30 171/133/30
f 261/128/30 173/135/30 172/134/30
f 261/128/30 174/136/30 173/135/30
f 261/128/30 175/137/30 174/136/30
f 261/128/30 176/138/30 175/137/30
f 261/128/30 177/139/30 176/138/30
f 261/128/30 260/140/30 177/139/30
f 260/140/30 259/141/30 177/139/30
f 259/141/30 178/142/30 177/139/30
f 233/127/30 262/143/30 261/128/30
f 258/144/30 178/142/30 259/141/30
f 257/145/30 178/142/30 258/144/30
f 256/146/30 178/142/30 257/145/30
f 255/147/30 178/142/30 256/146/30
f 254/148/30 178/142/30 255/147/30
f 253/149/30 178/142/30 254/148/30
f 253/149/30 179/150/30 178/142/30
f 252/151/30 179/150/30 253/149/30
f 251/152/30 179/150/30 252/151/30
f 250/153/30 179/150/30 251/152/30
f 250/153/30 180/154/30 179/150/30
f 249/155/30 180/154/30 250/153/30
f 248/156/30 180/154/30 249/155/30
f 247/157/30 180/154/30 248/156/30
f 247/157/30 181/158/30 180/154/30
f 246/159/30 181/158/30 247/157/30
f 245/160/30 181/158/30 246/159/30
f 245/160/30 182/161/30 181/158/30
f 244/162/30 182/161/30 245/160/30
f 243/163/30 182/161/30 244/162/30
f 243/163/30 183/164/30 182/161/30
f 242/165/30 183/164/30 243/163/30
f 241/166/30 183/164/30 242/165/30
f 241/166/30 184/167/30 183/164/30
f 240/168/30 184/167/30 241/166/30
f 239/169/30 184/167/30 240/168/30
f 238/170/30 184/167/30 239/169/30
f 238/170/30 185/171/30 184/167/30
f 237/172/30 185/171/30 238/170/30
f 236/173/30 185/171/30 237/172/30
f 233/127/30 236/173/30 262/143/30
f 233/127/30 231/174/30 236/173/30
f 231/174/30 185/171/30 236/173/30
f 231/174/30 186/175/30 185/171/30
f 231/174/30 187/176/30 186/175/30
f 231/174/30 188/177/30 187/176/30
f 231/174/30 193/178/30 188/177/30
f 193/178/30 189/179/30 188/177/30
f 193/178/30 190/180/30 189/179/30
f 231/174/30 191/181/30 193/178/30
f 191/181/30 194/182/30 193/178/30
f 192/183/30 190/180/30 193/178/30
f 191/181/30 192/183/30 190/180/30
f 191/181/30 195/184/30 194/182/30
f 231/174/30 195/184/30 191/181/30
f 231/174/30 196/185/30 195/184/30
f 231/174/30 230/186/30 196/185/30
f 230/186/30 197/187/30 196/185/30
f 233/127/30 232/188/30 231/174/30
f 229/189/30 197/187/30 230/186/30
f 228/190/30 197/187/30 229/189/30
f 227/191/30 197/187/30 228/190/30
f 227/191/30 198/192/30 197/187/30
f 226/193/30 198/192/30 227/191/30
f 225/194/30 198/192/30 226/193/30
f 224/195/30 198/192/30 225/194/30
f 224/195/30 199/196/30 198/192/30
f 223/197/30 199/196/30 224/195/30
f 222/198/30 199/196/30 223/197/30
f 222/198/30 200/199/30 199/196/30
f 221/200/30 200/199/30 222/198/30
f 221/200/30 201/201/30 200/199/30
f 220/202/30 201/201/30 221/200/30
f 220/202/30 202/203/30 201/201/30
f 219/204/30 202/203/30 220/202/30
f 219/204/30 203/205/30 202/203/30
f 219/204/30 204/206/30 203/205/30
f 218/207/30 204/206/30 219/204/30
f 218/207/30 205/208/30 204/206/30
f 218/207/30 206/209/30 205/208/30
f 217/210/30 206/209/30 218/207/30
f 217/210/30 207/211/30 206/209/30
f 217/210/30 208/212/30 207/211/30
f 217/210/30 209/213/30 208/212/30
f 217/210/30 210/214/30 209/213/30
f 217/210/30 211/215/30 210/214/30
f 217/210/30 212/216/30 211/215/30
f 217/210/30 213/217/30 212/216/30
f 217/210/30 214/218/30 213/217/30
f 217/210/30 215/219/30 214/218/30
f 217/210/30 216/220/30 215/219/30
f 327/127/31 328/129/31 355/128/31
f 355/128/31 328/129/31 329/130/31
f 355/128/31 329/130/31 263/131/31
f 355/128/31 263/131/31 264/132/31
f 355/128/31 264/132/31 265/133/31
f 355/128/31 265/133/31 266/134/31
f 355/128/31 266/134/31 267/135/31
f 355/128/31 267/135/31 268/136/31
f 355/128/31 268/136/31 269/137/31
f 355/128/31 269/137/31 270/138/31
f 355/128/31 270/138/31 271/139/31
f 355/128/31 271/139/31 354/140/31
f 354/140/31 271/139/31 353/141/31
f 353/141/31 271/139/31 272/142/31
f 327/127/31 355/128/31 356/143/31
f 352/144/31 353/141/31 272/142/31
f 351/145/31 352/144/31 272/142/31
f 350/146/31 351/145/31 272/142/31
f 349/147/31 350/146/31 272/142/31
f 348/148/31 349/147/31 272/142/31
f 347/149/31 348/148/31 272/142/31
f 347/149/31 272/142/31 273/150/31
f 346/151/31 347/149/31 273/150/31
f 345/152/31 346/151/31 273/150/31
f 344/153/31 345/152/31 273/150/31
f 344/153/31 273/150/31 274/154/31
f 343/155/31 344/153/31 274/154/31
f 342/156/31 343/155/31 274/154/31
f 341/157/31 342/156/31 274/154/31
f 341/157/31 274/154/31 275/158/31
f 340/159/31 341/157/31 275/158/31
f 339/160/31 340/159/31 275/158/31
f 339/160/31 275/158/31 276/161/31
f 338/162/31 339/160/31 276/161/31
f 337/163/31 338/162/31 276/161/31
f 337/163/31 276/161/31 277/164/31
f 336/165/31 337/163/31 277/164/31
f 335/166/31 336/165/31 277/164/31
f 335/166/31 277/164/31 278/167/31
f 334/168/31 335/166/31 278/167/31
f 333/169/31 334/168/31 278/167/31
f 332/170/31 333/169/31 278/167/31
f 332/170/31 278/167/31 279/171/31
f 331/172/31 332/170/31 279/171/31
f 330/173/31 331/172/31 279/171/31
f 327/127/31 356/143/31 330/173/31
f 327/127/31 330/173/31 325/174/31
f 325/174/31 330/173/31 279/171/31
f 325/174/31 279/171/31 280/175/31
f 325/174/31 280/175/31 281/176/31
f 325/174/31 281/176/31 282/177/31
f 325/174/31 282/177/31 287/178/31
f 287/178/31 282/177/31 283/179/31
f 287/178/31 283/179/31 284/180/31
f 325/174/31 287/178/31 285/181/31
f 285/181/31 287/178/31 288/182/31
f 286/183/31 287/178/31 284/180/31
f 285/181/31 284/180/31 286/183/31
f 285/181/31 288/182/31 289/184/31
f 325/174/31 285/181/31 289/184/31
f 325/174/31 289/184/31 290/185/31
f 325/174/31 290/185/31 324/186/31
f 324/186/31 290/185/31 291/187/31
f 327/127/31 325/174/31 326/188/31
f 323/189/31 324/186/31 291/187/31
f 322/190/31 323/189/31 291/187/31
f 321/191/31 322/190/31 291/187/31
f 321/191/31 291/187/31 292/192/31
f 320/193/31 321/191/31 292/192/31
f 319/194/31 320/193/31 292/192/31
f 318/195/31 319/194/31 292/192/31
f 318/195/31 292/192/31 293/196/31
f 317/197/31 318/195/31 293/196/31
f 316/198/31 317/197/31 293/196/31
f 316/198/31 293/196/31 294/199/31
f 315/200/31 316/198/31 294/199/31
f 315/200/31 294/199/31 295/201/31
f 314/202/31 315/200/31 295/201/31
f 314/202/31 295/201/31 296/203/31
f 313/204/31 314/202/31 296/203/31
f 313/204/31 296/203/31 297/205/31
f 313/204/31 297/205/31 298/206/31
f 312/207/31 313/204/31 298/206/31
f 312/207/31 298/206/31 299/208/31
f 312/207/31 299/208/31 300/209/31
f 311/210/31 312/207/31 300/209/31
f 311/210/31 300/209/31 301/211/31
f 311/210/31 301/211/31 302/212/31
f 311/210/31 302/212/31 303/213/31
f 311/210/31 303/213/31 304/214/31
f 311/210/31 304/214/31 305/215/31
f 311/210/31 305/215/31 306/216/31
f 311/210/31 306/216/31 307/217/31
f 311/210/31 307/217/31 308/218/31
f 311/210/31 308/218/31 309/219/31
f 311/210/31 309/219/31 310/220/31
s 1
f 360/221/32 357/131/33 358/222/33
f 362/223/34 359/224/32 360/221/32
f 364/225/35 361/226/34 362/223/34
f 366/227/36 363/228/35 364/225/35
f 368/229/37 365/230/36 366/227/36
f 370/231/38 367/232/37 368/229/37
f 372/233/39 369/234/38 370/231/38
f 374/235/40 371/236/39 372/233/39
f 376/237/41 373/238/40 374/235/40
f 378/239/42 375/240/41 376/237/41
f 380/241/43 377/242/42 378/239/42
f 382/243/44 379/244/43 380/241/43
f 384/245/45 381/246/44 382/243/44
f 386/247/46 383/248/45 384/245/45
f 388/249/47 385/250/46 386/247/46
f 390/251/48 387/252/47 388/249/47
f 392/253/49 389/254/48 390/251/48
f 394/255/50 391/256/49 392/253/49
f 396/257/51 393/258/50 394/255/50
f 398/259/52 395/260/51 396/257/51
f 400/261/53 397/262/52 398/259/52
f 402/263/54 399/264/53 400/261/53
f 404/265/55 401/266/56 402/263/54
f 406/267/57 403/268/55 404/265/55
f 408/269/58 405/270/59 406/267/57
f 410/271/60 407/272/58 408/269/58
f 412/273/61 409/274/60 410/271/60
f 414/275/62 411/276/61 412/273/61
f 416/277/63 413/278/62 414/275/62
f 418/279/64 415/280/63 416/277/63
f 420/281/65 417/282/64 418/279/64
f 422/283/66 419/284/65 420/281/65
f 424/285/67 421/286/66 422/283/66
f 426/287/68 423/288/67 424/285/67
f 428/289/69 425/290/68 426/287/68
f 430/291/70 427/292/69 428/289/69
f 432/293/71 429/294/70 430/291/70
f 434/295/72 431/296/71 432/293/71
f 436/297/73 433/298/72 434/295/72
f 438/299/74 435/300/73 436/297/73
f 440/301/75 437/302/74 438/299/74
f 442/303/76 439/304/75 440/301/75
f 444/305/77 441/306/76 442/303/76
f 446/307/78 443/308/77 444/305/77
f 448/309/79 445/310/78 446/307/78
f 450/311/80 447/312/79 448/309/79
f 452/313/81 449/314/80 450/311/80
f 454/315/82 451/316/83 452/313/81
f 456/317/84 453/318/82 454/315/82
f 458/319/85 455/320/84 456/317/84
f 460/321/86 457/322/85 458/319/85
f 462/323/87 459/324/86 460/321/86
f 464/325/88 461/326/87 462/323/87
f 466/327/89 463/328/88 464/325/88
f 468/329/90 465/330/89 466/327/89
f 470/331/91 467/332/90 468/329/90
f 472/333/92 469/334/91 470/331/91
f 474/335/93 471/336/92 472/333/92
f 476/337/94 473/338/93 474/335/93
f 478/339/95 475/340/94 476/337/94
f 480/341/96 477/342/95 478/339/95
f 482/343/97 479/344/96 480/341/96
f 484/345/97 481/346/97 482/343/97
f 486/347/98 483/348/97 484/345/97
f 488/349/99 485/350/98 486/347/98
f 490/351/100 487/352/99 488/349/99
f 358/353/33 489/354/100 490/351/100
f 494/355/101 491/131/102 492/222/102
f 496/356/103 493/357/101 494/355/101
f 498/358/104 495/359/103 496/356/103
f 500/360/105 497/361/104 498/358/104
f 502/362/106 499/363/105 500/360/105
f 504/364/107 501/365/106 502/362/106
f 506/366/108 503/367/107 504/364/107
f 508/368/109 505/369/108 506/366/108
f 510/370/110 507/371/109 508/368/109
f 512/372/111 509/199/110 510/370/110
f 514/373/112 511/374/111 512/372/111
f 516/375/113 513/376/112 514/373/112
f 518/377/114 515/378/113 516/375/113
f 520/379/115 517/380/114 518/377/114
f 522/381/116 519/382/115 520/379/115
f 524/383/117 521/384/116 522/381/116
f 526/385/118 523/386/117 524/383/117
f 528/387/119 525/388/118 526/385/118
f 530/389/120 527/174/119 528/387/119
f 532/390/121 529/391/120 530/389/120
f 534/392/122 531/393/121 532/390/121
f 536/394/123 533/395/122 534/392/122
f 538/396/124 535/397/123 536/394/123
f 540/398/125 537/399/124 538/396/124
f 542/400/97 539/401/125 540/398/125
f 544/402/126 541/403/97 542/400/97
f 492/353/102 543/404/126 544/402/126
f 360/221/32 359/224/32 357/131/33
f 362/223/34 361/226/34 359/224/32
f 364/225/35 363/228/35 361/226/34
f 366/227/36 365/230/36 363/228/35
f 368/229/37 367/232/37 365/230/36
f 370/231/38 369/234/38 367/232/37
f 372/233/39 371/236/39 369/234/38
f 374/235/40 373/238/40 371/236/39
f 376/237/41 375/240/41 373/238/40
f 378/239/42 377/242/42 375/240/41
f 380/241/43 379/244/43 377/242/42
f 382/243/44 381/246/44 379/244/43
f 384/245/45 383/248/45 381/246/44
f 386/247/46 385/250/46 383/248/45
f 388/249/47 387/252/47 385/250/46
f 390/251/48 389/254/48 387/252/47
f 392/253/49 391/256/49 389/254/48
f 394/255/50 393/258/50 391/256/49
f 396/257/51 395/260/51 393/258/50
f 398/259/52 397/262/52 395/260/51
f 400/261/53 399/264/53 397/262/52
f 402/263/54 401/266/56 399/264/53
f 404/265/55 403/268/55 401/266/56
f 406/267/57 405/270/59 403/268/55
f 408/269/58 407/272/58 405/270/59
f 410/271/60 409/274/60 407/272/58
f 412/273/61 411/276/61 409/274/60
f 414/275/62 413/278/62 411/276/61
f 416/277/63 415/280/63 413/278/62
f 418/279/64 417/282/64 415/280/63
f 420/281/65 419/284/65 417/282/64
f 422/283/66 421/286/66 419/284/65
f 424/285/67 423/288/67 421/286/66
f 426/287/68 425/290/68 423/288/67
f 428/289/69 427/292/69 425/290/68
f 430/291/70 429/294/70 427/292/69
f 432/293/71 431/296/71 429/294/70
f 434/295/72 433/298/72 431/296/71
f 436/297/73 435/300/73 433/298/72
f 438/299/74 437/302/74 435/300/73
f 440/301/75 439/304/75 437/302/74
f 442/303/76 441/306/76 439/304/75
f 444/305/77 443/308/77 441/306/76
f 446/307/78 445/310/78 443/308/77
f 448/309/79 447/312/79 445/310/78
f 450/311/80 449/314/80 447/312/79
f 452/313/81 451/316/83 449/314/80
f 454/315/82 453/318/82 451/316/83
f 456/317/84 455/320/84 453/318/82
f 458/319/85 457/322/85 455/320/84
f 460/321/86 459/324/86 457/322/85
f 462/323/87 461/326/87 459/324/86
f 464/325/88 463/328/88 461/326/87
f 466/327/89 465/330/89 463/328/88
f 468/329/90 467/332/90 465/330/89
f 470/331/91 469/334/91 467/332/90
f 472/333/92 471/336/92 469/334/91
f 474/335/93 473/338/93 471/336/92
f 476/337/94 475/340/94 473/338/93
f 478/339/95 477/342/95 475/340/94
f 480/341/96 479/344/96 477/342/95
f 482/343/97 481/346/97 479/344/96
f 484/345/97 483/348/97 481/346/97
f 486/347/98 485/350/98 483/348/97
f 488/349/99 487/352/99 485/350/98
f 490/351/100 489/354/100 487/352/99
f 358/353/33 357/143/33 489/354/100
f 494/355/101 493/357/101 491/131/102
f 496/356/103 495/359/103 493/357/101
f 498/358/104 497/361/104 495/359/103
f 500/360/105 499/363/105 497/361/104
f 502/362/106 501/365/106 499/363/105
f 504/364/107 503/367/107 501/365/106
f 506/366/108 505/369/108 503/367/107
f 508/368/109 507/371/109 505/369/108
f 510/370/110 509/199/110 507/371/109
f 512/372/111 511/374/111 509/199/110
f 514/373/112 513/376/112 511/374/111
f 516/375/113 515/378/113 513/376/112
f 518/377/114 517/380/114 515/378/113
f 520/379/115 519/382/115 517/380/114
f 522/381/116 521/384/116 519/382/115
f 524/383/117 523/386/117 521/384/116
f 526/385/118 525/388/118 523/386/117
f 528/387/119 527/174/119 525/388/118
f 530/389/120 529/391/120 527/174/119
f 532/390/121 531/393/121 529/391/120
f 534/392/122 533/395/122 531/393/121
f 536/394/123 535/397/123 533/395/122
f 538/396/124 537/399/124 535/397/123
f 540/398/125 539/401/125 537/399/124
f 542/400/97 541/403/97 539/401/125
f 544/402/126 543/404/126 541/403/97
f 492/353/102 491/143/102 543/404/126
