# Blender 4.1.1
# www.blender.org
mtllib shi.mtl
o Text.009
v -0.339706 0.646909 -0.020000
v -0.338368 0.611856 -0.020000
v -0.337010 0.573132 -0.020000
v -0.335662 0.531467 -0.020000
v -0.334355 0.487594 -0.020000
v -0.333122 0.442242 -0.020000
v -0.331992 0.396141 -0.020000
v -0.330998 0.350023 -0.020000
v -0.330171 0.304619 -0.020000
v -0.329541 0.260658 -0.020000
v -0.329140 0.218875 -0.020000
v -0.329001 0.180253 -0.020000
v -0.330365 0.155114 -0.020000
v -0.334272 0.133218 -0.020000
v -0.340522 0.114177 -0.020000
v -0.348924 0.097788 -0.020000
v -0.359339 0.083819 -0.020000
v -0.371689 0.072047 -0.020000
v -0.385940 0.062297 -0.020000
v -0.402049 0.054462 -0.020000
v -0.419941 0.048473 -0.020000
v -0.439499 0.044275 -0.020000
v -0.460578 0.041810 -0.020000
v -0.482943 0.041008 -0.020000
v -0.526145 0.043052 -0.020000
v -0.566100 0.048930 -0.020000
v -0.603065 0.058287 -0.020000
v -0.637245 0.070776 -0.020000
v -0.668843 0.086061 -0.020000
v -0.698051 0.103814 -0.020000
v -0.725052 0.123710 -0.020000
v -0.750019 0.145421 -0.020000
v -0.773116 0.168616 -0.020000
v -0.794503 0.192957 -0.020000
v -0.814340 0.218102 -0.020000
v -0.840403 0.254279 -0.020000
v -0.910799 0.170298 -0.020000
v -0.887286 0.139438 -0.020000
v -0.865821 0.113983 -0.020000
v -0.841572 0.088298 -0.020000
v -0.814424 0.062936 -0.020000
v -0.784263 0.038456 -0.020000
v -0.750975 0.015416 -0.020000
v -0.714453 -0.005619 -0.020000
v -0.674594 -0.024085 -0.020000
v -0.631304 -0.039416 -0.020000
v -0.584495 -0.051050 -0.020000
v -0.534087 -0.058431 -0.020000
v -0.480057 -0.061009 -0.020000
v -0.444195 -0.059704 -0.020000
v -0.410336 -0.055673 -0.020000
v -0.378586 -0.048725 -0.020000
v -0.349138 -0.038655 -0.020000
v -0.322217 -0.025258 -0.020000
v -0.298091 -0.008345 -0.020000
v -0.277059 0.012228 -0.020000
v -0.259420 0.036539 -0.020000
v -0.245425 0.064620 -0.020000
v -0.235264 0.096502 -0.020000
v -0.229076 0.132252 -0.020000
v -0.226999 0.171762 -0.020000
v -0.227197 0.211130 -0.020000
v -0.227742 0.253734 -0.020000
v -0.228565 0.298935 -0.020000
v -0.229595 0.345862 -0.020000
v -0.230765 0.393638 -0.020000
v -0.232003 0.441387 -0.020000
v -0.233242 0.488230 -0.020000
v -0.234411 0.533288 -0.020000
v -0.235440 0.575680 -0.020000
v -0.236261 0.614523 -0.020000
v -0.236804 0.648926 -0.020000
v -0.237000 0.678011 -0.020000
v -0.236958 0.687130 -0.020000
v -0.236826 0.696190 -0.020000
v -0.236599 0.705156 -0.020000
v -0.236269 0.714007 -0.020000
v -0.235830 0.722721 -0.020000
v -0.235276 0.731275 -0.020000
v -0.234601 0.739647 -0.020000
v -0.233798 0.747815 -0.020000
v -0.232863 0.755754 -0.020000
v -0.231789 0.763443 -0.020000
v -0.230572 0.770856 -0.020000
v -0.226877 0.790121 -0.020000
v -0.351547 0.788886 -0.020000
v -0.348695 0.769322 -0.020000
v -0.347584 0.761071 -0.020000
v -0.346556 0.752760 -0.020000
v -0.345609 0.744406 -0.020000
v -0.344744 0.736021 -0.020000
v -0.343961 0.727621 -0.020000
v -0.343261 0.719220 -0.020000
v -0.342643 0.710831 -0.020000
v -0.342108 0.702471 -0.020000
v -0.341655 0.694152 -0.020000
v -0.341284 0.685889 -0.020000
v -0.340993 0.677615 -0.020000
v -0.339706 0.646909 0.020000
v -0.338368 0.611856 0.020000
v -0.337010 0.573132 0.020000
v -0.335662 0.531467 0.020000
v -0.334355 0.487594 0.020000
v -0.333122 0.442242 0.020000
v -0.331992 0.396141 0.020000
v -0.330998 0.350023 0.020000
v -0.330171 0.304619 0.020000
v -0.329541 0.260658 0.020000
v -0.329140 0.218875 0.020000
v -0.329001 0.180253 0.020000
v -0.330365 0.155114 0.020000
v -0.334272 0.133218 0.020000
v -0.340522 0.114177 0.020000
v -0.348924 0.097788 0.020000
v -0.359339 0.083819 0.020000
v -0.371689 0.072047 0.020000
v -0.385940 0.062297 0.020000
v -0.402049 0.054462 0.020000
v -0.419941 0.048473 0.020000
v -0.439499 0.044275 0.020000
v -0.460578 0.041810 0.020000
v -0.482943 0.041008 0.020000
v -0.526145 0.043052 0.020000
v -0.566100 0.048930 0.020000
v -0.603065 0.058287 0.020000
v -0.637245 0.070776 0.020000
v -0.668843 0.086061 0.020000
v -0.698051 0.103814 0.020000
v -0.725052 0.123710 0.020000
v -0.750019 0.145421 0.020000
v -0.773116 0.168616 0.020000
v -0.794503 0.192957 0.020000
v -0.814340 0.218102 0.020000
v -0.840403 0.254279 0.020000
v -0.910799 0.170298 0.020000
v -0.887286 0.139438 0.020000
v -0.865821 0.113983 0.020000
v -0.841572 0.088298 0.020000
v -0.814424 0.062936 0.020000
v -0.784263 0.038456 0.020000
v -0.750975 0.015416 0.020000
v -0.714453 -0.005619 0.020000
v -0.674594 -0.024085 0.020000
v -0.631304 -0.039416 0.020000
v -0.584495 -0.051050 0.020000
v -0.534087 -0.058431 0.020000
v -0.480057 -0.061009 0.020000
v -0.444195 -0.059704 0.020000
v -0.410336 -0.055673 0.020000
v -0.378586 -0.048725 0.020000
v -0.349138 -0.038655 0.020000
v -0.322217 -0.025258 0.020000
v -0.298091 -0.008345 0.020000
v -0.277059 0.012228 0.020000
v -0.259420 0.036539 0.020000
v -0.245425 0.064620 0.020000
v -0.235264 0.096502 0.020000
v -0.229076 0.132252 0.020000
v -0.226999 0.171762 0.020000
v -0.227197 0.211130 0.020000
v -0.227742 0.253734 0.020000
v -0.228565 0.298935 0.020000
v -0.229595 0.345862 0.020000
v -0.230765 0.393638 0.020000
v -0.232003 0.441387 0.020000
v -0.233242 0.488230 0.020000
v -0.234411 0.533288 0.020000
v -0.235440 0.575680 0.020000
v -0.236261 0.614523 0.020000
v -0.236804 0.648926 0.020000
v -0.237000 0.678011 0.020000
v -0.236958 0.687130 0.020000
v -0.236826 0.696190 0.020000
v -0.236599 0.705156 0.020000
v -0.236269 0.714007 0.020000
v -0.235830 0.722721 0.020000
v -0.235276 0.731275 0.020000
v -0.234601 0.739647 0.020000
v -0.233798 0.747815 0.020000
v -0.232863 0.755754 0.020000
v -0.231789 0.763443 0.020000
v -0.230572 0.770856 0.020000
v -0.226877 0.790121 0.020000
v -0.351547 0.788886 0.020000
v -0.348695 0.769322 0.020000
v -0.347584 0.761071 0.020000
v -0.346556 0.752760 0.020000
v -0.345609 0.744406 0.020000
v -0.344744 0.736021 0.020000
v -0.343961 0.727621 0.020000
v -0.343261 0.719220 0.020000
v -0.342643 0.710831 0.020000
v -0.342108 0.702471 0.020000
v -0.341655 0.694152 0.020000
v -0.341284 0.685889 0.020000
v -0.340993 0.677615 0.020000
v -0.339706 0.646909 0.020000
v -0.339706 0.646909 -0.020000
v -0.338368 0.611856 0.020000
v -0.338368 0.611856 -0.020000
v -0.337010 0.573132 0.020000
v -0.337010 0.573132 -0.020000
v -0.335662 0.531467 0.020000
v -0.335662 0.531467 -0.020000
v -0.334355 0.487594 0.020000
v -0.334355 0.487594 -0.020000
v -0.333122 0.442242 0.020000
v -0.333122 0.442242 -0.020000
v -0.331992 0.396141 0.020000
v -0.331992 0.396141 -0.020000
v -0.330998 0.350023 0.020000
v -0.330998 0.350023 -0.020000
v -0.330171 0.304619 0.020000
v -0.330171 0.304619 -0.020000
v -0.329541 0.260658 0.020000
v -0.329541 0.260658 -0.020000
v -0.329140 0.218875 0.020000
v -0.329140 0.218875 -0.020000
v -0.329001 0.180253 0.020000
v -0.329001 0.180253 -0.020000
v -0.330365 0.155114 0.020000
v -0.330365 0.155114 -0.020000
v -0.334272 0.133218 0.020000
v -0.334272 0.133218 -0.020000
v -0.340522 0.114177 0.020000
v -0.340522 0.114177 -0.020000
v -0.348924 0.097788 0.020000
v -0.348924 0.097788 -0.020000
v -0.359339 0.083819 0.020000
v -0.359339 0.083819 -0.020000
v -0.371689 0.072047 0.020000
v -0.371689 0.072047 -0.020000
v -0.385940 0.062297 0.020000
v -0.385940 0.062297 -0.020000
v -0.402049 0.054462 0.020000
v -0.402049 0.054462 -0.020000
v -0.419941 0.048473 0.020000
v -0.419941 0.048473 -0.020000
v -0.439499 0.044275 0.020000
v -0.439499 0.044275 -0.020000
v -0.460578 0.041810 0.020000
v -0.460578 0.041810 -0.020000
v -0.482943 0.041008 0.020000
v -0.482943 0.041008 -0.020000
v -0.526145 0.043052 0.020000
v -0.526145 0.043052 -0.020000
v -0.566100 0.048930 0.020000
v -0.566100 0.048930 -0.020000
v -0.603065 0.058287 0.020000
v -0.603065 0.058287 -0.020000
v -0.637245 0.070776 0.020000
v -0.637245 0.070776 -0.020000
v -0.668843 0.086061 0.020000
v -0.668843 0.086061 -0.020000
v -0.698051 0.103814 0.020000
v -0.698051 0.103814 -0.020000
v -0.725052 0.123710 0.020000
v -0.725052 0.123710 -0.020000
v -0.750019 0.145421 0.020000
v -0.750019 0.145421 -0.020000
v -0.773116 0.168616 0.020000
v -0.773116 0.168616 -0.020000
v -0.794503 0.192957 0.020000
v -0.794503 0.192957 -0.020000
v -0.814340 0.218102 0.020000
v -0.814340 0.218102 -0.020000
v -0.840403 0.254279 0.020000
v -0.840403 0.254279 -0.020000
v -0.910799 0.170298 0.020000
v -0.910799 0.170298 -0.020000
v -0.887286 0.139438 0.020000
v -0.887286 0.139438 -0.020000
v -0.865821 0.113983 0.020000
v -0.865821 0.113983 -0.020000
v -0.841572 0.088298 0.020000
v -0.841572 0.088298 -0.020000
v -0.814424 0.062936 0.020000
v -0.814424 0.062936 -0.020000
v -0.784263 0.038456 0.020000
v -0.784263 0.038456 -0.020000
v -0.750975 0.015416 0.020000
v -0.750975 0.015416 -0.020000
v -0.714453 -0.005619 0.020000
v -0.714453 -0.005619 -0.020000
v -0.674594 -0.024085 0.020000
v -0.674594 -0.024085 -0.020000
v -0.631304 -0.039416 0.020000
v -0.631304 -0.039416 -0.020000
v -0.584495 -0.051050 0.020000
v -0.584495 -0.051050 -0.020000
v -0.534087 -0.058431 0.020000
v -0.534087 -0.058431 -0.020000
v -0.480057 -0.061009 0.020000
v -0.480057 -0.061009 -0.020000
v -0.444195 -0.059704 0.020000
v -0.444195 -0.059704 -0.020000
v -0.410336 -0.055673 0.020000
v -0.410336 -0.055673 -0.020000
v -0.378586 -0.048725 0.020000
v -0.378586 -0.048725 -0.020000
v -0.349138 -0.038655 0.020000
v -0.349138 -0.038655 -0.020000
v -0.322217 -0.025258 0.020000
v -0.322217 -0.025258 -0.020000
v -0.298091 -0.008345 0.020000
v -0.298091 -0.008345 -0.020000
v -0.277059 0.012228 0.020000
v -0.277059 0.012228 -0.020000
v -0.259420 0.036539 0.020000
v -0.259420 0.036539 -0.020000
v -0.245425 0.064620 0.020000
v -0.245425 0.064620 -0.020000
v -0.235264 0.096502 0.020000
v -0.235264 0.096502 -0.020000
v -0.229076 0.132252 0.020000
v -0.229076 0.132252 -0.020000
v -0.226999 0.171762 0.020000
v -0.226999 0.171762 -0.020000
v -0.227197 0.211130 0.020000
v -0.227197 0.211130 -0.020000
v -0.227742 0.253734 0.020000
v -0.227742 0.253734 -0.020000
v -0.228565 0.298935 0.020000
v -0.228565 0.298935 -0.020000
v -0.229595 0.345862 0.020000
v -0.229595 0.345862 -0.020000
v -0.230765 0.393638 0.020000
v -0.230765 0.393638 -0.020000
v -0.232003 0.441387 0.020000
v -0.232003 0.441387 -0.020000
v -0.233242 0.488230 0.020000
v -0.233242 0.488230 -0.020000
v -0.234411 0.533288 0.020000
v -0.234411 0.533288 -0.020000
v -0.235440 0.575680 0.020000
v -0.235440 0.575680 -0.020000
v -0.236261 0.614523 0.020000
v -0.236261 0.614523 -0.020000
v -0.236804 0.648926 0.020000
v -0.236804 0.648926 -0.020000
v -0.237000 0.678011 0.020000
v -0.237000 0.678011 -0.020000
v -0.236958 0.687130 0.020000
v -0.236958 0.687130 -0.020000
v -0.236826 0.696190 0.020000
v -0.236826 0.696190 -0.020000
v -0.236599 0.705156 0.020000
v -0.236599 0.705156 -0.020000
v -0.236269 0.714007 0.020000
v -0.236269 0.714007 -0.020000
v -0.235830 0.722721 0.020000
v -0.235830 0.722721 -0.020000
v -0.235276 0.731275 0.020000
v -0.235276 0.731275 -0.020000
v -0.234601 0.739647 0.020000
v -0.234601 0.739647 -0.020000
v -0.233798 0.747815 0.020000
v -0.233798 0.747815 -0.020000
v -0.232863 0.755754 0.020000
v -0.232863 0.755754 -0.020000
v -0.231789 0.763443 0.020000
v -0.231789 0.763443 -0.020000
v -0.230572 0.770856 0.020000
v -0.230572 0.770856 -0.020000
v -0.226877 0.790121 0.020000
v -0.226877 0.790121 -0.020000
v -0.351547 0.788886 0.020000
v -0.351547 0.788886 -0.020000
v -0.348695 0.769322 0.020000
v -0.348695 0.769322 -0.020000
v -0.347584 0.761071 0.020000
v -0.347584 0.761071 -0.020000
v -0.346556 0.752760 0.020000
v -0.346556 0.752760 -0.020000
v -0.345609 0.744406 0.020000
v -0.345609 0.744406 -0.020000
v -0.344744 0.736021 0.020000
v -0.344744 0.736021 -0.020000
v -0.343961 0.727621 0.020000
v -0.343961 0.727621 -0.020000
v -0.343261 0.719220 0.020000
v -0.343261 0.719220 -0.020000
v -0.342643 0.710831 0.020000
v -0.342643 0.710831 -0.020000
v -0.342108 0.702471 0.020000
v -0.342108 0.702471 -0.020000
v -0.341655 0.694152 0.020000
v -0.341655 0.694152 -0.020000
v -0.341284 0.685889 0.020000
v -0.341284 0.685889 -0.020000
v -0.340993 0.677615 0.020000
v -0.340993 0.677615 -0.020000
vn -0.0000 -0.0000 -1.0000
vn -0.0000 -0.0000 1.0000
vn -0.9993 -0.0366 -0.0000
vn -0.9992 -0.0400 -0.0000
vn -0.9994 -0.0337 -0.0000
vn -0.9995 -0.0311 -0.0000
vn -0.9996 -0.0285 -0.0000
vn -0.9997 -0.0258 -0.0000
vn -0.9997 -0.0230 -0.0000
vn -0.9998 -0.0199 -0.0000
vn -0.9999 -0.0163 -0.0000
vn -0.9999 -0.0120 -0.0000
vn -1.0000 -0.0066 -0.0000
vn -0.9997 0.0253 -0.0000
vn -0.9934 0.1151 -0.0000
vn -0.9697 0.2444 -0.0000
vn -0.9228 0.3852 -0.0000
vn -0.8487 0.5288 -0.0000
vn -0.7485 0.6631 -0.0000
vn -0.6294 0.7771 -0.0000
vn -0.5024 0.8646 -0.0000
vn -0.3782 0.9257 -0.0000
vn -0.2640 0.9645 -0.0000
vn -0.1632 0.9866 -0.0000
vn -0.0761 0.9971 -0.0000
vn 0.0057 1.0000 -0.0000
vn 0.0965 0.9953 -0.0000
vn 0.1957 0.9807 -0.0000
vn 0.2947 0.9556 -0.0000
vn 0.3898 0.9209 -0.0000
vn 0.4780 0.8784 -0.0000
vn 0.5568 0.8306 -0.0000
vn 0.6252 0.7805 -0.0000
vn 0.6828 0.7306 -0.0000
vn 0.7303 0.6832 -0.0000
vn 0.7684 0.6399 -0.0000
vn 0.7984 0.6021 -0.0000
vn 0.0367 0.9993 -0.0000
vn -0.9997 0.0233 -0.0000
vn -0.7802 -0.6255 -0.0000
vn -0.7461 -0.6658 -0.0000
vn -0.7052 -0.7090 -0.0000
vn -0.6568 -0.7540 -0.0000
vn -0.6001 -0.7999 -0.0000
vn -0.5346 -0.8451 -0.0000
vn -0.4602 -0.8878 -0.0000
vn -0.3775 -0.9260 -0.0000
vn -0.2879 -0.9577 -0.0000
vn -0.1933 -0.9811 -0.0000
vn -0.0964 -0.9953 -0.0000
vn -0.0056 -1.0000 -0.0000
vn 0.0773 -0.9970 -0.0000
vn 0.1662 -0.9861 -0.0000
vn 0.2691 -0.9631 -0.0000
vn 0.3854 -0.9228 -0.0000
vn 0.5112 -0.8595 -0.0000
vn 0.6388 -0.7694 -0.0000
vn 0.7570 -0.6534 -0.0000
vn 0.8551 -0.5184 -0.0000
vn 0.9266 -0.3760 -0.0000
vn 0.9713 -0.2377 -0.0000
vn 0.9937 -0.1117 -0.0000
vn 0.9997 -0.0237 -0.0000
vn 1.0000 0.0089 -0.0000
vn 0.9999 0.0155 -0.0000
vn 0.9998 0.0201 -0.0000
vn 0.9997 0.0232 -0.0000
vn 0.9997 0.0252 -0.0000
vn 0.9997 0.0262 -0.0000
vn 0.9997 0.0251 -0.0000
vn 0.9997 0.0227 -0.0000
vn 0.9998 0.0185 -0.0000
vn 0.9999 0.0113 -0.0000
vn 1.0000 0.0011 -0.0000
vn 1.0000 -0.0096 -0.0000
vn 0.9998 -0.0199 -0.0000
vn 0.9995 -0.0313 -0.0000
vn 0.9990 -0.0438 -0.0000
vn 0.9983 -0.0575 -0.0000
vn 0.9974 -0.0725 -0.0000
vn 0.9960 -0.0891 -0.0000
vn 0.9942 -0.1074 -0.0000
vn 0.9918 -0.1277 -0.0000
vn 0.9887 -0.1502 -0.0000
vn 0.9845 -0.1752 -0.0000
vn 0.7677 0.6409 -0.0000
vn -0.7596 0.6503 -0.0000
vn 0.7677 0.6408 -0.0000
vn -0.9903 -0.1388 -0.0000
vn -0.7596 0.6504 -0.0000
vn -0.9918 -0.1281 -0.0000
vn -0.9930 -0.1177 -0.0000
vn -0.9942 -0.1076 -0.0000
vn -0.9952 -0.0977 -0.0000
vn -0.9961 -0.0879 -0.0000
vn -0.9969 -0.0783 -0.0000
vn -0.9976 -0.0687 -0.0000
vn -0.9982 -0.0592 -0.0000
vn -0.9988 -0.0496 -0.0000
vn -0.9993 -0.0385 -0.0000
vt 0.195168 0.785682
vt 0.195970 0.785682
vt 0.195569 0.785682
vt 0.196371 0.785682
vt 0.194767 0.785682
vt 0.196773 0.785682
vt 0.194366 0.785682
vt 0.197174 0.785682
vt 0.193965 0.785682
vt 0.197575 0.785682
vt 0.193563 0.785682
vt 0.197976 0.785682
vt 0.193162 0.785682
vt 0.198377 0.785682
vt 0.192761 0.785682
vt 0.198778 0.785682
vt 0.192360 0.785682
vt 0.199179 0.785682
vt 0.191959 0.785682
vt 0.199581 0.785682
vt 0.191558 0.785682
vt 0.199982 0.785682
vt 0.191157 0.785682
vt 0.200383 0.785682
vt 0.190755 0.785682
vt 0.200784 0.785682
vt 0.190354 0.785682
vt 0.161873 0.785682
vt 0.189953 0.785682
vt 0.162274 0.785682
vt 0.189552 0.785682
vt 0.162675 0.785682
vt 0.189151 0.785682
vt 0.163077 0.785682
vt 0.188750 0.785682
vt 0.163478 0.785682
vt 0.188349 0.785682
vt 0.163879 0.785682
vt 0.164280 0.785682
vt 0.187947 0.785682
vt 0.164681 0.785682
vt 0.187546 0.785682
vt 0.165082 0.785682
vt 0.187145 0.785682
vt 0.165483 0.785682
vt 0.186744 0.785682
vt 0.165885 0.785682
vt 0.175512 0.785682
vt 0.176314 0.785682
vt 0.175913 0.785682
vt 0.186343 0.785682
vt 0.166286 0.785682
vt 0.175111 0.785682
vt 0.185942 0.785682
vt 0.174710 0.785682
vt 0.166687 0.785682
vt 0.185541 0.785682
vt 0.176715 0.785682
vt 0.174309 0.785682
vt 0.167088 0.785682
vt 0.173907 0.785682
vt 0.177117 0.785682
vt 0.167489 0.785682
vt 0.185139 0.785682
vt 0.173506 0.785682
vt 0.167890 0.785682
vt 0.177518 0.785682
vt 0.173105 0.785682
vt 0.168292 0.785682
vt 0.184738 0.785682
vt 0.177919 0.785682
vt 0.172704 0.785682
vt 0.168693 0.785682
vt 0.169094 0.785682
vt 0.172303 0.785682
vt 0.184337 0.785682
vt 0.178320 0.785682
vt 0.169495 0.785682
vt 0.171902 0.785682
vt 0.169896 0.785682
vt 0.171501 0.785682
vt 0.170297 0.785682
vt 0.170698 0.785682
vt 0.171099 0.785682
vt 0.178721 0.785682
vt 0.183936 0.785682
vt 0.179122 0.785682
vt 0.183535 0.785682
vt 0.179523 0.785682
vt 0.183134 0.785682
vt 0.179925 0.785682
vt 0.182733 0.785682
vt 0.182331 0.785682
vt 0.180326 0.785682
vt 0.181930 0.785682
vt 0.180727 0.785682
vt 0.181529 0.785682
vt 0.181128 0.785682
vt 0.162270 0.824592
vt 0.161873 0.824592
vt 0.162667 0.824592
vt 0.162270 0.785682
vt 0.163064 0.824592
vt 0.162667 0.785682
vt 0.163461 0.824592
vt 0.163064 0.785682
vt 0.163858 0.824592
vt 0.163461 0.785682
vt 0.164255 0.824592
vt 0.163858 0.785682
vt 0.164653 0.824592
vt 0.164255 0.785682
vt 0.165050 0.824592
vt 0.164653 0.785682
vt 0.165447 0.824592
vt 0.165050 0.785682
vt 0.165844 0.824592
vt 0.165447 0.785682
vt 0.166241 0.824592
vt 0.165844 0.785682
vt 0.166638 0.824592
vt 0.166241 0.785682
vt 0.167035 0.824592
vt 0.166638 0.785682
vt 0.167432 0.824592
vt 0.167035 0.785682
vt 0.167829 0.824592
vt 0.167432 0.785682
vt 0.168226 0.824592
vt 0.167829 0.785682
vt 0.168623 0.824592
vt 0.168226 0.785682
vt 0.169020 0.824592
vt 0.168623 0.785682
vt 0.169417 0.824592
vt 0.169020 0.785682
vt 0.169814 0.824592
vt 0.169417 0.785682
vt 0.170211 0.824592
vt 0.169814 0.785682
vt 0.170608 0.824592
vt 0.170211 0.785682
vt 0.171005 0.824592
vt 0.170608 0.785682
vt 0.171402 0.824592
vt 0.171005 0.785682
vt 0.171799 0.824592
vt 0.171402 0.785682
vt 0.172196 0.824592
vt 0.171799 0.785682
vt 0.172594 0.824592
vt 0.172196 0.785682
vt 0.172991 0.824592
vt 0.172594 0.785682
vt 0.173388 0.824592
vt 0.172991 0.785682
vt 0.173785 0.824592
vt 0.173388 0.785682
vt 0.174182 0.824592
vt 0.173785 0.785682
vt 0.174579 0.824592
vt 0.174182 0.785682
vt 0.174976 0.824592
vt 0.174579 0.785682
vt 0.175373 0.824592
vt 0.174976 0.785682
vt 0.175770 0.824592
vt 0.175373 0.785682
vt 0.176167 0.824592
vt 0.175770 0.785682
vt 0.176564 0.824592
vt 0.176167 0.785682
vt 0.176961 0.824592
vt 0.176564 0.785682
vt 0.177358 0.824592
vt 0.176961 0.785682
vt 0.177755 0.824592
vt 0.177358 0.785682
vt 0.178152 0.824592
vt 0.177755 0.785682
vt 0.178549 0.824592
vt 0.178152 0.785682
vt 0.178946 0.824592
vt 0.178549 0.785682
vt 0.179343 0.824592
vt 0.178946 0.785682
vt 0.179740 0.824592
vt 0.179343 0.785682
vt 0.180137 0.824592
vt 0.179740 0.785682
vt 0.180535 0.824592
vt 0.180137 0.785682
vt 0.180932 0.824592
vt 0.180535 0.785682
vt 0.181329 0.824592
vt 0.180932 0.785682
vt 0.181726 0.824592
vt 0.181329 0.785682
vt 0.182123 0.824592
vt 0.181726 0.785682
vt 0.182520 0.824592
vt 0.182123 0.785682
vt 0.182917 0.824592
vt 0.182520 0.785682
vt 0.183314 0.824592
vt 0.182917 0.785682
vt 0.183711 0.824592
vt 0.183314 0.785682
vt 0.184108 0.824592
vt 0.183711 0.785682
vt 0.184505 0.824592
vt 0.184108 0.785682
vt 0.184902 0.824592
vt 0.184505 0.785682
vt 0.185299 0.824592
vt 0.184902 0.785682
vt 0.185696 0.824592
vt 0.185299 0.785682
vt 0.186093 0.824592
vt 0.185696 0.785682
vt 0.186490 0.824592
vt 0.186093 0.785682
vt 0.186887 0.824592
vt 0.186490 0.785682
vt 0.187284 0.824592
vt 0.186887 0.785682
vt 0.187681 0.824592
vt 0.187284 0.785682
vt 0.188078 0.824592
vt 0.187681 0.785682
vt 0.188475 0.824592
vt 0.188078 0.785682
vt 0.188873 0.824592
vt 0.188475 0.785682
vt 0.189270 0.824592
vt 0.188873 0.785682
vt 0.189667 0.824592
vt 0.189270 0.785682
vt 0.190064 0.824592
vt 0.189667 0.785682
vt 0.190461 0.824592
vt 0.190064 0.785682
vt 0.190858 0.824592
vt 0.190461 0.785682
vt 0.191255 0.824592
vt 0.190858 0.785682
vt 0.191652 0.824592
vt 0.191255 0.785682
vt 0.192049 0.824592
vt 0.191652 0.785682
vt 0.192446 0.824592
vt 0.192049 0.785682
vt 0.192843 0.824592
vt 0.192446 0.785682
vt 0.193240 0.824592
vt 0.192843 0.785682
vt 0.193637 0.824592
vt 0.193240 0.785682
vt 0.194034 0.824592
vt 0.193637 0.785682
vt 0.194431 0.824592
vt 0.194034 0.785682
vt 0.194828 0.824592
vt 0.194431 0.785682
vt 0.195225 0.824592
vt 0.194828 0.785682
vt 0.195622 0.824592
vt 0.195225 0.785682
vt 0.196019 0.824592
vt 0.195622 0.785682
vt 0.196416 0.824592
vt 0.196019 0.785682
vt 0.196814 0.824592
vt 0.196416 0.785682
vt 0.197211 0.824592
vt 0.196814 0.785682
vt 0.197608 0.824592
vt 0.197211 0.785682
vt 0.198005 0.824592
vt 0.197608 0.785682
vt 0.198402 0.824592
vt 0.198005 0.785682
vt 0.198799 0.824592
vt 0.198402 0.785682
vt 0.199196 0.824592
vt 0.198799 0.785682
vt 0.199593 0.824592
vt 0.199196 0.785682
vt 0.199990 0.824592
vt 0.199593 0.785682
vt 0.200387 0.824592
vt 0.199990 0.785682
vt 0.200784 0.824592
vt 0.200387 0.785682
s 0
usemtl Material
f 84/1/1 86/2/1 85/3/1
f 84/1/1 87/4/1 86/2/1
f 83/5/1 87/4/1 84/1/1
f 83/5/1 88/6/1 87/4/1
f 82/7/1 88/6/1 83/5/1
f 82/7/1 89/8/1 88/6/1
f 81/9/1 89/8/1 82/7/1
f 81/9/1 90/10/1 89/8/1
f 80/11/1 90/10/1 81/9/1
f 80/11/1 91/12/1 90/10/1
f 79/13/1 91/12/1 80/11/1
f 79/13/1 92/14/1 91/12/1
f 78/15/1 92/14/1 79/13/1
f 78/15/1 93/16/1 92/14/1
f 77/17/1 93/16/1 78/15/1
f 77/17/1 94/18/1 93/16/1
f 76/19/1 94/18/1 77/17/1
f 76/19/1 95/20/1 94/18/1
f 75/21/1 95/20/1 76/19/1
f 75/21/1 96/22/1 95/20/1
f 74/23/1 96/22/1 75/21/1
f 74/23/1 97/24/1 96/22/1
f 73/25/1 97/24/1 74/23/1
f 73/25/1 98/26/1 97/24/1
f 72/27/1 98/26/1 73/25/1
f 72/27/1 1/28/1 98/26/1
f 71/29/1 1/28/1 72/27/1
f 71/29/1 2/30/1 1/28/1
f 70/31/1 2/30/1 71/29/1
f 70/31/1 3/32/1 2/30/1
f 69/33/1 3/32/1 70/31/1
f 69/33/1 4/34/1 3/32/1
f 68/35/1 4/34/1 69/33/1
f 68/35/1 5/36/1 4/34/1
f 67/37/1 5/36/1 68/35/1
f 67/37/1 6/38/1 5/36/1
f 67/37/1 7/39/1 6/38/1
f 66/40/1 7/39/1 67/37/1
f 66/40/1 8/41/1 7/39/1
f 65/42/1 8/41/1 66/40/1
f 65/42/1 9/43/1 8/41/1
f 64/44/1 9/43/1 65/42/1
f 64/44/1 10/45/1 9/43/1
f 63/46/1 10/45/1 64/44/1
f 63/46/1 11/47/1 10/45/1
f 35/48/1 37/49/1 36/50/1
f 62/51/1 11/47/1 63/46/1
f 62/51/1 12/52/1 11/47/1
f 34/53/1 37/49/1 35/48/1
f 61/54/1 12/52/1 62/51/1
f 33/55/1 37/49/1 34/53/1
f 61/54/1 13/56/1 12/52/1
f 60/57/1 13/56/1 61/54/1
f 33/55/1 38/58/1 37/49/1
f 32/59/1 38/58/1 33/55/1
f 60/57/1 14/60/1 13/56/1
f 31/61/1 38/58/1 32/59/1
f 31/61/1 39/62/1 38/58/1
f 60/57/1 15/63/1 14/60/1
f 59/64/1 15/63/1 60/57/1
f 30/65/1 39/62/1 31/61/1
f 59/64/1 16/66/1 15/63/1
f 30/65/1 40/67/1 39/62/1
f 29/68/1 40/67/1 30/65/1
f 59/64/1 17/69/1 16/66/1
f 58/70/1 17/69/1 59/64/1
f 29/68/1 41/71/1 40/67/1
f 28/72/1 41/71/1 29/68/1
f 58/70/1 18/73/1 17/69/1
f 58/70/1 19/74/1 18/73/1
f 27/75/1 41/71/1 28/72/1
f 57/76/1 19/74/1 58/70/1
f 27/75/1 42/77/1 41/71/1
f 57/76/1 20/78/1 19/74/1
f 26/79/1 42/77/1 27/75/1
f 57/76/1 21/80/1 20/78/1
f 25/81/1 42/77/1 26/79/1
f 57/76/1 22/82/1 21/80/1
f 57/76/1 23/83/1 22/82/1
f 24/84/1 42/77/1 25/81/1
f 57/76/1 24/84/1 23/83/1
f 57/76/1 42/77/1 24/84/1
f 57/76/1 43/85/1 42/77/1
f 56/86/1 43/85/1 57/76/1
f 56/86/1 44/87/1 43/85/1
f 55/88/1 44/87/1 56/86/1
f 55/88/1 45/89/1 44/87/1
f 54/90/1 45/89/1 55/88/1
f 54/90/1 46/91/1 45/89/1
f 53/92/1 46/91/1 54/90/1
f 52/93/1 46/91/1 53/92/1
f 52/93/1 47/94/1 46/91/1
f 51/95/1 47/94/1 52/93/1
f 51/95/1 48/96/1 47/94/1
f 50/97/1 48/96/1 51/95/1
f 50/97/1 49/98/1 48/96/1
f 182/1/2 183/3/2 184/2/2
f 182/1/2 184/2/2 185/4/2
f 181/5/2 182/1/2 185/4/2
f 181/5/2 185/4/2 186/6/2
f 180/7/2 181/5/2 186/6/2
f 180/7/2 186/6/2 187/8/2
f 179/9/2 180/7/2 187/8/2
f 179/9/2 187/8/2 188/10/2
f 178/11/2 179/9/2 188/10/2
f 178/11/2 188/10/2 189/12/2
f 177/13/2 178/11/2 189/12/2
f 177/13/2 189/12/2 190/14/2
f 176/15/2 177/13/2 190/14/2
f 176/15/2 190/14/2 191/16/2
f 175/17/2 176/15/2 191/16/2
f 175/17/2 191/16/2 192/18/2
f 174/19/2 175/17/2 192/18/2
f 174/19/2 192/18/2 193/20/2
f 173/21/2 174/19/2 193/20/2
f 173/21/2 193/20/2 194/22/2
f 172/23/2 173/21/2 194/22/2
f 172/23/2 194/22/2 195/24/2
f 171/25/2 172/23/2 195/24/2
f 171/25/2 195/24/2 196/26/2
f 170/27/2 171/25/2 196/26/2
f 170/27/2 196/26/2 99/28/2
f 169/29/2 170/27/2 99/28/2
f 169/29/2 99/28/2 100/30/2
f 168/31/2 169/29/2 100/30/2
f 168/31/2 100/30/2 101/32/2
f 167/33/2 168/31/2 101/32/2
f 167/33/2 101/32/2 102/34/2
f 166/35/2 167/33/2 102/34/2
f 166/35/2 102/34/2 103/36/2
f 165/37/2 166/35/2 103/36/2
f 165/37/2 103/36/2 104/38/2
f 165/37/2 104/38/2 105/39/2
f 164/40/2 165/37/2 105/39/2
f 164/40/2 105/39/2 106/41/2
f 163/42/2 164/40/2 106/41/2
f 163/42/2 106/41/2 107/43/2
f 162/44/2 163/42/2 107/43/2
f 162/44/2 107/43/2 108/45/2
f 161/46/2 162/44/2 108/45/2
f 161/46/2 108/45/2 109/47/2
f 133/48/2 134/50/2 135/49/2
f 160/51/2 161/46/2 109/47/2
f 160/51/2 109/47/2 110/52/2
f 132/53/2 133/48/2 135/49/2
f 159/54/2 160/51/2 110/52/2
f 131/55/2 132/53/2 135/49/2
f 159/54/2 110/52/2 111/56/2
f 158/57/2 159/54/2 111/56/2
f 131/55/2 135/49/2 136/58/2
f 130/59/2 131/55/2 136/58/2
f 158/57/2 111/56/2 112/60/2
f 129/61/2 130/59/2 136/58/2
f 129/61/2 136/58/2 137/62/2
f 158/57/2 112/60/2 113/63/2
f 157/64/2 158/57/2 113/63/2
f 128/65/2 129/61/2 137/62/2
f 157/64/2 113/63/2 114/66/2
f 128/65/2 137/62/2 138/67/2
f 127/68/2 128/65/2 138/67/2
f 157/64/2 114/66/2 115/69/2
f 156/70/2 157/64/2 115/69/2
f 127/68/2 138/67/2 139/71/2
f 126/72/2 127/68/2 139/71/2
f 156/70/2 115/69/2 116/73/2
f 156/70/2 116/73/2 117/74/2
f 125/75/2 126/72/2 139/71/2
f 155/76/2 156/70/2 117/74/2
f 125/75/2 139/71/2 140/77/2
f 155/76/2 117/74/2 118/78/2
f 124/79/2 125/75/2 140/77/2
f 155/76/2 118/78/2 119/80/2
f 123/81/2 124/79/2 140/77/2
f 155/76/2 119/80/2 120/82/2
f 155/76/2 120/82/2 121/83/2
f 122/84/2 123/81/2 140/77/2
f 155/76/2 121/83/2 122/84/2
f 155/76/2 122/84/2 140/77/2
f 155/76/2 140/77/2 141/85/2
f 154/86/2 155/76/2 141/85/2
f 154/86/2 141/85/2 142/87/2
f 153/88/2 154/86/2 142/87/2
f 153/88/2 142/87/2 143/89/2
f 152/90/2 153/88/2 143/89/2
f 152/90/2 143/89/2 144/91/2
f 151/92/2 152/90/2 144/91/2
f 150/93/2 151/92/2 144/91/2
f 150/93/2 144/91/2 145/94/2
f 149/95/2 150/93/2 145/94/2
f 149/95/2 145/94/2 146/96/2
f 148/97/2 149/95/2 146/96/2
f 148/97/2 146/96/2 147/98/2
s 1
f 200/99/3 197/28/4 198/100/4
f 202/101/5 199/102/3 200/99/3
f 204/103/6 201/104/5 202/101/5
f 206/105/7 203/106/6 204/103/6
f 208/107/8 205/108/7 206/105/7
f 210/109/9 207/110/8 208/107/8
f 212/111/10 209/112/9 210/109/9
f 214/113/11 211/114/10 212/111/10
f 216/115/12 213/116/11 214/113/11
f 218/117/13 215/118/12 216/115/12
f 220/119/14 217/120/13 218/117/13
f 222/121/15 219/122/14 220/119/14
f 224/123/16 221/124/15 222/121/15
f 226/125/17 223/126/16 224/123/16
f 228/127/18 225/128/17 226/125/17
f 230/129/19 227/130/18 228/127/18
f 232/131/20 229/132/19 230/129/19
f 234/133/21 231/134/20 232/131/20
f 236/135/22 233/136/21 234/133/21
f 238/137/23 235/138/22 236/135/22
f 240/139/24 237/140/23 238/137/23
f 242/141/25 239/142/24 240/139/24
f 244/143/26 241/144/25 242/141/25
f 246/145/27 243/146/26 244/143/26
f 248/147/28 245/148/27 246/145/27
f 250/149/29 247/150/28 248/147/28
f 252/151/30 249/152/29 250/149/29
f 254/153/31 251/154/30 252/151/30
f 256/155/32 253/156/31 254/153/31
f 258/157/33 255/158/32 256/155/32
f 260/159/34 257/160/33 258/157/33
f 262/161/35 259/162/34 260/159/34
f 264/163/36 261/164/35 262/161/35
f 266/165/37 263/166/36 264/163/36
f 268/167/38 265/168/37 266/165/37
f 270/169/39 267/170/38 268/167/38
f 272/171/40 269/172/39 270/169/39
f 274/173/41 271/174/40 272/171/40
f 276/175/42 273/176/41 274/173/41
f 278/177/43 275/178/42 276/175/42
f 280/179/44 277/180/43 278/177/43
f 282/181/45 279/182/44 280/179/44
f 284/183/46 281/184/45 282/181/45
f 286/185/47 283/186/46 284/183/46
f 288/187/48 285/188/47 286/185/47
f 290/189/49 287/190/48 288/187/48
f 292/191/50 289/192/49 290/189/49
f 294/193/51 291/194/50 292/191/50
f 296/195/52 293/196/51 294/193/51
f 298/197/53 295/198/52 296/195/52
f 300/199/54 297/200/53 298/197/53
f 302/201/55 299/202/54 300/199/54
f 304/203/56 301/204/55 302/201/55
f 306/205/57 303/206/56 304/203/56
f 308/207/58 305/208/57 306/205/57
f 310/209/59 307/210/58 308/207/58
f 312/211/60 309/212/59 310/209/59
f 314/213/61 311/214/60 312/211/60
f 316/215/62 313/216/61 314/213/61
f 318/217/63 315/218/62 316/215/62
f 320/219/64 317/220/63 318/217/63
f 322/221/65 319/222/64 320/219/64
f 324/223/66 321/224/65 322/221/65
f 326/225/67 323/226/66 324/223/66
f 328/227/68 325/228/67 326/225/67
f 330/229/69 327/230/68 328/227/68
f 332/231/69 329/232/69 330/229/69
f 334/233/70 331/234/69 332/231/69
f 336/235/71 333/236/70 334/233/70
f 338/237/72 335/238/71 336/235/71
f 340/239/73 337/240/72 338/237/72
f 342/241/74 339/242/73 340/239/73
f 344/243/75 341/244/74 342/241/74
f 346/245/76 343/246/75 344/243/75
f 348/247/77 345/248/76 346/245/76
f 350/249/78 347/250/77 348/247/77
f 352/251/79 349/252/78 350/249/78
f 354/253/80 351/254/79 352/251/79
f 356/255/81 353/256/80 354/253/80
f 358/257/82 355/258/81 356/255/81
f 360/259/83 357/260/82 358/257/82
f 362/261/84 359/262/83 360/259/83
f 364/263/85 361/264/84 362/261/84
f 366/265/86 363/266/85 364/263/85
f 368/267/87 365/268/88 366/265/86
f 370/269/89 367/270/90 368/267/87
f 372/271/91 369/272/89 370/269/89
f 374/273/92 371/274/91 372/271/91
f 376/275/93 373/276/92 374/273/92
f 378/277/94 375/278/93 376/275/93
f 380/279/95 377/280/94 378/277/94
f 382/281/96 379/282/95 380/279/95
f 384/283/97 381/284/96 382/281/96
f 386/285/98 383/286/97 384/283/97
f 388/287/99 385/288/98 386/285/98
f 390/289/4 387/290/99 388/287/99
f 392/291/100 389/292/4 390/289/4
f 198/293/4 391/294/100 392/291/100
f 200/99/3 199/102/3 197/28/4
f 202/101/5 201/104/5 199/102/3
f 204/103/6 203/106/6 201/104/5
f 206/105/7 205/108/7 203/106/6
f 208/107/8 207/110/8 205/108/7
f 210/109/9 209/112/9 207/110/8
f 212/111/10 211/114/10 209/112/9
f 214/113/11 213/116/11 211/114/10
f 216/115/12 215/118/12 213/116/11
f 218/117/13 217/120/13 215/118/12
f 220/119/14 219/122/14 217/120/13
f 222/121/15 221/124/15 219/122/14
f 224/123/16 223/126/16 221/124/15
f 226/125/17 225/128/17 223/126/16
f 228/127/18 227/130/18 225/128/17
f 230/129/19 229/132/19 227/130/18
f 232/131/20 231/134/20 229/132/19
f 234/133/21 233/136/21 231/134/20
f 236/135/22 235/138/22 233/136/21
f 238/137/23 237/140/23 235/138/22
f 240/139/24 239/142/24 237/140/23
f 242/141/25 241/144/25 239/142/24
f 244/143/26 243/146/26 241/144/25
f 246/145/27 245/148/27 243/146/26
f 248/147/28 247/150/28 245/148/27
f 250/149/29 249/152/29 247/150/28
f 252/151/30 251/154/30 249/152/29
f 254/153/31 253/156/31 251/154/30
f 256/155/32 255/158/32 253/156/31
f 258/157/33 257/160/33 255/158/32
f 260/159/34 259/162/34 257/160/33
f 262/161/35 261/164/35 259/162/34
f 264/163/36 263/166/36 261/164/35
f 266/165/37 265/168/37 263/166/36
f 268/167/38 267/170/38 265/168/37
f 270/169/39 269/172/39 267/170/38
f 272/171/40 271/174/40 269/172/39
f 274/173/41 273/176/41 271/174/40
f 276/175/42 275/178/42 273/176/41
f 278/177/43 277/180/43 275/178/42
f 280/179/44 279/182/44 277/180/43
f 282/181/45 281/184/45 279/182/44
f 284/183/46 283/186/46 281/184/45
f 286/185/47 285/188/47 283/186/46
f 288/187/48 287/190/48 285/188/47
f 290/189/49 289/192/49 287/190/48
f 292/191/50 291/194/50 289/192/49
f 294/193/51 293/196/51 291/194/50
f 296/195/52 295/198/52 293/196/51
f 298/197/53 297/200/53 295/198/52
f 300/199/54 299/202/54 297/200/53
f 302/201/55 301/204/55 299/202/54
f 304/203/56 303/206/56 301/204/55
f 306/205/57 305/208/57 303/206/56
f 308/207/58 307/210/58 305/208/57
f 310/209/59 309/212/59 307/210/58
f 312/211/60 311/214/60 309/212/59
f 314/213/61 313/216/61 311/214/60
f 316/215/62 315/218/62 313/216/61
f 318/217/63 317/220/63 315/218/62
f 320/219/64 319/222/64 317/220/63
f 322/221/65 321/224/65 319/222/64
f 324/223/66 323/226/66 321/224/65
f 326/225/67 325/228/67 323/226/66
f 328/227/68 327/230/68 325/228/67
f 330/229/69 329/232/69 327/230/68
f 332/231/69 331/234/69 329/232/69
f 334/233/70 333/236/70 331/234/69
f 336/235/71 335/238/71 333/236/70
f 338/237/72 337/240/72 335/238/71
f 340/239/73 339/242/73 337/240/72
f 342/241/74 341/244/74 339/242/73
f 344/243/75 343/246/75 341/244/74
f 346/245/76 345/248/76 343/246/75
f 348/247/77 347/250/77 345/248/76
f 350/249/78 349/252/78 347/250/77
f 352/251/79 351/254/79 349/252/78
f 354/253/80 353/256/80 351/254/79
f 356/255/81 355/258/81 353/256/80
f 358/257/82 357/260/82 355/258/81
f 360/259/83 359/262/83 357/260/82
f 362/261/84 361/264/84 359/262/83
f 364/263/85 363/266/85 361/264/84
f 366/265/86 365/268/88 363/266/85
f 368/267/87 367/270/90 365/268/88
f 370/269/89 369/272/89 367/270/90
f 372/271/91 371/274/91 369/272/89
f 374/273/92 373/276/92 371/274/91
f 376/275/93 375/278/93 373/276/92
f 378/277/94 377/280/94 375/278/93
f 380/279/95 379/282/95 377/280/94
f 382/281/96 381/284/96 379/282/95
f 384/283/97 383/286/97 381/284/96
f 386/285/98 385/288/98 383/286/97
f 388/287/99 387/290/99 385/288/98
f 390/289/4 389/292/4 387/290/99
f 392/291/100 391/294/100 389/292/4
f 198/293/4 197/26/4 391/294/100
