# Blender 4.1.1
# www.blender.org
mtllib go.mtl
o Text.005
v -0.248493 0.158056 -0.020000
v -0.252832 0.142284 -0.020000
v -0.260077 0.127638 -0.020000
v -0.270338 0.114063 -0.020000
v -0.283772 0.101582 -0.020000
v -0.300526 0.090296 -0.020000
v -0.320699 0.080355 -0.020000
v -0.344345 0.071916 -0.020000
v -0.371489 0.065131 -0.020000
v -0.402144 0.060136 -0.020000
v -0.436315 0.057055 -0.020000
v -0.474094 0.056001 -0.020000
v -0.508106 0.056308 -0.020000
v -0.541680 0.057216 -0.020000
v -0.574565 0.058704 -0.020000
v -0.606600 0.060751 -0.020000
v -0.637626 0.063336 -0.020000
v -0.667484 0.066435 -0.020000
v -0.696012 0.070028 -0.020000
v -0.723049 0.074091 -0.020000
v -0.748429 0.078600 -0.020000
v -0.771986 0.083529 -0.020000
v -0.793548 0.088849 -0.020000
v -0.825846 0.098301 -0.020000
v -0.827091 -0.008803 -0.020000
v -0.800355 -0.015425 -0.020000
v -0.778977 -0.019997 -0.020000
v -0.755582 -0.024338 -0.020000
v -0.730298 -0.028409 -0.020000
v -0.703254 -0.032166 -0.020000
v -0.674584 -0.035567 -0.020000
v -0.644422 -0.038567 -0.020000
v -0.612904 -0.041123 -0.020000
v -0.580166 -0.043189 -0.020000
v -0.546345 -0.044721 -0.020000
v -0.511576 -0.045673 -0.020000
v -0.475904 -0.046001 -0.020000
v -0.426441 -0.044596 -0.020000
v -0.380459 -0.040379 -0.020000
v -0.338146 -0.033358 -0.020000
v -0.299598 -0.023529 -0.020000
v -0.264924 -0.010874 -0.020000
v -0.234244 0.004639 -0.020000
v -0.207715 0.023047 -0.020000
v -0.185541 0.044370 -0.020000
v -0.167967 0.068570 -0.020000
v -0.155239 0.095528 -0.020000
v -0.147542 0.125058 -0.020000
v -0.144993 0.156684 -0.020000
v -0.145227 0.170233 -0.020000
v -0.145882 0.183231 -0.020000
v -0.146920 0.195985 -0.020000
v -0.148297 0.208484 -0.020000
v -0.149969 0.220722 -0.020000
v -0.151893 0.232691 -0.020000
v -0.154026 0.244383 -0.020000
v -0.156323 0.255791 -0.020000
v -0.158742 0.266907 -0.020000
v -0.161239 0.277722 -0.020000
v -0.163772 0.288230 -0.020000
v -0.168374 0.306802 -0.020000
v -0.270315 0.296734 -0.020000
v -0.263428 0.275330 -0.020000
v -0.260621 0.265911 -0.020000
v -0.258068 0.256573 -0.020000
v -0.255774 0.247310 -0.020000
v -0.253740 0.238115 -0.020000
v -0.251968 0.228980 -0.020000
v -0.250462 0.219898 -0.020000
v -0.249223 0.210860 -0.020000
v -0.248256 0.201860 -0.020000
v -0.247561 0.192889 -0.020000
v -0.247142 0.183939 -0.020000
v -0.247007 0.175350 -0.020000
v -0.505005 0.689122 -0.020000
v -0.529139 0.689480 -0.020000
v -0.553279 0.690059 -0.020000
v -0.577297 0.690845 -0.020000
v -0.601067 0.691826 -0.020000
v -0.624463 0.692986 -0.020000
v -0.647359 0.694312 -0.020000
v -0.669628 0.695790 -0.020000
v -0.691143 0.697406 -0.020000
v -0.711778 0.699146 -0.020000
v -0.731404 0.700995 -0.020000
v -0.761000 0.704107 -0.020000
v -0.761000 0.601696 -0.020000
v -0.733885 0.599738 -0.020000
v -0.714526 0.598398 -0.020000
v -0.693857 0.597036 -0.020000
v -0.672079 0.595685 -0.020000
v -0.649394 0.594375 -0.020000
v -0.626001 0.593138 -0.020000
v -0.602101 0.592005 -0.020000
v -0.577895 0.591007 -0.020000
v -0.553582 0.590176 -0.020000
v -0.529363 0.589544 -0.020000
v -0.505435 0.589141 -0.020000
v -0.482014 0.589000 -0.020000
v -0.457010 0.589083 -0.020000
v -0.432651 0.589330 -0.020000
v -0.408887 0.589736 -0.020000
v -0.385684 0.590300 -0.020000
v -0.363007 0.591017 -0.020000
v -0.340822 0.591884 -0.020000
v -0.319094 0.592897 -0.020000
v -0.297790 0.594054 -0.020000
v -0.276875 0.595350 -0.020000
v -0.256314 0.596781 -0.020000
v -0.236073 0.598346 -0.020000
v -0.207000 0.600813 -0.020000
v -0.207000 0.702095 -0.020000
v -0.236381 0.699036 -0.020000
v -0.255461 0.697297 -0.020000
v -0.275300 0.695723 -0.020000
v -0.295857 0.694313 -0.020000
v -0.317088 0.693069 -0.020000
v -0.338950 0.691990 -0.020000
v -0.361400 0.691077 -0.020000
v -0.384397 0.690329 -0.020000
v -0.407898 0.689748 -0.020000
v -0.431860 0.689332 -0.020000
v -0.456242 0.689083 -0.020000
v -0.480991 0.689000 -0.020000
v -0.802368 0.626836 -0.020000
v -0.792789 0.646142 -0.020000
v -0.787049 0.657363 -0.020000
v -0.780863 0.669125 -0.020000
v -0.774301 0.681274 -0.020000
v -0.767437 0.693658 -0.020000
v -0.760340 0.706125 -0.020000
v -0.753082 0.718522 -0.020000
v -0.745736 0.730695 -0.020000
v -0.738374 0.742492 -0.020000
v -0.731072 0.753757 -0.020000
v -0.723905 0.764333 -0.020000
v -0.709622 0.784320 -0.020000
v -0.782649 0.815423 -0.020000
v -0.793783 0.799036 -0.020000
v -0.800698 0.788479 -0.020000
v -0.807875 0.777194 -0.020000
v -0.815227 0.765342 -0.020000
v -0.822669 0.753083 -0.020000
v -0.830112 0.740582 -0.020000
v -0.837469 0.728002 -0.020000
v -0.844651 0.715506 -0.020000
v -0.851569 0.703260 -0.020000
v -0.858135 0.691426 -0.020000
v -0.864259 0.680168 -0.020000
v -0.874791 0.660365 -0.020000
v -0.914287 0.669033 -0.020000
v -0.904591 0.688498 -0.020000
v -0.898721 0.699864 -0.020000
v -0.892460 0.711592 -0.020000
v -0.885865 0.723562 -0.020000
v -0.878995 0.735658 -0.020000
v -0.871906 0.747761 -0.020000
v -0.864657 0.759755 -0.020000
v -0.857304 0.771520 -0.020000
v -0.849906 0.782940 -0.020000
v -0.842525 0.793895 -0.020000
v -0.835219 0.804265 -0.020000
v -0.820466 0.824160 -0.020000
v -0.892442 0.855395 -0.020000
v -0.904156 0.838972 -0.020000
v -0.911568 0.828174 -0.020000
v -0.919218 0.816678 -0.020000
v -0.927012 0.804656 -0.020000
v -0.934852 0.792284 -0.020000
v -0.942643 0.779739 -0.020000
v -0.950284 0.767199 -0.020000
v -0.957677 0.754839 -0.020000
v -0.964723 0.742839 -0.020000
v -0.971324 0.731375 -0.020000
v -0.977382 0.720622 -0.020000
v -0.988035 0.701214 -0.020000
v -0.248493 0.158056 0.020000
v -0.252832 0.142284 0.020000
v -0.260077 0.127638 0.020000
v -0.270338 0.114063 0.020000
v -0.283772 0.101582 0.020000
v -0.300526 0.090296 0.020000
v -0.320699 0.080355 0.020000
v -0.344345 0.071916 0.020000
v -0.371489 0.065131 0.020000
v -0.402144 0.060136 0.020000
v -0.436315 0.057055 0.020000
v -0.474094 0.056001 0.020000
v -0.508106 0.056308 0.020000
v -0.541680 0.057216 0.020000
v -0.574565 0.058704 0.020000
v -0.606600 0.060751 0.020000
v -0.637626 0.063336 0.020000
v -0.667484 0.066435 0.020000
v -0.696012 0.070028 0.020000
v -0.723049 0.074091 0.020000
v -0.748429 0.078600 0.020000
v -0.771986 0.083529 0.020000
v -0.793548 0.088849 0.020000
v -0.825846 0.098301 0.020000
v -0.827091 -0.008803 0.020000
v -0.800355 -0.015425 0.020000
v -0.778977 -0.019997 0.020000
v -0.755582 -0.024338 0.020000
v -0.730298 -0.028409 0.020000
v -0.703254 -0.032166 0.020000
v -0.674584 -0.035567 0.020000
v -0.644422 -0.038567 0.020000
v -0.612904 -0.041123 0.020000
v -0.580166 -0.043189 0.020000
v -0.546345 -0.044721 0.020000
v -0.511576 -0.045673 0.020000
v -0.475904 -0.046001 0.020000
v -0.426441 -0.044596 0.020000
v -0.380459 -0.040379 0.020000
v -0.338146 -0.033358 0.020000
v -0.299598 -0.023529 0.020000
v -0.264924 -0.010874 0.020000
v -0.234244 0.004639 0.020000
v -0.207715 0.023047 0.020000
v -0.185541 0.044370 0.020000
v -0.167967 0.068570 0.020000
v -0.155239 0.095528 0.020000
v -0.147542 0.125058 0.020000
v -0.144993 0.156684 0.020000
v -0.145227 0.170233 0.020000
v -0.145882 0.183231 0.020000
v -0.146920 0.195985 0.020000
v -0.148297 0.208484 0.020000
v -0.149969 0.220722 0.020000
v -0.151893 0.232691 0.020000
v -0.154026 0.244383 0.020000
v -0.156323 0.255791 0.020000
v -0.158742 0.266907 0.020000
v -0.161239 0.277722 0.020000
v -0.163772 0.288230 0.020000
v -0.168374 0.306802 0.020000
v -0.270315 0.296734 0.020000
v -0.263428 0.275330 0.020000
v -0.260621 0.265911 0.020000
v -0.258068 0.256573 0.020000
v -0.255774 0.247310 0.020000
v -0.253740 0.238115 0.020000
v -0.251968 0.228980 0.020000
v -0.250462 0.219898 0.020000
v -0.249223 0.210860 0.020000
v -0.248256 0.201860 0.020000
v -0.247561 0.192889 0.020000
v -0.247142 0.183939 0.020000
v -0.247007 0.175350 0.020000
v -0.505005 0.689122 0.020000
v -0.529139 0.689480 0.020000
v -0.553279 0.690059 0.020000
v -0.577297 0.690845 0.020000
v -0.601067 0.691826 0.020000
v -0.624463 0.692986 0.020000
v -0.647359 0.694312 0.020000
v -0.669628 0.695790 0.020000
v -0.691143 0.697406 0.020000
v -0.711778 0.699146 0.020000
v -0.731404 0.700995 0.020000
v -0.761000 0.704107 0.020000
v -0.761000 0.601696 0.020000
v -0.733885 0.599738 0.020000
v -0.714526 0.598398 0.020000
v -0.693857 0.597036 0.020000
v -0.672079 0.595685 0.020000
v -0.649394 0.594375 0.020000
v -0.626001 0.593138 0.020000
v -0.602101 0.592005 0.020000
v -0.577895 0.591007 0.020000
v -0.553582 0.590176 0.020000
v -0.529363 0.589544 0.020000
v -0.505435 0.589141 0.020000
v -0.482014 0.589000 0.020000
v -0.457010 0.589083 0.020000
v -0.432651 0.589330 0.020000
v -0.408887 0.589736 0.020000
v -0.385684 0.590300 0.020000
v -0.363007 0.591017 0.020000
v -0.340822 0.591884 0.020000
v -0.319094 0.592897 0.020000
v -0.297790 0.594054 0.020000
v -0.276875 0.595350 0.020000
v -0.256314 0.596781 0.020000
v -0.236073 0.598346 0.020000
v -0.207000 0.600813 0.020000
v -0.207000 0.702095 0.020000
v -0.236381 0.699036 0.020000
v -0.255461 0.697297 0.020000
v -0.275300 0.695723 0.020000
v -0.295857 0.694313 0.020000
v -0.317088 0.693069 0.020000
v -0.338950 0.691990 0.020000
v -0.361400 0.691077 0.020000
v -0.384397 0.690329 0.020000
v -0.407898 0.689748 0.020000
v -0.431860 0.689332 0.020000
v -0.456242 0.689083 0.020000
v -0.480991 0.689000 0.020000
v -0.802368 0.626836 0.020000
v -0.792789 0.646142 0.020000
v -0.787049 0.657363 0.020000
v -0.780863 0.669125 0.020000
v -0.774301 0.681274 0.020000
v -0.767437 0.693658 0.020000
v -0.760340 0.706125 0.020000
v -0.753082 0.718522 0.020000
v -0.745736 0.730695 0.020000
v -0.738374 0.742492 0.020000
v -0.731072 0.753757 0.020000
v -0.723905 0.764333 0.020000
v -0.709622 0.784320 0.020000
v -0.782649 0.815423 0.020000
v -0.793783 0.799036 0.020000
v -0.800698 0.788479 0.020000
v -0.807875 0.777194 0.020000
v -0.815227 0.765342 0.020000
v -0.822669 0.753083 0.020000
v -0.830112 0.740582 0.020000
v -0.837469 0.728002 0.020000
v -0.844651 0.715506 0.020000
v -0.851569 0.703260 0.020000
v -0.858135 0.691426 0.020000
v -0.864259 0.680168 0.020000
v -0.874791 0.660365 0.020000
v -0.914287 0.669033 0.020000
v -0.904591 0.688498 0.020000
v -0.898721 0.699864 0.020000
v -0.892460 0.711592 0.020000
v -0.885865 0.723562 0.020000
v -0.878995 0.735658 0.020000
v -0.871906 0.747761 0.020000
v -0.864657 0.759755 0.020000
v -0.857304 0.771520 0.020000
v -0.849906 0.782940 0.020000
v -0.842525 0.793895 0.020000
v -0.835219 0.804265 0.020000
v -0.820466 0.824160 0.020000
v -0.892442 0.855395 0.020000
v -0.904156 0.838972 0.020000
v -0.911568 0.828174 0.020000
v -0.919218 0.816678 0.020000
v -0.927012 0.804656 0.020000
v -0.934852 0.792284 0.020000
v -0.942643 0.779739 0.020000
v -0.950284 0.767199 0.020000
v -0.957677 0.754839 0.020000
v -0.964723 0.742839 0.020000
v -0.971324 0.731375 0.020000
v -0.977382 0.720622 0.020000
v -0.988035 0.701214 0.020000
v -0.505005 0.689122 0.020000
v -0.505005 0.689122 -0.020000
v -0.529139 0.689480 0.020000
v -0.529139 0.689480 -0.020000
v -0.553279 0.690059 0.020000
v -0.553279 0.690059 -0.020000
v -0.577297 0.690845 0.020000
v -0.577297 0.690845 -0.020000
v -0.601067 0.691826 0.020000
v -0.601067 0.691826 -0.020000
v -0.624463 0.692986 0.020000
v -0.624463 0.692986 -0.020000
v -0.647359 0.694312 0.020000
v -0.647359 0.694312 -0.020000
v -0.669628 0.695790 0.020000
v -0.669628 0.695790 -0.020000
v -0.691143 0.697406 0.020000
v -0.691143 0.697406 -0.020000
v -0.711778 0.699146 0.020000
v -0.711778 0.699146 -0.020000
v -0.731404 0.700995 0.020000
v -0.731404 0.700995 -0.020000
v -0.761000 0.704107 0.020000
v -0.761000 0.704107 -0.020000
v -0.761000 0.601696 0.020000
v -0.761000 0.601696 -0.020000
v -0.733885 0.599738 0.020000
v -0.733885 0.599738 -0.020000
v -0.714526 0.598398 0.020000
v -0.714526 0.598398 -0.020000
v -0.693857 0.597036 0.020000
v -0.693857 0.597036 -0.020000
v -0.672079 0.595685 0.020000
v -0.672079 0.595685 -0.020000
v -0.649394 0.594375 0.020000
v -0.649394 0.594375 -0.020000
v -0.626001 0.593138 0.020000
v -0.626001 0.593138 -0.020000
v -0.602101 0.592005 0.020000
v -0.602101 0.592005 -0.020000
v -0.577895 0.591007 0.020000
v -0.577895 0.591007 -0.020000
v -0.553582 0.590176 0.020000
v -0.553582 0.590176 -0.020000
v -0.529363 0.589544 0.020000
v -0.529363 0.589544 -0.020000
v -0.505435 0.589141 0.020000
v -0.505435 0.589141 -0.020000
v -0.482014 0.589000 0.020000
v -0.482014 0.589000 -0.020000
v -0.457010 0.589083 0.020000
v -0.457010 0.589083 -0.020000
v -0.432651 0.589330 0.020000
v -0.432651 0.589330 -0.020000
v -0.408887 0.589736 0.020000
v -0.408887 0.589736 -0.020000
v -0.385684 0.590300 0.020000
v -0.385684 0.590300 -0.020000
v -0.363007 0.591017 0.020000
v -0.363007 0.591017 -0.020000
v -0.340822 0.591884 0.020000
v -0.340822 0.591884 -0.020000
v -0.319094 0.592897 0.020000
v -0.319094 0.592897 -0.020000
v -0.297790 0.594054 0.020000
v -0.297790 0.594054 -0.020000
v -0.276875 0.595350 0.020000
v -0.276875 0.595350 -0.020000
v -0.256314 0.596781 0.020000
v -0.256314 0.596781 -0.020000
v -0.236073 0.598346 0.020000
v -0.236073 0.598346 -0.020000
v -0.207000 0.600813 0.020000
v -0.207000 0.600813 -0.020000
v -0.207000 0.702095 0.020000
v -0.207000 0.702095 -0.020000
v -0.236381 0.699036 0.020000
v -0.236381 0.699036 -0.020000
v -0.255461 0.697297 0.020000
v -0.255461 0.697297 -0.020000
v -0.275300 0.695723 0.020000
v -0.275300 0.695723 -0.020000
v -0.295857 0.694313 0.020000
v -0.295857 0.694313 -0.020000
v -0.317088 0.693069 0.020000
v -0.317088 0.693069 -0.020000
v -0.338950 0.691990 0.020000
v -0.338950 0.691990 -0.020000
v -0.361400 0.691077 0.020000
v -0.361400 0.691077 -0.020000
v -0.384397 0.690329 0.020000
v -0.384397 0.690329 -0.020000
v -0.407898 0.689748 0.020000
v -0.407898 0.689748 -0.020000
v -0.431860 0.689332 0.020000
v -0.431860 0.689332 -0.020000
v -0.456242 0.689083 0.020000
v -0.456242 0.689083 -0.020000
v -0.480991 0.689000 0.020000
v -0.480991 0.689000 -0.020000
v -0.248493 0.158056 0.020000
v -0.248493 0.158056 -0.020000
v -0.252832 0.142284 0.020000
v -0.252832 0.142284 -0.020000
v -0.260077 0.127638 0.020000
v -0.260077 0.127638 -0.020000
v -0.270338 0.114063 0.020000
v -0.270338 0.114063 -0.020000
v -0.283772 0.101582 0.020000
v -0.283772 0.101582 -0.020000
v -0.300526 0.090296 0.020000
v -0.300526 0.090296 -0.020000
v -0.320699 0.080355 0.020000
v -0.320699 0.080355 -0.020000
v -0.344345 0.071916 0.020000
v -0.344345 0.071916 -0.020000
v -0.371489 0.065131 0.020000
v -0.371489 0.065131 -0.020000
v -0.402144 0.060136 0.020000
v -0.402144 0.060136 -0.020000
v -0.436315 0.057055 0.020000
v -0.436315 0.057055 -0.020000
v -0.474094 0.056001 0.020000
v -0.474094 0.056001 -0.020000
v -0.508106 0.056308 0.020000
v -0.508106 0.056308 -0.020000
v -0.541680 0.057216 0.020000
v -0.541680 0.057216 -0.020000
v -0.574565 0.058704 0.020000
v -0.574565 0.058704 -0.020000
v -0.606600 0.060751 0.020000
v -0.606600 0.060751 -0.020000
v -0.637626 0.063336 0.020000
v -0.637626 0.063336 -0.020000
v -0.667484 0.066435 0.020000
v -0.667484 0.066435 -0.020000
v -0.696012 0.070028 0.020000
v -0.696012 0.070028 -0.020000
v -0.723049 0.074091 0.020000
v -0.723049 0.074091 -0.020000
v -0.748429 0.078600 0.020000
v -0.748429 0.078600 -0.020000
v -0.771986 0.083529 0.020000
v -0.771986 0.083529 -0.020000
v -0.793548 0.088849 0.020000
v -0.793548 0.088849 -0.020000
v -0.825846 0.098301 0.020000
v -0.825846 0.098301 -0.020000
v -0.827091 -0.008803 0.020000
v -0.827091 -0.008803 -0.020000
v -0.800355 -0.015425 0.020000
v -0.800355 -0.015425 -0.020000
v -0.778977 -0.019997 0.020000
v -0.778977 -0.019997 -0.020000
v -0.755582 -0.024338 0.020000
v -0.755582 -0.024338 -0.020000
v -0.730298 -0.028409 0.020000
v -0.730298 -0.028409 -0.020000
v -0.703254 -0.032166 0.020000
v -0.703254 -0.032166 -0.020000
v -0.674584 -0.035567 0.020000
v -0.674584 -0.035567 -0.020000
v -0.644422 -0.038567 0.020000
v -0.644422 -0.038567 -0.020000
v -0.612904 -0.041123 0.020000
v -0.612904 -0.041123 -0.020000
v -0.580166 -0.043189 0.020000
v -0.580166 -0.043189 -0.020000
v -0.546345 -0.044721 0.020000
v -0.546345 -0.044721 -0.020000
v -0.511576 -0.045673 0.020000
v -0.511576 -0.045673 -0.020000
v -0.475904 -0.046001 0.020000
v -0.475904 -0.046001 -0.020000
v -0.426441 -0.044596 0.020000
v -0.426441 -0.044596 -0.020000
v -0.380459 -0.040379 0.020000
v -0.380459 -0.040379 -0.020000
v -0.338146 -0.033358 0.020000
v -0.338146 -0.033358 -0.020000
v -0.299598 -0.023529 0.020000
v -0.299598 -0.023529 -0.020000
v -0.264924 -0.010874 0.020000
v -0.264924 -0.010874 -0.020000
v -0.234244 0.004639 0.020000
v -0.234244 0.004639 -0.020000
v -0.207715 0.023047 0.020000
v -0.207715 0.023047 -0.020000
v -0.185541 0.044370 0.020000
v -0.185541 0.044370 -0.020000
v -0.167967 0.068570 0.020000
v -0.167967 0.068570 -0.020000
v -0.155239 0.095528 0.020000
v -0.155239 0.095528 -0.020000
v -0.147542 0.125058 0.020000
v -0.147542 0.125058 -0.020000
v -0.144993 0.156684 0.020000
v -0.144993 0.156684 -0.020000
v -0.145227 0.170233 0.020000
v -0.145227 0.170233 -0.020000
v -0.145882 0.183231 0.020000
v -0.145882 0.183231 -0.020000
v -0.146920 0.195985 0.020000
v -0.146920 0.195985 -0.020000
v -0.148297 0.208484 0.020000
v -0.148297 0.208484 -0.020000
v -0.149969 0.220722 0.020000
v -0.149969 0.220722 -0.020000
v -0.151893 0.232691 0.020000
v -0.151893 0.232691 -0.020000
v -0.154026 0.244383 0.020000
v -0.154026 0.244383 -0.020000
v -0.156323 0.255791 0.020000
v -0.156323 0.255791 -0.020000
v -0.158742 0.266907 0.020000
v -0.158742 0.266907 -0.020000
v -0.161239 0.277722 0.020000
v -0.161239 0.277722 -0.020000
v -0.163772 0.288230 0.020000
v -0.163772 0.288230 -0.020000
v -0.168374 0.306802 0.020000
v -0.168374 0.306802 -0.020000
v -0.270315 0.296734 0.020000
v -0.270315 0.296734 -0.020000
v -0.263428 0.275330 0.020000
v -0.263428 0.275330 -0.020000
v -0.260621 0.265911 0.020000
v -0.260621 0.265911 -0.020000
v -0.258068 0.256573 0.020000
v -0.258068 0.256573 -0.020000
v -0.255774 0.247310 0.020000
v -0.255774 0.247310 -0.020000
v -0.253740 0.238115 0.020000
v -0.253740 0.238115 -0.020000
v -0.251968 0.228980 0.020000
v -0.251968 0.228980 -0.020000
v -0.250462 0.219898 0.020000
v -0.250462 0.219898 -0.020000
v -0.249223 0.210860 0.020000
v -0.249223 0.210860 -0.020000
v -0.248256 0.201860 0.020000
v -0.248256 0.201860 -0.020000
v -0.247561 0.192889 0.020000
v -0.247561 0.192889 -0.020000
v -0.247142 0.183939 0.020000
v -0.247142 0.183939 -0.020000
v -0.247007 0.175350 0.020000
v -0.247007 0.175350 -0.020000
v -0.802368 0.626836 0.020000
v -0.802368 0.626836 -0.020000
v -0.792789 0.646142 0.020000
v -0.792789 0.646142 -0.020000
v -0.787049 0.657363 0.020000
v -0.787049 0.657363 -0.020000
v -0.780863 0.669125 0.020000
v -0.780863 0.669125 -0.020000
v -0.774301 0.681274 0.020000
v -0.774301 0.681274 -0.020000
v -0.767437 0.693658 0.020000
v -0.767437 0.693658 -0.020000
v -0.760340 0.706125 0.020000
v -0.760340 0.706125 -0.020000
v -0.753082 0.718522 0.020000
v -0.753082 0.718522 -0.020000
v -0.745736 0.730695 0.020000
v -0.745736 0.730695 -0.020000
v -0.738374 0.742492 0.020000
v -0.738374 0.742492 -0.020000
v -0.731072 0.753757 0.020000
v -0.731072 0.753757 -0.020000
v -0.723905 0.764333 0.020000
v -0.723905 0.764333 -0.020000
v -0.709622 0.784320 0.020000
v -0.709622 0.784320 -0.020000
v -0.782649 0.815423 0.020000
v -0.782649 0.815423 -0.020000
v -0.793783 0.799036 0.020000
v -0.793783 0.799036 -0.020000
v -0.800698 0.788479 0.020000
v -0.800698 0.788479 -0.020000
v -0.807875 0.777194 0.020000
v -0.807875 0.777194 -0.020000
v -0.815227 0.765342 0.020000
v -0.815227 0.765342 -0.020000
v -0.822669 0.753083 0.020000
v -0.822669 0.753083 -0.020000
v -0.830112 0.740582 0.020000
v -0.830112 0.740582 -0.020000
v -0.837469 0.728002 0.020000
v -0.837469 0.728002 -0.020000
v -0.844651 0.715506 0.020000
v -0.844651 0.715506 -0.020000
v -0.851569 0.703260 0.020000
v -0.851569 0.703260 -0.020000
v -0.858135 0.691426 0.020000
v -0.858135 0.691426 -0.020000
v -0.864259 0.680168 0.020000
v -0.864259 0.680168 -0.020000
v -0.874791 0.660365 0.020000
v -0.874791 0.660365 -0.020000
v -0.914287 0.669033 0.020000
v -0.914287 0.669033 -0.020000
v -0.904591 0.688498 0.020000
v -0.904591 0.688498 -0.020000
v -0.898721 0.699864 0.020000
v -0.898721 0.699864 -0.020000
v -0.892460 0.711592 0.020000
v -0.892460 0.711592 -0.020000
v -0.885865 0.723562 0.020000
v -0.885865 0.723562 -0.020000
v -0.878995 0.735658 0.020000
v -0.878995 0.735658 -0.020000
v -0.871906 0.747761 0.020000
v -0.871906 0.747761 -0.020000
v -0.864657 0.759755 0.020000
v -0.864657 0.759755 -0.020000
v -0.857304 0.771520 0.020000
v -0.857304 0.771520 -0.020000
v -0.849906 0.782940 0.020000
v -0.849906 0.782940 -0.020000
v -0.842525 0.793895 0.020000
v -0.842525 0.793895 -0.020000
v -0.835219 0.804265 0.020000
v -0.835219 0.804265 -0.020000
v -0.820466 0.824160 0.020000
v -0.820466 0.824160 -0.020000
v -0.892442 0.855395 0.020000
v -0.892442 0.855395 -0.020000
v -0.904156 0.838972 0.020000
v -0.904156 0.838972 -0.020000
v -0.911568 0.828174 0.020000
v -0.911568 0.828174 -0.020000
v -0.919218 0.816678 0.020000
v -0.919218 0.816678 -0.020000
v -0.927012 0.804656 0.020000
v -0.927012 0.804656 -0.020000
v -0.934852 0.792284 0.020000
v -0.934852 0.792284 -0.020000
v -0.942643 0.779739 0.020000
v -0.942643 0.779739 -0.020000
v -0.950284 0.767199 0.020000
v -0.950284 0.767199 -0.020000
v -0.957677 0.754839 0.020000
v -0.957677 0.754839 -0.020000
v -0.964723 0.742839 0.020000
v -0.964723 0.742839 -0.020000
v -0.971324 0.731375 0.020000
v -0.971324 0.731375 -0.020000
v -0.977382 0.720622 0.020000
v -0.977382 0.720622 -0.020000
v -0.988035 0.701214 0.020000
v -0.988035 0.701214 -0.020000
vn -0.0000 -0.0000 -1.0000
vn -0.0000 -0.0000 1.0000
vn 0.0194 0.9998 -0.0000
vn 0.0099 1.0000 -0.0000
vn 0.0100 1.0000 -0.0000
vn 0.0284 0.9996 -0.0000
vn 0.0370 0.9993 -0.0000
vn 0.0454 0.9990 -0.0000
vn 0.0537 0.9986 -0.0000
vn 0.0620 0.9981 -0.0000
vn 0.0706 0.9975 -0.0000
vn 0.0795 0.9968 -0.0000
vn 0.0889 0.9960 -0.0000
vn 0.0992 0.9951 -0.0000
vn -0.6691 0.7432 -0.0000
vn -0.7321 -0.6812 -0.0000
vn -0.0705 -0.9975 -0.0000
vn -0.0674 -0.9977 -0.0000
vn -0.0638 -0.9980 -0.0000
vn -0.0598 -0.9982 -0.0000
vn -0.0552 -0.9985 -0.0000
vn -0.0501 -0.9987 -0.0000
vn -0.0443 -0.9990 -0.0000
vn -0.0377 -0.9993 -0.0000
vn -0.0301 -0.9995 -0.0000
vn -0.0215 -0.9998 -0.0000
vn -0.0114 -0.9999 -0.0000
vn -0.0014 -1.0000 -0.0000
vn 0.0067 -1.0000 -0.0000
vn 0.0136 -0.9999 -0.0000
vn 0.0207 -0.9998 -0.0000
vn 0.0279 -0.9996 -0.0000
vn 0.0353 -0.9994 -0.0000
vn 0.0428 -0.9991 -0.0000
vn 0.0504 -0.9987 -0.0000
vn 0.0580 -0.9983 -0.0000
vn 0.0657 -0.9978 -0.0000
vn 0.0733 -0.9973 -0.0000
vn 0.0808 -0.9967 -0.0000
vn 0.7364 -0.6766 -0.0000
vn 0.6695 0.7428 -0.0000
vn -0.0972 0.9953 -0.0000
vn -0.0849 0.9964 -0.0000
vn -0.0738 0.9973 -0.0000
vn -0.0635 0.9980 -0.0000
vn -0.0539 0.9985 -0.0000
vn -0.0450 0.9990 -0.0000
vn -0.0366 0.9993 -0.0000
vn -0.0286 0.9996 -0.0000
vn -0.0210 0.9998 -0.0000
vn -0.0138 0.9999 -0.0000
vn -0.0068 1.0000 -0.0000
vn 0.0009 1.0000 -0.0000
vn -0.9345 0.3560 -0.0000
vn -0.9844 0.1762 -0.0000
vn -0.8508 0.5255 -0.0000
vn -0.9345 0.3559 -0.0000
vn -0.7420 0.6704 -0.0000
vn -0.6215 0.7834 -0.0000
vn -0.5015 0.8652 -0.0000
vn -0.3897 0.9209 -0.0000
vn -0.2897 0.9571 -0.0000
vn -0.2018 0.9794 -0.0000
vn -0.1254 0.9921 -0.0000
vn -0.0589 0.9983 -0.0000
vn -0.0094 1.0000 -0.0000
vn 0.0180 0.9998 -0.0000
vn 0.0361 0.9993 -0.0000
vn 0.0545 0.9985 -0.0000
vn 0.0734 0.9973 -0.0000
vn 0.0931 0.9957 -0.0000
vn 0.1141 0.9935 -0.0000
vn 0.1368 0.9906 -0.0000
vn 0.1618 0.9868 -0.0000
vn 0.1899 0.9818 -0.0000
vn 0.2222 0.9750 -0.0000
vn 0.2603 0.9655 -0.0000
vn -0.5949 0.8038 -0.0000
vn -0.7911 -0.6117 -0.0000
vn -0.2248 -0.9744 -0.0000
vn -0.1958 -0.9806 -0.0000
vn -0.1707 -0.9853 -0.0000
vn -0.1483 -0.9889 -0.0000
vn -0.1277 -0.9918 -0.0000
vn -0.1084 -0.9941 -0.0000
vn -0.0899 -0.9959 -0.0000
vn -0.0719 -0.9974 -0.0000
vn -0.0899 -0.9960 -0.0000
vn -0.0541 -0.9985 -0.0000
vn -0.0363 -0.9993 -0.0000
vn -0.0183 -0.9998 -0.0000
vn 0.0096 -1.0000 -0.0000
vn 0.0599 -0.9982 -0.0000
vn 0.1276 -0.9918 -0.0000
vn 0.2056 -0.9786 -0.0000
vn 0.2953 -0.9554 -0.0000
vn 0.3977 -0.9175 -0.0000
vn 0.5119 -0.8591 -0.0000
vn 0.6336 -0.7737 -0.0000
vn 0.7541 -0.6568 -0.0000
vn 0.6336 -0.7736 -0.0000
vn 0.8605 -0.5095 -0.0000
vn 0.9400 -0.3411 -0.0000
vn 0.9860 -0.1669 -0.0000
vn 0.9995 -0.0316 -0.0000
vn 0.9994 0.0338 -0.0000
vn 0.9978 0.0657 -0.0000
vn 0.9954 0.0953 -0.0000
vn 0.9925 0.1225 -0.0000
vn 0.9891 0.1471 -0.0000
vn 0.9856 0.1691 -0.0000
vn 0.9821 0.1884 -0.0000
vn 0.9788 0.2050 -0.0000
vn 0.9758 0.2188 -0.0000
vn 0.9733 0.2297 -0.0000
vn 0.9714 0.2374 -0.0000
vn 0.5767 0.8169 -0.0000
vn -0.8362 0.5484 -0.0000
vn -0.9552 -0.2960 -0.0000
vn -0.8362 0.5485 -0.0000
vn -0.9615 -0.2747 -0.0000
vn -0.9677 -0.2521 -0.0000
vn -0.9736 -0.2282 -0.0000
vn -0.9791 -0.2032 -0.0000
vn -0.9842 -0.1770 -0.0000
vn -0.9887 -0.1497 -0.0000
vn -0.9926 -0.1214 -0.0000
vn -0.9958 -0.0921 -0.0000
vn -0.9981 -0.0620 -0.0000
vn -0.9995 -0.0312 -0.0000
vn -0.9994 0.0350 -0.0000
vn 0.8930 -0.4500 -0.0000
vn 0.3319 -0.9433 -0.0000
vn 0.8877 -0.4605 -0.0000
vn 0.8931 -0.4500 -0.0000
vn 0.8825 -0.4704 -0.0000
vn 0.8773 -0.4800 -0.0000
vn 0.8718 -0.4898 -0.0000
vn 0.8660 -0.5000 -0.0000
vn 0.8596 -0.5110 -0.0000
vn 0.8523 -0.5230 -0.0000
vn 0.8438 -0.5367 -0.0000
vn 0.8335 -0.5525 -0.0000
vn 0.8208 -0.5712 -0.0000
vn 0.9627 0.2704 -0.0000
vn -0.2818 0.9595 -0.0000
vn -0.8319 0.5550 -0.0000
vn -0.8402 0.5423 -0.0000
vn -0.8468 0.5319 -0.0000
vn -0.8523 0.5230 -0.0000
vn -0.8570 0.5153 -0.0000
vn -0.8612 0.5082 -0.0000
vn -0.8651 0.5016 -0.0000
vn -0.8688 0.4951 -0.0000
vn -0.8726 0.4885 -0.0000
vn -0.8764 0.4815 -0.0000
vn -0.8807 0.4737 -0.0000
vn -0.9479 -0.3186 -0.0000
vn -0.9479 -0.3185 -0.0000
vn 0.8918 -0.4524 -0.0000
vn 0.3416 -0.9399 -0.0000
vn 0.3416 -0.9398 -0.0000
vn 0.8853 -0.4649 -0.0000
vn 0.8790 -0.4767 -0.0000
vn 0.8727 -0.4882 -0.0000
vn 0.8662 -0.4996 -0.0000
vn 0.8594 -0.5114 -0.0000
vn 0.8662 -0.4997 -0.0000
vn 0.8519 -0.5237 -0.0000
vn 0.8437 -0.5368 -0.0000
vn 0.8343 -0.5513 -0.0000
vn 0.8234 -0.5674 -0.0000
vn 0.8104 -0.5858 -0.0000
vn 0.9660 0.2587 -0.0000
vn -0.2676 0.9635 -0.0000
vn -0.8193 0.5733 -0.0000
vn -0.8285 0.5600 -0.0000
vn -0.8358 0.5490 -0.0000
vn -0.8419 0.5397 -0.0000
vn -0.8471 0.5314 -0.0000
vn -0.8518 0.5239 -0.0000
vn -0.8561 0.5168 -0.0000
vn -0.8603 0.5099 -0.0000
vn -0.8645 0.5027 -0.0000
vn -0.8603 0.5098 -0.0000
vn -0.8690 0.4949 -0.0000
vn -0.8740 0.4860 -0.0000
vn -0.9465 -0.3228 -0.0000
vt 0.709190 0.924128
vt 0.709620 0.924128
vt 0.709405 0.924128
vt 0.709835 0.924128
vt 0.710050 0.924128
vt 0.708975 0.924128
vt 0.710265 0.924128
vt 0.703599 0.924128
vt 0.704029 0.924128
vt 0.703814 0.924128
vt 0.710480 0.924128
vt 0.708760 0.924128
vt 0.704244 0.924128
vt 0.708545 0.924128
vt 0.710695 0.924128
vt 0.704459 0.924128
vt 0.703384 0.924128
vt 0.708330 0.924128
vt 0.710910 0.924128
vt 0.704674 0.924128
vt 0.708115 0.924128
vt 0.711125 0.924128
vt 0.704889 0.924128
vt 0.703169 0.924128
vt 0.707900 0.924128
vt 0.711340 0.924128
vt 0.702954 0.924128
vt 0.705104 0.924128
vt 0.707685 0.924128
vt 0.711555 0.924128
vt 0.702739 0.924128
vt 0.705319 0.924128
vt 0.707470 0.924128
vt 0.711770 0.924128
vt 0.702524 0.924128
vt 0.705535 0.924128
vt 0.707255 0.924128
vt 0.711985 0.924128
vt 0.702309 0.924128
vt 0.705750 0.924128
vt 0.707040 0.924128
vt 0.702094 0.924128
vt 0.692419 0.924128
vt 0.692849 0.924128
vt 0.692634 0.924128
vt 0.705965 0.924128
vt 0.698009 0.924128
vt 0.698439 0.924128
vt 0.698224 0.924128
vt 0.706825 0.924128
vt 0.706610 0.924128
vt 0.692204 0.924128
vt 0.691989 0.924128
vt 0.698654 0.924128
vt 0.691774 0.924128
vt 0.698869 0.924128
vt 0.691559 0.924128
vt 0.699084 0.924128
vt 0.699299 0.924128
vt 0.691344 0.924128
vt 0.701879 0.924128
vt 0.699514 0.924128
vt 0.691129 0.924128
vt 0.699729 0.924128
vt 0.690914 0.924128
vt 0.706179 0.924128
vt 0.699944 0.924128
vt 0.690699 0.924128
vt 0.700159 0.924128
vt 0.690484 0.924128
vt 0.700374 0.924128
vt 0.690269 0.924128
vt 0.700589 0.924128
vt 0.700804 0.924128
vt 0.701664 0.924128
vt 0.706395 0.924128
vt 0.701449 0.924128
vt 0.701234 0.924128
vt 0.701019 0.924128
vt 0.693064 0.924128
vt 0.697794 0.924128
vt 0.693279 0.924128
vt 0.693494 0.924128
vt 0.697579 0.924128
vt 0.693709 0.924128
vt 0.697364 0.924128
vt 0.693924 0.924128
vt 0.697149 0.924128
vt 0.694139 0.924128
vt 0.696934 0.924128
vt 0.694354 0.924128
vt 0.696719 0.924128
vt 0.694569 0.924128
vt 0.696504 0.924128
vt 0.696289 0.924128
vt 0.694784 0.924128
vt 0.696074 0.924128
vt 0.694999 0.924128
vt 0.695859 0.924128
vt 0.695214 0.924128
vt 0.695644 0.924128
vt 0.695429 0.924128
vt 0.687044 0.924128
vt 0.687474 0.924128
vt 0.687259 0.924128
vt 0.687689 0.924128
vt 0.686829 0.924128
vt 0.686614 0.924128
vt 0.687904 0.924128
vt 0.686399 0.924128
vt 0.688119 0.924128
vt 0.688334 0.924128
vt 0.686184 0.924128
vt 0.688549 0.924128
vt 0.685969 0.924128
vt 0.688764 0.924128
vt 0.685754 0.924128
vt 0.688979 0.924128
vt 0.685539 0.924128
vt 0.689194 0.924128
vt 0.689409 0.924128
vt 0.685324 0.924128
vt 0.689624 0.924128
vt 0.685109 0.924128
vt 0.689839 0.924128
vt 0.690054 0.924128
vt 0.684894 0.924128
vt 0.674358 0.924128
vt 0.684679 0.924128
vt 0.674573 0.924128
vt 0.684464 0.924128
vt 0.674788 0.924128
vt 0.675003 0.924128
vt 0.684249 0.924128
vt 0.675218 0.924128
vt 0.675433 0.924128
vt 0.679088 0.924128
vt 0.679518 0.924128
vt 0.679303 0.924128
vt 0.684034 0.924128
vt 0.675648 0.924128
vt 0.678873 0.924128
vt 0.678658 0.924128
vt 0.675863 0.924128
vt 0.678443 0.924128
vt 0.678228 0.924128
vt 0.676078 0.924128
vt 0.678013 0.924128
vt 0.683819 0.924128
vt 0.677798 0.924128
vt 0.676293 0.924128
vt 0.677583 0.924128
vt 0.677368 0.924128
vt 0.676508 0.924128
vt 0.677153 0.924128
vt 0.676938 0.924128
vt 0.676723 0.924128
vt 0.683604 0.924128
vt 0.683389 0.924128
vt 0.683174 0.924128
vt 0.679733 0.924128
vt 0.682958 0.924128
vt 0.679948 0.924128
vt 0.680163 0.924128
vt 0.682743 0.924128
vt 0.680378 0.924128
vt 0.680593 0.924128
vt 0.680808 0.924128
vt 0.682528 0.924128
vt 0.681023 0.924128
vt 0.681238 0.924128
vt 0.682314 0.924128
vt 0.681453 0.924128
vt 0.681668 0.924128
vt 0.682098 0.924128
vt 0.681883 0.924128
vt 0.675111 0.961754
vt 0.674358 0.961754
vt 0.675863 0.961754
vt 0.675111 0.924128
vt 0.676616 0.961754
vt 0.677368 0.961754
vt 0.676616 0.924128
vt 0.678121 0.961754
vt 0.678873 0.961754
vt 0.678121 0.924128
vt 0.679626 0.961754
vt 0.680378 0.961754
vt 0.679626 0.924128
vt 0.681131 0.961754
vt 0.681883 0.961754
vt 0.681131 0.924128
vt 0.682636 0.961754
vt 0.683389 0.961754
vt 0.682636 0.924128
vt 0.684141 0.961754
vt 0.684894 0.961754
vt 0.684141 0.924128
vt 0.685646 0.961754
vt 0.686399 0.961754
vt 0.685646 0.924128
vt 0.687151 0.961754
vt 0.687904 0.961754
vt 0.687151 0.924128
vt 0.688656 0.961754
vt 0.689409 0.961754
vt 0.688656 0.924128
vt 0.690161 0.961754
vt 0.690914 0.961754
vt 0.690161 0.924128
vt 0.691666 0.961754
vt 0.692419 0.961754
vt 0.691666 0.924128
vt 0.693171 0.961754
vt 0.693924 0.961754
vt 0.693171 0.924128
vt 0.694677 0.961754
vt 0.695429 0.961754
vt 0.694677 0.924128
vt 0.696182 0.961754
vt 0.696934 0.961754
vt 0.696182 0.924128
vt 0.697687 0.961754
vt 0.698439 0.961754
vt 0.697687 0.924128
vt 0.699192 0.961754
vt 0.699944 0.961754
vt 0.699192 0.924128
vt 0.700697 0.961754
vt 0.701449 0.961754
vt 0.700697 0.924128
vt 0.702202 0.961754
vt 0.702954 0.961754
vt 0.702202 0.924128
vt 0.703707 0.961754
vt 0.704459 0.961754
vt 0.703707 0.924128
vt 0.705212 0.961754
vt 0.705965 0.961754
vt 0.705212 0.924128
vt 0.706717 0.961754
vt 0.707470 0.961754
vt 0.706717 0.924128
vt 0.708222 0.961754
vt 0.708975 0.961754
vt 0.708222 0.924128
vt 0.709727 0.961754
vt 0.710480 0.961754
vt 0.709727 0.924128
vt 0.711232 0.961754
vt 0.711985 0.961754
vt 0.711232 0.924128
vt 0.674867 0.961754
vt 0.675375 0.961754
vt 0.674867 0.924128
vt 0.675884 0.961754
vt 0.675375 0.924128
vt 0.676392 0.961754
vt 0.675884 0.924128
vt 0.676900 0.961754
vt 0.676392 0.924128
vt 0.677409 0.961754
vt 0.676900 0.924128
vt 0.677917 0.961754
vt 0.677409 0.924128
vt 0.678426 0.961754
vt 0.677917 0.924128
vt 0.678934 0.961754
vt 0.678426 0.924128
vt 0.679443 0.961754
vt 0.678934 0.924128
vt 0.679951 0.961754
vt 0.679443 0.924128
vt 0.680460 0.961754
vt 0.679951 0.924128
vt 0.680968 0.961754
vt 0.680460 0.924128
vt 0.681477 0.961754
vt 0.680968 0.924128
vt 0.681985 0.961754
vt 0.681477 0.924128
vt 0.682494 0.961754
vt 0.681985 0.924128
vt 0.683002 0.961754
vt 0.682494 0.924128
vt 0.683511 0.961754
vt 0.683002 0.924128
vt 0.684019 0.961754
vt 0.683511 0.924128
vt 0.684528 0.961754
vt 0.684019 0.924128
vt 0.685036 0.961754
vt 0.684528 0.924128
vt 0.685544 0.961754
vt 0.685036 0.924128
vt 0.686053 0.961754
vt 0.685544 0.924128
vt 0.686561 0.961754
vt 0.686053 0.924128
vt 0.687070 0.961754
vt 0.686561 0.924128
vt 0.687578 0.961754
vt 0.687070 0.924128
vt 0.688087 0.961754
vt 0.687578 0.924128
vt 0.688595 0.961754
vt 0.688087 0.924128
vt 0.689104 0.961754
vt 0.688595 0.924128
vt 0.689612 0.961754
vt 0.689104 0.924128
vt 0.690121 0.961754
vt 0.689612 0.924128
vt 0.690629 0.961754
vt 0.690121 0.924128
vt 0.691138 0.961754
vt 0.690629 0.924128
vt 0.691646 0.961754
vt 0.691138 0.924128
vt 0.692155 0.961754
vt 0.691646 0.924128
vt 0.692663 0.961754
vt 0.692155 0.924128
vt 0.692663 0.924128
vt 0.693680 0.961754
vt 0.694188 0.961754
vt 0.693680 0.924128
vt 0.694697 0.961754
vt 0.694188 0.924128
vt 0.695205 0.961754
vt 0.694697 0.924128
vt 0.695714 0.961754
vt 0.695205 0.924128
vt 0.696222 0.961754
vt 0.695714 0.924128
vt 0.696731 0.961754
vt 0.696222 0.924128
vt 0.697239 0.961754
vt 0.696731 0.924128
vt 0.697748 0.961754
vt 0.697239 0.924128
vt 0.698256 0.961754
vt 0.697748 0.924128
vt 0.698765 0.961754
vt 0.698256 0.924128
vt 0.699273 0.961754
vt 0.698765 0.924128
vt 0.699782 0.961754
vt 0.699273 0.924128
vt 0.700290 0.961754
vt 0.699782 0.924128
vt 0.700798 0.961754
vt 0.700290 0.924128
vt 0.701307 0.961754
vt 0.700798 0.924128
vt 0.701815 0.961754
vt 0.701307 0.924128
vt 0.702324 0.961754
vt 0.701815 0.924128
vt 0.702832 0.961754
vt 0.702324 0.924128
vt 0.703341 0.961754
vt 0.702832 0.924128
vt 0.703849 0.961754
vt 0.703341 0.924128
vt 0.704358 0.961754
vt 0.703849 0.924128
vt 0.704866 0.961754
vt 0.704358 0.924128
vt 0.705375 0.961754
vt 0.704866 0.924128
vt 0.705883 0.961754
vt 0.705375 0.924128
vt 0.706392 0.961754
vt 0.705883 0.924128
vt 0.706900 0.961754
vt 0.706392 0.924128
vt 0.707409 0.961754
vt 0.706900 0.924128
vt 0.707917 0.961754
vt 0.707409 0.924128
vt 0.708426 0.961754
vt 0.707917 0.924128
vt 0.708934 0.961754
vt 0.708426 0.924128
vt 0.709442 0.961754
vt 0.708934 0.924128
vt 0.709951 0.961754
vt 0.709442 0.924128
vt 0.710459 0.961754
vt 0.709951 0.924128
vt 0.710968 0.961754
vt 0.710459 0.924128
vt 0.711476 0.961754
vt 0.710968 0.924128
vt 0.711476 0.924128
vt 0.675805 0.961754
vt 0.677252 0.961754
vt 0.675805 0.924128
vt 0.678700 0.961754
vt 0.677252 0.924128
vt 0.680147 0.961754
vt 0.678700 0.924128
vt 0.681594 0.961754
vt 0.680147 0.924128
vt 0.683041 0.961754
vt 0.681594 0.924128
vt 0.684488 0.961754
vt 0.683041 0.924128
vt 0.685936 0.961754
vt 0.684488 0.924128
vt 0.687383 0.961754
vt 0.685936 0.924128
vt 0.688830 0.961754
vt 0.687383 0.924128
vt 0.690277 0.961754
vt 0.688830 0.924128
vt 0.691724 0.961754
vt 0.690277 0.924128
vt 0.691724 0.924128
vt 0.694619 0.961754
vt 0.696066 0.961754
vt 0.694619 0.924128
vt 0.697513 0.961754
vt 0.696066 0.924128
vt 0.698960 0.961754
vt 0.697513 0.924128
vt 0.700407 0.961754
vt 0.698960 0.924128
vt 0.701855 0.961754
vt 0.700407 0.924128
vt 0.703302 0.961754
vt 0.701855 0.924128
vt 0.704749 0.961754
vt 0.703302 0.924128
vt 0.706196 0.961754
vt 0.704749 0.924128
vt 0.707643 0.961754
vt 0.706196 0.924128
vt 0.709090 0.961754
vt 0.707643 0.924128
vt 0.710538 0.961754
vt 0.709090 0.924128
vt 0.710538 0.924128
s 0
usemtl Material
f 163/1/1 165/2/1 164/3/1
f 163/1/1 166/4/1 165/2/1
f 163/1/1 167/5/1 166/4/1
f 162/6/1 167/5/1 163/1/1
f 162/6/1 168/7/1 167/5/1
f 137/8/1 139/9/1 138/10/1
f 162/6/1 169/11/1 168/7/1
f 161/12/1 169/11/1 162/6/1
f 137/8/1 140/13/1 139/9/1
f 160/14/1 169/11/1 161/12/1
f 160/14/1 170/15/1 169/11/1
f 137/8/1 141/16/1 140/13/1
f 136/17/1 141/16/1 137/8/1
f 159/18/1 170/15/1 160/14/1
f 159/18/1 171/19/1 170/15/1
f 136/17/1 142/20/1 141/16/1
f 158/21/1 171/19/1 159/18/1
f 158/21/1 172/22/1 171/19/1
f 136/17/1 143/23/1 142/20/1
f 135/24/1 143/23/1 136/17/1
f 157/25/1 172/22/1 158/21/1
f 157/25/1 173/26/1 172/22/1
f 134/27/1 143/23/1 135/24/1
f 134/27/1 144/28/1 143/23/1
f 156/29/1 173/26/1 157/25/1
f 156/29/1 174/30/1 173/26/1
f 133/31/1 144/28/1 134/27/1
f 133/31/1 145/32/1 144/28/1
f 155/33/1 174/30/1 156/29/1
f 155/33/1 175/34/1 174/30/1
f 132/35/1 145/32/1 133/31/1
f 132/35/1 146/36/1 145/32/1
f 154/37/1 175/34/1 155/33/1
f 154/37/1 176/38/1 175/34/1
f 131/39/1 146/36/1 132/35/1
f 131/39/1 147/40/1 146/36/1
f 153/41/1 176/38/1 154/37/1
f 130/42/1 147/40/1 131/39/1
f 85/43/1 87/44/1 86/45/1
f 130/42/1 148/46/1 147/40/1
f 111/47/1 113/48/1 112/49/1
f 153/41/1 152/50/1 176/38/1
f 152/50/1 151/51/1 176/38/1
f 84/52/1 87/44/1 85/43/1
f 83/53/1 87/44/1 84/52/1
f 111/47/1 114/54/1 113/48/1
f 82/55/1 87/44/1 83/53/1
f 111/47/1 115/56/1 114/54/1
f 81/57/1 87/44/1 82/55/1
f 111/47/1 116/58/1 115/56/1
f 111/47/1 117/59/1 116/58/1
f 80/60/1 87/44/1 81/57/1
f 129/61/1 148/46/1 130/42/1
f 111/47/1 118/62/1 117/59/1
f 79/63/1 87/44/1 80/60/1
f 111/47/1 119/64/1 118/62/1
f 78/65/1 87/44/1 79/63/1
f 129/61/1 149/66/1 148/46/1
f 111/47/1 120/67/1 119/64/1
f 77/68/1 87/44/1 78/65/1
f 111/47/1 121/69/1 120/67/1
f 76/70/1 87/44/1 77/68/1
f 111/47/1 122/71/1 121/69/1
f 75/72/1 87/44/1 76/70/1
f 111/47/1 123/73/1 122/71/1
f 124/74/1 87/44/1 75/72/1
f 111/47/1 124/74/1 123/73/1
f 111/47/1 87/44/1 124/74/1
f 128/75/1 149/66/1 129/61/1
f 128/75/1 150/76/1 149/66/1
f 127/77/1 150/76/1 128/75/1
f 127/77/1 126/78/1 150/76/1
f 126/78/1 125/79/1 150/76/1
f 111/47/1 88/80/1 87/44/1
f 110/81/1 88/80/1 111/47/1
f 110/81/1 89/82/1 88/80/1
f 110/81/1 90/83/1 89/82/1
f 109/84/1 90/83/1 110/81/1
f 109/84/1 91/85/1 90/83/1
f 108/86/1 91/85/1 109/84/1
f 108/86/1 92/87/1 91/85/1
f 107/88/1 92/87/1 108/86/1
f 107/88/1 93/89/1 92/87/1
f 106/90/1 93/89/1 107/88/1
f 106/90/1 94/91/1 93/89/1
f 105/92/1 94/91/1 106/90/1
f 105/92/1 95/93/1 94/91/1
f 104/94/1 95/93/1 105/92/1
f 103/95/1 95/93/1 104/94/1
f 103/95/1 96/96/1 95/93/1
f 102/97/1 96/96/1 103/95/1
f 102/97/1 97/98/1 96/96/1
f 101/99/1 97/98/1 102/97/1
f 101/99/1 98/100/1 97/98/1
f 100/101/1 98/100/1 101/99/1
f 100/101/1 99/102/1 98/100/1
f 60/103/1 62/104/1 61/105/1
f 60/103/1 63/106/1 62/104/1
f 59/107/1 63/106/1 60/103/1
f 58/108/1 63/106/1 59/107/1
f 58/108/1 64/109/1 63/106/1
f 57/110/1 64/109/1 58/108/1
f 57/110/1 65/111/1 64/109/1
f 57/110/1 66/112/1 65/111/1
f 56/113/1 66/112/1 57/110/1
f 56/113/1 67/114/1 66/112/1
f 55/115/1 67/114/1 56/113/1
f 55/115/1 68/116/1 67/114/1
f 54/117/1 68/116/1 55/115/1
f 54/117/1 69/118/1 68/116/1
f 53/119/1 69/118/1 54/117/1
f 53/119/1 70/120/1 69/118/1
f 53/119/1 71/121/1 70/120/1
f 52/122/1 71/121/1 53/119/1
f 52/122/1 72/123/1 71/121/1
f 51/124/1 72/123/1 52/122/1
f 51/124/1 73/125/1 72/123/1
f 51/124/1 74/126/1 73/125/1
f 50/127/1 74/126/1 51/124/1
f 50/127/1 1/128/1 74/126/1
f 49/129/1 1/128/1 50/127/1
f 49/129/1 2/130/1 1/128/1
f 48/131/1 2/130/1 49/129/1
f 48/131/1 3/132/1 2/130/1
f 48/131/1 4/133/1 3/132/1
f 47/134/1 4/133/1 48/131/1
f 47/134/1 5/135/1 4/133/1
f 47/134/1 6/136/1 5/135/1
f 23/137/1 25/138/1 24/139/1
f 46/140/1 6/136/1 47/134/1
f 46/140/1 7/141/1 6/136/1
f 22/142/1 25/138/1 23/137/1
f 21/143/1 25/138/1 22/142/1
f 46/140/1 8/144/1 7/141/1
f 20/145/1 25/138/1 21/143/1
f 19/146/1 25/138/1 20/145/1
f 46/140/1 9/147/1 8/144/1
f 18/148/1 25/138/1 19/146/1
f 45/149/1 9/147/1 46/140/1
f 17/150/1 25/138/1 18/148/1
f 45/149/1 10/151/1 9/147/1
f 16/152/1 25/138/1 17/150/1
f 15/153/1 25/138/1 16/152/1
f 45/149/1 11/154/1 10/151/1
f 14/155/1 25/138/1 15/153/1
f 13/156/1 25/138/1 14/155/1
f 45/149/1 12/157/1 11/154/1
f 12/157/1 25/138/1 13/156/1
f 45/149/1 25/138/1 12/157/1
f 44/158/1 25/138/1 45/149/1
f 43/159/1 25/138/1 44/158/1
f 42/160/1 25/138/1 43/159/1
f 42/160/1 26/161/1 25/138/1
f 41/162/1 26/161/1 42/160/1
f 41/162/1 27/163/1 26/161/1
f 41/162/1 28/164/1 27/163/1
f 40/165/1 28/164/1 41/162/1
f 40/165/1 29/166/1 28/164/1
f 40/165/1 30/167/1 29/166/1
f 40/165/1 31/168/1 30/167/1
f 39/169/1 31/168/1 40/165/1
f 39/169/1 32/170/1 31/168/1
f 39/169/1 33/171/1 32/170/1
f 38/172/1 33/171/1 39/169/1
f 38/172/1 34/173/1 33/171/1
f 38/172/1 35/174/1 34/173/1
f 37/175/1 35/174/1 38/172/1
f 37/175/1 36/176/1 35/174/1
f 339/1/2 340/3/2 341/2/2
f 339/1/2 341/2/2 342/4/2
f 339/1/2 342/4/2 343/5/2
f 338/6/2 339/1/2 343/5/2
f 338/6/2 343/5/2 344/7/2
f 313/8/2 314/10/2 315/9/2
f 338/6/2 344/7/2 345/11/2
f 337/12/2 338/6/2 345/11/2
f 313/8/2 315/9/2 316/13/2
f 336/14/2 337/12/2 345/11/2
f 336/14/2 345/11/2 346/15/2
f 313/8/2 316/13/2 317/16/2
f 312/17/2 313/8/2 317/16/2
f 335/18/2 336/14/2 346/15/2
f 335/18/2 346/15/2 347/19/2
f 312/17/2 317/16/2 318/20/2
f 334/21/2 335/18/2 347/19/2
f 334/21/2 347/19/2 348/22/2
f 312/17/2 318/20/2 319/23/2
f 311/24/2 312/17/2 319/23/2
f 333/25/2 334/21/2 348/22/2
f 333/25/2 348/22/2 349/26/2
f 310/27/2 311/24/2 319/23/2
f 310/27/2 319/23/2 320/28/2
f 332/29/2 333/25/2 349/26/2
f 332/29/2 349/26/2 350/30/2
f 309/31/2 310/27/2 320/28/2
f 309/31/2 320/28/2 321/32/2
f 331/33/2 332/29/2 350/30/2
f 331/33/2 350/30/2 351/34/2
f 308/35/2 309/31/2 321/32/2
f 308/35/2 321/32/2 322/36/2
f 330/37/2 331/33/2 351/34/2
f 330/37/2 351/34/2 352/38/2
f 307/39/2 308/35/2 322/36/2
f 307/39/2 322/36/2 323/40/2
f 329/41/2 330/37/2 352/38/2
f 306/42/2 307/39/2 323/40/2
f 261/43/2 262/45/2 263/44/2
f 306/42/2 323/40/2 324/46/2
f 287/47/2 288/49/2 289/48/2
f 329/41/2 352/38/2 328/50/2
f 328/50/2 352/38/2 327/51/2
f 260/52/2 261/43/2 263/44/2
f 259/53/2 260/52/2 263/44/2
f 287/47/2 289/48/2 290/54/2
f 258/55/2 259/53/2 263/44/2
f 287/47/2 290/54/2 291/56/2
f 257/57/2 258/55/2 263/44/2
f 287/47/2 291/56/2 292/58/2
f 287/47/2 292/58/2 293/59/2
f 256/60/2 257/57/2 263/44/2
f 305/61/2 306/42/2 324/46/2
f 287/47/2 293/59/2 294/62/2
f 255/63/2 256/60/2 263/44/2
f 287/47/2 294/62/2 295/64/2
f 254/65/2 255/63/2 263/44/2
f 305/61/2 324/46/2 325/66/2
f 287/47/2 295/64/2 296/67/2
f 253/68/2 254/65/2 263/44/2
f 287/47/2 296/67/2 297/69/2
f 252/70/2 253/68/2 263/44/2
f 287/47/2 297/69/2 298/71/2
f 251/72/2 252/70/2 263/44/2
f 287/47/2 298/71/2 299/73/2
f 300/74/2 251/72/2 263/44/2
f 287/47/2 299/73/2 300/74/2
f 287/47/2 300/74/2 263/44/2
f 304/75/2 305/61/2 325/66/2
f 304/75/2 325/66/2 326/76/2
f 303/77/2 304/75/2 326/76/2
f 303/77/2 326/76/2 302/78/2
f 302/78/2 326/76/2 301/79/2
f 287/47/2 263/44/2 264/80/2
f 286/81/2 287/47/2 264/80/2
f 286/81/2 264/80/2 265/82/2
f 286/81/2 265/82/2 266/83/2
f 285/84/2 286/81/2 266/83/2
f 285/84/2 266/83/2 267/85/2
f 284/86/2 285/84/2 267/85/2
f 284/86/2 267/85/2 268/87/2
f 283/88/2 284/86/2 268/87/2
f 283/88/2 268/87/2 269/89/2
f 282/90/2 283/88/2 269/89/2
f 282/90/2 269/89/2 270/91/2
f 281/92/2 282/90/2 270/91/2
f 281/92/2 270/91/2 271/93/2
f 280/94/2 281/92/2 271/93/2
f 279/95/2 280/94/2 271/93/2
f 279/95/2 271/93/2 272/96/2
f 278/97/2 279/95/2 272/96/2
f 278/97/2 272/96/2 273/98/2
f 277/99/2 278/97/2 273/98/2
f 277/99/2 273/98/2 274/100/2
f 276/101/2 277/99/2 274/100/2
f 276/101/2 274/100/2 275/102/2
f 236/103/2 237/105/2 238/104/2
f 236/103/2 238/104/2 239/106/2
f 235/107/2 236/103/2 239/106/2
f 234/108/2 235/107/2 239/106/2
f 234/108/2 239/106/2 240/109/2
f 233/110/2 234/108/2 240/109/2
f 233/110/2 240/109/2 241/111/2
f 233/110/2 241/111/2 242/112/2
f 232/113/2 233/110/2 242/112/2
f 232/113/2 242/112/2 243/114/2
f 231/115/2 232/113/2 243/114/2
f 231/115/2 243/114/2 244/116/2
f 230/117/2 231/115/2 244/116/2
f 230/117/2 244/116/2 245/118/2
f 229/119/2 230/117/2 245/118/2
f 229/119/2 245/118/2 246/120/2
f 229/119/2 246/120/2 247/121/2
f 228/122/2 229/119/2 247/121/2
f 228/122/2 247/121/2 248/123/2
f 227/124/2 228/122/2 248/123/2
f 227/124/2 248/123/2 249/125/2
f 227/124/2 249/125/2 250/126/2
f 226/127/2 227/124/2 250/126/2
f 226/127/2 250/126/2 177/128/2
f 225/129/2 226/127/2 177/128/2
f 225/129/2 177/128/2 178/130/2
f 224/131/2 225/129/2 178/130/2
f 224/131/2 178/130/2 179/132/2
f 224/131/2 179/132/2 180/133/2
f 223/134/2 224/131/2 180/133/2
f 223/134/2 180/133/2 181/135/2
f 223/134/2 181/135/2 182/136/2
f 199/137/2 200/139/2 201/138/2
f 222/140/2 223/134/2 182/136/2
f 222/140/2 182/136/2 183/141/2
f 198/142/2 199/137/2 201/138/2
f 197/143/2 198/142/2 201/138/2
f 222/140/2 183/141/2 184/144/2
f 196/145/2 197/143/2 201/138/2
f 195/146/2 196/145/2 201/138/2
f 222/140/2 184/144/2 185/147/2
f 194/148/2 195/146/2 201/138/2
f 221/149/2 222/140/2 185/147/2
f 193/150/2 194/148/2 201/138/2
f 221/149/2 185/147/2 186/151/2
f 192/152/2 193/150/2 201/138/2
f 191/153/2 192/152/2 201/138/2
f 221/149/2 186/151/2 187/154/2
f 190/155/2 191/153/2 201/138/2
f 189/156/2 190/155/2 201/138/2
f 221/149/2 187/154/2 188/157/2
f 188/157/2 189/156/2 201/138/2
f 221/149/2 188/157/2 201/138/2
f 220/158/2 221/149/2 201/138/2
f 219/159/2 220/158/2 201/138/2
f 218/160/2 219/159/2 201/138/2
f 218/160/2 201/138/2 202/161/2
f 217/162/2 218/160/2 202/161/2
f 217/162/2 202/161/2 203/163/2
f 217/162/2 203/163/2 204/164/2
f 216/165/2 217/162/2 204/164/2
f 216/165/2 204/164/2 205/166/2
f 216/165/2 205/166/2 206/167/2
f 216/165/2 206/167/2 207/168/2
f 215/169/2 216/165/2 207/168/2
f 215/169/2 207/168/2 208/170/2
f 215/169/2 208/170/2 209/171/2
f 214/172/2 215/169/2 209/171/2
f 214/172/2 209/171/2 210/173/2
f 214/172/2 210/173/2 211/174/2
f 213/175/2 214/172/2 211/174/2
f 213/175/2 211/174/2 212/176/2
s 1
f 356/177/3 353/128/4 354/178/5
f 358/179/6 355/180/3 356/177/3
f 360/181/7 357/144/6 358/179/6
f 362/182/8 359/183/7 360/181/7
f 364/184/9 361/153/8 362/182/8
f 366/185/10 363/186/9 364/184/9
f 368/187/11 365/142/10 366/185/10
f 370/188/12 367/189/11 368/187/11
f 372/190/13 369/166/12 370/188/12
f 374/191/14 371/192/13 372/190/13
f 376/193/15 373/176/14 374/191/14
f 378/194/16 375/195/15 376/193/15
f 380/196/17 377/159/16 378/194/16
f 382/197/18 379/198/17 380/196/17
f 384/199/19 381/127/18 382/197/18
f 386/200/20 383/201/19 384/199/19
f 388/202/21 385/110/20 386/200/20
f 390/203/22 387/204/21 388/202/21
f 392/205/23 389/109/22 390/203/22
f 394/206/24 391/207/23 392/205/23
f 396/208/25 393/121/24 394/206/24
f 398/209/26 395/210/25 396/208/25
f 400/211/27 397/65/26 398/209/26
f 402/212/28 399/213/27 400/211/27
f 404/214/29 401/43/28 402/212/28
f 406/215/30 403/216/29 404/214/29
f 408/217/31 405/87/30 406/215/30
f 410/218/32 407/219/31 408/217/31
f 412/220/33 409/102/32 410/218/32
f 414/221/34 411/222/33 412/220/33
f 416/223/35 413/90/34 414/221/34
f 418/224/36 415/225/35 416/223/35
f 420/226/37 417/48/36 418/224/36
f 422/227/38 419/228/37 420/226/37
f 424/229/39 421/67/38 422/227/38
f 426/230/40 423/231/39 424/229/39
f 428/232/41 425/77/40 426/230/40
f 430/233/42 427/234/41 428/232/41
f 432/235/43 429/27/42 430/233/42
f 434/236/44 431/237/43 432/235/43
f 436/238/45 433/16/44 434/236/44
f 438/239/46 435/240/45 436/238/45
f 440/241/47 437/46/46 438/239/46
f 442/242/48 439/243/47 440/241/47
f 444/244/49 441/33/48 442/242/48
f 446/245/50 443/246/49 444/244/49
f 448/247/51 445/6/50 446/245/50
f 450/248/52 447/249/51 448/247/51
f 452/250/53 449/11/52 450/248/52
f 354/251/5 451/252/53 452/250/53
f 456/253/54 453/128/55 454/178/55
f 458/254/56 455/255/57 456/253/54
f 460/256/58 457/257/56 458/254/56
f 462/258/59 459/259/58 460/256/58
f 464/260/60 461/261/59 462/258/59
f 466/262/61 463/263/60 464/260/60
f 468/264/62 465/265/61 466/262/61
f 470/266/63 467/267/62 468/264/62
f 472/268/64 469/269/63 470/266/63
f 474/270/65 471/271/64 472/268/64
f 476/272/66 473/273/65 474/270/65
f 478/274/67 475/275/66 476/272/66
f 480/276/68 477/277/67 478/274/67
f 482/278/69 479/279/68 480/276/68
f 484/280/70 481/281/69 482/278/69
f 486/282/71 483/283/70 484/280/70
f 488/284/72 485/285/71 486/282/71
f 490/286/73 487/287/72 488/284/72
f 492/288/74 489/289/73 490/286/73
f 494/290/75 491/291/74 492/288/74
f 496/292/76 493/293/75 494/290/75
f 498/294/77 495/295/76 496/292/76
f 500/296/78 497/297/77 498/294/77
f 502/298/79 499/299/78 500/296/78
f 504/300/80 501/301/79 502/298/79
f 506/302/81 503/303/80 504/300/80
f 508/304/82 505/305/81 506/302/81
f 510/306/83 507/307/82 508/304/82
f 512/308/84 509/309/83 510/306/83
f 514/310/85 511/311/84 512/308/84
f 516/312/86 513/313/85 514/310/85
f 518/314/87 515/315/88 516/312/86
f 520/316/89 517/317/87 518/314/87
f 522/318/90 519/319/89 520/316/89
f 524/320/91 521/321/90 522/318/90
f 526/322/92 523/323/91 524/320/91
f 528/214/93 525/324/92 526/322/92
f 530/325/94 527/216/93 528/214/93
f 532/326/95 529/327/94 530/325/94
f 534/328/96 531/329/95 532/326/95
f 536/330/97 533/331/96 534/328/96
f 538/332/98 535/333/97 536/330/97
f 540/334/99 537/335/98 538/332/98
f 542/336/100 539/337/101 540/334/99
f 544/338/102 541/339/100 542/336/100
f 546/340/103 543/341/102 544/338/102
f 548/342/104 545/343/103 546/340/103
f 550/344/105 547/345/104 548/342/104
f 552/346/106 549/347/105 550/344/105
f 554/348/107 551/349/106 552/346/106
f 556/350/108 553/351/107 554/348/107
f 558/352/109 555/353/108 556/350/108
f 560/354/110 557/355/109 558/352/109
f 562/356/111 559/357/110 560/354/110
f 564/358/112 561/359/111 562/356/111
f 566/360/113 563/361/112 564/358/112
f 568/362/114 565/363/113 566/360/113
f 570/364/115 567/365/114 568/362/114
f 572/366/116 569/367/115 570/364/115
f 574/368/117 571/369/116 572/366/116
f 576/370/118 573/371/117 574/368/117
f 578/372/119 575/373/120 576/370/118
f 580/374/121 577/375/119 578/372/119
f 582/376/122 579/377/121 580/374/121
f 584/378/123 581/379/122 582/376/122
f 586/380/124 583/381/123 584/378/123
f 588/382/125 585/383/124 586/380/124
f 590/384/126 587/385/125 588/382/125
f 592/386/127 589/387/126 590/384/126
f 594/388/128 591/389/127 592/386/127
f 596/390/129 593/391/128 594/388/128
f 598/392/130 595/393/129 596/390/129
f 600/394/131 597/395/130 598/392/130
f 454/251/55 599/396/131 600/394/131
f 604/397/132 601/128/133 602/178/133
f 606/398/134 603/399/135 604/397/132
f 608/400/136 605/401/134 606/398/134
f 610/402/137 607/403/136 608/400/136
f 612/404/138 609/405/137 610/402/137
f 614/406/139 611/407/138 612/404/138
f 616/408/140 613/409/139 614/406/139
f 618/410/141 615/411/140 616/408/140
f 620/412/142 617/413/141 618/410/141
f 622/414/143 619/415/142 620/412/142
f 624/416/144 621/417/143 622/414/143
f 626/418/145 623/419/144 624/416/144
f 628/214/146 625/420/145 626/418/145
f 630/421/147 627/216/146 628/214/146
f 632/422/148 629/423/147 630/421/147
f 634/424/149 631/425/148 632/422/148
f 636/426/150 633/427/149 634/424/149
f 638/428/151 635/429/150 636/426/150
f 640/430/152 637/431/151 638/428/151
f 642/432/153 639/433/152 640/430/152
f 644/434/154 641/435/153 642/432/153
f 646/436/155 643/437/154 644/434/154
f 648/438/156 645/439/155 646/436/155
f 650/440/157 647/441/156 648/438/156
f 652/442/158 649/443/157 650/440/157
f 602/251/133 651/444/159 652/442/158
f 656/397/160 653/128/161 654/178/162
f 658/398/163 655/399/160 656/397/160
f 660/400/164 657/401/163 658/398/163
f 662/402/165 659/403/164 660/400/164
f 664/404/166 661/405/165 662/402/165
f 666/406/167 663/407/168 664/404/166
f 668/408/169 665/409/167 666/406/167
f 670/410/170 667/411/169 668/408/169
f 672/412/171 669/413/170 670/410/170
f 674/414/172 671/415/171 672/412/171
f 676/416/173 673/417/172 674/414/172
f 678/418/174 675/419/173 676/416/173
f 680/214/175 677/420/174 678/418/174
f 682/421/176 679/216/175 680/214/175
f 684/422/177 681/423/176 682/421/176
f 686/424/178 683/425/177 684/422/177
f 688/426/179 685/427/178 686/424/178
f 690/428/180 687/429/179 688/426/179
f 692/430/181 689/431/180 690/428/180
f 694/432/182 691/433/181 692/430/181
f 696/434/183 693/435/182 694/432/182
f 698/436/184 695/437/185 696/434/183
f 700/438/186 697/439/184 698/436/184
f 702/440/187 699/441/186 700/438/186
f 704/442/188 701/443/187 702/440/187
f 654/251/162 703/444/188 704/442/188
f 356/177/3 355/180/3 353/128/4
f 358/179/6 357/144/6 355/180/3
f 360/181/7 359/183/7 357/144/6
f 362/182/8 361/153/8 359/183/7
f 364/184/9 363/186/9 361/153/8
f 366/185/10 365/142/10 363/186/9
f 368/187/11 367/189/11 365/142/10
f 370/188/12 369/166/12 367/189/11
f 372/190/13 371/192/13 369/166/12
f 374/191/14 373/176/14 371/192/13
f 376/193/15 375/195/15 373/176/14
f 378/194/16 377/159/16 375/195/15
f 380/196/17 379/198/17 377/159/16
f 382/197/18 381/127/18 379/198/17
f 384/199/19 383/201/19 381/127/18
f 386/200/20 385/110/20 383/201/19
f 388/202/21 387/204/21 385/110/20
f 390/203/22 389/109/22 387/204/21
f 392/205/23 391/207/23 389/109/22
f 394/206/24 393/121/24 391/207/23
f 396/208/25 395/210/25 393/121/24
f 398/209/26 397/65/26 395/210/25
f 400/211/27 399/213/27 397/65/26
f 402/212/28 401/43/28 399/213/27
f 404/214/29 403/216/29 401/43/28
f 406/215/30 405/87/30 403/216/29
f 408/217/31 407/219/31 405/87/30
f 410/218/32 409/102/32 407/219/31
f 412/220/33 411/222/33 409/102/32
f 414/221/34 413/90/34 411/222/33
f 416/223/35 415/225/35 413/90/34
f 418/224/36 417/48/36 415/225/35
f 420/226/37 419/228/37 417/48/36
f 422/227/38 421/67/38 419/228/37
f 424/229/39 423/231/39 421/67/38
f 426/230/40 425/77/40 423/231/39
f 428/232/41 427/234/41 425/77/40
f 430/233/42 429/27/42 427/234/41
f 432/235/43 431/237/43 429/27/42
f 434/236/44 433/16/44 431/237/43
f 436/238/45 435/240/45 433/16/44
f 438/239/46 437/46/46 435/240/45
f 440/241/47 439/243/47 437/46/46
f 442/242/48 441/33/48 439/243/47
f 444/244/49 443/246/49 441/33/48
f 446/245/50 445/6/50 443/246/49
f 448/247/51 447/249/51 445/6/50
f 450/248/52 449/11/52 447/249/51
f 452/250/53 451/252/53 449/11/52
f 354/251/5 353/38/4 451/252/53
f 456/253/54 455/255/57 453/128/55
f 458/254/56 457/257/56 455/255/57
f 460/256/58 459/259/58 457/257/56
f 462/258/59 461/261/59 459/259/58
f 464/260/60 463/263/60 461/261/59
f 466/262/61 465/265/61 463/263/60
f 468/264/62 467/267/62 465/265/61
f 470/266/63 469/269/63 467/267/62
f 472/268/64 471/271/64 469/269/63
f 474/270/65 473/273/65 471/271/64
f 476/272/66 475/275/66 473/273/65
f 478/274/67 477/277/67 475/275/66
f 480/276/68 479/279/68 477/277/67
f 482/278/69 481/281/69 479/279/68
f 484/280/70 483/283/70 481/281/69
f 486/282/71 485/285/71 483/283/70
f 488/284/72 487/287/72 485/285/71
f 490/286/73 489/289/73 487/287/72
f 492/288/74 491/291/74 489/289/73
f 494/290/75 493/293/75 491/291/74
f 496/292/76 495/295/76 493/293/75
f 498/294/77 497/297/77 495/295/76
f 500/296/78 499/299/78 497/297/77
f 502/298/79 501/301/79 499/299/78
f 504/300/80 503/303/80 501/301/79
f 506/302/81 505/305/81 503/303/80
f 508/304/82 507/307/82 505/305/81
f 510/306/83 509/309/83 507/307/82
f 512/308/84 511/311/84 509/309/83
f 514/310/85 513/313/85 511/311/84
f 516/312/86 515/315/88 513/313/85
f 518/314/87 517/317/87 515/315/88
f 520/316/89 519/319/89 517/317/87
f 522/318/90 521/321/90 519/319/89
f 524/320/91 523/323/91 521/321/90
f 526/322/92 525/324/92 523/323/91
f 528/214/93 527/216/93 525/324/92
f 530/325/94 529/327/94 527/216/93
f 532/326/95 531/329/95 529/327/94
f 534/328/96 533/331/96 531/329/95
f 536/330/97 535/333/97 533/331/96
f 538/332/98 537/335/98 535/333/97
f 540/334/99 539/337/101 537/335/98
f 542/336/100 541/339/100 539/337/101
f 544/338/102 543/341/102 541/339/100
f 546/340/103 545/343/103 543/341/102
f 548/342/104 547/345/104 545/343/103
f 550/344/105 549/347/105 547/345/104
f 552/346/106 551/349/106 549/347/105
f 554/348/107 553/351/107 551/349/106
f 556/350/108 555/353/108 553/351/107
f 558/352/109 557/355/109 555/353/108
f 560/354/110 559/357/110 557/355/109
f 562/356/111 561/359/111 559/357/110
f 564/358/112 563/361/112 561/359/111
f 566/360/113 565/363/113 563/361/112
f 568/362/114 567/365/114 565/363/113
f 570/364/115 569/367/115 567/365/114
f 572/366/116 571/369/116 569/367/115
f 574/368/117 573/371/117 571/369/116
f 576/370/118 575/373/120 573/371/117
f 578/372/119 577/375/119 575/373/120
f 580/374/121 579/377/121 577/375/119
f 582/376/122 581/379/122 579/377/121
f 584/378/123 583/381/123 581/379/122
f 586/380/124 585/383/124 583/381/123
f 588/382/125 587/385/125 585/383/124
f 590/384/126 589/387/126 587/385/125
f 592/386/127 591/389/127 589/387/126
f 594/388/128 593/391/128 591/389/127
f 596/390/129 595/393/129 593/391/128
f 598/392/130 597/395/130 595/393/129
f 600/394/131 599/396/131 597/395/130
f 454/251/55 453/38/55 599/396/131
f 604/397/132 603/399/135 601/128/133
f 606/398/134 605/401/134 603/399/135
f 608/400/136 607/403/136 605/401/134
f 610/402/137 609/405/137 607/403/136
f 612/404/138 611/407/138 609/405/137
f 614/406/139 613/409/139 611/407/138
f 616/408/140 615/411/140 613/409/139
f 618/410/141 617/413/141 615/411/140
f 620/412/142 619/415/142 617/413/141
f 622/414/143 621/417/143 619/415/142
f 624/416/144 623/419/144 621/417/143
f 626/418/145 625/420/145 623/419/144
f 628/214/146 627/216/146 625/420/145
f 630/421/147 629/423/147 627/216/146
f 632/422/148 631/425/148 629/423/147
f 634/424/149 633/427/149 631/425/148
f 636/426/150 635/429/150 633/427/149
f 638/428/151 637/431/151 635/429/150
f 640/430/152 639/433/152 637/431/151
f 642/432/153 641/435/153 639/433/152
f 644/434/154 643/437/154 641/435/153
f 646/436/155 645/439/155 643/437/154
f 648/438/156 647/441/156 645/439/155
f 650/440/157 649/443/157 647/441/156
f 652/442/158 651/444/159 649/443/157
f 602/251/133 601/38/133 651/444/159
f 656/397/160 655/399/160 653/128/161
f 658/398/163 657/401/163 655/399/160
f 660/400/164 659/403/164 657/401/163
f 662/402/165 661/405/165 659/403/164
f 664/404/166 663/407/168 661/405/165
f 666/406/167 665/409/167 663/407/168
f 668/408/169 667/411/169 665/409/167
f 670/410/170 669/413/170 667/411/169
f 672/412/171 671/415/171 669/413/170
f 674/414/172 673/417/172 671/415/171
f 676/416/173 675/419/173 673/417/172
f 678/418/174 677/420/174 675/419/173
f 680/214/175 679/216/175 677/420/174
f 682/421/176 681/423/176 679/216/175
f 684/422/177 683/425/177 681/423/176
f 686/424/178 685/427/178 683/425/177
f 688/426/179 687/429/179 685/427/178
f 690/428/180 689/431/180 687/429/179
f 692/430/181 691/433/181 689/431/180
f 694/432/182 693/435/182 691/433/181
f 696/434/183 695/437/185 693/435/182
f 698/436/184 697/439/184 695/437/185
f 700/438/186 699/441/186 697/439/184
f 702/440/187 701/443/187 699/441/186
f 704/442/188 703/444/188 701/443/187
f 654/251/162 653/38/161 703/444/188
