# Blender 4.1.1
# www.blender.org
mtllib rightleft.mtl
o Text
v -0.455318 0.813197 -0.060000
v -0.452747 0.799111 -0.060000
v -0.450126 0.784988 -0.060000
v -0.447453 0.770831 -0.060000
v -0.444723 0.756644 -0.060000
v -0.441934 0.742430 -0.060000
v -0.439082 0.728193 -0.060000
v -0.436163 0.713935 -0.060000
v -0.433173 0.699661 -0.060000
v -0.430111 0.685375 -0.060000
v -0.426970 0.671078 -0.060000
v -0.426502 0.669000 -0.060000
v -0.940000 0.669000 -0.060000
v -0.940000 0.577000 -0.060000
v -0.404701 0.577000 -0.060000
v -0.402369 0.568172 -0.060000
v -0.397971 0.551879 -0.060000
v -0.393474 0.535603 -0.060000
v -0.388871 0.519352 -0.060000
v -0.384155 0.503138 -0.060000
v -0.379319 0.486970 -0.060000
v -0.374355 0.470859 -0.060000
v -0.369257 0.454815 -0.060000
v -0.364017 0.438850 -0.060000
v -0.358628 0.422972 -0.060000
v -0.353083 0.407192 -0.060000
v -0.352285 0.405000 -0.060000
v -0.914000 0.405000 -0.060000
v -0.914000 0.313000 -0.060000
v -0.646000 0.313000 -0.060000
v -0.646000 0.032000 -0.060000
v -0.959000 0.032000 -0.060000
v -0.959000 -0.061000 -0.060000
v -0.222000 -0.061000 -0.060000
v -0.222000 0.032000 -0.060000
v -0.550000 0.032000 -0.060000
v -0.550000 0.313000 -0.060000
v -0.326000 0.313000 -0.060000
v -0.326000 0.336901 -0.060000
v -0.330049 0.347270 -0.060000
v -0.313759 0.308663 -0.060000
v -0.296438 0.270735 -0.060000
v -0.278036 0.233561 -0.060000
v -0.258502 0.197220 -0.060000
v -0.237786 0.161788 -0.060000
v -0.215837 0.127342 -0.060000
v -0.192603 0.093962 -0.060000
v -0.168034 0.061726 -0.060000
v -0.142080 0.030713 -0.060000
v -0.114690 0.001004 -0.060000
v -0.077695 -0.035289 -0.060000
v -0.067720 -0.021453 -0.060000
v -0.064201 -0.016746 -0.060000
v -0.060341 -0.011738 -0.060000
v -0.056207 -0.006526 -0.060000
v -0.051866 -0.001201 -0.060000
v -0.047384 0.004144 -0.060000
v -0.042828 0.009420 -0.060000
v -0.038266 0.014533 -0.060000
v -0.033768 0.019391 -0.060000
v -0.029407 0.023899 -0.060000
v -0.025263 0.027956 -0.060000
v -0.013436 0.038759 -0.060000
v -0.056756 0.081039 -0.060000
v -0.089847 0.118279 -0.060000
v -0.120649 0.157939 -0.060000
v -0.149250 0.199815 -0.060000
v -0.175738 0.243701 -0.060000
v -0.200198 0.289388 -0.060000
v -0.222718 0.336665 -0.060000
v -0.243386 0.385323 -0.060000
v -0.262290 0.435147 -0.060000
v -0.279520 0.485926 -0.060000
v -0.295165 0.537446 -0.060000
v -0.305918 0.577000 -0.060000
v -0.057000 0.577000 -0.060000
v -0.057000 0.669000 -0.060000
v -0.328004 0.669000 -0.060000
v -0.329675 0.676412 -0.060000
v -0.332976 0.691582 -0.060000
v -0.336159 0.706740 -0.060000
v -0.339230 0.721881 -0.060000
v -0.342190 0.736996 -0.060000
v -0.345044 0.752079 -0.060000
v -0.347794 0.767122 -0.060000
v -0.350444 0.782120 -0.060000
v -0.352998 0.797064 -0.060000
v -0.355458 0.811948 -0.060000
v -0.357830 0.826765 -0.060000
v -0.361629 0.851280 -0.060000
v -0.459680 0.837452 -0.060000
v -0.455318 0.813197 0.060000
v -0.452747 0.799111 0.060000
v -0.450126 0.784988 0.060000
v -0.447453 0.770831 0.060000
v -0.444723 0.756644 0.060000
v -0.441934 0.742430 0.060000
v -0.439082 0.728193 0.060000
v -0.436163 0.713935 0.060000
v -0.433173 0.699661 0.060000
v -0.430111 0.685375 0.060000
v -0.426970 0.671078 0.060000
v -0.426502 0.669000 0.060000
v -0.940000 0.669000 0.060000
v -0.940000 0.577000 0.060000
v -0.404701 0.577000 0.060000
v -0.402369 0.568172 0.060000
v -0.397971 0.551879 0.060000
v -0.393474 0.535603 0.060000
v -0.388871 0.519352 0.060000
v -0.384155 0.503138 0.060000
v -0.379319 0.486970 0.060000
v -0.374355 0.470859 0.060000
v -0.369257 0.454815 0.060000
v -0.364017 0.438850 0.060000
v -0.358628 0.422972 0.060000
v -0.353083 0.407192 0.060000
v -0.352285 0.405000 0.060000
v -0.914000 0.405000 0.060000
v -0.914000 0.313000 0.060000
v -0.646000 0.313000 0.060000
v -0.646000 0.032000 0.060000
v -0.959000 0.032000 0.060000
v -0.959000 -0.061000 0.060000
v -0.222000 -0.061000 0.060000
v -0.222000 0.032000 0.060000
v -0.550000 0.032000 0.060000
v -0.550000 0.313000 0.060000
v -0.326000 0.313000 0.060000
v -0.326000 0.336901 0.060000
v -0.330049 0.347270 0.060000
v -0.313759 0.308663 0.060000
v -0.296438 0.270735 0.060000
v -0.278036 0.233561 0.060000
v -0.258502 0.197220 0.060000
v -0.237786 0.161788 0.060000
v -0.215837 0.127342 0.060000
v -0.192603 0.093962 0.060000
v -0.168034 0.061726 0.060000
v -0.142080 0.030713 0.060000
v -0.114690 0.001004 0.060000
v -0.077695 -0.035289 0.060000
v -0.067720 -0.021453 0.060000
v -0.064201 -0.016746 0.060000
v -0.060341 -0.011738 0.060000
v -0.056207 -0.006526 0.060000
v -0.051866 -0.001201 0.060000
v -0.047384 0.004144 0.060000
v -0.042828 0.009420 0.060000
v -0.038266 0.014533 0.060000
v -0.033768 0.019391 0.060000
v -0.029407 0.023899 0.060000
v -0.025263 0.027956 0.060000
v -0.013436 0.038759 0.060000
v -0.056756 0.081039 0.060000
v -0.089847 0.118279 0.060000
v -0.120649 0.157939 0.060000
v -0.149250 0.199815 0.060000
v -0.175738 0.243701 0.060000
v -0.200198 0.289388 0.060000
v -0.222718 0.336665 0.060000
v -0.243386 0.385323 0.060000
v -0.262290 0.435147 0.060000
v -0.279520 0.485926 0.060000
v -0.295165 0.537446 0.060000
v -0.305918 0.577000 0.060000
v -0.057000 0.577000 0.060000
v -0.057000 0.669000 0.060000
v -0.328004 0.669000 0.060000
v -0.329675 0.676412 0.060000
v -0.332976 0.691582 0.060000
v -0.336159 0.706740 0.060000
v -0.339230 0.721881 0.060000
v -0.342190 0.736996 0.060000
v -0.345044 0.752079 0.060000
v -0.347794 0.767122 0.060000
v -0.350444 0.782120 0.060000
v -0.352998 0.797064 0.060000
v -0.355458 0.811948 0.060000
v -0.357830 0.826765 0.060000
v -0.361629 0.851280 0.060000
v -0.459680 0.837452 0.060000
v -0.455318 0.813197 0.060000
v -0.455318 0.813197 -0.060000
v -0.452747 0.799111 0.060000
v -0.452747 0.799111 -0.060000
v -0.450126 0.784988 0.060000
v -0.450126 0.784988 -0.060000
v -0.447453 0.770831 0.060000
v -0.447453 0.770831 -0.060000
v -0.444723 0.756644 0.060000
v -0.444723 0.756644 -0.060000
v -0.441934 0.742430 0.060000
v -0.441934 0.742430 -0.060000
v -0.439082 0.728193 0.060000
v -0.439082 0.728193 -0.060000
v -0.436163 0.713935 0.060000
v -0.436163 0.713935 -0.060000
v -0.433173 0.699661 0.060000
v -0.433173 0.699661 -0.060000
v -0.430111 0.685375 0.060000
v -0.430111 0.685375 -0.060000
v -0.426970 0.671078 0.060000
v -0.426970 0.671078 -0.060000
v -0.426502 0.669000 0.060000
v -0.426502 0.669000 -0.060000
v -0.940000 0.669000 0.060000
v -0.940000 0.669000 -0.060000
v -0.940000 0.577000 0.060000
v -0.940000 0.577000 -0.060000
v -0.404701 0.577000 0.060000
v -0.404701 0.577000 -0.060000
v -0.402369 0.568172 0.060000
v -0.402369 0.568172 -0.060000
v -0.397971 0.551879 0.060000
v -0.397971 0.551879 -0.060000
v -0.393474 0.535603 0.060000
v -0.393474 0.535603 -0.060000
v -0.388871 0.519352 0.060000
v -0.388871 0.519352 -0.060000
v -0.384155 0.503138 0.060000
v -0.384155 0.503138 -0.060000
v -0.379319 0.486970 0.060000
v -0.379319 0.486970 -0.060000
v -0.374355 0.470859 0.060000
v -0.374355 0.470859 -0.060000
v -0.369257 0.454815 0.060000
v -0.369257 0.454815 -0.060000
v -0.364017 0.438850 0.060000
v -0.364017 0.438850 -0.060000
v -0.358628 0.422972 0.060000
v -0.358628 0.422972 -0.060000
v -0.353083 0.407192 0.060000
v -0.353083 0.407192 -0.060000
v -0.352285 0.405000 0.060000
v -0.352285 0.405000 -0.060000
v -0.914000 0.405000 0.060000
v -0.914000 0.405000 -0.060000
v -0.914000 0.313000 0.060000
v -0.914000 0.313000 -0.060000
v -0.646000 0.313000 0.060000
v -0.646000 0.313000 -0.060000
v -0.646000 0.032000 0.060000
v -0.646000 0.032000 -0.060000
v -0.959000 0.032000 0.060000
v -0.959000 0.032000 -0.060000
v -0.959000 -0.061000 0.060000
v -0.959000 -0.061000 -0.060000
v -0.222000 -0.061000 0.060000
v -0.222000 -0.061000 -0.060000
v -0.222000 0.032000 0.060000
v -0.222000 0.032000 -0.060000
v -0.550000 0.032000 0.060000
v -0.550000 0.032000 -0.060000
v -0.550000 0.313000 0.060000
v -0.550000 0.313000 -0.060000
v -0.326000 0.313000 0.060000
v -0.326000 0.313000 -0.060000
v -0.326000 0.336901 0.060000
v -0.326000 0.336901 -0.060000
v -0.330049 0.347270 0.060000
v -0.330049 0.347270 -0.060000
v -0.313759 0.308663 0.060000
v -0.313759 0.308663 -0.060000
v -0.296438 0.270735 0.060000
v -0.296438 0.270735 -0.060000
v -0.278036 0.233561 0.060000
v -0.278036 0.233561 -0.060000
v -0.258502 0.197220 0.060000
v -0.258502 0.197220 -0.060000
v -0.237786 0.161788 0.060000
v -0.237786 0.161788 -0.060000
v -0.215837 0.127342 0.060000
v -0.215837 0.127342 -0.060000
v -0.192603 0.093962 0.060000
v -0.192603 0.093962 -0.060000
v -0.168034 0.061726 0.060000
v -0.168034 0.061726 -0.060000
v -0.142080 0.030713 0.060000
v -0.142080 0.030713 -0.060000
v -0.114690 0.001004 0.060000
v -0.114690 0.001004 -0.060000
v -0.077695 -0.035289 0.060000
v -0.077695 -0.035289 -0.060000
v -0.067720 -0.021453 0.060000
v -0.067720 -0.021453 -0.060000
v -0.064201 -0.016746 0.060000
v -0.064201 -0.016746 -0.060000
v -0.060341 -0.011738 0.060000
v -0.060341 -0.011738 -0.060000
v -0.056207 -0.006526 0.060000
v -0.056207 -0.006526 -0.060000
v -0.051866 -0.001201 0.060000
v -0.051866 -0.001201 -0.060000
v -0.047384 0.004144 0.060000
v -0.047384 0.004144 -0.060000
v -0.042828 0.009420 0.060000
v -0.042828 0.009420 -0.060000
v -0.038266 0.014533 0.060000
v -0.038266 0.014533 -0.060000
v -0.033768 0.019391 0.060000
v -0.033768 0.019391 -0.060000
v -0.029407 0.023899 0.060000
v -0.029407 0.023899 -0.060000
v -0.025263 0.027956 0.060000
v -0.025263 0.027956 -0.060000
v -0.013436 0.038759 0.060000
v -0.013436 0.038759 -0.060000
v -0.056756 0.081039 0.060000
v -0.056756 0.081039 -0.060000
v -0.089847 0.118279 0.060000
v -0.089847 0.118279 -0.060000
v -0.120649 0.157939 0.060000
v -0.120649 0.157939 -0.060000
v -0.149250 0.199815 0.060000
v -0.149250 0.199815 -0.060000
v -0.175738 0.243701 0.060000
v -0.175738 0.243701 -0.060000
v -0.200198 0.289388 0.060000
v -0.200198 0.289388 -0.060000
v -0.222718 0.336665 0.060000
v -0.222718 0.336665 -0.060000
v -0.243386 0.385323 0.060000
v -0.243386 0.385323 -0.060000
v -0.262290 0.435147 0.060000
v -0.262290 0.435147 -0.060000
v -0.279520 0.485926 0.060000
v -0.279520 0.485926 -0.060000
v -0.295165 0.537446 0.060000
v -0.295165 0.537446 -0.060000
v -0.305918 0.577000 0.060000
v -0.305918 0.577000 -0.060000
v -0.057000 0.577000 0.060000
v -0.057000 0.577000 -0.060000
v -0.057000 0.669000 0.060000
v -0.057000 0.669000 -0.060000
v -0.328004 0.669000 0.060000
v -0.328004 0.669000 -0.060000
v -0.329675 0.676412 0.060000
v -0.329675 0.676412 -0.060000
v -0.332976 0.691582 0.060000
v -0.332976 0.691582 -0.060000
v -0.336159 0.706740 0.060000
v -0.336159 0.706740 -0.060000
v -0.339230 0.721881 0.060000
v -0.339230 0.721881 -0.060000
v -0.342190 0.736996 0.060000
v -0.342190 0.736996 -0.060000
v -0.345044 0.752079 0.060000
v -0.345044 0.752079 -0.060000
v -0.347794 0.767122 0.060000
v -0.347794 0.767122 -0.060000
v -0.350444 0.782120 0.060000
v -0.350444 0.782120 -0.060000
v -0.352998 0.797064 0.060000
v -0.352998 0.797064 -0.060000
v -0.355458 0.811948 0.060000
v -0.355458 0.811948 -0.060000
v -0.357830 0.826765 0.060000
v -0.357830 0.826765 -0.060000
v -0.361629 0.851280 0.060000
v -0.361629 0.851280 -0.060000
v -0.459680 0.837452 0.060000
v -0.459680 0.837452 -0.060000
vn -0.0000 -0.0000 -1.0000
vn -0.0000 -0.0000 1.0000
vn -0.9835 -0.1810 -0.0000
vn -0.9840 -0.1783 -0.0000
vn -0.9829 -0.1840 -0.0000
vn -0.9823 -0.1872 -0.0000
vn -0.9816 -0.1907 -0.0000
vn -0.9809 -0.1945 -0.0000
vn -0.9801 -0.1985 -0.0000
vn -0.9792 -0.2028 -0.0000
vn -0.9783 -0.2073 -0.0000
vn -0.9773 -0.2121 -0.0000
vn -0.9761 -0.2171 -0.0000
vn -0.7809 0.6246 -0.0000
vn -0.7071 0.7071 -0.0000
vn -0.7071 -0.7071 -0.0000
vn -0.6102 -0.7923 -0.0000
vn -0.9661 -0.2580 -0.0000
vn -0.9647 -0.2635 -0.0000
vn -0.9630 -0.2694 -0.0000
vn -0.9612 -0.2759 -0.0000
vn -0.9591 -0.2829 -0.0000
vn -0.9569 -0.2905 -0.0000
vn -0.9544 -0.2987 -0.0000
vn -0.9516 -0.3073 -0.0000
vn -0.9544 -0.2986 -0.0000
vn -0.9486 -0.3166 -0.0000
vn -0.9452 -0.3265 -0.0000
vn -0.9415 -0.3369 -0.0000
vn -0.8192 0.5735 -0.0000
vn 0.7071 -0.7071 -0.0000
vn 0.7071 0.7071 -0.0000
vn 0.9827 0.1851 -0.0000
vn 0.3768 -0.9263 -0.0000
vn -0.9156 -0.4021 -0.0000
vn 0.3781 -0.9258 -0.0000
vn -0.9030 -0.4296 -0.0000
vn -0.8886 -0.4586 -0.0000
vn -0.8722 -0.4892 -0.0000
vn -0.8535 -0.5212 -0.0000
vn -0.8322 -0.5545 -0.0000
vn -0.8082 -0.5889 -0.0000
vn -0.8322 -0.5544 -0.0000
vn -0.7813 -0.6241 -0.0000
vn -0.7513 -0.6600 -0.0000
vn -0.7180 -0.6961 -0.0000
vn 0.0851 -0.9964 -0.0000
vn 0.8061 -0.5918 -0.0000
vn 0.7965 -0.6046 -0.0000
vn 0.7877 -0.6160 -0.0000
vn 0.7793 -0.6267 -0.0000
vn 0.7707 -0.6372 -0.0000
vn 0.7616 -0.6481 -0.0000
vn 0.7515 -0.6597 -0.0000
vn 0.7400 -0.6726 -0.0000
vn 0.7263 -0.6874 -0.0000
vn 0.7092 -0.7050 -0.0000
vn 0.6871 -0.7265 -0.0000
vn 0.9999 -0.0166 -0.0000
vn 0.7235 0.6904 -0.0000
vn 0.7691 0.6392 -0.0000
vn 0.8082 0.5890 -0.0000
vn 0.8413 0.5406 -0.0000
vn 0.8692 0.4945 -0.0000
vn 0.8925 0.4511 -0.0000
vn 0.9118 0.4106 -0.0000
vn 0.8924 0.4511 -0.0000
vn 0.9279 0.3729 -0.0000
vn 0.9411 0.3381 -0.0000
vn 0.9520 0.3060 -0.0000
vn 0.9610 0.2765 -0.0000
vn 0.7944 -0.6073 -0.0000
vn 0.7945 -0.6073 -0.0000
vn 0.6245 0.7810 -0.0000
vn 0.9763 0.2163 -0.0000
vn 0.9779 0.2091 -0.0000
vn 0.9794 0.2022 -0.0000
vn 0.9807 0.1955 -0.0000
vn 0.9820 0.1890 -0.0000
vn 0.9831 0.1829 -0.0000
vn 0.9842 0.1769 -0.0000
vn 0.9852 0.1712 -0.0000
vn 0.9862 0.1658 -0.0000
vn 0.9870 0.1606 -0.0000
vn 0.9878 0.1556 -0.0000
vn 0.5960 0.8030 -0.0000
vn -0.8101 0.5862 -0.0000
vn 0.5959 0.8030 -0.0000
vt 0.100600 0.901625
vt 0.102281 0.901625
vt 0.101441 0.901625
vt 0.026625 0.901625
vt 0.099760 0.901625
vt 0.027466 0.901625
vt 0.098919 0.901625
vt 0.028306 0.901625
vt 0.098078 0.901625
vt 0.029147 0.901625
vt 0.097238 0.901625
vt 0.029988 0.901625
vt 0.096397 0.901625
vt 0.030828 0.901625
vt 0.095556 0.901625
vt 0.031669 0.901625
vt 0.094716 0.901625
vt 0.032509 0.901625
vt 0.093875 0.901625
vt 0.033350 0.901625
vt 0.093035 0.901625
vt 0.034191 0.901625
vt 0.092194 0.901625
vt 0.035031 0.901625
vt 0.091353 0.901625
vt 0.035872 0.901625
vt 0.089672 0.901625
vt 0.090513 0.901625
vt 0.036713 0.901625
vt 0.037553 0.901625
vt 0.088831 0.901625
vt 0.087991 0.901625
vt 0.038394 0.901625
vt 0.039234 0.901625
vt 0.040075 0.901625
vt 0.040916 0.901625
vt 0.087150 0.901625
vt 0.041756 0.901625
vt 0.042597 0.901625
vt 0.043438 0.901625
vt 0.044278 0.901625
vt 0.086309 0.901625
vt 0.045119 0.901625
vt 0.045959 0.901625
vt 0.046800 0.901625
vt 0.085469 0.901625
vt 0.047641 0.901625
vt 0.048481 0.901625
vt 0.049322 0.901625
vt 0.050163 0.901625
vt 0.084628 0.901625
vt 0.059409 0.901625
vt 0.060250 0.901625
vt 0.058569 0.901625
vt 0.057728 0.901625
vt 0.083788 0.901625
vt 0.056888 0.901625
vt 0.056047 0.901625
vt 0.051003 0.901625
vt 0.051844 0.901625
vt 0.061091 0.901625
vt 0.082947 0.901625
vt 0.061931 0.901625
vt 0.082106 0.901625
vt 0.062772 0.901625
vt 0.081266 0.901625
vt 0.063613 0.901625
vt 0.064453 0.901625
vt 0.080425 0.901625
vt 0.065294 0.901625
vt 0.079584 0.901625
vt 0.066134 0.901625
vt 0.078744 0.901625
vt 0.066975 0.901625
vt 0.077903 0.901625
vt 0.054366 0.901625
vt 0.055206 0.901625
vt 0.052684 0.901625
vt 0.053525 0.901625
vt 0.067816 0.901625
vt 0.077063 0.901625
vt 0.076222 0.901625
vt 0.075381 0.901625
vt 0.074541 0.901625
vt 0.073700 0.901625
vt 0.072859 0.901625
vt 0.072019 0.901625
vt 0.071178 0.901625
vt 0.070338 0.901625
vt 0.069497 0.901625
vt 0.068656 0.901625
vt 0.027456 0.977281
vt 0.026625 0.977281
vt 0.028288 0.977281
vt 0.027456 0.901625
vt 0.029119 0.977281
vt 0.028288 0.901625
vt 0.029951 0.977281
vt 0.029119 0.901625
vt 0.030782 0.977281
vt 0.029951 0.901625
vt 0.031613 0.977281
vt 0.030782 0.901625
vt 0.032445 0.977281
vt 0.031613 0.901625
vt 0.033276 0.977281
vt 0.032445 0.901625
vt 0.034108 0.977281
vt 0.033276 0.901625
vt 0.034939 0.977281
vt 0.034108 0.901625
vt 0.035770 0.977281
vt 0.034939 0.901625
vt 0.036602 0.977281
vt 0.035770 0.901625
vt 0.037433 0.977281
vt 0.036602 0.901625
vt 0.038264 0.977281
vt 0.037433 0.901625
vt 0.039096 0.977281
vt 0.038264 0.901625
vt 0.039927 0.977281
vt 0.039096 0.901625
vt 0.040759 0.977281
vt 0.039927 0.901625
vt 0.041590 0.977281
vt 0.040759 0.901625
vt 0.042421 0.977281
vt 0.041590 0.901625
vt 0.043253 0.977281
vt 0.042421 0.901625
vt 0.044084 0.977281
vt 0.043253 0.901625
vt 0.044916 0.977281
vt 0.044084 0.901625
vt 0.045747 0.977281
vt 0.044916 0.901625
vt 0.046578 0.977281
vt 0.045747 0.901625
vt 0.047410 0.977281
vt 0.046578 0.901625
vt 0.048241 0.977281
vt 0.047410 0.901625
vt 0.049073 0.977281
vt 0.048241 0.901625
vt 0.049904 0.977281
vt 0.049073 0.901625
vt 0.050735 0.977281
vt 0.049904 0.901625
vt 0.051567 0.977281
vt 0.050735 0.901625
vt 0.052398 0.977281
vt 0.051567 0.901625
vt 0.053229 0.977281
vt 0.052398 0.901625
vt 0.054061 0.977281
vt 0.053229 0.901625
vt 0.054892 0.977281
vt 0.054061 0.901625
vt 0.055724 0.977281
vt 0.054892 0.901625
vt 0.056555 0.977281
vt 0.055724 0.901625
vt 0.057386 0.977281
vt 0.056555 0.901625
vt 0.058218 0.977281
vt 0.057386 0.901625
vt 0.059049 0.977281
vt 0.058218 0.901625
vt 0.059881 0.977281
vt 0.059049 0.901625
vt 0.060712 0.977281
vt 0.059881 0.901625
vt 0.061543 0.977281
vt 0.060712 0.901625
vt 0.062375 0.977281
vt 0.061543 0.901625
vt 0.063206 0.977281
vt 0.062375 0.901625
vt 0.064038 0.977281
vt 0.063206 0.901625
vt 0.064869 0.977281
vt 0.064038 0.901625
vt 0.065700 0.977281
vt 0.064869 0.901625
vt 0.066532 0.977281
vt 0.065700 0.901625
vt 0.067363 0.977281
vt 0.066532 0.901625
vt 0.068194 0.977281
vt 0.067363 0.901625
vt 0.069026 0.977281
vt 0.068194 0.901625
vt 0.069857 0.977281
vt 0.069026 0.901625
vt 0.070689 0.977281
vt 0.069857 0.901625
vt 0.071520 0.977281
vt 0.070689 0.901625
vt 0.072351 0.977281
vt 0.071520 0.901625
vt 0.073183 0.977281
vt 0.072351 0.901625
vt 0.074014 0.977281
vt 0.073183 0.901625
vt 0.074846 0.977281
vt 0.074014 0.901625
vt 0.075677 0.977281
vt 0.074846 0.901625
vt 0.076508 0.977281
vt 0.075677 0.901625
vt 0.077340 0.977281
vt 0.076508 0.901625
vt 0.078171 0.977281
vt 0.077340 0.901625
vt 0.079003 0.977281
vt 0.078171 0.901625
vt 0.079834 0.977281
vt 0.079003 0.901625
vt 0.080665 0.977281
vt 0.079834 0.901625
vt 0.081497 0.977281
vt 0.080665 0.901625
vt 0.082328 0.977281
vt 0.081497 0.901625
vt 0.083159 0.977281
vt 0.082328 0.901625
vt 0.083991 0.977281
vt 0.083159 0.901625
vt 0.084822 0.977281
vt 0.083991 0.901625
vt 0.085654 0.977281
vt 0.084822 0.901625
vt 0.086485 0.977281
vt 0.085654 0.901625
vt 0.087316 0.977281
vt 0.086485 0.901625
vt 0.088148 0.977281
vt 0.087316 0.901625
vt 0.088979 0.977281
vt 0.088148 0.901625
vt 0.089811 0.977281
vt 0.088979 0.901625
vt 0.090642 0.977281
vt 0.089811 0.901625
vt 0.091473 0.977281
vt 0.090642 0.901625
vt 0.092305 0.977281
vt 0.091473 0.901625
vt 0.093136 0.977281
vt 0.092305 0.901625
vt 0.093968 0.977281
vt 0.093136 0.901625
vt 0.094799 0.977281
vt 0.093968 0.901625
vt 0.095630 0.977281
vt 0.094799 0.901625
vt 0.096462 0.977281
vt 0.095630 0.901625
vt 0.097293 0.977281
vt 0.096462 0.901625
vt 0.098124 0.977281
vt 0.097293 0.901625
vt 0.098956 0.977281
vt 0.098124 0.901625
vt 0.099787 0.977281
vt 0.098956 0.901625
vt 0.100619 0.977281
vt 0.099787 0.901625
vt 0.101450 0.977281
vt 0.100619 0.901625
vt 0.102281 0.977281
vt 0.101450 0.901625
s 0
usemtl 
f 89/1/1 91/2/1 90/3/1
f 89/1/1 1/4/1 91/2/1
f 88/5/1 1/4/1 89/1/1
f 88/5/1 2/6/1 1/4/1
f 87/7/1 2/6/1 88/5/1
f 87/7/1 3/8/1 2/6/1
f 86/9/1 3/8/1 87/7/1
f 86/9/1 4/10/1 3/8/1
f 85/11/1 4/10/1 86/9/1
f 85/11/1 5/12/1 4/10/1
f 84/13/1 5/12/1 85/11/1
f 84/13/1 6/14/1 5/12/1
f 83/15/1 6/14/1 84/13/1
f 83/15/1 7/16/1 6/14/1
f 82/17/1 7/16/1 83/15/1
f 82/17/1 8/18/1 7/16/1
f 81/19/1 8/18/1 82/17/1
f 81/19/1 9/20/1 8/18/1
f 80/21/1 9/20/1 81/19/1
f 80/21/1 10/22/1 9/20/1
f 79/23/1 10/22/1 80/21/1
f 79/23/1 11/24/1 10/22/1
f 78/25/1 11/24/1 79/23/1
f 78/25/1 12/26/1 11/24/1
f 76/27/1 78/25/1 77/28/1
f 76/27/1 12/26/1 78/25/1
f 76/27/1 13/29/1 12/26/1
f 76/27/1 14/30/1 13/29/1
f 75/31/2 14/30/2 76/27/2
f 74/32/1 15/33/1 75/31/1
f 15/33/2 14/30/2 75/31/2
f 74/32/1 16/34/1 15/33/1
f 74/32/1 17/35/1 16/34/1
f 74/32/1 18/36/1 17/35/1
f 73/37/1 18/36/1 74/32/1
f 73/37/1 19/38/1 18/36/1
f 73/37/1 20/39/1 19/38/1
f 73/37/1 21/40/1 20/39/1
f 73/37/1 22/41/1 21/40/1
f 72/42/1 22/41/1 73/37/1
f 72/42/1 23/43/1 22/41/1
f 72/42/1 24/44/1 23/43/1
f 72/42/1 25/45/1 24/44/1
f 71/46/1 25/45/1 72/42/1
f 71/46/1 26/47/1 25/45/1
f 71/46/1 27/48/1 26/47/1
f 71/46/1 28/49/1 27/48/1
f 71/46/1 29/50/1 28/49/1
f 70/51/1 40/52/1 71/46/1
f 40/52/1 29/50/1 71/46/1
f 70/51/1 41/53/1 40/52/1
f 39/54/1 29/50/1 40/52/1
f 38/55/1 29/50/1 39/54/1
f 69/56/1 41/53/1 70/51/1
f 37/57/1 29/50/1 38/55/1
f 36/58/1 30/59/1 37/57/1
f 30/59/1 29/50/1 37/57/1
f 36/58/1 31/60/1 30/59/1
f 69/56/1 42/61/1 41/53/1
f 68/62/1 42/61/1 69/56/1
f 68/62/1 43/63/1 42/61/1
f 67/64/1 43/63/1 68/62/1
f 67/64/1 44/65/1 43/63/1
f 66/66/1 44/65/1 67/64/1
f 66/66/1 45/67/1 44/65/1
f 66/66/1 46/68/1 45/67/1
f 65/69/1 46/68/1 66/66/1
f 65/69/1 47/70/1 46/68/1
f 64/71/1 47/70/1 65/69/1
f 64/71/1 48/72/1 47/70/1
f 63/73/1 48/72/1 64/71/1
f 63/73/1 49/74/1 48/72/1
f 62/75/1 49/74/1 63/73/1
f 34/76/1 36/58/1 35/77/1
f 34/76/1 31/60/1 36/58/1
f 34/76/1 32/78/1 31/60/1
f 34/76/1 33/79/1 32/78/1
f 62/75/1 50/80/1 49/74/1
f 61/81/1 50/80/1 62/75/1
f 60/82/1 50/80/1 61/81/1
f 59/83/1 50/80/1 60/82/1
f 58/84/1 50/80/1 59/83/1
f 57/85/1 50/80/1 58/84/1
f 56/86/1 50/80/1 57/85/1
f 56/86/1 55/87/1 50/80/1
f 55/87/1 54/88/1 50/80/1
f 54/88/1 53/89/1 50/80/1
f 53/89/1 52/90/1 50/80/1
f 52/90/1 51/91/1 50/80/1
f 180/1/2 181/3/2 182/2/2
f 180/1/2 182/2/2 92/4/2
f 179/5/2 180/1/2 92/4/2
f 179/5/2 92/4/2 93/6/2
f 178/7/2 179/5/2 93/6/2
f 178/7/2 93/6/2 94/8/2
f 177/9/2 178/7/2 94/8/2
f 177/9/2 94/8/2 95/10/2
f 176/11/2 177/9/2 95/10/2
f 176/11/2 95/10/2 96/12/2
f 175/13/2 176/11/2 96/12/2
f 175/13/2 96/12/2 97/14/2
f 174/15/2 175/13/2 97/14/2
f 174/15/2 97/14/2 98/16/2
f 173/17/2 174/15/2 98/16/2
f 173/17/2 98/16/2 99/18/2
f 172/19/2 173/17/2 99/18/2
f 172/19/2 99/18/2 100/20/2
f 171/21/2 172/19/2 100/20/2
f 171/21/2 100/20/2 101/22/2
f 170/23/2 171/21/2 101/22/2
f 170/23/2 101/22/2 102/24/2
f 169/25/2 170/23/2 102/24/2
f 169/25/2 102/24/2 103/26/2
f 167/27/2 168/28/2 169/25/2
f 167/27/2 169/25/2 103/26/2
f 167/27/2 103/26/2 104/29/2
f 167/27/2 104/29/2 105/30/2
f 166/31/1 167/27/1 105/30/1
f 165/32/2 166/31/2 106/33/2
f 106/33/1 166/31/1 105/30/1
f 165/32/2 106/33/2 107/34/2
f 165/32/2 107/34/2 108/35/2
f 165/32/2 108/35/2 109/36/2
f 164/37/2 165/32/2 109/36/2
f 164/37/2 109/36/2 110/38/2
f 164/37/2 110/38/2 111/39/2
f 164/37/2 111/39/2 112/40/2
f 164/37/2 112/40/2 113/41/2
f 163/42/2 164/37/2 113/41/2
f 163/42/2 113/41/2 114/43/2
f 163/42/2 114/43/2 115/44/2
f 163/42/2 115/44/2 116/45/2
f 162/46/2 163/42/2 116/45/2
f 162/46/2 116/45/2 117/47/2
f 162/46/2 117/47/2 118/48/2
f 162/46/2 118/48/2 119/49/2
f 162/46/2 119/49/2 120/50/2
f 161/51/2 162/46/2 131/52/2
f 131/52/2 162/46/2 120/50/2
f 161/51/2 131/52/2 132/53/2
f 130/54/2 131/52/2 120/50/2
f 129/55/2 130/54/2 120/50/2
f 160/56/2 161/51/2 132/53/2
f 128/57/2 129/55/2 120/50/2
f 127/58/2 128/57/2 121/59/2
f 121/59/1 128/57/1 120/50/1
f 127/58/2 121/59/2 122/60/2
f 160/56/2 132/53/2 133/61/2
f 159/62/2 160/56/2 133/61/2
f 159/62/2 133/61/2 134/63/2
f 158/64/2 159/62/2 134/63/2
f 158/64/2 134/63/2 135/65/2
f 157/66/2 158/64/2 135/65/2
f 157/66/2 135/65/2 136/67/2
f 157/66/2 136/67/2 137/68/2
f 156/69/2 157/66/2 137/68/2
f 156/69/2 137/68/2 138/70/2
f 155/71/2 156/69/2 138/70/2
f 155/71/2 138/70/2 139/72/2
f 154/73/2 155/71/2 139/72/2
f 154/73/2 139/72/2 140/74/2
f 153/75/2 154/73/2 140/74/2
f 125/76/2 126/77/2 127/58/2
f 125/76/2 127/58/2 122/60/2
f 125/76/2 122/60/2 123/78/2
f 125/76/2 123/78/2 124/79/2
f 153/75/2 140/74/2 141/80/2
f 152/81/2 153/75/2 141/80/2
f 151/82/2 152/81/2 141/80/2
f 150/83/2 151/82/2 141/80/2
f 149/84/2 150/83/2 141/80/2
f 148/85/2 149/84/2 141/80/2
f 147/86/2 148/85/2 141/80/2
f 147/86/2 141/80/2 146/87/2
f 146/87/2 141/80/2 145/88/2
f 145/88/2 141/80/2 144/89/2
f 144/89/2 141/80/2 143/90/2
f 143/90/2 141/80/2 142/91/2
s 1
f 186/92/3 183/4/4 184/93/4
f 188/94/5 185/95/3 186/92/3
f 190/96/6 187/97/5 188/94/5
f 192/98/7 189/99/6 190/96/6
f 194/100/8 191/101/7 192/98/7
f 196/102/9 193/103/8 194/100/8
f 198/104/10 195/105/9 196/102/9
f 200/106/11 197/107/10 198/104/10
f 202/108/12 199/109/11 200/106/11
f 204/110/13 201/111/12 202/108/12
f 206/112/14 203/113/13 204/110/13
f 208/114/15 205/115/14 206/112/14
f 210/116/16 207/117/15 208/114/15
f 212/118/17 209/119/16 210/116/16
f 214/120/18 211/121/17 212/118/17
f 216/122/19 213/123/18 214/120/18
f 218/124/20 215/125/19 216/122/19
f 220/126/21 217/127/20 218/124/20
f 222/128/22 219/129/21 220/126/21
f 224/130/23 221/131/22 222/128/22
f 226/132/24 223/133/23 224/130/23
f 228/134/25 225/135/26 226/132/24
f 230/136/27 227/137/25 228/134/25
f 232/138/28 229/139/27 230/136/27
f 234/140/29 231/141/28 232/138/28
f 236/142/30 233/143/29 234/140/29
f 238/144/15 235/145/30 236/142/30
f 240/146/16 237/147/15 238/144/15
f 242/148/16 239/149/16 240/146/16
f 244/150/15 241/151/16 242/148/16
f 246/152/15 243/153/15 244/150/15
f 248/154/16 245/155/15 246/152/15
f 250/156/31 247/157/16 248/154/16
f 252/158/32 249/159/31 250/156/31
f 254/160/32 251/161/32 252/158/32
f 256/162/31 253/163/32 254/160/32
f 258/164/31 255/165/31 256/162/31
f 260/166/33 257/167/31 258/164/31
f 262/168/34 259/169/33 260/166/33
f 264/170/35 261/171/36 262/168/34
f 266/172/37 263/173/35 264/170/35
f 268/174/38 265/175/37 266/172/37
f 270/176/39 267/177/38 268/174/38
f 272/178/40 269/179/39 270/176/39
f 274/180/41 271/181/40 272/178/40
f 276/182/42 273/183/43 274/180/41
f 278/184/44 275/185/42 276/182/42
f 280/186/45 277/187/44 278/184/44
f 282/188/46 279/189/45 280/186/45
f 284/190/47 281/191/46 282/188/46
f 286/192/48 283/193/47 284/190/47
f 288/194/49 285/195/48 286/192/48
f 290/196/50 287/197/49 288/194/49
f 292/198/51 289/199/50 290/196/50
f 294/200/52 291/201/51 292/198/51
f 296/202/53 293/203/52 294/200/52
f 298/204/54 295/205/53 296/202/53
f 300/206/55 297/207/54 298/204/54
f 302/208/56 299/209/55 300/206/55
f 304/210/57 301/211/56 302/208/56
f 306/212/58 303/213/57 304/210/57
f 308/214/59 305/215/58 306/212/58
f 310/216/60 307/217/59 308/214/59
f 312/218/61 309/219/60 310/216/60
f 314/220/62 311/221/61 312/218/61
f 316/222/63 313/223/62 314/220/62
f 318/224/64 315/225/63 316/222/63
f 320/226/65 317/227/64 318/224/64
f 322/228/66 319/229/67 320/226/65
f 324/230/68 321/231/66 322/228/66
f 326/232/69 323/233/68 324/230/68
f 328/234/70 325/235/69 326/232/69
f 330/236/71 327/237/70 328/234/70
f 332/238/72 329/239/71 330/236/71
f 334/240/31 331/241/73 332/238/72
f 336/242/32 333/243/31 334/240/31
f 338/244/74 335/245/32 336/242/32
f 340/246/75 337/247/74 338/244/74
f 342/248/76 339/249/75 340/246/75
f 344/250/77 341/251/76 342/248/76
f 346/252/78 343/253/77 344/250/77
f 348/254/79 345/255/78 346/252/78
f 350/256/80 347/257/79 348/254/79
f 352/258/81 349/259/80 350/256/80
f 354/260/82 351/261/81 352/258/81
f 356/262/83 353/263/82 354/260/82
f 358/264/84 355/265/83 356/262/83
f 360/266/85 357/267/84 358/264/84
f 362/268/86 359/269/85 360/266/85
f 364/270/87 361/271/88 362/268/86
f 184/272/4 363/273/87 364/270/87
f 186/92/3 185/95/3 183/4/4
f 188/94/5 187/97/5 185/95/3
f 190/96/6 189/99/6 187/97/5
f 192/98/7 191/101/7 189/99/6
f 194/100/8 193/103/8 191/101/7
f 196/102/9 195/105/9 193/103/8
f 198/104/10 197/107/10 195/105/9
f 200/106/11 199/109/11 197/107/10
f 202/108/12 201/111/12 199/109/11
f 204/110/13 203/113/13 201/111/12
f 206/112/14 205/115/14 203/113/13
f 208/114/15 207/117/15 205/115/14
f 210/116/16 209/119/16 207/117/15
f 212/118/17 211/121/17 209/119/16
f 214/120/18 213/123/18 211/121/17
f 216/122/19 215/125/19 213/123/18
f 218/124/20 217/127/20 215/125/19
f 220/126/21 219/129/21 217/127/20
f 222/128/22 221/131/22 219/129/21
f 224/130/23 223/133/23 221/131/22
f 226/132/24 225/135/26 223/133/23
f 228/134/25 227/137/25 225/135/26
f 230/136/27 229/139/27 227/137/25
f 232/138/28 231/141/28 229/139/27
f 234/140/29 233/143/29 231/141/28
f 236/142/30 235/145/30 233/143/29
f 238/144/15 237/147/15 235/145/30
f 240/146/16 239/149/16 237/147/15
f 242/148/16 241/151/16 239/149/16
f 244/150/15 243/153/15 241/151/16
f 246/152/15 245/155/15 243/153/15
f 248/154/16 247/157/16 245/155/15
f 250/156/31 249/159/31 247/157/16
f 252/158/32 251/161/32 249/159/31
f 254/160/32 253/163/32 251/161/32
f 256/162/31 255/165/31 253/163/32
f 258/164/31 257/167/31 255/165/31
f 260/166/33 259/169/33 257/167/31
f 262/168/34 261/171/36 259/169/33
f 264/170/35 263/173/35 261/171/36
f 266/172/37 265/175/37 263/173/35
f 268/174/38 267/177/38 265/175/37
f 270/176/39 269/179/39 267/177/38
f 272/178/40 271/181/40 269/179/39
f 274/180/41 273/183/43 271/181/40
f 276/182/42 275/185/42 273/183/43
f 278/184/44 277/187/44 275/185/42
f 280/186/45 279/189/45 277/187/44
f 282/188/46 281/191/46 279/189/45
f 284/190/47 283/193/47 281/191/46
f 286/192/48 285/195/48 283/193/47
f 288/194/49 287/197/49 285/195/48
f 290/196/50 289/199/50 287/197/49
f 292/198/51 291/201/51 289/199/50
f 294/200/52 293/203/52 291/201/51
f 296/202/53 295/205/53 293/203/52
f 298/204/54 297/207/54 295/205/53
f 300/206/55 299/209/55 297/207/54
f 302/208/56 301/211/56 299/209/55
f 304/210/57 303/213/57 301/211/56
f 306/212/58 305/215/58 303/213/57
f 308/214/59 307/217/59 305/215/58
f 310/216/60 309/219/60 307/217/59
f 312/218/61 311/221/61 309/219/60
f 314/220/62 313/223/62 311/221/61
f 316/222/63 315/225/63 313/223/62
f 318/224/64 317/227/64 315/225/63
f 320/226/65 319/229/67 317/227/64
f 322/228/66 321/231/66 319/229/67
f 324/230/68 323/233/68 321/231/66
f 326/232/69 325/235/69 323/233/68
f 328/234/70 327/237/70 325/235/69
f 330/236/71 329/239/71 327/237/70
f 332/238/72 331/241/73 329/239/71
f 334/240/31 333/243/31 331/241/73
f 336/242/32 335/245/32 333/243/31
f 338/244/74 337/247/74 335/245/32
f 340/246/75 339/249/75 337/247/74
f 342/248/76 341/251/76 339/249/75
f 344/250/77 343/253/77 341/251/76
f 346/252/78 345/255/78 343/253/77
f 348/254/79 347/257/79 345/255/78
f 350/256/80 349/259/80 347/257/79
f 352/258/81 351/261/81 349/259/80
f 354/260/82 353/263/82 351/261/81
f 356/262/83 355/265/83 353/263/82
f 358/264/84 357/267/84 355/265/83
f 360/266/85 359/269/85 357/267/84
f 362/268/86 361/271/88 359/269/85
f 364/270/87 363/273/87 361/271/88
f 184/272/4 183/2/4 363/273/87
o Text.001
v -0.505175 -0.304107 -0.060000
v -0.501535 -0.318607 -0.060000
v -0.497812 -0.333072 -0.060000
v -0.494005 -0.347505 -0.060000
v -0.490115 -0.361909 -0.060000
v -0.486141 -0.376289 -0.060000
v -0.482083 -0.390647 -0.060000
v -0.477943 -0.404986 -0.060000
v -0.473719 -0.419312 -0.060000
v -0.469411 -0.433626 -0.060000
v -0.465020 -0.447932 -0.060000
v -0.464616 -0.449222 -0.060000
v -0.958010 -0.449222 -0.060000
v -0.958010 -0.542222 -0.060000
v -0.431844 -0.542222 -0.060000
v -0.427698 -0.552854 -0.060000
v -0.420836 -0.569786 -0.060000
v -0.413763 -0.586587 -0.060000
v -0.406479 -0.603252 -0.060000
v -0.398984 -0.619780 -0.060000
v -0.391279 -0.636166 -0.060000
v -0.383364 -0.652406 -0.060000
v -0.375237 -0.668498 -0.060000
v -0.366900 -0.684437 -0.060000
v -0.358351 -0.700220 -0.060000
v -0.349592 -0.715844 -0.060000
v -0.349373 -0.716222 -0.060000
v -0.885010 -0.716222 -0.060000
v -0.885010 -1.198222 -0.060000
v -0.787010 -1.198222 -0.060000
v -0.787010 -1.147222 -0.060000
v -0.362010 -1.147222 -0.060000
v -0.362010 -1.203222 -0.060000
v -0.267010 -1.203222 -0.060000
v -0.267010 -0.839217 -0.060000
v -0.271749 -0.832898 -0.060000
v -0.258027 -0.850324 -0.060000
v -0.243900 -0.867396 -0.060000
v -0.229358 -0.884106 -0.060000
v -0.214389 -0.900441 -0.060000
v -0.198984 -0.916391 -0.060000
v -0.183132 -0.931944 -0.060000
v -0.166823 -0.947090 -0.060000
v -0.150046 -0.961816 -0.060000
v -0.132792 -0.976112 -0.060000
v -0.115051 -0.989966 -0.060000
v -0.088621 -1.009387 -0.060000
v -0.079626 -0.996321 -0.060000
v -0.076146 -0.991529 -0.060000
v -0.072314 -0.986476 -0.060000
v -0.068200 -0.981246 -0.060000
v -0.063870 -0.975920 -0.060000
v -0.059392 -0.970576 -0.060000
v -0.054832 -0.965294 -0.060000
v -0.050256 -0.960149 -0.060000
v -0.045732 -0.955220 -0.060000
v -0.041329 -0.950585 -0.060000
v -0.037118 -0.946325 -0.060000
v -0.024480 -0.934139 -0.060000
v -0.068660 -0.902064 -0.060000
v -0.101058 -0.875286 -0.060000
v -0.131644 -0.846721 -0.060000
v -0.160470 -0.816485 -0.060000
v -0.187587 -0.784693 -0.060000
v -0.213046 -0.751462 -0.060000
v -0.236896 -0.716910 -0.060000
v -0.259185 -0.681155 -0.060000
v -0.279964 -0.644317 -0.060000
v -0.299281 -0.606515 -0.060000
v -0.317185 -0.567870 -0.060000
v -0.327961 -0.542222 -0.060000
v -0.064010 -0.542222 -0.060000
v -0.064010 -0.449222 -0.060000
v -0.362799 -0.449222 -0.060000
v -0.365672 -0.440593 -0.060000
v -0.370641 -0.425137 -0.060000
v -0.375444 -0.409652 -0.060000
v -0.380081 -0.394146 -0.060000
v -0.384554 -0.378625 -0.060000
v -0.388860 -0.363097 -0.060000
v -0.393001 -0.347569 -0.060000
v -0.396977 -0.332048 -0.060000
v -0.400787 -0.316540 -0.060000
v -0.404431 -0.301053 -0.060000
v -0.407910 -0.285594 -0.060000
v -0.413288 -0.260554 -0.060000
v -0.511221 -0.279387 -0.060000
v -0.787010 -0.809222 -0.060000
v -0.362010 -0.809222 -0.060000
v -0.362010 -1.054222 -0.060000
v -0.787010 -1.054222 -0.060000
v -0.505175 -0.304107 0.060000
v -0.501535 -0.318607 0.060000
v -0.497812 -0.333072 0.060000
v -0.494005 -0.347505 0.060000
v -0.490115 -0.361909 0.060000
v -0.486141 -0.376289 0.060000
v -0.482083 -0.390647 0.060000
v -0.477943 -0.404986 0.060000
v -0.473719 -0.419312 0.060000
v -0.469411 -0.433626 0.060000
v -0.465020 -0.447932 0.060000
v -0.464616 -0.449222 0.060000
v -0.958010 -0.449222 0.060000
v -0.958010 -0.542222 0.060000
v -0.431844 -0.542222 0.060000
v -0.427698 -0.552854 0.060000
v -0.420836 -0.569786 0.060000
v -0.413763 -0.586587 0.060000
v -0.406479 -0.603252 0.060000
v -0.398984 -0.619780 0.060000
v -0.391279 -0.636166 0.060000
v -0.383364 -0.652406 0.060000
v -0.375237 -0.668498 0.060000
v -0.366900 -0.684437 0.060000
v -0.358351 -0.700220 0.060000
v -0.349592 -0.715844 0.060000
v -0.349373 -0.716222 0.060000
v -0.885010 -0.716222 0.060000
v -0.885010 -1.198222 0.060000
v -0.787010 -1.198222 0.060000
v -0.787010 -1.147222 0.060000
v -0.362010 -1.147222 0.060000
v -0.362010 -1.203222 0.060000
v -0.267010 -1.203222 0.060000
v -0.267010 -0.839217 0.060000
v -0.271749 -0.832898 0.060000
v -0.258027 -0.850324 0.060000
v -0.243900 -0.867396 0.060000
v -0.229358 -0.884106 0.060000
v -0.214389 -0.900441 0.060000
v -0.198984 -0.916391 0.060000
v -0.183132 -0.931944 0.060000
v -0.166823 -0.947090 0.060000
v -0.150046 -0.961816 0.060000
v -0.132792 -0.976112 0.060000
v -0.115051 -0.989967 0.060000
v -0.088621 -1.009387 0.060000
v -0.079626 -0.996321 0.060000
v -0.076146 -0.991529 0.060000
v -0.072314 -0.986476 0.060000
v -0.068200 -0.981246 0.060000
v -0.063870 -0.975920 0.060000
v -0.059392 -0.970576 0.060000
v -0.054832 -0.965294 0.060000
v -0.050256 -0.960149 0.060000
v -0.045732 -0.955220 0.060000
v -0.041329 -0.950585 0.060000
v -0.037118 -0.946325 0.060000
v -0.024480 -0.934139 0.060000
v -0.068660 -0.902064 0.060000
v -0.101058 -0.875286 0.060000
v -0.131644 -0.846721 0.060000
v -0.160470 -0.816485 0.060000
v -0.187587 -0.784693 0.060000
v -0.213046 -0.751462 0.060000
v -0.236896 -0.716910 0.060000
v -0.259185 -0.681155 0.060000
v -0.279964 -0.644317 0.060000
v -0.299281 -0.606515 0.060000
v -0.317185 -0.567870 0.060000
v -0.327961 -0.542222 0.060000
v -0.064010 -0.542222 0.060000
v -0.064010 -0.449222 0.060000
v -0.362799 -0.449222 0.060000
v -0.365672 -0.440593 0.060000
v -0.370641 -0.425137 0.060000
v -0.375444 -0.409652 0.060000
v -0.380081 -0.394146 0.060000
v -0.384554 -0.378625 0.060000
v -0.388860 -0.363097 0.060000
v -0.393001 -0.347569 0.060000
v -0.396977 -0.332048 0.060000
v -0.400787 -0.316540 0.060000
v -0.404431 -0.301053 0.060000
v -0.407910 -0.285594 0.060000
v -0.413288 -0.260554 0.060000
v -0.511221 -0.279387 0.060000
v -0.787010 -0.809222 0.060000
v -0.362010 -0.809222 0.060000
v -0.362010 -1.054222 0.060000
v -0.787010 -1.054222 0.060000
v -0.505175 -0.304107 0.060000
v -0.505175 -0.304107 -0.060000
v -0.501535 -0.318607 0.060000
v -0.501535 -0.318607 -0.060000
v -0.497812 -0.333072 0.060000
v -0.497812 -0.333072 -0.060000
v -0.494005 -0.347505 0.060000
v -0.494005 -0.347505 -0.060000
v -0.490115 -0.361909 0.060000
v -0.490115 -0.361909 -0.060000
v -0.486141 -0.376289 0.060000
v -0.486141 -0.376289 -0.060000
v -0.482083 -0.390647 0.060000
v -0.482083 -0.390647 -0.060000
v -0.477943 -0.404986 0.060000
v -0.477943 -0.404986 -0.060000
v -0.473719 -0.419312 0.060000
v -0.473719 -0.419312 -0.060000
v -0.469411 -0.433626 0.060000
v -0.469411 -0.433626 -0.060000
v -0.465020 -0.447932 0.060000
v -0.465020 -0.447932 -0.060000
v -0.464616 -0.449222 0.060000
v -0.464616 -0.449222 -0.060000
v -0.958010 -0.449222 0.060000
v -0.958010 -0.449222 -0.060000
v -0.958010 -0.542222 0.060000
v -0.958010 -0.542222 -0.060000
v -0.431844 -0.542222 0.060000
v -0.431844 -0.542222 -0.060000
v -0.427698 -0.552854 0.060000
v -0.427698 -0.552854 -0.060000
v -0.420836 -0.569786 0.060000
v -0.420836 -0.569786 -0.060000
v -0.413763 -0.586587 0.060000
v -0.413763 -0.586587 -0.060000
v -0.406479 -0.603252 0.060000
v -0.406479 -0.603252 -0.060000
v -0.398984 -0.619780 0.060000
v -0.398984 -0.619780 -0.060000
v -0.391279 -0.636166 0.060000
v -0.391279 -0.636166 -0.060000
v -0.383364 -0.652406 0.060000
v -0.383364 -0.652406 -0.060000
v -0.375237 -0.668498 0.060000
v -0.375237 -0.668498 -0.060000
v -0.366900 -0.684437 0.060000
v -0.366900 -0.684437 -0.060000
v -0.358351 -0.700220 0.060000
v -0.358351 -0.700220 -0.060000
v -0.349592 -0.715844 0.060000
v -0.349592 -0.715844 -0.060000
v -0.349373 -0.716222 0.060000
v -0.349373 -0.716222 -0.060000
v -0.885010 -0.716222 0.060000
v -0.885010 -0.716222 -0.060000
v -0.885010 -1.198222 0.060000
v -0.885010 -1.198222 -0.060000
v -0.787010 -1.198222 0.060000
v -0.787010 -1.198222 -0.060000
v -0.787010 -1.147222 0.060000
v -0.787010 -1.147222 -0.060000
v -0.362010 -1.147222 0.060000
v -0.362010 -1.147222 -0.060000
v -0.362010 -1.203222 0.060000
v -0.362010 -1.203222 -0.060000
v -0.267010 -1.203222 0.060000
v -0.267010 -1.203222 -0.060000
v -0.267010 -0.839217 0.060000
v -0.267010 -0.839217 -0.060000
v -0.271749 -0.832898 0.060000
v -0.271749 -0.832898 -0.060000
v -0.258027 -0.850324 0.060000
v -0.258027 -0.850324 -0.060000
v -0.243900 -0.867396 0.060000
v -0.243900 -0.867396 -0.060000
v -0.229358 -0.884106 0.060000
v -0.229358 -0.884106 -0.060000
v -0.214389 -0.900441 0.060000
v -0.214389 -0.900441 -0.060000
v -0.198984 -0.916391 0.060000
v -0.198984 -0.916391 -0.060000
v -0.183132 -0.931944 0.060000
v -0.183132 -0.931944 -0.060000
v -0.166823 -0.947090 0.060000
v -0.166823 -0.947090 -0.060000
v -0.150046 -0.961816 0.060000
v -0.150046 -0.961816 -0.060000
v -0.132792 -0.976112 0.060000
v -0.132792 -0.976112 -0.060000
v -0.115051 -0.989967 0.060000
v -0.115051 -0.989966 -0.060000
v -0.088621 -1.009387 0.060000
v -0.088621 -1.009387 -0.060000
v -0.079626 -0.996321 0.060000
v -0.079626 -0.996321 -0.060000
v -0.076146 -0.991529 0.060000
v -0.076146 -0.991529 -0.060000
v -0.072314 -0.986476 0.060000
v -0.072314 -0.986476 -0.060000
v -0.068200 -0.981246 0.060000
v -0.068200 -0.981246 -0.060000
v -0.063870 -0.975920 0.060000
v -0.063870 -0.975920 -0.060000
v -0.059392 -0.970576 0.060000
v -0.059392 -0.970576 -0.060000
v -0.054832 -0.965294 0.060000
v -0.054832 -0.965294 -0.060000
v -0.050256 -0.960149 0.060000
v -0.050256 -0.960149 -0.060000
v -0.045732 -0.955220 0.060000
v -0.045732 -0.955220 -0.060000
v -0.041329 -0.950585 0.060000
v -0.041329 -0.950585 -0.060000
v -0.037118 -0.946325 0.060000
v -0.037118 -0.946325 -0.060000
v -0.024480 -0.934139 0.060000
v -0.024480 -0.934139 -0.060000
v -0.068660 -0.902064 0.060000
v -0.068660 -0.902064 -0.060000
v -0.101058 -0.875286 0.060000
v -0.101058 -0.875286 -0.060000
v -0.131644 -0.846721 0.060000
v -0.131644 -0.846721 -0.060000
v -0.160470 -0.816485 0.060000
v -0.160470 -0.816485 -0.060000
v -0.187587 -0.784693 0.060000
v -0.187587 -0.784693 -0.060000
v -0.213046 -0.751462 0.060000
v -0.213046 -0.751462 -0.060000
v -0.236896 -0.716910 0.060000
v -0.236896 -0.716910 -0.060000
v -0.259185 -0.681155 0.060000
v -0.259185 -0.681155 -0.060000
v -0.279964 -0.644317 0.060000
v -0.279964 -0.644317 -0.060000
v -0.299281 -0.606515 0.060000
v -0.299281 -0.606515 -0.060000
v -0.317185 -0.567870 0.060000
v -0.317185 -0.567870 -0.060000
v -0.327961 -0.542222 0.060000
v -0.327961 -0.542222 -0.060000
v -0.064010 -0.542222 0.060000
v -0.064010 -0.542222 -0.060000
v -0.064010 -0.449222 0.060000
v -0.064010 -0.449222 -0.060000
v -0.362799 -0.449222 0.060000
v -0.362799 -0.449222 -0.060000
v -0.365672 -0.440593 0.060000
v -0.365672 -0.440593 -0.060000
v -0.370641 -0.425137 0.060000
v -0.370641 -0.425137 -0.060000
v -0.375444 -0.409652 0.060000
v -0.375444 -0.409652 -0.060000
v -0.380081 -0.394146 0.060000
v -0.380081 -0.394146 -0.060000
v -0.384554 -0.378625 0.060000
v -0.384554 -0.378625 -0.060000
v -0.388860 -0.363097 0.060000
v -0.388860 -0.363097 -0.060000
v -0.393001 -0.347569 0.060000
v -0.393001 -0.347569 -0.060000
v -0.396977 -0.332048 0.060000
v -0.396977 -0.332048 -0.060000
v -0.400787 -0.316540 0.060000
v -0.400787 -0.316540 -0.060000
v -0.404431 -0.301053 0.060000
v -0.404431 -0.301053 -0.060000
v -0.407910 -0.285594 0.060000
v -0.407910 -0.285594 -0.060000
v -0.413288 -0.260554 0.060000
v -0.413288 -0.260554 -0.060000
v -0.511221 -0.279387 0.060000
v -0.511221 -0.279387 -0.060000
v -0.787010 -0.809222 0.060000
v -0.787010 -0.809222 -0.060000
v -0.362010 -0.809222 0.060000
v -0.362010 -0.809222 -0.060000
v -0.362010 -1.054222 0.060000
v -0.362010 -1.054222 -0.060000
v -0.787010 -1.054222 0.060000
v -0.787010 -1.054222 -0.060000
vn -0.0000 -0.0000 -1.0000
vn -0.0000 -0.0000 1.0000
vn -0.9692 -0.2464 -0.0000
vn -0.9706 -0.2405 -0.0000
vn -0.9677 -0.2522 -0.0000
vn -0.9662 -0.2579 -0.0000
vn -0.9646 -0.2636 -0.0000
vn -0.9631 -0.2692 -0.0000
vn -0.9615 -0.2747 -0.0000
vn -0.9600 -0.2801 -0.0000
vn -0.9584 -0.2855 -0.0000
vn -0.9568 -0.2908 -0.0000
vn -0.9552 -0.2960 -0.0000
vn -0.8058 0.5922 -0.0000
vn -0.7071 0.7071 -0.0000
vn -0.7071 -0.7071 -0.0000
vn -0.5642 -0.8256 -0.0000
vn -0.9292 -0.3695 -0.0000
vn -0.9242 -0.3818 -0.0000
vn -0.9190 -0.3942 -0.0000
vn -0.9135 -0.4067 -0.0000
vn -0.9190 -0.3943 -0.0000
vn -0.9079 -0.4193 -0.0000
vn -0.9019 -0.4318 -0.0000
vn -0.8958 -0.4445 -0.0000
vn -0.8894 -0.4572 -0.0000
vn -0.8827 -0.4699 -0.0000
vn -0.8758 -0.4826 -0.0000
vn -0.8686 -0.4955 -0.0000
vn -0.8666 0.4990 -0.0000
vn -0.8687 -0.4954 -0.0000
vn -0.8665 0.4991 -0.0000
vn 0.7071 -0.7071 -0.0000
vn 0.9487 0.3163 -0.0000
vn 0.6100 -0.7924 -0.0000
vn -0.7781 -0.6281 -0.0000
vn -0.7624 -0.6471 -0.0000
vn -0.7459 -0.6661 -0.0000
vn -0.7283 -0.6852 -0.0000
vn -0.7099 -0.7043 -0.0000
vn -0.6905 -0.7234 -0.0000
vn -0.6702 -0.7422 -0.0000
vn -0.6489 -0.7609 -0.0000
vn -0.6268 -0.7792 -0.0000
vn -0.6039 -0.7971 -0.0000
vn 0.1663 -0.9861 -0.0000
vn 0.8165 -0.5774 -0.0000
vn 0.8030 -0.5959 -0.0000
vn 0.7914 -0.6113 -0.0000
vn 0.7810 -0.6245 -0.0000
vn 0.7712 -0.6366 -0.0000
vn 0.7617 -0.6479 -0.0000
vn 0.7521 -0.6590 -0.0000
vn 0.7420 -0.6704 -0.0000
vn 0.7309 -0.6825 -0.0000
vn 0.7181 -0.6960 -0.0000
vn 0.7027 -0.7115 -0.0000
vn 0.9976 0.0696 -0.0000
vn 0.6126 0.7904 -0.0000
vn 0.9976 0.0695 -0.0000
vn 0.6601 0.7512 -0.0000
vn 0.7035 0.7107 -0.0000
vn 0.7426 0.6697 -0.0000
vn 0.7776 0.6288 -0.0000
vn 0.8086 0.5883 -0.0000
vn 0.8360 0.5487 -0.0000
vn 0.8600 0.5103 -0.0000
vn 0.8809 0.4733 -0.0000
vn 0.8991 0.4378 -0.0000
vn 0.9148 0.4039 -0.0000
vn 0.8329 -0.5535 -0.0000
vn 0.8329 -0.5534 -0.0000
vn 0.7071 0.7071 -0.0000
vn 0.5849 0.8111 -0.0000
vn 0.9504 0.3110 -0.0000
vn 0.9536 0.3012 -0.0000
vn 0.9566 0.2914 -0.0000
vn 0.9536 0.3011 -0.0000
vn 0.9595 0.2817 -0.0000
vn 0.9623 0.2721 -0.0000
vn 0.9649 0.2625 -0.0000
vn 0.9675 0.2529 -0.0000
vn 0.9699 0.2434 -0.0000
vn 0.9723 0.2338 -0.0000
vn 0.9745 0.2243 -0.0000
vn 0.9767 0.2148 -0.0000
vn 0.5519 0.8339 -0.0000
vn -0.8416 0.5400 -0.0000
vt 0.724036 0.899850
vt 0.725709 0.899850
vt 0.724873 0.899850
vt 0.653757 0.899850
vt 0.723199 0.899850
vt 0.722363 0.899850
vt 0.654593 0.899850
vt 0.721526 0.899850
vt 0.655430 0.899850
vt 0.720689 0.899850
vt 0.656267 0.899850
vt 0.657103 0.899850
vt 0.719853 0.899850
vt 0.657940 0.899850
vt 0.719016 0.899850
vt 0.658777 0.899850
vt 0.718179 0.899850
vt 0.659613 0.899850
vt 0.717343 0.899850
vt 0.660450 0.899850
vt 0.716506 0.899850
vt 0.661286 0.899850
vt 0.715669 0.899850
vt 0.662123 0.899850
vt 0.714833 0.899850
vt 0.662960 0.899850
vt 0.713159 0.899850
vt 0.713996 0.899850
vt 0.663796 0.899850
vt 0.664633 0.899850
vt 0.712323 0.899850
vt 0.711486 0.899850
vt 0.665470 0.899850
vt 0.666306 0.899850
vt 0.667143 0.899850
vt 0.710649 0.899850
vt 0.667980 0.899850
vt 0.668816 0.899850
vt 0.669653 0.899850
vt 0.709813 0.899850
vt 0.670490 0.899850
vt 0.671326 0.899850
vt 0.708976 0.899850
vt 0.672163 0.899850
vt 0.673000 0.899850
vt 0.708139 0.899850
vt 0.673836 0.899850
vt 0.674673 0.899850
vt 0.675510 0.899850
vt 0.676346 0.899850
vt 0.726546 0.899850
vt 0.677183 0.899850
vt 0.707303 0.899850
vt 0.706466 0.899850
vt 0.705629 0.899850
vt 0.727383 0.899850
vt 0.683040 0.899850
vt 0.728219 0.899850
vt 0.729056 0.899850
vt 0.704793 0.899850
vt 0.683876 0.899850
vt 0.682203 0.899850
vt 0.681366 0.899850
vt 0.703956 0.899850
vt 0.684713 0.899850
vt 0.685550 0.899850
vt 0.703119 0.899850
vt 0.686386 0.899850
vt 0.687223 0.899850
vt 0.702283 0.899850
vt 0.688060 0.899850
vt 0.688896 0.899850
vt 0.701446 0.899850
vt 0.700609 0.899850
vt 0.689733 0.899850
vt 0.699773 0.899850
vt 0.698936 0.899850
vt 0.698099 0.899850
vt 0.690570 0.899850
vt 0.697263 0.899850
vt 0.696426 0.899850
vt 0.695589 0.899850
vt 0.691406 0.899850
vt 0.694753 0.899850
vt 0.693916 0.899850
vt 0.693080 0.899850
vt 0.692243 0.899850
vt 0.679693 0.899850
vt 0.678856 0.899850
vt 0.680530 0.899850
vt 0.678020 0.899850
vt 0.654622 0.975150
vt 0.653757 0.975150
vt 0.655488 0.975150
vt 0.654622 0.899850
vt 0.656353 0.975150
vt 0.655488 0.899850
vt 0.657219 0.975150
vt 0.656353 0.899850
vt 0.658084 0.975150
vt 0.657219 0.899850
vt 0.658950 0.975150
vt 0.658084 0.899850
vt 0.659815 0.975150
vt 0.658950 0.899850
vt 0.660681 0.975150
vt 0.659815 0.899850
vt 0.661546 0.975150
vt 0.660681 0.899850
vt 0.662412 0.975150
vt 0.661546 0.899850
vt 0.663277 0.975150
vt 0.662412 0.899850
vt 0.664143 0.975150
vt 0.663277 0.899850
vt 0.665008 0.975150
vt 0.664143 0.899850
vt 0.665874 0.975150
vt 0.665008 0.899850
vt 0.666739 0.975150
vt 0.665874 0.899850
vt 0.667605 0.975150
vt 0.666739 0.899850
vt 0.668470 0.975150
vt 0.667605 0.899850
vt 0.669336 0.975150
vt 0.668470 0.899850
vt 0.670201 0.975150
vt 0.669336 0.899850
vt 0.671067 0.975150
vt 0.670201 0.899850
vt 0.671932 0.975150
vt 0.671067 0.899850
vt 0.672798 0.975150
vt 0.671932 0.899850
vt 0.673663 0.975150
vt 0.672798 0.899850
vt 0.674529 0.975150
vt 0.673663 0.899850
vt 0.675394 0.975150
vt 0.674529 0.899850
vt 0.676260 0.975150
vt 0.675394 0.899850
vt 0.677125 0.975150
vt 0.676260 0.899850
vt 0.677991 0.975150
vt 0.677125 0.899850
vt 0.678856 0.975150
vt 0.677991 0.899850
vt 0.679722 0.975150
vt 0.680587 0.975150
vt 0.679722 0.899850
vt 0.681453 0.975150
vt 0.680587 0.899850
vt 0.682318 0.975150
vt 0.681453 0.899850
vt 0.683184 0.975150
vt 0.682318 0.899850
vt 0.684049 0.975150
vt 0.683184 0.899850
vt 0.684915 0.975150
vt 0.684049 0.899850
vt 0.685780 0.975150
vt 0.684915 0.899850
vt 0.686646 0.975150
vt 0.685780 0.899850
vt 0.687511 0.975150
vt 0.686646 0.899850
vt 0.688377 0.975150
vt 0.687511 0.899850
vt 0.689242 0.975150
vt 0.688377 0.899850
vt 0.690108 0.975150
vt 0.689242 0.899850
vt 0.690973 0.975150
vt 0.690108 0.899850
vt 0.691839 0.975150
vt 0.690973 0.899850
vt 0.692704 0.975150
vt 0.691839 0.899850
vt 0.693570 0.975150
vt 0.692704 0.899850
vt 0.694435 0.975150
vt 0.693570 0.899850
vt 0.695301 0.975150
vt 0.694435 0.899850
vt 0.696167 0.975150
vt 0.695301 0.899850
vt 0.697032 0.975150
vt 0.696167 0.899850
vt 0.697897 0.975150
vt 0.697032 0.899850
vt 0.698763 0.975150
vt 0.697897 0.899850
vt 0.699629 0.975150
vt 0.698763 0.899850
vt 0.700494 0.975150
vt 0.699629 0.899850
vt 0.701360 0.975150
vt 0.700494 0.899850
vt 0.702225 0.975150
vt 0.701360 0.899850
vt 0.703091 0.975150
vt 0.702225 0.899850
vt 0.703956 0.975150
vt 0.703091 0.899850
vt 0.704822 0.975150
vt 0.705687 0.975150
vt 0.704822 0.899850
vt 0.706553 0.975150
vt 0.705687 0.899850
vt 0.707418 0.975150
vt 0.706553 0.899850
vt 0.708284 0.975150
vt 0.707418 0.899850
vt 0.709149 0.975150
vt 0.708284 0.899850
vt 0.710015 0.975150
vt 0.709149 0.899850
vt 0.710880 0.975150
vt 0.710015 0.899850
vt 0.711746 0.975150
vt 0.710880 0.899850
vt 0.712611 0.975150
vt 0.711746 0.899850
vt 0.713477 0.975150
vt 0.712611 0.899850
vt 0.714342 0.975150
vt 0.713477 0.899850
vt 0.715208 0.975150
vt 0.714342 0.899850
vt 0.716073 0.975150
vt 0.715208 0.899850
vt 0.716939 0.975150
vt 0.716073 0.899850
vt 0.717804 0.975150
vt 0.716939 0.899850
vt 0.718670 0.975150
vt 0.717804 0.899850
vt 0.719535 0.975150
vt 0.718670 0.899850
vt 0.720401 0.975150
vt 0.719535 0.899850
vt 0.721266 0.975150
vt 0.720401 0.899850
vt 0.722132 0.975150
vt 0.721266 0.899850
vt 0.722997 0.975150
vt 0.722132 0.899850
vt 0.723863 0.975150
vt 0.722997 0.899850
vt 0.724728 0.975150
vt 0.723863 0.899850
vt 0.725594 0.975150
vt 0.724728 0.899850
vt 0.726459 0.975150
vt 0.725594 0.899850
vt 0.727325 0.975150
vt 0.726459 0.899850
vt 0.728190 0.975150
vt 0.727325 0.899850
vt 0.729056 0.975150
vt 0.728190 0.899850
vt 0.672581 0.975150
vt 0.691406 0.975150
vt 0.672581 0.899850
vt 0.710231 0.975150
vt 0.710231 0.899850
s 0
usemtl 
f 449/274/89 451/275/89 450/276/89
f 449/274/89 365/277/89 451/275/89
f 448/278/89 365/277/89 449/274/89
f 447/279/89 365/277/89 448/278/89
f 447/279/89 366/280/89 365/277/89
f 446/281/89 366/280/89 447/279/89
f 446/281/89 367/282/89 366/280/89
f 445/283/89 367/282/89 446/281/89
f 445/283/89 368/284/89 367/282/89
f 445/283/89 369/285/89 368/284/89
f 444/286/89 369/285/89 445/283/89
f 444/286/89 370/287/89 369/285/89
f 443/288/89 370/287/89 444/286/89
f 443/288/89 371/289/89 370/287/89
f 442/290/89 371/289/89 443/288/89
f 442/290/89 372/291/89 371/289/89
f 441/292/89 372/291/89 442/290/89
f 441/292/89 373/293/89 372/291/89
f 440/294/89 373/293/89 441/292/89
f 440/294/89 374/295/89 373/293/89
f 439/296/89 374/295/89 440/294/89
f 439/296/89 375/297/89 374/295/89
f 438/298/89 375/297/89 439/296/89
f 438/298/89 376/299/89 375/297/89
f 436/300/89 438/298/89 437/301/89
f 436/300/89 376/299/89 438/298/89
f 436/300/89 377/302/89 376/299/89
f 436/300/89 378/303/89 377/302/89
f 435/304/89 378/303/89 436/300/89
f 434/305/89 379/306/89 435/304/89
f 379/306/89 378/303/89 435/304/89
f 434/305/89 380/307/89 379/306/89
f 434/305/89 381/308/89 380/307/89
f 433/309/89 381/308/89 434/305/89
f 433/309/89 382/310/89 381/308/89
f 433/309/89 383/311/89 382/310/89
f 433/309/89 384/312/89 383/311/89
f 432/313/89 384/312/89 433/309/89
f 432/313/89 385/314/89 384/312/89
f 432/313/89 386/315/89 385/314/89
f 431/316/89 386/315/89 432/313/89
f 431/316/89 387/317/89 386/315/89
f 431/316/89 388/318/89 387/317/89
f 430/319/89 388/318/89 431/316/89
f 430/319/89 389/320/89 388/318/89
f 430/319/89 390/321/89 389/320/89
f 430/319/89 391/322/89 390/321/89
f 430/319/89 392/323/89 391/322/89
f 430/319/89 452/324/89 392/323/89
f 452/324/89 393/325/89 392/323/89
f 429/326/89 452/324/89 430/319/89
f 428/327/89 452/324/89 429/326/89
f 427/328/89 453/329/89 428/327/89
f 453/329/89 452/324/89 428/327/89
f 427/328/89 400/330/89 453/329/89
f 400/330/89 454/331/89 453/329/89
f 455/332/89 393/325/89 452/324/89
f 426/333/89 400/330/89 427/328/89
f 426/333/89 401/334/89 400/330/89
f 399/335/89 454/331/89 400/330/89
f 398/336/89 454/331/89 399/335/89
f 425/337/89 401/334/89 426/333/89
f 425/337/89 402/338/89 401/334/89
f 425/337/89 403/339/89 402/338/89
f 424/340/89 403/339/89 425/337/89
f 424/340/89 404/341/89 403/339/89
f 424/340/89 405/342/89 404/341/89
f 423/343/89 405/342/89 424/340/89
f 423/343/89 406/344/89 405/342/89
f 423/343/89 407/345/89 406/344/89
f 422/346/89 407/345/89 423/343/89
f 421/347/89 407/345/89 422/346/89
f 421/347/89 408/348/89 407/345/89
f 420/349/89 408/348/89 421/347/89
f 419/350/89 408/348/89 420/349/89
f 418/351/89 408/348/89 419/350/89
f 418/351/89 409/352/89 408/348/89
f 417/353/89 409/352/89 418/351/89
f 416/354/89 409/352/89 417/353/89
f 415/355/89 409/352/89 416/354/89
f 415/355/89 410/356/89 409/352/89
f 414/357/89 410/356/89 415/355/89
f 413/358/89 410/356/89 414/357/89
f 413/358/89 412/359/89 410/356/89
f 412/359/89 411/360/89 410/356/89
f 398/336/89 396/361/89 454/331/89
f 396/361/89 455/332/89 454/331/89
f 396/361/89 395/362/89 455/332/89
f 395/362/89 393/325/89 455/332/89
f 398/336/89 397/363/89 396/361/89
f 394/364/89 393/325/89 395/362/89
f 540/274/90 541/276/90 542/275/90
f 540/274/90 542/275/90 456/277/90
f 539/278/90 540/274/90 456/277/90
f 538/279/90 539/278/90 456/277/90
f 538/279/90 456/277/90 457/280/90
f 537/281/90 538/279/90 457/280/90
f 537/281/90 457/280/90 458/282/90
f 536/283/90 537/281/90 458/282/90
f 536/283/90 458/282/90 459/284/90
f 536/283/90 459/284/90 460/285/90
f 535/286/90 536/283/90 460/285/90
f 535/286/90 460/285/90 461/287/90
f 534/288/90 535/286/90 461/287/90
f 534/288/90 461/287/90 462/289/90
f 533/290/90 534/288/90 462/289/90
f 533/290/90 462/289/90 463/291/90
f 532/292/90 533/290/90 463/291/90
f 532/292/90 463/291/90 464/293/90
f 531/294/90 532/292/90 464/293/90
f 531/294/90 464/293/90 465/295/90
f 530/296/90 531/294/90 465/295/90
f 530/296/90 465/295/90 466/297/90
f 529/298/90 530/296/90 466/297/90
f 529/298/90 466/297/90 467/299/90
f 527/300/90 528/301/90 529/298/90
f 527/300/90 529/298/90 467/299/90
f 527/300/90 467/299/90 468/302/90
f 527/300/90 468/302/90 469/303/90
f 526/304/89 527/300/89 469/303/89
f 525/305/90 526/304/90 470/306/90
f 470/306/89 526/304/89 469/303/89
f 525/305/90 470/306/90 471/307/90
f 525/305/90 471/307/90 472/308/90
f 524/309/90 525/305/90 472/308/90
f 524/309/90 472/308/90 473/310/90
f 524/309/90 473/310/90 474/311/90
f 524/309/90 474/311/90 475/312/90
f 523/313/90 524/309/90 475/312/90
f 523/313/90 475/312/90 476/314/90
f 523/313/90 476/314/90 477/315/90
f 522/316/90 523/313/90 477/315/90
f 522/316/90 477/315/90 478/317/90
f 522/316/90 478/317/90 479/318/90
f 521/319/90 522/316/90 479/318/90
f 521/319/90 479/318/90 480/320/90
f 521/319/90 480/320/90 481/321/90
f 521/319/90 481/321/90 482/322/90
f 521/319/90 482/322/90 483/323/90
f 521/319/90 483/323/90 543/324/90
f 543/324/90 483/323/90 484/325/90
f 520/326/90 521/319/90 543/324/90
f 519/327/90 520/326/90 543/324/90
f 518/328/90 519/327/90 544/329/90
f 544/329/90 519/327/90 543/324/90
f 518/328/90 544/329/90 491/330/90
f 491/330/90 544/329/90 545/331/90
f 546/332/90 543/324/90 484/325/90
f 517/333/90 518/328/90 491/330/90
f 517/333/90 491/330/90 492/334/90
f 490/335/90 491/330/90 545/331/90
f 489/336/90 490/335/90 545/331/90
f 516/337/90 517/333/90 492/334/90
f 516/337/90 492/334/90 493/338/90
f 516/337/90 493/338/90 494/339/90
f 515/340/90 516/337/90 494/339/90
f 515/340/90 494/339/90 495/341/90
f 515/340/90 495/341/90 496/342/90
f 514/343/90 515/340/90 496/342/90
f 514/343/90 496/342/90 497/344/90
f 514/343/90 497/344/90 498/345/90
f 513/346/90 514/343/90 498/345/90
f 512/347/90 513/346/90 498/345/90
f 512/347/90 498/345/90 499/348/90
f 511/349/90 512/347/90 499/348/90
f 510/350/90 511/349/90 499/348/90
f 509/351/90 510/350/90 499/348/90
f 509/351/90 499/348/90 500/352/90
f 508/353/90 509/351/90 500/352/90
f 507/354/90 508/353/90 500/352/90
f 506/355/90 507/354/90 500/352/90
f 506/355/90 500/352/90 501/356/90
f 505/357/90 506/355/90 501/356/90
f 504/358/90 505/357/90 501/356/90
f 504/358/90 501/356/90 503/359/90
f 503/359/90 501/356/90 502/360/90
f 489/336/90 545/331/90 487/361/90
f 487/361/90 545/331/90 546/332/90
f 487/361/90 546/332/90 486/362/90
f 486/362/90 546/332/90 484/325/90
f 489/336/90 487/361/90 488/363/90
f 485/364/90 486/362/90 484/325/90
s 1
f 550/365/91 547/277/92 548/366/92
f 552/367/93 549/368/91 550/365/91
f 554/369/94 551/370/93 552/367/93
f 556/371/95 553/372/94 554/369/94
f 558/373/96 555/374/95 556/371/95
f 560/375/97 557/376/96 558/373/96
f 562/377/98 559/378/97 560/375/97
f 564/379/99 561/380/98 562/377/98
f 566/381/100 563/382/99 564/379/99
f 568/383/101 565/384/100 566/381/100
f 570/385/102 567/386/101 568/383/101
f 572/387/103 569/388/102 570/385/102
f 574/389/104 571/390/103 572/387/103
f 576/391/105 573/392/104 574/389/104
f 578/393/106 575/394/105 576/391/105
f 580/395/107 577/396/106 578/393/106
f 582/397/108 579/398/107 580/395/107
f 584/399/109 581/400/110 582/397/108
f 586/401/111 583/402/109 584/399/109
f 588/403/112 585/404/111 586/401/111
f 590/405/113 587/406/112 588/403/112
f 592/407/114 589/408/113 590/405/113
f 594/409/115 591/410/114 592/407/114
f 596/411/116 593/412/115 594/409/115
f 598/413/117 595/414/116 596/411/116
f 600/415/118 597/416/119 598/413/117
f 602/417/103 599/418/120 600/415/118
f 604/419/104 601/420/103 602/417/103
f 606/421/121 603/422/104 604/419/104
f 608/423/121 605/362/121 606/421/121
f 610/424/104 607/425/121 608/423/121
f 612/426/104 609/427/104 610/424/104
f 614/428/121 611/429/104 612/426/104
f 616/430/122 613/431/121 614/428/121
f 618/432/123 615/433/122 616/430/122
f 620/434/124 617/435/123 618/432/123
f 622/436/125 619/437/124 620/434/124
f 624/438/126 621/439/125 622/436/125
f 626/440/127 623/441/126 624/438/126
f 628/442/128 625/443/127 626/440/127
f 630/444/129 627/445/128 628/442/128
f 632/446/130 629/447/129 630/444/129
f 634/448/131 631/449/130 632/446/130
f 636/450/132 633/451/131 634/448/131
f 638/452/133 635/453/132 636/450/132
f 640/454/134 637/455/133 638/452/133
f 642/456/135 639/457/134 640/454/134
f 644/458/136 641/459/135 642/456/135
f 646/460/137 643/461/136 644/458/136
f 648/462/138 645/463/137 646/460/137
f 650/464/139 647/465/138 648/462/138
f 652/466/140 649/467/139 650/464/139
f 654/468/141 651/469/140 652/466/140
f 656/470/142 653/471/141 654/468/141
f 658/472/143 655/473/142 656/470/142
f 660/474/144 657/475/143 658/472/143
f 662/476/145 659/477/144 660/474/144
f 664/478/146 661/479/145 662/476/145
f 666/480/147 663/337/148 664/478/146
f 668/481/149 665/482/147 666/480/147
f 670/483/150 667/484/149 668/481/149
f 672/485/151 669/486/150 670/483/150
f 674/487/152 671/488/151 672/485/151
f 676/489/153 673/490/152 674/487/152
f 678/491/154 675/492/153 676/489/153
f 680/493/155 677/494/154 678/491/154
f 682/495/156 679/496/155 680/493/155
f 684/497/157 681/498/156 682/495/156
f 686/499/158 683/500/157 684/497/157
f 688/501/159 685/502/158 686/499/158
f 690/503/121 687/504/160 688/501/159
f 692/505/161 689/506/121 690/503/121
f 694/507/162 691/508/161 692/505/161
f 696/509/163 693/510/162 694/507/162
f 698/511/164 695/512/163 696/509/163
f 700/513/165 697/514/166 698/511/164
f 702/515/167 699/516/165 700/513/165
f 704/517/168 701/518/167 702/515/167
f 706/519/169 703/520/168 704/517/168
f 708/521/170 705/522/169 706/519/169
f 710/523/171 707/524/170 708/521/170
f 712/525/172 709/526/171 710/523/171
f 714/527/173 711/528/172 712/525/172
f 716/529/174 713/530/173 714/527/173
f 718/531/175 715/532/174 716/529/174
f 720/533/176 717/534/175 718/531/175
f 548/535/92 719/536/176 720/533/176
f 724/537/104 721/277/121 722/366/121
f 726/538/103 723/539/104 724/537/104
f 728/540/161 725/356/103 726/538/103
f 722/535/121 727/541/161 728/540/161
f 550/365/91 549/368/91 547/277/92
f 552/367/93 551/370/93 549/368/91
f 554/369/94 553/372/94 551/370/93
f 556/371/95 555/374/95 553/372/94
f 558/373/96 557/376/96 555/374/95
f 560/375/97 559/378/97 557/376/96
f 562/377/98 561/380/98 559/378/97
f 564/379/99 563/382/99 561/380/98
f 566/381/100 565/384/100 563/382/99
f 568/383/101 567/386/101 565/384/100
f 570/385/102 569/388/102 567/386/101
f 572/387/103 571/390/103 569/388/102
f 574/389/104 573/392/104 571/390/103
f 576/391/105 575/394/105 573/392/104
f 578/393/106 577/396/106 575/394/105
f 580/395/107 579/398/107 577/396/106
f 582/397/108 581/400/110 579/398/107
f 584/399/109 583/402/109 581/400/110
f 586/401/111 585/404/111 583/402/109
f 588/403/112 587/406/112 585/404/111
f 590/405/113 589/408/113 587/406/112
f 592/407/114 591/410/114 589/408/113
f 594/409/115 593/412/115 591/410/114
f 596/411/116 595/414/116 593/412/115
f 598/413/117 597/416/119 595/414/116
f 600/415/118 599/418/120 597/416/119
f 602/417/103 601/420/103 599/418/120
f 604/419/104 603/422/104 601/420/103
f 606/421/121 605/362/121 603/422/104
f 608/423/121 607/425/121 605/362/121
f 610/424/104 609/427/104 607/425/121
f 612/426/104 611/429/104 609/427/104
f 614/428/121 613/431/121 611/429/104
f 616/430/122 615/433/122 613/431/121
f 618/432/123 617/435/123 615/433/122
f 620/434/124 619/437/124 617/435/123
f 622/436/125 621/439/125 619/437/124
f 624/438/126 623/441/126 621/439/125
f 626/440/127 625/443/127 623/441/126
f 628/442/128 627/445/128 625/443/127
f 630/444/129 629/447/129 627/445/128
f 632/446/130 631/449/130 629/447/129
f 634/448/131 633/451/131 631/449/130
f 636/450/132 635/453/132 633/451/131
f 638/452/133 637/455/133 635/453/132
f 640/454/134 639/457/134 637/455/133
f 642/456/135 641/459/135 639/457/134
f 644/458/136 643/461/136 641/459/135
f 646/460/137 645/463/137 643/461/136
f 648/462/138 647/465/138 645/463/137
f 650/464/139 649/467/139 647/465/138
f 652/466/140 651/469/140 649/467/139
f 654/468/141 653/471/141 651/469/140
f 656/470/142 655/473/142 653/471/141
f 658/472/143 657/475/143 655/473/142
f 660/474/144 659/477/144 657/475/143
f 662/476/145 661/479/145 659/477/144
f 664/478/146 663/337/148 661/479/145
f 666/480/147 665/482/147 663/337/148
f 668/481/149 667/484/149 665/482/147
f 670/483/150 669/486/150 667/484/149
f 672/485/151 671/488/151 669/486/150
f 674/487/152 673/490/152 671/488/151
f 676/489/153 675/492/153 673/490/152
f 678/491/154 677/494/154 675/492/153
f 680/493/155 679/496/155 677/494/154
f 682/495/156 681/498/156 679/496/155
f 684/497/157 683/500/157 681/498/156
f 686/499/158 685/502/158 683/500/157
f 688/501/159 687/504/160 685/502/158
f 690/503/121 689/506/121 687/504/160
f 692/505/161 691/508/161 689/506/121
f 694/507/162 693/510/162 691/508/161
f 696/509/163 695/512/163 693/510/162
f 698/511/164 697/514/166 695/512/163
f 700/513/165 699/516/165 697/514/166
f 702/515/167 701/518/167 699/516/165
f 704/517/168 703/520/168 701/518/167
f 706/519/169 705/522/169 703/520/168
f 708/521/170 707/524/170 705/522/169
f 710/523/171 709/526/171 707/524/170
f 712/525/172 711/528/172 709/526/171
f 714/527/173 713/530/173 711/528/172
f 716/529/174 715/532/174 713/530/173
f 718/531/175 717/534/175 715/532/174
f 720/533/176 719/536/176 717/534/175
f 548/535/92 547/332/92 719/536/176
f 724/537/104 723/539/104 721/277/121
f 726/538/103 725/356/103 723/539/104
f 728/540/161 727/541/161 725/356/103
f 722/535/121 721/332/121 727/541/161
o Text.002
o Text.003
v -1.740251 0.193000 -0.060000
v -1.248251 0.193000 -0.060000
v -1.248251 0.295000 -0.060000
v -1.740251 0.295000 -0.060000
v -1.740251 0.411000 -0.060000
v -1.248251 0.411000 -0.060000
v -1.248251 0.513000 -0.060000
v -1.740251 0.513000 -0.060000
v -1.740251 0.193000 0.060000
v -1.248251 0.193000 0.060000
v -1.248251 0.295000 0.060000
v -1.740251 0.295000 0.060000
v -1.740251 0.411000 0.060000
v -1.248251 0.411000 0.060000
v -1.248251 0.513000 0.060000
v -1.740251 0.513000 0.060000
v -1.740251 0.411000 0.060000
v -1.740251 0.411000 -0.060000
v -1.248251 0.411000 0.060000
v -1.248251 0.411000 -0.060000
v -1.248251 0.513000 0.060000
v -1.248251 0.513000 -0.060000
v -1.740251 0.513000 0.060000
v -1.740251 0.513000 -0.060000
v -1.740251 0.193000 0.060000
v -1.740251 0.193000 -0.060000
v -1.248251 0.193000 0.060000
v -1.248251 0.193000 -0.060000
v -1.248251 0.295000 0.060000
v -1.248251 0.295000 -0.060000
v -1.740251 0.295000 0.060000
v -1.740251 0.295000 -0.060000
vn -0.0000 -0.0000 -1.0000
vn -0.0000 -0.0000 1.0000
vn 0.7071 -0.7071 -0.0000
vn -0.7071 -0.7071 -0.0000
vn 0.7071 0.7071 -0.0000
vn -0.7071 0.7071 -0.0000
vt 0.200732 0.905322
vt 0.215772 0.905322
vt 0.208252 0.905322
vt 0.193213 0.905322
vt 0.170654 0.905322
vt 0.185693 0.905322
vt 0.178174 0.905322
vt 0.163135 0.905322
vt 0.176294 0.957959
vt 0.163135 0.957959
vt 0.189453 0.957959
vt 0.176294 0.905322
vt 0.202612 0.957959
vt 0.189453 0.905322
vt 0.215772 0.957959
vt 0.202612 0.905322
s 0
usemtl 
f 734/542/177 736/543/177 735/544/177
f 734/542/177 733/545/177 736/543/177
f 730/546/177 732/547/177 731/548/177
f 730/546/177 729/549/177 732/547/177
f 742/542/178 743/544/178 744/543/178
f 742/542/178 744/543/178 741/545/178
f 738/546/178 739/548/178 740/547/178
f 738/546/178 740/547/178 737/549/178
s 1
f 748/550/179 745/549/180 746/551/180
f 750/552/181 747/553/179 748/550/179
f 752/554/182 749/555/181 750/552/181
f 746/556/180 751/557/182 752/554/182
f 756/550/179 753/549/180 754/551/180
f 758/552/181 755/553/179 756/550/179
f 760/554/182 757/555/181 758/552/181
f 754/556/180 759/557/182 760/554/182
f 748/550/179 747/553/179 745/549/180
f 750/552/181 749/555/181 747/553/179
f 752/554/182 751/557/182 749/555/181
f 746/556/180 745/543/180 751/557/182
f 756/550/179 755/553/179 753/549/180
f 758/552/181 757/555/181 755/553/179
f 760/554/182 759/557/182 757/555/181
f 754/556/180 753/543/180 759/557/182
o Text.004
v -1.740251 -0.887831 -0.060000
v -1.248251 -0.887831 -0.060000
v -1.248251 -0.785831 -0.060000
v -1.740251 -0.785831 -0.060000
v -1.740251 -0.669831 -0.060000
v -1.248251 -0.669831 -0.060000
v -1.248251 -0.567831 -0.060000
v -1.740251 -0.567831 -0.060000
v -1.740251 -0.887831 0.060000
v -1.248251 -0.887831 0.060000
v -1.248251 -0.785831 0.060000
v -1.740251 -0.785831 0.060000
v -1.740251 -0.669831 0.060000
v -1.248251 -0.669831 0.060000
v -1.248251 -0.567831 0.060000
v -1.740251 -0.567831 0.060000
v -1.740251 -0.669831 0.060000
v -1.740251 -0.669831 -0.060000
v -1.248251 -0.669831 0.060000
v -1.248251 -0.669831 -0.060000
v -1.248251 -0.567831 0.060000
v -1.248251 -0.567831 -0.060000
v -1.740251 -0.567831 0.060000
v -1.740251 -0.567831 -0.060000
v -1.740251 -0.887831 0.060000
v -1.740251 -0.887831 -0.060000
v -1.248251 -0.887831 0.060000
v -1.248251 -0.887831 -0.060000
v -1.248251 -0.785831 0.060000
v -1.248251 -0.785831 -0.060000
v -1.740251 -0.785831 0.060000
v -1.740251 -0.785831 -0.060000
vn -0.0000 -0.0000 -1.0000
vn -0.0000 -0.0000 1.0000
vn 0.7071 -0.7071 -0.0000
vn -0.7071 -0.7071 -0.0000
vn 0.7071 0.7071 -0.0000
vn -0.7071 0.7071 -0.0000
vt 0.816864 0.909087
vt 0.833100 0.909087
vt 0.824982 0.909087
vt 0.808746 0.909087
vt 0.784393 0.909087
vt 0.800628 0.909087
vt 0.792511 0.909087
vt 0.776275 0.909087
vt 0.790481 0.965913
vt 0.776275 0.965913
vt 0.804688 0.965913
vt 0.790481 0.909087
vt 0.818894 0.965913
vt 0.804688 0.909087
vt 0.833100 0.965913
vt 0.818894 0.909087
s 0
usemtl 
f 766/558/183 768/559/183 767/560/183
f 766/558/183 765/561/183 768/559/183
f 762/562/183 764/563/183 763/564/183
f 762/562/183 761/565/183 764/563/183
f 774/558/184 775/560/184 776/559/184
f 774/558/184 776/559/184 773/561/184
f 770/562/184 771/564/184 772/563/184
f 770/562/184 772/563/184 769/565/184
s 1
f 780/566/185 777/565/186 778/567/186
f 782/568/187 779/569/185 780/566/185
f 784/570/188 781/571/187 782/568/187
f 778/572/186 783/573/188 784/570/188
f 788/566/185 785/565/186 786/567/186
f 790/568/187 787/569/185 788/566/185
f 792/570/188 789/571/187 790/568/187
f 786/572/186 791/573/188 792/570/188
f 780/566/185 779/569/185 777/565/186
f 782/568/187 781/571/187 779/569/185
f 784/570/188 783/573/188 781/571/187
f 778/572/186 777/559/186 783/573/188
f 788/566/185 787/569/185 785/565/186
f 790/568/187 789/571/187 787/569/185
f 792/570/188 791/573/188 789/571/187
f 786/572/186 785/559/186 791/573/188
o Text.005
o Text.006
v -1.988238 -0.804368 -0.060000
v -1.988238 -0.691368 -0.060000
v -2.251238 -0.691368 -0.060000
v -2.251238 -0.804368 -0.060000
v -1.988238 -0.804368 0.060000
v -1.988238 -0.691368 0.060000
v -2.251238 -0.691368 0.060000
v -2.251238 -0.804368 0.060000
v -1.988238 -0.804368 0.060000
v -1.988238 -0.804368 -0.060000
v -1.988238 -0.691368 0.060000
v -1.988238 -0.691368 -0.060000
v -2.251238 -0.691368 0.060000
v -2.251238 -0.691368 -0.060000
v -2.251238 -0.804368 0.060000
v -2.251238 -0.804368 -0.060000
vn -0.0000 -0.0000 -1.0000
vn -0.0000 -0.0000 1.0000
vn 0.7071 0.7071 -0.0000
vn 0.7071 -0.7071 -0.0000
vn -0.7071 0.7071 -0.0000
vn -0.7071 -0.7071 -0.0000
vt 0.908052 0.904146
vt 0.952524 0.904146
vt 0.930288 0.904146
vt 0.974761 0.904146
vt 0.924729 0.970854
vt 0.908052 0.970854
vt 0.941406 0.970854
vt 0.924729 0.904146
vt 0.958083 0.970854
vt 0.941406 0.904146
vt 0.974761 0.970854
vt 0.958083 0.904146
s 0
usemtl Material.001
f 793/574/189 795/575/189 794/576/189
f 793/574/189 796/577/189 795/575/189
f 797/574/190 798/576/190 799/575/190
f 797/574/190 799/575/190 800/577/190
s 1
f 804/578/191 801/574/192 802/579/192
f 806/580/193 803/581/191 804/578/191
f 808/582/194 805/583/193 806/580/193
f 802/584/192 807/585/194 808/582/194
f 804/578/191 803/581/191 801/574/192
f 806/580/193 805/583/193 803/581/191
f 808/582/194 807/585/194 805/583/193
f 802/584/192 801/577/192 807/585/194
o Text.007
v -2.248781 -0.804368 -0.060000
v -2.248781 -0.691368 -0.060000
v -2.511781 -0.691368 -0.060000
v -2.511781 -0.804368 -0.060000
v -2.248781 -0.804368 0.060000
v -2.248781 -0.691368 0.060000
v -2.511781 -0.691368 0.060000
v -2.511781 -0.804368 0.060000
v -2.248781 -0.804368 0.060000
v -2.248781 -0.804368 -0.060000
v -2.248781 -0.691368 0.060000
v -2.248781 -0.691368 -0.060000
v -2.511781 -0.691368 0.060000
v -2.511781 -0.691368 -0.060000
v -2.511781 -0.804368 0.060000
v -2.511781 -0.804368 -0.060000
vn -0.0000 -0.0000 -1.0000
vn -0.0000 -0.0000 1.0000
vn 0.7071 0.7071 -0.0000
vn 0.7071 -0.7071 -0.0000
vn -0.7071 0.7071 -0.0000
vn -0.7071 -0.7071 -0.0000
vt 0.023833 0.769927
vt 0.077993 0.769927
vt 0.050913 0.769927
vt 0.105073 0.769927
vt 0.044143 0.851167
vt 0.023833 0.851167
vt 0.064453 0.851167
vt 0.044143 0.769927
vt 0.084763 0.851167
vt 0.064453 0.769927
vt 0.105073 0.851167
vt 0.084763 0.769927
s 0
usemtl Material.001
f 809/586/195 811/587/195 810/588/195
f 809/586/195 812/589/195 811/587/195
f 813/586/196 814/588/196 815/587/196
f 813/586/196 815/587/196 816/589/196
s 1
f 820/590/197 817/586/198 818/591/198
f 822/592/199 819/593/197 820/590/197
f 824/594/200 821/595/199 822/592/199
f 818/596/198 823/597/200 824/594/200
f 820/590/197 819/593/197 817/586/198
f 822/592/199 821/595/199 819/593/197
f 824/594/200 823/597/200 821/595/199
f 818/596/198 817/589/198 823/597/200
o Text.008
v -2.577620 -0.895319 -0.060000
v -2.937526 -0.745996 -0.060000
v -2.577620 -0.596674 -0.060000
v -2.577620 -0.487865 -0.060000
v -3.071620 -0.698388 -0.060000
v -3.071620 -0.793605 -0.060000
v -2.577620 -1.004128 -0.060000
v -2.577620 -0.895319 0.060000
v -2.937526 -0.745996 0.060000
v -2.577620 -0.596674 0.060000
v -2.577620 -0.487865 0.060000
v -3.071620 -0.698388 0.060000
v -3.071620 -0.793605 0.060000
v -2.577620 -1.004128 0.060000
v -2.577620 -0.895319 0.060000
v -2.577620 -0.895319 -0.060000
v -2.937526 -0.745996 0.060000
v -2.937526 -0.745996 -0.060000
v -2.577620 -0.596674 0.060000
v -2.577620 -0.596674 -0.060000
v -2.577620 -0.487865 0.060000
v -2.577620 -0.487865 -0.060000
v -3.071620 -0.698388 0.060000
v -3.071620 -0.698388 -0.060000
v -3.071620 -0.793605 0.060000
v -3.071620 -0.793605 -0.060000
v -2.577620 -1.004128 0.060000
v -2.577620 -1.004128 -0.060000
vn -0.0000 -0.0000 -1.0000
vn -0.0000 -0.0000 1.0000
vn 1.0000 -0.0001 -0.0000
vn 0.8316 0.5553 -0.0000
vn 0.8316 -0.5553 -0.0000
vn 1.0000 0.0001 -0.0000
vn 0.5514 0.8343 -0.0000
vn -0.8343 0.5513 -0.0000
vn -0.8343 -0.5513 -0.0000
vn 0.5514 -0.8343 -0.0000
vt 0.174767 0.768442
vt 0.200233 0.768442
vt 0.187500 0.768442
vt 0.162035 0.768442
vt 0.212965 0.768442
vt 0.149302 0.768442
vt 0.225698 0.768442
vt 0.160216 0.844839
vt 0.149302 0.844839
vt 0.171129 0.844839
vt 0.160216 0.768442
vt 0.182043 0.844839
vt 0.171129 0.768442
vt 0.192957 0.844839
vt 0.182043 0.768442
vt 0.203871 0.844839
vt 0.192957 0.768442
vt 0.214784 0.844839
vt 0.203871 0.768442
vt 0.225698 0.844839
vt 0.214784 0.768442
s 0
usemtl Material.001
f 827/598/201 829/599/201 828/600/201
f 826/601/201 829/599/201 827/598/201
f 826/601/201 830/602/201 829/599/201
f 825/603/201 830/602/201 826/601/201
f 825/603/201 831/604/201 830/602/201
f 834/598/202 835/600/202 836/599/202
f 833/601/202 834/598/202 836/599/202
f 833/601/202 836/599/202 837/602/202
f 832/603/202 833/601/202 837/602/202
f 832/603/202 837/602/202 838/604/202
s 1
f 842/605/203 839/603/204 840/606/204
f 844/607/205 841/608/206 842/605/203
f 846/609/207 843/610/205 844/607/205
f 848/611/208 845/612/207 846/609/207
f 850/613/209 847/614/208 848/611/208
f 852/615/210 849/616/209 850/613/209
f 840/617/204 851/618/210 852/615/210
f 842/605/203 841/608/206 839/603/204
f 844/607/205 843/610/205 841/608/206
f 846/609/207 845/612/207 843/610/205
f 848/611/208 847/614/208 845/612/207
f 850/613/209 849/616/209 847/614/208
f 852/615/210 851/618/210 849/616/209
f 840/617/204 839/604/204 851/618/210
o Text.009
v -2.889711 0.286751 -0.060000
v -2.889711 0.399751 -0.060000
v -3.152711 0.399751 -0.060000
v -3.152711 0.286751 -0.060000
v -2.889711 0.286751 0.060000
v -2.889711 0.399751 0.060000
v -3.152711 0.399751 0.060000
v -3.152711 0.286751 0.060000
v -2.889711 0.286751 0.060000
v -2.889711 0.286751 -0.060000
v -2.889711 0.399751 0.060000
v -2.889711 0.399751 -0.060000
v -3.152711 0.399751 0.060000
v -3.152711 0.399751 -0.060000
v -3.152711 0.286751 0.060000
v -3.152711 0.286751 -0.060000
vn -0.0000 -0.0000 -1.0000
vn -0.0000 -0.0000 1.0000
vn 0.7071 0.7071 -0.0000
vn 0.7071 -0.7071 -0.0000
vn -0.7071 0.7071 -0.0000
vn -0.7071 -0.7071 -0.0000
vt 0.529170 0.898310
vt 0.578818 0.898310
vt 0.553994 0.898310
vt 0.603643 0.898310
vt 0.547788 0.972783
vt 0.529170 0.972783
vt 0.566406 0.972783
vt 0.547788 0.898310
vt 0.585024 0.972783
vt 0.566406 0.898310
vt 0.603643 0.972783
vt 0.585024 0.898310
s 0
usemtl Material.001
f 853/619/211 855/620/211 854/621/211
f 853/619/211 856/622/211 855/620/211
f 857/619/212 858/621/212 859/620/212
f 857/619/212 859/620/212 860/622/212
s 1
f 864/623/213 861/619/214 862/624/214
f 866/625/215 863/626/213 864/623/213
f 868/627/216 865/628/215 866/625/215
f 862/629/214 867/630/216 868/627/216
f 864/623/213 863/626/213 861/619/214
f 866/625/215 865/628/215 863/626/213
f 868/627/216 867/630/216 865/628/215
f 862/629/214 861/622/214 867/630/216
o Text.010
v -2.629168 0.286751 -0.060000
v -2.629168 0.399751 -0.060000
v -2.892168 0.399751 -0.060000
v -2.892168 0.286751 -0.060000
v -2.629168 0.286751 0.060000
v -2.629168 0.399751 0.060000
v -2.892168 0.399751 0.060000
v -2.892168 0.286751 0.060000
v -2.629168 0.286751 0.060000
v -2.629168 0.286751 -0.060000
v -2.629168 0.399751 0.060000
v -2.629168 0.399751 -0.060000
v -2.892168 0.399751 0.060000
v -2.892168 0.399751 -0.060000
v -2.892168 0.286751 0.060000
v -2.892168 0.286751 -0.060000
vn -0.0000 -0.0000 -1.0000
vn -0.0000 -0.0000 1.0000
vn 0.7071 0.7071 -0.0000
vn 0.7071 -0.7071 -0.0000
vn -0.7071 0.7071 -0.0000
vn -0.7071 -0.7071 -0.0000
vt 0.400930 0.902883
vt 0.449690 0.902883
vt 0.425310 0.902883
vt 0.474070 0.902883
vt 0.419215 0.976023
vt 0.400930 0.976023
vt 0.437500 0.976023
vt 0.419215 0.902883
vt 0.455785 0.976023
vt 0.437500 0.902883
vt 0.474070 0.976023
vt 0.455785 0.902883
s 0
usemtl Material.001
f 869/631/217 871/632/217 870/633/217
f 869/631/217 872/634/217 871/632/217
f 873/631/218 874/633/218 875/632/218
f 873/631/218 875/632/218 876/634/218
s 1
f 880/635/219 877/631/220 878/636/220
f 882/637/221 879/638/219 880/635/219
f 884/639/222 881/640/221 882/637/221
f 878/641/220 883/642/222 884/639/222
f 880/635/219 879/638/219 877/631/220
f 882/637/221 881/640/221 879/638/219
f 884/639/222 883/642/222 881/640/221
f 878/641/220 877/634/220 883/642/222
o Text.011
v -2.495314 0.600294 -0.060000
v -2.495314 0.491484 -0.060000
v -2.135409 0.342162 -0.060000
v -2.495314 0.192839 -0.060000
v -2.495314 0.084030 -0.060000
v -2.001314 0.294553 -0.060000
v -2.001314 0.389770 -0.060000
v -2.495314 0.600294 0.060000
v -2.495314 0.491484 0.060000
v -2.135409 0.342162 0.060000
v -2.495314 0.192839 0.060000
v -2.495314 0.084030 0.060000
v -2.001314 0.294553 0.060000
v -2.001314 0.389770 0.060000
v -2.495314 0.600294 0.060000
v -2.495314 0.600294 -0.060000
v -2.495314 0.491484 0.060000
v -2.495314 0.491484 -0.060000
v -2.135409 0.342162 0.060000
v -2.135409 0.342162 -0.060000
v -2.495314 0.192839 0.060000
v -2.495314 0.192839 -0.060000
v -2.495314 0.084030 0.060000
v -2.495314 0.084030 -0.060000
v -2.001314 0.294553 0.060000
v -2.001314 0.294553 -0.060000
v -2.001314 0.389770 0.060000
v -2.001314 0.389770 -0.060000
vn -0.0000 -0.0000 -1.0000
vn -0.0000 -0.0000 1.0000
vn -0.8316 -0.5553 -0.0000
vn -0.5514 0.8343 -0.0000
vn -1.0000 0.0001 -0.0000
vn -0.8316 0.5553 -0.0000
vn -1.0000 -0.0001 -0.0000
vn -0.5514 -0.8343 -0.0000
vn 0.8343 -0.5513 -0.0000
vn 0.8343 0.5513 -0.0000
vt 0.350421 0.903485
vt 0.287220 0.903485
vt 0.274579 0.903485
vt 0.299860 0.903485
vt 0.337781 0.903485
vt 0.312500 0.903485
vt 0.325140 0.903485
vt 0.285414 0.979327
vt 0.274579 0.979327
vt 0.296248 0.979327
vt 0.285414 0.903485
vt 0.307083 0.979327
vt 0.296248 0.903485
vt 0.317917 0.979327
vt 0.307083 0.903485
vt 0.328752 0.979327
vt 0.317917 0.903485
vt 0.339586 0.979327
vt 0.328752 0.903485
vt 0.350421 0.979327
vt 0.339586 0.903485
s 0
usemtl Material.001
f 891/643/223 886/644/223 885/645/223
f 891/643/223 887/646/223 886/644/223
f 890/647/223 887/646/223 891/643/223
f 890/647/223 888/648/223 887/646/223
f 889/649/223 888/648/223 890/647/223
f 898/643/224 892/645/224 893/644/224
f 898/643/224 893/644/224 894/646/224
f 897/647/224 898/643/224 894/646/224
f 897/647/224 894/646/224 895/648/224
f 896/649/224 897/647/224 895/648/224
s 1
f 902/650/225 899/645/226 900/651/226
f 904/652/227 901/653/225 902/650/225
f 906/654/228 903/655/229 904/652/227
f 908/656/230 905/657/228 906/654/228
f 910/658/231 907/659/230 908/656/230
f 912/660/232 909/661/231 910/658/231
f 900/662/226 911/663/232 912/660/232
f 902/650/225 901/653/225 899/645/226
f 904/652/227 903/655/229 901/653/225
f 906/654/228 905/657/228 903/655/229
f 908/656/230 907/659/230 905/657/228
f 910/658/231 909/661/231 907/659/230
f 912/660/232 911/663/232 909/661/231
f 900/662/226 899/643/226 911/663/232
