# Blender 4.1.1
# www.blender.org
mtllib u.mtl
o Text.004
v -0.721469 0.649400 -0.020000
v -0.682736 0.652039 -0.020000
v -0.649949 0.654555 -0.020000
v -0.614630 0.657522 -0.020000
v -0.577400 0.660896 -0.020000
v -0.538878 0.664630 -0.020000
v -0.499688 0.668682 -0.020000
v -0.460451 0.673005 -0.020000
v -0.421789 0.677555 -0.020000
v -0.384321 0.682288 -0.020000
v -0.348667 0.687161 -0.020000
v -0.315440 0.692130 -0.020000
v -0.275450 0.698785 -0.020000
v -0.291889 0.794895 -0.020000
v -0.331484 0.786684 -0.020000
v -0.364503 0.780848 -0.020000
v -0.400469 0.775303 -0.020000
v -0.438576 0.770103 -0.020000
v -0.478026 0.765301 -0.020000
v -0.518024 0.760948 -0.020000
v -0.557778 0.757092 -0.020000
v -0.596496 0.753784 -0.020000
v -0.633386 0.751072 -0.020000
v -0.667653 0.749005 -0.020000
v -0.698493 0.747632 -0.020000
v -0.736637 0.746726 -0.020000
v -0.520837 0.466349 -0.020000
v -0.493468 0.464513 -0.020000
v -0.466958 0.461655 -0.020000
v -0.441378 0.457942 -0.020000
v -0.416802 0.453540 -0.020000
v -0.393301 0.448614 -0.020000
v -0.370947 0.443331 -0.020000
v -0.349810 0.437859 -0.020000
v -0.329959 0.432362 -0.020000
v -0.311459 0.427008 -0.020000
v -0.294372 0.421961 -0.020000
v -0.278960 0.417447 -0.020000
v -0.271438 0.414987 -0.020000
v -0.263897 0.412457 -0.020000
v -0.256458 0.409899 -0.020000
v -0.249132 0.407320 -0.020000
v -0.241928 0.404727 -0.020000
v -0.234859 0.402126 -0.020000
v -0.227933 0.399526 -0.020000
v -0.221163 0.396933 -0.020000
v -0.214559 0.394353 -0.020000
v -0.208130 0.391795 -0.020000
v -0.201889 0.389264 -0.020000
v -0.185403 0.382457 -0.020000
v -0.153106 0.497980 -0.020000
v -0.172212 0.499541 -0.020000
v -0.179369 0.500261 -0.020000
v -0.186725 0.501126 -0.020000
v -0.194242 0.502126 -0.020000
v -0.201882 0.503250 -0.020000
v -0.209607 0.504489 -0.020000
v -0.217382 0.505832 -0.020000
v -0.225170 0.507269 -0.020000
v -0.232934 0.508788 -0.020000
v -0.240640 0.510380 -0.020000
v -0.248249 0.512034 -0.020000
v -0.255749 0.513743 -0.020000
v -0.274088 0.518037 -0.020000
v -0.294147 0.522838 -0.020000
v -0.315797 0.527987 -0.020000
v -0.338881 0.533312 -0.020000
v -0.363242 0.538646 -0.020000
v -0.388730 0.543819 -0.020000
v -0.415195 0.548663 -0.020000
v -0.442488 0.553008 -0.020000
v -0.470462 0.556685 -0.020000
v -0.498971 0.559524 -0.020000
v -0.527868 0.561354 -0.020000
v -0.557124 0.562005 -0.020000
v -0.592679 0.560328 -0.020000
v -0.626673 0.555300 -0.020000
v -0.658741 0.546952 -0.020000
v -0.688627 0.535311 -0.020000
v -0.716059 0.520401 -0.020000
v -0.740753 0.502256 -0.020000
v -0.762407 0.480930 -0.020000
v -0.780718 0.456499 -0.020000
v -0.795391 0.429070 -0.020000
v -0.806155 0.398766 -0.020000
v -0.812770 0.365709 -0.020000
v -0.815024 0.329934 -0.020000
v -0.810923 0.276160 -0.020000
v -0.798885 0.226216 -0.020000
v -0.779375 0.180225 -0.020000
v -0.752906 0.138247 -0.020000
v -0.720021 0.100293 -0.020000
v -0.681257 0.066327 -0.020000
v -0.637127 0.036281 -0.020000
v -0.588119 0.010073 -0.020000
v -0.534701 -0.012377 -0.020000
v -0.477326 -0.031145 -0.020000
v -0.416443 -0.046296 -0.020000
v -0.345940 -0.059081 -0.020000
v -0.289828 0.035685 -0.020000
v -0.363424 0.046731 -0.020000
v -0.418670 0.058299 -0.020000
v -0.470147 0.072670 -0.020000
v -0.517499 0.089876 -0.020000
v -0.560376 0.109940 -0.020000
v -0.598439 0.132874 -0.020000
v -0.631373 0.158683 -0.020000
v -0.658896 0.187381 -0.020000
v -0.680765 0.219020 -0.020000
v -0.696753 0.253713 -0.020000
v -0.706598 0.291644 -0.020000
v -0.709972 0.333066 -0.020000
v -0.708674 0.352092 -0.020000
v -0.704857 0.370038 -0.020000
v -0.698648 0.386763 -0.020000
v -0.690151 0.402199 -0.020000
v -0.679448 0.416268 -0.020000
v -0.666612 0.428880 -0.020000
v -0.651710 0.439926 -0.020000
v -0.634815 0.449282 -0.020000
v -0.616003 0.456810 -0.020000
v -0.595364 0.462367 -0.020000
v -0.572993 0.465808 -0.020000
v -0.548869 0.466994 -0.020000
v -0.721469 0.649400 0.020000
v -0.682736 0.652039 0.020000
v -0.649949 0.654555 0.020000
v -0.614630 0.657522 0.020000
v -0.577400 0.660896 0.020000
v -0.538878 0.664630 0.020000
v -0.499688 0.668682 0.020000
v -0.460451 0.673005 0.020000
v -0.421789 0.677555 0.020000
v -0.384321 0.682288 0.020000
v -0.348667 0.687161 0.020000
v -0.315440 0.692130 0.020000
v -0.275450 0.698785 0.020000
v -0.291889 0.794895 0.020000
v -0.331484 0.786684 0.020000
v -0.364503 0.780848 0.020000
v -0.400469 0.775303 0.020000
v -0.438576 0.770103 0.020000
v -0.478026 0.765301 0.020000
v -0.518024 0.760948 0.020000
v -0.557778 0.757092 0.020000
v -0.596496 0.753784 0.020000
v -0.633386 0.751072 0.020000
v -0.667653 0.749005 0.020000
v -0.698493 0.747632 0.020000
v -0.736637 0.746726 0.020000
v -0.520837 0.466349 0.020000
v -0.493468 0.464513 0.020000
v -0.466958 0.461655 0.020000
v -0.441378 0.457942 0.020000
v -0.416802 0.453540 0.020000
v -0.393301 0.448614 0.020000
v -0.370947 0.443331 0.020000
v -0.349810 0.437859 0.020000
v -0.329959 0.432362 0.020000
v -0.311459 0.427008 0.020000
v -0.294372 0.421961 0.020000
v -0.278960 0.417447 0.020000
v -0.271438 0.414987 0.020000
v -0.263897 0.412457 0.020000
v -0.256458 0.409899 0.020000
v -0.249132 0.407320 0.020000
v -0.241928 0.404727 0.020000
v -0.234859 0.402126 0.020000
v -0.227933 0.399526 0.020000
v -0.221163 0.396933 0.020000
v -0.214559 0.394353 0.020000
v -0.208130 0.391795 0.020000
v -0.201889 0.389264 0.020000
v -0.185403 0.382457 0.020000
v -0.153106 0.497980 0.020000
v -0.172212 0.499541 0.020000
v -0.179369 0.500261 0.020000
v -0.186725 0.501126 0.020000
v -0.194242 0.502126 0.020000
v -0.201882 0.503250 0.020000
v -0.209607 0.504489 0.020000
v -0.217382 0.505832 0.020000
v -0.225170 0.507269 0.020000
v -0.232934 0.508788 0.020000
v -0.240640 0.510380 0.020000
v -0.248249 0.512034 0.020000
v -0.255749 0.513743 0.020000
v -0.274088 0.518037 0.020000
v -0.294147 0.522838 0.020000
v -0.315797 0.527987 0.020000
v -0.338881 0.533312 0.020000
v -0.363242 0.538646 0.020000
v -0.388730 0.543819 0.020000
v -0.415195 0.548663 0.020000
v -0.442488 0.553008 0.020000
v -0.470462 0.556685 0.020000
v -0.498971 0.559524 0.020000
v -0.527868 0.561354 0.020000
v -0.557124 0.562005 0.020000
v -0.592679 0.560328 0.020000
v -0.626673 0.555300 0.020000
v -0.658741 0.546952 0.020000
v -0.688627 0.535311 0.020000
v -0.716059 0.520401 0.020000
v -0.740753 0.502256 0.020000
v -0.762407 0.480930 0.020000
v -0.780718 0.456499 0.020000
v -0.795391 0.429070 0.020000
v -0.806155 0.398766 0.020000
v -0.812770 0.365709 0.020000
v -0.815024 0.329934 0.020000
v -0.810923 0.276160 0.020000
v -0.798885 0.226216 0.020000
v -0.779375 0.180225 0.020000
v -0.752906 0.138247 0.020000
v -0.720021 0.100293 0.020000
v -0.681257 0.066327 0.020000
v -0.637127 0.036281 0.020000
v -0.588119 0.010073 0.020000
v -0.534701 -0.012377 0.020000
v -0.477326 -0.031145 0.020000
v -0.416443 -0.046296 0.020000
v -0.345940 -0.059081 0.020000
v -0.289828 0.035685 0.020000
v -0.363424 0.046731 0.020000
v -0.418670 0.058299 0.020000
v -0.470147 0.072670 0.020000
v -0.517499 0.089876 0.020000
v -0.560376 0.109940 0.020000
v -0.598439 0.132874 0.020000
v -0.631373 0.158683 0.020000
v -0.658896 0.187381 0.020000
v -0.680765 0.219020 0.020000
v -0.696753 0.253713 0.020000
v -0.706598 0.291644 0.020000
v -0.709972 0.333066 0.020000
v -0.708674 0.352092 0.020000
v -0.704857 0.370038 0.020000
v -0.698648 0.386763 0.020000
v -0.690151 0.402199 0.020000
v -0.679448 0.416268 0.020000
v -0.666612 0.428880 0.020000
v -0.651710 0.439926 0.020000
v -0.634815 0.449282 0.020000
v -0.616003 0.456810 0.020000
v -0.595364 0.462367 0.020000
v -0.572993 0.465808 0.020000
v -0.548869 0.466994 0.020000
v -0.520837 0.466349 0.020000
v -0.520837 0.466349 -0.020000
v -0.493468 0.464513 0.020000
v -0.493468 0.464513 -0.020000
v -0.466958 0.461655 0.020000
v -0.466958 0.461655 -0.020000
v -0.441378 0.457942 0.020000
v -0.441378 0.457942 -0.020000
v -0.416802 0.453540 0.020000
v -0.416802 0.453540 -0.020000
v -0.393301 0.448614 0.020000
v -0.393301 0.448614 -0.020000
v -0.370947 0.443331 0.020000
v -0.370947 0.443331 -0.020000
v -0.349810 0.437859 0.020000
v -0.349810 0.437859 -0.020000
v -0.329959 0.432362 0.020000
v -0.329959 0.432362 -0.020000
v -0.311459 0.427008 0.020000
v -0.311459 0.427008 -0.020000
v -0.294372 0.421961 0.020000
v -0.294372 0.421961 -0.020000
v -0.278960 0.417447 0.020000
v -0.278960 0.417447 -0.020000
v -0.271438 0.414987 0.020000
v -0.271438 0.414987 -0.020000
v -0.263897 0.412457 0.020000
v -0.263897 0.412457 -0.020000
v -0.256458 0.409899 0.020000
v -0.256458 0.409899 -0.020000
v -0.249132 0.407320 0.020000
v -0.249132 0.407320 -0.020000
v -0.241928 0.404727 0.020000
v -0.241928 0.404727 -0.020000
v -0.234859 0.402126 0.020000
v -0.234859 0.402126 -0.020000
v -0.227933 0.399526 0.020000
v -0.227933 0.399526 -0.020000
v -0.221163 0.396933 0.020000
v -0.221163 0.396933 -0.020000
v -0.214559 0.394353 0.020000
v -0.214559 0.394353 -0.020000
v -0.208130 0.391795 0.020000
v -0.208130 0.391795 -0.020000
v -0.201889 0.389264 0.020000
v -0.201889 0.389264 -0.020000
v -0.185403 0.382457 0.020000
v -0.185403 0.382457 -0.020000
v -0.153106 0.497980 0.020000
v -0.153106 0.497980 -0.020000
v -0.172212 0.499541 0.020000
v -0.172212 0.499541 -0.020000
v -0.179369 0.500261 0.020000
v -0.179369 0.500261 -0.020000
v -0.186725 0.501126 0.020000
v -0.186725 0.501126 -0.020000
v -0.194242 0.502126 0.020000
v -0.194242 0.502126 -0.020000
v -0.201882 0.503250 0.020000
v -0.201882 0.503250 -0.020000
v -0.209607 0.504489 0.020000
v -0.209607 0.504489 -0.020000
v -0.217382 0.505832 0.020000
v -0.217382 0.505832 -0.020000
v -0.225170 0.507269 0.020000
v -0.225170 0.507269 -0.020000
v -0.232934 0.508788 0.020000
v -0.232934 0.508788 -0.020000
v -0.240640 0.510380 0.020000
v -0.240640 0.510380 -0.020000
v -0.248249 0.512034 0.020000
v -0.248249 0.512034 -0.020000
v -0.255749 0.513743 0.020000
v -0.255749 0.513743 -0.020000
v -0.274088 0.518037 0.020000
v -0.274088 0.518037 -0.020000
v -0.294147 0.522838 0.020000
v -0.294147 0.522838 -0.020000
v -0.315797 0.527987 0.020000
v -0.315797 0.527987 -0.020000
v -0.338881 0.533312 0.020000
v -0.338881 0.533312 -0.020000
v -0.363242 0.538646 0.020000
v -0.363242 0.538646 -0.020000
v -0.388730 0.543819 0.020000
v -0.388730 0.543819 -0.020000
v -0.415195 0.548663 0.020000
v -0.415195 0.548663 -0.020000
v -0.442488 0.553008 0.020000
v -0.442488 0.553008 -0.020000
v -0.470462 0.556685 0.020000
v -0.470462 0.556685 -0.020000
v -0.498971 0.559524 0.020000
v -0.498971 0.559524 -0.020000
v -0.527868 0.561354 0.020000
v -0.527868 0.561354 -0.020000
v -0.557124 0.562005 0.020000
v -0.557124 0.562005 -0.020000
v -0.592679 0.560328 0.020000
v -0.592679 0.560328 -0.020000
v -0.626673 0.555300 0.020000
v -0.626673 0.555300 -0.020000
v -0.658741 0.546952 0.020000
v -0.658741 0.546952 -0.020000
v -0.688627 0.535311 0.020000
v -0.688627 0.535311 -0.020000
v -0.716059 0.520401 0.020000
v -0.716059 0.520401 -0.020000
v -0.740753 0.502256 0.020000
v -0.740753 0.502256 -0.020000
v -0.762407 0.480930 0.020000
v -0.762407 0.480930 -0.020000
v -0.780718 0.456499 0.020000
v -0.780718 0.456499 -0.020000
v -0.795391 0.429070 0.020000
v -0.795391 0.429070 -0.020000
v -0.806155 0.398766 0.020000
v -0.806155 0.398766 -0.020000
v -0.812770 0.365709 0.020000
v -0.812770 0.365709 -0.020000
v -0.815024 0.329934 0.020000
v -0.815024 0.329934 -0.020000
v -0.810923 0.276160 0.020000
v -0.810923 0.276160 -0.020000
v -0.798885 0.226216 0.020000
v -0.798885 0.226216 -0.020000
v -0.779375 0.180225 0.020000
v -0.779375 0.180225 -0.020000
v -0.752906 0.138247 0.020000
v -0.752906 0.138247 -0.020000
v -0.720021 0.100293 0.020000
v -0.720021 0.100293 -0.020000
v -0.681257 0.066327 0.020000
v -0.681257 0.066327 -0.020000
v -0.637127 0.036281 0.020000
v -0.637127 0.036281 -0.020000
v -0.588119 0.010073 0.020000
v -0.588119 0.010073 -0.020000
v -0.534701 -0.012377 0.020000
v -0.534701 -0.012377 -0.020000
v -0.477326 -0.031145 0.020000
v -0.477326 -0.031145 -0.020000
v -0.416443 -0.046296 0.020000
v -0.416443 -0.046296 -0.020000
v -0.345940 -0.059081 0.020000
v -0.345940 -0.059081 -0.020000
v -0.289828 0.035685 0.020000
v -0.289828 0.035685 -0.020000
v -0.363424 0.046731 0.020000
v -0.363424 0.046731 -0.020000
v -0.418670 0.058299 0.020000
v -0.418670 0.058299 -0.020000
v -0.470147 0.072670 0.020000
v -0.470147 0.072670 -0.020000
v -0.517499 0.089876 0.020000
v -0.517499 0.089876 -0.020000
v -0.560376 0.109940 0.020000
v -0.560376 0.109940 -0.020000
v -0.598439 0.132874 0.020000
v -0.598439 0.132874 -0.020000
v -0.631373 0.158683 0.020000
v -0.631373 0.158683 -0.020000
v -0.658896 0.187381 0.020000
v -0.658896 0.187381 -0.020000
v -0.680765 0.219020 0.020000
v -0.680765 0.219020 -0.020000
v -0.696753 0.253713 0.020000
v -0.696753 0.253713 -0.020000
v -0.706598 0.291644 0.020000
v -0.706598 0.291644 -0.020000
v -0.709972 0.333066 0.020000
v -0.709972 0.333066 -0.020000
v -0.708674 0.352092 0.020000
v -0.708674 0.352092 -0.020000
v -0.704857 0.370038 0.020000
v -0.704857 0.370038 -0.020000
v -0.698648 0.386763 0.020000
v -0.698648 0.386763 -0.020000
v -0.690151 0.402199 0.020000
v -0.690151 0.402199 -0.020000
v -0.679448 0.416268 0.020000
v -0.679448 0.416268 -0.020000
v -0.666612 0.428880 0.020000
v -0.666612 0.428880 -0.020000
v -0.651710 0.439926 0.020000
v -0.651710 0.439926 -0.020000
v -0.634815 0.449282 0.020000
v -0.634815 0.449282 -0.020000
v -0.616003 0.456810 0.020000
v -0.616003 0.456810 -0.020000
v -0.595364 0.462367 0.020000
v -0.595364 0.462367 -0.020000
v -0.572993 0.465808 0.020000
v -0.572993 0.465808 -0.020000
v -0.548869 0.466994 0.020000
v -0.548869 0.466994 -0.020000
v -0.721469 0.649400 0.020000
v -0.721469 0.649400 -0.020000
v -0.682736 0.652039 0.020000
v -0.682736 0.652039 -0.020000
v -0.649949 0.654555 0.020000
v -0.649949 0.654555 -0.020000
v -0.614630 0.657522 0.020000
v -0.614630 0.657522 -0.020000
v -0.577400 0.660896 0.020000
v -0.577400 0.660896 -0.020000
v -0.538878 0.664630 0.020000
v -0.538878 0.664630 -0.020000
v -0.499688 0.668682 0.020000
v -0.499688 0.668682 -0.020000
v -0.460451 0.673005 0.020000
v -0.460451 0.673005 -0.020000
v -0.421789 0.677555 0.020000
v -0.421789 0.677555 -0.020000
v -0.384321 0.682288 0.020000
v -0.384321 0.682288 -0.020000
v -0.348667 0.687161 0.020000
v -0.348667 0.687161 -0.020000
v -0.315440 0.692130 0.020000
v -0.315440 0.692130 -0.020000
v -0.275450 0.698785 0.020000
v -0.275450 0.698785 -0.020000
v -0.291889 0.794895 0.020000
v -0.291889 0.794895 -0.020000
v -0.331484 0.786684 0.020000
v -0.331484 0.786684 -0.020000
v -0.364503 0.780848 0.020000
v -0.364503 0.780848 -0.020000
v -0.400469 0.775303 0.020000
v -0.400469 0.775303 -0.020000
v -0.438576 0.770103 0.020000
v -0.438576 0.770103 -0.020000
v -0.478026 0.765301 0.020000
v -0.478026 0.765301 -0.020000
v -0.518024 0.760948 0.020000
v -0.518024 0.760948 -0.020000
v -0.557778 0.757092 0.020000
v -0.557778 0.757092 -0.020000
v -0.596496 0.753784 0.020000
v -0.596496 0.753784 -0.020000
v -0.633386 0.751072 0.020000
v -0.633386 0.751072 -0.020000
v -0.667653 0.749005 0.020000
v -0.667653 0.749005 -0.020000
v -0.698493 0.747632 0.020000
v -0.698493 0.747632 -0.020000
v -0.736637 0.746726 0.020000
v -0.736637 0.746726 -0.020000
vn -0.0000 -0.0000 -1.0000
vn -0.0000 -0.0000 1.0000
vn -0.0871 -0.9962 -0.0000
vn -0.0450 -0.9990 -0.0000
vn -0.1254 -0.9921 -0.0000
vn -0.1600 -0.9871 -0.0000
vn -0.1908 -0.9816 -0.0000
vn -0.2176 -0.9760 -0.0000
vn -0.2403 -0.9707 -0.0000
vn -0.2587 -0.9659 -0.0000
vn -0.2724 -0.9622 -0.0000
vn -0.2806 -0.9598 -0.0000
vn -0.2822 -0.9594 -0.0000
vn -0.2960 -0.9552 -0.0000
vn -0.3144 -0.9493 -0.0000
vn -0.3217 -0.9469 -0.0000
vn -0.3286 -0.9445 -0.0000
vn -0.3354 -0.9421 -0.0000
vn -0.3420 -0.9397 -0.0000
vn -0.3484 -0.9374 -0.0000
vn -0.3546 -0.9350 -0.0000
vn -0.3608 -0.9327 -0.0000
vn -0.3668 -0.9303 -0.0000
vn -0.3728 -0.9279 -0.0000
vn -0.3787 -0.9255 -0.0000
vn 0.4380 -0.8990 -0.0000
vn 0.8206 0.5715 -0.0000
vn 0.4379 -0.8990 -0.0000
vn 0.0908 0.9959 -0.0000
vn 0.1084 0.9941 -0.0000
vn 0.1243 0.9922 -0.0000
vn 0.1388 0.9903 -0.0000
vn 0.1520 0.9884 -0.0000
vn 0.1643 0.9864 -0.0000
vn 0.1758 0.9844 -0.0000
vn 0.1867 0.9824 -0.0000
vn 0.1972 0.9804 -0.0000
vn 0.2073 0.9783 -0.0000
vn 0.2173 0.9761 -0.0000
vn 0.2251 0.9743 -0.0000
vn 0.2304 0.9731 -0.0000
vn 0.2321 0.9727 -0.0000
vn 0.2281 0.9736 -0.0000
vn 0.2194 0.9756 -0.0000
vn 0.2064 0.9785 -0.0000
vn 0.1895 0.9819 -0.0000
vn 0.1686 0.9857 -0.0000
vn 0.1438 0.9896 -0.0000
vn 0.1147 0.9934 -0.0000
vn 0.0812 0.9967 -0.0000
vn 0.0427 0.9991 -0.0000
vn -0.0124 0.9999 -0.0000
vn -0.0968 0.9953 -0.0000
vn -0.1994 0.9799 -0.0000
vn -0.3080 0.9514 -0.0000
vn -0.4211 0.9070 -0.0000
vn -0.5361 0.8442 -0.0000
vn -0.6486 0.7611 -0.0000
vn -0.7531 0.6580 -0.0000
vn -0.8434 0.5373 -0.0000
vn -0.9146 0.4043 -0.0000
vn -0.9639 0.2662 -0.0000
vn -0.9915 0.1298 -0.0000
vn -1.0000 -0.0066 -0.0000
vn -0.9878 -0.1557 -0.0000
vn -0.9496 -0.3135 -0.0000
vn -0.8861 -0.4635 -0.0000
vn -0.8031 -0.5958 -0.0000
vn -0.7091 -0.7051 -0.0000
vn -0.6120 -0.7908 -0.0000
vn -0.5179 -0.8554 -0.0000
vn -0.4300 -0.9028 -0.0000
vn -0.3495 -0.9370 -0.0000
vn -0.2764 -0.9611 -0.0000
vn -0.2101 -0.9777 -0.0000
vn 0.4154 -0.9096 -0.0000
vn 0.9032 0.4292 -0.0000
vn 0.1768 0.9843 -0.0000
vn 0.2370 0.9715 -0.0000
vn 0.3054 0.9522 -0.0000
vn 0.3831 0.9237 -0.0000
vn 0.4706 0.8823 -0.0000
vn 0.5675 0.8234 -0.0000
vn 0.6710 0.7415 -0.0000
vn 0.7746 0.6324 -0.0000
vn 0.8687 0.4954 -0.0000
vn 0.9418 0.3362 -0.0000
vn 0.9860 0.1668 -0.0000
vn 1.0000 0.0066 -0.0000
vn 0.9904 -0.1384 -0.0000
vn 0.9604 -0.2788 -0.0000
vn 0.9092 -0.4163 -0.0000
vn 0.8382 -0.5453 -0.0000
vn 0.7503 -0.6611 -0.0000
vn 0.6497 -0.7601 -0.0000
vn 0.5411 -0.8409 -0.0000
vn 0.4288 -0.9034 -0.0000
vn 0.3163 -0.9487 -0.0000
vn 0.2063 -0.9785 -0.0000
vn 0.1007 -0.9949 -0.0000
vn 0.0130 -0.9999 -0.0000
vn 0.0723 -0.9974 -0.0000
vn -0.6242 -0.7813 -0.0000
vn 0.0801 -0.9968 -0.0000
vn 0.0870 -0.9962 -0.0000
vn 0.0934 -0.9956 -0.0000
vn 0.0997 -0.9950 -0.0000
vn 0.1062 -0.9943 -0.0000
vn 0.1132 -0.9936 -0.0000
vn 0.1211 -0.9926 -0.0000
vn 0.1304 -0.9915 -0.0000
vn 0.1417 -0.9899 -0.0000
vn 0.1560 -0.9878 -0.0000
vn 0.8149 -0.5796 -0.0000
vn 0.5633 0.8262 -0.0000
vn -0.1886 0.9821 -0.0000
vn -0.1632 0.9866 -0.0000
vn -0.1438 0.9896 -0.0000
vn -0.1280 0.9918 -0.0000
vn -0.1145 0.9934 -0.0000
vn -0.1024 0.9947 -0.0000
vn -0.0908 0.9959 -0.0000
vn -0.0792 0.9969 -0.0000
vn -0.0668 0.9978 -0.0000
vn -0.0523 0.9986 -0.0000
vn -0.0341 0.9994 -0.0000
vn -0.7672 0.6414 -0.0000
vn -0.7673 0.6413 -0.0000
vt 0.568860 0.917274
vt 0.569494 0.917274
vt 0.569177 0.917274
vt 0.568542 0.917274
vt 0.569812 0.917274
vt 0.568225 0.917274
vt 0.567908 0.917274
vt 0.570129 0.917274
vt 0.567591 0.917274
vt 0.567273 0.917274
vt 0.570446 0.917274
vt 0.566956 0.917274
vt 0.566639 0.917274
vt 0.570764 0.917274
vt 0.566321 0.917274
vt 0.566004 0.917274
vt 0.565687 0.917274
vt 0.571081 0.917274
vt 0.565369 0.917274
vt 0.565052 0.917274
vt 0.564735 0.917274
vt 0.564417 0.917274
vt 0.564100 0.917274
vt 0.563783 0.917274
vt 0.563466 0.917274
vt 0.563148 0.917274
vt 0.562831 0.917274
vt 0.571398 0.917274
vt 0.562514 0.917274
vt 0.562196 0.917274
vt 0.561879 0.917274
vt 0.561562 0.917274
vt 0.561244 0.917274
vt 0.560927 0.917274
vt 0.560610 0.917274
vt 0.560292 0.917274
vt 0.559975 0.917274
vt 0.559658 0.917274
vt 0.559341 0.917274
vt 0.559023 0.917274
vt 0.558706 0.917274
vt 0.558389 0.917274
vt 0.558071 0.917274
vt 0.557754 0.917274
vt 0.557437 0.917274
vt 0.556802 0.917274
vt 0.556485 0.917274
vt 0.556167 0.917274
vt 0.555850 0.917274
vt 0.555533 0.917274
vt 0.555216 0.917274
vt 0.554898 0.917274
vt 0.554581 0.917274
vt 0.554264 0.917274
vt 0.553946 0.917274
vt 0.584725 0.917274
vt 0.571716 0.917274
vt 0.584408 0.917274
vt 0.584091 0.917274
vt 0.583773 0.917274
vt 0.583456 0.917274
vt 0.572033 0.917274
vt 0.583139 0.917274
vt 0.582821 0.917274
vt 0.572350 0.917274
vt 0.582504 0.917274
vt 0.557119 0.917274
vt 0.582187 0.917274
vt 0.581869 0.917274
vt 0.572668 0.917274
vt 0.581552 0.917274
vt 0.581235 0.917274
vt 0.572985 0.917274
vt 0.580918 0.917274
vt 0.580600 0.917274
vt 0.573302 0.917274
vt 0.580283 0.917274
vt 0.573619 0.917274
vt 0.579966 0.917274
vt 0.573937 0.917274
vt 0.579648 0.917274
vt 0.579331 0.917274
vt 0.574254 0.917274
vt 0.579014 0.917274
vt 0.574571 0.917274
vt 0.578696 0.917274
vt 0.578379 0.917274
vt 0.574889 0.917274
vt 0.578062 0.917274
vt 0.577744 0.917274
vt 0.575206 0.917274
vt 0.577427 0.917274
vt 0.577110 0.917274
vt 0.575523 0.917274
vt 0.576793 0.917274
vt 0.575841 0.917274
vt 0.576158 0.917274
vt 0.576475 0.917274
vt 0.549504 0.917274
vt 0.550139 0.917274
vt 0.549821 0.917274
vt 0.550456 0.917274
vt 0.550773 0.917274
vt 0.551090 0.917274
vt 0.551408 0.917274
vt 0.551725 0.917274
vt 0.552042 0.917274
vt 0.552360 0.917274
vt 0.552677 0.917274
vt 0.552994 0.917274
vt 0.553312 0.917274
vt 0.553629 0.917274
vt 0.545696 0.917274
vt 0.549187 0.917274
vt 0.548869 0.917274
vt 0.548552 0.917274
vt 0.548235 0.917274
vt 0.547917 0.917274
vt 0.547600 0.917274
vt 0.547283 0.917274
vt 0.546965 0.917274
vt 0.546648 0.917274
vt 0.546331 0.917274
vt 0.546014 0.917274
vt 0.546094 0.956303
vt 0.545696 0.956303
vt 0.546493 0.956303
vt 0.546094 0.917274
vt 0.546891 0.956303
vt 0.546493 0.917274
vt 0.547289 0.956303
vt 0.546891 0.917274
vt 0.547688 0.956303
vt 0.547289 0.917274
vt 0.548086 0.956303
vt 0.547688 0.917274
vt 0.548484 0.956303
vt 0.548086 0.917274
vt 0.548882 0.956303
vt 0.548484 0.917274
vt 0.549281 0.956303
vt 0.548882 0.917274
vt 0.549679 0.956303
vt 0.549281 0.917274
vt 0.550077 0.956303
vt 0.549679 0.917274
vt 0.550475 0.956303
vt 0.550077 0.917274
vt 0.550874 0.956303
vt 0.550475 0.917274
vt 0.551272 0.956303
vt 0.550874 0.917274
vt 0.551670 0.956303
vt 0.551272 0.917274
vt 0.552068 0.956303
vt 0.551670 0.917274
vt 0.552467 0.956303
vt 0.552068 0.917274
vt 0.552865 0.956303
vt 0.552467 0.917274
vt 0.553263 0.956303
vt 0.552865 0.917274
vt 0.553661 0.956303
vt 0.553263 0.917274
vt 0.554060 0.956303
vt 0.553661 0.917274
vt 0.554458 0.956303
vt 0.554060 0.917274
vt 0.554856 0.956303
vt 0.554458 0.917274
vt 0.555254 0.956303
vt 0.554856 0.917274
vt 0.555653 0.956303
vt 0.555254 0.917274
vt 0.556051 0.956303
vt 0.555653 0.917274
vt 0.556449 0.956303
vt 0.556051 0.917274
vt 0.556847 0.956303
vt 0.556449 0.917274
vt 0.557246 0.956303
vt 0.556847 0.917274
vt 0.557644 0.956303
vt 0.557246 0.917274
vt 0.558042 0.956303
vt 0.557644 0.917274
vt 0.558440 0.956303
vt 0.558042 0.917274
vt 0.558839 0.956303
vt 0.558440 0.917274
vt 0.559237 0.956303
vt 0.558839 0.917274
vt 0.559635 0.956303
vt 0.559237 0.917274
vt 0.560033 0.956303
vt 0.559635 0.917274
vt 0.560432 0.956303
vt 0.560033 0.917274
vt 0.560830 0.956303
vt 0.560432 0.917274
vt 0.561228 0.956303
vt 0.560830 0.917274
vt 0.561626 0.956303
vt 0.561228 0.917274
vt 0.562025 0.956303
vt 0.561626 0.917274
vt 0.562423 0.956303
vt 0.562025 0.917274
vt 0.562821 0.956303
vt 0.562423 0.917274
vt 0.563219 0.956303
vt 0.562821 0.917274
vt 0.563618 0.956303
vt 0.563219 0.917274
vt 0.564016 0.956303
vt 0.563618 0.917274
vt 0.564414 0.956303
vt 0.564016 0.917274
vt 0.564812 0.956303
vt 0.564414 0.917274
vt 0.565211 0.956303
vt 0.564812 0.917274
vt 0.565609 0.956303
vt 0.565211 0.917274
vt 0.566007 0.956303
vt 0.565609 0.917274
vt 0.566406 0.956303
vt 0.566007 0.917274
vt 0.566804 0.956303
vt 0.566406 0.917274
vt 0.567202 0.956303
vt 0.566804 0.917274
vt 0.567600 0.956303
vt 0.567202 0.917274
vt 0.567999 0.956303
vt 0.567600 0.917274
vt 0.568397 0.956303
vt 0.567999 0.917274
vt 0.568795 0.956303
vt 0.568397 0.917274
vt 0.569193 0.956303
vt 0.568795 0.917274
vt 0.569592 0.956303
vt 0.569193 0.917274
vt 0.569990 0.956303
vt 0.569592 0.917274
vt 0.570388 0.956303
vt 0.569990 0.917274
vt 0.570786 0.956303
vt 0.570388 0.917274
vt 0.571185 0.956303
vt 0.570786 0.917274
vt 0.571583 0.956303
vt 0.571185 0.917274
vt 0.571981 0.956303
vt 0.571583 0.917274
vt 0.572379 0.956303
vt 0.571981 0.917274
vt 0.572778 0.956303
vt 0.572379 0.917274
vt 0.573176 0.956303
vt 0.572778 0.917274
vt 0.573574 0.956303
vt 0.573176 0.917274
vt 0.573972 0.956303
vt 0.573574 0.917274
vt 0.574371 0.956303
vt 0.573972 0.917274
vt 0.574769 0.956303
vt 0.574371 0.917274
vt 0.575167 0.956303
vt 0.574769 0.917274
vt 0.575565 0.956303
vt 0.575167 0.917274
vt 0.575964 0.956303
vt 0.575565 0.917274
vt 0.576362 0.956303
vt 0.575964 0.917274
vt 0.576760 0.956303
vt 0.576362 0.917274
vt 0.577158 0.956303
vt 0.576760 0.917274
vt 0.577557 0.956303
vt 0.577158 0.917274
vt 0.577955 0.956303
vt 0.577557 0.917274
vt 0.578353 0.956303
vt 0.577955 0.917274
vt 0.578751 0.956303
vt 0.578353 0.917274
vt 0.579150 0.956303
vt 0.578751 0.917274
vt 0.579548 0.956303
vt 0.579150 0.917274
vt 0.579946 0.956303
vt 0.579548 0.917274
vt 0.580344 0.956303
vt 0.579946 0.917274
vt 0.580743 0.956303
vt 0.580344 0.917274
vt 0.581141 0.956303
vt 0.580743 0.917274
vt 0.581539 0.956303
vt 0.581141 0.917274
vt 0.581937 0.956303
vt 0.581539 0.917274
vt 0.582336 0.956303
vt 0.581937 0.917274
vt 0.582734 0.956303
vt 0.582336 0.917274
vt 0.583132 0.956303
vt 0.582734 0.917274
vt 0.583530 0.956303
vt 0.583132 0.917274
vt 0.583929 0.956303
vt 0.583530 0.917274
vt 0.584327 0.956303
vt 0.583929 0.917274
vt 0.584725 0.956303
vt 0.584327 0.917274
vt 0.547197 0.956303
vt 0.548698 0.956303
vt 0.547197 0.917274
vt 0.550200 0.956303
vt 0.548698 0.917274
vt 0.551701 0.956303
vt 0.550200 0.917274
vt 0.553202 0.956303
vt 0.551701 0.917274
vt 0.554703 0.956303
vt 0.553202 0.917274
vt 0.556204 0.956303
vt 0.554703 0.917274
vt 0.557705 0.956303
vt 0.556204 0.917274
vt 0.559206 0.956303
vt 0.557705 0.917274
vt 0.560707 0.956303
vt 0.559206 0.917274
vt 0.562209 0.956303
vt 0.560707 0.917274
vt 0.563710 0.956303
vt 0.562209 0.917274
vt 0.563710 0.917274
vt 0.566712 0.956303
vt 0.568213 0.956303
vt 0.566712 0.917274
vt 0.569714 0.956303
vt 0.568213 0.917274
vt 0.571215 0.956303
vt 0.569714 0.917274
vt 0.572716 0.956303
vt 0.571215 0.917274
vt 0.574217 0.956303
vt 0.572716 0.917274
vt 0.575719 0.956303
vt 0.574217 0.917274
vt 0.577220 0.956303
vt 0.575719 0.917274
vt 0.578721 0.956303
vt 0.577220 0.917274
vt 0.580222 0.956303
vt 0.578721 0.917274
vt 0.581723 0.956303
vt 0.580222 0.917274
vt 0.583224 0.956303
vt 0.581723 0.917274
vt 0.583224 0.917274
s 0
usemtl Material
f 74/1/1 76/2/1 75/3/1
f 73/4/1 76/2/1 74/1/1
f 73/4/1 77/5/1 76/2/1
f 72/6/1 77/5/1 73/4/1
f 71/7/1 77/5/1 72/6/1
f 71/7/1 78/8/1 77/5/1
f 70/9/1 78/8/1 71/7/1
f 69/10/1 78/8/1 70/9/1
f 69/10/1 79/11/1 78/8/1
f 68/12/1 79/11/1 69/10/1
f 67/13/1 79/11/1 68/12/1
f 67/13/1 80/14/1 79/11/1
f 66/15/1 80/14/1 67/13/1
f 65/16/1 80/14/1 66/15/1
f 64/17/1 80/14/1 65/16/1
f 64/17/1 81/18/1 80/14/1
f 63/19/1 81/18/1 64/17/1
f 62/20/1 81/18/1 63/19/1
f 61/21/1 81/18/1 62/20/1
f 60/22/1 81/18/1 61/21/1
f 59/23/1 81/18/1 60/22/1
f 58/24/1 81/18/1 59/23/1
f 57/25/1 81/18/1 58/24/1
f 56/26/1 81/18/1 57/25/1
f 55/27/1 81/18/1 56/26/1
f 55/27/1 82/28/1 81/18/1
f 54/29/1 82/28/1 55/27/1
f 53/30/1 82/28/1 54/29/1
f 52/31/1 82/28/1 53/30/1
f 51/32/1 82/28/1 52/31/1
f 50/33/1 49/34/1 51/32/1
f 49/34/1 48/35/1 51/32/1
f 48/35/1 47/36/1 51/32/1
f 47/36/1 46/37/1 51/32/1
f 46/37/1 45/38/1 51/32/1
f 45/38/1 44/39/1 51/32/1
f 44/39/1 43/40/1 51/32/1
f 43/40/1 42/41/1 51/32/1
f 42/41/1 41/42/1 51/32/1
f 41/42/1 40/43/1 51/32/1
f 40/43/1 39/44/1 51/32/1
f 39/44/1 38/45/1 51/32/1
f 38/45/1 36/46/1 51/32/1
f 36/46/1 35/47/1 51/32/1
f 35/47/1 34/48/1 51/32/1
f 34/48/1 33/49/1 51/32/1
f 33/49/1 32/50/1 51/32/1
f 32/50/1 31/51/1 51/32/1
f 31/51/1 30/52/1 51/32/1
f 30/52/1 29/53/1 51/32/1
f 29/53/1 28/54/1 51/32/1
f 28/54/1 27/55/1 51/32/1
f 27/55/1 82/28/1 51/32/1
f 27/55/1 124/56/1 82/28/1
f 124/56/1 83/57/1 82/28/1
f 123/58/1 83/57/1 124/56/1
f 122/59/1 83/57/1 123/58/1
f 121/60/1 83/57/1 122/59/1
f 120/61/1 83/57/1 121/60/1
f 120/61/1 84/62/1 83/57/1
f 119/63/1 84/62/1 120/61/1
f 118/64/1 84/62/1 119/63/1
f 118/64/1 85/65/1 84/62/1
f 117/66/1 85/65/1 118/64/1
f 38/45/1 37/67/1 36/46/1
f 116/68/1 85/65/1 117/66/1
f 115/69/1 85/65/1 116/68/1
f 115/69/1 86/70/1 85/65/1
f 114/71/1 86/70/1 115/69/1
f 113/72/1 86/70/1 114/71/1
f 113/72/1 87/73/1 86/70/1
f 112/74/1 87/73/1 113/72/1
f 111/75/1 87/73/1 112/74/1
f 111/75/1 88/76/1 87/73/1
f 110/77/1 88/76/1 111/75/1
f 110/77/1 89/78/1 88/76/1
f 109/79/1 89/78/1 110/77/1
f 109/79/1 90/80/1 89/78/1
f 108/81/1 90/80/1 109/79/1
f 107/82/1 90/80/1 108/81/1
f 107/82/1 91/83/1 90/80/1
f 106/84/1 91/83/1 107/82/1
f 106/84/1 92/85/1 91/83/1
f 105/86/1 92/85/1 106/84/1
f 104/87/1 92/85/1 105/86/1
f 104/87/1 93/88/1 92/85/1
f 103/89/1 93/88/1 104/87/1
f 102/90/1 93/88/1 103/89/1
f 102/90/1 94/91/1 93/88/1
f 101/92/1 94/91/1 102/90/1
f 100/93/1 94/91/1 101/92/1
f 100/93/1 95/94/1 94/91/1
f 99/95/1 95/94/1 100/93/1
f 99/95/1 96/96/1 95/94/1
f 99/95/1 97/97/1 96/96/1
f 99/95/1 98/98/1 97/97/1
f 13/99/1 15/100/1 14/101/1
f 13/99/1 16/102/1 15/100/1
f 13/99/1 17/103/1 16/102/1
f 13/99/1 18/104/1 17/103/1
f 13/99/1 19/105/1 18/104/1
f 13/99/1 20/106/1 19/105/1
f 13/99/1 21/107/1 20/106/1
f 13/99/1 22/108/1 21/107/1
f 13/99/1 23/109/1 22/108/1
f 13/99/1 24/110/1 23/109/1
f 13/99/1 25/111/1 24/110/1
f 13/99/1 26/112/1 25/111/1
f 13/99/1 1/113/1 26/112/1
f 12/114/1 1/113/1 13/99/1
f 11/115/1 1/113/1 12/114/1
f 10/116/1 1/113/1 11/115/1
f 9/117/1 1/113/1 10/116/1
f 8/118/1 1/113/1 9/117/1
f 7/119/1 1/113/1 8/118/1
f 6/120/1 1/113/1 7/119/1
f 5/121/1 1/113/1 6/120/1
f 4/122/1 1/113/1 5/121/1
f 3/123/1 1/113/1 4/122/1
f 2/124/1 1/113/1 3/123/1
f 198/1/2 199/3/2 200/2/2
f 197/4/2 198/1/2 200/2/2
f 197/4/2 200/2/2 201/5/2
f 196/6/2 197/4/2 201/5/2
f 195/7/2 196/6/2 201/5/2
f 195/7/2 201/5/2 202/8/2
f 194/9/2 195/7/2 202/8/2
f 193/10/2 194/9/2 202/8/2
f 193/10/2 202/8/2 203/11/2
f 192/12/2 193/10/2 203/11/2
f 191/13/2 192/12/2 203/11/2
f 191/13/2 203/11/2 204/14/2
f 190/15/2 191/13/2 204/14/2
f 189/16/2 190/15/2 204/14/2
f 188/17/2 189/16/2 204/14/2
f 188/17/2 204/14/2 205/18/2
f 187/19/2 188/17/2 205/18/2
f 186/20/2 187/19/2 205/18/2
f 185/21/2 186/20/2 205/18/2
f 184/22/2 185/21/2 205/18/2
f 183/23/2 184/22/2 205/18/2
f 182/24/2 183/23/2 205/18/2
f 181/25/2 182/24/2 205/18/2
f 180/26/2 181/25/2 205/18/2
f 179/27/2 180/26/2 205/18/2
f 179/27/2 205/18/2 206/28/2
f 178/29/2 179/27/2 206/28/2
f 177/30/2 178/29/2 206/28/2
f 176/31/2 177/30/2 206/28/2
f 175/32/2 176/31/2 206/28/2
f 174/33/2 175/32/2 173/34/2
f 173/34/2 175/32/2 172/35/2
f 172/35/2 175/32/2 171/36/2
f 171/36/2 175/32/2 170/37/2
f 170/37/2 175/32/2 169/38/2
f 169/38/2 175/32/2 168/39/2
f 168/39/2 175/32/2 167/40/2
f 167/40/2 175/32/2 166/41/2
f 166/41/2 175/32/2 165/42/2
f 165/42/2 175/32/2 164/43/2
f 164/43/2 175/32/2 163/44/2
f 163/44/2 175/32/2 162/45/2
f 162/45/2 175/32/2 160/46/2
f 160/46/2 175/32/2 159/47/2
f 159/47/2 175/32/2 158/48/2
f 158/48/2 175/32/2 157/49/2
f 157/49/2 175/32/2 156/50/2
f 156/50/2 175/32/2 155/51/2
f 155/51/2 175/32/2 154/52/2
f 154/52/2 175/32/2 153/53/2
f 153/53/2 175/32/2 152/54/2
f 152/54/2 175/32/2 151/55/2
f 151/55/2 175/32/2 206/28/2
f 151/55/2 206/28/2 248/56/2
f 248/56/2 206/28/2 207/57/2
f 247/58/2 248/56/2 207/57/2
f 246/59/2 247/58/2 207/57/2
f 245/60/2 246/59/2 207/57/2
f 244/61/2 245/60/2 207/57/2
f 244/61/2 207/57/2 208/62/2
f 243/63/2 244/61/2 208/62/2
f 242/64/2 243/63/2 208/62/2
f 242/64/2 208/62/2 209/65/2
f 241/66/2 242/64/2 209/65/2
f 162/45/2 160/46/2 161/67/2
f 240/68/2 241/66/2 209/65/2
f 239/69/2 240/68/2 209/65/2
f 239/69/2 209/65/2 210/70/2
f 238/71/2 239/69/2 210/70/2
f 237/72/2 238/71/2 210/70/2
f 237/72/2 210/70/2 211/73/2
f 236/74/2 237/72/2 211/73/2
f 235/75/2 236/74/2 211/73/2
f 235/75/2 211/73/2 212/76/2
f 234/77/2 235/75/2 212/76/2
f 234/77/2 212/76/2 213/78/2
f 233/79/2 234/77/2 213/78/2
f 233/79/2 213/78/2 214/80/2
f 232/81/2 233/79/2 214/80/2
f 231/82/2 232/81/2 214/80/2
f 231/82/2 214/80/2 215/83/2
f 230/84/2 231/82/2 215/83/2
f 230/84/2 215/83/2 216/85/2
f 229/86/2 230/84/2 216/85/2
f 228/87/2 229/86/2 216/85/2
f 228/87/2 216/85/2 217/88/2
f 227/89/2 228/87/2 217/88/2
f 226/90/2 227/89/2 217/88/2
f 226/90/2 217/88/2 218/91/2
f 225/92/2 226/90/2 218/91/2
f 224/93/2 225/92/2 218/91/2
f 224/93/2 218/91/2 219/94/2
f 223/95/2 224/93/2 219/94/2
f 223/95/2 219/94/2 220/96/2
f 223/95/2 220/96/2 221/97/2
f 223/95/2 221/97/2 222/98/2
f 137/99/2 138/101/2 139/100/2
f 137/99/2 139/100/2 140/102/2
f 137/99/2 140/102/2 141/103/2
f 137/99/2 141/103/2 142/104/2
f 137/99/2 142/104/2 143/105/2
f 137/99/2 143/105/2 144/106/2
f 137/99/2 144/106/2 145/107/2
f 137/99/2 145/107/2 146/108/2
f 137/99/2 146/108/2 147/109/2
f 137/99/2 147/109/2 148/110/2
f 137/99/2 148/110/2 149/111/2
f 137/99/2 149/111/2 150/112/2
f 137/99/2 150/112/2 125/113/2
f 136/114/2 137/99/2 125/113/2
f 135/115/2 136/114/2 125/113/2
f 134/116/2 135/115/2 125/113/2
f 133/117/2 134/116/2 125/113/2
f 132/118/2 133/117/2 125/113/2
f 131/119/2 132/118/2 125/113/2
f 130/120/2 131/119/2 125/113/2
f 129/121/2 130/120/2 125/113/2
f 128/122/2 129/121/2 125/113/2
f 127/123/2 128/122/2 125/113/2
f 126/124/2 127/123/2 125/113/2
s 1
f 252/125/3 249/113/4 250/126/4
f 254/127/5 251/128/3 252/125/3
f 256/129/6 253/130/5 254/127/5
f 258/131/7 255/132/6 256/129/6
f 260/133/8 257/134/7 258/131/7
f 262/135/9 259/136/8 260/133/8
f 264/137/10 261/138/9 262/135/9
f 266/139/11 263/140/10 264/137/10
f 268/141/12 265/142/11 266/139/11
f 270/143/13 267/144/12 268/141/12
f 272/145/14 269/146/13 270/143/13
f 274/147/15 271/148/14 272/145/14
f 276/149/16 273/150/15 274/147/15
f 278/151/17 275/152/16 276/149/16
f 280/153/18 277/154/17 278/151/17
f 282/155/19 279/156/18 280/153/18
f 284/157/20 281/158/19 282/155/19
f 286/159/21 283/160/20 284/157/20
f 288/161/22 285/162/21 286/159/21
f 290/163/23 287/164/22 288/161/22
f 292/165/24 289/166/23 290/163/23
f 294/167/25 291/168/24 292/165/24
f 296/169/26 293/170/25 294/167/25
f 298/171/27 295/172/28 296/169/26
f 300/173/29 297/174/27 298/171/27
f 302/175/30 299/176/29 300/173/29
f 304/177/31 301/178/30 302/175/30
f 306/179/32 303/180/31 304/177/31
f 308/181/33 305/182/32 306/179/32
f 310/183/34 307/184/33 308/181/33
f 312/185/35 309/186/34 310/183/34
f 314/187/36 311/188/35 312/185/35
f 316/189/37 313/190/36 314/187/36
f 318/191/38 315/192/37 316/189/37
f 320/193/39 317/194/38 318/191/38
f 322/195/40 319/196/39 320/193/39
f 324/197/41 321/198/40 322/195/40
f 326/199/42 323/200/41 324/197/41
f 328/201/43 325/202/42 326/199/42
f 330/203/44 327/204/43 328/201/43
f 332/205/45 329/206/44 330/203/44
f 334/207/46 331/208/45 332/205/45
f 336/209/47 333/210/46 334/207/46
f 338/211/48 335/212/47 336/209/47
f 340/213/49 337/214/48 338/211/48
f 342/215/50 339/216/49 340/213/49
f 344/217/51 341/218/50 342/215/50
f 346/219/52 343/220/51 344/217/51
f 348/221/53 345/222/52 346/219/52
f 350/223/54 347/224/53 348/221/53
f 352/225/55 349/226/54 350/223/54
f 354/227/56 351/228/55 352/225/55
f 356/229/57 353/230/56 354/227/56
f 358/231/58 355/232/57 356/229/57
f 360/233/59 357/234/58 358/231/58
f 362/235/60 359/236/59 360/233/59
f 364/237/61 361/238/60 362/235/60
f 366/239/62 363/240/61 364/237/61
f 368/241/63 365/242/62 366/239/62
f 370/243/64 367/244/63 368/241/63
f 372/245/65 369/246/64 370/243/64
f 374/247/66 371/248/65 372/245/65
f 376/249/67 373/250/66 374/247/66
f 378/251/68 375/252/67 376/249/67
f 380/253/69 377/254/68 378/251/68
f 382/255/70 379/256/69 380/253/69
f 384/257/71 381/258/70 382/255/70
f 386/259/72 383/260/71 384/257/71
f 388/261/73 385/262/72 386/259/72
f 390/263/74 387/264/73 388/261/73
f 392/265/75 389/266/74 390/263/74
f 394/267/76 391/268/75 392/265/75
f 396/269/77 393/270/76 394/267/76
f 398/271/78 395/272/77 396/269/77
f 400/273/79 397/274/78 398/271/78
f 402/275/80 399/276/79 400/273/79
f 404/277/81 401/278/80 402/275/80
f 406/279/82 403/280/81 404/277/81
f 408/281/83 405/282/82 406/279/82
f 410/283/84 407/284/83 408/281/83
f 412/285/85 409/286/84 410/283/84
f 414/287/86 411/288/85 412/285/85
f 416/289/87 413/290/86 414/287/86
f 418/291/88 415/292/87 416/289/87
f 420/293/89 417/294/88 418/291/88
f 422/295/90 419/296/89 420/293/89
f 424/297/91 421/298/90 422/295/90
f 426/299/92 423/300/91 424/297/91
f 428/301/93 425/302/92 426/299/92
f 430/303/94 427/304/93 428/301/93
f 432/305/95 429/306/94 430/303/94
f 434/307/96 431/308/95 432/305/95
f 436/309/97 433/310/96 434/307/96
f 438/311/98 435/312/97 436/309/97
f 440/313/99 437/314/98 438/311/98
f 442/315/100 439/316/99 440/313/99
f 444/317/101 441/318/100 442/315/100
f 250/319/4 443/320/101 444/317/101
f 448/321/102 445/113/103 446/126/103
f 450/322/104 447/323/102 448/321/102
f 452/324/105 449/325/104 450/322/104
f 454/326/106 451/327/105 452/324/105
f 456/328/107 453/329/106 454/326/106
f 458/330/108 455/331/107 456/328/107
f 460/332/109 457/333/108 458/330/108
f 462/334/110 459/335/109 460/332/109
f 464/336/111 461/337/110 462/334/110
f 466/338/112 463/339/111 464/336/111
f 468/340/113 465/341/112 466/338/112
f 470/342/114 467/343/113 468/340/113
f 472/221/115 469/344/114 470/342/114
f 474/345/116 471/224/115 472/221/115
f 476/346/117 473/347/116 474/345/116
f 478/348/118 475/349/117 476/346/117
f 480/350/119 477/351/118 478/348/118
f 482/352/120 479/353/119 480/350/119
f 484/354/121 481/355/120 482/352/120
f 486/356/122 483/357/121 484/354/121
f 488/358/123 485/359/122 486/356/122
f 490/360/124 487/361/123 488/358/123
f 492/362/125 489/363/124 490/360/124
f 494/364/126 491/365/125 492/362/125
f 496/366/127 493/367/126 494/364/126
f 446/319/103 495/368/128 496/366/127
f 252/125/3 251/128/3 249/113/4
f 254/127/5 253/130/5 251/128/3
f 256/129/6 255/132/6 253/130/5
f 258/131/7 257/134/7 255/132/6
f 260/133/8 259/136/8 257/134/7
f 262/135/9 261/138/9 259/136/8
f 264/137/10 263/140/10 261/138/9
f 266/139/11 265/142/11 263/140/10
f 268/141/12 267/144/12 265/142/11
f 270/143/13 269/146/13 267/144/12
f 272/145/14 271/148/14 269/146/13
f 274/147/15 273/150/15 271/148/14
f 276/149/16 275/152/16 273/150/15
f 278/151/17 277/154/17 275/152/16
f 280/153/18 279/156/18 277/154/17
f 282/155/19 281/158/19 279/156/18
f 284/157/20 283/160/20 281/158/19
f 286/159/21 285/162/21 283/160/20
f 288/161/22 287/164/22 285/162/21
f 290/163/23 289/166/23 287/164/22
f 292/165/24 291/168/24 289/166/23
f 294/167/25 293/170/25 291/168/24
f 296/169/26 295/172/28 293/170/25
f 298/171/27 297/174/27 295/172/28
f 300/173/29 299/176/29 297/174/27
f 302/175/30 301/178/30 299/176/29
f 304/177/31 303/180/31 301/178/30
f 306/179/32 305/182/32 303/180/31
f 308/181/33 307/184/33 305/182/32
f 310/183/34 309/186/34 307/184/33
f 312/185/35 311/188/35 309/186/34
f 314/187/36 313/190/36 311/188/35
f 316/189/37 315/192/37 313/190/36
f 318/191/38 317/194/38 315/192/37
f 320/193/39 319/196/39 317/194/38
f 322/195/40 321/198/40 319/196/39
f 324/197/41 323/200/41 321/198/40
f 326/199/42 325/202/42 323/200/41
f 328/201/43 327/204/43 325/202/42
f 330/203/44 329/206/44 327/204/43
f 332/205/45 331/208/45 329/206/44
f 334/207/46 333/210/46 331/208/45
f 336/209/47 335/212/47 333/210/46
f 338/211/48 337/214/48 335/212/47
f 340/213/49 339/216/49 337/214/48
f 342/215/50 341/218/50 339/216/49
f 344/217/51 343/220/51 341/218/50
f 346/219/52 345/222/52 343/220/51
f 348/221/53 347/224/53 345/222/52
f 350/223/54 349/226/54 347/224/53
f 352/225/55 351/228/55 349/226/54
f 354/227/56 353/230/56 351/228/55
f 356/229/57 355/232/57 353/230/56
f 358/231/58 357/234/58 355/232/57
f 360/233/59 359/236/59 357/234/58
f 362/235/60 361/238/60 359/236/59
f 364/237/61 363/240/61 361/238/60
f 366/239/62 365/242/62 363/240/61
f 368/241/63 367/244/63 365/242/62
f 370/243/64 369/246/64 367/244/63
f 372/245/65 371/248/65 369/246/64
f 374/247/66 373/250/66 371/248/65
f 376/249/67 375/252/67 373/250/66
f 378/251/68 377/254/68 375/252/67
f 380/253/69 379/256/69 377/254/68
f 382/255/70 381/258/70 379/256/69
f 384/257/71 383/260/71 381/258/70
f 386/259/72 385/262/72 383/260/71
f 388/261/73 387/264/73 385/262/72
f 390/263/74 389/266/74 387/264/73
f 392/265/75 391/268/75 389/266/74
f 394/267/76 393/270/76 391/268/75
f 396/269/77 395/272/77 393/270/76
f 398/271/78 397/274/78 395/272/77
f 400/273/79 399/276/79 397/274/78
f 402/275/80 401/278/80 399/276/79
f 404/277/81 403/280/81 401/278/80
f 406/279/82 405/282/82 403/280/81
f 408/281/83 407/284/83 405/282/82
f 410/283/84 409/286/84 407/284/83
f 412/285/85 411/288/85 409/286/84
f 414/287/86 413/290/86 411/288/85
f 416/289/87 415/292/87 413/290/86
f 418/291/88 417/294/88 415/292/87
f 420/293/89 419/296/89 417/294/88
f 422/295/90 421/298/90 419/296/89
f 424/297/91 423/300/91 421/298/90
f 426/299/92 425/302/92 423/300/91
f 428/301/93 427/304/93 425/302/92
f 430/303/94 429/306/94 427/304/93
f 432/305/95 431/308/95 429/306/94
f 434/307/96 433/310/96 431/308/95
f 436/309/97 435/312/97 433/310/96
f 438/311/98 437/314/98 435/312/97
f 440/313/99 439/316/99 437/314/98
f 442/315/100 441/318/100 439/316/99
f 444/317/101 443/320/101 441/318/100
f 250/319/4 249/56/4 443/320/101
f 448/321/102 447/323/102 445/113/103
f 450/322/104 449/325/104 447/323/102
f 452/324/105 451/327/105 449/325/104
f 454/326/106 453/329/106 451/327/105
f 456/328/107 455/331/107 453/329/106
f 458/330/108 457/333/108 455/331/107
f 460/332/109 459/335/109 457/333/108
f 462/334/110 461/337/110 459/335/109
f 464/336/111 463/339/111 461/337/110
f 466/338/112 465/341/112 463/339/111
f 468/340/113 467/343/113 465/341/112
f 470/342/114 469/344/114 467/343/113
f 472/221/115 471/224/115 469/344/114
f 474/345/116 473/347/116 471/224/115
f 476/346/117 475/349/117 473/347/116
f 478/348/118 477/351/118 475/349/117
f 480/350/119 479/353/119 477/351/118
f 482/352/120 481/355/120 479/353/119
f 484/354/121 483/357/121 481/355/120
f 486/356/122 485/359/122 483/357/121
f 488/358/123 487/361/123 485/359/122
f 490/360/124 489/363/124 487/361/123
f 492/362/125 491/365/125 489/363/124
f 494/364/126 493/367/126 491/365/125
f 496/366/127 495/368/128 493/367/126
f 446/319/103 445/56/103 495/368/128
