# Blender 4.1.1
# www.blender.org
mtllib i.mtl
o Text.007
v -0.831610 0.125722 -0.020000
v -0.824718 0.184343 -0.020000
v -0.817670 0.230293 -0.020000
v -0.808927 0.276465 -0.020000
v -0.798510 0.322463 -0.020000
v -0.786444 0.367892 -0.020000
v -0.772755 0.412356 -0.020000
v -0.757469 0.455458 -0.020000
v -0.740615 0.496801 -0.020000
v -0.722228 0.535987 -0.020000
v -0.702344 0.572619 -0.020000
v -0.681009 0.606299 -0.020000
v -0.649780 0.647968 -0.020000
v -0.747826 0.681907 -0.020000
v -0.774232 0.644580 -0.020000
v -0.795582 0.609611 -0.020000
v -0.815873 0.571669 -0.020000
v -0.834988 0.531220 -0.020000
v -0.852804 0.488733 -0.020000
v -0.869190 0.444679 -0.020000
v -0.884016 0.399531 -0.020000
v -0.897146 0.353759 -0.020000
v -0.908445 0.307838 -0.020000
v -0.917774 0.262238 -0.020000
v -0.924995 0.217428 -0.020000
v -0.930791 0.166634 -0.020000
v -0.224794 0.584593 -0.020000
v -0.224685 0.567303 -0.020000
v -0.224688 0.549097 -0.020000
v -0.224814 0.530101 -0.020000
v -0.225080 0.510442 -0.020000
v -0.225497 0.490245 -0.020000
v -0.226080 0.469636 -0.020000
v -0.226844 0.448743 -0.020000
v -0.227800 0.427690 -0.020000
v -0.228963 0.406604 -0.020000
v -0.230347 0.385613 -0.020000
v -0.231955 0.364962 -0.020000
v -0.236591 0.324804 -0.020000
v -0.242539 0.287218 -0.020000
v -0.249752 0.252405 -0.020000
v -0.258178 0.220571 -0.020000
v -0.267754 0.191930 -0.020000
v -0.278405 0.166698 -0.020000
v -0.290030 0.145093 -0.020000
v -0.302497 0.127319 -0.020000
v -0.315632 0.113539 -0.020000
v -0.329257 0.103804 -0.020000
v -0.343313 0.098024 -0.020000
v -0.357830 0.096109 -0.020000
v -0.367581 0.097730 -0.020000
v -0.377724 0.102676 -0.020000
v -0.388400 0.111155 -0.020000
v -0.399284 0.123008 -0.020000
v -0.410095 0.137885 -0.020000
v -0.420638 0.155376 -0.020000
v -0.430778 0.175067 -0.020000
v -0.440413 0.196553 -0.020000
v -0.449457 0.219432 -0.020000
v -0.457835 0.243312 -0.020000
v -0.465478 0.267804 -0.020000
v -0.477271 0.310396 -0.020000
v -0.556474 0.221136 -0.020000
v -0.539270 0.175105 -0.020000
v -0.524009 0.138963 -0.020000
v -0.508612 0.107043 -0.020000
v -0.493038 0.079146 -0.020000
v -0.477241 0.055079 -0.020000
v -0.461164 0.034660 -0.020000
v -0.444746 0.017720 -0.020000
v -0.427935 0.004122 -0.020000
v -0.410704 -0.006244 -0.020000
v -0.393081 -0.013471 -0.020000
v -0.375150 -0.017675 -0.020000
v -0.356950 -0.019031 -0.020000
v -0.331653 -0.016891 -0.020000
v -0.306691 -0.010277 -0.020000
v -0.282432 0.001035 -0.020000
v -0.259189 0.017210 -0.020000
v -0.237220 0.038390 -0.020000
v -0.216725 0.064725 -0.020000
v -0.197875 0.096399 -0.020000
v -0.180827 0.133626 -0.020000
v -0.165745 0.176643 -0.020000
v -0.152799 0.225700 -0.020000
v -0.142172 0.281052 -0.020000
v -0.134067 0.342835 -0.020000
v -0.131726 0.365491 -0.020000
v -0.129741 0.389203 -0.020000
v -0.128081 0.413653 -0.020000
v -0.126716 0.438505 -0.020000
v -0.125617 0.463423 -0.020000
v -0.124755 0.488065 -0.020000
v -0.124102 0.512090 -0.020000
v -0.123631 0.535158 -0.020000
v -0.123313 0.556926 -0.020000
v -0.123121 0.577051 -0.020000
v -0.123026 0.595190 -0.020000
v -0.123000 0.610973 -0.020000
v -0.122977 0.617048 -0.020000
v -0.122899 0.623753 -0.020000
v -0.122753 0.630984 -0.020000
v -0.122525 0.638608 -0.020000
v -0.122201 0.646495 -0.020000
v -0.121769 0.654511 -0.020000
v -0.121215 0.662523 -0.020000
v -0.120529 0.670392 -0.020000
v -0.119699 0.677981 -0.020000
v -0.118718 0.685142 -0.020000
v -0.117583 0.691721 -0.020000
v -0.113503 0.710260 -0.020000
v -0.234628 0.707762 -0.020000
v -0.231899 0.690111 -0.020000
v -0.230938 0.683016 -0.020000
v -0.229997 0.675235 -0.020000
v -0.229095 0.666935 -0.020000
v -0.228246 0.658277 -0.020000
v -0.227466 0.649420 -0.020000
v -0.226767 0.640522 -0.020000
v -0.226165 0.631740 -0.020000
v -0.225674 0.623235 -0.020000
v -0.225308 0.615166 -0.020000
v -0.225079 0.607700 -0.020000
v -0.224999 0.600878 -0.020000
v -0.831610 0.125722 0.020000
v -0.824718 0.184343 0.020000
v -0.817670 0.230293 0.020000
v -0.808927 0.276465 0.020000
v -0.798510 0.322463 0.020000
v -0.786444 0.367892 0.020000
v -0.772755 0.412356 0.020000
v -0.757469 0.455458 0.020000
v -0.740615 0.496801 0.020000
v -0.722228 0.535987 0.020000
v -0.702344 0.572619 0.020000
v -0.681009 0.606299 0.020000
v -0.649780 0.647968 0.020000
v -0.747826 0.681907 0.020000
v -0.774232 0.644580 0.020000
v -0.795582 0.609611 0.020000
v -0.815873 0.571669 0.020000
v -0.834988 0.531220 0.020000
v -0.852804 0.488733 0.020000
v -0.869190 0.444679 0.020000
v -0.884016 0.399531 0.020000
v -0.897146 0.353759 0.020000
v -0.908445 0.307838 0.020000
v -0.917774 0.262238 0.020000
v -0.924995 0.217428 0.020000
v -0.930791 0.166634 0.020000
v -0.224794 0.584593 0.020000
v -0.224685 0.567303 0.020000
v -0.224688 0.549097 0.020000
v -0.224814 0.530101 0.020000
v -0.225080 0.510442 0.020000
v -0.225497 0.490245 0.020000
v -0.226080 0.469636 0.020000
v -0.226844 0.448743 0.020000
v -0.227800 0.427690 0.020000
v -0.228963 0.406604 0.020000
v -0.230347 0.385613 0.020000
v -0.231955 0.364962 0.020000
v -0.236591 0.324804 0.020000
v -0.242539 0.287218 0.020000
v -0.249752 0.252405 0.020000
v -0.258178 0.220571 0.020000
v -0.267754 0.191930 0.020000
v -0.278405 0.166698 0.020000
v -0.290030 0.145093 0.020000
v -0.302497 0.127319 0.020000
v -0.315632 0.113539 0.020000
v -0.329257 0.103804 0.020000
v -0.343313 0.098024 0.020000
v -0.357830 0.096109 0.020000
v -0.367581 0.097730 0.020000
v -0.377724 0.102676 0.020000
v -0.388400 0.111155 0.020000
v -0.399284 0.123008 0.020000
v -0.410095 0.137885 0.020000
v -0.420638 0.155376 0.020000
v -0.430778 0.175067 0.020000
v -0.440413 0.196553 0.020000
v -0.449457 0.219432 0.020000
v -0.457835 0.243312 0.020000
v -0.465478 0.267804 0.020000
v -0.477271 0.310396 0.020000
v -0.556474 0.221136 0.020000
v -0.539270 0.175105 0.020000
v -0.524009 0.138963 0.020000
v -0.508612 0.107043 0.020000
v -0.493038 0.079146 0.020000
v -0.477241 0.055079 0.020000
v -0.461164 0.034660 0.020000
v -0.444746 0.017720 0.020000
v -0.427935 0.004122 0.020000
v -0.410704 -0.006244 0.020000
v -0.393081 -0.013471 0.020000
v -0.375150 -0.017675 0.020000
v -0.356950 -0.019031 0.020000
v -0.331653 -0.016891 0.020000
v -0.306691 -0.010277 0.020000
v -0.282432 0.001035 0.020000
v -0.259189 0.017210 0.020000
v -0.237220 0.038390 0.020000
v -0.216725 0.064725 0.020000
v -0.197875 0.096399 0.020000
v -0.180827 0.133626 0.020000
v -0.165745 0.176643 0.020000
v -0.152799 0.225700 0.020000
v -0.142172 0.281052 0.020000
v -0.134067 0.342835 0.020000
v -0.131726 0.365491 0.020000
v -0.129741 0.389203 0.020000
v -0.128081 0.413653 0.020000
v -0.126716 0.438505 0.020000
v -0.125617 0.463423 0.020000
v -0.124755 0.488065 0.020000
v -0.124102 0.512090 0.020000
v -0.123631 0.535158 0.020000
v -0.123313 0.556926 0.020000
v -0.123121 0.577051 0.020000
v -0.123026 0.595190 0.020000
v -0.123000 0.610973 0.020000
v -0.122977 0.617048 0.020000
v -0.122899 0.623753 0.020000
v -0.122753 0.630984 0.020000
v -0.122525 0.638608 0.020000
v -0.122201 0.646495 0.020000
v -0.121769 0.654511 0.020000
v -0.121215 0.662523 0.020000
v -0.120529 0.670392 0.020000
v -0.119699 0.677981 0.020000
v -0.118718 0.685142 0.020000
v -0.117583 0.691721 0.020000
v -0.113503 0.710260 0.020000
v -0.234628 0.707762 0.020000
v -0.231899 0.690111 0.020000
v -0.230938 0.683016 0.020000
v -0.229997 0.675235 0.020000
v -0.229095 0.666935 0.020000
v -0.228246 0.658277 0.020000
v -0.227466 0.649420 0.020000
v -0.226767 0.640522 0.020000
v -0.226165 0.631740 0.020000
v -0.225674 0.623235 0.020000
v -0.225308 0.615166 0.020000
v -0.225079 0.607700 0.020000
v -0.224999 0.600878 0.020000
v -0.224794 0.584593 0.020000
v -0.224794 0.584593 -0.020000
v -0.224685 0.567303 0.020000
v -0.224685 0.567303 -0.020000
v -0.224688 0.549097 0.020000
v -0.224688 0.549097 -0.020000
v -0.224814 0.530101 0.020000
v -0.224814 0.530101 -0.020000
v -0.225080 0.510442 0.020000
v -0.225080 0.510442 -0.020000
v -0.225497 0.490245 0.020000
v -0.225497 0.490245 -0.020000
v -0.226080 0.469636 0.020000
v -0.226080 0.469636 -0.020000
v -0.226844 0.448743 0.020000
v -0.226844 0.448743 -0.020000
v -0.227800 0.427690 0.020000
v -0.227800 0.427690 -0.020000
v -0.228963 0.406604 0.020000
v -0.228963 0.406604 -0.020000
v -0.230347 0.385613 0.020000
v -0.230347 0.385613 -0.020000
v -0.231955 0.364962 0.020000
v -0.231955 0.364962 -0.020000
v -0.236591 0.324804 0.020000
v -0.236591 0.324804 -0.020000
v -0.242539 0.287218 0.020000
v -0.242539 0.287218 -0.020000
v -0.249752 0.252405 0.020000
v -0.249752 0.252405 -0.020000
v -0.258178 0.220571 0.020000
v -0.258178 0.220571 -0.020000
v -0.267754 0.191930 0.020000
v -0.267754 0.191930 -0.020000
v -0.278405 0.166698 0.020000
v -0.278405 0.166698 -0.020000
v -0.290030 0.145093 0.020000
v -0.290030 0.145093 -0.020000
v -0.302497 0.127319 0.020000
v -0.302497 0.127319 -0.020000
v -0.315632 0.113539 0.020000
v -0.315632 0.113539 -0.020000
v -0.329257 0.103804 0.020000
v -0.329257 0.103804 -0.020000
v -0.343313 0.098024 0.020000
v -0.343313 0.098024 -0.020000
v -0.357830 0.096109 0.020000
v -0.357830 0.096109 -0.020000
v -0.367581 0.097730 0.020000
v -0.367581 0.097730 -0.020000
v -0.377724 0.102676 0.020000
v -0.377724 0.102676 -0.020000
v -0.388400 0.111155 0.020000
v -0.388400 0.111155 -0.020000
v -0.399284 0.123008 0.020000
v -0.399284 0.123008 -0.020000
v -0.410095 0.137885 0.020000
v -0.410095 0.137885 -0.020000
v -0.420638 0.155376 0.020000
v -0.420638 0.155376 -0.020000
v -0.430778 0.175067 0.020000
v -0.430778 0.175067 -0.020000
v -0.440413 0.196553 0.020000
v -0.440413 0.196553 -0.020000
v -0.449457 0.219432 0.020000
v -0.449457 0.219432 -0.020000
v -0.457835 0.243312 0.020000
v -0.457835 0.243312 -0.020000
v -0.465478 0.267804 0.020000
v -0.465478 0.267804 -0.020000
v -0.477271 0.310396 0.020000
v -0.477271 0.310396 -0.020000
v -0.556474 0.221136 0.020000
v -0.556474 0.221136 -0.020000
v -0.539270 0.175105 0.020000
v -0.539270 0.175105 -0.020000
v -0.524009 0.138963 0.020000
v -0.524009 0.138963 -0.020000
v -0.508612 0.107043 0.020000
v -0.508612 0.107043 -0.020000
v -0.493038 0.079146 0.020000
v -0.493038 0.079146 -0.020000
v -0.477241 0.055079 0.020000
v -0.477241 0.055079 -0.020000
v -0.461164 0.034660 0.020000
v -0.461164 0.034660 -0.020000
v -0.444746 0.017720 0.020000
v -0.444746 0.017720 -0.020000
v -0.427935 0.004122 0.020000
v -0.427935 0.004122 -0.020000
v -0.410704 -0.006244 0.020000
v -0.410704 -0.006244 -0.020000
v -0.393081 -0.013471 0.020000
v -0.393081 -0.013471 -0.020000
v -0.375150 -0.017675 0.020000
v -0.375150 -0.017675 -0.020000
v -0.356950 -0.019031 0.020000
v -0.356950 -0.019031 -0.020000
v -0.331653 -0.016891 0.020000
v -0.331653 -0.016891 -0.020000
v -0.306691 -0.010277 0.020000
v -0.306691 -0.010277 -0.020000
v -0.282432 0.001035 0.020000
v -0.282432 0.001035 -0.020000
v -0.259189 0.017210 0.020000
v -0.259189 0.017210 -0.020000
v -0.237220 0.038390 0.020000
v -0.237220 0.038390 -0.020000
v -0.216725 0.064725 0.020000
v -0.216725 0.064725 -0.020000
v -0.197875 0.096399 0.020000
v -0.197875 0.096399 -0.020000
v -0.180827 0.133626 0.020000
v -0.180827 0.133626 -0.020000
v -0.165745 0.176643 0.020000
v -0.165745 0.176643 -0.020000
v -0.152799 0.225700 0.020000
v -0.152799 0.225700 -0.020000
v -0.142172 0.281052 0.020000
v -0.142172 0.281052 -0.020000
v -0.134067 0.342835 0.020000
v -0.134067 0.342835 -0.020000
v -0.131726 0.365491 0.020000
v -0.131726 0.365491 -0.020000
v -0.129741 0.389203 0.020000
v -0.129741 0.389203 -0.020000
v -0.128081 0.413653 0.020000
v -0.128081 0.413653 -0.020000
v -0.126716 0.438505 0.020000
v -0.126716 0.438505 -0.020000
v -0.125617 0.463423 0.020000
v -0.125617 0.463423 -0.020000
v -0.124755 0.488065 0.020000
v -0.124755 0.488065 -0.020000
v -0.124102 0.512090 0.020000
v -0.124102 0.512090 -0.020000
v -0.123631 0.535158 0.020000
v -0.123631 0.535158 -0.020000
v -0.123313 0.556926 0.020000
v -0.123313 0.556926 -0.020000
v -0.123121 0.577051 0.020000
v -0.123121 0.577051 -0.020000
v -0.123026 0.595190 0.020000
v -0.123026 0.595190 -0.020000
v -0.123000 0.610973 0.020000
v -0.123000 0.610973 -0.020000
v -0.122977 0.617048 0.020000
v -0.122977 0.617048 -0.020000
v -0.122899 0.623753 0.020000
v -0.122899 0.623753 -0.020000
v -0.122753 0.630984 0.020000
v -0.122753 0.630984 -0.020000
v -0.122525 0.638608 0.020000
v -0.122525 0.638608 -0.020000
v -0.122201 0.646495 0.020000
v -0.122201 0.646495 -0.020000
v -0.121769 0.654511 0.020000
v -0.121769 0.654511 -0.020000
v -0.121215 0.662523 0.020000
v -0.121215 0.662523 -0.020000
v -0.120529 0.670392 0.020000
v -0.120529 0.670392 -0.020000
v -0.119699 0.677981 0.020000
v -0.119699 0.677981 -0.020000
v -0.118718 0.685142 0.020000
v -0.118718 0.685142 -0.020000
v -0.117583 0.691721 0.020000
v -0.117583 0.691721 -0.020000
v -0.113503 0.710260 0.020000
v -0.113503 0.710260 -0.020000
v -0.234628 0.707762 0.020000
v -0.234628 0.707762 -0.020000
v -0.231899 0.690111 0.020000
v -0.231899 0.690111 -0.020000
v -0.230938 0.683016 0.020000
v -0.230938 0.683016 -0.020000
v -0.229997 0.675235 0.020000
v -0.229997 0.675235 -0.020000
v -0.229095 0.666935 0.020000
v -0.229095 0.666935 -0.020000
v -0.228246 0.658277 0.020000
v -0.228246 0.658277 -0.020000
v -0.227466 0.649420 0.020000
v -0.227466 0.649420 -0.020000
v -0.226767 0.640522 0.020000
v -0.226767 0.640522 -0.020000
v -0.226165 0.631740 0.020000
v -0.226165 0.631740 -0.020000
v -0.225674 0.623235 0.020000
v -0.225674 0.623235 -0.020000
v -0.225308 0.615166 0.020000
v -0.225308 0.615166 -0.020000
v -0.225079 0.607700 0.020000
v -0.225079 0.607700 -0.020000
v -0.224999 0.600878 0.020000
v -0.224999 0.600878 -0.020000
v -0.831610 0.125722 0.020000
v -0.831610 0.125722 -0.020000
v -0.824718 0.184343 0.020000
v -0.824718 0.184343 -0.020000
v -0.817670 0.230293 0.020000
v -0.817670 0.230293 -0.020000
v -0.808927 0.276465 0.020000
v -0.808927 0.276465 -0.020000
v -0.798510 0.322463 0.020000
v -0.798510 0.322463 -0.020000
v -0.786444 0.367892 0.020000
v -0.786444 0.367892 -0.020000
v -0.772755 0.412356 0.020000
v -0.772755 0.412356 -0.020000
v -0.757469 0.455458 0.020000
v -0.757469 0.455458 -0.020000
v -0.740615 0.496801 0.020000
v -0.740615 0.496801 -0.020000
v -0.722228 0.535987 0.020000
v -0.722228 0.535987 -0.020000
v -0.702344 0.572619 0.020000
v -0.702344 0.572619 -0.020000
v -0.681009 0.606299 0.020000
v -0.681009 0.606299 -0.020000
v -0.649780 0.647968 0.020000
v -0.649780 0.647968 -0.020000
v -0.747826 0.681907 0.020000
v -0.747826 0.681907 -0.020000
v -0.774232 0.644580 0.020000
v -0.774232 0.644580 -0.020000
v -0.795582 0.609611 0.020000
v -0.795582 0.609611 -0.020000
v -0.815873 0.571669 0.020000
v -0.815873 0.571669 -0.020000
v -0.834988 0.531220 0.020000
v -0.834988 0.531220 -0.020000
v -0.852804 0.488733 0.020000
v -0.852804 0.488733 -0.020000
v -0.869190 0.444679 0.020000
v -0.869190 0.444679 -0.020000
v -0.884016 0.399531 0.020000
v -0.884016 0.399531 -0.020000
v -0.897146 0.353759 0.020000
v -0.897146 0.353759 -0.020000
v -0.908445 0.307838 0.020000
v -0.908445 0.307838 -0.020000
v -0.917774 0.262238 0.020000
v -0.917774 0.262238 -0.020000
v -0.924995 0.217428 0.020000
v -0.924995 0.217428 -0.020000
v -0.930791 0.166634 0.020000
v -0.930791 0.166634 -0.020000
vn -0.0000 -0.0000 -1.0000
vn -0.0000 -0.0000 1.0000
vn -1.0000 -0.0031 -0.0000
vn -1.0000 -0.0094 -0.0000
vn -1.0000 0.0034 -0.0000
vn -0.9999 0.0101 -0.0000
vn -0.9999 0.0171 -0.0000
vn -0.9997 0.0245 -0.0000
vn -0.9995 0.0324 -0.0000
vn -0.9992 0.0409 -0.0000
vn -0.9987 0.0502 -0.0000
vn -0.9982 0.0604 -0.0000
vn -0.9974 0.0717 -0.0000
vn -0.9954 0.0962 -0.0000
vn -0.9908 0.1355 -0.0000
vn -0.9837 0.1796 -0.0000
vn -0.9733 0.2295 -0.0000
vn -0.9580 0.2866 -0.0000
vn -0.9355 0.3532 -0.0000
vn -0.9020 0.4318 -0.0000
vn -0.8511 0.5250 -0.0000
vn -0.9019 0.4318 -0.0000
vn -0.7734 0.6339 -0.0000
vn -0.6555 0.7552 -0.0000
vn -0.4840 0.8751 -0.0000
vn -0.2577 0.9662 -0.0000
vn 0.0168 0.9999 -0.0000
vn 0.3043 0.9526 -0.0000
vn 0.5333 0.8459 -0.0000
vn 0.6813 0.7320 -0.0000
vn 0.5333 0.8460 -0.0000
vn 0.7740 0.6331 -0.0000
vn 0.8335 0.5526 -0.0000
vn 0.8732 0.4873 -0.0000
vn 0.9011 0.4337 -0.0000
vn 0.9215 0.3885 -0.0000
vn 0.9370 0.3494 -0.0000
vn 0.9492 0.3145 -0.0000
vn 0.9593 0.2824 -0.0000
vn 0.2259 0.9741 -0.0000
vn -0.9831 0.1830 -0.0000
vn -0.9292 -0.3696 -0.0000
vn -0.9112 -0.4119 -0.0000
vn -0.8873 -0.4612 -0.0000
vn -0.8551 -0.5184 -0.0000
vn -0.8116 -0.5842 -0.0000
vn -0.7529 -0.6582 -0.0000
vn -0.6747 -0.7381 -0.0000
vn -0.5736 -0.8192 -0.0000
vn -0.4488 -0.8936 -0.0000
vn -0.3048 -0.9524 -0.0000
vn -0.1518 -0.9884 -0.0000
vn 0.0050 -1.0000 -0.0000
vn 0.1709 -0.9853 -0.0000
vn 0.3407 -0.9402 -0.0000
vn 0.4987 -0.8667 -0.0000
vn 0.6346 -0.7728 -0.0000
vn 0.4988 -0.8667 -0.0000
vn 0.7435 -0.6687 -0.0000
vn 0.8259 -0.5639 -0.0000
vn 0.8855 -0.4646 -0.0000
vn 0.9274 -0.3740 -0.0000
vn 0.9560 -0.2932 -0.0000
vn 0.9751 -0.2220 -0.0000
vn 0.9872 -0.1594 -0.0000
vn 0.9932 -0.1164 -0.0000
vn 0.9957 -0.0931 -0.0000
vn 0.9971 -0.0756 -0.0000
vn 0.9981 -0.0613 -0.0000
vn 0.9988 -0.0495 -0.0000
vn 0.9992 -0.0395 -0.0000
vn 0.9995 -0.0310 -0.0000
vn 0.9997 -0.0238 -0.0000
vn 0.9998 -0.0175 -0.0000
vn 0.9999 -0.0121 -0.0000
vn 1.0000 -0.0074 -0.0000
vn 1.0000 -0.0034 -0.0000
vn 1.0000 -0.0027 -0.0000
vn 1.0000 -0.0077 -0.0000
vn 0.9999 -0.0159 -0.0000
vn 0.9997 -0.0251 -0.0000
vn 0.9994 -0.0355 -0.0000
vn 0.9989 -0.0474 -0.0000
vn 0.9981 -0.0614 -0.0000
vn 0.9970 -0.0779 -0.0000
vn 0.9952 -0.0978 -0.0000
vn 0.9925 -0.1222 -0.0000
vn 0.9882 -0.1529 -0.0000
vn 0.9813 -0.1925 -0.0000
vn 0.7729 0.6346 -0.0000
vn -0.7659 0.6430 -0.0000
vn 0.7729 0.6345 -0.0000
vn -0.9896 -0.1435 -0.0000
vn -0.9919 -0.1271 -0.0000
vn -0.9935 -0.1140 -0.0000
vn -0.9947 -0.1028 -0.0000
vn -0.9957 -0.0927 -0.0000
vn -0.9965 -0.0830 -0.0000
vn -0.9973 -0.0733 -0.0000
vn -0.9980 -0.0630 -0.0000
vn -0.9987 -0.0515 -0.0000
vn -0.9993 -0.0380 -0.0000
vn -0.9998 -0.0212 -0.0000
vn -0.9999 -0.0122 -0.0000
vn 0.9910 -0.1342 -0.0000
vn 0.5066 -0.8622 -0.0000
vn 0.9856 -0.1689 -0.0000
vn 0.9791 -0.2035 -0.0000
vn 0.9711 -0.2388 -0.0000
vn 0.9613 -0.2755 -0.0000
vn 0.9493 -0.3143 -0.0000
vn 0.9345 -0.3560 -0.0000
vn 0.9160 -0.4013 -0.0000
vn 0.8925 -0.4511 -0.0000
vn 0.8623 -0.5064 -0.0000
vn 0.8231 -0.5679 -0.0000
vn 0.9562 0.2928 -0.0000
vn -0.3060 0.9520 -0.0000
vn -0.8354 0.5496 -0.0000
vn -0.8680 0.4965 -0.0000
vn -0.8932 0.4496 -0.0000
vn -0.9134 0.4071 -0.0000
vn -0.9299 0.3677 -0.0000
vn -0.9439 0.3304 -0.0000
vn -0.9558 0.2939 -0.0000
vn -0.9663 0.2574 -0.0000
vn -0.9756 0.2197 -0.0000
vn -0.9837 0.1798 -0.0000
vn -0.9907 0.1363 -0.0000
vn -0.8613 -0.5081 -0.0000
vt 0.955260 0.916422
vt 0.955882 0.916422
vt 0.955571 0.916422
vt 0.956194 0.916422
vt 0.954949 0.916422
vt 0.956505 0.916422
vt 0.954638 0.916422
vt 0.956816 0.916422
vt 0.954327 0.916422
vt 0.957127 0.916422
vt 0.954015 0.916422
vt 0.957438 0.916422
vt 0.953704 0.916422
vt 0.957749 0.916422
vt 0.953393 0.916422
vt 0.958061 0.916422
vt 0.953082 0.916422
vt 0.958372 0.916422
vt 0.952771 0.916422
vt 0.958683 0.916422
vt 0.952460 0.916422
vt 0.952149 0.916422
vt 0.958994 0.916422
vt 0.951837 0.916422
vt 0.959305 0.916422
vt 0.951526 0.916422
vt 0.959616 0.916422
vt 0.929434 0.916422
vt 0.951215 0.916422
vt 0.929745 0.916422
vt 0.950904 0.916422
vt 0.930056 0.916422
vt 0.950593 0.916422
vt 0.930368 0.916422
vt 0.950282 0.916422
vt 0.930679 0.916422
vt 0.949970 0.916422
vt 0.930990 0.916422
vt 0.931301 0.916422
vt 0.949659 0.916422
vt 0.931612 0.916422
vt 0.949348 0.916422
vt 0.931923 0.916422
vt 0.949037 0.916422
vt 0.932235 0.916422
vt 0.948726 0.916422
vt 0.932546 0.916422
vt 0.948415 0.916422
vt 0.932857 0.916422
vt 0.948103 0.916422
vt 0.933168 0.916422
vt 0.947792 0.916422
vt 0.933479 0.916422
vt 0.940013 0.916422
vt 0.940636 0.916422
vt 0.940325 0.916422
vt 0.933790 0.916422
vt 0.947481 0.916422
vt 0.939702 0.916422
vt 0.934101 0.916422
vt 0.939391 0.916422
vt 0.947170 0.916422
vt 0.940947 0.916422
vt 0.934413 0.916422
vt 0.939080 0.916422
vt 0.938769 0.916422
vt 0.934724 0.916422
vt 0.946859 0.916422
vt 0.941258 0.916422
vt 0.938458 0.916422
vt 0.935035 0.916422
vt 0.938146 0.916422
vt 0.935346 0.916422
vt 0.941569 0.916422
vt 0.937835 0.916422
vt 0.946548 0.916422
vt 0.935657 0.916422
vt 0.937524 0.916422
vt 0.935968 0.916422
vt 0.937213 0.916422
vt 0.941880 0.916422
vt 0.936280 0.916422
vt 0.936902 0.916422
vt 0.936591 0.916422
vt 0.946236 0.916422
vt 0.942191 0.916422
vt 0.945925 0.916422
vt 0.942503 0.916422
vt 0.945614 0.916422
vt 0.942814 0.916422
vt 0.943125 0.916422
vt 0.945303 0.916422
vt 0.943436 0.916422
vt 0.944992 0.916422
vt 0.943747 0.916422
vt 0.944681 0.916422
vt 0.944058 0.916422
vt 0.944370 0.916422
vt 0.925078 0.916422
vt 0.925700 0.916422
vt 0.925389 0.916422
vt 0.924767 0.916422
vt 0.926011 0.916422
vt 0.926322 0.916422
vt 0.924456 0.916422
vt 0.924144 0.916422
vt 0.926634 0.916422
vt 0.923833 0.916422
vt 0.926945 0.916422
vt 0.923522 0.916422
vt 0.927256 0.916422
vt 0.923211 0.916422
vt 0.927567 0.916422
vt 0.922900 0.916422
vt 0.927878 0.916422
vt 0.922589 0.916422
vt 0.928190 0.916422
vt 0.922277 0.916422
vt 0.928501 0.916422
vt 0.921966 0.916422
vt 0.928812 0.916422
vt 0.921655 0.916422
vt 0.929123 0.916422
vt 0.921344 0.916422
vt 0.921735 0.954695
vt 0.921344 0.954695
vt 0.922125 0.954695
vt 0.921735 0.916422
vt 0.922516 0.954695
vt 0.922125 0.916422
vt 0.922906 0.954695
vt 0.922516 0.916422
vt 0.923297 0.954695
vt 0.922906 0.916422
vt 0.923687 0.954695
vt 0.923297 0.916422
vt 0.924078 0.954695
vt 0.923687 0.916422
vt 0.924468 0.954695
vt 0.924078 0.916422
vt 0.924859 0.954695
vt 0.924468 0.916422
vt 0.925249 0.954695
vt 0.924859 0.916422
vt 0.925640 0.954695
vt 0.925249 0.916422
vt 0.926030 0.954695
vt 0.925640 0.916422
vt 0.926421 0.954695
vt 0.926030 0.916422
vt 0.926811 0.954695
vt 0.926421 0.916422
vt 0.927202 0.954695
vt 0.926811 0.916422
vt 0.927593 0.954695
vt 0.927202 0.916422
vt 0.927983 0.954695
vt 0.927593 0.916422
vt 0.928374 0.954695
vt 0.927983 0.916422
vt 0.928764 0.954695
vt 0.928374 0.916422
vt 0.929155 0.954695
vt 0.928764 0.916422
vt 0.929545 0.954695
vt 0.929155 0.916422
vt 0.929936 0.954695
vt 0.929545 0.916422
vt 0.930326 0.954695
vt 0.929936 0.916422
vt 0.930717 0.954695
vt 0.930326 0.916422
vt 0.931107 0.954695
vt 0.930717 0.916422
vt 0.931498 0.954695
vt 0.931107 0.916422
vt 0.931888 0.954695
vt 0.931498 0.916422
vt 0.932279 0.954695
vt 0.931888 0.916422
vt 0.932669 0.954695
vt 0.932279 0.916422
vt 0.933060 0.954695
vt 0.932669 0.916422
vt 0.933451 0.954695
vt 0.933060 0.916422
vt 0.933841 0.954695
vt 0.933451 0.916422
vt 0.934232 0.954695
vt 0.933841 0.916422
vt 0.934622 0.954695
vt 0.934232 0.916422
vt 0.935013 0.954695
vt 0.934622 0.916422
vt 0.935403 0.954695
vt 0.935013 0.916422
vt 0.935794 0.954695
vt 0.935403 0.916422
vt 0.936184 0.954695
vt 0.935794 0.916422
vt 0.936575 0.954695
vt 0.936184 0.916422
vt 0.936965 0.954695
vt 0.936575 0.916422
vt 0.937356 0.954695
vt 0.936965 0.916422
vt 0.937746 0.954695
vt 0.937356 0.916422
vt 0.938137 0.954695
vt 0.937746 0.916422
vt 0.938527 0.954695
vt 0.938137 0.916422
vt 0.938918 0.954695
vt 0.938527 0.916422
vt 0.939309 0.954695
vt 0.938918 0.916422
vt 0.939699 0.954695
vt 0.939309 0.916422
vt 0.940090 0.954695
vt 0.939699 0.916422
vt 0.940480 0.954695
vt 0.940090 0.916422
vt 0.940871 0.954695
vt 0.940480 0.916422
vt 0.941261 0.954695
vt 0.940871 0.916422
vt 0.941652 0.954695
vt 0.941261 0.916422
vt 0.942042 0.954695
vt 0.941652 0.916422
vt 0.942433 0.954695
vt 0.942042 0.916422
vt 0.942823 0.954695
vt 0.942433 0.916422
vt 0.943214 0.954695
vt 0.942823 0.916422
vt 0.943604 0.954695
vt 0.943214 0.916422
vt 0.943995 0.954695
vt 0.943604 0.916422
vt 0.944386 0.954695
vt 0.943995 0.916422
vt 0.944776 0.954695
vt 0.944386 0.916422
vt 0.945167 0.954695
vt 0.944776 0.916422
vt 0.945557 0.954695
vt 0.945167 0.916422
vt 0.945948 0.954695
vt 0.945557 0.916422
vt 0.946338 0.954695
vt 0.945948 0.916422
vt 0.946729 0.954695
vt 0.946338 0.916422
vt 0.947119 0.954695
vt 0.946729 0.916422
vt 0.947510 0.954695
vt 0.947119 0.916422
vt 0.947900 0.954695
vt 0.947510 0.916422
vt 0.948291 0.954695
vt 0.947900 0.916422
vt 0.948681 0.954695
vt 0.948291 0.916422
vt 0.949072 0.954695
vt 0.948681 0.916422
vt 0.949462 0.954695
vt 0.949072 0.916422
vt 0.949853 0.954695
vt 0.949462 0.916422
vt 0.950243 0.954695
vt 0.949853 0.916422
vt 0.950634 0.954695
vt 0.950243 0.916422
vt 0.951025 0.954695
vt 0.950634 0.916422
vt 0.951415 0.954695
vt 0.951025 0.916422
vt 0.951806 0.954695
vt 0.951415 0.916422
vt 0.952196 0.954695
vt 0.951806 0.916422
vt 0.952587 0.954695
vt 0.952196 0.916422
vt 0.952977 0.954695
vt 0.952587 0.916422
vt 0.953368 0.954695
vt 0.952977 0.916422
vt 0.953758 0.954695
vt 0.953368 0.916422
vt 0.954149 0.954695
vt 0.953758 0.916422
vt 0.954539 0.954695
vt 0.954149 0.916422
vt 0.954930 0.954695
vt 0.954539 0.916422
vt 0.955320 0.954695
vt 0.954930 0.916422
vt 0.955711 0.954695
vt 0.955320 0.916422
vt 0.956102 0.954695
vt 0.955711 0.916422
vt 0.956492 0.954695
vt 0.956102 0.916422
vt 0.956883 0.954695
vt 0.956492 0.916422
vt 0.957273 0.954695
vt 0.956883 0.916422
vt 0.957664 0.954695
vt 0.957273 0.916422
vt 0.958054 0.954695
vt 0.957664 0.916422
vt 0.958445 0.954695
vt 0.958054 0.916422
vt 0.958835 0.954695
vt 0.958445 0.916422
vt 0.959226 0.954695
vt 0.958835 0.916422
vt 0.959616 0.954695
vt 0.959226 0.916422
vt 0.922816 0.954695
vt 0.924288 0.954695
vt 0.922816 0.916422
vt 0.925760 0.954695
vt 0.924288 0.916422
vt 0.927232 0.954695
vt 0.925760 0.916422
vt 0.928704 0.954695
vt 0.927232 0.916422
vt 0.930176 0.954695
vt 0.928704 0.916422
vt 0.931648 0.954695
vt 0.930176 0.916422
vt 0.933120 0.954695
vt 0.931648 0.916422
vt 0.934592 0.954695
vt 0.933120 0.916422
vt 0.936064 0.954695
vt 0.934592 0.916422
vt 0.937536 0.954695
vt 0.936064 0.916422
vt 0.939008 0.954695
vt 0.937536 0.916422
vt 0.939008 0.916422
vt 0.941952 0.954695
vt 0.943424 0.954695
vt 0.941952 0.916422
vt 0.944896 0.954695
vt 0.943424 0.916422
vt 0.946368 0.954695
vt 0.944896 0.916422
vt 0.947840 0.954695
vt 0.946368 0.916422
vt 0.949312 0.954695
vt 0.947840 0.916422
vt 0.950784 0.954695
vt 0.949312 0.916422
vt 0.952256 0.954695
vt 0.950784 0.916422
vt 0.953728 0.954695
vt 0.952256 0.916422
vt 0.955200 0.954695
vt 0.953728 0.916422
vt 0.956672 0.954695
vt 0.955200 0.916422
vt 0.958144 0.954695
vt 0.956672 0.916422
vt 0.958144 0.916422
s 0
usemtl Material
f 110/1/1 112/2/1 111/3/1
f 110/1/1 113/4/1 112/2/1
f 109/5/1 113/4/1 110/1/1
f 109/5/1 114/6/1 113/4/1
f 108/7/1 114/6/1 109/5/1
f 108/7/1 115/8/1 114/6/1
f 107/9/1 115/8/1 108/7/1
f 107/9/1 116/10/1 115/8/1
f 106/11/1 116/10/1 107/9/1
f 106/11/1 117/12/1 116/10/1
f 105/13/1 117/12/1 106/11/1
f 105/13/1 118/14/1 117/12/1
f 104/15/1 118/14/1 105/13/1
f 104/15/1 119/16/1 118/14/1
f 103/17/1 119/16/1 104/15/1
f 103/17/1 120/18/1 119/16/1
f 102/19/1 120/18/1 103/17/1
f 102/19/1 121/20/1 120/18/1
f 101/21/1 121/20/1 102/19/1
f 100/22/1 121/20/1 101/21/1
f 100/22/1 122/23/1 121/20/1
f 99/24/1 122/23/1 100/22/1
f 99/24/1 123/25/1 122/23/1
f 98/26/1 123/25/1 99/24/1
f 98/26/1 124/27/1 123/25/1
f 98/26/1 27/28/1 124/27/1
f 97/29/1 27/28/1 98/26/1
f 97/29/1 28/30/1 27/28/1
f 96/31/1 28/30/1 97/29/1
f 96/31/1 29/32/1 28/30/1
f 95/33/1 29/32/1 96/31/1
f 95/33/1 30/34/1 29/32/1
f 94/35/1 30/34/1 95/33/1
f 94/35/1 31/36/1 30/34/1
f 93/37/1 31/36/1 94/35/1
f 93/37/1 32/38/1 31/36/1
f 93/37/1 33/39/1 32/38/1
f 92/40/1 33/39/1 93/37/1
f 92/40/1 34/41/1 33/39/1
f 91/42/1 34/41/1 92/40/1
f 91/42/1 35/43/1 34/41/1
f 90/44/1 35/43/1 91/42/1
f 90/44/1 36/45/1 35/43/1
f 89/46/1 36/45/1 90/44/1
f 89/46/1 37/47/1 36/45/1
f 88/48/1 37/47/1 89/46/1
f 88/48/1 38/49/1 37/47/1
f 87/50/1 38/49/1 88/48/1
f 87/50/1 39/51/1 38/49/1
f 86/52/1 39/51/1 87/50/1
f 86/52/1 40/53/1 39/51/1
f 61/54/1 63/55/1 62/56/1
f 86/52/1 41/57/1 40/53/1
f 85/58/1 41/57/1 86/52/1
f 60/59/1 63/55/1 61/54/1
f 85/58/1 42/60/1 41/57/1
f 59/61/1 63/55/1 60/59/1
f 84/62/1 42/60/1 85/58/1
f 59/61/1 64/63/1 63/55/1
f 84/62/1 43/64/1 42/60/1
f 58/65/1 64/63/1 59/61/1
f 57/66/1 64/63/1 58/65/1
f 84/62/1 44/67/1 43/64/1
f 83/68/1 44/67/1 84/62/1
f 57/66/1 65/69/1 64/63/1
f 56/70/1 65/69/1 57/66/1
f 83/68/1 45/71/1 44/67/1
f 55/72/1 65/69/1 56/70/1
f 83/68/1 46/73/1 45/71/1
f 55/72/1 66/74/1 65/69/1
f 54/75/1 66/74/1 55/72/1
f 82/76/1 46/73/1 83/68/1
f 82/76/1 47/77/1 46/73/1
f 53/78/1 66/74/1 54/75/1
f 82/76/1 48/79/1 47/77/1
f 52/80/1 66/74/1 53/78/1
f 52/80/1 67/81/1 66/74/1
f 82/76/1 49/82/1 48/79/1
f 51/83/1 67/81/1 52/80/1
f 82/76/1 50/84/1 49/82/1
f 50/84/1 67/81/1 51/83/1
f 81/85/1 50/84/1 82/76/1
f 81/85/1 67/81/1 50/84/1
f 81/85/1 68/86/1 67/81/1
f 80/87/1 68/86/1 81/85/1
f 80/87/1 69/88/1 68/86/1
f 79/89/1 69/88/1 80/87/1
f 79/89/1 70/90/1 69/88/1
f 79/89/1 71/91/1 70/90/1
f 78/92/1 71/91/1 79/89/1
f 78/92/1 72/93/1 71/91/1
f 77/94/1 72/93/1 78/92/1
f 77/94/1 73/95/1 72/93/1
f 76/96/1 73/95/1 77/94/1
f 76/96/1 74/97/1 73/95/1
f 75/98/1 74/97/1 76/96/1
f 13/99/1 15/100/1 14/101/1
f 12/102/1 15/100/1 13/99/1
f 12/102/1 16/103/1 15/100/1
f 12/102/1 17/104/1 16/103/1
f 11/105/1 17/104/1 12/102/1
f 10/106/1 17/104/1 11/105/1
f 10/106/1 18/107/1 17/104/1
f 9/108/1 18/107/1 10/106/1
f 9/108/1 19/109/1 18/107/1
f 8/110/1 19/109/1 9/108/1
f 8/110/1 20/111/1 19/109/1
f 7/112/1 20/111/1 8/110/1
f 7/112/1 21/113/1 20/111/1
f 6/114/1 21/113/1 7/112/1
f 6/114/1 22/115/1 21/113/1
f 5/116/1 22/115/1 6/114/1
f 5/116/1 23/117/1 22/115/1
f 4/118/1 23/117/1 5/116/1
f 4/118/1 24/119/1 23/117/1
f 3/120/1 24/119/1 4/118/1
f 3/120/1 25/121/1 24/119/1
f 2/122/1 25/121/1 3/120/1
f 2/122/1 26/123/1 25/121/1
f 1/124/1 26/123/1 2/122/1
f 234/1/2 235/3/2 236/2/2
f 234/1/2 236/2/2 237/4/2
f 233/5/2 234/1/2 237/4/2
f 233/5/2 237/4/2 238/6/2
f 232/7/2 233/5/2 238/6/2
f 232/7/2 238/6/2 239/8/2
f 231/9/2 232/7/2 239/8/2
f 231/9/2 239/8/2 240/10/2
f 230/11/2 231/9/2 240/10/2
f 230/11/2 240/10/2 241/12/2
f 229/13/2 230/11/2 241/12/2
f 229/13/2 241/12/2 242/14/2
f 228/15/2 229/13/2 242/14/2
f 228/15/2 242/14/2 243/16/2
f 227/17/2 228/15/2 243/16/2
f 227/17/2 243/16/2 244/18/2
f 226/19/2 227/17/2 244/18/2
f 226/19/2 244/18/2 245/20/2
f 225/21/2 226/19/2 245/20/2
f 224/22/2 225/21/2 245/20/2
f 224/22/2 245/20/2 246/23/2
f 223/24/2 224/22/2 246/23/2
f 223/24/2 246/23/2 247/25/2
f 222/26/2 223/24/2 247/25/2
f 222/26/2 247/25/2 248/27/2
f 222/26/2 248/27/2 151/28/2
f 221/29/2 222/26/2 151/28/2
f 221/29/2 151/28/2 152/30/2
f 220/31/2 221/29/2 152/30/2
f 220/31/2 152/30/2 153/32/2
f 219/33/2 220/31/2 153/32/2
f 219/33/2 153/32/2 154/34/2
f 218/35/2 219/33/2 154/34/2
f 218/35/2 154/34/2 155/36/2
f 217/37/2 218/35/2 155/36/2
f 217/37/2 155/36/2 156/38/2
f 217/37/2 156/38/2 157/39/2
f 216/40/2 217/37/2 157/39/2
f 216/40/2 157/39/2 158/41/2
f 215/42/2 216/40/2 158/41/2
f 215/42/2 158/41/2 159/43/2
f 214/44/2 215/42/2 159/43/2
f 214/44/2 159/43/2 160/45/2
f 213/46/2 214/44/2 160/45/2
f 213/46/2 160/45/2 161/47/2
f 212/48/2 213/46/2 161/47/2
f 212/48/2 161/47/2 162/49/2
f 211/50/2 212/48/2 162/49/2
f 211/50/2 162/49/2 163/51/2
f 210/52/2 211/50/2 163/51/2
f 210/52/2 163/51/2 164/53/2
f 185/54/2 186/56/2 187/55/2
f 210/52/2 164/53/2 165/57/2
f 209/58/2 210/52/2 165/57/2
f 184/59/2 185/54/2 187/55/2
f 209/58/2 165/57/2 166/60/2
f 183/61/2 184/59/2 187/55/2
f 208/62/2 209/58/2 166/60/2
f 183/61/2 187/55/2 188/63/2
f 208/62/2 166/60/2 167/64/2
f 182/65/2 183/61/2 188/63/2
f 181/66/2 182/65/2 188/63/2
f 208/62/2 167/64/2 168/67/2
f 207/68/2 208/62/2 168/67/2
f 181/66/2 188/63/2 189/69/2
f 180/70/2 181/66/2 189/69/2
f 207/68/2 168/67/2 169/71/2
f 179/72/2 180/70/2 189/69/2
f 207/68/2 169/71/2 170/73/2
f 179/72/2 189/69/2 190/74/2
f 178/75/2 179/72/2 190/74/2
f 206/76/2 207/68/2 170/73/2
f 206/76/2 170/73/2 171/77/2
f 177/78/2 178/75/2 190/74/2
f 206/76/2 171/77/2 172/79/2
f 176/80/2 177/78/2 190/74/2
f 176/80/2 190/74/2 191/81/2
f 206/76/2 172/79/2 173/82/2
f 175/83/2 176/80/2 191/81/2
f 206/76/2 173/82/2 174/84/2
f 174/84/2 175/83/2 191/81/2
f 205/85/2 206/76/2 174/84/2
f 205/85/2 174/84/2 191/81/2
f 205/85/2 191/81/2 192/86/2
f 204/87/2 205/85/2 192/86/2
f 204/87/2 192/86/2 193/88/2
f 203/89/2 204/87/2 193/88/2
f 203/89/2 193/88/2 194/90/2
f 203/89/2 194/90/2 195/91/2
f 202/92/2 203/89/2 195/91/2
f 202/92/2 195/91/2 196/93/2
f 201/94/2 202/92/2 196/93/2
f 201/94/2 196/93/2 197/95/2
f 200/96/2 201/94/2 197/95/2
f 200/96/2 197/95/2 198/97/2
f 199/98/2 200/96/2 198/97/2
f 137/99/2 138/101/2 139/100/2
f 136/102/2 137/99/2 139/100/2
f 136/102/2 139/100/2 140/103/2
f 136/102/2 140/103/2 141/104/2
f 135/105/2 136/102/2 141/104/2
f 134/106/2 135/105/2 141/104/2
f 134/106/2 141/104/2 142/107/2
f 133/108/2 134/106/2 142/107/2
f 133/108/2 142/107/2 143/109/2
f 132/110/2 133/108/2 143/109/2
f 132/110/2 143/109/2 144/111/2
f 131/112/2 132/110/2 144/111/2
f 131/112/2 144/111/2 145/113/2
f 130/114/2 131/112/2 145/113/2
f 130/114/2 145/113/2 146/115/2
f 129/116/2 130/114/2 146/115/2
f 129/116/2 146/115/2 147/117/2
f 128/118/2 129/116/2 147/117/2
f 128/118/2 147/117/2 148/119/2
f 127/120/2 128/118/2 148/119/2
f 127/120/2 148/119/2 149/121/2
f 126/122/2 127/120/2 149/121/2
f 126/122/2 149/121/2 150/123/2
f 125/124/2 126/122/2 150/123/2
s 1
f 252/125/3 249/124/4 250/126/4
f 254/127/5 251/128/3 252/125/3
f 256/129/6 253/130/5 254/127/5
f 258/131/7 255/132/6 256/129/6
f 260/133/8 257/134/7 258/131/7
f 262/135/9 259/136/8 260/133/8
f 264/137/10 261/138/9 262/135/9
f 266/139/11 263/140/10 264/137/10
f 268/141/12 265/142/11 266/139/11
f 270/143/13 267/144/12 268/141/12
f 272/145/14 269/146/13 270/143/13
f 274/147/15 271/148/14 272/145/14
f 276/149/16 273/150/15 274/147/15
f 278/151/17 275/152/16 276/149/16
f 280/153/18 277/154/17 278/151/17
f 282/155/19 279/156/18 280/153/18
f 284/157/20 281/158/19 282/155/19
f 286/159/21 283/160/22 284/157/20
f 288/161/23 285/162/21 286/159/21
f 290/163/24 287/164/23 288/161/23
f 292/165/25 289/166/24 290/163/24
f 294/167/26 291/168/25 292/165/25
f 296/169/27 293/170/26 294/167/26
f 298/171/28 295/172/27 296/169/27
f 300/173/29 297/174/28 298/171/28
f 302/175/30 299/176/31 300/173/29
f 304/177/32 301/178/30 302/175/30
f 306/179/33 303/180/32 304/177/32
f 308/181/34 305/182/33 306/179/33
f 310/183/35 307/184/34 308/181/34
f 312/185/36 309/186/35 310/183/35
f 314/187/37 311/188/36 312/185/36
f 316/189/38 313/190/37 314/187/37
f 318/191/39 315/192/38 316/189/38
f 320/193/40 317/194/39 318/191/39
f 322/195/41 319/196/40 320/193/40
f 324/197/42 321/198/41 322/195/41
f 326/199/43 323/200/42 324/197/42
f 328/201/44 325/202/43 326/199/43
f 330/203/45 327/204/44 328/201/44
f 332/205/46 329/206/45 330/203/45
f 334/207/47 331/208/46 332/205/46
f 336/209/48 333/210/47 334/207/47
f 338/211/49 335/212/48 336/209/48
f 340/213/50 337/214/49 338/211/49
f 342/215/51 339/216/50 340/213/50
f 344/217/52 341/218/51 342/215/51
f 346/219/53 343/220/52 344/217/52
f 348/221/54 345/222/53 346/219/53
f 350/223/55 347/224/54 348/221/54
f 352/225/56 349/226/55 350/223/55
f 354/227/57 351/228/58 352/225/56
f 356/229/59 353/230/57 354/227/57
f 358/231/60 355/232/59 356/229/59
f 360/233/61 357/234/60 358/231/60
f 362/235/62 359/236/61 360/233/61
f 364/237/63 361/238/62 362/235/62
f 366/239/64 363/240/63 364/237/63
f 368/241/65 365/242/64 366/239/64
f 370/243/66 367/244/65 368/241/65
f 372/245/67 369/246/66 370/243/66
f 374/247/68 371/248/67 372/245/67
f 376/249/69 373/250/68 374/247/68
f 378/251/70 375/252/69 376/249/69
f 380/253/71 377/254/70 378/251/70
f 382/255/72 379/256/71 380/253/71
f 384/257/73 381/258/72 382/255/72
f 386/259/74 383/260/73 384/257/73
f 388/261/75 385/262/74 386/259/74
f 390/263/76 387/264/75 388/261/75
f 392/265/77 389/266/76 390/263/76
f 394/267/78 391/268/77 392/265/77
f 396/269/79 393/270/78 394/267/78
f 398/271/80 395/272/79 396/269/79
f 400/273/81 397/274/80 398/271/80
f 402/275/82 399/276/81 400/273/81
f 404/277/83 401/278/82 402/275/82
f 406/279/84 403/280/83 404/277/83
f 408/281/85 405/282/84 406/279/84
f 410/283/86 407/284/85 408/281/85
f 412/285/87 409/286/86 410/283/86
f 414/287/88 411/288/87 412/285/87
f 416/289/89 413/290/88 414/287/88
f 418/291/90 415/292/89 416/289/89
f 420/293/91 417/294/92 418/291/90
f 422/295/93 419/296/91 420/293/91
f 424/297/94 421/298/93 422/295/93
f 426/299/95 423/300/94 424/297/94
f 428/301/96 425/302/95 426/299/95
f 430/303/97 427/304/96 428/301/96
f 432/305/98 429/306/97 430/303/97
f 434/307/99 431/308/98 432/305/98
f 436/309/100 433/310/99 434/307/99
f 438/311/101 435/312/100 436/309/100
f 440/313/102 437/314/101 438/311/101
f 442/315/103 439/316/102 440/313/102
f 444/317/104 441/318/103 442/315/103
f 250/319/4 443/320/104 444/317/104
f 448/321/105 445/124/106 446/126/106
f 450/322/107 447/323/105 448/321/105
f 452/324/108 449/325/107 450/322/107
f 454/326/109 451/327/108 452/324/108
f 456/328/110 453/329/109 454/326/109
f 458/330/111 455/331/110 456/328/110
f 460/332/112 457/333/111 458/330/111
f 462/334/113 459/335/112 460/332/112
f 464/336/114 461/337/113 462/334/113
f 466/338/115 463/339/114 464/336/114
f 468/340/116 465/341/115 466/338/115
f 470/342/117 467/343/116 468/340/116
f 472/221/118 469/344/117 470/342/117
f 474/345/119 471/224/118 472/221/118
f 476/346/120 473/347/119 474/345/119
f 478/348/121 475/349/120 476/346/120
f 480/350/122 477/351/121 478/348/121
f 482/352/123 479/353/122 480/350/122
f 484/354/124 481/355/123 482/352/123
f 486/356/125 483/357/124 484/354/124
f 488/358/126 485/359/125 486/356/125
f 490/360/127 487/361/126 488/358/126
f 492/362/128 489/363/127 490/360/127
f 494/364/129 491/365/128 492/362/128
f 496/366/130 493/367/129 494/364/129
f 446/319/106 495/368/130 496/366/130
f 252/125/3 251/128/3 249/124/4
f 254/127/5 253/130/5 251/128/3
f 256/129/6 255/132/6 253/130/5
f 258/131/7 257/134/7 255/132/6
f 260/133/8 259/136/8 257/134/7
f 262/135/9 261/138/9 259/136/8
f 264/137/10 263/140/10 261/138/9
f 266/139/11 265/142/11 263/140/10
f 268/141/12 267/144/12 265/142/11
f 270/143/13 269/146/13 267/144/12
f 272/145/14 271/148/14 269/146/13
f 274/147/15 273/150/15 271/148/14
f 276/149/16 275/152/16 273/150/15
f 278/151/17 277/154/17 275/152/16
f 280/153/18 279/156/18 277/154/17
f 282/155/19 281/158/19 279/156/18
f 284/157/20 283/160/22 281/158/19
f 286/159/21 285/162/21 283/160/22
f 288/161/23 287/164/23 285/162/21
f 290/163/24 289/166/24 287/164/23
f 292/165/25 291/168/25 289/166/24
f 294/167/26 293/170/26 291/168/25
f 296/169/27 295/172/27 293/170/26
f 298/171/28 297/174/28 295/172/27
f 300/173/29 299/176/31 297/174/28
f 302/175/30 301/178/30 299/176/31
f 304/177/32 303/180/32 301/178/30
f 306/179/33 305/182/33 303/180/32
f 308/181/34 307/184/34 305/182/33
f 310/183/35 309/186/35 307/184/34
f 312/185/36 311/188/36 309/186/35
f 314/187/37 313/190/37 311/188/36
f 316/189/38 315/192/38 313/190/37
f 318/191/39 317/194/39 315/192/38
f 320/193/40 319/196/40 317/194/39
f 322/195/41 321/198/41 319/196/40
f 324/197/42 323/200/42 321/198/41
f 326/199/43 325/202/43 323/200/42
f 328/201/44 327/204/44 325/202/43
f 330/203/45 329/206/45 327/204/44
f 332/205/46 331/208/46 329/206/45
f 334/207/47 333/210/47 331/208/46
f 336/209/48 335/212/48 333/210/47
f 338/211/49 337/214/49 335/212/48
f 340/213/50 339/216/50 337/214/49
f 342/215/51 341/218/51 339/216/50
f 344/217/52 343/220/52 341/218/51
f 346/219/53 345/222/53 343/220/52
f 348/221/54 347/224/54 345/222/53
f 350/223/55 349/226/55 347/224/54
f 352/225/56 351/228/58 349/226/55
f 354/227/57 353/230/57 351/228/58
f 356/229/59 355/232/59 353/230/57
f 358/231/60 357/234/60 355/232/59
f 360/233/61 359/236/61 357/234/60
f 362/235/62 361/238/62 359/236/61
f 364/237/63 363/240/63 361/238/62
f 366/239/64 365/242/64 363/240/63
f 368/241/65 367/244/65 365/242/64
f 370/243/66 369/246/66 367/244/65
f 372/245/67 371/248/67 369/246/66
f 374/247/68 373/250/68 371/248/67
f 376/249/69 375/252/69 373/250/68
f 378/251/70 377/254/70 375/252/69
f 380/253/71 379/256/71 377/254/70
f 382/255/72 381/258/72 379/256/71
f 384/257/73 383/260/73 381/258/72
f 386/259/74 385/262/74 383/260/73
f 388/261/75 387/264/75 385/262/74
f 390/263/76 389/266/76 387/264/75
f 392/265/77 391/268/77 389/266/76
f 394/267/78 393/270/78 391/268/77
f 396/269/79 395/272/79 393/270/78
f 398/271/80 397/274/80 395/272/79
f 400/273/81 399/276/81 397/274/80
f 402/275/82 401/278/82 399/276/81
f 404/277/83 403/280/83 401/278/82
f 406/279/84 405/282/84 403/280/83
f 408/281/85 407/284/85 405/282/84
f 410/283/86 409/286/86 407/284/85
f 412/285/87 411/288/87 409/286/86
f 414/287/88 413/290/88 411/288/87
f 416/289/89 415/292/89 413/290/88
f 418/291/90 417/294/92 415/292/89
f 420/293/91 419/296/91 417/294/92
f 422/295/93 421/298/93 419/296/91
f 424/297/94 423/300/94 421/298/93
f 426/299/95 425/302/95 423/300/94
f 428/301/96 427/304/96 425/302/95
f 430/303/97 429/306/97 427/304/96
f 432/305/98 431/308/98 429/306/97
f 434/307/99 433/310/99 431/308/98
f 436/309/100 435/312/100 433/310/99
f 438/311/101 437/314/101 435/312/100
f 440/313/102 439/316/102 437/314/101
f 442/315/103 441/318/103 439/316/102
f 444/317/104 443/320/104 441/318/103
f 250/319/4 249/27/4 443/320/104
f 448/321/105 447/323/105 445/124/106
f 450/322/107 449/325/107 447/323/105
f 452/324/108 451/327/108 449/325/107
f 454/326/109 453/329/109 451/327/108
f 456/328/110 455/331/110 453/329/109
f 458/330/111 457/333/111 455/331/110
f 460/332/112 459/335/112 457/333/111
f 462/334/113 461/337/113 459/335/112
f 464/336/114 463/339/114 461/337/113
f 466/338/115 465/341/115 463/339/114
f 468/340/116 467/343/116 465/341/115
f 470/342/117 469/344/117 467/343/116
f 472/221/118 471/224/118 469/344/117
f 474/345/119 473/347/119 471/224/118
f 476/346/120 475/349/120 473/347/119
f 478/348/121 477/351/121 475/349/120
f 480/350/122 479/353/122 477/351/121
f 482/352/123 481/355/123 479/353/122
f 484/354/124 483/357/124 481/355/123
f 486/356/125 485/359/125 483/357/124
f 488/358/126 487/361/126 485/359/125
f 490/360/127 489/363/127 487/361/126
f 492/362/128 491/365/128 489/363/127
f 494/364/129 493/367/129 491/365/128
f 496/366/130 495/368/130 493/367/129
f 446/319/106 445/27/106 495/368/130
