# Blender 4.1.1
# www.blender.org
mtllib ga.mtl
o Text.002
v -0.162321 0.567322 -0.020000
v -0.171940 0.567800 -0.020000
v -0.182474 0.568418 -0.020000
v -0.193840 0.569162 -0.020000
v -0.205955 0.570018 -0.020000
v -0.218742 0.570971 -0.020000
v -0.232120 0.572009 -0.020000
v -0.246013 0.573116 -0.020000
v -0.260343 0.574279 -0.020000
v -0.275032 0.575485 -0.020000
v -0.290005 0.576719 -0.020000
v -0.297688 0.577350 -0.020000
v -0.299849 0.588038 -0.020000
v -0.303297 0.606227 -0.020000
v -0.306531 0.624548 -0.020000
v -0.309526 0.642945 -0.020000
v -0.312257 0.661361 -0.020000
v -0.314702 0.679739 -0.020000
v -0.316835 0.698022 -0.020000
v -0.318632 0.716153 -0.020000
v -0.320071 0.734074 -0.020000
v -0.321127 0.751727 -0.020000
v -0.321777 0.769054 -0.020000
v -0.322143 0.797012 -0.020000
v -0.436066 0.785867 -0.020000
v -0.432794 0.770186 -0.020000
v -0.431805 0.765360 -0.020000
v -0.430824 0.760473 -0.020000
v -0.429853 0.755536 -0.020000
v -0.428897 0.750560 -0.020000
v -0.427958 0.745555 -0.020000
v -0.427040 0.740531 -0.020000
v -0.426147 0.735500 -0.020000
v -0.425282 0.730473 -0.020000
v -0.424448 0.725459 -0.020000
v -0.423650 0.720470 -0.020000
v -0.422862 0.715341 -0.020000
v -0.399192 0.586062 -0.020000
v -0.397790 0.585944 -0.020000
v -0.409144 0.586875 -0.020000
v -0.420177 0.587751 -0.020000
v -0.430851 0.588565 -0.020000
v -0.441129 0.589310 -0.020000
v -0.450974 0.589979 -0.020000
v -0.460351 0.590565 -0.020000
v -0.469223 0.591061 -0.020000
v -0.477556 0.591460 -0.020000
v -0.485317 0.591754 -0.020000
v -0.492476 0.591937 -0.020000
v -0.499121 0.592002 -0.020000
v -0.521846 0.591233 -0.020000
v -0.543933 0.588734 -0.020000
v -0.565103 0.584219 -0.020000
v -0.585149 0.577387 -0.020000
v -0.603825 0.567933 -0.020000
v -0.620826 0.555583 -0.020000
v -0.635817 0.540129 -0.020000
v -0.648483 0.521443 -0.020000
v -0.658586 0.499434 -0.020000
v -0.665959 0.473983 -0.020000
v -0.670476 0.444918 -0.020000
v -0.672003 0.412174 -0.020000
v -0.671640 0.381254 -0.020000
v -0.670541 0.349250 -0.020000
v -0.668681 0.316384 -0.020000
v -0.666033 0.283052 -0.020000
v -0.662573 0.249648 -0.020000
v -0.658273 0.216567 -0.020000
v -0.653105 0.184201 -0.020000
v -0.647039 0.152939 -0.020000
v -0.640040 0.123168 -0.020000
v -0.632067 0.095265 -0.020000
v -0.623065 0.069600 -0.020000
v -0.613005 0.046635 -0.020000
v -0.604224 0.030161 -0.020000
v -0.594550 0.015606 -0.020000
v -0.584009 0.002930 -0.020000
v -0.572623 -0.007940 -0.020000
v -0.560440 -0.017075 -0.020000
v -0.547527 -0.024559 -0.020000
v -0.533958 -0.030502 -0.020000
v -0.519799 -0.035033 -0.020000
v -0.505100 -0.038300 -0.020000
v -0.489893 -0.040452 -0.020000
v -0.474196 -0.041638 -0.020000
v -0.458041 -0.042002 -0.020000
v -0.447824 -0.041855 -0.020000
v -0.437423 -0.041436 -0.020000
v -0.426878 -0.040771 -0.020000
v -0.416261 -0.039884 -0.020000
v -0.405648 -0.038800 -0.020000
v -0.395114 -0.037546 -0.020000
v -0.384736 -0.036144 -0.020000
v -0.374591 -0.034619 -0.020000
v -0.364754 -0.032996 -0.020000
v -0.355304 -0.031297 -0.020000
v -0.346314 -0.029547 -0.020000
v -0.331175 -0.026362 -0.020000
v -0.314708 0.080039 -0.020000
v -0.340387 0.072486 -0.020000
v -0.351136 0.069624 -0.020000
v -0.362086 0.066980 -0.020000
v -0.373111 0.064569 -0.020000
v -0.384089 0.062401 -0.020000
v -0.394894 0.060489 -0.020000
v -0.405403 0.058845 -0.020000
v -0.415491 0.057480 -0.020000
v -0.425029 0.056404 -0.020000
v -0.433886 0.055627 -0.020000
v -0.441921 0.055158 -0.020000
v -0.449010 0.055002 -0.020000
v -0.457676 0.055176 -0.020000
v -0.465970 0.055751 -0.020000
v -0.473840 0.056798 -0.020000
v -0.481271 0.058386 -0.020000
v -0.488267 0.060576 -0.020000
v -0.494851 0.063438 -0.020000
v -0.501069 0.067057 -0.020000
v -0.506972 0.071547 -0.020000
v -0.512602 0.077050 -0.020000
v -0.517977 0.083719 -0.020000
v -0.523085 0.091708 -0.020000
v -0.527930 0.101226 -0.020000
v -0.535298 0.118601 -0.020000
v -0.542035 0.138385 -0.020000
v -0.548149 0.160352 -0.020000
v -0.553619 0.184165 -0.020000
v -0.558436 0.209499 -0.020000
v -0.562599 0.236035 -0.020000
v -0.566108 0.263457 -0.020000
v -0.568966 0.291454 -0.020000
v -0.571178 0.319715 -0.020000
v -0.572750 0.347933 -0.020000
v -0.573688 0.375797 -0.020000
v -0.573998 0.402854 -0.020000
v -0.573165 0.423350 -0.020000
v -0.570771 0.440622 -0.020000
v -0.566963 0.454982 -0.020000
v -0.561908 0.466675 -0.020000
v -0.555745 0.476035 -0.020000
v -0.548504 0.483463 -0.020000
v -0.540090 0.489322 -0.020000
v -0.530364 0.493850 -0.020000
v -0.519246 0.497177 -0.020000
v -0.506754 0.499397 -0.020000
v -0.492962 0.500624 -0.020000
v -0.477924 0.500999 -0.020000
v -0.471852 0.500940 -0.020000
v -0.465049 0.500764 -0.020000
v -0.457641 0.500478 -0.020000
v -0.449680 0.500088 -0.020000
v -0.441218 0.499601 -0.020000
v -0.432302 0.499023 -0.020000
v -0.422981 0.498361 -0.020000
v -0.413302 0.497623 -0.020000
v -0.403310 0.496815 -0.020000
v -0.393053 0.495945 -0.020000
v -0.382576 0.495018 -0.020000
v -0.378878 0.494680 -0.020000
v -0.370752 0.463966 -0.020000
v -0.359502 0.423417 -0.020000
v -0.346904 0.380336 -0.020000
v -0.332934 0.335216 -0.020000
v -0.317564 0.288548 -0.020000
v -0.300770 0.240823 -0.020000
v -0.282523 0.192530 -0.020000
v -0.262796 0.144161 -0.020000
v -0.241559 0.096202 -0.020000
v -0.218782 0.049143 -0.020000
v -0.194430 0.003472 -0.020000
v -0.164208 -0.047512 -0.020000
v -0.063651 -0.006545 -0.020000
v -0.095548 0.039272 -0.020000
v -0.119015 0.077794 -0.020000
v -0.141329 0.118928 -0.020000
v -0.162422 0.162015 -0.020000
v -0.182231 0.206398 -0.020000
v -0.200697 0.251421 -0.020000
v -0.217766 0.296431 -0.020000
v -0.233384 0.340775 -0.020000
v -0.247498 0.383803 -0.020000
v -0.260057 0.424861 -0.020000
v -0.271011 0.463298 -0.020000
v -0.276637 0.484580 -0.020000
v -0.164149 0.473065 -0.020000
v -0.158145 0.472291 -0.020000
v -0.151339 0.471426 -0.020000
v -0.144002 0.470500 -0.020000
v -0.136254 0.469523 -0.020000
v -0.128222 0.468505 -0.020000
v -0.120028 0.467457 -0.020000
v -0.111800 0.466389 -0.020000
v -0.103663 0.465311 -0.020000
v -0.095744 0.464235 -0.020000
v -0.088171 0.463171 -0.020000
v -0.081073 0.462131 -0.020000
v -0.064148 0.459511 -0.020000
v -0.052865 0.567328 -0.020000
v -0.072149 0.566767 -0.020000
v -0.079775 0.566581 -0.020000
v -0.087230 0.566436 -0.020000
v -0.094558 0.566333 -0.020000
v -0.101800 0.566271 -0.020000
v -0.109000 0.566250 -0.020000
v -0.116200 0.566271 -0.020000
v -0.123442 0.566333 -0.020000
v -0.130770 0.566436 -0.020000
v -0.138225 0.566581 -0.020000
v -0.145851 0.566767 -0.020000
v -0.153666 0.566995 -0.020000
v -0.867901 0.254975 -0.020000
v -0.856034 0.293001 -0.020000
v -0.845856 0.322244 -0.020000
v -0.834054 0.353351 -0.020000
v -0.820826 0.385736 -0.020000
v -0.806365 0.418821 -0.020000
v -0.790868 0.452028 -0.020000
v -0.774532 0.484783 -0.020000
v -0.757557 0.516507 -0.020000
v -0.740144 0.546621 -0.020000
v -0.722505 0.574541 -0.020000
v -0.704860 0.599675 -0.020000
v -0.679145 0.631807 -0.020000
v -0.771337 0.673483 -0.020000
v -0.792245 0.644432 -0.020000
v -0.809258 0.618361 -0.020000
v -0.826732 0.589504 -0.020000
v -0.844409 0.558486 -0.020000
v -0.862022 0.525942 -0.020000
v -0.879299 0.492514 -0.020000
v -0.895963 0.458844 -0.020000
v -0.911739 0.425578 -0.020000
v -0.926349 0.393358 -0.020000
v -0.939517 0.362824 -0.020000
v -0.950968 0.334608 -0.020000
v -0.963570 0.300945 -0.020000
v -0.802349 0.632060 -0.020000
v -0.792825 0.650844 -0.020000
v -0.787080 0.661891 -0.020000
v -0.780897 0.673512 -0.020000
v -0.774348 0.685552 -0.020000
v -0.767510 0.697855 -0.020000
v -0.760457 0.710264 -0.020000
v -0.753262 0.722625 -0.020000
v -0.746003 0.734781 -0.020000
v -0.738754 0.746576 -0.020000
v -0.731592 0.757851 -0.020000
v -0.724598 0.768447 -0.020000
v -0.710688 0.788560 -0.020000
v -0.783636 0.818279 -0.020000
v -0.794727 0.802349 -0.020000
v -0.801658 0.791963 -0.020000
v -0.808845 0.780820 -0.020000
v -0.816205 0.769081 -0.020000
v -0.823653 0.756912 -0.020000
v -0.831101 0.744476 -0.020000
v -0.838462 0.731943 -0.020000
v -0.845647 0.719478 -0.020000
v -0.852567 0.707249 -0.020000
v -0.859134 0.695424 -0.020000
v -0.865259 0.684168 -0.020000
v -0.875903 0.664156 -0.020000
v -0.915460 0.673039 -0.020000
v -0.905429 0.692368 -0.020000
v -0.899356 0.703766 -0.020000
v -0.892936 0.715521 -0.020000
v -0.886224 0.727517 -0.020000
v -0.879279 0.739636 -0.020000
v -0.872156 0.751761 -0.020000
v -0.864914 0.763776 -0.020000
v -0.857610 0.775563 -0.020000
v -0.850302 0.787005 -0.020000
v -0.843049 0.797982 -0.020000
v -0.835912 0.808375 -0.020000
v -0.821524 0.828403 -0.020000
v -0.893543 0.858298 -0.020000
v -0.904956 0.842186 -0.020000
v -0.912214 0.831597 -0.020000
v -0.919771 0.820270 -0.020000
v -0.927517 0.808380 -0.020000
v -0.935341 0.796108 -0.020000
v -0.943132 0.783633 -0.020000
v -0.950776 0.771135 -0.020000
v -0.958163 0.758795 -0.020000
v -0.965179 0.746792 -0.020000
v -0.971713 0.735304 -0.020000
v -0.977656 0.724504 -0.020000
v -0.987834 0.705205 -0.020000
v -0.162321 0.567322 0.020000
v -0.171940 0.567800 0.020000
v -0.182474 0.568418 0.020000
v -0.193840 0.569162 0.020000
v -0.205955 0.570018 0.020000
v -0.218742 0.570971 0.020000
v -0.232120 0.572009 0.020000
v -0.246013 0.573116 0.020000
v -0.260343 0.574279 0.020000
v -0.275032 0.575485 0.020000
v -0.290005 0.576719 0.020000
v -0.297688 0.577350 0.020000
v -0.299849 0.588038 0.020000
v -0.303297 0.606227 0.020000
v -0.306531 0.624548 0.020000
v -0.309526 0.642945 0.020000
v -0.312257 0.661361 0.020000
v -0.314702 0.679739 0.020000
v -0.316835 0.698022 0.020000
v -0.318632 0.716153 0.020000
v -0.320071 0.734074 0.020000
v -0.321127 0.751727 0.020000
v -0.321777 0.769054 0.020000
v -0.322143 0.797012 0.020000
v -0.436066 0.785867 0.020000
v -0.432794 0.770186 0.020000
v -0.431805 0.765360 0.020000
v -0.430824 0.760473 0.020000
v -0.429853 0.755536 0.020000
v -0.428897 0.750560 0.020000
v -0.427958 0.745555 0.020000
v -0.427040 0.740531 0.020000
v -0.426147 0.735500 0.020000
v -0.425282 0.730473 0.020000
v -0.424448 0.725459 0.020000
v -0.423650 0.720470 0.020000
v -0.422862 0.715341 0.020000
v -0.399192 0.586062 0.020000
v -0.397790 0.585944 0.020000
v -0.409144 0.586875 0.020000
v -0.420177 0.587751 0.020000
v -0.430851 0.588565 0.020000
v -0.441129 0.589310 0.020000
v -0.450974 0.589979 0.020000
v -0.460351 0.590565 0.020000
v -0.469223 0.591061 0.020000
v -0.477556 0.591460 0.020000
v -0.485317 0.591754 0.020000
v -0.492476 0.591937 0.020000
v -0.499121 0.592002 0.020000
v -0.521846 0.591233 0.020000
v -0.543933 0.588734 0.020000
v -0.565103 0.584219 0.020000
v -0.585149 0.577387 0.020000
v -0.603825 0.567933 0.020000
v -0.620826 0.555583 0.020000
v -0.635817 0.540129 0.020000
v -0.648483 0.521443 0.020000
v -0.658586 0.499434 0.020000
v -0.665959 0.473983 0.020000
v -0.670476 0.444918 0.020000
v -0.672003 0.412174 0.020000
v -0.671640 0.381254 0.020000
v -0.670541 0.349250 0.020000
v -0.668681 0.316384 0.020000
v -0.666033 0.283052 0.020000
v -0.662573 0.249648 0.020000
v -0.658273 0.216567 0.020000
v -0.653105 0.184201 0.020000
v -0.647039 0.152939 0.020000
v -0.640040 0.123168 0.020000
v -0.632067 0.095265 0.020000
v -0.623065 0.069600 0.020000
v -0.613005 0.046635 0.020000
v -0.604224 0.030161 0.020000
v -0.594550 0.015606 0.020000
v -0.584009 0.002930 0.020000
v -0.572623 -0.007940 0.020000
v -0.560440 -0.017075 0.020000
v -0.547527 -0.024559 0.020000
v -0.533958 -0.030502 0.020000
v -0.519799 -0.035033 0.020000
v -0.505100 -0.038300 0.020000
v -0.489893 -0.040452 0.020000
v -0.474196 -0.041638 0.020000
v -0.458041 -0.042002 0.020000
v -0.447824 -0.041855 0.020000
v -0.437423 -0.041436 0.020000
v -0.426878 -0.040771 0.020000
v -0.416261 -0.039884 0.020000
v -0.405648 -0.038800 0.020000
v -0.395114 -0.037546 0.020000
v -0.384736 -0.036144 0.020000
v -0.374591 -0.034619 0.020000
v -0.364754 -0.032996 0.020000
v -0.355304 -0.031297 0.020000
v -0.346314 -0.029547 0.020000
v -0.331175 -0.026362 0.020000
v -0.314708 0.080039 0.020000
v -0.340387 0.072486 0.020000
v -0.351136 0.069624 0.020000
v -0.362086 0.066980 0.020000
v -0.373111 0.064569 0.020000
v -0.384089 0.062401 0.020000
v -0.394894 0.060489 0.020000
v -0.405403 0.058845 0.020000
v -0.415491 0.057480 0.020000
v -0.425029 0.056404 0.020000
v -0.433886 0.055627 0.020000
v -0.441921 0.055158 0.020000
v -0.449010 0.055002 0.020000
v -0.457676 0.055176 0.020000
v -0.465970 0.055751 0.020000
v -0.473840 0.056798 0.020000
v -0.481271 0.058386 0.020000
v -0.488267 0.060576 0.020000
v -0.494851 0.063438 0.020000
v -0.501069 0.067057 0.020000
v -0.506972 0.071547 0.020000
v -0.512602 0.077050 0.020000
v -0.517977 0.083719 0.020000
v -0.523085 0.091708 0.020000
v -0.527930 0.101226 0.020000
v -0.535298 0.118601 0.020000
v -0.542035 0.138385 0.020000
v -0.548149 0.160352 0.020000
v -0.553619 0.184165 0.020000
v -0.558436 0.209499 0.020000
v -0.562599 0.236035 0.020000
v -0.566108 0.263457 0.020000
v -0.568966 0.291454 0.020000
v -0.571178 0.319715 0.020000
v -0.572750 0.347933 0.020000
v -0.573688 0.375797 0.020000
v -0.573998 0.402854 0.020000
v -0.573165 0.423350 0.020000
v -0.570771 0.440622 0.020000
v -0.566963 0.454982 0.020000
v -0.561908 0.466675 0.020000
v -0.555745 0.476035 0.020000
v -0.548504 0.483463 0.020000
v -0.540090 0.489322 0.020000
v -0.530364 0.493850 0.020000
v -0.519246 0.497177 0.020000
v -0.506754 0.499397 0.020000
v -0.492962 0.500624 0.020000
v -0.477924 0.500999 0.020000
v -0.471852 0.500940 0.020000
v -0.465049 0.500764 0.020000
v -0.457641 0.500478 0.020000
v -0.449680 0.500088 0.020000
v -0.441218 0.499601 0.020000
v -0.432302 0.499023 0.020000
v -0.422981 0.498361 0.020000
v -0.413302 0.497623 0.020000
v -0.403310 0.496815 0.020000
v -0.393053 0.495945 0.020000
v -0.382576 0.495018 0.020000
v -0.378878 0.494680 0.020000
v -0.370752 0.463966 0.020000
v -0.359502 0.423417 0.020000
v -0.346904 0.380336 0.020000
v -0.332934 0.335216 0.020000
v -0.317564 0.288548 0.020000
v -0.300770 0.240823 0.020000
v -0.282523 0.192530 0.020000
v -0.262796 0.144161 0.020000
v -0.241559 0.096202 0.020000
v -0.218782 0.049143 0.020000
v -0.194430 0.003472 0.020000
v -0.164208 -0.047512 0.020000
v -0.063651 -0.006545 0.020000
v -0.095548 0.039272 0.020000
v -0.119015 0.077794 0.020000
v -0.141329 0.118928 0.020000
v -0.162422 0.162015 0.020000
v -0.182231 0.206398 0.020000
v -0.200697 0.251421 0.020000
v -0.217766 0.296431 0.020000
v -0.233384 0.340775 0.020000
v -0.247498 0.383803 0.020000
v -0.260057 0.424861 0.020000
v -0.271011 0.463298 0.020000
v -0.276637 0.484580 0.020000
v -0.164149 0.473065 0.020000
v -0.158145 0.472291 0.020000
v -0.151339 0.471426 0.020000
v -0.144002 0.470500 0.020000
v -0.136254 0.469523 0.020000
v -0.128222 0.468505 0.020000
v -0.120028 0.467457 0.020000
v -0.111800 0.466389 0.020000
v -0.103663 0.465311 0.020000
v -0.095744 0.464235 0.020000
v -0.088171 0.463171 0.020000
v -0.081073 0.462131 0.020000
v -0.064148 0.459511 0.020000
v -0.052865 0.567328 0.020000
v -0.072149 0.566767 0.020000
v -0.079775 0.566581 0.020000
v -0.087230 0.566436 0.020000
v -0.094558 0.566333 0.020000
v -0.101800 0.566271 0.020000
v -0.109000 0.566250 0.020000
v -0.116200 0.566271 0.020000
v -0.123442 0.566333 0.020000
v -0.130770 0.566436 0.020000
v -0.138225 0.566581 0.020000
v -0.145851 0.566767 0.020000
v -0.153666 0.566995 0.020000
v -0.867901 0.254975 0.020000
v -0.856034 0.293001 0.020000
v -0.845856 0.322244 0.020000
v -0.834054 0.353351 0.020000
v -0.820826 0.385736 0.020000
v -0.806365 0.418821 0.020000
v -0.790868 0.452028 0.020000
v -0.774532 0.484783 0.020000
v -0.757557 0.516507 0.020000
v -0.740144 0.546621 0.020000
v -0.722505 0.574541 0.020000
v -0.704860 0.599675 0.020000
v -0.679145 0.631807 0.020000
v -0.771337 0.673483 0.020000
v -0.792245 0.644432 0.020000
v -0.809258 0.618361 0.020000
v -0.826732 0.589504 0.020000
v -0.844409 0.558486 0.020000
v -0.862022 0.525942 0.020000
v -0.879299 0.492514 0.020000
v -0.895963 0.458844 0.020000
v -0.911739 0.425578 0.020000
v -0.926349 0.393358 0.020000
v -0.939517 0.362824 0.020000
v -0.950968 0.334608 0.020000
v -0.963570 0.300945 0.020000
v -0.802349 0.632060 0.020000
v -0.792825 0.650844 0.020000
v -0.787080 0.661891 0.020000
v -0.780897 0.673512 0.020000
v -0.774348 0.685552 0.020000
v -0.767510 0.697855 0.020000
v -0.760457 0.710264 0.020000
v -0.753262 0.722625 0.020000
v -0.746003 0.734781 0.020000
v -0.738754 0.746576 0.020000
v -0.731592 0.757851 0.020000
v -0.724598 0.768447 0.020000
v -0.710688 0.788560 0.020000
v -0.783636 0.818279 0.020000
v -0.794727 0.802349 0.020000
v -0.801658 0.791963 0.020000
v -0.808845 0.780820 0.020000
v -0.816205 0.769081 0.020000
v -0.823653 0.756912 0.020000
v -0.831101 0.744476 0.020000
v -0.838462 0.731943 0.020000
v -0.845647 0.719478 0.020000
v -0.852567 0.707249 0.020000
v -0.859134 0.695424 0.020000
v -0.865259 0.684168 0.020000
v -0.875903 0.664156 0.020000
v -0.915460 0.673039 0.020000
v -0.905429 0.692368 0.020000
v -0.899356 0.703766 0.020000
v -0.892936 0.715521 0.020000
v -0.886224 0.727517 0.020000
v -0.879279 0.739636 0.020000
v -0.872156 0.751761 0.020000
v -0.864914 0.763776 0.020000
v -0.857610 0.775563 0.020000
v -0.850302 0.787005 0.020000
v -0.843049 0.797982 0.020000
v -0.835912 0.808375 0.020000
v -0.821524 0.828403 0.020000
v -0.893543 0.858298 0.020000
v -0.904956 0.842186 0.020000
v -0.912214 0.831597 0.020000
v -0.919771 0.820270 0.020000
v -0.927517 0.808380 0.020000
v -0.935341 0.796108 0.020000
v -0.943132 0.783633 0.020000
v -0.950776 0.771135 0.020000
v -0.958163 0.758795 0.020000
v -0.965179 0.746792 0.020000
v -0.971713 0.735304 0.020000
v -0.977656 0.724504 0.020000
v -0.987834 0.705205 0.020000
v -0.867901 0.254975 0.020000
v -0.867901 0.254975 -0.020000
v -0.856034 0.293001 0.020000
v -0.856034 0.293001 -0.020000
v -0.845856 0.322244 0.020000
v -0.845856 0.322244 -0.020000
v -0.834054 0.353351 0.020000
v -0.834054 0.353351 -0.020000
v -0.820826 0.385736 0.020000
v -0.820826 0.385736 -0.020000
v -0.806365 0.418821 0.020000
v -0.806365 0.418821 -0.020000
v -0.790868 0.452028 0.020000
v -0.790868 0.452028 -0.020000
v -0.774532 0.484783 0.020000
v -0.774532 0.484783 -0.020000
v -0.757557 0.516507 0.020000
v -0.757557 0.516507 -0.020000
v -0.740144 0.546621 0.020000
v -0.740144 0.546621 -0.020000
v -0.722505 0.574541 0.020000
v -0.722505 0.574541 -0.020000
v -0.704860 0.599675 0.020000
v -0.704860 0.599675 -0.020000
v -0.679145 0.631807 0.020000
v -0.679145 0.631807 -0.020000
v -0.771337 0.673483 0.020000
v -0.771337 0.673483 -0.020000
v -0.792245 0.644432 0.020000
v -0.792245 0.644432 -0.020000
v -0.809258 0.618361 0.020000
v -0.809258 0.618361 -0.020000
v -0.826732 0.589504 0.020000
v -0.826732 0.589504 -0.020000
v -0.844409 0.558486 0.020000
v -0.844409 0.558486 -0.020000
v -0.862022 0.525942 0.020000
v -0.862022 0.525942 -0.020000
v -0.879299 0.492514 0.020000
v -0.879299 0.492514 -0.020000
v -0.895963 0.458844 0.020000
v -0.895963 0.458844 -0.020000
v -0.911739 0.425578 0.020000
v -0.911739 0.425578 -0.020000
v -0.926349 0.393358 0.020000
v -0.926349 0.393358 -0.020000
v -0.939517 0.362824 0.020000
v -0.939517 0.362824 -0.020000
v -0.950968 0.334608 0.020000
v -0.950968 0.334608 -0.020000
v -0.963570 0.300945 0.020000
v -0.963570 0.300945 -0.020000
v -0.802349 0.632060 0.020000
v -0.802349 0.632060 -0.020000
v -0.792825 0.650844 0.020000
v -0.792825 0.650844 -0.020000
v -0.787080 0.661891 0.020000
v -0.787080 0.661891 -0.020000
v -0.780897 0.673512 0.020000
v -0.780897 0.673512 -0.020000
v -0.774348 0.685552 0.020000
v -0.774348 0.685552 -0.020000
v -0.767510 0.697855 0.020000
v -0.767510 0.697855 -0.020000
v -0.760457 0.710264 0.020000
v -0.760457 0.710264 -0.020000
v -0.753262 0.722625 0.020000
v -0.753262 0.722625 -0.020000
v -0.746003 0.734781 0.020000
v -0.746003 0.734781 -0.020000
v -0.738754 0.746576 0.020000
v -0.738754 0.746576 -0.020000
v -0.731592 0.757851 0.020000
v -0.731592 0.757851 -0.020000
v -0.724598 0.768447 0.020000
v -0.724598 0.768447 -0.020000
v -0.710688 0.788560 0.020000
v -0.710688 0.788560 -0.020000
v -0.783636 0.818279 0.020000
v -0.783636 0.818279 -0.020000
v -0.794727 0.802349 0.020000
v -0.794727 0.802349 -0.020000
v -0.801658 0.791963 0.020000
v -0.801658 0.791963 -0.020000
v -0.808845 0.780820 0.020000
v -0.808845 0.780820 -0.020000
v -0.816205 0.769081 0.020000
v -0.816205 0.769081 -0.020000
v -0.823653 0.756912 0.020000
v -0.823653 0.756912 -0.020000
v -0.831101 0.744476 0.020000
v -0.831101 0.744476 -0.020000
v -0.838462 0.731943 0.020000
v -0.838462 0.731943 -0.020000
v -0.845647 0.719478 0.020000
v -0.845647 0.719478 -0.020000
v -0.852567 0.707249 0.020000
v -0.852567 0.707249 -0.020000
v -0.859134 0.695424 0.020000
v -0.859134 0.695424 -0.020000
v -0.865259 0.684168 0.020000
v -0.865259 0.684168 -0.020000
v -0.875903 0.664156 0.020000
v -0.875903 0.664156 -0.020000
v -0.915460 0.673039 0.020000
v -0.915460 0.673039 -0.020000
v -0.905429 0.692368 0.020000
v -0.905429 0.692368 -0.020000
v -0.899356 0.703766 0.020000
v -0.899356 0.703766 -0.020000
v -0.892936 0.715521 0.020000
v -0.892936 0.715521 -0.020000
v -0.886224 0.727517 0.020000
v -0.886224 0.727517 -0.020000
v -0.879279 0.739636 0.020000
v -0.879279 0.739636 -0.020000
v -0.872156 0.751761 0.020000
v -0.872156 0.751761 -0.020000
v -0.864914 0.763776 0.020000
v -0.864914 0.763776 -0.020000
v -0.857610 0.775563 0.020000
v -0.857610 0.775563 -0.020000
v -0.850302 0.787005 0.020000
v -0.850302 0.787005 -0.020000
v -0.843049 0.797982 0.020000
v -0.843049 0.797982 -0.020000
v -0.835912 0.808375 0.020000
v -0.835912 0.808375 -0.020000
v -0.821524 0.828403 0.020000
v -0.821524 0.828403 -0.020000
v -0.893543 0.858298 0.020000
v -0.893543 0.858298 -0.020000
v -0.904956 0.842186 0.020000
v -0.904956 0.842186 -0.020000
v -0.912214 0.831597 0.020000
v -0.912214 0.831597 -0.020000
v -0.919771 0.820270 0.020000
v -0.919771 0.820270 -0.020000
v -0.927517 0.808380 0.020000
v -0.927517 0.808380 -0.020000
v -0.935341 0.796108 0.020000
v -0.935341 0.796108 -0.020000
v -0.943132 0.783633 0.020000
v -0.943132 0.783633 -0.020000
v -0.950776 0.771135 0.020000
v -0.950776 0.771135 -0.020000
v -0.958163 0.758795 0.020000
v -0.958163 0.758795 -0.020000
v -0.965179 0.746792 0.020000
v -0.965179 0.746792 -0.020000
v -0.971713 0.735304 0.020000
v -0.971713 0.735304 -0.020000
v -0.977656 0.724504 0.020000
v -0.977656 0.724504 -0.020000
v -0.987834 0.705205 0.020000
v -0.987834 0.705205 -0.020000
v -0.162321 0.567322 0.020000
v -0.162321 0.567322 -0.020000
v -0.171940 0.567800 0.020000
v -0.171940 0.567800 -0.020000
v -0.182474 0.568418 0.020000
v -0.182474 0.568418 -0.020000
v -0.193840 0.569162 0.020000
v -0.193840 0.569162 -0.020000
v -0.205955 0.570018 0.020000
v -0.205955 0.570018 -0.020000
v -0.218742 0.570971 0.020000
v -0.218742 0.570971 -0.020000
v -0.232120 0.572009 0.020000
v -0.232120 0.572009 -0.020000
v -0.246013 0.573116 0.020000
v -0.246013 0.573116 -0.020000
v -0.260343 0.574279 0.020000
v -0.260343 0.574279 -0.020000
v -0.275032 0.575485 0.020000
v -0.275032 0.575485 -0.020000
v -0.290005 0.576719 0.020000
v -0.290005 0.576719 -0.020000
v -0.297688 0.577350 0.020000
v -0.297688 0.577350 -0.020000
v -0.299849 0.588038 0.020000
v -0.299849 0.588038 -0.020000
v -0.303297 0.606227 0.020000
v -0.303297 0.606227 -0.020000
v -0.306531 0.624548 0.020000
v -0.306531 0.624548 -0.020000
v -0.309526 0.642945 0.020000
v -0.309526 0.642945 -0.020000
v -0.312257 0.661361 0.020000
v -0.312257 0.661361 -0.020000
v -0.314702 0.679739 0.020000
v -0.314702 0.679739 -0.020000
v -0.316835 0.698022 0.020000
v -0.316835 0.698022 -0.020000
v -0.318632 0.716153 0.020000
v -0.318632 0.716153 -0.020000
v -0.320071 0.734074 0.020000
v -0.320071 0.734074 -0.020000
v -0.321127 0.751727 0.020000
v -0.321127 0.751727 -0.020000
v -0.321777 0.769054 0.020000
v -0.321777 0.769054 -0.020000
v -0.322143 0.797012 0.020000
v -0.322143 0.797012 -0.020000
v -0.436066 0.785867 0.020000
v -0.436066 0.785867 -0.020000
v -0.432794 0.770186 0.020000
v -0.432794 0.770186 -0.020000
v -0.431805 0.765360 0.020000
v -0.431805 0.765360 -0.020000
v -0.430824 0.760473 0.020000
v -0.430824 0.760473 -0.020000
v -0.429853 0.755536 0.020000
v -0.429853 0.755536 -0.020000
v -0.428897 0.750560 0.020000
v -0.428897 0.750560 -0.020000
v -0.427958 0.745555 0.020000
v -0.427958 0.745555 -0.020000
v -0.427040 0.740531 0.020000
v -0.427040 0.740531 -0.020000
v -0.426147 0.735500 0.020000
v -0.426147 0.735500 -0.020000
v -0.425282 0.730473 0.020000
v -0.425282 0.730473 -0.020000
v -0.424448 0.725459 0.020000
v -0.424448 0.725459 -0.020000
v -0.423650 0.720470 0.020000
v -0.423650 0.720470 -0.020000
v -0.422862 0.715341 0.020000
v -0.422862 0.715341 -0.020000
v -0.399192 0.586062 0.020000
v -0.399192 0.586062 -0.020000
v -0.397790 0.585944 0.020000
v -0.397790 0.585944 -0.020000
v -0.409144 0.586875 0.020000
v -0.409144 0.586875 -0.020000
v -0.420177 0.587751 0.020000
v -0.420177 0.587751 -0.020000
v -0.430851 0.588565 0.020000
v -0.430851 0.588565 -0.020000
v -0.441129 0.589310 0.020000
v -0.441129 0.589310 -0.020000
v -0.450974 0.589979 0.020000
v -0.450974 0.589979 -0.020000
v -0.460351 0.590565 0.020000
v -0.460351 0.590565 -0.020000
v -0.469223 0.591061 0.020000
v -0.469223 0.591061 -0.020000
v -0.477556 0.591460 0.020000
v -0.477556 0.591460 -0.020000
v -0.485317 0.591754 0.020000
v -0.485317 0.591754 -0.020000
v -0.492476 0.591937 0.020000
v -0.492476 0.591937 -0.020000
v -0.499121 0.592002 0.020000
v -0.499121 0.592002 -0.020000
v -0.521846 0.591233 0.020000
v -0.521846 0.591233 -0.020000
v -0.543933 0.588734 0.020000
v -0.543933 0.588734 -0.020000
v -0.565103 0.584219 0.020000
v -0.565103 0.584219 -0.020000
v -0.585149 0.577387 0.020000
v -0.585149 0.577387 -0.020000
v -0.603825 0.567933 0.020000
v -0.603825 0.567933 -0.020000
v -0.620826 0.555583 0.020000
v -0.620826 0.555583 -0.020000
v -0.635817 0.540129 0.020000
v -0.635817 0.540129 -0.020000
v -0.648483 0.521443 0.020000
v -0.648483 0.521443 -0.020000
v -0.658586 0.499434 0.020000
v -0.658586 0.499434 -0.020000
v -0.665959 0.473983 0.020000
v -0.665959 0.473983 -0.020000
v -0.670476 0.444918 0.020000
v -0.670476 0.444918 -0.020000
v -0.672003 0.412174 0.020000
v -0.672003 0.412174 -0.020000
v -0.671640 0.381254 0.020000
v -0.671640 0.381254 -0.020000
v -0.670541 0.349250 0.020000
v -0.670541 0.349250 -0.020000
v -0.668681 0.316384 0.020000
v -0.668681 0.316384 -0.020000
v -0.666033 0.283052 0.020000
v -0.666033 0.283052 -0.020000
v -0.662573 0.249648 0.020000
v -0.662573 0.249648 -0.020000
v -0.658273 0.216567 0.020000
v -0.658273 0.216567 -0.020000
v -0.653105 0.184201 0.020000
v -0.653105 0.184201 -0.020000
v -0.647039 0.152939 0.020000
v -0.647039 0.152939 -0.020000
v -0.640040 0.123168 0.020000
v -0.640040 0.123168 -0.020000
v -0.632067 0.095265 0.020000
v -0.632067 0.095265 -0.020000
v -0.623065 0.069600 0.020000
v -0.623065 0.069600 -0.020000
v -0.613005 0.046635 0.020000
v -0.613005 0.046635 -0.020000
v -0.604224 0.030161 0.020000
v -0.604224 0.030161 -0.020000
v -0.594550 0.015606 0.020000
v -0.594550 0.015606 -0.020000
v -0.584009 0.002930 0.020000
v -0.584009 0.002930 -0.020000
v -0.572623 -0.007940 0.020000
v -0.572623 -0.007940 -0.020000
v -0.560440 -0.017075 0.020000
v -0.560440 -0.017075 -0.020000
v -0.547527 -0.024559 0.020000
v -0.547527 -0.024559 -0.020000
v -0.533958 -0.030502 0.020000
v -0.533958 -0.030502 -0.020000
v -0.519799 -0.035033 0.020000
v -0.519799 -0.035033 -0.020000
v -0.505100 -0.038300 0.020000
v -0.505100 -0.038300 -0.020000
v -0.489893 -0.040452 0.020000
v -0.489893 -0.040452 -0.020000
v -0.474196 -0.041638 0.020000
v -0.474196 -0.041638 -0.020000
v -0.458041 -0.042002 0.020000
v -0.458041 -0.042002 -0.020000
v -0.447824 -0.041855 0.020000
v -0.447824 -0.041855 -0.020000
v -0.437423 -0.041436 0.020000
v -0.437423 -0.041436 -0.020000
v -0.426878 -0.040771 0.020000
v -0.426878 -0.040771 -0.020000
v -0.416261 -0.039884 0.020000
v -0.416261 -0.039884 -0.020000
v -0.405648 -0.038800 0.020000
v -0.405648 -0.038800 -0.020000
v -0.395114 -0.037546 0.020000
v -0.395114 -0.037546 -0.020000
v -0.384736 -0.036144 0.020000
v -0.384736 -0.036144 -0.020000
v -0.374591 -0.034619 0.020000
v -0.374591 -0.034619 -0.020000
v -0.364754 -0.032996 0.020000
v -0.364754 -0.032996 -0.020000
v -0.355304 -0.031297 0.020000
v -0.355304 -0.031297 -0.020000
v -0.346314 -0.029547 0.020000
v -0.346314 -0.029547 -0.020000
v -0.331175 -0.026362 0.020000
v -0.331175 -0.026362 -0.020000
v -0.314708 0.080039 0.020000
v -0.314708 0.080039 -0.020000
v -0.340387 0.072486 0.020000
v -0.340387 0.072486 -0.020000
v -0.351136 0.069624 0.020000
v -0.351136 0.069624 -0.020000
v -0.362086 0.066980 0.020000
v -0.362086 0.066980 -0.020000
v -0.373111 0.064569 0.020000
v -0.373111 0.064569 -0.020000
v -0.384089 0.062401 0.020000
v -0.384089 0.062401 -0.020000
v -0.394894 0.060489 0.020000
v -0.394894 0.060489 -0.020000
v -0.405403 0.058845 0.020000
v -0.405403 0.058845 -0.020000
v -0.415491 0.057480 0.020000
v -0.415491 0.057480 -0.020000
v -0.425029 0.056404 0.020000
v -0.425029 0.056404 -0.020000
v -0.433886 0.055627 0.020000
v -0.433886 0.055627 -0.020000
v -0.441921 0.055158 0.020000
v -0.441921 0.055158 -0.020000
v -0.449010 0.055002 0.020000
v -0.449010 0.055002 -0.020000
v -0.457676 0.055176 0.020000
v -0.457676 0.055176 -0.020000
v -0.465970 0.055751 0.020000
v -0.465970 0.055751 -0.020000
v -0.473840 0.056798 0.020000
v -0.473840 0.056798 -0.020000
v -0.481271 0.058386 0.020000
v -0.481271 0.058386 -0.020000
v -0.488267 0.060576 0.020000
v -0.488267 0.060576 -0.020000
v -0.494851 0.063438 0.020000
v -0.494851 0.063438 -0.020000
v -0.501069 0.067057 0.020000
v -0.501069 0.067057 -0.020000
v -0.506972 0.071547 0.020000
v -0.506972 0.071547 -0.020000
v -0.512602 0.077050 0.020000
v -0.512602 0.077050 -0.020000
v -0.517977 0.083719 0.020000
v -0.517977 0.083719 -0.020000
v -0.523085 0.091708 0.020000
v -0.523085 0.091708 -0.020000
v -0.527930 0.101226 0.020000
v -0.527930 0.101226 -0.020000
v -0.535298 0.118601 0.020000
v -0.535298 0.118601 -0.020000
v -0.542035 0.138385 0.020000
v -0.542035 0.138385 -0.020000
v -0.548149 0.160352 0.020000
v -0.548149 0.160352 -0.020000
v -0.553619 0.184165 0.020000
v -0.553619 0.184165 -0.020000
v -0.558436 0.209499 0.020000
v -0.558436 0.209499 -0.020000
v -0.562599 0.236035 0.020000
v -0.562599 0.236035 -0.020000
v -0.566108 0.263457 0.020000
v -0.566108 0.263457 -0.020000
v -0.568966 0.291454 0.020000
v -0.568966 0.291454 -0.020000
v -0.571178 0.319715 0.020000
v -0.571178 0.319715 -0.020000
v -0.572750 0.347933 0.020000
v -0.572750 0.347933 -0.020000
v -0.573688 0.375797 0.020000
v -0.573688 0.375797 -0.020000
v -0.573998 0.402854 0.020000
v -0.573998 0.402854 -0.020000
v -0.573165 0.423350 0.020000
v -0.573165 0.423350 -0.020000
v -0.570771 0.440622 0.020000
v -0.570771 0.440622 -0.020000
v -0.566963 0.454982 0.020000
v -0.566963 0.454982 -0.020000
v -0.561908 0.466675 0.020000
v -0.561908 0.466675 -0.020000
v -0.555745 0.476035 0.020000
v -0.555745 0.476035 -0.020000
v -0.548504 0.483463 0.020000
v -0.548504 0.483463 -0.020000
v -0.540090 0.489322 0.020000
v -0.540090 0.489322 -0.020000
v -0.530364 0.493850 0.020000
v -0.530364 0.493850 -0.020000
v -0.519246 0.497177 0.020000
v -0.519246 0.497177 -0.020000
v -0.506754 0.499397 0.020000
v -0.506754 0.499397 -0.020000
v -0.492962 0.500624 0.020000
v -0.492962 0.500624 -0.020000
v -0.477924 0.500999 0.020000
v -0.477924 0.500999 -0.020000
v -0.471852 0.500940 0.020000
v -0.471852 0.500940 -0.020000
v -0.465049 0.500764 0.020000
v -0.465049 0.500764 -0.020000
v -0.457641 0.500478 0.020000
v -0.457641 0.500478 -0.020000
v -0.449680 0.500088 0.020000
v -0.449680 0.500088 -0.020000
v -0.441218 0.499601 0.020000
v -0.441218 0.499601 -0.020000
v -0.432302 0.499023 0.020000
v -0.432302 0.499023 -0.020000
v -0.422981 0.498361 0.020000
v -0.422981 0.498361 -0.020000
v -0.413302 0.497623 0.020000
v -0.413302 0.497623 -0.020000
v -0.403310 0.496815 0.020000
v -0.403310 0.496815 -0.020000
v -0.393053 0.495945 0.020000
v -0.393053 0.495945 -0.020000
v -0.382576 0.495018 0.020000
v -0.382576 0.495018 -0.020000
v -0.378878 0.494680 0.020000
v -0.378878 0.494680 -0.020000
v -0.370752 0.463966 0.020000
v -0.370752 0.463966 -0.020000
v -0.359502 0.423417 0.020000
v -0.359502 0.423417 -0.020000
v -0.346904 0.380336 0.020000
v -0.346904 0.380336 -0.020000
v -0.332934 0.335216 0.020000
v -0.332934 0.335216 -0.020000
v -0.317564 0.288548 0.020000
v -0.317564 0.288548 -0.020000
v -0.300770 0.240823 0.020000
v -0.300770 0.240823 -0.020000
v -0.282523 0.192530 0.020000
v -0.282523 0.192530 -0.020000
v -0.262796 0.144161 0.020000
v -0.262796 0.144161 -0.020000
v -0.241559 0.096202 0.020000
v -0.241559 0.096202 -0.020000
v -0.218782 0.049143 0.020000
v -0.218782 0.049143 -0.020000
v -0.194430 0.003472 0.020000
v -0.194430 0.003472 -0.020000
v -0.164208 -0.047512 0.020000
v -0.164208 -0.047512 -0.020000
v -0.063651 -0.006545 0.020000
v -0.063651 -0.006545 -0.020000
v -0.095548 0.039272 0.020000
v -0.095548 0.039272 -0.020000
v -0.119015 0.077794 0.020000
v -0.119015 0.077794 -0.020000
v -0.141329 0.118928 0.020000
v -0.141329 0.118928 -0.020000
v -0.162422 0.162015 0.020000
v -0.162422 0.162015 -0.020000
v -0.182231 0.206398 0.020000
v -0.182231 0.206398 -0.020000
v -0.200697 0.251421 0.020000
v -0.200697 0.251421 -0.020000
v -0.217766 0.296431 0.020000
v -0.217766 0.296431 -0.020000
v -0.233384 0.340775 0.020000
v -0.233384 0.340775 -0.020000
v -0.247498 0.383803 0.020000
v -0.247498 0.383803 -0.020000
v -0.260057 0.424861 0.020000
v -0.260057 0.424861 -0.020000
v -0.271011 0.463298 0.020000
v -0.271011 0.463298 -0.020000
v -0.276637 0.484580 0.020000
v -0.276637 0.484580 -0.020000
v -0.164149 0.473065 0.020000
v -0.164149 0.473065 -0.020000
v -0.158145 0.472291 0.020000
v -0.158145 0.472291 -0.020000
v -0.151339 0.471426 0.020000
v -0.151339 0.471426 -0.020000
v -0.144002 0.470500 0.020000
v -0.144002 0.470500 -0.020000
v -0.136254 0.469523 0.020000
v -0.136254 0.469523 -0.020000
v -0.128222 0.468505 0.020000
v -0.128222 0.468505 -0.020000
v -0.120028 0.467457 0.020000
v -0.120028 0.467457 -0.020000
v -0.111800 0.466389 0.020000
v -0.111800 0.466389 -0.020000
v -0.103663 0.465311 0.020000
v -0.103663 0.465311 -0.020000
v -0.095744 0.464235 0.020000
v -0.095744 0.464235 -0.020000
v -0.088171 0.463171 0.020000
v -0.088171 0.463171 -0.020000
v -0.081073 0.462131 0.020000
v -0.081073 0.462131 -0.020000
v -0.064148 0.459511 0.020000
v -0.064148 0.459511 -0.020000
v -0.052865 0.567328 0.020000
v -0.052865 0.567328 -0.020000
v -0.072149 0.566767 0.020000
v -0.072149 0.566767 -0.020000
v -0.079775 0.566581 0.020000
v -0.079775 0.566581 -0.020000
v -0.087230 0.566436 0.020000
v -0.087230 0.566436 -0.020000
v -0.094558 0.566333 0.020000
v -0.094558 0.566333 -0.020000
v -0.101800 0.566271 0.020000
v -0.101800 0.566271 -0.020000
v -0.109000 0.566250 0.020000
v -0.109000 0.566250 -0.020000
v -0.116200 0.566271 0.020000
v -0.116200 0.566271 -0.020000
v -0.123442 0.566333 0.020000
v -0.123442 0.566333 -0.020000
v -0.130770 0.566436 0.020000
v -0.130770 0.566436 -0.020000
v -0.138225 0.566581 0.020000
v -0.138225 0.566581 -0.020000
v -0.145851 0.566767 0.020000
v -0.145851 0.566767 -0.020000
v -0.153666 0.566995 0.020000
v -0.153666 0.566995 -0.020000
vn -0.0000 -0.0000 -1.0000
vn 0.0011 -0.0000 -1.0000
vn -0.0000 -0.0000 1.0000
vn 0.0011 -0.0000 1.0000
vn 0.9496 -0.3134 -0.0000
vn 0.3988 -0.9170 -0.0000
vn 0.9398 -0.3418 -0.0000
vn 0.9304 -0.3665 -0.0000
vn 0.9211 -0.3894 -0.0000
vn 0.9113 -0.4117 -0.0000
vn 0.9006 -0.4346 -0.0000
vn 0.8884 -0.4591 -0.0000
vn 0.8738 -0.4862 -0.0000
vn 0.8557 -0.5174 -0.0000
vn 0.8322 -0.5545 -0.0000
vn 0.8000 -0.6000 -0.0000
vn 0.9724 0.2335 -0.0000
vn -0.2583 0.9661 -0.0000
vn -0.8248 0.5655 -0.0000
vn -0.8465 0.5323 -0.0000
vn -0.8622 0.5066 -0.0000
vn -0.8742 0.4856 -0.0000
vn -0.8840 0.4676 -0.0000
vn -0.8923 0.4514 -0.0000
vn -0.8999 0.4360 -0.0000
vn -0.9072 0.4207 -0.0000
vn -0.9145 0.4045 -0.0000
vn -0.9225 0.3861 -0.0000
vn -0.9316 0.3634 -0.0000
vn -0.9278 -0.3731 -0.0000
vn 0.8896 -0.4568 -0.0000
vn 0.3382 -0.9411 -0.0000
vn 0.8850 -0.4656 -0.0000
vn 0.8806 -0.4738 -0.0000
vn 0.8850 -0.4655 -0.0000
vn 0.8763 -0.4818 -0.0000
vn 0.8807 -0.4738 -0.0000
vn 0.8717 -0.4900 -0.0000
vn 0.8668 -0.4986 -0.0000
vn 0.8614 -0.5079 -0.0000
vn 0.8553 -0.5182 -0.0000
vn 0.8481 -0.5299 -0.0000
vn 0.8394 -0.5435 -0.0000
vn 0.8286 -0.5599 -0.0000
vn 0.9584 0.2854 -0.0000
vn -0.2839 0.9589 -0.0000
vn -0.8263 0.5633 -0.0000
vn -0.8361 0.5485 -0.0000
vn -0.8438 0.5366 -0.0000
vn -0.8501 0.5266 -0.0000
vn -0.8554 0.5179 -0.0000
vn -0.8601 0.5101 -0.0000
vn -0.8643 0.5029 -0.0000
vn -0.8684 0.4959 -0.0000
vn -0.8723 0.4890 -0.0000
vn -0.8763 0.4817 -0.0000
vn -0.8806 0.4738 -0.0000
vn -0.9443 -0.3290 -0.0000
vn 0.8851 -0.4654 -0.0000
vn 0.3306 -0.9438 -0.0000
vn 0.8801 -0.4748 -0.0000
vn 0.8752 -0.4838 -0.0000
vn 0.8702 -0.4928 -0.0000
vn 0.8649 -0.5019 -0.0000
vn 0.8594 -0.5114 -0.0000
vn 0.8533 -0.5215 -0.0000
vn 0.8464 -0.5325 -0.0000
vn 0.8386 -0.5448 -0.0000
vn 0.8294 -0.5587 -0.0000
vn 0.8183 -0.5748 -0.0000
vn 0.9618 0.2737 -0.0000
vn -0.2769 0.9609 -0.0000
vn -0.8204 0.5717 -0.0000
vn -0.2768 0.9609 -0.0000
vn -0.8284 0.5602 -0.0000
vn -0.8349 0.5504 -0.0000
vn -0.8406 0.5417 -0.0000
vn -0.8457 0.5336 -0.0000
vn -0.8506 0.5257 -0.0000
vn -0.8556 0.5177 -0.0000
vn -0.8607 0.5091 -0.0000
vn -0.8663 0.4995 -0.0000
vn -0.8727 0.4883 -0.0000
vn -0.8804 0.4743 -0.0000
vn -0.9449 -0.3275 -0.0000
vn 0.0541 0.9985 -0.0000
vn 0.0437 0.9990 -0.0000
vn 0.0619 0.9981 -0.0000
vn 0.0679 0.9977 -0.0000
vn 0.0724 0.9974 -0.0000
vn 0.0758 0.9971 -0.0000
vn 0.0784 0.9969 -0.0000
vn 0.0802 0.9968 -0.0000
vn 0.0814 0.9967 -0.0000
vn 0.0820 0.9966 -0.0000
vn 0.6644 0.7474 -0.0000
vn 0.9814 0.1922 -0.0000
vn 0.9837 0.1801 -0.0000
vn 0.9859 0.1672 -0.0000
vn 0.9881 0.1537 -0.0000
vn 0.9903 0.1393 -0.0000
vn 0.9923 0.1239 -0.0000
vn 0.9942 0.1073 -0.0000
vn 0.9960 0.0893 -0.0000
vn 0.9976 0.0699 -0.0000
vn 0.9988 0.0486 -0.0000
vn 0.9997 0.0253 -0.0000
vn 0.6669 0.7451 -0.0000
vn -0.8058 0.5922 -0.0000
vn 0.6670 0.7451 -0.0000
vn -0.9793 -0.2024 -0.0000
vn -0.9800 -0.1988 -0.0000
vn -0.9808 -0.1949 -0.0000
vn -0.9816 -0.1908 -0.0000
vn -0.9824 -0.1866 -0.0000
vn -0.9833 -0.1820 -0.0000
vn -0.9842 -0.1773 -0.0000
vn -0.9851 -0.1722 -0.0000
vn -0.9860 -0.1668 -0.0000
vn -0.9869 -0.1610 -0.0000
vn -0.9879 -0.1549 -0.0000
vn -0.9861 -0.1659 -0.0000
vn -0.6719 -0.7406 -0.0000
vn -0.9971 0.0757 -0.0000
vn 0.0805 0.9968 -0.0000
vn -0.9982 0.0608 -0.0000
vn 0.0776 0.9970 -0.0000
vn 0.0742 0.9972 -0.0000
vn 0.0700 0.9975 -0.0000
vn 0.0651 0.9979 -0.0000
vn 0.0591 0.9983 -0.0000
vn 0.0518 0.9987 -0.0000
vn 0.0429 0.9991 -0.0000
vn 0.0318 0.9995 -0.0000
vn 0.0176 0.9998 -0.0000
vn -0.0121 0.9999 -0.0000
vn -0.0732 0.9973 -0.0000
vn -0.1607 0.9870 -0.0000
vn -0.2660 0.9640 -0.0000
vn -0.3881 0.9216 -0.0000
vn -0.5214 0.8533 -0.0000
vn -0.6552 0.7555 -0.0000
vn -0.5213 0.8533 -0.0000
vn -0.7757 0.6311 -0.0000
vn -0.8713 0.4908 -0.0000
vn -0.9372 0.3487 -0.0000
vn -0.9763 0.2164 -0.0000
vn -0.9950 0.1002 -0.0000
vn -0.9763 0.2163 -0.0000
vn -0.9998 0.0174 -0.0000
vn -0.9997 -0.0230 -0.0000
vn -0.9990 -0.0454 -0.0000
vn -0.9977 -0.0679 -0.0000
vn -0.9958 -0.0911 -0.0000
vn -0.9933 -0.1160 -0.0000
vn -0.9897 -0.1433 -0.0000
vn -0.9847 -0.1741 -0.0000
vn -0.9778 -0.2097 -0.0000
vn -0.9678 -0.2519 -0.0000
vn -0.9530 -0.3030 -0.0000
vn -0.9305 -0.3664 -0.0000
vn -0.8999 -0.4361 -0.0000
vn -0.8586 -0.5126 -0.0000
vn -0.8020 -0.5973 -0.0000
vn -0.8587 -0.5126 -0.0000
vn -0.7309 -0.6825 -0.0000
vn -0.6464 -0.7630 -0.0000
vn -0.5516 -0.8341 -0.0000
vn -0.4520 -0.8920 -0.0000
vn -0.3535 -0.9354 -0.0000
vn -0.2611 -0.9653 -0.0000
vn -0.1787 -0.9839 -0.0000
vn -0.1078 -0.9942 -0.0000
vn -0.0489 -0.9988 -0.0000
vn -0.0041 -1.0000 -0.0000
vn 0.0273 -0.9996 -0.0000
vn 0.0516 -0.9987 -0.0000
vn 0.0731 -0.9973 -0.0000
vn 0.0924 -0.9957 -0.0000
vn 0.1099 -0.9939 -0.0000
vn 0.1261 -0.9920 -0.0000
vn 0.1412 -0.9900 -0.0000
vn 0.1557 -0.9878 -0.0000
vn 0.1699 -0.9855 -0.0000
vn 0.1840 -0.9829 -0.0000
vn 0.1985 -0.9801 -0.0000
vn 0.7259 -0.6878 -0.0000
vn 0.6587 0.7524 -0.0000
vn -0.2698 0.9629 -0.0000
vn -0.2460 0.9693 -0.0000
vn -0.2242 0.9745 -0.0000
vn -0.2037 0.9790 -0.0000
vn -0.1840 0.9829 -0.0000
vn -0.1644 0.9864 -0.0000
vn -0.1444 0.9895 -0.0000
vn -0.1231 0.9924 -0.0000
vn -0.0997 0.9950 -0.0000
vn -0.0728 0.9973 -0.0000
vn -0.0401 0.9992 -0.0000
vn -0.0010 1.0000 -0.0000
vn 0.0446 0.9990 -0.0000
vn 0.1006 0.9949 -0.0000
vn 0.1706 0.9853 -0.0000
vn 0.2541 0.9672 -0.0000
vn 0.3492 0.9371 -0.0000
vn 0.4516 0.8922 -0.0000
vn 0.5553 0.8316 -0.0000
vn 0.6534 0.7570 -0.0000
vn 0.7401 0.6725 -0.0000
vn 0.8118 0.5840 -0.0000
vn 0.8679 0.4968 -0.0000
vn 0.9065 0.4223 -0.0000
vn 0.9343 0.3566 -0.0000
vn 0.9554 0.2954 -0.0000
vn 0.9693 0.2461 -0.0000
vn 0.9787 0.2054 -0.0000
vn 0.9853 0.1709 -0.0000
vn 0.9900 0.1410 -0.0000
vn 0.9935 0.1142 -0.0000
vn 0.9960 0.0898 -0.0000
vn 0.9978 0.0668 -0.0000
vn 0.9990 0.0446 -0.0000
vn 0.9997 0.0225 -0.0000
vn 0.9999 -0.0146 -0.0000
vn 0.9960 -0.0891 -0.0000
vn 0.9804 -0.1972 -0.0000
vn 0.9449 -0.3275 -0.0000
vn 0.8799 -0.4752 -0.0000
vn 0.7792 -0.6268 -0.0000
vn 0.6467 -0.7628 -0.0000
vn 0.4986 -0.8668 -0.0000
vn 0.3553 -0.9348 -0.0000
vn 0.2312 -0.9729 -0.0000
vn 0.1319 -0.9913 -0.0000
vn 0.0568 -0.9984 -0.0000
vn 0.0076 -1.0000 -0.0000
vn -0.0178 -0.9998 -0.0000
vn -0.0322 -0.9995 -0.0000
vn -0.0438 -0.9990 -0.0000
vn -0.0532 -0.9986 -0.0000
vn -0.0611 -0.9981 -0.0000
vn -0.0677 -0.9977 -0.0000
vn -0.0734 -0.9973 -0.0000
vn -0.0783 -0.9969 -0.0000
vn -0.0826 -0.9966 -0.0000
vn -0.0863 -0.9963 -0.0000
vn -0.0896 -0.9960 -0.0000
vn -0.6455 -0.7637 -0.0000
vn -0.9652 -0.2616 -0.0000
vn -0.6456 -0.7637 -0.0000
vn -0.9617 -0.2740 -0.0000
vn -0.9576 -0.2882 -0.0000
vn -0.9526 -0.3043 -0.0000
vn -0.9466 -0.3224 -0.0000
vn -0.9394 -0.3427 -0.0000
vn -0.9308 -0.3656 -0.0000
vn -0.9203 -0.3913 -0.0000
vn -0.9074 -0.4203 -0.0000
vn -0.8914 -0.4532 -0.0000
vn -0.8715 -0.4903 -0.0000
vn -0.3188 -0.9478 -0.0000
vn 0.9589 -0.2839 -0.0000
vn 0.8377 0.5461 -0.0000
vn 0.8668 0.4987 -0.0000
vn 0.8888 0.4584 -0.0000
vn 0.9058 0.4237 -0.0000
vn 0.9193 0.3936 -0.0000
vn 0.9302 0.3671 -0.0000
vn 0.9392 0.3434 -0.0000
vn 0.9468 0.3220 -0.0000
vn 0.9533 0.3021 -0.0000
vn 0.9590 0.2833 -0.0000
vn 0.9643 0.2648 -0.0000
vn 0.7602 -0.6497 -0.0000
vn -0.1149 -0.9934 -0.0000
vn -0.1270 -0.9919 -0.0000
vn -0.1256 -0.9921 -0.0000
vn -0.1252 -0.9921 -0.0000
vn -0.1254 -0.9921 -0.0000
vn -0.1263 -0.9920 -0.0000
vn -0.1278 -0.9918 -0.0000
vn -0.1300 -0.9915 -0.0000
vn -0.1330 -0.9911 -0.0000
vn -0.1369 -0.9906 -0.0000
vn -0.1421 -0.9899 -0.0000
vn -0.1490 -0.9888 -0.0000
vn 0.6103 -0.7921 -0.0000
vn 0.7332 0.6800 -0.0000
vn 0.6103 -0.7922 -0.0000
vn -0.0267 0.9996 -0.0000
vn -0.0219 0.9998 -0.0000
vn -0.0168 0.9999 -0.0000
vn -0.0113 0.9999 -0.0000
vn -0.0057 1.0000 -0.0000
vn -0.0000 1.0000 -0.0000
vn 0.0057 1.0000 -0.0000
vn 0.0113 0.9999 -0.0000
vn 0.0168 0.9999 -0.0000
vn 0.0219 0.9998 -0.0000
vn 0.0267 0.9996 -0.0000
vn 0.0334 0.9994 -0.0000
vt 0.340848 0.906391
vt 0.341250 0.906391
vt 0.341049 0.906391
vt 0.341451 0.906391
vt 0.341652 0.906391
vt 0.340647 0.906391
vt 0.341853 0.906391
vt 0.335622 0.906391
vt 0.336024 0.906391
vt 0.335823 0.906391
vt 0.342054 0.906391
vt 0.340446 0.906391
vt 0.336225 0.906391
vt 0.340245 0.906391
vt 0.342255 0.906391
vt 0.336426 0.906391
vt 0.335421 0.906391
vt 0.340044 0.906391
vt 0.342456 0.906391
vt 0.336627 0.906391
vt 0.339843 0.906391
vt 0.342657 0.906391
vt 0.336828 0.906391
vt 0.335220 0.906391
vt 0.339642 0.906391
vt 0.342858 0.906391
vt 0.335019 0.906391
vt 0.337029 0.906391
vt 0.339441 0.906391
vt 0.343060 0.906391
vt 0.334818 0.906391
vt 0.337230 0.906391
vt 0.339240 0.906391
vt 0.343260 0.906391
vt 0.334617 0.906391
vt 0.337431 0.906391
vt 0.339039 0.906391
vt 0.343462 0.906391
vt 0.334416 0.906391
vt 0.337632 0.906391
vt 0.338838 0.906391
vt 0.334215 0.906391
vt 0.337833 0.906391
vt 0.338637 0.906391
vt 0.338436 0.906391
vt 0.334014 0.906391
vt 0.338034 0.906391
vt 0.333813 0.906391
vt 0.338235 0.906391
vt 0.333612 0.906391
vt 0.330396 0.906391
vt 0.330798 0.906391
vt 0.330597 0.906391
vt 0.333411 0.906391
vt 0.333210 0.906391
vt 0.330999 0.906391
vt 0.330195 0.906391
vt 0.331200 0.906391
vt 0.329994 0.906391
vt 0.331401 0.906391
vt 0.329793 0.906391
vt 0.331602 0.906391
vt 0.329592 0.906391
vt 0.331803 0.906391
vt 0.329391 0.906391
vt 0.332004 0.906391
vt 0.329190 0.906391
vt 0.332205 0.906391
vt 0.328989 0.906391
vt 0.332406 0.906391
vt 0.328788 0.906391
vt 0.332607 0.906391
vt 0.328587 0.906391
vt 0.332808 0.906391
vt 0.328386 0.906391
vt 0.333009 0.906391
vt 0.328185 0.906391
vt 0.327983 0.906391
vt 0.290193 0.906391
vt 0.290595 0.906391
vt 0.290394 0.906391
vt 0.290796 0.906391
vt 0.290997 0.906391
vt 0.289992 0.906391
vt 0.291198 0.906391
vt 0.291399 0.906391
vt 0.291600 0.906391
vt 0.289791 0.906391
vt 0.291801 0.906391
vt 0.292002 0.906391
vt 0.292203 0.906391
vt 0.292404 0.906391
vt 0.289590 0.906391
vt 0.292605 0.906391
vt 0.292806 0.906391
vt 0.293007 0.906391
vt 0.289389 0.906391
vt 0.293208 0.906391
vt 0.289188 0.906391
vt 0.288987 0.906391
vt 0.288786 0.906391
vt 0.288585 0.906391
vt 0.288384 0.906391
vt 0.288183 0.906391
vt 0.295419 0.906391
vt 0.295821 0.906391
vt 0.295620 0.906391
vt 0.295218 0.906391
vt 0.295017 0.906391
vt 0.294816 0.906391
vt 0.296022 0.906391
vt 0.294615 0.906391
vt 0.294414 0.906391
vt 0.294213 0.906391
vt 0.294012 0.906391
vt 0.296223 0.906391
vt 0.293811 0.906391
vt 0.287982 0.906391
vt 0.293409 0.906391
vt 0.293610 0.906391
vt 0.296424 0.906391
vt 0.296625 0.906391
vt 0.287781 0.906391
vt 0.287580 0.906391
vt 0.287379 0.906391
vt 0.287178 0.906391
vt 0.286977 0.906391
vt 0.286776 0.906391
vt 0.286575 0.906391
vt 0.286374 0.906391
vt 0.286173 0.906391
vt 0.285972 0.906391
vt 0.296826 0.906391
vt 0.285771 0.906391
vt 0.325169 0.906391
vt 0.325571 0.906391
vt 0.325370 0.906391
vt 0.327782 0.906391
vt 0.327581 0.906391
vt 0.325772 0.906391
vt 0.327380 0.906391
vt 0.325973 0.906391
vt 0.327179 0.906391
vt 0.326174 0.906391
vt 0.326978 0.906391
vt 0.326375 0.906391
vt 0.326777 0.906391
vt 0.326576 0.906391
vt 0.324968 0.906391
vt 0.324767 0.906391
vt 0.297027 0.906391
vt 0.324566 0.906391
vt 0.324365 0.906391
vt 0.324164 0.906391
vt 0.323963 0.906391
vt 0.323762 0.906391
vt 0.322757 0.906391
vt 0.322556 0.906391
vt 0.297228 0.906391
vt 0.317531 0.906391
vt 0.317330 0.906391
vt 0.317129 0.906391
vt 0.316928 0.906391
vt 0.316727 0.906391
vt 0.316526 0.906391
vt 0.316325 0.906391
vt 0.316124 0.906391
vt 0.315923 0.906391
vt 0.315722 0.906391
vt 0.315521 0.906391
vt 0.315320 0.906391
vt 0.315119 0.906391
vt 0.297429 0.906391
vt 0.314918 0.906391
vt 0.314717 0.906391
vt 0.297630 0.906391
vt 0.314516 0.906391
vt 0.314315 0.906391
vt 0.317732 0.906391
vt 0.314114 0.906391
vt 0.313913 0.906391
vt 0.322355 0.906391
vt 0.313712 0.906391
vt 0.313511 0.906391
vt 0.297831 0.906391
vt 0.323561 0.906391
vt 0.322958 0.906391
vt 0.323159 0.906391
vt 0.323360 0.906391
vt 0.313309 0.906391
vt 0.317933 0.906391
vt 0.322154 0.906391
vt 0.313108 0.906391
vt 0.298032 0.906391
vt 0.312907 0.906391
vt 0.321953 0.906391
vt 0.318134 0.906391
vt 0.312706 0.906391
vt 0.298233 0.906391
vt 0.312505 0.906391
vt 0.321752 0.906391
vt 0.298434 0.906391
vt 0.318335 0.906391
vt 0.312304 0.906391
vt 0.298636 0.906391
vt 0.312103 0.906391
vt 0.321551 0.906391
vt 0.318536 0.906391
vt 0.311902 0.906391
vt 0.298837 0.906391
vt 0.321350 0.906391
vt 0.311701 0.906391
vt 0.318737 0.906391
vt 0.299038 0.906391
vt 0.311500 0.906391
vt 0.321149 0.906391
vt 0.299239 0.906391
vt 0.318938 0.906391
vt 0.311299 0.906391
vt 0.299440 0.906391
vt 0.311098 0.906391
vt 0.320948 0.906391
vt 0.319139 0.906391
vt 0.299641 0.906391
vt 0.310897 0.906391
vt 0.320747 0.906391
vt 0.310696 0.906391
vt 0.299842 0.906391
vt 0.319340 0.906391
vt 0.310495 0.906391
vt 0.300043 0.906391
vt 0.320546 0.906391
vt 0.310294 0.906391
vt 0.310093 0.906391
vt 0.319541 0.906391
vt 0.300244 0.906391
vt 0.309892 0.906391
vt 0.309691 0.906391
vt 0.305269 0.906391
vt 0.305671 0.906391
vt 0.305470 0.906391
vt 0.320345 0.906391
vt 0.309490 0.906391
vt 0.305872 0.906391
vt 0.309289 0.906391
vt 0.306073 0.906391
vt 0.300445 0.906391
vt 0.309088 0.906391
vt 0.306274 0.906391
vt 0.306475 0.906391
vt 0.308887 0.906391
vt 0.306676 0.906391
vt 0.308686 0.906391
vt 0.306877 0.906391
vt 0.307078 0.906391
vt 0.308485 0.906391
vt 0.307279 0.906391
vt 0.308284 0.906391
vt 0.307480 0.906391
vt 0.308083 0.906391
vt 0.307681 0.906391
vt 0.307882 0.906391
vt 0.319742 0.906391
vt 0.300646 0.906391
vt 0.320144 0.906391
vt 0.300847 0.906391
vt 0.301048 0.906391
vt 0.319943 0.906391
vt 0.301249 0.906391
vt 0.301450 0.906391
vt 0.301651 0.906391
vt 0.301852 0.906391
vt 0.305068 0.906391
vt 0.304867 0.906391
vt 0.302053 0.906391
vt 0.304666 0.906391
vt 0.304465 0.906391
vt 0.304264 0.906391
vt 0.302254 0.906391
vt 0.304063 0.906391
vt 0.303862 0.906391
vt 0.302455 0.906391
vt 0.303661 0.906391
vt 0.303460 0.906391
vt 0.302656 0.906391
vt 0.303259 0.906391
vt 0.303058 0.906391
vt 0.302857 0.906391
vt 0.287989 0.964082
vt 0.285771 0.964082
vt 0.290208 0.964082
vt 0.287989 0.906391
vt 0.292427 0.964082
vt 0.290208 0.906391
vt 0.294646 0.964082
vt 0.292427 0.906391
vt 0.296865 0.964082
vt 0.294646 0.906391
vt 0.299084 0.964082
vt 0.296865 0.906391
vt 0.301303 0.964082
vt 0.299084 0.906391
vt 0.303522 0.964082
vt 0.301303 0.906391
vt 0.305741 0.964082
vt 0.303522 0.906391
vt 0.307959 0.964082
vt 0.305741 0.906391
vt 0.310178 0.964082
vt 0.307959 0.906391
vt 0.312397 0.964082
vt 0.310178 0.906391
vt 0.314616 0.964082
vt 0.312397 0.906391
vt 0.316835 0.964082
vt 0.314616 0.906391
vt 0.319054 0.964082
vt 0.316835 0.906391
vt 0.321273 0.964082
vt 0.319054 0.906391
vt 0.323492 0.964082
vt 0.321273 0.906391
vt 0.325710 0.964082
vt 0.323492 0.906391
vt 0.327929 0.964082
vt 0.325710 0.906391
vt 0.330148 0.964082
vt 0.327929 0.906391
vt 0.332367 0.964082
vt 0.330148 0.906391
vt 0.334586 0.964082
vt 0.332367 0.906391
vt 0.336805 0.964082
vt 0.334586 0.906391
vt 0.339024 0.964082
vt 0.336805 0.906391
vt 0.341243 0.964082
vt 0.339024 0.906391
vt 0.343462 0.964082
vt 0.341243 0.906391
vt 0.286045 0.964082
vt 0.286320 0.964082
vt 0.286045 0.906391
vt 0.286595 0.964082
vt 0.286320 0.906391
vt 0.286869 0.964082
vt 0.286595 0.906391
vt 0.287144 0.964082
vt 0.286869 0.906391
vt 0.287419 0.964082
vt 0.287144 0.906391
vt 0.287694 0.964082
vt 0.287419 0.906391
vt 0.287968 0.964082
vt 0.287694 0.906391
vt 0.288243 0.964082
vt 0.287968 0.906391
vt 0.288518 0.964082
vt 0.288243 0.906391
vt 0.288793 0.964082
vt 0.288518 0.906391
vt 0.289067 0.964082
vt 0.288793 0.906391
vt 0.289342 0.964082
vt 0.289067 0.906391
vt 0.289617 0.964082
vt 0.289342 0.906391
vt 0.289891 0.964082
vt 0.289617 0.906391
vt 0.290166 0.964082
vt 0.289891 0.906391
vt 0.290441 0.964082
vt 0.290166 0.906391
vt 0.290716 0.964082
vt 0.290441 0.906391
vt 0.290990 0.964082
vt 0.290716 0.906391
vt 0.291265 0.964082
vt 0.290990 0.906391
vt 0.291540 0.964082
vt 0.291265 0.906391
vt 0.291814 0.964082
vt 0.291540 0.906391
vt 0.292089 0.964082
vt 0.291814 0.906391
vt 0.292364 0.964082
vt 0.292089 0.906391
vt 0.292639 0.964082
vt 0.292364 0.906391
vt 0.292913 0.964082
vt 0.292639 0.906391
vt 0.293188 0.964082
vt 0.292913 0.906391
vt 0.293463 0.964082
vt 0.293188 0.906391
vt 0.293738 0.964082
vt 0.293463 0.906391
vt 0.294012 0.964082
vt 0.293738 0.906391
vt 0.294287 0.964082
vt 0.294562 0.964082
vt 0.294287 0.906391
vt 0.294836 0.964082
vt 0.294562 0.906391
vt 0.295111 0.964082
vt 0.294836 0.906391
vt 0.295386 0.964082
vt 0.295111 0.906391
vt 0.295660 0.964082
vt 0.295386 0.906391
vt 0.295935 0.964082
vt 0.295660 0.906391
vt 0.296210 0.964082
vt 0.295935 0.906391
vt 0.296485 0.964082
vt 0.296210 0.906391
vt 0.296759 0.964082
vt 0.296485 0.906391
vt 0.297034 0.964082
vt 0.296759 0.906391
vt 0.297309 0.964082
vt 0.297034 0.906391
vt 0.297584 0.964082
vt 0.297309 0.906391
vt 0.297858 0.964082
vt 0.297584 0.906391
vt 0.298133 0.964082
vt 0.297858 0.906391
vt 0.298408 0.964082
vt 0.298133 0.906391
vt 0.298682 0.964082
vt 0.298408 0.906391
vt 0.298957 0.964082
vt 0.298682 0.906391
vt 0.299232 0.964082
vt 0.298957 0.906391
vt 0.299507 0.964082
vt 0.299232 0.906391
vt 0.299781 0.964082
vt 0.299507 0.906391
vt 0.300056 0.964082
vt 0.299781 0.906391
vt 0.300331 0.964082
vt 0.300056 0.906391
vt 0.300605 0.964082
vt 0.300331 0.906391
vt 0.300880 0.964082
vt 0.300605 0.906391
vt 0.301155 0.964082
vt 0.300880 0.906391
vt 0.301430 0.964082
vt 0.301155 0.906391
vt 0.301704 0.964082
vt 0.301430 0.906391
vt 0.301979 0.964082
vt 0.301704 0.906391
vt 0.302254 0.964082
vt 0.301979 0.906391
vt 0.302528 0.964082
vt 0.302803 0.964082
vt 0.302528 0.906391
vt 0.303078 0.964082
vt 0.302803 0.906391
vt 0.303353 0.964082
vt 0.303078 0.906391
vt 0.303627 0.964082
vt 0.303353 0.906391
vt 0.303902 0.964082
vt 0.303627 0.906391
vt 0.304177 0.964082
vt 0.303902 0.906391
vt 0.304451 0.964082
vt 0.304177 0.906391
vt 0.304726 0.964082
vt 0.304451 0.906391
vt 0.305001 0.964082
vt 0.304726 0.906391
vt 0.305276 0.964082
vt 0.305001 0.906391
vt 0.305550 0.964082
vt 0.305276 0.906391
vt 0.305825 0.964082
vt 0.305550 0.906391
vt 0.306100 0.964082
vt 0.305825 0.906391
vt 0.306375 0.964082
vt 0.306100 0.906391
vt 0.306649 0.964082
vt 0.306375 0.906391
vt 0.306924 0.964082
vt 0.306649 0.906391
vt 0.307199 0.964082
vt 0.306924 0.906391
vt 0.307473 0.964082
vt 0.307199 0.906391
vt 0.307748 0.964082
vt 0.307473 0.906391
vt 0.308023 0.964082
vt 0.307748 0.906391
vt 0.308298 0.964082
vt 0.308023 0.906391
vt 0.308572 0.964082
vt 0.308298 0.906391
vt 0.308847 0.964082
vt 0.308572 0.906391
vt 0.309122 0.964082
vt 0.308847 0.906391
vt 0.309396 0.964082
vt 0.309122 0.906391
vt 0.309671 0.964082
vt 0.309396 0.906391
vt 0.309946 0.964082
vt 0.309671 0.906391
vt 0.310221 0.964082
vt 0.309946 0.906391
vt 0.310495 0.964082
vt 0.310221 0.906391
vt 0.310770 0.964082
vt 0.311045 0.964082
vt 0.310770 0.906391
vt 0.311319 0.964082
vt 0.311045 0.906391
vt 0.311594 0.964082
vt 0.311319 0.906391
vt 0.311869 0.964082
vt 0.311594 0.906391
vt 0.312144 0.964082
vt 0.311869 0.906391
vt 0.312418 0.964082
vt 0.312144 0.906391
vt 0.312693 0.964082
vt 0.312418 0.906391
vt 0.312968 0.964082
vt 0.312693 0.906391
vt 0.313242 0.964082
vt 0.312968 0.906391
vt 0.313517 0.964082
vt 0.313242 0.906391
vt 0.313792 0.964082
vt 0.313517 0.906391
vt 0.314067 0.964082
vt 0.313792 0.906391
vt 0.314341 0.964082
vt 0.314067 0.906391
vt 0.314341 0.906391
vt 0.314891 0.964082
vt 0.315166 0.964082
vt 0.314891 0.906391
vt 0.315440 0.964082
vt 0.315166 0.906391
vt 0.315715 0.964082
vt 0.315440 0.906391
vt 0.315990 0.964082
vt 0.315715 0.906391
vt 0.316264 0.964082
vt 0.315990 0.906391
vt 0.316539 0.964082
vt 0.316264 0.906391
vt 0.316814 0.964082
vt 0.316539 0.906391
vt 0.317089 0.964082
vt 0.316814 0.906391
vt 0.317363 0.964082
vt 0.317089 0.906391
vt 0.317638 0.964082
vt 0.317363 0.906391
vt 0.317913 0.964082
vt 0.317638 0.906391
vt 0.318187 0.964082
vt 0.317913 0.906391
vt 0.318462 0.964082
vt 0.318187 0.906391
vt 0.318737 0.964082
vt 0.318462 0.906391
vt 0.319012 0.964082
vt 0.319286 0.964082
vt 0.319012 0.906391
vt 0.319561 0.964082
vt 0.319286 0.906391
vt 0.319836 0.964082
vt 0.319561 0.906391
vt 0.320110 0.964082
vt 0.319836 0.906391
vt 0.320385 0.964082
vt 0.320110 0.906391
vt 0.320660 0.964082
vt 0.320385 0.906391
vt 0.320935 0.964082
vt 0.320660 0.906391
vt 0.321209 0.964082
vt 0.320935 0.906391
vt 0.321484 0.964082
vt 0.321209 0.906391
vt 0.321759 0.964082
vt 0.321484 0.906391
vt 0.322033 0.964082
vt 0.321759 0.906391
vt 0.322308 0.964082
vt 0.322033 0.906391
vt 0.322583 0.964082
vt 0.322308 0.906391
vt 0.322858 0.964082
vt 0.322583 0.906391
vt 0.323132 0.964082
vt 0.322858 0.906391
vt 0.323407 0.964082
vt 0.323132 0.906391
vt 0.323682 0.964082
vt 0.323407 0.906391
vt 0.323957 0.964082
vt 0.323682 0.906391
vt 0.324231 0.964082
vt 0.323957 0.906391
vt 0.324506 0.964082
vt 0.324231 0.906391
vt 0.324781 0.964082
vt 0.324506 0.906391
vt 0.325055 0.964082
vt 0.324781 0.906391
vt 0.325330 0.964082
vt 0.325055 0.906391
vt 0.325605 0.964082
vt 0.325330 0.906391
vt 0.325880 0.964082
vt 0.325605 0.906391
vt 0.326154 0.964082
vt 0.325880 0.906391
vt 0.326429 0.964082
vt 0.326154 0.906391
vt 0.326704 0.964082
vt 0.326429 0.906391
vt 0.326978 0.964082
vt 0.326704 0.906391
vt 0.327253 0.964082
vt 0.327528 0.964082
vt 0.327253 0.906391
vt 0.327803 0.964082
vt 0.327528 0.906391
vt 0.328077 0.964082
vt 0.327803 0.906391
vt 0.328352 0.964082
vt 0.328077 0.906391
vt 0.328627 0.964082
vt 0.328352 0.906391
vt 0.328901 0.964082
vt 0.328627 0.906391
vt 0.329176 0.964082
vt 0.328901 0.906391
vt 0.329451 0.964082
vt 0.329176 0.906391
vt 0.329726 0.964082
vt 0.329451 0.906391
vt 0.330000 0.964082
vt 0.329726 0.906391
vt 0.330275 0.964082
vt 0.330000 0.906391
vt 0.330550 0.964082
vt 0.330275 0.906391
vt 0.330824 0.964082
vt 0.330550 0.906391
vt 0.331099 0.964082
vt 0.330824 0.906391
vt 0.331374 0.964082
vt 0.331099 0.906391
vt 0.331649 0.964082
vt 0.331374 0.906391
vt 0.331923 0.964082
vt 0.331649 0.906391
vt 0.332198 0.964082
vt 0.331923 0.906391
vt 0.332473 0.964082
vt 0.332198 0.906391
vt 0.332747 0.964082
vt 0.332473 0.906391
vt 0.333022 0.964082
vt 0.332747 0.906391
vt 0.333297 0.964082
vt 0.333022 0.906391
vt 0.333572 0.964082
vt 0.333297 0.906391
vt 0.333846 0.964082
vt 0.333572 0.906391
vt 0.334121 0.964082
vt 0.333846 0.906391
vt 0.334396 0.964082
vt 0.334121 0.906391
vt 0.334671 0.964082
vt 0.334396 0.906391
vt 0.334945 0.964082
vt 0.334671 0.906391
vt 0.335220 0.964082
vt 0.334945 0.906391
vt 0.335495 0.964082
vt 0.335769 0.964082
vt 0.335495 0.906391
vt 0.336044 0.964082
vt 0.335769 0.906391
vt 0.336319 0.964082
vt 0.336044 0.906391
vt 0.336594 0.964082
vt 0.336319 0.906391
vt 0.336868 0.964082
vt 0.336594 0.906391
vt 0.337143 0.964082
vt 0.336868 0.906391
vt 0.337418 0.964082
vt 0.337143 0.906391
vt 0.337692 0.964082
vt 0.337418 0.906391
vt 0.337967 0.964082
vt 0.337692 0.906391
vt 0.338242 0.964082
vt 0.337967 0.906391
vt 0.338517 0.964082
vt 0.338242 0.906391
vt 0.338791 0.964082
vt 0.338517 0.906391
vt 0.339066 0.964082
vt 0.338791 0.906391
vt 0.339341 0.964082
vt 0.339066 0.906391
vt 0.339615 0.964082
vt 0.339341 0.906391
vt 0.339890 0.964082
vt 0.339615 0.906391
vt 0.340165 0.964082
vt 0.339890 0.906391
vt 0.340440 0.964082
vt 0.340165 0.906391
vt 0.340714 0.964082
vt 0.340440 0.906391
vt 0.340989 0.964082
vt 0.340714 0.906391
vt 0.341264 0.964082
vt 0.340989 0.906391
vt 0.341538 0.964082
vt 0.341264 0.906391
vt 0.341813 0.964082
vt 0.341538 0.906391
vt 0.342088 0.964082
vt 0.341813 0.906391
vt 0.342363 0.964082
vt 0.342088 0.906391
vt 0.342637 0.964082
vt 0.342363 0.906391
vt 0.342912 0.964082
vt 0.342637 0.906391
vt 0.343187 0.964082
vt 0.342912 0.906391
vt 0.343187 0.906391
s 0
usemtl Material
f 275/1/1 277/2/1 276/3/1
f 275/1/1 278/4/1 277/2/1
f 275/1/1 279/5/1 278/4/1
f 274/6/1 279/5/1 275/1/1
f 274/6/1 280/7/1 279/5/1
f 249/8/1 251/9/1 250/10/1
f 274/6/1 281/11/1 280/7/1
f 273/12/1 281/11/1 274/6/1
f 249/8/1 252/13/1 251/9/1
f 272/14/1 281/11/1 273/12/1
f 272/14/1 282/15/1 281/11/1
f 249/8/1 253/16/1 252/13/1
f 248/17/1 253/16/1 249/8/1
f 271/18/1 282/15/1 272/14/1
f 271/18/1 283/19/1 282/15/1
f 248/17/1 254/20/1 253/16/1
f 270/21/1 283/19/1 271/18/1
f 270/21/1 284/22/1 283/19/1
f 248/17/1 255/23/1 254/20/1
f 247/24/1 255/23/1 248/17/1
f 269/25/1 284/22/1 270/21/1
f 269/25/1 285/26/1 284/22/1
f 246/27/1 255/23/1 247/24/1
f 246/27/1 256/28/1 255/23/1
f 268/29/1 285/26/1 269/25/1
f 268/29/1 286/30/1 285/26/1
f 245/31/1 256/28/1 246/27/1
f 245/31/1 257/32/1 256/28/1
f 267/33/1 286/30/1 268/29/1
f 267/33/1 287/34/1 286/30/1
f 244/35/1 257/32/1 245/31/1
f 244/35/1 258/36/1 257/32/1
f 266/37/1 287/34/1 267/33/1
f 266/37/1 288/38/1 287/34/1
f 243/39/1 258/36/1 244/35/1
f 243/39/1 259/40/1 258/36/1
f 265/41/1 288/38/1 266/37/1
f 242/42/1 259/40/1 243/39/1
f 242/42/1 260/43/1 259/40/1
f 265/41/1 264/44/1 288/38/1
f 264/44/1 263/45/1 288/38/1
f 241/46/1 260/43/1 242/42/1
f 241/46/1 261/47/1 260/43/1
f 240/48/1 261/47/1 241/46/1
f 240/48/1 262/49/1 261/47/1
f 239/50/1 262/49/1 240/48/1
f 223/51/1 225/52/1 224/53/1
f 239/50/1 238/54/1 262/49/1
f 238/54/1 237/55/1 262/49/1
f 223/51/1 226/56/1 225/52/1
f 222/57/1 226/56/1 223/51/1
f 222/57/1 227/58/1 226/56/1
f 221/59/1 227/58/1 222/57/1
f 221/59/1 228/60/1 227/58/1
f 220/61/1 228/60/1 221/59/1
f 220/61/1 229/62/1 228/60/1
f 219/63/1 229/62/1 220/61/1
f 219/63/1 230/64/1 229/62/1
f 218/65/1 230/64/1 219/63/1
f 218/65/1 231/66/1 230/64/1
f 217/67/1 231/66/1 218/65/1
f 217/67/1 232/68/1 231/66/1
f 216/69/1 232/68/1 217/67/1
f 216/69/1 233/70/1 232/68/1
f 215/71/1 233/70/1 216/69/1
f 215/71/1 234/72/1 233/70/1
f 214/73/1 234/72/1 215/71/1
f 214/73/1 235/74/1 234/72/1
f 213/75/1 235/74/1 214/73/1
f 213/75/1 236/76/1 235/74/1
f 212/77/1 236/76/1 213/75/1
f 212/77/1 211/78/1 236/76/1
f 23/79/1 25/80/1 24/81/1
f 23/79/1 26/82/1 25/80/1
f 23/79/1 27/83/1 26/82/1
f 22/84/1 27/83/1 23/79/1
f 22/84/1 28/85/1 27/83/1
f 22/84/1 29/86/1 28/85/1
f 22/84/1 30/87/1 29/86/1
f 21/88/1 30/87/1 22/84/1
f 21/88/1 31/89/1 30/87/1
f 21/88/1 32/90/1 31/89/1
f 21/88/1 33/91/1 32/90/1
f 21/88/1 34/92/1 33/91/1
f 20/93/1 34/92/1 21/88/1
f 20/93/1 35/94/1 34/92/1
f 20/93/1 36/95/1 35/94/1
f 20/93/1 37/96/1 36/95/1
f 19/97/1 37/96/1 20/93/1
f 19/97/1 38/98/1 37/96/1
f 18/99/1 38/98/1 19/97/1
f 17/100/1 38/98/1 18/99/1
f 16/101/1 38/98/1 17/100/1
f 15/102/1 38/98/1 16/101/1
f 14/103/1 38/98/1 15/102/1
f 13/104/1 38/98/1 14/103/1
f 49/105/1 51/106/1 50/107/1
f 48/108/1 51/106/1 49/105/1
f 47/109/1 51/106/1 48/108/1
f 46/110/1 51/106/1 47/109/1
f 46/110/1 52/111/1 51/106/1
f 45/112/1 52/111/1 46/110/1
f 44/113/1 52/111/1 45/112/1
f 43/114/1 52/111/1 44/113/1
f 42/115/1 52/111/1 43/114/1
f 42/115/1 53/116/1 52/111/1
f 41/117/1 53/116/1 42/115/1
f 12/118/1 39/119/1 13/104/1
f 39/119/1 38/98/1 13/104/1
f 40/120/1 53/116/1 41/117/1
f 39/119/1 53/116/1 40/120/1
f 12/118/1 53/116/1 39/119/1
f 12/118/1 54/121/1 53/116/1
f 12/118/1 55/122/1 54/121/1
f 11/123/1 55/122/1 12/118/1
f 10/124/1 55/122/1 11/123/1
f 9/125/1 55/122/1 10/124/1
f 8/126/1 55/122/1 9/125/1
f 7/127/1 55/122/1 8/126/1
f 6/128/1 55/122/1 7/127/1
f 5/129/1 55/122/1 6/128/1
f 4/130/1 55/122/1 5/129/1
f 3/131/1 55/122/1 4/130/1
f 2/132/1 55/122/1 3/131/1
f 2/132/1 56/133/1 55/122/1
f 1/134/1 56/133/1 2/132/1
f 197/135/1 199/136/1 198/137/1
f 210/138/1 56/133/1 1/134/1
f 209/139/1 56/133/1 210/138/1
f 197/135/1 200/140/1 199/136/1
f 208/141/1 56/133/1 209/139/1
f 197/135/1 201/142/1 200/140/1
f 207/143/1 56/133/1 208/141/1
f 197/135/1 202/144/1 201/142/1
f 206/145/1 56/133/1 207/143/1
f 197/135/1 203/146/1 202/144/1
f 205/147/1 56/133/1 206/145/1
f 197/135/1 204/148/1 203/146/1
f 204/148/1 56/133/1 205/147/1
f 197/135/1 56/133/1 204/148/1
f 197/135/1 196/149/1 56/133/1
f 196/149/1 195/150/1 56/133/1
f 195/150/1 57/151/1 56/133/1
f 195/150/1 194/152/1 57/151/1
f 194/152/1 193/153/1 57/151/1
f 193/153/1 192/154/1 57/151/1
f 192/154/1 191/155/1 57/151/1
f 191/155/1 190/156/1 57/151/1
f 190/156/1 185/157/1 57/151/1
f 185/157/1 184/158/1 57/151/1
f 184/158/1 58/159/1 57/151/1
f 184/158/1 159/160/1 58/159/1
f 159/160/1 158/161/1 58/159/1
f 158/161/1 157/162/1 58/159/1
f 157/162/1 156/163/1 58/159/1
f 156/163/1 155/164/1 58/159/1
f 155/164/1 154/165/1 58/159/1
f 154/165/1 153/166/1 58/159/1
f 153/166/1 152/167/1 58/159/1
f 152/167/1 151/168/1 58/159/1
f 151/168/1 150/169/1 58/159/1
f 150/169/1 149/170/1 58/159/1
f 149/170/1 148/171/1 58/159/1
f 148/171/1 147/172/1 58/159/1
f 147/172/1 59/173/1 58/159/1
f 146/174/1 59/173/1 147/172/1
f 145/175/1 59/173/1 146/174/1
f 145/175/1 60/176/1 59/173/1
f 144/177/1 60/176/1 145/175/1
f 143/178/1 60/176/1 144/177/1
f 184/158/1 160/179/1 159/160/1
f 142/180/1 60/176/1 143/178/1
f 141/181/1 60/176/1 142/180/1
f 183/182/1 160/179/1 184/158/1
f 140/183/1 60/176/1 141/181/1
f 139/184/1 60/176/1 140/183/1
f 139/184/1 61/185/1 60/176/1
f 190/156/1 189/186/1 185/157/1
f 189/186/1 186/187/1 185/157/1
f 189/186/1 187/188/1 186/187/1
f 189/186/2 188/189/2 187/188/2
f 138/190/1 61/185/1 139/184/1
f 183/182/1 161/191/1 160/179/1
f 182/192/1 161/191/1 183/182/1
f 137/193/1 61/185/1 138/190/1
f 137/193/1 62/194/1 61/185/1
f 136/195/1 62/194/1 137/193/1
f 181/196/1 161/191/1 182/192/1
f 181/196/1 162/197/1 161/191/1
f 135/198/1 62/194/1 136/195/1
f 135/198/1 63/199/1 62/194/1
f 134/200/1 63/199/1 135/198/1
f 180/201/1 162/197/1 181/196/1
f 134/200/1 64/202/1 63/199/1
f 180/201/1 163/203/1 162/197/1
f 133/204/1 64/202/1 134/200/1
f 133/204/1 65/205/1 64/202/1
f 132/206/1 65/205/1 133/204/1
f 179/207/1 163/203/1 180/201/1
f 179/207/1 164/208/1 163/203/1
f 131/209/1 65/205/1 132/206/1
f 131/209/1 66/210/1 65/205/1
f 178/211/1 164/208/1 179/207/1
f 130/212/1 66/210/1 131/209/1
f 178/211/1 165/213/1 164/208/1
f 130/212/1 67/214/1 66/210/1
f 129/215/1 67/214/1 130/212/1
f 177/216/1 165/213/1 178/211/1
f 129/215/1 68/217/1 67/214/1
f 177/216/1 166/218/1 165/213/1
f 128/219/1 68/217/1 129/215/1
f 128/219/1 69/220/1 68/217/1
f 127/221/1 69/220/1 128/219/1
f 176/222/1 166/218/1 177/216/1
f 176/222/1 167/223/1 166/218/1
f 127/221/1 70/224/1 69/220/1
f 126/225/1 70/224/1 127/221/1
f 175/226/1 167/223/1 176/222/1
f 125/227/1 70/224/1 126/225/1
f 125/227/1 71/228/1 70/224/1
f 175/226/1 168/229/1 167/223/1
f 124/230/1 71/228/1 125/227/1
f 124/230/1 72/231/1 71/228/1
f 174/232/1 168/229/1 175/226/1
f 123/233/1 72/231/1 124/230/1
f 122/234/1 72/231/1 123/233/1
f 174/232/1 169/235/1 168/229/1
f 122/234/1 73/236/1 72/231/1
f 121/237/1 73/236/1 122/234/1
f 120/238/1 73/236/1 121/237/1
f 98/239/1 100/240/1 99/241/1
f 173/242/1 169/235/1 174/232/1
f 119/243/1 73/236/1 120/238/1
f 98/239/1 101/244/1 100/240/1
f 118/245/1 73/236/1 119/243/1
f 98/239/1 102/246/1 101/244/1
f 118/245/1 74/247/1 73/236/1
f 117/248/1 74/247/1 118/245/1
f 98/239/1 103/249/1 102/246/1
f 98/239/1 104/250/1 103/249/1
f 116/251/1 74/247/1 117/248/1
f 98/239/1 105/252/1 104/250/1
f 115/253/1 74/247/1 116/251/1
f 98/239/1 106/254/1 105/252/1
f 98/239/1 107/255/1 106/254/1
f 114/256/1 74/247/1 115/253/1
f 98/239/1 108/257/1 107/255/1
f 113/258/1 74/247/1 114/256/1
f 98/239/1 109/259/1 108/257/1
f 112/260/1 74/247/1 113/258/1
f 98/239/1 110/261/1 109/259/1
f 111/262/1 74/247/1 112/260/1
f 98/239/1 111/262/1 110/261/1
f 98/239/1 74/247/1 111/262/1
f 173/242/1 170/263/1 169/235/1
f 98/239/1 75/264/1 74/247/1
f 172/265/1 170/263/1 173/242/1
f 98/239/1 76/266/1 75/264/1
f 98/239/1 77/267/1 76/266/1
f 172/265/1 171/268/1 170/263/1
f 98/239/1 78/269/1 77/267/1
f 98/239/1 79/270/1 78/269/1
f 98/239/1 80/271/1 79/270/1
f 98/239/1 81/272/1 80/271/1
f 97/273/1 81/272/1 98/239/1
f 96/274/1 81/272/1 97/273/1
f 96/274/1 82/275/1 81/272/1
f 95/276/1 82/275/1 96/274/1
f 94/277/1 82/275/1 95/276/1
f 93/278/1 82/275/1 94/277/1
f 93/278/1 83/279/1 82/275/1
f 92/280/1 83/279/1 93/278/1
f 91/281/1 83/279/1 92/280/1
f 91/281/1 84/282/1 83/279/1
f 90/283/1 84/282/1 91/281/1
f 89/284/1 84/282/1 90/283/1
f 89/284/1 85/285/1 84/282/1
f 88/286/1 85/285/1 89/284/1
f 87/287/1 85/285/1 88/286/1
f 87/287/1 86/288/1 85/285/1
f 563/1/3 564/3/3 565/2/3
f 563/1/3 565/2/3 566/4/3
f 563/1/3 566/4/3 567/5/3
f 562/6/3 563/1/3 567/5/3
f 562/6/3 567/5/3 568/7/3
f 537/8/3 538/10/3 539/9/3
f 562/6/3 568/7/3 569/11/3
f 561/12/3 562/6/3 569/11/3
f 537/8/3 539/9/3 540/13/3
f 560/14/3 561/12/3 569/11/3
f 560/14/3 569/11/3 570/15/3
f 537/8/3 540/13/3 541/16/3
f 536/17/3 537/8/3 541/16/3
f 559/18/3 560/14/3 570/15/3
f 559/18/3 570/15/3 571/19/3
f 536/17/3 541/16/3 542/20/3
f 558/21/3 559/18/3 571/19/3
f 558/21/3 571/19/3 572/22/3
f 536/17/3 542/20/3 543/23/3
f 535/24/3 536/17/3 543/23/3
f 557/25/3 558/21/3 572/22/3
f 557/25/3 572/22/3 573/26/3
f 534/27/3 535/24/3 543/23/3
f 534/27/3 543/23/3 544/28/3
f 556/29/3 557/25/3 573/26/3
f 556/29/3 573/26/3 574/30/3
f 533/31/3 534/27/3 544/28/3
f 533/31/3 544/28/3 545/32/3
f 555/33/3 556/29/3 574/30/3
f 555/33/3 574/30/3 575/34/3
f 532/35/3 533/31/3 545/32/3
f 532/35/3 545/32/3 546/36/3
f 554/37/3 555/33/3 575/34/3
f 554/37/3 575/34/3 576/38/3
f 531/39/3 532/35/3 546/36/3
f 531/39/3 546/36/3 547/40/3
f 553/41/3 554/37/3 576/38/3
f 530/42/3 531/39/3 547/40/3
f 530/42/3 547/40/3 548/43/3
f 553/41/3 576/38/3 552/44/3
f 552/44/3 576/38/3 551/45/3
f 529/46/3 530/42/3 548/43/3
f 529/46/3 548/43/3 549/47/3
f 528/48/3 529/46/3 549/47/3
f 528/48/3 549/47/3 550/49/3
f 527/50/3 528/48/3 550/49/3
f 511/51/3 512/53/3 513/52/3
f 527/50/3 550/49/3 526/54/3
f 526/54/3 550/49/3 525/55/3
f 511/51/3 513/52/3 514/56/3
f 510/57/3 511/51/3 514/56/3
f 510/57/3 514/56/3 515/58/3
f 509/59/3 510/57/3 515/58/3
f 509/59/3 515/58/3 516/60/3
f 508/61/3 509/59/3 516/60/3
f 508/61/3 516/60/3 517/62/3
f 507/63/3 508/61/3 517/62/3
f 507/63/3 517/62/3 518/64/3
f 506/65/3 507/63/3 518/64/3
f 506/65/3 518/64/3 519/66/3
f 505/67/3 506/65/3 519/66/3
f 505/67/3 519/66/3 520/68/3
f 504/69/3 505/67/3 520/68/3
f 504/69/3 520/68/3 521/70/3
f 503/71/3 504/69/3 521/70/3
f 503/71/3 521/70/3 522/72/3
f 502/73/3 503/71/3 522/72/3
f 502/73/3 522/72/3 523/74/3
f 501/75/3 502/73/3 523/74/3
f 501/75/3 523/74/3 524/76/3
f 500/77/3 501/75/3 524/76/3
f 500/77/3 524/76/3 499/78/3
f 311/79/3 312/81/3 313/80/3
f 311/79/3 313/80/3 314/82/3
f 311/79/3 314/82/3 315/83/3
f 310/84/3 311/79/3 315/83/3
f 310/84/3 315/83/3 316/85/3
f 310/84/3 316/85/3 317/86/3
f 310/84/3 317/86/3 318/87/3
f 309/88/3 310/84/3 318/87/3
f 309/88/3 318/87/3 319/89/3
f 309/88/3 319/89/3 320/90/3
f 309/88/3 320/90/3 321/91/3
f 309/88/3 321/91/3 322/92/3
f 308/93/3 309/88/3 322/92/3
f 308/93/3 322/92/3 323/94/3
f 308/93/3 323/94/3 324/95/3
f 308/93/3 324/95/3 325/96/3
f 307/97/3 308/93/3 325/96/3
f 307/97/3 325/96/3 326/98/3
f 306/99/3 307/97/3 326/98/3
f 305/100/3 306/99/3 326/98/3
f 304/101/3 305/100/3 326/98/3
f 303/102/3 304/101/3 326/98/3
f 302/103/3 303/102/3 326/98/3
f 301/104/3 302/103/3 326/98/3
f 337/105/3 338/107/3 339/106/3
f 336/108/3 337/105/3 339/106/3
f 335/109/3 336/108/3 339/106/3
f 334/110/3 335/109/3 339/106/3
f 334/110/3 339/106/3 340/111/3
f 333/112/3 334/110/3 340/111/3
f 332/113/3 333/112/3 340/111/3
f 331/114/3 332/113/3 340/111/3
f 330/115/3 331/114/3 340/111/3
f 330/115/3 340/111/3 341/116/3
f 329/117/3 330/115/3 341/116/3
f 300/118/3 301/104/3 327/119/3
f 327/119/3 301/104/3 326/98/3
f 328/120/3 329/117/3 341/116/3
f 327/119/3 328/120/3 341/116/3
f 300/118/3 327/119/3 341/116/3
f 300/118/3 341/116/3 342/121/3
f 300/118/3 342/121/3 343/122/3
f 299/123/3 300/118/3 343/122/3
f 298/124/3 299/123/3 343/122/3
f 297/125/3 298/124/3 343/122/3
f 296/126/3 297/125/3 343/122/3
f 295/127/3 296/126/3 343/122/3
f 294/128/3 295/127/3 343/122/3
f 293/129/3 294/128/3 343/122/3
f 292/130/3 293/129/3 343/122/3
f 291/131/3 292/130/3 343/122/3
f 290/132/3 291/131/3 343/122/3
f 290/132/3 343/122/3 344/133/3
f 289/134/3 290/132/3 344/133/3
f 485/135/3 486/137/3 487/136/3
f 498/138/3 289/134/3 344/133/3
f 497/139/3 498/138/3 344/133/3
f 485/135/3 487/136/3 488/140/3
f 496/141/3 497/139/3 344/133/3
f 485/135/3 488/140/3 489/142/3
f 495/143/3 496/141/3 344/133/3
f 485/135/3 489/142/3 490/144/3
f 494/145/3 495/143/3 344/133/3
f 485/135/3 490/144/3 491/146/3
f 493/147/3 494/145/3 344/133/3
f 485/135/3 491/146/3 492/148/3
f 492/148/3 493/147/3 344/133/3
f 485/135/3 492/148/3 344/133/3
f 485/135/3 344/133/3 484/149/3
f 484/149/3 344/133/3 483/150/3
f 483/150/3 344/133/3 345/151/3
f 483/150/3 345/151/3 482/152/3
f 482/152/3 345/151/3 481/153/3
f 481/153/3 345/151/3 480/154/3
f 480/154/3 345/151/3 479/155/3
f 479/155/3 345/151/3 478/156/3
f 478/156/3 345/151/3 473/157/3
f 473/157/3 345/151/3 472/158/3
f 472/158/3 345/151/3 346/159/3
f 472/158/3 346/159/3 447/160/3
f 447/160/3 346/159/3 446/161/3
f 446/161/3 346/159/3 445/162/3
f 445/162/3 346/159/3 444/163/3
f 444/163/3 346/159/3 443/164/3
f 443/164/3 346/159/3 442/165/3
f 442/165/3 346/159/3 441/166/3
f 441/166/3 346/159/3 440/167/3
f 440/167/3 346/159/3 439/168/3
f 439/168/3 346/159/3 438/169/3
f 438/169/3 346/159/3 437/170/3
f 437/170/3 346/159/3 436/171/3
f 436/171/3 346/159/3 435/172/3
f 435/172/3 346/159/3 347/173/3
f 434/174/3 435/172/3 347/173/3
f 433/175/3 434/174/3 347/173/3
f 433/175/3 347/173/3 348/176/3
f 432/177/3 433/175/3 348/176/3
f 431/178/3 432/177/3 348/176/3
f 472/158/3 447/160/3 448/179/3
f 430/180/3 431/178/3 348/176/3
f 429/181/3 430/180/3 348/176/3
f 471/182/3 472/158/3 448/179/3
f 428/183/3 429/181/3 348/176/3
f 427/184/3 428/183/3 348/176/3
f 427/184/3 348/176/3 349/185/3
f 478/156/3 473/157/3 477/186/3
f 477/186/3 473/157/3 474/187/3
f 477/186/3 474/187/3 475/188/3
f 477/186/4 475/188/4 476/189/4
f 426/190/3 427/184/3 349/185/3
f 471/182/3 448/179/3 449/191/3
f 470/192/3 471/182/3 449/191/3
f 425/193/3 426/190/3 349/185/3
f 425/193/3 349/185/3 350/194/3
f 424/195/3 425/193/3 350/194/3
f 469/196/3 470/192/3 449/191/3
f 469/196/3 449/191/3 450/197/3
f 423/198/3 424/195/3 350/194/3
f 423/198/3 350/194/3 351/199/3
f 422/200/3 423/198/3 351/199/3
f 468/201/3 469/196/3 450/197/3
f 422/200/3 351/199/3 352/202/3
f 468/201/3 450/197/3 451/203/3
f 421/204/3 422/200/3 352/202/3
f 421/204/3 352/202/3 353/205/3
f 420/206/3 421/204/3 353/205/3
f 467/207/3 468/201/3 451/203/3
f 467/207/3 451/203/3 452/208/3
f 419/209/3 420/206/3 353/205/3
f 419/209/3 353/205/3 354/210/3
f 466/211/3 467/207/3 452/208/3
f 418/212/3 419/209/3 354/210/3
f 466/211/3 452/208/3 453/213/3
f 418/212/3 354/210/3 355/214/3
f 417/215/3 418/212/3 355/214/3
f 465/216/3 466/211/3 453/213/3
f 417/215/3 355/214/3 356/217/3
f 465/216/3 453/213/3 454/218/3
f 416/219/3 417/215/3 356/217/3
f 416/219/3 356/217/3 357/220/3
f 415/221/3 416/219/3 357/220/3
f 464/222/3 465/216/3 454/218/3
f 464/222/3 454/218/3 455/223/3
f 415/221/3 357/220/3 358/224/3
f 414/225/3 415/221/3 358/224/3
f 463/226/3 464/222/3 455/223/3
f 413/227/3 414/225/3 358/224/3
f 413/227/3 358/224/3 359/228/3
f 463/226/3 455/223/3 456/229/3
f 412/230/3 413/227/3 359/228/3
f 412/230/3 359/228/3 360/231/3
f 462/232/3 463/226/3 456/229/3
f 411/233/3 412/230/3 360/231/3
f 410/234/3 411/233/3 360/231/3
f 462/232/3 456/229/3 457/235/3
f 410/234/3 360/231/3 361/236/3
f 409/237/3 410/234/3 361/236/3
f 408/238/3 409/237/3 361/236/3
f 386/239/3 387/241/3 388/240/3
f 461/242/3 462/232/3 457/235/3
f 407/243/3 408/238/3 361/236/3
f 386/239/3 388/240/3 389/244/3
f 406/245/3 407/243/3 361/236/3
f 386/239/3 389/244/3 390/246/3
f 406/245/3 361/236/3 362/247/3
f 405/248/3 406/245/3 362/247/3
f 386/239/3 390/246/3 391/249/3
f 386/239/3 391/249/3 392/250/3
f 404/251/3 405/248/3 362/247/3
f 386/239/3 392/250/3 393/252/3
f 403/253/3 404/251/3 362/247/3
f 386/239/3 393/252/3 394/254/3
f 386/239/3 394/254/3 395/255/3
f 402/256/3 403/253/3 362/247/3
f 386/239/3 395/255/3 396/257/3
f 401/258/3 402/256/3 362/247/3
f 386/239/3 396/257/3 397/259/3
f 400/260/3 401/258/3 362/247/3
f 386/239/3 397/259/3 398/261/3
f 399/262/3 400/260/3 362/247/3
f 386/239/3 398/261/3 399/262/3
f 386/239/3 399/262/3 362/247/3
f 461/242/3 457/235/3 458/263/3
f 386/239/3 362/247/3 363/264/3
f 460/265/3 461/242/3 458/263/3
f 386/239/3 363/264/3 364/266/3
f 386/239/3 364/266/3 365/267/3
f 460/265/3 458/263/3 459/268/3
f 386/239/3 365/267/3 366/269/3
f 386/239/3 366/269/3 367/270/3
f 386/239/3 367/270/3 368/271/3
f 386/239/3 368/271/3 369/272/3
f 385/273/3 386/239/3 369/272/3
f 384/274/3 385/273/3 369/272/3
f 384/274/3 369/272/3 370/275/3
f 383/276/3 384/274/3 370/275/3
f 382/277/3 383/276/3 370/275/3
f 381/278/3 382/277/3 370/275/3
f 381/278/3 370/275/3 371/279/3
f 380/280/3 381/278/3 371/279/3
f 379/281/3 380/280/3 371/279/3
f 379/281/3 371/279/3 372/282/3
f 378/283/3 379/281/3 372/282/3
f 377/284/3 378/283/3 372/282/3
f 377/284/3 372/282/3 373/285/3
f 376/286/3 377/284/3 373/285/3
f 375/287/3 376/286/3 373/285/3
f 375/287/3 373/285/3 374/288/3
s 1
f 580/289/5 577/134/6 578/290/6
f 582/291/7 579/292/5 580/289/5
f 584/293/8 581/294/7 582/291/7
f 586/295/9 583/296/8 584/293/8
f 588/297/10 585/298/9 586/295/9
f 590/299/11 587/300/10 588/297/10
f 592/301/12 589/302/11 590/299/11
f 594/303/13 591/304/12 592/301/12
f 596/305/14 593/306/13 594/303/13
f 598/307/15 595/308/14 596/305/14
f 600/309/16 597/310/15 598/307/15
f 602/311/17 599/312/16 600/309/16
f 604/313/18 601/314/17 602/311/17
f 606/315/19 603/316/18 604/313/18
f 608/317/20 605/318/19 606/315/19
f 610/319/21 607/320/20 608/317/20
f 612/321/22 609/322/21 610/319/21
f 614/323/23 611/324/22 612/321/22
f 616/325/24 613/326/23 614/323/23
f 618/327/25 615/328/24 616/325/24
f 620/329/26 617/330/25 618/327/25
f 622/331/27 619/332/26 620/329/26
f 624/333/28 621/334/27 622/331/27
f 626/335/29 623/336/28 624/333/28
f 628/337/30 625/338/29 626/335/29
f 578/339/6 627/340/30 628/337/30
f 632/289/31 629/134/32 630/290/32
f 634/291/33 631/292/31 632/289/31
f 636/293/34 633/294/35 634/291/33
f 638/295/36 635/296/37 636/293/34
f 640/297/38 637/298/36 638/295/36
f 642/299/39 639/300/38 640/297/38
f 644/301/40 641/302/39 642/299/39
f 646/303/41 643/304/40 644/301/40
f 648/305/42 645/306/41 646/303/41
f 650/307/43 647/308/42 648/305/42
f 652/309/44 649/310/43 650/307/43
f 654/311/45 651/312/44 652/309/44
f 656/313/46 653/314/45 654/311/45
f 658/315/47 655/316/46 656/313/46
f 660/317/48 657/318/47 658/315/47
f 662/319/49 659/320/48 660/317/48
f 664/321/50 661/322/49 662/319/49
f 666/323/51 663/324/50 664/321/50
f 668/325/52 665/326/51 666/323/51
f 670/327/53 667/328/52 668/325/52
f 672/329/54 669/330/53 670/327/53
f 674/331/55 671/332/54 672/329/54
f 676/333/56 673/334/55 674/331/55
f 678/335/57 675/336/56 676/333/56
f 680/337/58 677/338/57 678/335/57
f 630/339/32 679/340/58 680/337/58
f 684/289/59 681/134/60 682/290/60
f 686/291/61 683/292/59 684/289/59
f 688/293/62 685/294/61 686/291/61
f 690/295/63 687/296/62 688/293/62
f 692/297/64 689/298/63 690/295/63
f 694/299/65 691/300/64 692/297/64
f 696/301/66 693/302/65 694/299/65
f 698/303/67 695/304/66 696/301/66
f 700/305/68 697/306/67 698/303/67
f 702/307/69 699/308/68 700/305/68
f 704/309/70 701/310/69 702/307/69
f 706/311/71 703/312/70 704/309/70
f 708/313/72 705/314/71 706/311/71
f 710/315/73 707/316/74 708/313/72
f 712/317/75 709/318/73 710/315/73
f 714/319/76 711/320/75 712/317/75
f 716/321/77 713/322/76 714/319/76
f 718/323/78 715/324/77 716/321/77
f 720/325/79 717/326/78 718/323/78
f 722/327/80 719/328/79 720/325/79
f 724/329/81 721/330/80 722/327/80
f 726/331/82 723/332/81 724/329/81
f 728/333/83 725/334/82 726/331/82
f 730/335/84 727/336/83 728/333/83
f 732/337/85 729/338/84 730/335/84
f 682/339/60 731/340/85 732/337/85
f 736/341/86 733/134/87 734/290/87
f 738/342/88 735/343/86 736/341/86
f 740/344/89 737/345/88 738/342/88
f 742/346/90 739/347/89 740/344/89
f 744/348/91 741/349/90 742/346/90
f 746/350/92 743/351/91 744/348/91
f 748/352/93 745/353/92 746/350/92
f 750/354/94 747/355/93 748/352/93
f 752/356/95 749/357/94 750/354/94
f 754/358/95 751/359/95 752/356/95
f 756/360/96 753/361/95 754/358/95
f 758/362/97 755/363/96 756/360/96
f 760/364/98 757/365/97 758/362/97
f 762/366/99 759/367/98 760/364/98
f 764/368/100 761/369/99 762/366/99
f 766/370/101 763/371/100 764/368/100
f 768/372/102 765/373/101 766/370/101
f 770/374/103 767/375/102 768/372/102
f 772/376/104 769/377/103 770/374/103
f 774/378/105 771/379/104 772/376/104
f 776/380/106 773/381/105 774/378/105
f 778/382/107 775/383/106 776/380/106
f 780/384/108 777/385/107 778/382/107
f 782/386/109 779/387/110 780/384/108
f 784/388/111 781/389/109 782/386/109
f 786/390/112 783/391/111 784/388/111
f 788/392/113 785/393/112 786/390/112
f 790/394/114 787/395/113 788/392/113
f 792/396/115 789/397/114 790/394/114
f 794/398/116 791/399/115 792/396/115
f 796/400/117 793/115/116 794/398/116
f 798/401/118 795/402/117 796/400/117
f 800/403/119 797/404/118 798/401/118
f 802/405/120 799/406/119 800/403/119
f 804/407/121 801/408/120 802/405/120
f 806/409/122 803/410/121 804/407/121
f 808/411/123 805/412/122 806/409/122
f 810/413/124 807/414/123 808/411/123
f 812/415/125 809/416/126 810/413/124
f 814/417/127 811/418/125 812/415/125
f 816/419/128 813/420/127 814/417/127
f 818/421/129 815/422/128 816/419/128
f 820/423/130 817/424/129 818/421/129
f 822/425/131 819/426/130 820/423/130
f 824/427/132 821/428/131 822/425/131
f 826/429/133 823/430/132 824/427/132
f 828/431/134 825/432/133 826/429/133
f 830/433/135 827/434/134 828/431/134
f 832/435/136 829/436/135 830/433/135
f 834/437/137 831/438/136 832/435/136
f 836/439/138 833/440/137 834/437/137
f 838/441/139 835/442/138 836/439/138
f 840/443/140 837/444/139 838/441/139
f 842/445/141 839/446/140 840/443/140
f 844/447/142 841/448/143 842/445/141
f 846/449/144 843/450/142 844/447/142
f 848/451/145 845/452/144 846/449/144
f 850/453/146 847/454/145 848/451/145
f 852/455/147 849/456/146 850/453/146
f 854/457/148 851/458/149 852/455/147
f 856/459/150 853/279/148 854/457/148
f 858/460/151 855/461/150 856/459/150
f 860/462/152 857/463/151 858/460/151
f 862/464/153 859/465/152 860/462/152
f 864/466/154 861/467/153 862/464/153
f 866/468/155 863/469/154 864/466/154
f 868/470/156 865/471/155 866/468/155
f 870/472/157 867/473/156 868/470/156
f 872/474/158 869/475/157 870/472/157
f 874/476/159 871/477/158 872/474/158
f 876/478/160 873/479/159 874/476/159
f 878/480/161 875/481/160 876/478/160
f 880/482/162 877/483/161 878/480/161
f 882/484/163 879/485/162 880/482/162
f 884/486/164 881/487/165 882/484/163
f 886/488/166 883/489/164 884/486/164
f 888/490/167 885/491/166 886/488/166
f 890/492/168 887/493/167 888/490/167
f 892/494/169 889/495/168 890/492/168
f 894/496/170 891/497/169 892/494/169
f 896/498/171 893/499/170 894/496/170
f 898/500/172 895/501/171 896/498/171
f 900/502/173 897/503/172 898/500/172
f 902/504/174 899/505/173 900/502/173
f 904/506/175 901/507/174 902/504/174
f 906/508/176 903/509/175 904/506/175
f 908/510/177 905/511/176 906/508/176
f 910/512/178 907/513/177 908/510/177
f 912/514/179 909/515/178 910/512/178
f 914/516/180 911/517/179 912/514/179
f 916/518/181 913/230/180 914/516/180
f 918/519/182 915/520/181 916/518/181
f 920/521/183 917/522/182 918/519/182
f 922/523/184 919/524/183 920/521/183
f 924/525/185 921/526/184 922/523/184
f 926/527/186 923/528/185 924/525/185
f 928/529/187 925/530/186 926/527/186
f 930/531/188 927/532/187 928/529/187
f 932/533/189 929/534/188 930/531/188
f 934/535/190 931/536/189 932/533/189
f 936/537/191 933/538/190 934/535/190
f 938/539/192 935/540/191 936/537/191
f 940/541/193 937/542/192 938/539/192
f 942/543/194 939/544/193 940/541/193
f 944/313/195 941/545/194 942/543/194
f 946/546/196 943/316/195 944/313/195
f 948/547/197 945/548/196 946/546/196
f 950/549/198 947/550/197 948/547/197
f 952/551/199 949/552/198 950/549/198
f 954/553/200 951/554/199 952/551/199
f 956/555/201 953/556/200 954/553/200
f 958/557/202 955/558/201 956/555/201
f 960/559/203 957/560/202 958/557/202
f 962/561/204 959/562/203 960/559/203
f 964/563/205 961/564/204 962/561/204
f 966/565/206 963/566/205 964/563/205
f 968/567/207 965/568/206 966/565/206
f 970/569/208 967/570/207 968/567/207
f 972/571/209 969/572/208 970/569/208
f 974/573/210 971/574/209 972/571/209
f 976/575/211 973/213/210 974/573/210
f 978/576/212 975/577/211 976/575/211
f 980/578/213 977/579/212 978/576/212
f 982/580/214 979/581/213 980/578/213
f 984/582/215 981/583/214 982/580/214
f 986/584/216 983/585/215 984/582/215
f 988/586/217 985/587/216 986/584/216
f 990/588/218 987/589/217 988/586/217
f 992/590/219 989/591/218 990/588/218
f 994/592/220 991/593/219 992/590/219
f 996/594/221 993/595/220 994/592/220
f 998/596/222 995/597/221 996/594/221
f 1000/598/223 997/599/222 998/596/222
f 1002/600/224 999/601/223 1000/598/223
f 1004/602/225 1001/603/224 1002/600/224
f 1006/604/226 1003/605/225 1004/602/225
f 1008/606/227 1005/607/226 1006/604/226
f 1010/608/228 1007/609/227 1008/606/227
f 1012/610/229 1009/611/228 1010/608/228
f 1014/612/230 1011/613/229 1012/610/229
f 1016/614/231 1013/615/230 1014/612/230
f 1018/616/232 1015/617/231 1016/614/231
f 1020/618/233 1017/619/232 1018/616/232
f 1022/620/234 1019/621/233 1020/618/233
f 1024/622/235 1021/623/234 1022/620/234
f 1026/624/236 1023/625/235 1024/622/235
f 1028/626/237 1025/627/236 1026/624/236
f 1030/628/238 1027/629/237 1028/626/237
f 1032/630/239 1029/631/238 1030/628/238
f 1034/632/240 1031/633/239 1032/630/239
f 1036/634/241 1033/145/240 1034/632/240
f 1038/635/242 1035/636/241 1036/634/241
f 1040/637/243 1037/638/242 1038/635/242
f 1042/639/244 1039/640/243 1040/637/243
f 1044/641/245 1041/642/244 1042/639/244
f 1046/643/246 1043/644/245 1044/641/245
f 1048/645/247 1045/646/246 1046/643/246
f 1050/647/248 1047/648/247 1048/645/247
f 1052/649/249 1049/650/250 1050/647/248
f 1054/651/251 1051/652/249 1052/649/249
f 1056/653/252 1053/654/251 1054/651/251
f 1058/655/253 1055/656/252 1056/653/252
f 1060/657/254 1057/658/253 1058/655/253
f 1062/659/255 1059/660/254 1060/657/254
f 1064/661/256 1061/662/255 1062/659/255
f 1066/663/257 1063/664/256 1064/661/256
f 1068/665/258 1065/666/257 1066/663/257
f 1070/667/259 1067/668/258 1068/665/258
f 1072/669/260 1069/670/259 1070/667/259
f 1074/671/261 1071/672/260 1072/669/260
f 1076/673/262 1073/674/261 1074/671/261
f 1078/675/263 1075/676/262 1076/673/262
f 1080/677/264 1077/678/263 1078/675/263
f 1082/679/265 1079/680/264 1080/677/264
f 1084/681/266 1081/682/265 1082/679/265
f 1086/683/267 1083/684/266 1084/681/266
f 1088/685/268 1085/686/267 1086/683/267
f 1090/687/269 1087/688/268 1088/685/268
f 1092/689/270 1089/690/269 1090/687/269
f 1094/691/271 1091/692/270 1092/689/270
f 1096/693/272 1093/24/271 1094/691/271
f 1098/694/273 1095/695/272 1096/693/272
f 1100/696/274 1097/697/273 1098/694/273
f 1102/698/275 1099/699/274 1100/696/274
f 1104/700/276 1101/701/275 1102/698/275
f 1106/702/277 1103/703/276 1104/700/276
f 1108/704/278 1105/705/277 1106/702/277
f 1110/706/279 1107/707/278 1108/704/278
f 1112/708/280 1109/709/279 1110/706/279
f 1114/710/281 1111/711/280 1112/708/280
f 1116/712/282 1113/713/281 1114/710/281
f 1118/714/283 1115/715/282 1116/712/282
f 1120/716/284 1117/717/283 1118/714/283
f 1122/718/285 1119/719/284 1120/716/284
f 1124/720/286 1121/721/285 1122/718/285
f 1126/722/287 1123/723/286 1124/720/286
f 1128/724/288 1125/725/289 1126/722/287
f 1130/726/290 1127/727/288 1128/724/288
f 1132/728/291 1129/729/290 1130/726/290
f 1134/730/292 1131/731/291 1132/728/291
f 1136/732/293 1133/733/292 1134/730/292
f 1138/734/294 1135/735/293 1136/732/293
f 1140/736/295 1137/737/294 1138/734/294
f 1142/738/296 1139/739/295 1140/736/295
f 1144/740/297 1141/741/296 1142/738/296
f 1146/742/298 1143/743/297 1144/740/297
f 1148/744/299 1145/745/298 1146/742/298
f 1150/746/300 1147/747/299 1148/744/299
f 1152/748/301 1149/749/300 1150/746/300
f 734/339/87 1151/750/301 1152/748/301
f 580/289/5 579/292/5 577/134/6
f 582/291/7 581/294/7 579/292/5
f 584/293/8 583/296/8 581/294/7
f 586/295/9 585/298/9 583/296/8
f 588/297/10 587/300/10 585/298/9
f 590/299/11 589/302/11 587/300/10
f 592/301/12 591/304/12 589/302/11
f 594/303/13 593/306/13 591/304/12
f 596/305/14 595/308/14 593/306/13
f 598/307/15 597/310/15 595/308/14
f 600/309/16 599/312/16 597/310/15
f 602/311/17 601/314/17 599/312/16
f 604/313/18 603/316/18 601/314/17
f 606/315/19 605/318/19 603/316/18
f 608/317/20 607/320/20 605/318/19
f 610/319/21 609/322/21 607/320/20
f 612/321/22 611/324/22 609/322/21
f 614/323/23 613/326/23 611/324/22
f 616/325/24 615/328/24 613/326/23
f 618/327/25 617/330/25 615/328/24
f 620/329/26 619/332/26 617/330/25
f 622/331/27 621/334/27 619/332/26
f 624/333/28 623/336/28 621/334/27
f 626/335/29 625/338/29 623/336/28
f 628/337/30 627/340/30 625/338/29
f 578/339/6 577/38/6 627/340/30
f 632/289/31 631/292/31 629/134/32
f 634/291/33 633/294/35 631/292/31
f 636/293/34 635/296/37 633/294/35
f 638/295/36 637/298/36 635/296/37
f 640/297/38 639/300/38 637/298/36
f 642/299/39 641/302/39 639/300/38
f 644/301/40 643/304/40 641/302/39
f 646/303/41 645/306/41 643/304/40
f 648/305/42 647/308/42 645/306/41
f 650/307/43 649/310/43 647/308/42
f 652/309/44 651/312/44 649/310/43
f 654/311/45 653/314/45 651/312/44
f 656/313/46 655/316/46 653/314/45
f 658/315/47 657/318/47 655/316/46
f 660/317/48 659/320/48 657/318/47
f 662/319/49 661/322/49 659/320/48
f 664/321/50 663/324/50 661/322/49
f 666/323/51 665/326/51 663/324/50
f 668/325/52 667/328/52 665/326/51
f 670/327/53 669/330/53 667/328/52
f 672/329/54 671/332/54 669/330/53
f 674/331/55 673/334/55 671/332/54
f 676/333/56 675/336/56 673/334/55
f 678/335/57 677/338/57 675/336/56
f 680/337/58 679/340/58 677/338/57
f 630/339/32 629/38/32 679/340/58
f 684/289/59 683/292/59 681/134/60
f 686/291/61 685/294/61 683/292/59
f 688/293/62 687/296/62 685/294/61
f 690/295/63 689/298/63 687/296/62
f 692/297/64 691/300/64 689/298/63
f 694/299/65 693/302/65 691/300/64
f 696/301/66 695/304/66 693/302/65
f 698/303/67 697/306/67 695/304/66
f 700/305/68 699/308/68 697/306/67
f 702/307/69 701/310/69 699/308/68
f 704/309/70 703/312/70 701/310/69
f 706/311/71 705/314/71 703/312/70
f 708/313/72 707/316/74 705/314/71
f 710/315/73 709/318/73 707/316/74
f 712/317/75 711/320/75 709/318/73
f 714/319/76 713/322/76 711/320/75
f 716/321/77 715/324/77 713/322/76
f 718/323/78 717/326/78 715/324/77
f 720/325/79 719/328/79 717/326/78
f 722/327/80 721/330/80 719/328/79
f 724/329/81 723/332/81 721/330/80
f 726/331/82 725/334/82 723/332/81
f 728/333/83 727/336/83 725/334/82
f 730/335/84 729/338/84 727/336/83
f 732/337/85 731/340/85 729/338/84
f 682/339/60 681/38/60 731/340/85
f 736/341/86 735/343/86 733/134/87
f 738/342/88 737/345/88 735/343/86
f 740/344/89 739/347/89 737/345/88
f 742/346/90 741/349/90 739/347/89
f 744/348/91 743/351/91 741/349/90
f 746/350/92 745/353/92 743/351/91
f 748/352/93 747/355/93 745/353/92
f 750/354/94 749/357/94 747/355/93
f 752/356/95 751/359/95 749/357/94
f 754/358/95 753/361/95 751/359/95
f 756/360/96 755/363/96 753/361/95
f 758/362/97 757/365/97 755/363/96
f 760/364/98 759/367/98 757/365/97
f 762/366/99 761/369/99 759/367/98
f 764/368/100 763/371/100 761/369/99
f 766/370/101 765/373/101 763/371/100
f 768/372/102 767/375/102 765/373/101
f 770/374/103 769/377/103 767/375/102
f 772/376/104 771/379/104 769/377/103
f 774/378/105 773/381/105 771/379/104
f 776/380/106 775/383/106 773/381/105
f 778/382/107 777/385/107 775/383/106
f 780/384/108 779/387/110 777/385/107
f 782/386/109 781/389/109 779/387/110
f 784/388/111 783/391/111 781/389/109
f 786/390/112 785/393/112 783/391/111
f 788/392/113 787/395/113 785/393/112
f 790/394/114 789/397/114 787/395/113
f 792/396/115 791/399/115 789/397/114
f 794/398/116 793/115/116 791/399/115
f 796/400/117 795/402/117 793/115/116
f 798/401/118 797/404/118 795/402/117
f 800/403/119 799/406/119 797/404/118
f 802/405/120 801/408/120 799/406/119
f 804/407/121 803/410/121 801/408/120
f 806/409/122 805/412/122 803/410/121
f 808/411/123 807/414/123 805/412/122
f 810/413/124 809/416/126 807/414/123
f 812/415/125 811/418/125 809/416/126
f 814/417/127 813/420/127 811/418/125
f 816/419/128 815/422/128 813/420/127
f 818/421/129 817/424/129 815/422/128
f 820/423/130 819/426/130 817/424/129
f 822/425/131 821/428/131 819/426/130
f 824/427/132 823/430/132 821/428/131
f 826/429/133 825/432/133 823/430/132
f 828/431/134 827/434/134 825/432/133
f 830/433/135 829/436/135 827/434/134
f 832/435/136 831/438/136 829/436/135
f 834/437/137 833/440/137 831/438/136
f 836/439/138 835/442/138 833/440/137
f 838/441/139 837/444/139 835/442/138
f 840/443/140 839/446/140 837/444/139
f 842/445/141 841/448/143 839/446/140
f 844/447/142 843/450/142 841/448/143
f 846/449/144 845/452/144 843/450/142
f 848/451/145 847/454/145 845/452/144
f 850/453/146 849/456/146 847/454/145
f 852/455/147 851/458/149 849/456/146
f 854/457/148 853/279/148 851/458/149
f 856/459/150 855/461/150 853/279/148
f 858/460/151 857/463/151 855/461/150
f 860/462/152 859/465/152 857/463/151
f 862/464/153 861/467/153 859/465/152
f 864/466/154 863/469/154 861/467/153
f 866/468/155 865/471/155 863/469/154
f 868/470/156 867/473/156 865/471/155
f 870/472/157 869/475/157 867/473/156
f 872/474/158 871/477/158 869/475/157
f 874/476/159 873/479/159 871/477/158
f 876/478/160 875/481/160 873/479/159
f 878/480/161 877/483/161 875/481/160
f 880/482/162 879/485/162 877/483/161
f 882/484/163 881/487/165 879/485/162
f 884/486/164 883/489/164 881/487/165
f 886/488/166 885/491/166 883/489/164
f 888/490/167 887/493/167 885/491/166
f 890/492/168 889/495/168 887/493/167
f 892/494/169 891/497/169 889/495/168
f 894/496/170 893/499/170 891/497/169
f 896/498/171 895/501/171 893/499/170
f 898/500/172 897/503/172 895/501/171
f 900/502/173 899/505/173 897/503/172
f 902/504/174 901/507/174 899/505/173
f 904/506/175 903/509/175 901/507/174
f 906/508/176 905/511/176 903/509/175
f 908/510/177 907/513/177 905/511/176
f 910/512/178 909/515/178 907/513/177
f 912/514/179 911/517/179 909/515/178
f 914/516/180 913/230/180 911/517/179
f 916/518/181 915/520/181 913/230/180
f 918/519/182 917/522/182 915/520/181
f 920/521/183 919/524/183 917/522/182
f 922/523/184 921/526/184 919/524/183
f 924/525/185 923/528/185 921/526/184
f 926/527/186 925/530/186 923/528/185
f 928/529/187 927/532/187 925/530/186
f 930/531/188 929/534/188 927/532/187
f 932/533/189 931/536/189 929/534/188
f 934/535/190 933/538/190 931/536/189
f 936/537/191 935/540/191 933/538/190
f 938/539/192 937/542/192 935/540/191
f 940/541/193 939/544/193 937/542/192
f 942/543/194 941/545/194 939/544/193
f 944/313/195 943/316/195 941/545/194
f 946/546/196 945/548/196 943/316/195
f 948/547/197 947/550/197 945/548/196
f 950/549/198 949/552/198 947/550/197
f 952/551/199 951/554/199 949/552/198
f 954/553/200 953/556/200 951/554/199
f 956/555/201 955/558/201 953/556/200
f 958/557/202 957/560/202 955/558/201
f 960/559/203 959/562/203 957/560/202
f 962/561/204 961/564/204 959/562/203
f 964/563/205 963/566/205 961/564/204
f 966/565/206 965/568/206 963/566/205
f 968/567/207 967/570/207 965/568/206
f 970/569/208 969/572/208 967/570/207
f 972/571/209 971/574/209 969/572/208
f 974/573/210 973/213/210 971/574/209
f 976/575/211 975/577/211 973/213/210
f 978/576/212 977/579/212 975/577/211
f 980/578/213 979/581/213 977/579/212
f 982/580/214 981/583/214 979/581/213
f 984/582/215 983/585/215 981/583/214
f 986/584/216 985/587/216 983/585/215
f 988/586/217 987/589/217 985/587/216
f 990/588/218 989/591/218 987/589/217
f 992/590/219 991/593/219 989/591/218
f 994/592/220 993/595/220 991/593/219
f 996/594/221 995/597/221 993/595/220
f 998/596/222 997/599/222 995/597/221
f 1000/598/223 999/601/223 997/599/222
f 1002/600/224 1001/603/224 999/601/223
f 1004/602/225 1003/605/225 1001/603/224
f 1006/604/226 1005/607/226 1003/605/225
f 1008/606/227 1007/609/227 1005/607/226
f 1010/608/228 1009/611/228 1007/609/227
f 1012/610/229 1011/613/229 1009/611/228
f 1014/612/230 1013/615/230 1011/613/229
f 1016/614/231 1015/617/231 1013/615/230
f 1018/616/232 1017/619/232 1015/617/231
f 1020/618/233 1019/621/233 1017/619/232
f 1022/620/234 1021/623/234 1019/621/233
f 1024/622/235 1023/625/235 1021/623/234
f 1026/624/236 1025/627/236 1023/625/235
f 1028/626/237 1027/629/237 1025/627/236
f 1030/628/238 1029/631/238 1027/629/237
f 1032/630/239 1031/633/239 1029/631/238
f 1034/632/240 1033/145/240 1031/633/239
f 1036/634/241 1035/636/241 1033/145/240
f 1038/635/242 1037/638/242 1035/636/241
f 1040/637/243 1039/640/243 1037/638/242
f 1042/639/244 1041/642/244 1039/640/243
f 1044/641/245 1043/644/245 1041/642/244
f 1046/643/246 1045/646/246 1043/644/245
f 1048/645/247 1047/648/247 1045/646/246
f 1050/647/248 1049/650/250 1047/648/247
f 1052/649/249 1051/652/249 1049/650/250
f 1054/651/251 1053/654/251 1051/652/249
f 1056/653/252 1055/656/252 1053/654/251
f 1058/655/253 1057/658/253 1055/656/252
f 1060/657/254 1059/660/254 1057/658/253
f 1062/659/255 1061/662/255 1059/660/254
f 1064/661/256 1063/664/256 1061/662/255
f 1066/663/257 1065/666/257 1063/664/256
f 1068/665/258 1067/668/258 1065/666/257
f 1070/667/259 1069/670/259 1067/668/258
f 1072/669/260 1071/672/260 1069/670/259
f 1074/671/261 1073/674/261 1071/672/260
f 1076/673/262 1075/676/262 1073/674/261
f 1078/675/263 1077/678/263 1075/676/262
f 1080/677/264 1079/680/264 1077/678/263
f 1082/679/265 1081/682/265 1079/680/264
f 1084/681/266 1083/684/266 1081/682/265
f 1086/683/267 1085/686/267 1083/684/266
f 1088/685/268 1087/688/268 1085/686/267
f 1090/687/269 1089/690/269 1087/688/268
f 1092/689/270 1091/692/270 1089/690/269
f 1094/691/271 1093/24/271 1091/692/270
f 1096/693/272 1095/695/272 1093/24/271
f 1098/694/273 1097/697/273 1095/695/272
f 1100/696/274 1099/699/274 1097/697/273
f 1102/698/275 1101/701/275 1099/699/274
f 1104/700/276 1103/703/276 1101/701/275
f 1106/702/277 1105/705/277 1103/703/276
f 1108/704/278 1107/707/278 1105/705/277
f 1110/706/279 1109/709/279 1107/707/278
f 1112/708/280 1111/711/280 1109/709/279
f 1114/710/281 1113/713/281 1111/711/280
f 1116/712/282 1115/715/282 1113/713/281
f 1118/714/283 1117/717/283 1115/715/282
f 1120/716/284 1119/719/284 1117/717/283
f 1122/718/285 1121/721/285 1119/719/284
f 1124/720/286 1123/723/286 1121/721/285
f 1126/722/287 1125/725/289 1123/723/286
f 1128/724/288 1127/727/288 1125/725/289
f 1130/726/290 1129/729/290 1127/727/288
f 1132/728/291 1131/731/291 1129/729/290
f 1134/730/292 1133/733/292 1131/731/291
f 1136/732/293 1135/735/293 1133/733/292
f 1138/734/294 1137/737/294 1135/735/293
f 1140/736/295 1139/739/295 1137/737/294
f 1142/738/296 1141/741/296 1139/739/295
f 1144/740/297 1143/743/297 1141/741/296
f 1146/742/298 1145/745/298 1143/743/297
f 1148/744/299 1147/747/299 1145/745/298
f 1150/746/300 1149/749/300 1147/747/299
f 1152/748/301 1151/750/301 1149/749/300
f 734/339/87 733/38/87 1151/750/301
