# Blender 4.1.1
# www.blender.org
mtllib skydome.mtl
o 球
v 0.000000 249.440872 166.671066
v 0.000000 166.671066 249.440872
v 0.000000 58.527096 294.235565
v 0.000000 0.000000 300.000000
v 0.000000 -58.527096 294.235565
v 0.000000 -166.671066 249.440872
v 11.418070 294.235565 57.402515
v 22.397352 277.163849 112.599091
v 32.515915 249.440872 163.468536
v 41.384907 212.132034 208.055969
v 48.663502 166.671066 244.647934
v 54.071983 114.805038 271.838226
v 57.402515 58.527096 288.581909
v 58.527096 0.000000 294.235565
v 57.402515 -58.527096 288.581909
v 54.071983 -114.805038 271.838226
v 48.663502 -166.671066 244.647934
v 41.384907 -212.132034 208.055969
v 32.515915 -249.440872 163.468536
v 22.397352 -277.163849 112.599091
v 11.418070 -294.235565 57.402515
v 22.397348 294.235565 54.071983
v 43.933983 277.163849 106.066025
v 63.782261 249.440872 153.983978
v 81.179413 212.132034 195.984436
v 95.456886 166.671066 230.453293
v 106.066010 114.805038 256.066010
v 112.599083 58.527096 271.838226
v 114.805031 0.000000 277.163818
v 112.599083 -58.527096 271.838226
v 106.066010 -114.805038 256.066010
v 95.456886 -166.671066 230.453293
v 81.179413 -212.132034 195.984436
v 63.782261 -249.440872 153.983978
v 43.933983 -277.163849 106.066025
v 22.397348 -294.235565 54.071983
v 32.515911 294.235565 48.663498
v 63.782261 277.163849 95.456894
v 92.597481 249.440872 138.581909
v 117.854240 212.132034 176.381332
v 138.581909 166.671066 207.402481
v 153.983978 114.805038 230.453308
v 163.468536 58.527096 244.647934
v 166.671066 0.000000 249.440842
v 163.468536 -58.527096 244.647934
v 153.983978 -114.805038 230.453308
v 138.581909 -166.671066 207.402481
v 117.854240 -212.132034 176.381332
v 92.597481 -249.440872 138.581909
v 63.782261 -277.163849 95.456894
v 32.515911 -294.235565 48.663498
v 41.384903 294.235565 41.384899
v 81.179413 277.163849 81.179405
v 117.854233 249.440872 117.854218
v 150.000000 212.132034 150.000000
v 176.381317 166.671066 176.381302
v 195.984421 114.805038 195.984436
v 208.055969 58.527096 208.055954
v 212.132034 0.000000 212.131973
v 208.055969 -58.527096 208.055954
v 195.984421 -114.805038 195.984436
v 176.381317 -166.671066 176.381302
v 150.000000 -212.132034 150.000000
v 117.854233 -249.440872 117.854218
v 81.179413 -277.163849 81.179405
v 41.384903 -294.235565 41.384899
v 48.663498 294.235565 32.515907
v 95.456894 277.163849 63.782249
v 138.581909 249.440872 92.597466
v 176.381332 212.132034 117.854240
v 207.402496 166.671066 138.581894
v 230.453293 114.805038 153.983994
v 244.647934 58.527096 163.468491
v 249.440857 0.000000 166.671005
v 244.647934 -58.527096 163.468491
v 230.453293 -114.805038 153.983994
v 207.402496 -166.671066 138.581894
v 176.381332 -212.132034 117.854240
v 138.581909 -249.440872 92.597466
v 95.456894 -277.163849 63.782249
v 48.663498 -294.235565 32.515907
v 0.000000 300.000000 0.000000
v 54.071976 294.235565 22.397345
v 106.066010 277.163849 43.933975
v 153.983978 249.440872 63.782238
v 195.984436 212.132034 81.179413
v 230.453293 166.671066 95.456848
v 256.065979 114.805038 106.066025
v 271.838196 58.527096 112.599045
v 277.163818 0.000000 114.804962
v 271.838196 -58.527096 112.599045
v 256.065979 -114.805038 106.066025
v 230.453293 -166.671066 95.456848
v 195.984436 -212.132034 81.179413
v 153.983978 -249.440872 63.782238
v 106.066010 -277.163849 43.933975
v 54.071976 -294.235565 22.397345
v 57.402500 294.235565 11.418064
v 112.599075 277.163849 22.397345
v 163.468521 249.440872 32.515896
v 208.055969 212.132034 41.384911
v 244.647903 166.671066 48.663471
v 271.838196 114.805038 54.071999
v 288.581879 58.527096 57.402481
v 294.235535 0.000000 58.527039
v 288.581879 -58.527096 57.402481
v 271.838196 -114.805038 54.071999
v 244.647903 -166.671066 48.663471
v 208.055969 -212.132034 41.384911
v 163.468521 -249.440872 32.515896
v 112.599075 -277.163849 22.397345
v 57.402500 -294.235565 11.418064
v 58.527081 294.235565 -0.000003
v 114.805016 277.163849 -0.000007
v 166.671036 249.440872 -0.000016
v 212.132019 212.132034 0.000004
v 249.440826 166.671066 -0.000027
v 277.163818 114.805038 0.000013
v 294.235535 58.527096 -0.000027
v 299.999908 0.000000 -0.000049
v 294.235535 -58.527096 -0.000027
v 277.163818 -114.805038 0.000013
v 249.440826 -166.671066 -0.000027
v 212.132019 -212.132034 0.000004
v 166.671036 -249.440872 -0.000016
v 114.805016 -277.163849 -0.000007
v 58.527081 -294.235565 -0.000003
v 57.402496 294.235565 -11.418070
v 112.599075 277.163849 -22.397354
v 163.468491 249.440872 -32.515923
v 208.055954 212.132034 -41.384899
v 244.647873 166.671066 -48.663521
v 271.838196 114.805038 -54.071972
v 288.581879 58.527096 -57.402531
v 294.235474 0.000000 -58.527130
v 288.581879 -58.527096 -57.402531
v 271.838196 -114.805038 -54.071972
v 244.647873 -166.671066 -48.663521
v 208.055954 -212.132034 -41.384899
v 163.468491 -249.440872 -32.515923
v 112.599075 -277.163849 -22.397354
v 57.402496 -294.235565 -11.418070
v 54.071964 294.235565 -22.397346
v 106.066010 277.163849 -43.933983
v 153.983932 249.440872 -63.782261
v 195.984421 212.132034 -81.179398
v 230.453247 166.671066 -95.456894
v 256.065979 114.805038 -106.065987
v 271.838165 58.527096 -112.599091
v 277.163727 0.000000 -114.805038
v 271.838165 -58.527096 -112.599091
v 256.065979 -114.805038 -106.065987
v 230.453247 -166.671066 -95.456894
v 195.984421 -212.132034 -81.179398
v 153.983932 -249.440872 -63.782261
v 106.066010 -277.163849 -43.933983
v 54.071964 -294.235565 -22.397346
v 48.663479 294.235565 -32.515900
v 95.456879 277.163849 -63.782257
v 138.581879 249.440872 -92.597473
v 176.381317 212.132034 -117.854225
v 207.402435 166.671066 -138.581909
v 230.453293 114.805038 -153.983963
v 244.647873 58.527096 -163.468521
v 249.440735 0.000000 -166.671051
v 244.647873 -58.527096 -163.468521
v 230.453293 -114.805038 -153.983963
v 207.402435 -166.671066 -138.581909
v 176.381317 -212.132034 -117.854225
v 138.581879 -249.440872 -92.597473
v 95.456879 -277.163849 -63.782257
v 48.663479 -294.235565 -32.515900
v 41.384884 294.235565 -41.384888
v 81.179390 277.163849 -81.179405
v 117.854179 249.440872 -117.854225
v 149.999985 212.132034 -149.999985
v 176.381256 166.671066 -176.381302
v 195.984421 114.805038 -195.984406
v 208.055908 58.527096 -208.055954
v 212.131866 0.000000 -212.131989
v 208.055908 -58.527096 -208.055954
v 195.984421 -114.805038 -195.984406
v 176.381256 -166.671066 -176.381302
v 149.999985 -212.132034 -149.999985
v 117.854179 -249.440872 -117.854225
v 81.179390 -277.163849 -81.179405
v 41.384884 -294.235565 -41.384888
v 32.515896 294.235565 -48.663479
v 63.782234 277.163849 -95.456886
v 92.597427 249.440872 -138.581894
v 117.854225 212.132034 -176.381317
v 138.581863 166.671066 -207.402451
v 153.983978 114.805038 -230.453278
v 163.468460 58.527096 -244.647903
v 166.670914 0.000000 -249.440811
v 163.468460 -58.527096 -244.647903
v 153.983978 -114.805038 -230.453278
v 138.581863 -166.671066 -207.402451
v 117.854225 -212.132034 -176.381317
v 92.597427 -249.440872 -138.581894
v 63.782234 -277.163849 -95.456886
v 32.515896 -294.235565 -48.663479
v 22.397335 294.235565 -54.071957
v 43.933956 277.163849 -106.065994
v 63.782207 249.440872 -153.983932
v 81.179398 212.132034 -195.984421
v 95.456833 166.671066 -230.453247
v 106.066010 114.805038 -256.065948
v 112.599007 58.527096 -271.838165
v 114.804886 0.000000 -277.163757
v 112.599007 -58.527096 -271.838165
v 106.066010 -114.805038 -256.065948
v 95.456833 -166.671066 -230.453247
v 81.179398 -212.132034 -195.984421
v 63.782207 -249.440872 -153.983932
v 43.933956 -277.163849 -106.065994
v 22.397335 -294.235565 -54.071957
v 11.418061 294.235565 -57.402477
v 22.397327 277.163849 -112.599052
v 32.515869 249.440872 -163.468460
v 41.384899 212.132034 -208.055954
v 48.663456 166.671066 -244.647858
v 54.071983 114.805038 -271.838165
v 57.402454 58.527096 -288.581848
v 58.526974 0.000000 -294.235443
v 57.402454 -58.527096 -288.581848
v 54.071983 -114.805038 -271.838165
v 48.663456 -166.671066 -244.647858
v 41.384899 -212.132034 -208.055954
v 32.515869 -249.440872 -163.468460
v 22.397327 -277.163849 -112.599052
v 11.418061 -294.235565 -57.402477
v -0.000002 294.235565 -58.527058
v -0.000016 277.163849 -114.805000
v -0.000029 249.440872 -166.670990
v -0.000004 212.132034 -212.131989
v -0.000031 166.671066 -249.440796
v 0.000009 114.805038 -277.163788
v -0.000040 58.527096 -294.235474
v -0.000098 0.000000 -299.999817
v -0.000040 -58.527096 -294.235474
v 0.000009 -114.805038 -277.163788
v -0.000031 -166.671066 -249.440796
v -0.000004 -212.132034 -212.131989
v -0.000029 -249.440872 -166.670990
v -0.000016 -277.163849 -114.805000
v -0.000002 -294.235565 -58.527058
v -11.418064 294.235565 -57.402473
v -22.397360 277.163849 -112.599052
v -32.515926 249.440872 -163.468445
v -41.384903 212.132034 -208.055939
v -48.663513 166.671066 -244.647842
v -54.071960 114.805038 -271.838135
v -57.402534 58.527096 -288.581818
v -58.527157 0.000000 -294.235352
v -57.402534 -58.527096 -288.581818
v -54.071960 -114.805038 -271.838135
v -48.663513 -166.671066 -244.647842
v -41.384903 -212.132034 -208.055939
v -32.515926 -249.440872 -163.468445
v -22.397360 -277.163849 -112.599052
v -11.418064 -294.235565 -57.402473
v -22.397335 294.235565 -54.071949
v -43.933983 277.163849 -106.065987
v -63.782249 249.440872 -153.983887
v -81.179398 212.132034 -195.984406
v -95.456886 166.671066 -230.453217
v -106.065971 114.805038 -256.065948
v -112.599083 58.527096 -271.838104
v -114.805046 0.000000 -277.163605
v -112.599083 -58.527096 -271.838104
v -106.065971 -114.805038 -256.065948
v -95.456886 -166.671066 -230.453217
v -81.179398 -212.132034 -195.984406
v -63.782249 -249.440872 -153.983887
v -43.933983 -277.163849 -106.065987
v -22.397335 -294.235565 -54.071949
v -32.515892 294.235565 -48.663467
v -63.782249 277.163849 -95.456856
v -92.597458 249.440872 -138.581818
v -117.854225 212.132034 -176.381302
v -138.581894 166.671066 -207.402405
v -153.983917 114.805038 -230.453247
v -163.468521 58.527096 -244.647827
v -166.671036 0.000000 -249.440628
v -163.468521 -58.527096 -244.647827
v -153.983917 -114.805038 -230.453247
v -138.581894 -166.671066 -207.402405
v -117.854225 -212.132034 -176.381302
v -92.597458 -249.440872 -138.581818
v -63.782249 -277.163849 -95.456856
v -32.515892 -294.235565 -48.663467
v -41.384876 294.235565 -41.384872
v -81.179398 277.163849 -81.179382
v -117.854187 249.440872 -117.854134
v -149.999969 212.132034 -149.999969
v -176.381271 166.671066 -176.381226
v -195.984360 114.805038 -195.984375
v -208.055939 58.527096 -208.055862
v -212.131943 0.000000 -212.131775
v -208.055939 -58.527096 -208.055862
v -195.984360 -114.805038 -195.984375
v -176.381271 -166.671066 -176.381226
v -149.999969 -212.132034 -149.999969
v -117.854187 -249.440872 -117.854134
v -81.179398 -277.163849 -81.179382
v -41.384876 -294.235565 -41.384872
v 0.000000 -300.000000 0.000000
v -48.663467 294.235565 -32.515884
v -95.456871 277.163849 -63.782223
v -138.581848 249.440872 -92.597382
v -176.381302 212.132034 -117.854210
v -207.402435 166.671066 -138.581833
v -230.453232 114.805038 -153.983932
v -244.647873 58.527096 -163.468414
v -249.440735 0.000000 -166.670822
v -244.647873 -58.527096 -163.468414
v -230.453232 -114.805038 -153.983932
v -207.402435 -166.671066 -138.581833
v -176.381302 -212.132034 -117.854210
v -138.581848 -249.440872 -92.597382
v -95.456871 -277.163849 -63.782223
v -48.663467 -294.235565 -32.515884
v -54.071945 294.235565 -22.397326
v -106.065979 277.163849 -43.933952
v -153.983887 249.440872 -63.782169
v -195.984406 212.132034 -81.179390
v -230.453217 166.671066 -95.456795
v -256.065918 114.805038 -106.065979
v -271.838135 58.527096 -112.598961
v -277.163666 0.000000 -114.804802
v -271.838135 -58.527096 -112.598961
v -256.065918 -114.805038 -106.065979
v -230.453217 -166.671066 -95.456795
v -195.984406 -212.132034 -81.179390
v -153.983887 -249.440872 -63.782169
v -106.065979 -277.163849 -43.933952
v -54.071945 -294.235565 -22.397326
v -57.402466 294.235565 -11.418055
v -112.599037 277.163849 -22.397326
v -163.468414 249.440872 -32.515846
v -208.055939 212.132034 -41.384888
v -244.647827 166.671066 -48.663429
v -271.838135 114.805038 -54.071964
v -288.581818 58.527096 -57.402416
v -294.235321 0.000000 -58.526909
v -288.581818 -58.527096 -57.402416
v -271.838135 -114.805038 -54.071964
v -244.647827 -166.671066 -48.663429
v -208.055939 -212.132034 -41.384888
v -163.468414 -249.440872 -32.515846
v -112.599037 -277.163849 -22.397326
v -57.402466 -294.235565 -11.418055
v -58.527042 294.235565 0.000006
v -114.804977 277.163849 0.000016
v -166.670929 249.440872 0.000045
v -212.131973 212.132034 0.000009
v -249.440750 166.671066 0.000049
v -277.163757 114.805038 0.000004
v -294.235443 58.527096 0.000080
v -299.999725 0.000000 0.000134
v -294.235443 -58.527096 0.000080
v -277.163757 -114.805038 0.000004
v -249.440750 -166.671066 0.000049
v -212.131973 -212.132034 0.000009
v -166.670929 -249.440872 0.000045
v -114.804977 -277.163849 0.000016
v -58.527042 -294.235565 0.000006
v -57.402462 294.235565 11.418065
v -112.599030 277.163849 22.397354
v -163.468384 249.440872 32.515930
v -208.055908 212.132034 41.384907
v -244.647797 166.671066 48.663528
v -271.838104 114.805038 54.071972
v -288.581757 58.527096 57.402569
v -294.235260 0.000000 58.527172
v -288.581757 -58.527096 57.402569
v -271.838104 -114.805038 54.071972
v -244.647797 -166.671066 48.663528
v -208.055908 -212.132034 41.384907
v -163.468384 -249.440872 32.515930
v -112.599030 -277.163849 22.397354
v -57.402462 -294.235565 11.418065
v -54.071934 294.235565 22.397335
v -106.065964 277.163849 43.933975
v -153.983826 249.440872 63.782246
v -195.984375 212.132034 81.179398
v -230.453171 166.671066 95.456886
v -256.065887 114.805038 106.065971
v -271.838043 58.527096 112.599098
v -277.163544 0.000000 114.805046
v -271.838043 -58.527096 112.599098
v -256.065887 -114.805038 106.065971
v -230.453171 -166.671066 95.456886
v -195.984375 -212.132034 81.179398
v -153.983826 -249.440872 63.782246
v -106.065964 -277.163849 43.933975
v -54.071934 -294.235565 22.397335
v -48.663452 294.235565 32.515888
v -95.456833 277.163849 63.782238
v -138.581772 249.440872 92.597443
v -176.381271 212.132034 117.854218
v -207.402344 166.671066 138.581894
v -230.453217 114.805038 153.983917
v -244.647766 58.527096 163.468521
v -249.440536 0.000000 166.671021
v -244.647766 -58.527096 163.468521
v -230.453217 -114.805038 153.983917
v -207.402344 -166.671066 138.581894
v -176.381271 -212.132034 117.854218
v -138.581772 -249.440872 92.597443
v -95.456833 -277.163849 63.782238
v -48.663452 -294.235565 32.515888
v -41.384861 294.235565 41.384872
v -81.179359 277.163849 81.179382
v -117.854080 249.440872 117.854172
v -149.999939 212.132034 149.999969
v -176.381165 166.671066 176.381256
v -195.984344 114.805038 195.984344
v -208.055801 58.527096 208.055908
v -212.131714 0.000000 212.131912
v -208.055801 -58.527096 208.055908
v -195.984344 -114.805038 195.984344
v -176.381165 -166.671066 176.381256
v -149.999939 -212.132034 149.999969
v -117.854080 -249.440872 117.854172
v -81.179359 -277.163849 81.179382
v -41.384861 -294.235565 41.384872
v -32.515873 294.235565 48.663456
v -63.782211 277.163849 95.456848
v -92.597336 249.440872 138.581833
v -117.854187 212.132034 176.381302
v -138.581787 166.671066 207.402405
v -153.983902 114.805038 230.453217
v -163.468369 58.527096 244.647842
v -166.670776 0.000000 249.440689
v -163.468369 -58.527096 244.647842
v -153.983902 -114.805038 230.453217
v -138.581787 -166.671066 207.402405
v -117.854187 -212.132034 176.381302
v -92.597336 -249.440872 138.581833
v -63.782211 -277.163849 95.456848
v -32.515873 -294.235565 48.663456
v -22.397322 294.235565 54.071930
v -43.933945 277.163849 106.065971
v -63.782131 249.440872 153.983856
v -81.179375 212.132034 195.984406
v -95.456764 166.671066 230.453186
v -106.065956 114.805038 256.065887
v -112.598938 58.527096 271.838104
v -114.804771 0.000000 277.163574
v -112.598938 -58.527096 271.838104
v -106.065956 -114.805038 256.065887
v -95.456764 -166.671066 230.453186
v -81.179375 -212.132034 195.984406
v -63.782131 -249.440872 153.983856
v -43.933945 -277.163849 106.065971
v -22.397322 -294.235565 54.071930
v -11.418053 294.235565 57.402451
v -22.397320 277.163849 112.599030
v -32.515812 249.440872 163.468353
v -41.384872 212.132034 208.055939
v -48.663399 166.671066 244.647766
v -54.071945 114.805038 271.838104
v -57.402397 58.527096 288.581757
v -58.526886 0.000000 294.235260
v -57.402397 -58.527096 288.581757
v -54.071945 -114.805038 271.838104
v -48.663399 -166.671066 244.647766
v -41.384872 -212.132034 208.055939
v -32.515812 -249.440872 163.468353
v -22.397320 -277.163849 112.599030
v -11.418053 -294.235565 57.402451
v 0.000004 294.235565 58.527031
v 0.000020 277.163849 114.804962
v 0.000027 212.132034 212.131973
v 0.000018 114.805038 277.163696
v 0.000018 -114.805038 277.163696
v 0.000027 -212.132034 212.131973
v 0.000065 -249.440872 166.670853
v 0.000020 -277.163849 114.804962
v 0.000004 -294.235565 58.527031
vn -0.0286 0.9565 -0.2902
vn -0.0975 -0.0975 -0.9904
vn -0.0097 -0.9951 -0.0980
vn -0.0097 0.9951 -0.0980
vn -0.0975 0.0976 -0.9904
vn -0.0286 -0.9565 -0.2902
vn -0.0938 0.2890 -0.9527
vn -0.0464 -0.8810 -0.4709
vn -0.0865 0.4696 -0.8786
vn -0.0624 -0.7715 -0.6332
vn -0.0759 0.6326 -0.7708
vn -0.0759 -0.6326 -0.7708
vn -0.0624 0.7715 -0.6332
vn -0.0865 -0.4696 -0.8786
vn -0.0464 0.8810 -0.4709
vn -0.0938 -0.2890 -0.9527
vn -0.2563 -0.4696 -0.8448
vn -0.1374 0.8810 -0.4528
vn -0.2779 -0.2890 -0.9161
vn -0.0846 0.9565 -0.2790
vn -0.2889 -0.0976 -0.9524
vn -0.0286 -0.9951 -0.0942
vn -0.0286 0.9951 -0.0942
vn -0.2889 0.0975 -0.9524
vn -0.0846 -0.9565 -0.2790
vn -0.2779 0.2890 -0.9161
vn -0.1374 -0.8810 -0.4528
vn -0.2563 0.4696 -0.8448
vn -0.1847 -0.7715 -0.6088
vn -0.2248 0.6326 -0.7412
vn -0.2248 -0.6326 -0.7412
vn -0.1847 0.7715 -0.6088
vn -0.4513 0.2890 -0.8443
vn -0.2231 -0.8810 -0.4173
vn -0.4162 0.4696 -0.7786
vn -0.2999 -0.7715 -0.5611
vn -0.3651 0.6326 -0.6831
vn -0.3651 -0.6326 -0.6831
vn -0.2999 0.7715 -0.5611
vn -0.4162 -0.4696 -0.7786
vn -0.2230 0.8810 -0.4173
vn -0.4513 -0.2890 -0.8443
vn -0.1374 0.9565 -0.2571
vn -0.4691 -0.0975 -0.8777
vn -0.0464 -0.9951 -0.0869
vn -0.0464 0.9951 -0.0869
vn -0.4691 0.0975 -0.8777
vn -0.1374 -0.9565 -0.2571
vn -0.3002 0.8810 -0.3658
vn -0.6073 -0.2890 -0.7400
vn -0.1850 0.9565 -0.2254
vn -0.6314 -0.0975 -0.7693
vn -0.0625 -0.9951 -0.0761
vn -0.0625 0.9951 -0.0761
vn -0.6314 0.0975 -0.7693
vn -0.1850 -0.9565 -0.2254
vn -0.6073 0.2890 -0.7400
vn -0.3002 -0.8810 -0.3658
vn -0.5601 0.4696 -0.6825
vn -0.4036 -0.7715 -0.4918
vn -0.4913 0.6326 -0.5987
vn -0.4913 -0.6326 -0.5987
vn -0.4036 0.7715 -0.4918
vn -0.5601 -0.4696 -0.6825
vn -0.6825 0.4696 -0.5601
vn -0.4918 -0.7715 -0.4036
vn -0.5987 0.6326 -0.4913
vn -0.5987 -0.6326 -0.4913
vn -0.4918 0.7715 -0.4036
vn -0.6825 -0.4696 -0.5601
vn -0.3658 0.8810 -0.3002
vn -0.7400 -0.2890 -0.6073
vn -0.2254 0.9565 -0.1850
vn -0.7693 -0.0975 -0.6314
vn -0.0761 -0.9951 -0.0625
vn -0.0761 0.9951 -0.0625
vn -0.7693 0.0975 -0.6314
vn -0.2254 -0.9565 -0.1850
vn -0.7400 0.2890 -0.6073
vn -0.3658 -0.8810 -0.3002
vn -0.2571 0.9565 -0.1374
vn -0.8777 -0.0975 -0.4691
vn -0.0869 -0.9951 -0.0464
vn -0.0869 0.9951 -0.0464
vn -0.8777 0.0975 -0.4691
vn -0.2571 -0.9565 -0.1374
vn -0.8443 0.2890 -0.4513
vn -0.4173 -0.8810 -0.2230
vn -0.7786 0.4696 -0.4162
vn -0.5611 -0.7715 -0.2999
vn -0.6831 0.6326 -0.3651
vn -0.6831 -0.6326 -0.3651
vn -0.5611 0.7715 -0.2999
vn -0.7786 -0.4696 -0.4162
vn -0.4173 0.8810 -0.2230
vn -0.8443 -0.2890 -0.4513
vn -0.6088 -0.7715 -0.1847
vn -0.7412 0.6326 -0.2248
vn -0.7412 -0.6326 -0.2248
vn -0.6088 0.7715 -0.1847
vn -0.8448 -0.4696 -0.2563
vn -0.4528 0.8810 -0.1374
vn -0.9161 -0.2890 -0.2779
vn -0.2790 0.9565 -0.0846
vn -0.9524 -0.0975 -0.2889
vn -0.0942 -0.9951 -0.0286
vn -0.0942 0.9951 -0.0286
vn -0.9524 0.0975 -0.2889
vn -0.2790 -0.9565 -0.0846
vn -0.9161 0.2890 -0.2779
vn -0.4528 -0.8810 -0.1374
vn -0.8448 0.4696 -0.2563
vn -0.9904 -0.0975 -0.0975
vn -0.0980 -0.9951 -0.0097
vn -0.0980 0.9951 -0.0097
vn -0.9904 0.0975 -0.0975
vn -0.2902 -0.9565 -0.0286
vn -0.9527 0.2890 -0.0938
vn -0.4709 -0.8810 -0.0464
vn -0.8786 0.4696 -0.0865
vn -0.6332 -0.7715 -0.0624
vn -0.7708 0.6326 -0.0759
vn -0.7708 -0.6326 -0.0759
vn -0.6332 0.7715 -0.0624
vn -0.8786 -0.4696 -0.0865
vn -0.4709 0.8810 -0.0464
vn -0.9527 -0.2890 -0.0938
vn -0.2902 0.9565 -0.0286
vn -0.7708 0.6326 0.0759
vn -0.7708 -0.6326 0.0759
vn -0.6332 0.7715 0.0624
vn -0.8786 -0.4696 0.0865
vn -0.4709 0.8810 0.0464
vn -0.9527 -0.2890 0.0938
vn -0.2902 0.9565 0.0286
vn -0.9904 -0.0975 0.0976
vn -0.0980 -0.9951 0.0097
vn -0.0980 0.9951 0.0097
vn -0.9904 0.0975 0.0976
vn -0.2902 -0.9565 0.0286
vn -0.9527 0.2890 0.0938
vn -0.4709 -0.8810 0.0464
vn -0.8786 0.4696 0.0865
vn -0.6332 -0.7715 0.0624
vn -0.0942 -0.9951 0.0286
vn -0.0942 0.9951 0.0286
vn -0.9524 0.0975 0.2889
vn -0.2790 -0.9565 0.0846
vn -0.9161 0.2890 0.2779
vn -0.4528 -0.8810 0.1374
vn -0.8448 0.4696 0.2563
vn -0.6088 -0.7715 0.1847
vn -0.7412 0.6326 0.2248
vn -0.7412 -0.6326 0.2248
vn -0.6088 0.7715 0.1847
vn -0.8448 -0.4696 0.2563
vn -0.4528 0.8810 0.1374
vn -0.9161 -0.2890 0.2779
vn -0.2790 0.9565 0.0846
vn -0.9524 -0.0975 0.2889
vn -0.6831 -0.6326 0.3651
vn -0.5611 0.7715 0.2999
vn -0.7786 -0.4696 0.4162
vn -0.4173 0.8810 0.2230
vn -0.8443 -0.2890 0.4513
vn -0.2571 0.9565 0.1374
vn -0.8777 -0.0975 0.4691
vn -0.0869 -0.9951 0.0464
vn -0.0869 0.9951 0.0464
vn -0.8777 0.0975 0.4691
vn -0.2571 -0.9565 0.1374
vn -0.8443 0.2890 0.4513
vn -0.4173 -0.8810 0.2230
vn -0.7786 0.4696 0.4162
vn -0.5611 -0.7715 0.2999
vn -0.6831 0.6326 0.3651
vn -0.7693 0.0975 0.6314
vn -0.2254 -0.9565 0.1850
vn -0.7400 0.2890 0.6073
vn -0.3658 -0.8810 0.3002
vn -0.6825 0.4696 0.5601
vn -0.4918 -0.7715 0.4036
vn -0.5987 0.6326 0.4913
vn -0.5987 -0.6326 0.4913
vn -0.4918 0.7715 0.4036
vn -0.6825 -0.4696 0.5601
vn -0.3658 0.8810 0.3002
vn -0.7400 -0.2890 0.6073
vn -0.2254 0.9565 0.1850
vn -0.7693 -0.0975 0.6314
vn -0.0761 -0.9951 0.0625
vn -0.0761 0.9951 0.0625
vn -0.4036 0.7715 0.4918
vn -0.5601 -0.4696 0.6825
vn -0.3002 0.8810 0.3658
vn -0.6073 -0.2890 0.7400
vn -0.1850 0.9565 0.2254
vn -0.6314 -0.0975 0.7693
vn -0.0625 -0.9951 0.0761
vn -0.0625 0.9951 0.0761
vn -0.6314 0.0975 0.7693
vn -0.1850 -0.9565 0.2254
vn -0.6073 0.2890 0.7400
vn -0.3002 -0.8810 0.3658
vn -0.5601 0.4696 0.6825
vn -0.4036 -0.7715 0.4918
vn -0.4913 0.6326 0.5987
vn -0.4913 -0.6326 0.5987
vn -0.4513 0.2890 0.8443
vn -0.2230 -0.8810 0.4173
vn -0.4162 0.4696 0.7786
vn -0.2999 -0.7715 0.5611
vn -0.3651 0.6326 0.6831
vn -0.3651 -0.6326 0.6831
vn -0.2999 0.7715 0.5611
vn -0.4162 -0.4696 0.7786
vn -0.2230 0.8810 0.4173
vn -0.4513 -0.2890 0.8443
vn -0.1374 0.9565 0.2571
vn -0.4691 -0.0975 0.8777
vn -0.0464 -0.9951 0.0869
vn -0.0464 0.9951 0.0869
vn -0.4691 0.0975 0.8777
vn -0.1374 -0.9565 0.2571
vn -0.1374 0.8810 0.4528
vn -0.2779 -0.2890 0.9161
vn -0.0846 0.9565 0.2790
vn -0.2889 -0.0975 0.9524
vn -0.0286 -0.9951 0.0942
vn -0.0286 0.9951 0.0942
vn -0.2889 0.0975 0.9524
vn -0.0846 -0.9565 0.2790
vn -0.2779 0.2890 0.9161
vn -0.1374 -0.8810 0.4528
vn -0.2563 0.4696 0.8448
vn -0.1847 -0.7715 0.6088
vn -0.2248 0.6326 0.7412
vn -0.2248 -0.6326 0.7412
vn -0.1847 0.7715 0.6088
vn -0.2563 -0.4696 0.8448
vn -0.0464 -0.8810 0.4709
vn -0.0865 0.4696 0.8786
vn -0.0624 -0.7715 0.6332
vn -0.0759 0.6326 0.7708
vn -0.0759 -0.6326 0.7708
vn -0.0624 0.7715 0.6332
vn -0.0865 -0.4696 0.8786
vn -0.0464 0.8810 0.4709
vn -0.0938 -0.2890 0.9527
vn -0.0286 0.9565 0.2902
vn -0.0975 -0.0975 0.9904
vn -0.0097 -0.9951 0.0980
vn -0.0097 0.9951 0.0980
vn -0.0975 0.0975 0.9904
vn -0.0286 -0.9565 0.2902
vn -0.0938 0.2890 0.9527
vn 0.0938 -0.2890 0.9527
vn 0.0286 0.9565 0.2902
vn 0.0975 -0.0975 0.9904
vn 0.0097 -0.9951 0.0980
vn 0.0097 0.9951 0.0980
vn 0.0975 0.0975 0.9904
vn 0.0286 -0.9565 0.2902
vn 0.0938 0.2890 0.9527
vn 0.0464 -0.8810 0.4709
vn 0.0865 0.4696 0.8786
vn 0.0624 -0.7715 0.6332
vn 0.0759 0.6326 0.7708
vn 0.0759 -0.6326 0.7708
vn 0.0624 0.7715 0.6332
vn 0.0865 -0.4696 0.8786
vn 0.0464 0.8810 0.4709
vn 0.2563 0.4696 0.8448
vn 0.1847 -0.7715 0.6088
vn 0.2248 0.6326 0.7412
vn 0.2248 -0.6326 0.7412
vn 0.1847 0.7715 0.6088
vn 0.2563 -0.4696 0.8448
vn 0.1374 0.8810 0.4528
vn 0.2779 -0.2890 0.9161
vn 0.0846 0.9565 0.2790
vn 0.2889 -0.0975 0.9524
vn 0.0286 -0.9951 0.0942
vn 0.0286 0.9951 0.0942
vn 0.2889 0.0975 0.9524
vn 0.0846 -0.9565 0.2790
vn 0.2779 0.2890 0.9161
vn 0.1374 -0.8810 0.4528
vn 0.1374 0.9565 0.2571
vn 0.4691 -0.0975 0.8777
vn 0.0464 -0.9951 0.0869
vn 0.0464 0.9951 0.0869
vn 0.4691 0.0975 0.8777
vn 0.1374 -0.9565 0.2571
vn 0.4513 0.2890 0.8443
vn 0.2230 -0.8810 0.4173
vn 0.4162 0.4696 0.7786
vn 0.2999 -0.7715 0.5611
vn 0.3651 0.6326 0.6831
vn 0.3651 -0.6326 0.6831
vn 0.2999 0.7715 0.5611
vn 0.4162 -0.4696 0.7786
vn 0.2230 0.8810 0.4173
vn 0.4513 -0.2890 0.8443
vn 0.4036 -0.7715 0.4918
vn 0.4913 0.6326 0.5987
vn 0.4913 -0.6326 0.5987
vn 0.4036 0.7715 0.4918
vn 0.5601 -0.4696 0.6825
vn 0.3002 0.8810 0.3658
vn 0.6073 -0.2890 0.7400
vn 0.1850 0.9565 0.2254
vn 0.6314 -0.0975 0.7693
vn 0.0625 -0.9951 0.0761
vn 0.0625 0.9951 0.0761
vn 0.6314 0.0975 0.7693
vn 0.1850 -0.9565 0.2254
vn 0.6073 0.2890 0.7400
vn 0.3002 -0.8810 0.3658
vn 0.5601 0.4696 0.6825
vn 0.7693 -0.0975 0.6314
vn 0.0761 -0.9951 0.0625
vn 0.0761 0.9951 0.0625
vn 0.7693 0.0975 0.6314
vn 0.2254 -0.9566 0.1850
vn 0.7400 0.2890 0.6073
vn 0.3658 -0.8810 0.3002
vn 0.6825 0.4696 0.5601
vn 0.4918 -0.7715 0.4036
vn 0.5987 0.6326 0.4913
vn 0.5987 -0.6326 0.4913
vn 0.4918 0.7715 0.4036
vn 0.6825 -0.4696 0.5601
vn 0.3658 0.8810 0.3002
vn 0.7400 -0.2890 0.6073
vn 0.2254 0.9565 0.1850
vn 0.6831 0.6326 0.3651
vn 0.6831 -0.6326 0.3651
vn 0.5611 0.7715 0.2999
vn 0.7786 -0.4696 0.4162
vn 0.4173 0.8810 0.2230
vn 0.8443 -0.2890 0.4513
vn 0.2571 0.9565 0.1374
vn 0.8777 -0.0975 0.4691
vn 0.0869 -0.9951 0.0464
vn 0.0869 0.9951 0.0464
vn 0.8777 0.0975 0.4691
vn 0.2571 -0.9565 0.1374
vn 0.8443 0.2890 0.4513
vn 0.4173 -0.8810 0.2231
vn 0.7786 0.4696 0.4162
vn 0.5611 -0.7715 0.2999
vn 0.0942 0.9951 0.0286
vn 0.9524 0.0975 0.2889
vn 0.2790 -0.9565 0.0846
vn 0.9161 0.2890 0.2779
vn 0.4528 -0.8810 0.1374
vn 0.8448 0.4696 0.2563
vn 0.6088 -0.7715 0.1847
vn 0.7412 0.6326 0.2248
vn 0.7412 -0.6326 0.2248
vn 0.6088 0.7715 0.1847
vn 0.8448 -0.4696 0.2563
vn 0.4528 0.8810 0.1374
vn 0.9161 -0.2890 0.2779
vn 0.2790 0.9565 0.0846
vn 0.9524 -0.0975 0.2889
vn 0.0942 -0.9951 0.0286
vn 0.6332 0.7715 0.0624
vn 0.8786 -0.4696 0.0865
vn 0.4709 0.8810 0.0464
vn 0.9527 -0.2890 0.0938
vn 0.2902 0.9565 0.0286
vn 0.9904 -0.0975 0.0976
vn 0.0980 -0.9951 0.0097
vn 0.0980 0.9951 0.0097
vn 0.9904 0.0975 0.0976
vn 0.2902 -0.9565 0.0286
vn 0.9527 0.2890 0.0938
vn 0.4709 -0.8810 0.0464
vn 0.8786 0.4696 0.0865
vn 0.6332 -0.7715 0.0624
vn 0.7708 0.6326 0.0759
vn 0.7708 -0.6326 0.0759
vn 0.2902 -0.9565 -0.0286
vn 0.9527 0.2890 -0.0938
vn 0.4709 -0.8810 -0.0464
vn 0.8786 0.4696 -0.0865
vn 0.6332 -0.7715 -0.0624
vn 0.7708 0.6326 -0.0759
vn 0.7708 -0.6326 -0.0759
vn 0.6332 0.7715 -0.0624
vn 0.8786 -0.4696 -0.0865
vn 0.4709 0.8810 -0.0464
vn 0.9527 -0.2890 -0.0938
vn 0.2902 0.9565 -0.0286
vn 0.9904 -0.0975 -0.0976
vn 0.0980 -0.9951 -0.0097
vn 0.0980 0.9951 -0.0097
vn 0.9904 0.0975 -0.0976
vn 0.8448 -0.4696 -0.2563
vn 0.4528 0.8810 -0.1374
vn 0.9161 -0.2890 -0.2779
vn 0.2790 0.9565 -0.0846
vn 0.9524 -0.0975 -0.2889
vn 0.0942 -0.9951 -0.0286
vn 0.0942 0.9951 -0.0286
vn 0.9524 0.0975 -0.2889
vn 0.2790 -0.9565 -0.0846
vn 0.9161 0.2890 -0.2779
vn 0.4528 -0.8810 -0.1374
vn 0.8448 0.4696 -0.2563
vn 0.6088 -0.7715 -0.1847
vn 0.7412 0.6326 -0.2248
vn 0.7412 -0.6326 -0.2248
vn 0.6088 0.7715 -0.1847
vn 0.8443 0.2890 -0.4513
vn 0.4173 -0.8810 -0.2231
vn 0.7786 0.4696 -0.4162
vn 0.5611 -0.7715 -0.2999
vn 0.6831 0.6326 -0.3651
vn 0.6831 -0.6326 -0.3651
vn 0.5611 0.7715 -0.2999
vn 0.7786 -0.4696 -0.4162
vn 0.4173 0.8810 -0.2231
vn 0.8443 -0.2890 -0.4513
vn 0.2571 0.9565 -0.1374
vn 0.8777 -0.0975 -0.4691
vn 0.0869 -0.9951 -0.0464
vn 0.0869 0.9951 -0.0464
vn 0.8777 0.0975 -0.4691
vn 0.2571 -0.9565 -0.1374
vn 0.3658 0.8810 -0.3002
vn 0.7400 -0.2890 -0.6073
vn 0.2254 0.9565 -0.1850
vn 0.7693 -0.0975 -0.6314
vn 0.0761 -0.9951 -0.0625
vn 0.0761 0.9951 -0.0625
vn 0.7693 0.0975 -0.6314
vn 0.2254 -0.9565 -0.1850
vn 0.7400 0.2890 -0.6073
vn 0.3658 -0.8810 -0.3002
vn 0.6825 0.4696 -0.5601
vn 0.4918 -0.7715 -0.4036
vn 0.5987 0.6326 -0.4913
vn 0.5987 -0.6326 -0.4913
vn 0.4918 0.7715 -0.4036
vn 0.6825 -0.4696 -0.5601
vn 0.3002 -0.8810 -0.3658
vn 0.5601 0.4696 -0.6825
vn 0.4036 -0.7715 -0.4918
vn 0.4913 0.6326 -0.5987
vn 0.4913 -0.6326 -0.5987
vn 0.4036 0.7715 -0.4918
vn 0.5601 -0.4696 -0.6825
vn 0.3002 0.8810 -0.3658
vn 0.6073 -0.2890 -0.7400
vn 0.1850 0.9565 -0.2254
vn 0.6314 -0.0975 -0.7693
vn 0.0625 -0.9951 -0.0761
vn 0.0625 0.9951 -0.0761
vn 0.6314 0.0975 -0.7693
vn 0.1850 -0.9565 -0.2254
vn 0.6073 0.2890 -0.7400
vn 0.4513 -0.2890 -0.8443
vn 0.1374 0.9565 -0.2571
vn 0.4691 -0.0975 -0.8777
vn 0.0464 -0.9951 -0.0869
vn 0.0464 0.9951 -0.0869
vn 0.4691 0.0975 -0.8777
vn 0.1374 -0.9565 -0.2571
vn 0.4513 0.2890 -0.8443
vn 0.2230 -0.8810 -0.4173
vn 0.4162 0.4696 -0.7786
vn 0.2999 -0.7715 -0.5611
vn 0.3651 0.6326 -0.6831
vn 0.3651 -0.6326 -0.6831
vn 0.2999 0.7715 -0.5611
vn 0.4162 -0.4696 -0.7786
vn 0.2230 0.8810 -0.4173
vn 0.2563 0.4696 -0.8448
vn 0.1847 -0.7715 -0.6088
vn 0.2248 0.6326 -0.7412
vn 0.2248 -0.6326 -0.7412
vn 0.1847 0.7715 -0.6088
vn 0.2563 -0.4696 -0.8448
vn 0.1374 0.8810 -0.4528
vn 0.2779 -0.2890 -0.9161
vn 0.0846 0.9565 -0.2790
vn 0.2889 -0.0975 -0.9524
vn 0.0286 -0.9951 -0.0942
vn 0.0286 0.9951 -0.0942
vn 0.2889 0.0975 -0.9524
vn 0.0846 -0.9565 -0.2790
vn 0.2779 0.2890 -0.9161
vn 0.1374 -0.8810 -0.4528
vn 0.0286 0.9565 -0.2902
vn 0.0976 -0.0975 -0.9904
vn 0.0097 -0.9951 -0.0980
vn 0.0097 0.9951 -0.0980
vn 0.0976 0.0975 -0.9904
vn 0.0286 -0.9565 -0.2902
vn 0.0938 0.2890 -0.9527
vn 0.0464 -0.8810 -0.4709
vn 0.0865 0.4696 -0.8786
vn 0.0624 -0.7715 -0.6332
vn 0.0759 0.6326 -0.7708
vn 0.0759 -0.6326 -0.7708
vn 0.0624 0.7715 -0.6332
vn 0.0865 -0.4696 -0.8786
vn 0.0464 0.8810 -0.4709
vn 0.0938 -0.2890 -0.9527
vn -0.0975 -0.0976 -0.9904
vn -0.0975 0.0975 -0.9904
vn -0.2889 0.0976 -0.9524
vn -0.2230 -0.8810 -0.4173
vn -0.2231 0.8810 -0.4173
vn -0.4173 0.8810 0.2231
vn -0.4173 -0.8810 0.2231
vn 0.0976 -0.0975 0.9904
vn 0.0976 0.0975 0.9904
vn 0.2231 -0.8810 0.4173
vn 0.2231 0.8810 0.4173
vn 0.2254 -0.9565 0.1850
vn 0.4173 -0.8810 0.2230
vn 0.9904 -0.0975 0.0975
vn 0.9904 0.0975 0.0975
vn 0.9904 -0.0975 -0.0975
vn 0.9904 0.0975 -0.0975
vt 0.718750 0.062500
vt 0.750000 0.125000
vt 0.750000 0.062500
vt 0.718750 0.500000
vt 0.750000 0.562500
vt 0.750000 0.500000
vt 0.750000 0.937500
vt 0.718750 0.937500
vt 0.734375 1.000000
vt 0.734375 0.000000
vt 0.718750 0.437500
vt 0.750000 0.437500
vt 0.750000 0.875000
vt 0.718750 0.375000
vt 0.750000 0.375000
vt 0.750000 0.812500
vt 0.718750 0.875000
vt 0.718750 0.312500
vt 0.750000 0.312500
vt 0.750000 0.750000
vt 0.718750 0.812500
vt 0.718750 0.250000
vt 0.750000 0.250000
vt 0.718750 0.687500
vt 0.750000 0.687500
vt 0.718750 0.187500
vt 0.750000 0.187500
vt 0.750000 0.625000
vt 0.718750 0.125000
vt 0.718750 0.625000
vt 0.687500 0.625000
vt 0.687500 0.187500
vt 0.718750 0.562500
vt 0.687500 0.062500
vt 0.687500 0.500000
vt 0.687500 0.937500
vt 0.703125 1.000000
vt 0.703125 0.000000
vt 0.687500 0.437500
vt 0.687500 0.875000
vt 0.687500 0.375000
vt 0.687500 0.812500
vt 0.687500 0.312500
vt 0.687500 0.750000
vt 0.718750 0.750000
vt 0.687500 0.250000
vt 0.687500 0.687500
vt 0.656250 0.375000
vt 0.656250 0.812500
vt 0.656250 0.750000
vt 0.656250 0.312500
vt 0.656250 0.687500
vt 0.656250 0.250000
vt 0.656250 0.625000
vt 0.656250 0.125000
vt 0.687500 0.125000
vt 0.687500 0.562500
vt 0.656250 0.500000
vt 0.656250 0.937500
vt 0.671875 1.000000
vt 0.671875 0.000000
vt 0.656250 0.062500
vt 0.656250 0.875000
vt 0.625000 0.187500
vt 0.656250 0.187500
vt 0.656250 0.562500
vt 0.625000 0.625000
vt 0.625000 0.062500
vt 0.625000 0.500000
vt 0.625000 0.937500
vt 0.640625 1.000000
vt 0.640625 0.000000
vt 0.625000 0.437500
vt 0.656250 0.437500
vt 0.625000 0.875000
vt 0.625000 0.375000
vt 0.625000 0.812500
vt 0.625000 0.750000
vt 0.625000 0.250000
vt 0.625000 0.687500
vt 0.625000 0.312500
vt 0.593750 0.375000
vt 0.593750 0.750000
vt 0.593750 0.250000
vt 0.593750 0.625000
vt 0.593750 0.125000
vt 0.625000 0.125000
vt 0.625000 0.562500
vt 0.593750 0.062500
vt 0.593750 0.562500
vt 0.593750 0.937500
vt 0.609375 1.000000
vt 0.609375 0.000000
vt 0.593750 0.437500
vt 0.593750 0.875000
vt 0.593750 0.812500
vt 0.562500 0.125000
vt 0.593750 0.500000
vt 0.562500 0.562500
vt 0.562500 0.937500
vt 0.578125 1.000000
vt 0.578125 0.000000
vt 0.562500 0.062500
vt 0.562500 0.437500
vt 0.562500 0.875000
vt 0.562500 0.375000
vt 0.562500 0.812500
vt 0.593750 0.312500
vt 0.562500 0.250000
vt 0.593750 0.687500
vt 0.562500 0.750000
vt 0.562500 0.187500
vt 0.593750 0.187500
vt 0.562500 0.625000
vt 0.531250 0.750000
vt 0.531250 0.250000
vt 0.562500 0.312500
vt 0.562500 0.687500
vt 0.531250 0.625000
vt 0.531250 0.187500
vt 0.531250 0.062500
vt 0.562500 0.500000
vt 0.531250 0.562500
vt 0.531250 0.937500
vt 0.546875 1.000000
vt 0.546875 0.000000
vt 0.531250 0.437500
vt 0.531250 0.875000
vt 0.531250 0.375000
vt 0.531250 0.812500
vt 0.531250 0.500000
vt 0.500000 0.562500
vt 0.500000 0.937500
vt 0.515625 1.000000
vt 0.515625 0.000000
vt 0.500000 0.062500
vt 0.500000 0.437500
vt 0.500000 0.875000
vt 0.500000 0.375000
vt 0.500000 0.812500
vt 0.531250 0.312500
vt 0.500000 0.750000
vt 0.500000 0.250000
vt 0.531250 0.687500
vt 0.500000 0.625000
vt 0.500000 0.125000
vt 0.531250 0.125000
vt 0.468750 0.250000
vt 0.500000 0.312500
vt 0.500000 0.687500
vt 0.468750 0.750000
vt 0.500000 0.187500
vt 0.468750 0.625000
vt 0.468750 0.125000
vt 0.468750 0.062500
vt 0.500000 0.500000
vt 0.468750 0.562500
vt 0.468750 0.937500
vt 0.484375 1.000000
vt 0.484375 0.000000
vt 0.468750 0.437500
vt 0.468750 0.375000
vt 0.468750 0.812500
vt 0.437500 0.937500
vt 0.453125 1.000000
vt 0.453125 0.000000
vt 0.437500 0.062500
vt 0.437500 0.437500
vt 0.468750 0.500000
vt 0.437500 0.875000
vt 0.468750 0.875000
vt 0.437500 0.375000
vt 0.437500 0.812500
vt 0.468750 0.312500
vt 0.437500 0.750000
vt 0.437500 0.250000
vt 0.468750 0.687500
vt 0.468750 0.187500
vt 0.437500 0.625000
vt 0.437500 0.125000
vt 0.437500 0.562500
vt 0.437500 0.687500
vt 0.406250 0.750000
vt 0.437500 0.187500
vt 0.406250 0.250000
vt 0.406250 0.625000
vt 0.406250 0.125000
vt 0.437500 0.500000
vt 0.406250 0.562500
vt 0.406250 0.937500
vt 0.421875 1.000000
vt 0.421875 0.000000
vt 0.406250 0.062500
vt 0.406250 0.437500
vt 0.406250 0.875000
vt 0.406250 0.375000
vt 0.437500 0.312500
vt 0.375000 0.437500
vt 0.406250 0.500000
vt 0.375000 0.875000
vt 0.375000 0.375000
vt 0.375000 0.812500
vt 0.406250 0.812500
vt 0.406250 0.312500
vt 0.375000 0.750000
vt 0.375000 0.250000
vt 0.406250 0.687500
vt 0.406250 0.187500
vt 0.375000 0.625000
vt 0.375000 0.125000
vt 0.375000 0.562500
vt 0.375000 0.937500
vt 0.390625 1.000000
vt 0.390625 0.000000
vt 0.375000 0.062500
vt 0.375000 0.187500
vt 0.343750 0.250000
vt 0.343750 0.625000
vt 0.375000 0.687500
vt 0.343750 0.125000
vt 0.343750 0.062500
vt 0.375000 0.500000
vt 0.343750 0.562500
vt 0.343750 0.937500
vt 0.359375 1.000000
vt 0.359375 0.000000
vt 0.343750 0.437500
vt 0.343750 0.375000
vt 0.343750 0.875000
vt 0.375000 0.312500
vt 0.343750 0.750000
vt 0.312500 0.375000
vt 0.312500 0.812500
vt 0.343750 0.812500
vt 0.343750 0.312500
vt 0.312500 0.750000
vt 0.312500 0.250000
vt 0.343750 0.687500
vt 0.343750 0.187500
vt 0.312500 0.625000
vt 0.312500 0.125000
vt 0.312500 0.062500
vt 0.343750 0.500000
vt 0.312500 0.562500
vt 0.312500 0.937500
vt 0.328125 1.000000
vt 0.328125 0.000000
vt 0.312500 0.437500
vt 0.312500 0.875000
vt 0.281250 0.125000
vt 0.312500 0.187500
vt 0.281250 0.625000
vt 0.281250 0.062500
vt 0.312500 0.500000
vt 0.281250 0.562500
vt 0.281250 0.937500
vt 0.296875 1.000000
vt 0.296875 0.000000
vt 0.281250 0.437500
vt 0.281250 0.875000
vt 0.281250 0.375000
vt 0.281250 0.812500
vt 0.312500 0.312500
vt 0.281250 0.750000
vt 0.281250 0.250000
vt 0.312500 0.687500
vt 0.250000 0.812500
vt 0.281250 0.312500
vt 0.250000 0.375000
vt 0.250000 0.750000
vt 0.250000 0.250000
vt 0.281250 0.687500
vt 0.281250 0.187500
vt 0.250000 0.625000
vt 0.250000 0.125000
vt 0.250000 0.062500
vt 0.281250 0.500000
vt 0.250000 0.562500
vt 0.250000 0.937500
vt 0.265625 1.000000
vt 0.265625 0.000000
vt 0.250000 0.437500
vt 0.250000 0.875000
vt 0.218750 0.625000
vt 0.218750 0.125000
vt 0.250000 0.500000
vt 0.218750 0.562500
vt 0.218750 0.937500
vt 0.234375 1.000000
vt 0.234375 0.000000
vt 0.218750 0.062500
vt 0.218750 0.437500
vt 0.218750 0.875000
vt 0.218750 0.375000
vt 0.218750 0.812500
vt 0.250000 0.312500
vt 0.218750 0.750000
vt 0.218750 0.250000
vt 0.250000 0.687500
vt 0.250000 0.187500
vt 0.218750 0.312500
vt 0.187500 0.375000
vt 0.187500 0.750000
vt 0.187500 0.250000
vt 0.218750 0.687500
vt 0.218750 0.187500
vt 0.187500 0.625000
vt 0.187500 0.187500
vt 0.187500 0.062500
vt 0.218750 0.500000
vt 0.187500 0.562500
vt 0.187500 0.937500
vt 0.203125 1.000000
vt 0.203125 0.000000
vt 0.187500 0.437500
vt 0.187500 0.812500
vt 0.156250 0.062500
vt 0.187500 0.125000
vt 0.187500 0.500000
vt 0.156250 0.562500
vt 0.156250 0.937500
vt 0.171875 1.000000
vt 0.171875 0.000000
vt 0.156250 0.437500
vt 0.156250 0.875000
vt 0.187500 0.875000
vt 0.156250 0.375000
vt 0.156250 0.812500
vt 0.187500 0.312500
vt 0.156250 0.750000
vt 0.156250 0.250000
vt 0.187500 0.687500
vt 0.156250 0.625000
vt 0.156250 0.187500
vt 0.125000 0.750000
vt 0.125000 0.250000
vt 0.156250 0.312500
vt 0.156250 0.687500
vt 0.125000 0.625000
vt 0.125000 0.125000
vt 0.156250 0.125000
vt 0.125000 0.062500
vt 0.156250 0.500000
vt 0.125000 0.562500
vt 0.125000 0.937500
vt 0.140625 1.000000
vt 0.140625 0.000000
vt 0.125000 0.437500
vt 0.125000 0.875000
vt 0.125000 0.375000
vt 0.125000 0.500000
vt 0.093750 0.562500
vt 0.093750 0.937500
vt 0.109375 1.000000
vt 0.109375 0.000000
vt 0.093750 0.062500
vt 0.093750 0.437500
vt 0.093750 0.375000
vt 0.125000 0.812500
vt 0.093750 0.875000
vt 0.125000 0.312500
vt 0.093750 0.750000
vt 0.093750 0.250000
vt 0.125000 0.687500
vt 0.125000 0.187500
vt 0.093750 0.625000
vt 0.093750 0.125000
vt 0.062500 0.250000
vt 0.093750 0.312500
vt 0.093750 0.687500
vt 0.062500 0.750000
vt 0.093750 0.187500
vt 0.062500 0.625000
vt 0.062500 0.187500
vt 0.062500 0.062500
vt 0.093750 0.500000
vt 0.062500 0.562500
vt 0.062500 0.937500
vt 0.078125 1.000000
vt 0.078125 0.000000
vt 0.062500 0.437500
vt 0.062500 0.875000
vt 0.062500 0.375000
vt 0.093750 0.812500
vt 0.046875 0.000000
vt 0.031250 0.062500
vt 0.031250 0.437500
vt 0.062500 0.500000
vt 0.031250 0.937500
vt 0.031250 0.375000
vt 0.031250 0.812500
vt 0.062500 0.812500
vt 0.062500 0.312500
vt 0.031250 0.750000
vt 0.031250 0.250000
vt 0.062500 0.687500
vt 0.031250 0.625000
vt 0.031250 0.125000
vt 0.062500 0.125000
vt 0.031250 0.562500
vt 0.046875 1.000000
vt 0.031250 0.187500
vt 0.000000 0.250000
vt 0.000000 0.625000
vt 0.031250 0.687500
vt 0.000000 0.125000
vt 0.000000 0.062500
vt 0.031250 0.500000
vt 0.000000 0.562500
vt 0.000000 0.937500
vt 0.015625 1.000000
vt 0.015625 0.000000
vt 0.000000 0.437500
vt 0.000000 0.875000
vt 0.031250 0.875000
vt 0.000000 0.375000
vt 0.000000 0.812500
vt 0.031250 0.312500
vt 0.000000 0.750000
vt 1.000000 0.875000
vt 0.968750 0.937500
vt 1.000000 0.937500
vt 0.968750 0.375000
vt 1.000000 0.437500
vt 1.000000 0.375000
vt 1.000000 0.812500
vt 0.968750 0.875000
vt 1.000000 0.312500
vt 0.968750 0.750000
vt 1.000000 0.750000
vt 0.968750 0.250000
vt 1.000000 0.250000
vt 1.000000 0.687500
vt 1.000000 0.187500
vt 0.968750 0.625000
vt 1.000000 0.625000
vt 0.968750 0.125000
vt 1.000000 0.125000
vt 1.000000 0.562500
vt 0.968750 0.062500
vt 1.000000 0.062500
vt 1.000000 0.500000
vt 0.968750 0.562500
vt 0.984375 1.000000
vt 0.984375 0.000000
vt 0.968750 0.437500
vt 0.937500 0.625000
vt 0.968750 0.687500
vt 0.937500 0.125000
vt 0.968750 0.187500
vt 0.937500 0.062500
vt 0.968750 0.500000
vt 0.937500 0.562500
vt 0.937500 0.937500
vt 0.953125 1.000000
vt 0.953125 0.000000
vt 0.937500 0.437500
vt 0.937500 0.875000
vt 0.937500 0.375000
vt 0.968750 0.812500
vt 0.968750 0.312500
vt 0.937500 0.750000
vt 0.937500 0.250000
vt 0.906250 0.375000
vt 0.906250 0.812500
vt 0.937500 0.812500
vt 0.937500 0.312500
vt 0.906250 0.750000
vt 0.906250 0.250000
vt 0.937500 0.687500
vt 0.937500 0.187500
vt 0.906250 0.625000
vt 0.906250 0.187500
vt 0.906250 0.062500
vt 0.937500 0.500000
vt 0.906250 0.562500
vt 0.906250 0.937500
vt 0.921875 1.000000
vt 0.921875 0.000000
vt 0.906250 0.437500
vt 0.875000 0.125000
vt 0.906250 0.125000
vt 0.875000 0.625000
vt 0.906250 0.500000
vt 0.875000 0.562500
vt 0.875000 0.937500
vt 0.890625 1.000000
vt 0.890625 0.000000
vt 0.875000 0.062500
vt 0.875000 0.437500
vt 0.875000 0.875000
vt 0.906250 0.875000
vt 0.875000 0.375000
vt 0.906250 0.312500
vt 0.875000 0.750000
vt 0.875000 0.250000
vt 0.906250 0.687500
vt 0.875000 0.812500
vt 0.843750 0.875000
vt 0.875000 0.312500
vt 0.843750 0.375000
vt 0.843750 0.750000
vt 0.843750 0.250000
vt 0.875000 0.687500
vt 0.875000 0.187500
vt 0.843750 0.625000
vt 0.843750 0.125000
vt 0.843750 0.062500
vt 0.875000 0.500000
vt 0.843750 0.562500
vt 0.843750 0.937500
vt 0.859375 1.000000
vt 0.859375 0.000000
vt 0.843750 0.437500
vt 0.812500 0.625000
vt 0.812500 0.062500
vt 0.843750 0.500000
vt 0.812500 0.562500
vt 0.812500 0.937500
vt 0.828125 1.000000
vt 0.828125 0.000000
vt 0.812500 0.437500
vt 0.812500 0.875000
vt 0.812500 0.375000
vt 0.843750 0.812500
vt 0.843750 0.312500
vt 0.812500 0.750000
vt 0.812500 0.250000
vt 0.843750 0.687500
vt 0.843750 0.187500
vt 0.812500 0.125000
vt 0.812500 0.312500
vt 0.781250 0.375000
vt 0.781250 0.750000
vt 0.812500 0.812500
vt 0.781250 0.250000
vt 0.812500 0.687500
vt 0.812500 0.187500
vt 0.781250 0.625000
vt 0.781250 0.125000
vt 0.781250 0.062500
vt 0.812500 0.500000
vt 0.781250 0.562500
vt 0.781250 0.937500
vt 0.796875 1.000000
vt 0.796875 0.000000
vt 0.781250 0.437500
vt 0.781250 0.875000
vt 0.781250 0.500000
vt 0.765625 1.000000
vt 0.765625 0.000000
vt 0.781250 0.812500
vt 0.781250 0.312500
vt 0.781250 0.687500
vt 0.781250 0.187500
vt 0.000000 0.187500
vt 0.000000 0.687500
vt 0.000000 0.500000
vt 0.000000 0.312500
s 0
usemtl マテリアル
f 21/1/1 482/3/1 481/2/1
f 14/4/2 4/6/2 3/5/2
f 474/7/3 82/9/3 7/8/3
f 308/10/4 482/3/4 21/1/4
f 15/11/5 5/12/5 4/6/5
f 475/13/6 474/7/6 7/8/6
f 16/14/7 478/15/7 5/12/7
f 1/16/8 475/13/8 8/17/8
f 17/18/9 6/19/9 478/15/9
f 476/20/10 1/16/10 9/21/10
f 18/22/11 479/23/11 6/19/11
f 11/24/12 2/25/12 476/20/12
f 19/26/13 480/27/13 479/23/13
f 477/28/14 2/25/14 11/24/14
f 20/29/15 481/2/15 480/27/15
f 3/5/16 477/28/16 12/30/16
f 27/31/17 12/30/17 11/24/17
f 20/29/18 19/26/18 34/32/18
f 13/33/19 12/30/19 27/31/19
f 36/34/20 21/1/20 20/29/20
f 29/35/21 14/4/21 13/33/21
f 7/8/22 82/37/22 22/36/22
f 308/38/23 21/1/23 36/34/23
f 30/39/24 15/11/24 14/4/24
f 23/40/25 8/17/25 7/8/25
f 31/41/26 16/14/26 15/11/26
f 24/42/27 9/21/27 8/17/27
f 32/43/28 17/18/28 16/14/28
f 25/44/29 10/45/29 9/21/29
f 33/46/30 18/22/30 17/18/30
f 26/47/31 11/24/31 10/45/31
f 19/26/32 18/22/32 33/46/32
f 46/48/33 31/41/33 30/39/33
f 39/49/34 24/42/34 23/40/34
f 32/43/35 31/41/35 46/48/35
f 40/50/36 25/44/36 24/42/36
f 33/46/37 32/43/37 47/51/37
f 41/52/38 26/47/38 25/44/38
f 34/32/39 33/46/39 48/53/39
f 42/54/40 27/31/40 26/47/40
f 50/55/41 35/56/41 34/32/41
f 28/57/42 27/31/42 42/54/42
f 36/34/43 35/56/43 50/55/43
f 44/58/44 29/35/44 28/57/44
f 22/36/45 82/60/45 37/59/45
f 308/61/46 36/34/46 51/62/46
f 30/39/47 29/35/47 44/58/47
f 38/63/48 23/40/48 22/36/48
f 50/55/49 49/65/49 64/64/49
f 43/66/50 42/54/50 57/67/50
f 66/68/51 51/62/51 50/55/51
f 59/69/52 44/58/52 43/66/52
f 37/59/53 82/71/53 52/70/53
f 308/72/54 51/62/54 66/68/54
f 60/73/55 45/74/55 44/58/55
f 53/75/56 38/63/56 37/59/56
f 61/76/57 46/48/57 45/74/57
f 54/77/58 39/49/58 38/63/58
f 47/51/59 46/48/59 61/76/59
f 55/78/60 40/50/60 39/49/60
f 63/79/61 48/53/61 47/51/61
f 56/80/62 41/52/62 40/50/62
f 64/64/63 49/65/63 48/53/63
f 57/67/64 42/54/64 41/52/64
f 62/81/65 61/76/65 76/82/65
f 70/83/66 55/78/66 54/77/66
f 78/84/67 63/79/67 62/81/67
f 56/80/68 55/78/68 70/83/68
f 64/64/69 63/79/69 78/84/69
f 72/85/70 57/67/70 56/80/70
f 80/86/71 65/87/71 64/64/71
f 58/88/72 57/67/72 72/85/72
f 81/89/73 66/68/73 65/87/73
f 59/69/74 58/88/74 73/90/74
f 52/70/75 82/92/75 67/91/75
f 308/93/76 66/68/76 81/89/76
f 75/94/77 60/73/77 59/69/77
f 68/95/78 53/75/78 52/70/78
f 76/82/79 61/76/79 60/73/79
f 69/96/80 54/77/80 53/75/80
f 81/89/81 80/86/81 96/97/81
f 74/98/82 73/90/82 89/99/82
f 67/91/83 82/101/83 83/100/83
f 308/102/84 81/89/84 97/103/84
f 91/104/85 75/94/85 74/98/85
f 84/105/86 68/95/86 67/91/86
f 92/106/87 76/82/87 75/94/87
f 85/107/88 69/96/88 68/95/88
f 77/108/89 76/82/89 92/106/89
f 70/83/90 69/96/90 85/107/90
f 94/109/91 78/84/91 77/108/91
f 71/110/92 70/83/92 86/111/92
f 95/112/93 79/113/93 78/84/93
f 88/114/94 72/85/94 71/110/94
f 96/97/95 80/86/95 79/113/95
f 73/90/96 72/85/96 88/114/96
f 101/115/97 86/111/97 85/107/97
f 109/116/98 94/109/98 93/117/98
f 87/118/99 86/111/99 101/115/99
f 95/112/100 94/109/100 109/116/100
f 103/119/101 88/114/101 87/118/101
f 96/97/102 95/112/102 110/120/102
f 89/99/103 88/114/103 103/119/103
f 112/121/104 97/103/104 96/97/104
f 90/122/105 89/99/105 104/123/105
f 83/100/106 82/125/106 98/124/106
f 308/126/107 97/103/107 112/121/107
f 106/127/108 91/104/108 90/122/108
f 99/128/109 84/105/109 83/100/109
f 107/129/110 92/106/110 91/104/110
f 100/130/111 85/107/111 84/105/111
f 93/117/112 92/106/112 107/129/112
f 105/131/113 104/123/113 119/132/113
f 98/124/114 82/134/114 113/133/114
f 308/135/115 112/121/115 127/136/115
f 121/137/116 106/127/116 105/131/116
f 114/138/117 99/128/117 98/124/117
f 122/139/118 107/129/118 106/127/118
f 115/140/119 100/130/119 99/128/119
f 108/141/120 107/129/120 122/139/120
f 116/142/121 101/115/121 100/130/121
f 124/143/122 109/116/122 108/141/122
f 102/144/123 101/115/123 116/142/123
f 110/120/124 109/116/124 124/143/124
f 118/145/125 103/119/125 102/144/125
f 126/146/126 111/147/126 110/120/126
f 104/123/127 103/119/127 118/145/127
f 112/121/128 111/147/128 126/146/128
f 139/148/129 124/143/129 123/149/129
f 117/150/130 116/142/130 131/151/130
f 125/152/131 124/143/131 139/148/131
f 133/153/132 118/145/132 117/150/132
f 141/154/133 126/146/133 125/152/133
f 119/132/134 118/145/134 133/153/134
f 142/155/135 127/136/135 126/146/135
f 120/156/136 119/132/136 134/157/136
f 113/133/137 82/159/137 128/158/137
f 308/160/138 127/136/138 142/155/138
f 136/161/139 121/137/139 120/156/139
f 114/138/140 113/133/140 128/158/140
f 137/162/141 122/139/141 121/137/141
f 130/163/142 115/140/142 114/138/142
f 123/149/143 122/139/143 137/162/143
f 131/151/144 116/142/144 115/140/144
f 128/158/145 82/165/145 143/164/145
f 308/166/146 142/155/146 157/167/146
f 151/168/147 136/161/147 135/169/147
f 144/170/148 129/171/148 128/158/148
f 152/172/149 137/162/149 136/161/149
f 145/173/150 130/163/150 129/171/150
f 138/174/151 137/162/151 152/172/151
f 146/175/152 131/151/152 130/163/152
f 154/176/153 139/148/153 138/174/153
f 132/177/154 131/151/154 146/175/154
f 140/178/155 139/148/155 154/176/155
f 148/179/156 133/153/156 132/177/156
f 156/180/157 141/154/157 140/178/157
f 134/157/158 133/153/158 148/179/158
f 157/167/159 142/155/159 141/154/159
f 135/169/160 134/157/160 149/181/160
f 147/182/161 146/175/161 161/183/161
f 155/184/162 154/176/162 169/185/162
f 163/186/163 148/179/163 147/182/163
f 171/187/164 156/180/164 155/184/164
f 149/181/165 148/179/165 163/186/165
f 157/167/166 156/180/166 171/187/166
f 150/188/167 149/181/167 164/189/167
f 143/164/168 82/191/168 158/190/168
f 308/192/169 157/167/169 172/193/169
f 166/194/170 151/168/170 150/188/170
f 159/195/171 144/170/171 143/164/171
f 167/196/172 152/172/172 151/168/172
f 145/173/173 144/170/173 159/195/173
f 153/197/174 152/172/174 167/196/174
f 161/183/175 146/175/175 145/173/175
f 169/185/176 154/176/176 153/197/176
f 181/198/177 166/194/177 165/199/177
f 174/200/178 159/195/178 158/190/178
f 182/201/179 167/196/179 166/194/179
f 175/202/180 160/203/180 159/195/180
f 168/204/181 167/196/181 182/201/181
f 176/205/182 161/183/182 160/203/182
f 184/206/183 169/185/183 168/204/183
f 162/207/184 161/183/184 176/205/184
f 170/208/185 169/185/185 184/206/185
f 178/209/186 163/186/186 162/207/186
f 186/210/187 171/187/187 170/208/187
f 164/189/188 163/186/188 178/209/188
f 172/193/189 171/187/189 186/210/189
f 165/199/190 164/189/190 179/211/190
f 158/190/191 82/213/191 173/212/191
f 308/214/192 172/193/192 187/215/192
f 185/216/193 184/206/193 199/217/193
f 193/218/194 178/209/194 177/219/194
f 201/220/195 186/210/195 185/216/195
f 179/211/196 178/209/196 193/218/196
f 202/221/197 187/215/197 186/210/197
f 180/222/198 179/211/198 194/223/198
f 173/212/199 82/225/199 188/224/199
f 308/226/200 187/215/200 202/221/200
f 196/227/201 181/198/201 180/222/201
f 174/200/202 173/212/202 188/224/202
f 197/228/203 182/201/203 181/198/203
f 175/202/204 174/200/204 189/229/204
f 183/230/205 182/201/205 197/228/205
f 191/231/206 176/205/206 175/202/206
f 199/217/207 184/206/207 183/230/207
f 177/219/208 176/205/208 191/231/208
f 212/232/209 197/228/209 196/227/209
f 205/233/210 190/234/210 189/229/210
f 198/235/211 197/228/211 212/232/211
f 206/236/212 191/231/212 190/234/212
f 214/237/213 199/217/213 198/235/213
f 192/238/214 191/231/214 206/236/214
f 200/239/215 199/217/215 214/237/215
f 208/240/216 193/218/216 192/238/216
f 216/241/217 201/220/217 200/239/217
f 194/223/218 193/218/218 208/240/218
f 217/242/219 202/221/219 201/220/219
f 195/243/220 194/223/220 209/244/220
f 188/224/221 82/246/221 203/245/221
f 308/247/222 202/221/222 217/242/222
f 211/248/223 196/227/223 195/243/223
f 204/249/224 189/229/224 188/224/224
f 231/250/225 216/241/225 215/251/225
f 209/244/226 208/240/226 223/252/226
f 232/253/227 217/242/227 216/241/227
f 210/254/228 209/244/228 224/255/228
f 203/245/229 82/257/229 218/256/229
f 308/258/230 217/242/230 232/253/230
f 226/259/231 211/248/231 210/254/231
f 219/260/232 204/249/232 203/245/232
f 227/261/233 212/232/233 211/248/233
f 220/262/234 205/233/234 204/249/234
f 213/263/235 212/232/235 227/261/235
f 221/264/236 206/236/236 205/233/236
f 229/265/237 214/237/237 213/263/237
f 207/266/238 206/236/238 221/264/238
f 215/251/239 214/237/239 229/265/239
f 223/252/240 208/240/240 207/266/240
f 235/267/241 220/262/241 219/260/241
f 228/268/242 227/261/242 242/269/242
f 236/270/243 221/264/243 220/262/243
f 244/271/244 229/265/244 228/268/244
f 222/272/245 221/264/245 236/270/245
f 230/273/246 229/265/246 244/271/246
f 238/274/247 223/252/247 222/272/247
f 246/275/248 231/250/248 230/273/248
f 224/255/249 223/252/249 238/274/249
f 247/276/250 232/253/250 231/250/250
f 225/277/251 224/255/251 239/278/251
f 218/256/252 82/280/252 233/279/252
f 308/281/253 232/253/253 247/276/253
f 241/282/254 226/259/254 225/277/254
f 234/283/255 219/260/255 218/256/255
f 242/269/256 227/261/256 226/259/256
f 239/278/257 238/274/257 253/284/257
f 247/276/258 246/275/258 261/285/258
f 240/286/259 239/278/259 254/287/259
f 233/279/260 82/289/260 248/288/260
f 308/290/261 247/276/261 262/291/261
f 256/292/262 241/282/262 240/286/262
f 249/293/263 234/283/263 233/279/263
f 257/294/264 242/269/264 241/282/264
f 250/295/265 235/267/265 234/283/265
f 243/296/266 242/269/266 257/294/266
f 251/297/267 236/270/267 235/267/267
f 259/298/268 244/271/268 243/296/268
f 237/299/269 236/270/269 251/297/269
f 245/300/270 244/271/270 259/298/270
f 253/284/271 238/274/271 237/299/271
f 261/285/272 246/275/272 245/300/272
f 258/301/273 257/294/273 272/302/273
f 266/303/274 251/297/274 250/295/274
f 274/304/275 259/298/275 258/301/275
f 252/305/276 251/297/276 266/303/276
f 260/306/277 259/298/277 274/304/277
f 268/307/278 253/284/278 252/305/278
f 261/285/279 260/306/279 275/308/279
f 254/287/280 253/284/280 268/307/280
f 277/309/281 262/291/281 261/285/281
f 255/310/282 254/287/282 269/311/282
f 248/288/283 82/313/283 263/312/283
f 308/314/284 262/291/284 277/309/284
f 271/315/285 256/292/285 255/310/285
f 249/293/286 248/288/286 263/312/286
f 272/302/287 257/294/287 256/292/287
f 265/316/288 250/295/288 249/293/288
f 292/317/289 277/309/289 276/318/289
f 270/319/290 269/311/290 284/320/290
f 263/312/291 82/322/291 278/321/291
f 308/323/292 277/309/292 292/317/292
f 286/324/293 271/315/293 270/319/293
f 279/325/294 264/326/294 263/312/294
f 287/327/295 272/302/295 271/315/295
f 280/328/296 265/316/296 264/326/296
f 273/329/297 272/302/297 287/327/297
f 281/330/298 266/303/298 265/316/298
f 289/331/299 274/304/299 273/329/299
f 267/332/300 266/303/300 281/330/300
f 275/308/301 274/304/301 289/331/301
f 283/333/302 268/307/302 267/332/302
f 276/318/303 275/308/303 290/334/303
f 269/311/304 268/307/304 283/333/304
f 296/335/305 281/330/305 280/328/305
f 304/336/306 289/331/306 288/337/306
f 282/338/307 281/330/307 296/335/307
f 290/334/308 289/331/308 304/336/308
f 298/339/309 283/333/309 282/338/309
f 306/340/310 291/341/310 290/334/310
f 284/320/311 283/333/311 298/339/311
f 307/342/312 292/317/312 291/341/312
f 285/343/313 284/320/313 299/344/313
f 278/321/314 82/346/314 293/345/314
f 308/347/315 292/317/315 307/342/315
f 301/348/316 286/324/316 285/343/316
f 294/349/317 279/325/317 278/321/317
f 302/350/318 287/327/318 286/324/318
f 280/328/319 279/325/319 294/349/319
f 288/337/320 287/327/320 302/350/320
f 300/351/321 299/344/321 315/352/321
f 293/345/322 82/354/322 309/353/322
f 308/355/323 307/342/323 323/356/323
f 317/357/324 301/348/324 300/351/324
f 294/349/325 293/345/325 309/353/325
f 318/358/326 302/350/326 301/348/326
f 295/359/327 294/349/327 310/360/327
f 303/361/328 302/350/328 318/358/328
f 312/362/329 296/335/329 295/359/329
f 320/363/330 304/336/330 303/361/330
f 297/364/331 296/335/331 312/362/331
f 305/365/332 304/336/332 320/363/332
f 314/366/333 298/339/333 297/364/333
f 322/367/334 306/340/334 305/365/334
f 299/344/335 298/339/335 314/366/335
f 323/356/336 307/342/336 306/340/336
f 335/368/337 320/363/337 319/369/337
f 313/370/338 312/362/338 327/371/338
f 321/372/339 320/363/339 335/368/339
f 329/373/340 314/366/340 313/370/340
f 322/367/341 321/372/341 336/374/341
f 315/352/342 314/366/342 329/373/342
f 338/375/343 323/356/343 322/367/343
f 316/376/344 315/352/344 330/377/344
f 309/353/345 82/379/345 324/378/345
f 308/380/346 323/356/346 338/375/346
f 332/381/347 317/357/347 316/376/347
f 325/382/348 310/360/348 309/353/348
f 333/383/349 318/358/349 317/357/349
f 311/384/350 310/360/350 325/382/350
f 319/369/351 318/358/351 333/383/351
f 327/371/352 312/362/352 311/384/352
f 308/385/353 338/375/353 353/386/353
f 347/387/354 332/381/354 331/388/354
f 325/382/355 324/378/355 339/389/355
f 348/390/356 333/383/356 332/381/356
f 341/391/357 326/392/357 325/382/357
f 334/393/358 333/383/358 348/390/358
f 342/394/359 327/371/359 326/392/359
f 350/395/360 335/368/360 334/393/360
f 328/396/361 327/371/361 342/394/361
f 336/374/362 335/368/362 350/395/362
f 344/397/363 329/373/363 328/396/363
f 352/398/364 337/399/364 336/374/364
f 330/377/365 329/373/365 344/397/365
f 338/375/366 337/399/366 352/398/366
f 331/388/367 330/377/367 345/400/367
f 324/378/368 82/401/368 339/389/368
f 351/402/369 350/395/369 365/403/369
f 359/404/370 344/397/370 343/405/370
f 367/406/371 352/398/371 351/402/371
f 345/400/372 344/397/372 359/404/372
f 368/407/373 353/386/373 352/398/373
f 346/408/374 345/400/374 360/409/374
f 339/389/375 82/411/375 354/410/375
f 308/412/376 353/386/376 368/407/376
f 362/413/377 347/387/377 346/408/377
f 355/414/378 340/415/378 339/389/378
f 363/416/379 348/390/379 347/387/379
f 356/417/380 341/391/380 340/415/380
f 349/418/381 348/390/381 363/416/381
f 357/419/382 342/394/382 341/391/382
f 365/403/383 350/395/383 349/418/383
f 343/405/384 342/394/384 357/419/384
f 355/420/385 354/422/385 369/421/385
f 378/423/386 363/425/386 362/424/386
f 356/426/387 355/420/387 370/427/387
f 364/428/388 363/425/388 378/423/388
f 372/429/389 357/430/389 356/426/389
f 380/431/390 365/432/390 364/428/390
f 358/433/391 357/430/391 372/429/391
f 366/434/392 365/432/392 380/431/392
f 374/435/393 359/436/393 358/433/393
f 382/437/394 367/438/394 366/434/394
f 360/439/395 359/436/395 374/435/395
f 383/440/396 368/441/396 367/438/396
f 361/442/397 360/439/397 375/443/397
f 354/422/398 82/444/398 369/421/398
f 308/445/399 368/441/399 383/440/399
f 377/446/400 362/424/400 361/442/400
f 389/447/401 374/435/401 373/448/401
f 397/449/402 382/437/402 381/450/402
f 375/443/403 374/435/403 389/447/403
f 398/451/404 383/440/404 382/437/404
f 376/452/405 375/443/405 390/453/405
f 369/421/406 82/455/406 384/454/406
f 308/456/407 383/440/407 398/451/407
f 392/457/408 377/446/408 376/452/408
f 385/458/409 370/427/409 369/421/409
f 393/459/410 378/423/410 377/446/410
f 371/460/411 370/427/411 385/458/411
f 379/461/412 378/423/412 393/459/412
f 387/462/413 372/429/413 371/460/413
f 395/463/414 380/431/414 379/461/414
f 373/448/415 372/429/415 387/462/415
f 381/450/416 380/431/416 395/463/416
f 408/464/417 393/459/417 392/457/417
f 401/465/418 386/466/418 385/458/418
f 394/467/419 393/459/419 408/464/419
f 402/468/420 387/462/420 386/466/420
f 410/469/421 395/463/421 394/467/421
f 388/470/422 387/462/422 402/468/422
f 396/471/423 395/463/423 410/469/423
f 404/472/424 389/447/424 388/470/424
f 397/449/425 396/471/425 411/473/425
f 390/453/426 389/447/426 404/472/426
f 413/474/427 398/451/427 397/449/427
f 391/475/428 390/453/428 405/476/428
f 384/454/429 82/478/429 399/477/429
f 308/479/430 398/451/430 413/474/430
f 407/480/431 392/457/431 391/475/431
f 385/458/432 384/454/432 399/477/432
f 427/481/433 412/482/433 411/473/433
f 405/476/434 404/472/434 419/483/434
f 413/474/435 412/482/435 427/481/435
f 406/484/436 405/476/436 420/485/436
f 399/477/437 82/487/437 414/486/437
f 308/488/438 413/474/438 428/489/438
f 422/490/439 407/480/439 406/484/439
f 415/491/440 400/492/440 399/477/440
f 423/493/441 408/464/441 407/480/441
f 401/465/442 400/492/442 415/491/442
f 409/494/443 408/464/443 423/493/443
f 417/495/444 402/468/444 401/465/444
f 425/496/445 410/469/445 409/494/445
f 403/497/446 402/468/446 417/495/446
f 411/473/447 410/469/447 425/496/447
f 419/483/448 404/472/448 403/497/448
f 416/498/449 415/491/449 430/499/449
f 424/500/450 423/493/450 438/501/450
f 432/502/451 417/495/451 416/498/451
f 440/503/452 425/496/452 424/500/452
f 418/504/453 417/495/453 432/502/453
f 426/505/454 425/496/454 440/503/454
f 434/506/455 419/483/455 418/504/455
f 442/507/456 427/481/456 426/505/456
f 420/485/457 419/483/457 434/506/457
f 443/508/458 428/489/458 427/481/458
f 421/509/459 420/485/459 435/510/459
f 414/486/460 82/512/460 429/511/460
f 308/513/461 428/489/461 443/508/461
f 437/514/462 422/490/462 421/509/462
f 430/499/463 415/491/463 414/486/463
f 438/501/464 423/493/464 422/490/464
f 435/510/465 434/506/465 449/515/465
f 458/516/466 443/508/466 442/507/466
f 436/517/467 435/510/467 450/518/467
f 429/511/468 82/520/468 444/519/468
f 308/521/469 443/508/469 458/516/469
f 452/522/470 437/514/470 436/517/470
f 445/523/471 430/499/471 429/511/471
f 453/524/472 438/501/472 437/514/472
f 431/525/473 430/499/473 445/523/473
f 439/526/474 438/501/474 453/524/474
f 447/527/475 432/502/475 431/525/475
f 455/528/476 440/503/476 439/526/476
f 433/529/477 432/502/477 447/527/477
f 441/530/478 440/503/478 455/528/478
f 449/515/479 434/506/479 433/529/479
f 457/531/480 442/507/480 441/530/480
f 454/532/481 453/524/481 468/533/481
f 462/534/482 447/527/482 446/535/482
f 470/536/483 455/528/483 454/532/483
f 448/537/484 447/527/484 462/534/484
f 456/538/485 455/528/485 470/536/485
f 464/539/486 449/515/486 448/537/486
f 472/540/487 457/531/487 456/538/487
f 450/518/488 449/515/488 464/539/488
f 473/541/489 458/516/489 457/531/489
f 451/542/490 450/518/490 465/543/490
f 444/519/491 82/545/491 459/544/491
f 308/546/492 458/516/492 473/541/492
f 467/547/493 452/522/493 451/542/493
f 460/548/494 445/523/494 444/519/494
f 468/533/495 453/524/495 452/522/495
f 446/535/496 445/523/496 460/548/496
f 482/3/497 473/541/497 472/540/497
f 466/549/498 465/543/498 3/5/498
f 459/544/499 82/550/499 474/7/499
f 308/551/500 473/541/500 482/3/500
f 5/12/501 467/547/501 466/549/501
f 460/548/502 459/544/502 474/7/502
f 478/15/503 468/533/503 467/547/503
f 461/552/504 460/548/504 475/13/504
f 6/19/505 469/553/505 468/533/505
f 462/534/506 461/552/506 1/16/506
f 479/23/507 470/536/507 469/553/507
f 463/554/508 462/534/508 476/20/508
f 471/555/509 470/536/509 479/23/509
f 464/539/510 463/554/510 2/25/510
f 481/2/511 472/540/511 471/555/511
f 465/543/512 464/539/512 477/28/512
f 21/1/1 481/2/1 20/29/1
f 14/4/513 3/5/513 13/33/513
f 15/11/514 4/6/514 14/4/514
f 475/13/6 7/8/6 8/17/6
f 16/14/7 5/12/7 15/11/7
f 1/16/8 8/17/8 9/21/8
f 17/18/9 478/15/9 16/14/9
f 476/20/10 9/21/10 10/45/10
f 18/22/11 6/19/11 17/18/11
f 11/24/12 476/20/12 10/45/12
f 19/26/13 479/23/13 18/22/13
f 477/28/14 11/24/14 12/30/14
f 20/29/15 480/27/15 19/26/15
f 3/5/16 12/30/16 13/33/16
f 27/31/17 11/24/17 26/47/17
f 20/29/18 34/32/18 35/56/18
f 13/33/19 27/31/19 28/57/19
f 36/34/20 20/29/20 35/56/20
f 29/35/21 13/33/21 28/57/21
f 30/39/515 14/4/515 29/35/515
f 23/40/25 7/8/25 22/36/25
f 31/41/26 15/11/26 30/39/26
f 24/42/27 8/17/27 23/40/27
f 32/43/28 16/14/28 31/41/28
f 25/44/29 9/21/29 24/42/29
f 33/46/30 17/18/30 32/43/30
f 26/47/31 10/45/31 25/44/31
f 19/26/32 33/46/32 34/32/32
f 46/48/33 30/39/33 45/74/33
f 39/49/516 23/40/516 38/63/516
f 32/43/35 46/48/35 47/51/35
f 40/50/36 24/42/36 39/49/36
f 33/46/37 47/51/37 48/53/37
f 41/52/38 25/44/38 40/50/38
f 34/32/39 48/53/39 49/65/39
f 42/54/40 26/47/40 41/52/40
f 50/55/517 34/32/517 49/65/517
f 28/57/42 42/54/42 43/66/42
f 36/34/43 50/55/43 51/62/43
f 44/58/44 28/57/44 43/66/44
f 30/39/47 44/58/47 45/74/47
f 38/63/48 22/36/48 37/59/48
f 50/55/49 64/64/49 65/87/49
f 43/66/50 57/67/50 58/88/50
f 66/68/51 50/55/51 65/87/51
f 59/69/52 43/66/52 58/88/52
f 60/73/55 44/58/55 59/69/55
f 53/75/56 37/59/56 52/70/56
f 61/76/57 45/74/57 60/73/57
f 54/77/58 38/63/58 53/75/58
f 47/51/59 61/76/59 62/81/59
f 55/78/60 39/49/60 54/77/60
f 63/79/61 47/51/61 62/81/61
f 56/80/62 40/50/62 55/78/62
f 64/64/63 48/53/63 63/79/63
f 57/67/64 41/52/64 56/80/64
f 62/81/65 76/82/65 77/108/65
f 70/83/66 54/77/66 69/96/66
f 78/84/67 62/81/67 77/108/67
f 56/80/68 70/83/68 71/110/68
f 64/64/69 78/84/69 79/113/69
f 72/85/70 56/80/70 71/110/70
f 80/86/71 64/64/71 79/113/71
f 58/88/72 72/85/72 73/90/72
f 81/89/73 65/87/73 80/86/73
f 59/69/74 73/90/74 74/98/74
f 75/94/77 59/69/77 74/98/77
f 68/95/78 52/70/78 67/91/78
f 76/82/79 60/73/79 75/94/79
f 69/96/80 53/75/80 68/95/80
f 81/89/81 96/97/81 97/103/81
f 74/98/82 89/99/82 90/122/82
f 91/104/85 74/98/85 90/122/85
f 84/105/86 67/91/86 83/100/86
f 92/106/87 75/94/87 91/104/87
f 85/107/88 68/95/88 84/105/88
f 77/108/89 92/106/89 93/117/89
f 70/83/90 85/107/90 86/111/90
f 94/109/91 77/108/91 93/117/91
f 71/110/92 86/111/92 87/118/92
f 95/112/93 78/84/93 94/109/93
f 88/114/94 71/110/94 87/118/94
f 96/97/95 79/113/95 95/112/95
f 73/90/96 88/114/96 89/99/96
f 101/115/97 85/107/97 100/130/97
f 109/116/98 93/117/98 108/141/98
f 87/118/99 101/115/99 102/144/99
f 95/112/100 109/116/100 110/120/100
f 103/119/101 87/118/101 102/144/101
f 96/97/102 110/120/102 111/147/102
f 89/99/103 103/119/103 104/123/103
f 112/121/104 96/97/104 111/147/104
f 90/122/105 104/123/105 105/131/105
f 106/127/108 90/122/108 105/131/108
f 99/128/109 83/100/109 98/124/109
f 107/129/110 91/104/110 106/127/110
f 100/130/111 84/105/111 99/128/111
f 93/117/112 107/129/112 108/141/112
f 105/131/113 119/132/113 120/156/113
f 121/137/116 105/131/116 120/156/116
f 114/138/117 98/124/117 113/133/117
f 122/139/118 106/127/118 121/137/118
f 115/140/119 99/128/119 114/138/119
f 108/141/120 122/139/120 123/149/120
f 116/142/121 100/130/121 115/140/121
f 124/143/122 108/141/122 123/149/122
f 102/144/123 116/142/123 117/150/123
f 110/120/124 124/143/124 125/152/124
f 118/145/125 102/144/125 117/150/125
f 126/146/126 110/120/126 125/152/126
f 104/123/127 118/145/127 119/132/127
f 112/121/128 126/146/128 127/136/128
f 139/148/129 123/149/129 138/174/129
f 117/150/130 131/151/130 132/177/130
f 125/152/131 139/148/131 140/178/131
f 133/153/132 117/150/132 132/177/132
f 141/154/133 125/152/133 140/178/133
f 119/132/134 133/153/134 134/157/134
f 142/155/135 126/146/135 141/154/135
f 120/156/136 134/157/136 135/169/136
f 136/161/139 120/156/139 135/169/139
f 114/138/140 128/158/140 129/171/140
f 137/162/141 121/137/141 136/161/141
f 130/163/142 114/138/142 129/171/142
f 123/149/143 137/162/143 138/174/143
f 131/151/144 115/140/144 130/163/144
f 151/168/147 135/169/147 150/188/147
f 144/170/148 128/158/148 143/164/148
f 152/172/149 136/161/149 151/168/149
f 145/173/150 129/171/150 144/170/150
f 138/174/151 152/172/151 153/197/151
f 146/175/152 130/163/152 145/173/152
f 154/176/153 138/174/153 153/197/153
f 132/177/154 146/175/154 147/182/154
f 140/178/155 154/176/155 155/184/155
f 148/179/156 132/177/156 147/182/156
f 156/180/157 140/178/157 155/184/157
f 134/157/158 148/179/158 149/181/158
f 157/167/159 141/154/159 156/180/159
f 135/169/160 149/181/160 150/188/160
f 147/182/161 161/183/161 162/207/161
f 155/184/162 169/185/162 170/208/162
f 163/186/163 147/182/163 162/207/163
f 171/187/518 155/184/518 170/208/518
f 149/181/165 163/186/165 164/189/165
f 157/167/166 171/187/166 172/193/166
f 150/188/167 164/189/167 165/199/167
f 166/194/170 150/188/170 165/199/170
f 159/195/171 143/164/171 158/190/171
f 167/196/172 151/168/172 166/194/172
f 145/173/519 159/195/519 160/203/519
f 153/197/174 167/196/174 168/204/174
f 161/183/175 145/173/175 160/203/175
f 169/185/176 153/197/176 168/204/176
f 181/198/177 165/199/177 180/222/177
f 174/200/178 158/190/178 173/212/178
f 182/201/179 166/194/179 181/198/179
f 175/202/180 159/195/180 174/200/180
f 168/204/181 182/201/181 183/230/181
f 176/205/182 160/203/182 175/202/182
f 184/206/183 168/204/183 183/230/183
f 162/207/184 176/205/184 177/219/184
f 170/208/185 184/206/185 185/216/185
f 178/209/186 162/207/186 177/219/186
f 186/210/187 170/208/187 185/216/187
f 164/189/188 178/209/188 179/211/188
f 172/193/189 186/210/189 187/215/189
f 165/199/190 179/211/190 180/222/190
f 185/216/193 199/217/193 200/239/193
f 193/218/194 177/219/194 192/238/194
f 201/220/195 185/216/195 200/239/195
f 179/211/196 193/218/196 194/223/196
f 202/221/197 186/210/197 201/220/197
f 180/222/198 194/223/198 195/243/198
f 196/227/201 180/222/201 195/243/201
f 174/200/202 188/224/202 189/229/202
f 197/228/203 181/198/203 196/227/203
f 175/202/204 189/229/204 190/234/204
f 183/230/205 197/228/205 198/235/205
f 191/231/206 175/202/206 190/234/206
f 199/217/207 183/230/207 198/235/207
f 177/219/208 191/231/208 192/238/208
f 212/232/209 196/227/209 211/248/209
f 205/233/210 189/229/210 204/249/210
f 198/235/211 212/232/211 213/263/211
f 206/236/212 190/234/212 205/233/212
f 214/237/213 198/235/213 213/263/213
f 192/238/214 206/236/214 207/266/214
f 200/239/215 214/237/215 215/251/215
f 208/240/216 192/238/216 207/266/216
f 216/241/217 200/239/217 215/251/217
f 194/223/218 208/240/218 209/244/218
f 217/242/219 201/220/219 216/241/219
f 195/243/220 209/244/220 210/254/220
f 211/248/223 195/243/223 210/254/223
f 204/249/224 188/224/224 203/245/224
f 231/250/225 215/251/225 230/273/225
f 209/244/226 223/252/226 224/255/226
f 232/253/227 216/241/227 231/250/227
f 210/254/228 224/255/228 225/277/228
f 226/259/231 210/254/231 225/277/231
f 219/260/232 203/245/232 218/256/232
f 227/261/233 211/248/233 226/259/233
f 220/262/234 204/249/234 219/260/234
f 213/263/235 227/261/235 228/268/235
f 221/264/236 205/233/236 220/262/236
f 229/265/237 213/263/237 228/268/237
f 207/266/238 221/264/238 222/272/238
f 215/251/239 229/265/239 230/273/239
f 223/252/240 207/266/240 222/272/240
f 235/267/241 219/260/241 234/283/241
f 228/268/242 242/269/242 243/296/242
f 236/270/243 220/262/243 235/267/243
f 244/271/244 228/268/244 243/296/244
f 222/272/245 236/270/245 237/299/245
f 230/273/246 244/271/246 245/300/246
f 238/274/247 222/272/247 237/299/247
f 246/275/248 230/273/248 245/300/248
f 224/255/249 238/274/249 239/278/249
f 247/276/250 231/250/250 246/275/250
f 225/277/251 239/278/251 240/286/251
f 241/282/254 225/277/254 240/286/254
f 234/283/255 218/256/255 233/279/255
f 242/269/256 226/259/256 241/282/256
f 239/278/257 253/284/257 254/287/257
f 247/276/258 261/285/258 262/291/258
f 240/286/520 254/287/520 255/310/520
f 256/292/521 240/286/521 255/310/521
f 249/293/263 233/279/263 248/288/263
f 257/294/264 241/282/264 256/292/264
f 250/295/265 234/283/265 249/293/265
f 243/296/266 257/294/266 258/301/266
f 251/297/267 235/267/267 250/295/267
f 259/298/268 243/296/268 258/301/268
f 237/299/269 251/297/269 252/305/269
f 245/300/270 259/298/270 260/306/270
f 253/284/271 237/299/271 252/305/271
f 261/285/272 245/300/272 260/306/272
f 258/301/273 272/302/273 273/329/273
f 266/303/274 250/295/274 265/316/274
f 274/304/275 258/301/275 273/329/275
f 252/305/276 266/303/276 267/332/276
f 260/306/277 274/304/277 275/308/277
f 268/307/278 252/305/278 267/332/278
f 261/285/279 275/308/279 276/318/279
f 254/287/280 268/307/280 269/311/280
f 277/309/281 261/285/281 276/318/281
f 255/310/282 269/311/282 270/319/282
f 271/315/285 255/310/285 270/319/285
f 249/293/286 263/312/286 264/326/286
f 272/302/287 256/292/287 271/315/287
f 265/316/288 249/293/288 264/326/288
f 292/317/289 276/318/289 291/341/289
f 270/319/290 284/320/290 285/343/290
f 286/324/293 270/319/293 285/343/293
f 279/325/294 263/312/294 278/321/294
f 287/327/295 271/315/295 286/324/295
f 280/328/522 264/326/522 279/325/522
f 273/329/297 287/327/297 288/337/297
f 281/330/298 265/316/298 280/328/298
f 289/331/299 273/329/299 288/337/299
f 267/332/300 281/330/300 282/338/300
f 275/308/301 289/331/301 290/334/301
f 283/333/302 267/332/302 282/338/302
f 276/318/523 290/334/523 291/341/523
f 269/311/304 283/333/304 284/320/304
f 296/335/305 280/328/305 295/359/305
f 304/336/306 288/337/306 303/361/306
f 282/338/307 296/335/307 297/364/307
f 290/334/308 304/336/308 305/365/308
f 298/339/309 282/338/309 297/364/309
f 306/340/310 290/334/310 305/365/310
f 284/320/311 298/339/311 299/344/311
f 307/342/312 291/341/312 306/340/312
f 285/343/313 299/344/313 300/351/313
f 301/348/316 285/343/316 300/351/316
f 294/349/317 278/321/317 293/345/317
f 302/350/318 286/324/318 301/348/318
f 280/328/319 294/349/319 295/359/319
f 288/337/320 302/350/320 303/361/320
f 300/351/321 315/352/321 316/376/321
f 317/357/324 300/351/324 316/376/324
f 294/349/524 309/353/524 310/360/524
f 318/358/326 301/348/326 317/357/326
f 295/359/327 310/360/327 311/384/327
f 303/361/328 318/358/328 319/369/328
f 312/362/329 295/359/329 311/384/329
f 320/363/330 303/361/330 319/369/330
f 297/364/331 312/362/331 313/370/331
f 305/365/332 320/363/332 321/372/332
f 314/366/333 297/364/333 313/370/333
f 322/367/334 305/365/334 321/372/334
f 299/344/335 314/366/335 315/352/335
f 323/356/336 306/340/336 322/367/336
f 335/368/337 319/369/337 334/393/337
f 313/370/338 327/371/338 328/396/338
f 321/372/339 335/368/339 336/374/339
f 329/373/340 313/370/340 328/396/340
f 322/367/341 336/374/341 337/399/341
f 315/352/342 329/373/342 330/377/342
f 338/375/343 322/367/343 337/399/343
f 316/376/344 330/377/344 331/388/344
f 332/381/347 316/376/347 331/388/347
f 325/382/348 309/353/348 324/378/348
f 333/383/349 317/357/349 332/381/349
f 311/384/525 325/382/525 326/392/525
f 319/369/351 333/383/351 334/393/351
f 327/371/352 311/384/352 326/392/352
f 347/387/354 331/388/354 346/408/354
f 325/382/355 339/389/355 340/415/355
f 348/390/356 332/381/356 347/387/356
f 341/391/357 325/382/357 340/415/357
f 334/393/358 348/390/358 349/418/358
f 342/394/359 326/392/359 341/391/359
f 350/395/360 334/393/360 349/418/360
f 328/396/361 342/394/361 343/405/361
f 336/374/362 350/395/362 351/402/362
f 344/397/363 328/396/363 343/405/363
f 352/398/364 336/374/364 351/402/364
f 330/377/365 344/397/365 345/400/365
f 338/375/366 352/398/366 353/386/366
f 331/388/367 345/400/367 346/408/367
f 351/402/369 365/403/369 366/556/369
f 359/404/370 343/405/370 358/557/370
f 367/406/371 351/402/371 366/556/371
f 345/400/372 359/404/372 360/409/372
f 368/407/373 352/398/373 367/406/373
f 346/408/526 360/409/526 361/558/526
f 362/413/527 346/408/527 361/558/527
f 355/414/378 339/389/378 354/410/378
f 363/416/379 347/387/379 362/413/379
f 356/417/380 340/415/380 355/414/380
f 349/418/381 363/416/381 364/559/381
f 357/419/382 341/391/382 356/417/382
f 365/403/383 349/418/383 364/559/383
f 343/405/384 357/419/384 358/557/384
f 355/420/385 369/421/385 370/427/385
f 378/423/386 362/424/386 377/446/386
f 356/426/387 370/427/387 371/460/387
f 364/428/388 378/423/388 379/461/388
f 372/429/389 356/426/389 371/460/389
f 380/431/390 364/428/390 379/461/390
f 358/433/391 372/429/391 373/448/391
f 366/434/392 380/431/392 381/450/392
f 374/435/393 358/433/393 373/448/393
f 382/437/394 366/434/394 381/450/394
f 360/439/395 374/435/395 375/443/395
f 383/440/396 367/438/396 382/437/396
f 361/442/528 375/443/528 376/452/528
f 377/446/529 361/442/529 376/452/529
f 389/447/401 373/448/401 388/470/401
f 397/449/402 381/450/402 396/471/402
f 375/443/403 389/447/403 390/453/403
f 398/451/404 382/437/404 397/449/404
f 376/452/405 390/453/405 391/475/405
f 392/457/408 376/452/408 391/475/408
f 385/458/409 369/421/409 384/454/409
f 393/459/410 377/446/410 392/457/410
f 371/460/411 385/458/411 386/466/411
f 379/461/412 393/459/412 394/467/412
f 387/462/413 371/460/413 386/466/413
f 395/463/414 379/461/414 394/467/414
f 373/448/415 387/462/415 388/470/415
f 381/450/416 395/463/416 396/471/416
f 408/464/417 392/457/417 407/480/417
f 401/465/418 385/458/418 400/492/418
f 394/467/419 408/464/419 409/494/419
f 402/468/420 386/466/420 401/465/420
f 410/469/421 394/467/421 409/494/421
f 388/470/422 402/468/422 403/497/422
f 396/471/423 410/469/423 411/473/423
f 404/472/424 388/470/424 403/497/424
f 397/449/425 411/473/425 412/482/425
f 390/453/426 404/472/426 405/476/426
f 413/474/427 397/449/427 412/482/427
f 391/475/428 405/476/428 406/484/428
f 407/480/431 391/475/431 406/484/431
f 385/458/432 399/477/432 400/492/432
f 427/481/433 411/473/433 426/505/433
f 405/476/434 419/483/434 420/485/434
f 413/474/435 427/481/435 428/489/435
f 406/484/436 420/485/436 421/509/436
f 422/490/439 406/484/439 421/509/439
f 415/491/440 399/477/440 414/486/440
f 423/493/441 407/480/441 422/490/441
f 401/465/442 415/491/442 416/498/442
f 409/494/443 423/493/443 424/500/443
f 417/495/444 401/465/444 416/498/444
f 425/496/445 409/494/445 424/500/445
f 403/497/446 417/495/446 418/504/446
f 411/473/447 425/496/447 426/505/447
f 419/483/448 403/497/448 418/504/448
f 416/498/449 430/499/449 431/525/449
f 424/500/450 438/501/450 439/526/450
f 432/502/451 416/498/451 431/525/451
f 440/503/452 424/500/452 439/526/452
f 418/504/453 432/502/453 433/529/453
f 426/505/454 440/503/454 441/530/454
f 434/506/455 418/504/455 433/529/455
f 442/507/456 426/505/456 441/530/456
f 420/485/457 434/506/457 435/510/457
f 443/508/458 427/481/458 442/507/458
f 421/509/459 435/510/459 436/517/459
f 437/514/462 421/509/462 436/517/462
f 430/499/463 414/486/463 429/511/463
f 438/501/464 422/490/464 437/514/464
f 435/510/465 449/515/465 450/518/465
f 458/516/466 442/507/466 457/531/466
f 436/517/467 450/518/467 451/542/467
f 452/522/470 436/517/470 451/542/470
f 445/523/471 429/511/471 444/519/471
f 453/524/472 437/514/472 452/522/472
f 431/525/473 445/523/473 446/535/473
f 439/526/474 453/524/474 454/532/474
f 447/527/475 431/525/475 446/535/475
f 455/528/476 439/526/476 454/532/476
f 433/529/477 447/527/477 448/537/477
f 441/530/478 455/528/478 456/538/478
f 449/515/479 433/529/479 448/537/479
f 457/531/480 441/530/480 456/538/480
f 454/532/481 468/533/481 469/553/481
f 462/534/482 446/535/482 461/552/482
f 470/536/483 454/532/483 469/553/483
f 448/537/484 462/534/484 463/554/484
f 456/538/485 470/536/485 471/555/485
f 464/539/486 448/537/486 463/554/486
f 472/540/487 456/538/487 471/555/487
f 450/518/488 464/539/488 465/543/488
f 473/541/489 457/531/489 472/540/489
f 451/542/490 465/543/490 466/549/490
f 467/547/493 451/542/493 466/549/493
f 460/548/494 444/519/494 459/544/494
f 468/533/495 452/522/495 467/547/495
f 446/535/496 460/548/496 461/552/496
f 482/3/497 472/540/497 481/2/497
f 466/549/498 3/5/498 4/6/498
f 5/12/501 466/549/501 4/6/501
f 460/548/502 474/7/502 475/13/502
f 478/15/503 467/547/503 5/12/503
f 461/552/504 475/13/504 1/16/504
f 6/19/505 468/533/505 478/15/505
f 462/534/506 1/16/506 476/20/506
f 479/23/507 469/553/507 6/19/507
f 463/554/508 476/20/508 2/25/508
f 471/555/509 479/23/509 480/27/509
f 464/539/510 2/25/510 477/28/510
f 481/2/511 471/555/511 480/27/511
f 465/543/512 477/28/512 3/5/512
