# Blender 4.1.1
# www.blender.org
mtllib za.mtl
o Text.006
v -0.795308 0.646972 -0.020000
v -0.785795 0.666112 -0.020000
v -0.780063 0.677272 -0.020000
v -0.773889 0.688949 -0.020000
v -0.767348 0.700997 -0.020000
v -0.760516 0.713270 -0.020000
v -0.753467 0.725621 -0.020000
v -0.746276 0.737905 -0.020000
v -0.739018 0.749978 -0.020000
v -0.731769 0.761692 -0.020000
v -0.724606 0.772900 -0.020000
v -0.717606 0.783454 -0.020000
v -0.703791 0.803391 -0.020000
v -0.776642 0.834421 -0.020000
v -0.787775 0.818067 -0.020000
v -0.794683 0.807565 -0.020000
v -0.801848 0.796352 -0.020000
v -0.809183 0.784575 -0.020000
v -0.816596 0.772388 -0.020000
v -0.823996 0.759943 -0.020000
v -0.831291 0.747393 -0.020000
v -0.838390 0.734890 -0.020000
v -0.845200 0.722588 -0.020000
v -0.851630 0.710636 -0.020000
v -0.857591 0.699185 -0.020000
v -0.867622 0.679111 -0.020000
v -0.908375 0.687001 -0.020000
v -0.898402 0.706687 -0.020000
v -0.892378 0.718277 -0.020000
v -0.886029 0.730185 -0.020000
v -0.879403 0.742299 -0.020000
v -0.872544 0.754504 -0.020000
v -0.865501 0.766688 -0.020000
v -0.858320 0.778736 -0.020000
v -0.851049 0.790535 -0.020000
v -0.843736 0.801969 -0.020000
v -0.836432 0.812924 -0.020000
v -0.829186 0.823283 -0.020000
v -0.814481 0.843166 -0.020000
v -0.886519 0.874428 -0.020000
v -0.898202 0.857693 -0.020000
v -0.905592 0.846778 -0.020000
v -0.913221 0.835211 -0.020000
v -0.920990 0.823151 -0.020000
v -0.928795 0.810762 -0.020000
v -0.936537 0.798207 -0.020000
v -0.944113 0.785650 -0.020000
v -0.951421 0.773252 -0.020000
v -0.958359 0.761177 -0.020000
v -0.964826 0.749584 -0.020000
v -0.970722 0.738629 -0.020000
v -0.980734 0.719161 -0.020000
v -0.265697 0.145016 -0.020000
v -0.270569 0.126312 -0.020000
v -0.278520 0.109699 -0.020000
v -0.289534 0.094945 -0.020000
v -0.303682 0.081892 -0.020000
v -0.321033 0.070491 -0.020000
v -0.341602 0.060760 -0.020000
v -0.365341 0.052738 -0.020000
v -0.392163 0.046451 -0.020000
v -0.421966 0.041907 -0.020000
v -0.454639 0.039098 -0.020000
v -0.490159 0.038000 -0.020000
v -0.514876 0.037976 -0.020000
v -0.539055 0.038386 -0.020000
v -0.562623 0.039209 -0.020000
v -0.585565 0.040426 -0.020000
v -0.607868 0.042013 -0.020000
v -0.629517 0.043952 -0.020000
v -0.650497 0.046220 -0.020000
v -0.670795 0.048797 -0.020000
v -0.690397 0.051662 -0.020000
v -0.709287 0.054794 -0.020000
v -0.727451 0.058171 -0.020000
v -0.757471 0.064376 -0.020000
v -0.753688 -0.036501 -0.020000
v -0.729424 -0.040612 -0.020000
v -0.712217 -0.043332 -0.020000
v -0.694074 -0.045968 -0.020000
v -0.674972 -0.048480 -0.020000
v -0.654889 -0.050823 -0.020000
v -0.633802 -0.052957 -0.020000
v -0.611689 -0.054839 -0.020000
v -0.588526 -0.056427 -0.020000
v -0.564290 -0.057679 -0.020000
v -0.538957 -0.058553 -0.020000
v -0.512505 -0.059007 -0.020000
v -0.484818 -0.059000 -0.020000
v -0.438285 -0.057316 -0.020000
v -0.394636 -0.052748 -0.020000
v -0.354149 -0.045284 -0.020000
v -0.316988 -0.034897 -0.020000
v -0.283322 -0.021549 -0.020000
v -0.253342 -0.005191 -0.020000
v -0.227272 0.014225 -0.020000
v -0.205377 0.036721 -0.020000
v -0.187949 0.062266 -0.020000
v -0.175271 0.090755 -0.020000
v -0.167563 0.122039 -0.020000
v -0.164989 0.155766 -0.020000
v -0.165423 0.170504 -0.020000
v -0.166673 0.184857 -0.020000
v -0.168698 0.199084 -0.020000
v -0.171452 0.213216 -0.020000
v -0.174884 0.227287 -0.020000
v -0.178946 0.241334 -0.020000
v -0.183591 0.255393 -0.020000
v -0.188772 0.269504 -0.020000
v -0.194444 0.283708 -0.020000
v -0.200562 0.298045 -0.020000
v -0.207082 0.312556 -0.020000
v -0.217355 0.334542 -0.020000
v -0.317646 0.311691 -0.020000
v -0.303401 0.287847 -0.020000
v -0.296807 0.276164 -0.020000
v -0.290768 0.264704 -0.020000
v -0.285303 0.253436 -0.020000
v -0.280427 0.242328 -0.020000
v -0.276156 0.231346 -0.020000
v -0.272505 0.220457 -0.020000
v -0.269486 0.209622 -0.020000
v -0.267112 0.198803 -0.020000
v -0.265398 0.187956 -0.020000
v -0.264356 0.177038 -0.020000
v -0.264013 0.166237 -0.020000
v -0.503489 0.697909 -0.020000
v -0.501674 0.703708 -0.020000
v -0.499841 0.709719 -0.020000
v -0.497966 0.715962 -0.020000
v -0.496047 0.722401 -0.020000
v -0.494078 0.729001 -0.020000
v -0.492055 0.735724 -0.020000
v -0.489976 0.742534 -0.020000
v -0.487836 0.749391 -0.020000
v -0.485634 0.756258 -0.020000
v -0.483366 0.763095 -0.020000
v -0.481030 0.769864 -0.020000
v -0.474306 0.788475 -0.020000
v -0.582318 0.801035 -0.020000
v -0.585839 0.779644 -0.020000
v -0.588244 0.767109 -0.020000
v -0.591070 0.753957 -0.020000
v -0.594274 0.740285 -0.020000
v -0.597814 0.726185 -0.020000
v -0.601649 0.711750 -0.020000
v -0.605738 0.697071 -0.020000
v -0.610036 0.682235 -0.020000
v -0.614504 0.667333 -0.020000
v -0.619099 0.652453 -0.020000
v -0.623780 0.637684 -0.020000
v -0.625944 0.631008 -0.020000
v -0.635827 0.632319 -0.020000
v -0.654265 0.635040 -0.020000
v -0.672983 0.638078 -0.020000
v -0.691888 0.641427 -0.020000
v -0.710888 0.645078 -0.020000
v -0.729891 0.649025 -0.020000
v -0.748804 0.653260 -0.020000
v -0.767536 0.657776 -0.020000
v -0.785994 0.662563 -0.020000
v -0.804085 0.667614 -0.020000
v -0.821715 0.672920 -0.020000
v -0.850550 0.682295 -0.020000
v -0.861911 0.582573 -0.020000
v -0.837899 0.576132 -0.020000
v -0.821489 0.572034 -0.020000
v -0.804556 0.568076 -0.020000
v -0.787203 0.564258 -0.020000
v -0.769531 0.560584 -0.020000
v -0.751640 0.557055 -0.020000
v -0.733634 0.553675 -0.020000
v -0.715616 0.550446 -0.020000
v -0.697688 0.547372 -0.020000
v -0.679953 0.544456 -0.020000
v -0.662515 0.541701 -0.020000
v -0.658200 0.541045 -0.020000
v -0.661185 0.533954 -0.020000
v -0.669586 0.515136 -0.020000
v -0.678396 0.496426 -0.020000
v -0.687550 0.477927 -0.020000
v -0.696981 0.459743 -0.020000
v -0.706620 0.441977 -0.020000
v -0.716400 0.424732 -0.020000
v -0.726254 0.408112 -0.020000
v -0.736113 0.392222 -0.020000
v -0.745907 0.377166 -0.020000
v -0.755566 0.363050 -0.020000
v -0.765157 0.349786 -0.020000
v -0.768455 0.345046 -0.020000
v -0.771734 0.340485 -0.020000
v -0.775085 0.335965 -0.020000
v -0.778500 0.331492 -0.020000
v -0.781972 0.327070 -0.020000
v -0.785495 0.322701 -0.020000
v -0.789061 0.318390 -0.020000
v -0.792664 0.314141 -0.020000
v -0.796296 0.309958 -0.020000
v -0.799949 0.305844 -0.020000
v -0.803619 0.301803 -0.020000
v -0.812830 0.291874 -0.020000
v -0.764368 0.222816 -0.020000
v -0.744374 0.227166 -0.020000
v -0.728415 0.230029 -0.020000
v -0.710203 0.232838 -0.020000
v -0.690197 0.235564 -0.020000
v -0.668837 0.238186 -0.020000
v -0.646554 0.240682 -0.020000
v -0.623777 0.243036 -0.020000
v -0.600929 0.245228 -0.020000
v -0.578435 0.247240 -0.020000
v -0.556718 0.249056 -0.020000
v -0.536201 0.250656 -0.020000
v -0.507119 0.252762 -0.020000
v -0.514944 0.338840 -0.020000
v -0.539218 0.336692 -0.020000
v -0.554107 0.335393 -0.020000
v -0.569361 0.334072 -0.020000
v -0.584787 0.332741 -0.020000
v -0.600189 0.331409 -0.020000
v -0.615372 0.330087 -0.020000
v -0.630145 0.328785 -0.020000
v -0.644312 0.327515 -0.020000
v -0.657682 0.326285 -0.020000
v -0.670063 0.325106 -0.020000
v -0.681267 0.323987 -0.020000
v -0.670300 0.325156 -0.020000
v -0.671849 0.322747 -0.020000
v -0.661735 0.339057 -0.020000
v -0.651372 0.356339 -0.020000
v -0.640837 0.374481 -0.020000
v -0.630207 0.393372 -0.020000
v -0.619563 0.412898 -0.020000
v -0.608981 0.432947 -0.020000
v -0.598541 0.453408 -0.020000
v -0.588323 0.474167 -0.020000
v -0.578404 0.495113 -0.020000
v -0.568865 0.516133 -0.020000
v -0.562672 0.530443 -0.020000
v -0.539487 0.528526 -0.020000
v -0.508094 0.526515 -0.020000
v -0.475775 0.525007 -0.020000
v -0.442558 0.524002 -0.020000
v -0.408475 0.523500 -0.020000
v -0.373555 0.523500 -0.020000
v -0.337829 0.524002 -0.020000
v -0.301327 0.525006 -0.020000
v -0.264081 0.526511 -0.020000
v -0.226121 0.528517 -0.020000
v -0.187477 0.531025 -0.020000
v -0.139229 0.534719 -0.020000
v -0.136716 0.635237 -0.020000
v -0.184641 0.629775 -0.020000
v -0.220694 0.626266 -0.020000
v -0.256292 0.623380 -0.020000
v -0.291350 0.621095 -0.020000
v -0.325785 0.619391 -0.020000
v -0.359511 0.618247 -0.020000
v -0.392446 0.617642 -0.020000
v -0.424503 0.617556 -0.020000
v -0.455599 0.617967 -0.020000
v -0.485648 0.618854 -0.020000
v -0.514566 0.620197 -0.020000
v -0.529364 0.621146 -0.020000
v -0.795308 0.646972 0.020000
v -0.785795 0.666112 0.020000
v -0.780063 0.677272 0.020000
v -0.773889 0.688949 0.020000
v -0.767348 0.700997 0.020000
v -0.760516 0.713270 0.020000
v -0.753467 0.725621 0.020000
v -0.746276 0.737905 0.020000
v -0.739018 0.749978 0.020000
v -0.731769 0.761692 0.020000
v -0.724606 0.772900 0.020000
v -0.717606 0.783454 0.020000
v -0.703791 0.803391 0.020000
v -0.776642 0.834421 0.020000
v -0.787775 0.818067 0.020000
v -0.794683 0.807565 0.020000
v -0.801848 0.796352 0.020000
v -0.809183 0.784575 0.020000
v -0.816596 0.772388 0.020000
v -0.823996 0.759943 0.020000
v -0.831291 0.747393 0.020000
v -0.838390 0.734890 0.020000
v -0.845200 0.722588 0.020000
v -0.851630 0.710636 0.020000
v -0.857591 0.699185 0.020000
v -0.867622 0.679111 0.020000
v -0.908375 0.687001 0.020000
v -0.898402 0.706687 0.020000
v -0.892378 0.718277 0.020000
v -0.886029 0.730185 0.020000
v -0.879403 0.742299 0.020000
v -0.872544 0.754504 0.020000
v -0.865501 0.766688 0.020000
v -0.858320 0.778736 0.020000
v -0.851049 0.790535 0.020000
v -0.843736 0.801969 0.020000
v -0.836432 0.812924 0.020000
v -0.829186 0.823283 0.020000
v -0.814481 0.843166 0.020000
v -0.886519 0.874428 0.020000
v -0.898202 0.857693 0.020000
v -0.905592 0.846778 0.020000
v -0.913221 0.835211 0.020000
v -0.920990 0.823151 0.020000
v -0.928795 0.810762 0.020000
v -0.936537 0.798207 0.020000
v -0.944113 0.785650 0.020000
v -0.951421 0.773252 0.020000
v -0.958359 0.761177 0.020000
v -0.964826 0.749584 0.020000
v -0.970722 0.738629 0.020000
v -0.980734 0.719161 0.020000
v -0.265697 0.145016 0.020000
v -0.270569 0.126312 0.020000
v -0.278520 0.109699 0.020000
v -0.289534 0.094945 0.020000
v -0.303682 0.081892 0.020000
v -0.321033 0.070491 0.020000
v -0.341602 0.060760 0.020000
v -0.365341 0.052738 0.020000
v -0.392163 0.046451 0.020000
v -0.421966 0.041907 0.020000
v -0.454639 0.039098 0.020000
v -0.490159 0.038000 0.020000
v -0.514876 0.037976 0.020000
v -0.539055 0.038386 0.020000
v -0.562623 0.039209 0.020000
v -0.585565 0.040426 0.020000
v -0.607868 0.042013 0.020000
v -0.629517 0.043952 0.020000
v -0.650497 0.046220 0.020000
v -0.670795 0.048797 0.020000
v -0.690397 0.051662 0.020000
v -0.709287 0.054794 0.020000
v -0.727451 0.058171 0.020000
v -0.757471 0.064376 0.020000
v -0.753688 -0.036501 0.020000
v -0.729424 -0.040612 0.020000
v -0.712217 -0.043332 0.020000
v -0.694074 -0.045968 0.020000
v -0.674972 -0.048480 0.020000
v -0.654889 -0.050823 0.020000
v -0.633802 -0.052957 0.020000
v -0.611689 -0.054839 0.020000
v -0.588526 -0.056427 0.020000
v -0.564290 -0.057679 0.020000
v -0.538957 -0.058553 0.020000
v -0.512505 -0.059007 0.020000
v -0.484818 -0.059000 0.020000
v -0.438285 -0.057316 0.020000
v -0.394636 -0.052748 0.020000
v -0.354149 -0.045284 0.020000
v -0.316988 -0.034897 0.020000
v -0.283322 -0.021549 0.020000
v -0.253342 -0.005191 0.020000
v -0.227272 0.014225 0.020000
v -0.205377 0.036721 0.020000
v -0.187949 0.062266 0.020000
v -0.175271 0.090755 0.020000
v -0.167563 0.122039 0.020000
v -0.164989 0.155766 0.020000
v -0.165423 0.170504 0.020000
v -0.166673 0.184857 0.020000
v -0.168698 0.199084 0.020000
v -0.171452 0.213216 0.020000
v -0.174884 0.227287 0.020000
v -0.178946 0.241334 0.020000
v -0.183591 0.255393 0.020000
v -0.188772 0.269504 0.020000
v -0.194444 0.283708 0.020000
v -0.200562 0.298045 0.020000
v -0.207082 0.312556 0.020000
v -0.217355 0.334542 0.020000
v -0.317646 0.311691 0.020000
v -0.303401 0.287847 0.020000
v -0.296807 0.276164 0.020000
v -0.290768 0.264704 0.020000
v -0.285303 0.253436 0.020000
v -0.280427 0.242328 0.020000
v -0.276156 0.231346 0.020000
v -0.272505 0.220457 0.020000
v -0.269486 0.209622 0.020000
v -0.267112 0.198803 0.020000
v -0.265398 0.187956 0.020000
v -0.264356 0.177038 0.020000
v -0.264013 0.166237 0.020000
v -0.503489 0.697909 0.020000
v -0.501674 0.703708 0.020000
v -0.499841 0.709719 0.020000
v -0.497966 0.715962 0.020000
v -0.496047 0.722401 0.020000
v -0.494078 0.729001 0.020000
v -0.492055 0.735724 0.020000
v -0.489976 0.742534 0.020000
v -0.487836 0.749391 0.020000
v -0.485634 0.756258 0.020000
v -0.483366 0.763095 0.020000
v -0.481030 0.769864 0.020000
v -0.474306 0.788475 0.020000
v -0.582318 0.801035 0.020000
v -0.585839 0.779644 0.020000
v -0.588244 0.767109 0.020000
v -0.591070 0.753957 0.020000
v -0.594274 0.740285 0.020000
v -0.597814 0.726185 0.020000
v -0.601649 0.711750 0.020000
v -0.605738 0.697071 0.020000
v -0.610036 0.682235 0.020000
v -0.614504 0.667333 0.020000
v -0.619099 0.652453 0.020000
v -0.623780 0.637684 0.020000
v -0.625944 0.631008 0.020000
v -0.635827 0.632319 0.020000
v -0.654265 0.635040 0.020000
v -0.672983 0.638078 0.020000
v -0.691888 0.641427 0.020000
v -0.710888 0.645078 0.020000
v -0.729891 0.649025 0.020000
v -0.748804 0.653260 0.020000
v -0.767536 0.657776 0.020000
v -0.785994 0.662563 0.020000
v -0.804085 0.667614 0.020000
v -0.821715 0.672920 0.020000
v -0.850550 0.682295 0.020000
v -0.861911 0.582573 0.020000
v -0.837899 0.576132 0.020000
v -0.821489 0.572034 0.020000
v -0.804556 0.568076 0.020000
v -0.787203 0.564258 0.020000
v -0.769531 0.560584 0.020000
v -0.751640 0.557055 0.020000
v -0.733634 0.553675 0.020000
v -0.715616 0.550446 0.020000
v -0.697688 0.547372 0.020000
v -0.679953 0.544456 0.020000
v -0.662515 0.541701 0.020000
v -0.658200 0.541045 0.020000
v -0.661185 0.533954 0.020000
v -0.669586 0.515136 0.020000
v -0.678396 0.496426 0.020000
v -0.687550 0.477927 0.020000
v -0.696981 0.459743 0.020000
v -0.706620 0.441977 0.020000
v -0.716400 0.424732 0.020000
v -0.726254 0.408112 0.020000
v -0.736113 0.392222 0.020000
v -0.745907 0.377166 0.020000
v -0.755566 0.363050 0.020000
v -0.765157 0.349786 0.020000
v -0.768455 0.345046 0.020000
v -0.771734 0.340485 0.020000
v -0.775085 0.335965 0.020000
v -0.778500 0.331492 0.020000
v -0.781972 0.327070 0.020000
v -0.785495 0.322701 0.020000
v -0.789061 0.318390 0.020000
v -0.792664 0.314141 0.020000
v -0.796296 0.309958 0.020000
v -0.799949 0.305844 0.020000
v -0.803619 0.301803 0.020000
v -0.812830 0.291874 0.020000
v -0.764368 0.222816 0.020000
v -0.744374 0.227166 0.020000
v -0.728415 0.230029 0.020000
v -0.710203 0.232838 0.020000
v -0.690197 0.235564 0.020000
v -0.668837 0.238186 0.020000
v -0.646554 0.240682 0.020000
v -0.623777 0.243036 0.020000
v -0.600929 0.245228 0.020000
v -0.578435 0.247240 0.020000
v -0.556718 0.249056 0.020000
v -0.536201 0.250656 0.020000
v -0.507119 0.252762 0.020000
v -0.514944 0.338840 0.020000
v -0.539218 0.336692 0.020000
v -0.554107 0.335393 0.020000
v -0.569361 0.334072 0.020000
v -0.584787 0.332741 0.020000
v -0.600189 0.331409 0.020000
v -0.615372 0.330087 0.020000
v -0.630145 0.328785 0.020000
v -0.644312 0.327515 0.020000
v -0.657682 0.326285 0.020000
v -0.670063 0.325106 0.020000
v -0.681267 0.323987 0.020000
v -0.670300 0.325156 0.020000
v -0.671849 0.322747 0.020000
v -0.661735 0.339057 0.020000
v -0.651372 0.356339 0.020000
v -0.640837 0.374481 0.020000
v -0.630207 0.393372 0.020000
v -0.619563 0.412898 0.020000
v -0.608981 0.432947 0.020000
v -0.598541 0.453408 0.020000
v -0.588323 0.474167 0.020000
v -0.578404 0.495113 0.020000
v -0.568865 0.516133 0.020000
v -0.562672 0.530443 0.020000
v -0.539487 0.528526 0.020000
v -0.508094 0.526515 0.020000
v -0.475775 0.525007 0.020000
v -0.442558 0.524002 0.020000
v -0.408475 0.523500 0.020000
v -0.373555 0.523500 0.020000
v -0.337829 0.524002 0.020000
v -0.301327 0.525006 0.020000
v -0.264081 0.526511 0.020000
v -0.226121 0.528517 0.020000
v -0.187477 0.531025 0.020000
v -0.139229 0.534719 0.020000
v -0.136716 0.635237 0.020000
v -0.184641 0.629775 0.020000
v -0.220694 0.626266 0.020000
v -0.256292 0.623380 0.020000
v -0.291350 0.621095 0.020000
v -0.325785 0.619391 0.020000
v -0.359511 0.618247 0.020000
v -0.392446 0.617642 0.020000
v -0.424503 0.617556 0.020000
v -0.455599 0.617967 0.020000
v -0.485648 0.618854 0.020000
v -0.514566 0.620197 0.020000
v -0.529364 0.621146 0.020000
v -0.795308 0.646972 0.020000
v -0.795308 0.646972 -0.020000
v -0.785795 0.666112 0.020000
v -0.785795 0.666112 -0.020000
v -0.780063 0.677272 0.020000
v -0.780063 0.677272 -0.020000
v -0.773889 0.688949 0.020000
v -0.773889 0.688949 -0.020000
v -0.767348 0.700997 0.020000
v -0.767348 0.700997 -0.020000
v -0.760516 0.713270 0.020000
v -0.760516 0.713270 -0.020000
v -0.753467 0.725621 0.020000
v -0.753467 0.725621 -0.020000
v -0.746276 0.737905 0.020000
v -0.746276 0.737905 -0.020000
v -0.739018 0.749978 0.020000
v -0.739018 0.749978 -0.020000
v -0.731769 0.761692 0.020000
v -0.731769 0.761692 -0.020000
v -0.724606 0.772900 0.020000
v -0.724606 0.772900 -0.020000
v -0.717606 0.783454 0.020000
v -0.717606 0.783454 -0.020000
v -0.703791 0.803391 0.020000
v -0.703791 0.803391 -0.020000
v -0.776642 0.834421 0.020000
v -0.776642 0.834421 -0.020000
v -0.787775 0.818067 0.020000
v -0.787775 0.818067 -0.020000
v -0.794683 0.807565 0.020000
v -0.794683 0.807565 -0.020000
v -0.801848 0.796352 0.020000
v -0.801848 0.796352 -0.020000
v -0.809183 0.784575 0.020000
v -0.809183 0.784575 -0.020000
v -0.816596 0.772388 0.020000
v -0.816596 0.772388 -0.020000
v -0.823996 0.759943 0.020000
v -0.823996 0.759943 -0.020000
v -0.831291 0.747393 0.020000
v -0.831291 0.747393 -0.020000
v -0.838390 0.734890 0.020000
v -0.838390 0.734890 -0.020000
v -0.845200 0.722588 0.020000
v -0.845200 0.722588 -0.020000
v -0.851630 0.710636 0.020000
v -0.851630 0.710636 -0.020000
v -0.857591 0.699185 0.020000
v -0.857591 0.699185 -0.020000
v -0.867622 0.679111 0.020000
v -0.867622 0.679111 -0.020000
v -0.908375 0.687001 0.020000
v -0.908375 0.687001 -0.020000
v -0.898402 0.706687 0.020000
v -0.898402 0.706687 -0.020000
v -0.892378 0.718277 0.020000
v -0.892378 0.718277 -0.020000
v -0.886029 0.730185 0.020000
v -0.886029 0.730185 -0.020000
v -0.879403 0.742299 0.020000
v -0.879403 0.742299 -0.020000
v -0.872544 0.754504 0.020000
v -0.872544 0.754504 -0.020000
v -0.865501 0.766688 0.020000
v -0.865501 0.766688 -0.020000
v -0.858320 0.778736 0.020000
v -0.858320 0.778736 -0.020000
v -0.851049 0.790535 0.020000
v -0.851049 0.790535 -0.020000
v -0.843736 0.801969 0.020000
v -0.843736 0.801969 -0.020000
v -0.836432 0.812924 0.020000
v -0.836432 0.812924 -0.020000
v -0.829186 0.823283 0.020000
v -0.829186 0.823283 -0.020000
v -0.814481 0.843166 0.020000
v -0.814481 0.843166 -0.020000
v -0.886519 0.874428 0.020000
v -0.886519 0.874428 -0.020000
v -0.898202 0.857693 0.020000
v -0.898202 0.857693 -0.020000
v -0.905592 0.846778 0.020000
v -0.905592 0.846778 -0.020000
v -0.913221 0.835211 0.020000
v -0.913221 0.835211 -0.020000
v -0.920990 0.823151 0.020000
v -0.920990 0.823151 -0.020000
v -0.928795 0.810762 0.020000
v -0.928795 0.810762 -0.020000
v -0.936537 0.798207 0.020000
v -0.936537 0.798207 -0.020000
v -0.944113 0.785650 0.020000
v -0.944113 0.785650 -0.020000
v -0.951421 0.773252 0.020000
v -0.951421 0.773252 -0.020000
v -0.958359 0.761177 0.020000
v -0.958359 0.761177 -0.020000
v -0.964826 0.749584 0.020000
v -0.964826 0.749584 -0.020000
v -0.970722 0.738629 0.020000
v -0.970722 0.738629 -0.020000
v -0.980734 0.719161 0.020000
v -0.980734 0.719161 -0.020000
v -0.265697 0.145016 0.020000
v -0.265697 0.145016 -0.020000
v -0.270569 0.126312 0.020000
v -0.270569 0.126312 -0.020000
v -0.278520 0.109699 0.020000
v -0.278520 0.109699 -0.020000
v -0.289534 0.094945 0.020000
v -0.289534 0.094945 -0.020000
v -0.303682 0.081892 0.020000
v -0.303682 0.081892 -0.020000
v -0.321033 0.070491 0.020000
v -0.321033 0.070491 -0.020000
v -0.341602 0.060760 0.020000
v -0.341602 0.060760 -0.020000
v -0.365341 0.052738 0.020000
v -0.365341 0.052738 -0.020000
v -0.392163 0.046451 0.020000
v -0.392163 0.046451 -0.020000
v -0.421966 0.041907 0.020000
v -0.421966 0.041907 -0.020000
v -0.454639 0.039098 0.020000
v -0.454639 0.039098 -0.020000
v -0.490159 0.038000 0.020000
v -0.490159 0.038000 -0.020000
v -0.514876 0.037976 0.020000
v -0.514876 0.037976 -0.020000
v -0.539055 0.038386 0.020000
v -0.539055 0.038386 -0.020000
v -0.562623 0.039209 0.020000
v -0.562623 0.039209 -0.020000
v -0.585565 0.040426 0.020000
v -0.585565 0.040426 -0.020000
v -0.607868 0.042013 0.020000
v -0.607868 0.042013 -0.020000
v -0.629517 0.043952 0.020000
v -0.629517 0.043952 -0.020000
v -0.650497 0.046220 0.020000
v -0.650497 0.046220 -0.020000
v -0.670795 0.048797 0.020000
v -0.670795 0.048797 -0.020000
v -0.690397 0.051662 0.020000
v -0.690397 0.051662 -0.020000
v -0.709287 0.054794 0.020000
v -0.709287 0.054794 -0.020000
v -0.727451 0.058171 0.020000
v -0.727451 0.058171 -0.020000
v -0.757471 0.064376 0.020000
v -0.757471 0.064376 -0.020000
v -0.753688 -0.036501 0.020000
v -0.753688 -0.036501 -0.020000
v -0.729424 -0.040612 0.020000
v -0.729424 -0.040612 -0.020000
v -0.712217 -0.043332 0.020000
v -0.712217 -0.043332 -0.020000
v -0.694074 -0.045968 0.020000
v -0.694074 -0.045968 -0.020000
v -0.674972 -0.048480 0.020000
v -0.674972 -0.048480 -0.020000
v -0.654889 -0.050823 0.020000
v -0.654889 -0.050823 -0.020000
v -0.633802 -0.052957 0.020000
v -0.633802 -0.052957 -0.020000
v -0.611689 -0.054839 0.020000
v -0.611689 -0.054839 -0.020000
v -0.588526 -0.056427 0.020000
v -0.588526 -0.056427 -0.020000
v -0.564290 -0.057679 0.020000
v -0.564290 -0.057679 -0.020000
v -0.538957 -0.058553 0.020000
v -0.538957 -0.058553 -0.020000
v -0.512505 -0.059007 0.020000
v -0.512505 -0.059007 -0.020000
v -0.484818 -0.059000 0.020000
v -0.484818 -0.059000 -0.020000
v -0.438285 -0.057316 0.020000
v -0.438285 -0.057316 -0.020000
v -0.394636 -0.052748 0.020000
v -0.394636 -0.052748 -0.020000
v -0.354149 -0.045284 0.020000
v -0.354149 -0.045284 -0.020000
v -0.316988 -0.034897 0.020000
v -0.316988 -0.034897 -0.020000
v -0.283322 -0.021549 0.020000
v -0.283322 -0.021549 -0.020000
v -0.253342 -0.005191 0.020000
v -0.253342 -0.005191 -0.020000
v -0.227272 0.014225 0.020000
v -0.227272 0.014225 -0.020000
v -0.205377 0.036721 0.020000
v -0.205377 0.036721 -0.020000
v -0.187949 0.062266 0.020000
v -0.187949 0.062266 -0.020000
v -0.175271 0.090755 0.020000
v -0.175271 0.090755 -0.020000
v -0.167563 0.122039 0.020000
v -0.167563 0.122039 -0.020000
v -0.164989 0.155766 0.020000
v -0.164989 0.155766 -0.020000
v -0.165423 0.170504 0.020000
v -0.165423 0.170504 -0.020000
v -0.166673 0.184857 0.020000
v -0.166673 0.184857 -0.020000
v -0.168698 0.199084 0.020000
v -0.168698 0.199084 -0.020000
v -0.171452 0.213216 0.020000
v -0.171452 0.213216 -0.020000
v -0.174884 0.227287 0.020000
v -0.174884 0.227287 -0.020000
v -0.178946 0.241334 0.020000
v -0.178946 0.241334 -0.020000
v -0.183591 0.255393 0.020000
v -0.183591 0.255393 -0.020000
v -0.188772 0.269504 0.020000
v -0.188772 0.269504 -0.020000
v -0.194444 0.283708 0.020000
v -0.194444 0.283708 -0.020000
v -0.200562 0.298045 0.020000
v -0.200562 0.298045 -0.020000
v -0.207082 0.312556 0.020000
v -0.207082 0.312556 -0.020000
v -0.217355 0.334542 0.020000
v -0.217355 0.334542 -0.020000
v -0.317646 0.311691 0.020000
v -0.317646 0.311691 -0.020000
v -0.303401 0.287847 0.020000
v -0.303401 0.287847 -0.020000
v -0.296807 0.276164 0.020000
v -0.296807 0.276164 -0.020000
v -0.290768 0.264704 0.020000
v -0.290768 0.264704 -0.020000
v -0.285303 0.253436 0.020000
v -0.285303 0.253436 -0.020000
v -0.280427 0.242328 0.020000
v -0.280427 0.242328 -0.020000
v -0.276156 0.231346 0.020000
v -0.276156 0.231346 -0.020000
v -0.272505 0.220457 0.020000
v -0.272505 0.220457 -0.020000
v -0.269486 0.209622 0.020000
v -0.269486 0.209622 -0.020000
v -0.267112 0.198803 0.020000
v -0.267112 0.198803 -0.020000
v -0.265398 0.187956 0.020000
v -0.265398 0.187956 -0.020000
v -0.264356 0.177038 0.020000
v -0.264356 0.177038 -0.020000
v -0.264013 0.166237 0.020000
v -0.264013 0.166237 -0.020000
v -0.503489 0.697909 0.020000
v -0.503489 0.697909 -0.020000
v -0.501674 0.703708 0.020000
v -0.501674 0.703708 -0.020000
v -0.499841 0.709719 0.020000
v -0.499841 0.709719 -0.020000
v -0.497966 0.715962 0.020000
v -0.497966 0.715962 -0.020000
v -0.496047 0.722401 0.020000
v -0.496047 0.722401 -0.020000
v -0.494078 0.729001 0.020000
v -0.494078 0.729001 -0.020000
v -0.492055 0.735724 0.020000
v -0.492055 0.735724 -0.020000
v -0.489976 0.742534 0.020000
v -0.489976 0.742534 -0.020000
v -0.487836 0.749391 0.020000
v -0.487836 0.749391 -0.020000
v -0.485634 0.756258 0.020000
v -0.485634 0.756258 -0.020000
v -0.483366 0.763095 0.020000
v -0.483366 0.763095 -0.020000
v -0.481030 0.769864 0.020000
v -0.481030 0.769864 -0.020000
v -0.474306 0.788475 0.020000
v -0.474306 0.788475 -0.020000
v -0.582318 0.801035 0.020000
v -0.582318 0.801035 -0.020000
v -0.585839 0.779644 0.020000
v -0.585839 0.779644 -0.020000
v -0.588244 0.767109 0.020000
v -0.588244 0.767109 -0.020000
v -0.591070 0.753957 0.020000
v -0.591070 0.753957 -0.020000
v -0.594274 0.740285 0.020000
v -0.594274 0.740285 -0.020000
v -0.597814 0.726185 0.020000
v -0.597814 0.726185 -0.020000
v -0.601649 0.711750 0.020000
v -0.601649 0.711750 -0.020000
v -0.605738 0.697071 0.020000
v -0.605738 0.697071 -0.020000
v -0.610036 0.682235 0.020000
v -0.610036 0.682235 -0.020000
v -0.614504 0.667333 0.020000
v -0.614504 0.667333 -0.020000
v -0.619099 0.652453 0.020000
v -0.619099 0.652453 -0.020000
v -0.623780 0.637684 0.020000
v -0.623780 0.637684 -0.020000
v -0.625944 0.631008 0.020000
v -0.625944 0.631008 -0.020000
v -0.635827 0.632319 0.020000
v -0.635827 0.632319 -0.020000
v -0.654265 0.635040 0.020000
v -0.654265 0.635040 -0.020000
v -0.672983 0.638078 0.020000
v -0.672983 0.638078 -0.020000
v -0.691888 0.641427 0.020000
v -0.691888 0.641427 -0.020000
v -0.710888 0.645078 0.020000
v -0.710888 0.645078 -0.020000
v -0.729891 0.649025 0.020000
v -0.729891 0.649025 -0.020000
v -0.748804 0.653260 0.020000
v -0.748804 0.653260 -0.020000
v -0.767536 0.657776 0.020000
v -0.767536 0.657776 -0.020000
v -0.785994 0.662563 0.020000
v -0.785994 0.662563 -0.020000
v -0.804085 0.667614 0.020000
v -0.804085 0.667614 -0.020000
v -0.821715 0.672920 0.020000
v -0.821715 0.672920 -0.020000
v -0.850550 0.682295 0.020000
v -0.850550 0.682295 -0.020000
v -0.861911 0.582573 0.020000
v -0.861911 0.582573 -0.020000
v -0.837899 0.576132 0.020000
v -0.837899 0.576132 -0.020000
v -0.821489 0.572034 0.020000
v -0.821489 0.572034 -0.020000
v -0.804556 0.568076 0.020000
v -0.804556 0.568076 -0.020000
v -0.787203 0.564258 0.020000
v -0.787203 0.564258 -0.020000
v -0.769531 0.560584 0.020000
v -0.769531 0.560584 -0.020000
v -0.751640 0.557055 0.020000
v -0.751640 0.557055 -0.020000
v -0.733634 0.553675 0.020000
v -0.733634 0.553675 -0.020000
v -0.715616 0.550446 0.020000
v -0.715616 0.550446 -0.020000
v -0.697688 0.547372 0.020000
v -0.697688 0.547372 -0.020000
v -0.679953 0.544456 0.020000
v -0.679953 0.544456 -0.020000
v -0.662515 0.541701 0.020000
v -0.662515 0.541701 -0.020000
v -0.658200 0.541045 0.020000
v -0.658200 0.541045 -0.020000
v -0.661185 0.533954 0.020000
v -0.661185 0.533954 -0.020000
v -0.669586 0.515136 0.020000
v -0.669586 0.515136 -0.020000
v -0.678396 0.496426 0.020000
v -0.678396 0.496426 -0.020000
v -0.687550 0.477927 0.020000
v -0.687550 0.477927 -0.020000
v -0.696981 0.459743 0.020000
v -0.696981 0.459743 -0.020000
v -0.706620 0.441977 0.020000
v -0.706620 0.441977 -0.020000
v -0.716400 0.424732 0.020000
v -0.716400 0.424732 -0.020000
v -0.726254 0.408112 0.020000
v -0.726254 0.408112 -0.020000
v -0.736113 0.392222 0.020000
v -0.736113 0.392222 -0.020000
v -0.745907 0.377166 0.020000
v -0.745907 0.377166 -0.020000
v -0.755566 0.363050 0.020000
v -0.755566 0.363050 -0.020000
v -0.765157 0.349786 0.020000
v -0.765157 0.349786 -0.020000
v -0.768455 0.345046 0.020000
v -0.768455 0.345046 -0.020000
v -0.771734 0.340485 0.020000
v -0.771734 0.340485 -0.020000
v -0.775085 0.335965 0.020000
v -0.775085 0.335965 -0.020000
v -0.778500 0.331492 0.020000
v -0.778500 0.331492 -0.020000
v -0.781972 0.327070 0.020000
v -0.781972 0.327070 -0.020000
v -0.785495 0.322701 0.020000
v -0.785495 0.322701 -0.020000
v -0.789061 0.318390 0.020000
v -0.789061 0.318390 -0.020000
v -0.792664 0.314141 0.020000
v -0.792664 0.314141 -0.020000
v -0.796296 0.309958 0.020000
v -0.796296 0.309958 -0.020000
v -0.799949 0.305844 0.020000
v -0.799949 0.305844 -0.020000
v -0.803619 0.301803 0.020000
v -0.803619 0.301803 -0.020000
v -0.812830 0.291874 0.020000
v -0.812830 0.291874 -0.020000
v -0.764368 0.222816 0.020000
v -0.764368 0.222816 -0.020000
v -0.744374 0.227166 0.020000
v -0.744374 0.227166 -0.020000
v -0.728415 0.230029 0.020000
v -0.728415 0.230029 -0.020000
v -0.710203 0.232838 0.020000
v -0.710203 0.232838 -0.020000
v -0.690197 0.235564 0.020000
v -0.690197 0.235564 -0.020000
v -0.668837 0.238186 0.020000
v -0.668837 0.238186 -0.020000
v -0.646554 0.240682 0.020000
v -0.646554 0.240682 -0.020000
v -0.623777 0.243036 0.020000
v -0.623777 0.243036 -0.020000
v -0.600929 0.245228 0.020000
v -0.600929 0.245228 -0.020000
v -0.578435 0.247240 0.020000
v -0.578435 0.247240 -0.020000
v -0.556718 0.249056 0.020000
v -0.556718 0.249056 -0.020000
v -0.536201 0.250656 0.020000
v -0.536201 0.250656 -0.020000
v -0.507119 0.252762 0.020000
v -0.507119 0.252762 -0.020000
v -0.514944 0.338840 0.020000
v -0.514944 0.338840 -0.020000
v -0.539218 0.336692 0.020000
v -0.539218 0.336692 -0.020000
v -0.554107 0.335393 0.020000
v -0.554107 0.335393 -0.020000
v -0.569361 0.334072 0.020000
v -0.569361 0.334072 -0.020000
v -0.584787 0.332741 0.020000
v -0.584787 0.332741 -0.020000
v -0.600189 0.331409 0.020000
v -0.600189 0.331409 -0.020000
v -0.615372 0.330087 0.020000
v -0.615372 0.330087 -0.020000
v -0.630145 0.328785 0.020000
v -0.630145 0.328785 -0.020000
v -0.644312 0.327515 0.020000
v -0.644312 0.327515 -0.020000
v -0.657682 0.326285 0.020000
v -0.657682 0.326285 -0.020000
v -0.670063 0.325106 0.020000
v -0.670063 0.325106 -0.020000
v -0.681267 0.323987 0.020000
v -0.681267 0.323987 -0.020000
v -0.670300 0.325156 0.020000
v -0.670300 0.325156 -0.020000
v -0.671849 0.322747 0.020000
v -0.671849 0.322747 -0.020000
v -0.661735 0.339057 0.020000
v -0.661735 0.339057 -0.020000
v -0.651372 0.356339 0.020000
v -0.651372 0.356339 -0.020000
v -0.640837 0.374481 0.020000
v -0.640837 0.374481 -0.020000
v -0.630207 0.393372 0.020000
v -0.630207 0.393372 -0.020000
v -0.619563 0.412898 0.020000
v -0.619563 0.412898 -0.020000
v -0.608981 0.432947 0.020000
v -0.608981 0.432947 -0.020000
v -0.598541 0.453408 0.020000
v -0.598541 0.453408 -0.020000
v -0.588323 0.474167 0.020000
v -0.588323 0.474167 -0.020000
v -0.578404 0.495113 0.020000
v -0.578404 0.495113 -0.020000
v -0.568865 0.516133 0.020000
v -0.568865 0.516133 -0.020000
v -0.562672 0.530443 0.020000
v -0.562672 0.530443 -0.020000
v -0.539487 0.528526 0.020000
v -0.539487 0.528526 -0.020000
v -0.508094 0.526515 0.020000
v -0.508094 0.526515 -0.020000
v -0.475775 0.525007 0.020000
v -0.475775 0.525007 -0.020000
v -0.442558 0.524002 0.020000
v -0.442558 0.524002 -0.020000
v -0.408475 0.523500 0.020000
v -0.408475 0.523500 -0.020000
v -0.373555 0.523500 0.020000
v -0.373555 0.523500 -0.020000
v -0.337829 0.524002 0.020000
v -0.337829 0.524002 -0.020000
v -0.301327 0.525006 0.020000
v -0.301327 0.525006 -0.020000
v -0.264081 0.526511 0.020000
v -0.264081 0.526511 -0.020000
v -0.226121 0.528517 0.020000
v -0.226121 0.528517 -0.020000
v -0.187477 0.531025 0.020000
v -0.187477 0.531025 -0.020000
v -0.139229 0.534719 0.020000
v -0.139229 0.534719 -0.020000
v -0.136716 0.635237 0.020000
v -0.136716 0.635237 -0.020000
v -0.184641 0.629775 0.020000
v -0.184641 0.629775 -0.020000
v -0.220694 0.626266 0.020000
v -0.220694 0.626266 -0.020000
v -0.256292 0.623380 0.020000
v -0.256292 0.623380 -0.020000
v -0.291350 0.621095 0.020000
v -0.291350 0.621095 -0.020000
v -0.325785 0.619391 0.020000
v -0.325785 0.619391 -0.020000
v -0.359511 0.618247 0.020000
v -0.359511 0.618247 -0.020000
v -0.392446 0.617642 0.020000
v -0.392446 0.617642 -0.020000
v -0.424503 0.617556 0.020000
v -0.424503 0.617556 -0.020000
v -0.455599 0.617967 0.020000
v -0.455599 0.617967 -0.020000
v -0.485648 0.618854 0.020000
v -0.485648 0.618854 -0.020000
v -0.514566 0.620197 0.020000
v -0.514566 0.620197 -0.020000
v -0.529364 0.621146 0.020000
v -0.529364 0.621146 -0.020000
vn -0.0000 -0.0000 -1.0000
vn -0.0000 -0.0000 1.0000
vn 0.8925 -0.4510 -0.0000
vn 0.3388 -0.9409 -0.0000
vn 0.3388 -0.9408 -0.0000
vn 0.8868 -0.4622 -0.0000
vn 0.8815 -0.4723 -0.0000
vn 0.8763 -0.4818 -0.0000
vn 0.8711 -0.4910 -0.0000
vn 0.8658 -0.5004 -0.0000
vn 0.8600 -0.5102 -0.0000
vn 0.8537 -0.5208 -0.0000
vn 0.8465 -0.5324 -0.0000
vn 0.8537 -0.5207 -0.0000
vn 0.8380 -0.5456 -0.0000
vn 0.8277 -0.5612 -0.0000
vn 0.9608 0.2774 -0.0000
vn -0.2814 0.9596 -0.0000
vn -0.8311 0.5562 -0.0000
vn -0.8391 0.5440 -0.0000
vn -0.8458 0.5336 -0.0000
vn -0.8516 0.5242 -0.0000
vn -0.8570 0.5154 -0.0000
vn -0.8621 0.5068 -0.0000
vn -0.8671 0.4981 -0.0000
vn -0.8723 0.4890 -0.0000
vn -0.8671 0.4982 -0.0000
vn -0.8778 0.4791 -0.0000
vn -0.8839 0.4678 -0.0000
vn -0.8908 0.4544 -0.0000
vn -0.9412 -0.3378 -0.0000
vn 0.8897 -0.4566 -0.0000
vn 0.3352 -0.9422 -0.0000
vn 0.3352 -0.9421 -0.0000
vn 0.8849 -0.4658 -0.0000
vn 0.8799 -0.4752 -0.0000
vn 0.8746 -0.4849 -0.0000
vn 0.8688 -0.4952 -0.0000
vn 0.8624 -0.5062 -0.0000
vn 0.8552 -0.5183 -0.0000
vn 0.8469 -0.5317 -0.0000
vn 0.8373 -0.5468 -0.0000
vn 0.8258 -0.5640 -0.0000
vn 0.8118 -0.5839 -0.0000
vn 0.9658 0.2593 -0.0000
vn -0.2725 0.9622 -0.0000
vn -0.8240 0.5665 -0.0000
vn -0.2724 0.9622 -0.0000
vn -0.8314 0.5556 -0.0000
vn -0.8240 0.5666 -0.0000
vn -0.8378 0.5460 -0.0000
vn -0.8434 0.5373 -0.0000
vn -0.8486 0.5290 -0.0000
vn -0.8537 0.5207 -0.0000
vn -0.8589 0.5122 -0.0000
vn -0.8643 0.5030 -0.0000
vn -0.8702 0.4927 -0.0000
vn -0.8770 0.4806 -0.0000
vn -0.8850 0.4657 -0.0000
vn -0.9432 -0.3324 -0.0000
vn -0.9432 -0.3323 -0.0000
vn -0.9392 0.3435 -0.0000
vn -0.9861 0.1662 -0.0000
vn -0.8557 0.5174 -0.0000
vn -0.7429 0.6694 -0.0000
vn -0.6157 0.7880 -0.0000
vn -0.4896 0.8720 -0.0000
vn -0.3745 0.9272 -0.0000
vn -0.2745 0.9616 -0.0000
vn -0.1896 0.9819 -0.0000
vn -0.1183 0.9930 -0.0000
vn -0.0583 0.9983 -0.0000
vn -0.0159 0.9999 -0.0000
vn 0.0080 1.0000 -0.0000
vn 0.0259 0.9997 -0.0000
vn 0.0439 0.9990 -0.0000
vn 0.0620 0.9981 -0.0000
vn 0.0801 0.9968 -0.0000
vn 0.0983 0.9952 -0.0000
vn 0.1167 0.9932 -0.0000
vn 0.1353 0.9908 -0.0000
vn 0.1541 0.9881 -0.0000
vn 0.1732 0.9849 -0.0000
vn 0.1926 0.9813 -0.0000
vn -0.6459 0.7634 -0.0000
vn -0.7516 -0.6596 -0.0000
vn -0.1616 -0.9869 -0.0000
vn -0.7517 -0.6596 -0.0000
vn -0.1500 -0.9887 -0.0000
vn -0.1371 -0.9906 -0.0000
vn -0.1231 -0.9924 -0.0000
vn -0.1083 -0.9941 -0.0000
vn -0.0927 -0.9957 -0.0000
vn -0.0766 -0.9971 -0.0000
vn -0.0600 -0.9982 -0.0000
vn -0.0430 -0.9991 -0.0000
vn -0.0258 -0.9997 -0.0000
vn -0.0085 -1.0000 -0.0000
vn 0.0182 -0.9998 -0.0000
vn 0.0702 -0.9975 -0.0000
vn 0.1428 -0.9898 -0.0000
vn 0.2255 -0.9742 -0.0000
vn 0.3193 -0.9476 -0.0000
vn 0.4246 -0.9054 -0.0000
vn 0.5395 -0.8420 -0.0000
vn 0.6590 -0.7521 -0.0000
vn 0.7742 -0.6329 -0.0000
vn 0.8734 -0.4870 -0.0000
vn 0.9460 -0.3242 -0.0000
vn 0.9874 -0.1582 -0.0000
vn 0.9997 -0.0234 -0.0000
vn 0.9983 0.0581 -0.0000
vn 0.9935 0.1139 -0.0000
vn 0.9861 0.1662 -0.0000
vn 0.9768 0.2141 -0.0000
vn 0.9663 0.2574 -0.0000
vn 0.9552 0.2958 -0.0000
vn 0.9442 0.3292 -0.0000
vn 0.9338 0.3578 -0.0000
vn 0.9243 0.3817 -0.0000
vn 0.9160 0.4012 -0.0000
vn 0.9091 0.4166 -0.0000
vn 0.4393 0.8983 -0.0000
vn -0.9195 0.3932 -0.0000
vn -0.8647 -0.5022 -0.0000
vn -0.9194 0.3932 -0.0000
vn -0.8779 -0.4789 -0.0000
vn -0.8923 -0.4514 -0.0000
vn -0.9079 -0.4193 -0.0000
vn -0.9240 -0.3823 -0.0000
vn -0.9403 -0.3403 -0.0000
vn -0.9560 -0.2932 -0.0000
vn -0.9704 -0.2414 -0.0000
vn -0.9560 -0.2933 -0.0000
vn -0.9827 -0.1853 -0.0000
vn -0.9921 -0.1256 -0.0000
vn -0.9980 -0.0634 -0.0000
vn -0.9997 0.0237 -0.0000
vn 0.9554 -0.2952 -0.0000
vn 0.9510 -0.3091 -0.0000
vn 0.9571 -0.2897 -0.0000
vn 0.9580 -0.2866 -0.0000
vn 0.9571 -0.2896 -0.0000
vn 0.9583 -0.2858 -0.0000
vn 0.9579 -0.2870 -0.0000
vn 0.9570 -0.2901 -0.0000
vn 0.9555 -0.2949 -0.0000
vn 0.9534 -0.3016 -0.0000
vn 0.9555 -0.2950 -0.0000
vn 0.9507 -0.3101 -0.0000
vn 0.9472 -0.3206 -0.0000
vn 0.9429 -0.3330 -0.0000
vn 0.8503 0.5263 -0.0000
vn -0.6020 0.7985 -0.0000
vn 0.8504 0.5262 -0.0000
vn -0.9845 0.1754 -0.0000
vn -0.9799 0.1993 -0.0000
vn -0.9757 0.2191 -0.0000
vn -0.9718 0.2359 -0.0000
vn -0.9682 0.2502 -0.0000
vn -0.9649 0.2625 -0.0000
vn -0.9619 0.2733 -0.0000
vn -0.9592 0.2828 -0.0000
vn -0.9567 0.2911 -0.0000
vn -0.9544 0.2986 -0.0000
vn -0.9523 0.3052 -0.0000
vn -0.5335 0.8458 -0.0000
vn 0.1387 0.9903 -0.0000
vn 0.1531 0.9882 -0.0000
vn 0.1673 0.9859 -0.0000
vn 0.1816 0.9834 -0.0000
vn 0.1961 0.9806 -0.0000
vn 0.2109 0.9775 -0.0000
vn 0.2264 0.9740 -0.0000
vn 0.2427 0.9701 -0.0000
vn 0.2600 0.9656 -0.0000
vn 0.2786 0.9604 -0.0000
vn 0.2987 0.9543 -0.0000
vn -0.5409 0.8411 -0.0000
vn -0.8267 -0.5627 -0.0000
vn -0.2507 -0.9681 -0.0000
vn -0.2350 -0.9720 -0.0000
vn -0.2213 -0.9752 -0.0000
vn -0.2092 -0.9779 -0.0000
vn -0.1985 -0.9801 -0.0000
vn -0.1890 -0.9820 -0.0000
vn -0.1804 -0.9836 -0.0000
vn -0.1727 -0.9850 -0.0000
vn -0.1656 -0.9862 -0.0000
vn -0.1592 -0.9873 -0.0000
vn -0.1532 -0.9882 -0.0000
vn -0.8724 -0.4888 -0.0000
vn -0.9174 0.3979 -0.0000
vn -0.9090 0.4169 -0.0000
vn -0.9005 0.4348 -0.0000
vn -0.8920 0.4520 -0.0000
vn -0.8834 0.4686 -0.0000
vn -0.8744 0.4851 -0.0000
vn -0.8650 0.5017 -0.0000
vn -0.8550 0.5186 -0.0000
vn -0.8440 0.5363 -0.0000
vn -0.8318 0.5550 -0.0000
vn -0.8179 0.5754 -0.0000
vn -0.8156 0.5786 -0.0000
vn -0.8164 0.5775 -0.0000
vn -0.8077 0.5897 -0.0000
vn -0.7991 0.6012 -0.0000
vn -0.8076 0.5897 -0.0000
vn -0.7907 0.6122 -0.0000
vn -0.7825 0.6226 -0.0000
vn -0.7745 0.6326 -0.0000
vn -0.7666 0.6421 -0.0000
vn -0.7590 0.6511 -0.0000
vn -0.7514 0.6598 -0.0000
vn -0.7440 0.6682 -0.0000
vn -0.7367 0.6762 -0.0000
vn -0.9977 0.0679 -0.0000
vn -0.3638 -0.9315 -0.0000
vn -0.9977 0.0680 -0.0000
vn 0.1946 -0.9809 -0.0000
vn 0.1645 -0.9864 -0.0000
vn 0.1437 -0.9896 -0.0000
vn 0.1284 -0.9917 -0.0000
vn 0.1166 -0.9932 -0.0000
vn 0.1071 -0.9943 -0.0000
vn 0.0991 -0.9951 -0.0000
vn 0.0923 -0.9957 -0.0000
vn 0.0862 -0.9963 -0.0000
vn 0.0805 -0.9968 -0.0000
vn 0.0750 -0.9972 -0.0000
vn 0.7623 -0.6472 -0.0000
vn 0.6411 0.7675 -0.0000
vn -0.0875 0.9962 -0.0000
vn -0.0866 0.9962 -0.0000
vn -0.0861 0.9963 -0.0000
vn -0.0864 0.9963 -0.0000
vn -0.0872 0.9962 -0.0000
vn -0.0886 0.9961 -0.0000
vn -0.0905 0.9959 -0.0000
vn -0.0932 0.9956 -0.0000
vn -0.0971 0.9953 -0.0000
vn 0.9954 0.0958 -0.0000
vn -0.8511 -0.5251 -0.0000
vn 0.9940 0.1093 -0.0000
vn 0.5330 0.8461 -0.0000
vn -0.8510 -0.5251 -0.0000
vn 0.8538 -0.5206 -0.0000
vn 0.5319 0.8468 -0.0000
vn 0.8612 -0.5082 -0.0000
vn 0.8682 -0.4963 -0.0000
vn 0.8748 -0.4845 -0.0000
vn 0.8812 -0.4727 -0.0000
vn 0.8876 -0.4606 -0.0000
vn 0.8940 -0.4481 -0.0000
vn 0.9005 -0.4348 -0.0000
vn 0.9072 -0.4206 -0.0000
vn 0.9142 -0.4052 -0.0000
vn 0.5141 -0.8577 -0.0000
vn -0.0732 -0.9973 -0.0000
vn -0.0553 -0.9985 -0.0000
vn -0.0384 -0.9993 -0.0000
vn -0.0225 -0.9997 -0.0000
vn -0.0074 -1.0000 -0.0000
vn 0.0070 -1.0000 -0.0000
vn 0.0208 -0.9998 -0.0000
vn 0.0339 -0.9994 -0.0000
vn 0.0466 -0.9989 -0.0000
vn 0.0588 -0.9983 -0.0000
vn 0.0705 -0.9975 -0.0000
vn 0.7250 -0.6887 -0.0000
vn 0.6751 0.7377 -0.0000
vn -0.1051 0.9945 -0.0000
vn -0.0888 0.9960 -0.0000
vn -0.0729 0.9973 -0.0000
vn -0.0572 0.9984 -0.0000
vn -0.0417 0.9991 -0.0000
vn -0.0261 0.9997 -0.0000
vn -0.0105 0.9999 -0.0000
vn 0.0053 1.0000 -0.0000
vn 0.0214 0.9998 -0.0000
vn 0.0380 0.9993 -0.0000
vn 0.0552 0.9985 -0.0000
vn 0.8305 0.5570 -0.0000
vn 0.8305 0.5571 -0.0000
vt 0.787811 0.909000
vt 0.788103 0.909000
vt 0.787957 0.909000
vt 0.788249 0.909000
vt 0.788394 0.909000
vt 0.787665 0.909000
vt 0.788540 0.909000
vt 0.784020 0.909000
vt 0.784311 0.909000
vt 0.784165 0.909000
vt 0.787519 0.909000
vt 0.788686 0.909000
vt 0.784457 0.909000
vt 0.787374 0.909000
vt 0.788832 0.909000
vt 0.784603 0.909000
vt 0.783874 0.909000
vt 0.787228 0.909000
vt 0.802394 0.909000
vt 0.802685 0.909000
vt 0.802540 0.909000
vt 0.788978 0.909000
vt 0.784749 0.909000
vt 0.787082 0.909000
vt 0.802248 0.909000
vt 0.789124 0.909000
vt 0.784895 0.909000
vt 0.783728 0.909000
vt 0.802831 0.909000
vt 0.786936 0.909000
vt 0.789269 0.909000
vt 0.783582 0.909000
vt 0.785040 0.909000
vt 0.802102 0.909000
vt 0.802977 0.909000
vt 0.786790 0.909000
vt 0.801956 0.909000
vt 0.783436 0.909000
vt 0.789415 0.909000
vt 0.785186 0.909000
vt 0.801811 0.909000
vt 0.786644 0.909000
vt 0.803123 0.909000
vt 0.783291 0.909000
vt 0.789561 0.909000
vt 0.801665 0.909000
vt 0.785332 0.909000
vt 0.801519 0.909000
vt 0.786499 0.909000
vt 0.803269 0.909000
vt 0.789707 0.909000
vt 0.783145 0.909000
vt 0.801373 0.909000
vt 0.785478 0.909000
vt 0.786353 0.909000
vt 0.801227 0.909000
vt 0.803415 0.909000
vt 0.782999 0.909000
vt 0.785624 0.909000
vt 0.801081 0.909000
vt 0.786207 0.909000
vt 0.786061 0.909000
vt 0.800936 0.909000
vt 0.782853 0.909000
vt 0.803560 0.909000
vt 0.785770 0.909000
vt 0.800790 0.909000
vt 0.800644 0.909000
vt 0.782707 0.909000
vt 0.806039 0.909000
vt 0.785915 0.909000
vt 0.820622 0.909000
vt 0.803706 0.909000
vt 0.782561 0.909000
vt 0.805894 0.909000
vt 0.806185 0.909000
vt 0.803852 0.909000
vt 0.782270 0.909000
vt 0.782416 0.909000
vt 0.805748 0.909000
vt 0.805602 0.909000
vt 0.803998 0.909000
vt 0.805456 0.909000
vt 0.805310 0.909000
vt 0.805165 0.909000
vt 0.804144 0.909000
vt 0.805019 0.909000
vt 0.804873 0.909000
vt 0.804727 0.909000
vt 0.804581 0.909000
vt 0.804290 0.909000
vt 0.818726 0.909000
vt 0.819018 0.909000
vt 0.818872 0.909000
vt 0.804435 0.909000
vt 0.819164 0.909000
vt 0.819310 0.909000
vt 0.819456 0.909000
vt 0.820476 0.909000
vt 0.819601 0.909000
vt 0.820331 0.909000
vt 0.819747 0.909000
vt 0.820185 0.909000
vt 0.819893 0.909000
vt 0.820039 0.909000
vt 0.806331 0.909000
vt 0.806477 0.909000
vt 0.806623 0.909000
vt 0.806769 0.909000
vt 0.806914 0.909000
vt 0.807060 0.909000
vt 0.807206 0.909000
vt 0.807352 0.909000
vt 0.807498 0.909000
vt 0.807644 0.909000
vt 0.807789 0.909000
vt 0.807935 0.909000
vt 0.808081 0.909000
vt 0.818581 0.909000
vt 0.816977 0.909000
vt 0.808227 0.909000
vt 0.818435 0.909000
vt 0.817122 0.909000
vt 0.816831 0.909000
vt 0.817268 0.909000
vt 0.818289 0.909000
vt 0.817414 0.909000
vt 0.818143 0.909000
vt 0.817560 0.909000
vt 0.817997 0.909000
vt 0.817706 0.909000
vt 0.817851 0.909000
vt 0.816685 0.909000
vt 0.808373 0.909000
vt 0.808519 0.909000
vt 0.816539 0.909000
vt 0.808664 0.909000
vt 0.816393 0.909000
vt 0.808810 0.909000
vt 0.816247 0.909000
vt 0.808956 0.909000
vt 0.816102 0.909000
vt 0.809102 0.909000
vt 0.815956 0.909000
vt 0.809248 0.909000
vt 0.815810 0.909000
vt 0.809394 0.909000
vt 0.809539 0.909000
vt 0.815664 0.909000
vt 0.809685 0.909000
vt 0.815518 0.909000
vt 0.809831 0.909000
vt 0.809977 0.909000
vt 0.810123 0.909000
vt 0.815372 0.909000
vt 0.815081 0.909000
vt 0.813331 0.909000
vt 0.813622 0.909000
vt 0.813477 0.909000
vt 0.813768 0.909000
vt 0.810269 0.909000
vt 0.813914 0.909000
vt 0.798456 0.909000
vt 0.798748 0.909000
vt 0.798602 0.909000
vt 0.814060 0.909000
vt 0.814206 0.909000
vt 0.810414 0.909000
vt 0.814352 0.909000
vt 0.814497 0.909000
vt 0.814643 0.909000
vt 0.814789 0.909000
vt 0.810560 0.909000
vt 0.814935 0.909000
vt 0.815227 0.909000
vt 0.810706 0.909000
vt 0.810852 0.909000
vt 0.810998 0.909000
vt 0.798311 0.909000
vt 0.798894 0.909000
vt 0.811143 0.909000
vt 0.811289 0.909000
vt 0.811435 0.909000
vt 0.798165 0.909000
vt 0.813185 0.909000
vt 0.813039 0.909000
vt 0.812893 0.909000
vt 0.812747 0.909000
vt 0.812602 0.909000
vt 0.812456 0.909000
vt 0.812310 0.909000
vt 0.812164 0.909000
vt 0.812018 0.909000
vt 0.811873 0.909000
vt 0.811727 0.909000
vt 0.811581 0.909000
vt 0.799040 0.909000
vt 0.798019 0.909000
vt 0.799186 0.909000
vt 0.797873 0.909000
vt 0.799331 0.909000
vt 0.797727 0.909000
vt 0.799477 0.909000
vt 0.799623 0.909000
vt 0.797582 0.909000
vt 0.799769 0.909000
vt 0.797436 0.909000
vt 0.799915 0.909000
vt 0.797290 0.909000
vt 0.800061 0.909000
vt 0.797144 0.909000
vt 0.800206 0.909000
vt 0.800352 0.909000
vt 0.796998 0.909000
vt 0.800498 0.909000
vt 0.796852 0.909000
vt 0.789853 0.909000
vt 0.796707 0.909000
vt 0.789999 0.909000
vt 0.790144 0.909000
vt 0.796561 0.909000
vt 0.790290 0.909000
vt 0.790436 0.909000
vt 0.796415 0.909000
vt 0.790582 0.909000
vt 0.790728 0.909000
vt 0.793061 0.909000
vt 0.793353 0.909000
vt 0.793207 0.909000
vt 0.796269 0.909000
vt 0.790873 0.909000
vt 0.792915 0.909000
vt 0.792769 0.909000
vt 0.791019 0.909000
vt 0.792623 0.909000
vt 0.792478 0.909000
vt 0.791165 0.909000
vt 0.792332 0.909000
vt 0.792186 0.909000
vt 0.792040 0.909000
vt 0.791311 0.909000
vt 0.791894 0.909000
vt 0.791748 0.909000
vt 0.791457 0.909000
vt 0.791603 0.909000
vt 0.796123 0.909000
vt 0.795977 0.909000
vt 0.795832 0.909000
vt 0.795686 0.909000
vt 0.795540 0.909000
vt 0.793498 0.909000
vt 0.793644 0.909000
vt 0.793790 0.909000
vt 0.795394 0.909000
vt 0.793936 0.909000
vt 0.794082 0.909000
vt 0.794227 0.909000
vt 0.795248 0.909000
vt 0.794373 0.909000
vt 0.794519 0.909000
vt 0.794665 0.909000
vt 0.795102 0.909000
vt 0.794811 0.909000
vt 0.794957 0.909000
vt 0.783745 0.947353
vt 0.782270 0.947353
vt 0.785220 0.947353
vt 0.783745 0.909000
vt 0.786695 0.947353
vt 0.785220 0.909000
vt 0.788170 0.947353
vt 0.786695 0.909000
vt 0.789645 0.947353
vt 0.788170 0.909000
vt 0.791120 0.947353
vt 0.789645 0.909000
vt 0.792595 0.947353
vt 0.791120 0.909000
vt 0.794070 0.947353
vt 0.792595 0.909000
vt 0.795546 0.947353
vt 0.794070 0.909000
vt 0.797021 0.947353
vt 0.795546 0.909000
vt 0.798496 0.947353
vt 0.797021 0.909000
vt 0.799971 0.947353
vt 0.798496 0.909000
vt 0.801446 0.947353
vt 0.799971 0.909000
vt 0.802921 0.947353
vt 0.801446 0.909000
vt 0.804396 0.947353
vt 0.802921 0.909000
vt 0.805871 0.947353
vt 0.804396 0.909000
vt 0.807346 0.947353
vt 0.805871 0.909000
vt 0.808821 0.947353
vt 0.807346 0.909000
vt 0.810297 0.947353
vt 0.808821 0.909000
vt 0.811772 0.947353
vt 0.810297 0.909000
vt 0.813247 0.947353
vt 0.811772 0.909000
vt 0.814722 0.947353
vt 0.813247 0.909000
vt 0.816197 0.947353
vt 0.814722 0.909000
vt 0.817672 0.947353
vt 0.816197 0.909000
vt 0.819147 0.947353
vt 0.817672 0.909000
vt 0.820622 0.947353
vt 0.819147 0.909000
vt 0.782788 0.947353
vt 0.783306 0.947353
vt 0.782788 0.909000
vt 0.783825 0.947353
vt 0.783306 0.909000
vt 0.784343 0.947353
vt 0.783825 0.909000
vt 0.784861 0.947353
vt 0.784343 0.909000
vt 0.785379 0.947353
vt 0.784861 0.909000
vt 0.785898 0.947353
vt 0.785379 0.909000
vt 0.786416 0.947353
vt 0.785898 0.909000
vt 0.786934 0.947353
vt 0.786416 0.909000
vt 0.787452 0.947353
vt 0.786934 0.909000
vt 0.787971 0.947353
vt 0.787452 0.909000
vt 0.788489 0.947353
vt 0.787971 0.909000
vt 0.789007 0.947353
vt 0.788489 0.909000
vt 0.789526 0.947353
vt 0.789007 0.909000
vt 0.790044 0.947353
vt 0.789526 0.909000
vt 0.790562 0.947353
vt 0.790044 0.909000
vt 0.791080 0.947353
vt 0.790562 0.909000
vt 0.791599 0.947353
vt 0.791080 0.909000
vt 0.792117 0.947353
vt 0.791599 0.909000
vt 0.792635 0.947353
vt 0.792117 0.909000
vt 0.793154 0.947353
vt 0.792635 0.909000
vt 0.793672 0.947353
vt 0.793154 0.909000
vt 0.794190 0.947353
vt 0.793672 0.909000
vt 0.794708 0.947353
vt 0.794190 0.909000
vt 0.795227 0.947353
vt 0.794708 0.909000
vt 0.795745 0.947353
vt 0.795227 0.909000
vt 0.796263 0.947353
vt 0.795745 0.909000
vt 0.796781 0.947353
vt 0.796263 0.909000
vt 0.797300 0.947353
vt 0.796781 0.909000
vt 0.797818 0.947353
vt 0.797300 0.909000
vt 0.798336 0.947353
vt 0.797818 0.909000
vt 0.798855 0.947353
vt 0.798336 0.909000
vt 0.799373 0.947353
vt 0.798855 0.909000
vt 0.799891 0.947353
vt 0.799373 0.909000
vt 0.800409 0.947353
vt 0.799891 0.909000
vt 0.800928 0.947353
vt 0.800409 0.909000
vt 0.800928 0.909000
vt 0.801964 0.947353
vt 0.802482 0.947353
vt 0.801964 0.909000
vt 0.803001 0.947353
vt 0.802482 0.909000
vt 0.803519 0.947353
vt 0.803001 0.909000
vt 0.804037 0.947353
vt 0.803519 0.909000
vt 0.804556 0.947353
vt 0.804037 0.909000
vt 0.805074 0.947353
vt 0.804556 0.909000
vt 0.805592 0.947353
vt 0.805074 0.909000
vt 0.806110 0.947353
vt 0.805592 0.909000
vt 0.806629 0.947353
vt 0.806110 0.909000
vt 0.807147 0.947353
vt 0.806629 0.909000
vt 0.807665 0.947353
vt 0.807147 0.909000
vt 0.808184 0.947353
vt 0.807665 0.909000
vt 0.808702 0.947353
vt 0.808184 0.909000
vt 0.809220 0.947353
vt 0.808702 0.909000
vt 0.809738 0.947353
vt 0.809220 0.909000
vt 0.810257 0.947353
vt 0.809738 0.909000
vt 0.810775 0.947353
vt 0.810257 0.909000
vt 0.811293 0.947353
vt 0.810775 0.909000
vt 0.811811 0.947353
vt 0.811293 0.909000
vt 0.812330 0.947353
vt 0.811811 0.909000
vt 0.812848 0.947353
vt 0.812330 0.909000
vt 0.813366 0.947353
vt 0.812848 0.909000
vt 0.813885 0.947353
vt 0.813366 0.909000
vt 0.814403 0.947353
vt 0.813885 0.909000
vt 0.814921 0.947353
vt 0.814403 0.909000
vt 0.815439 0.947353
vt 0.814921 0.909000
vt 0.815958 0.947353
vt 0.815439 0.909000
vt 0.816476 0.947353
vt 0.815958 0.909000
vt 0.816994 0.947353
vt 0.816476 0.909000
vt 0.817513 0.947353
vt 0.816994 0.909000
vt 0.818031 0.947353
vt 0.817513 0.909000
vt 0.818549 0.947353
vt 0.818031 0.909000
vt 0.819067 0.947353
vt 0.818549 0.909000
vt 0.819586 0.947353
vt 0.819067 0.909000
vt 0.820104 0.947353
vt 0.819586 0.909000
vt 0.820104 0.909000
vt 0.782548 0.947353
vt 0.782826 0.947353
vt 0.782548 0.909000
vt 0.783103 0.947353
vt 0.782826 0.909000
vt 0.783381 0.947353
vt 0.783103 0.909000
vt 0.783659 0.947353
vt 0.783381 0.909000
vt 0.783937 0.947353
vt 0.783659 0.909000
vt 0.784215 0.947353
vt 0.783937 0.909000
vt 0.784493 0.947353
vt 0.784215 0.909000
vt 0.784771 0.947353
vt 0.784493 0.909000
vt 0.785049 0.947353
vt 0.784771 0.909000
vt 0.785327 0.947353
vt 0.785049 0.909000
vt 0.785605 0.947353
vt 0.785327 0.909000
vt 0.785883 0.947353
vt 0.785605 0.909000
vt 0.786161 0.947353
vt 0.785883 0.909000
vt 0.786438 0.947353
vt 0.786161 0.909000
vt 0.786716 0.947353
vt 0.786438 0.909000
vt 0.786994 0.947353
vt 0.786716 0.909000
vt 0.787272 0.947353
vt 0.786994 0.909000
vt 0.787550 0.947353
vt 0.787272 0.909000
vt 0.787828 0.947353
vt 0.787550 0.909000
vt 0.788106 0.947353
vt 0.787828 0.909000
vt 0.788384 0.947353
vt 0.788106 0.909000
vt 0.788662 0.947353
vt 0.788384 0.909000
vt 0.788940 0.947353
vt 0.788662 0.909000
vt 0.789218 0.947353
vt 0.788940 0.909000
vt 0.789496 0.947353
vt 0.789218 0.909000
vt 0.789773 0.947353
vt 0.789496 0.909000
vt 0.790051 0.947353
vt 0.789773 0.909000
vt 0.790329 0.947353
vt 0.790051 0.909000
vt 0.790607 0.947353
vt 0.790329 0.909000
vt 0.790885 0.947353
vt 0.790607 0.909000
vt 0.791163 0.947353
vt 0.790885 0.909000
vt 0.791441 0.947353
vt 0.791163 0.909000
vt 0.791719 0.947353
vt 0.791441 0.909000
vt 0.791997 0.947353
vt 0.791719 0.909000
vt 0.792275 0.947353
vt 0.791997 0.909000
vt 0.792553 0.947353
vt 0.792275 0.909000
vt 0.792831 0.947353
vt 0.792553 0.909000
vt 0.793108 0.947353
vt 0.792831 0.909000
vt 0.793386 0.947353
vt 0.793108 0.909000
vt 0.793664 0.947353
vt 0.793386 0.909000
vt 0.793942 0.947353
vt 0.793664 0.909000
vt 0.794220 0.947353
vt 0.793942 0.909000
vt 0.794498 0.947353
vt 0.794220 0.909000
vt 0.794776 0.947353
vt 0.794498 0.909000
vt 0.795054 0.947353
vt 0.794776 0.909000
vt 0.795332 0.947353
vt 0.795054 0.909000
vt 0.795610 0.947353
vt 0.795332 0.909000
vt 0.795888 0.947353
vt 0.795610 0.909000
vt 0.796166 0.947353
vt 0.795888 0.909000
vt 0.796443 0.947353
vt 0.796166 0.909000
vt 0.796721 0.947353
vt 0.796443 0.909000
vt 0.796999 0.947353
vt 0.796721 0.909000
vt 0.797277 0.947353
vt 0.796999 0.909000
vt 0.797555 0.947353
vt 0.797277 0.909000
vt 0.797833 0.947353
vt 0.797555 0.909000
vt 0.798111 0.947353
vt 0.797833 0.909000
vt 0.798389 0.947353
vt 0.798111 0.909000
vt 0.798667 0.947353
vt 0.798389 0.909000
vt 0.798945 0.947353
vt 0.798667 0.909000
vt 0.799223 0.947353
vt 0.798945 0.909000
vt 0.799501 0.947353
vt 0.799223 0.909000
vt 0.799778 0.947353
vt 0.799501 0.909000
vt 0.800056 0.947353
vt 0.799778 0.909000
vt 0.800334 0.947353
vt 0.800056 0.909000
vt 0.800612 0.947353
vt 0.800334 0.909000
vt 0.800890 0.947353
vt 0.800612 0.909000
vt 0.801168 0.947353
vt 0.800890 0.909000
vt 0.801168 0.909000
vt 0.801724 0.947353
vt 0.802002 0.947353
vt 0.801724 0.909000
vt 0.802280 0.947353
vt 0.802002 0.909000
vt 0.802558 0.947353
vt 0.802280 0.909000
vt 0.802835 0.947353
vt 0.802558 0.909000
vt 0.803113 0.947353
vt 0.802835 0.909000
vt 0.803391 0.947353
vt 0.803113 0.909000
vt 0.803669 0.947353
vt 0.803391 0.909000
vt 0.803947 0.947353
vt 0.803669 0.909000
vt 0.804225 0.947353
vt 0.803947 0.909000
vt 0.804503 0.947353
vt 0.804225 0.909000
vt 0.804781 0.947353
vt 0.804503 0.909000
vt 0.805059 0.947353
vt 0.804781 0.909000
vt 0.805337 0.947353
vt 0.805059 0.909000
vt 0.805615 0.947353
vt 0.805337 0.909000
vt 0.805893 0.947353
vt 0.805615 0.909000
vt 0.806170 0.947353
vt 0.805893 0.909000
vt 0.806448 0.947353
vt 0.806170 0.909000
vt 0.806726 0.947353
vt 0.806448 0.909000
vt 0.807004 0.947353
vt 0.806726 0.909000
vt 0.807282 0.947353
vt 0.807004 0.909000
vt 0.807560 0.947353
vt 0.807282 0.909000
vt 0.807838 0.947353
vt 0.807560 0.909000
vt 0.808116 0.947353
vt 0.807838 0.909000
vt 0.808394 0.947353
vt 0.808116 0.909000
vt 0.808672 0.947353
vt 0.808394 0.909000
vt 0.808950 0.947353
vt 0.808672 0.909000
vt 0.809228 0.947353
vt 0.808950 0.909000
vt 0.809505 0.947353
vt 0.809228 0.909000
vt 0.809783 0.947353
vt 0.809505 0.909000
vt 0.810061 0.947353
vt 0.809783 0.909000
vt 0.810339 0.947353
vt 0.810061 0.909000
vt 0.810617 0.947353
vt 0.810339 0.909000
vt 0.810895 0.947353
vt 0.810617 0.909000
vt 0.811173 0.947353
vt 0.810895 0.909000
vt 0.811451 0.947353
vt 0.811173 0.909000
vt 0.811729 0.947353
vt 0.811451 0.909000
vt 0.812007 0.947353
vt 0.811729 0.909000
vt 0.812285 0.947353
vt 0.812007 0.909000
vt 0.812563 0.947353
vt 0.812285 0.909000
vt 0.812840 0.947353
vt 0.812563 0.909000
vt 0.813118 0.947353
vt 0.812840 0.909000
vt 0.813396 0.947353
vt 0.813118 0.909000
vt 0.813674 0.947353
vt 0.813396 0.909000
vt 0.813952 0.947353
vt 0.813674 0.909000
vt 0.814230 0.947353
vt 0.813952 0.909000
vt 0.814508 0.947353
vt 0.814230 0.909000
vt 0.814786 0.947353
vt 0.814508 0.909000
vt 0.815064 0.947353
vt 0.814786 0.909000
vt 0.815342 0.947353
vt 0.815064 0.909000
vt 0.815620 0.947353
vt 0.815342 0.909000
vt 0.815898 0.947353
vt 0.815620 0.909000
vt 0.816175 0.947353
vt 0.815898 0.909000
vt 0.816453 0.947353
vt 0.816175 0.909000
vt 0.816731 0.947353
vt 0.816453 0.909000
vt 0.817009 0.947353
vt 0.816731 0.909000
vt 0.817287 0.947353
vt 0.817009 0.909000
vt 0.817565 0.947353
vt 0.817287 0.909000
vt 0.817843 0.947353
vt 0.817565 0.909000
vt 0.818121 0.947353
vt 0.817843 0.909000
vt 0.818399 0.947353
vt 0.818121 0.909000
vt 0.818677 0.947353
vt 0.818399 0.909000
vt 0.818955 0.947353
vt 0.818677 0.909000
vt 0.819233 0.947353
vt 0.818955 0.909000
vt 0.819510 0.947353
vt 0.819233 0.909000
vt 0.819788 0.947353
vt 0.819510 0.909000
vt 0.820066 0.947353
vt 0.819788 0.909000
vt 0.820344 0.947353
vt 0.820066 0.909000
vt 0.820344 0.909000
s 0
usemtl Material
f 39/1/1 41/2/1 40/3/1
f 39/1/1 42/4/1 41/2/1
f 39/1/1 43/5/1 42/4/1
f 38/6/1 43/5/1 39/1/1
f 38/6/1 44/7/1 43/5/1
f 13/8/1 15/9/1 14/10/1
f 37/11/1 44/7/1 38/6/1
f 37/11/1 45/12/1 44/7/1
f 13/8/1 16/13/1 15/9/1
f 36/14/1 45/12/1 37/11/1
f 36/14/1 46/15/1 45/12/1
f 13/8/1 17/16/1 16/13/1
f 12/17/1 17/16/1 13/8/1
f 35/18/1 46/15/1 36/14/1
f 139/19/1 141/20/1 140/21/1
f 35/18/1 47/22/1 46/15/1
f 12/17/1 18/23/1 17/16/1
f 34/24/1 47/22/1 35/18/1
f 138/25/1 141/20/1 139/19/1
f 34/24/1 48/26/1 47/22/1
f 12/17/1 19/27/1 18/23/1
f 11/28/1 19/27/1 12/17/1
f 138/25/1 142/29/1 141/20/1
f 33/30/1 48/26/1 34/24/1
f 33/30/1 49/31/1 48/26/1
f 10/32/1 19/27/1 11/28/1
f 10/32/1 20/33/1 19/27/1
f 137/34/1 142/29/1 138/25/1
f 137/34/1 143/35/1 142/29/1
f 32/36/1 49/31/1 33/30/1
f 136/37/1 143/35/1 137/34/1
f 9/38/1 20/33/1 10/32/1
f 32/36/1 50/39/1 49/31/1
f 9/38/1 21/40/1 20/33/1
f 135/41/1 143/35/1 136/37/1
f 31/42/1 50/39/1 32/36/1
f 135/41/1 144/43/1 143/35/1
f 8/44/1 21/40/1 9/38/1
f 31/42/1 51/45/1 50/39/1
f 134/46/1 144/43/1 135/41/1
f 8/44/1 22/47/1 21/40/1
f 133/48/1 144/43/1 134/46/1
f 30/49/1 51/45/1 31/42/1
f 133/48/1 145/50/1 144/43/1
f 30/49/1 52/51/1 51/45/1
f 7/52/1 22/47/1 8/44/1
f 132/53/1 145/50/1 133/48/1
f 7/52/1 23/54/1 22/47/1
f 29/55/1 52/51/1 30/49/1
f 131/56/1 145/50/1 132/53/1
f 131/56/1 146/57/1 145/50/1
f 6/58/1 23/54/1 7/52/1
f 6/58/1 24/59/1 23/54/1
f 130/60/1 146/57/1 131/56/1
f 29/55/1 28/61/1 52/51/1
f 28/61/1 27/62/1 52/51/1
f 129/63/1 146/57/1 130/60/1
f 5/64/1 24/59/1 6/58/1
f 129/63/1 147/65/1 146/57/1
f 5/64/1 25/66/1 24/59/1
f 128/67/1 147/65/1 129/63/1
f 127/68/1 147/65/1 128/67/1
f 4/69/1 25/66/1 5/64/1
f 4/69/1 164/70/1 25/66/1
f 164/70/1 26/71/1 25/66/1
f 264/72/1 147/65/1 127/68/1
f 264/72/1 148/73/1 147/65/1
f 3/74/1 164/70/1 4/69/1
f 3/74/1 163/75/1 164/70/1
f 165/76/1 26/71/1 164/70/1
f 264/72/1 149/77/1 148/73/1
f 1/78/1 165/76/1 26/71/1
f 2/79/1 163/75/1 3/74/1
f 2/79/1 162/80/1 163/75/1
f 2/79/1 161/81/1 162/80/1
f 264/72/1 150/82/1 149/77/1
f 161/81/1 1/78/1 2/79/1
f 160/83/1 1/78/1 161/81/1
f 159/84/1 1/78/1 160/83/1
f 158/85/1 1/78/1 159/84/1
f 264/72/1 151/86/1 150/82/1
f 157/87/1 1/78/1 158/85/1
f 157/87/1 165/76/1 1/78/1
f 156/88/1 165/76/1 157/87/1
f 155/89/1 165/76/1 156/88/1
f 154/90/1 165/76/1 155/89/1
f 264/72/1 152/91/1 151/86/1
f 251/92/1 253/93/1 252/94/1
f 153/95/1 165/76/1 154/90/1
f 152/91/1 165/76/1 153/95/1
f 264/72/1 165/76/1 152/91/1
f 251/92/1 254/96/1 253/93/1
f 251/92/1 255/97/1 254/96/1
f 251/92/1 256/98/1 255/97/1
f 263/99/1 165/76/1 264/72/1
f 251/92/1 257/100/1 256/98/1
f 262/101/1 165/76/1 263/99/1
f 251/92/1 258/102/1 257/100/1
f 261/103/1 165/76/1 262/101/1
f 251/92/1 259/104/1 258/102/1
f 260/105/1 165/76/1 261/103/1
f 251/92/1 260/105/1 259/104/1
f 251/92/1 165/76/1 260/105/1
f 251/92/1 166/106/1 165/76/1
f 251/92/1 167/107/1 166/106/1
f 251/92/1 168/108/1 167/107/1
f 251/92/1 169/109/1 168/108/1
f 251/92/1 170/110/1 169/109/1
f 251/92/1 171/111/1 170/110/1
f 251/92/1 172/112/1 171/111/1
f 251/92/1 173/113/1 172/112/1
f 251/92/1 174/114/1 173/113/1
f 251/92/1 175/115/1 174/114/1
f 251/92/1 176/116/1 175/115/1
f 251/92/1 177/117/1 176/116/1
f 251/92/1 178/118/1 177/117/1
f 250/119/1 178/118/1 251/92/1
f 250/119/1 239/120/1 178/118/1
f 239/120/1 179/121/1 178/118/1
f 249/122/1 239/120/1 250/119/1
f 249/122/1 240/123/1 239/120/1
f 238/124/1 179/121/1 239/120/1
f 249/122/1 241/125/1 240/123/1
f 248/126/1 241/125/1 249/122/1
f 248/126/1 242/127/1 241/125/1
f 247/128/1 242/127/1 248/126/1
f 247/128/1 243/129/1 242/127/1
f 246/130/1 243/129/1 247/128/1
f 246/130/1 244/131/1 243/129/1
f 245/132/1 244/131/1 246/130/1
f 237/133/1 179/121/1 238/124/1
f 237/133/1 180/134/1 179/121/1
f 237/133/1 181/135/1 180/134/1
f 236/136/1 181/135/1 237/133/1
f 236/136/1 182/137/1 181/135/1
f 235/138/1 182/137/1 236/136/1
f 235/138/1 183/139/1 182/137/1
f 234/140/1 183/139/1 235/138/1
f 234/140/1 184/141/1 183/139/1
f 233/142/1 184/141/1 234/140/1
f 233/142/1 185/143/1 184/141/1
f 232/144/1 185/143/1 233/142/1
f 232/144/1 186/145/1 185/143/1
f 231/146/1 186/145/1 232/144/1
f 231/146/1 187/147/1 186/145/1
f 231/146/1 188/148/1 187/147/1
f 230/149/1 188/148/1 231/146/1
f 230/149/1 189/150/1 188/148/1
f 229/151/1 189/150/1 230/149/1
f 229/151/1 190/152/1 189/150/1
f 229/151/1 191/153/1 190/152/1
f 229/151/1 192/154/1 191/153/1
f 228/155/1 226/156/1 229/151/1
f 226/156/1 192/154/1 229/151/1
f 214/157/1 216/158/1 215/159/1
f 214/157/1 217/160/1 216/158/1
f 226/156/1 193/161/1 192/154/1
f 214/157/1 218/162/1 217/160/1
f 112/163/1 114/164/1 113/165/1
f 214/157/1 219/166/1 218/162/1
f 214/157/1 220/167/1 219/166/1
f 226/156/1 194/168/1 193/161/1
f 214/157/1 221/169/1 220/167/1
f 214/157/1 222/170/1 221/169/1
f 214/157/1 223/171/1 222/170/1
f 214/157/1 224/172/1 223/171/1
f 226/156/1 195/173/1 194/168/1
f 214/157/1 225/174/1 224/172/1
f 228/155/1 226/156/1 227/175/1
f 214/157/1 226/156/1 225/174/1
f 214/157/1 195/173/1 226/156/1
f 214/157/1 196/176/1 195/173/1
f 214/157/1 197/177/1 196/176/1
f 214/157/1 198/178/1 197/177/1
f 111/179/1 114/164/1 112/163/1
f 111/179/1 115/180/1 114/164/1
f 214/157/1 199/181/1 198/178/1
f 214/157/1 200/182/1 199/181/1
f 214/157/1 201/183/1 200/182/1
f 110/184/1 115/180/1 111/179/1
f 214/157/1 213/185/1 201/183/1
f 213/185/1 212/186/1 201/183/1
f 212/186/1 211/187/1 201/183/1
f 211/187/1 210/188/1 201/183/1
f 210/188/1 209/189/1 201/183/1
f 209/189/1 208/190/1 201/183/1
f 208/190/1 207/191/1 201/183/1
f 207/191/1 206/192/1 201/183/1
f 206/192/1 205/193/1 201/183/1
f 205/193/1 204/194/1 201/183/1
f 204/194/1 203/195/1 201/183/1
f 203/195/1 202/196/1 201/183/1
f 110/184/1 116/197/1 115/180/1
f 109/198/1 116/197/1 110/184/1
f 109/198/1 117/199/1 116/197/1
f 108/200/1 117/199/1 109/198/1
f 108/200/1 118/201/1 117/199/1
f 107/202/1 118/201/1 108/200/1
f 107/202/1 119/203/1 118/201/1
f 107/202/1 120/204/1 119/203/1
f 106/205/1 120/204/1 107/202/1
f 106/205/1 121/206/1 120/204/1
f 105/207/1 121/206/1 106/205/1
f 105/207/1 122/208/1 121/206/1
f 104/209/1 122/208/1 105/207/1
f 104/209/1 123/210/1 122/208/1
f 103/211/1 123/210/1 104/209/1
f 103/211/1 124/212/1 123/210/1
f 103/211/1 125/213/1 124/212/1
f 102/214/1 125/213/1 103/211/1
f 102/214/1 126/215/1 125/213/1
f 101/216/1 126/215/1 102/214/1
f 101/216/1 53/217/1 126/215/1
f 100/218/1 53/217/1 101/216/1
f 100/218/1 54/219/1 53/217/1
f 100/218/1 55/220/1 54/219/1
f 99/221/1 55/220/1 100/218/1
f 99/221/1 56/222/1 55/220/1
f 99/221/1 57/223/1 56/222/1
f 98/224/1 57/223/1 99/221/1
f 98/224/1 58/225/1 57/223/1
f 98/224/1 59/226/1 58/225/1
f 75/227/1 77/228/1 76/229/1
f 97/230/1 59/226/1 98/224/1
f 97/230/1 60/231/1 59/226/1
f 74/232/1 77/228/1 75/227/1
f 73/233/1 77/228/1 74/232/1
f 97/230/1 61/234/1 60/231/1
f 72/235/1 77/228/1 73/233/1
f 71/236/1 77/228/1 72/235/1
f 97/230/1 62/237/1 61/234/1
f 70/238/1 77/228/1 71/236/1
f 69/239/1 77/228/1 70/238/1
f 68/240/1 77/228/1 69/239/1
f 97/230/1 63/241/1 62/237/1
f 67/242/1 77/228/1 68/240/1
f 66/243/1 77/228/1 67/242/1
f 97/230/1 64/244/1 63/241/1
f 65/245/1 77/228/1 66/243/1
f 97/230/1 65/245/1 64/244/1
f 97/230/1 77/228/1 65/245/1
f 96/246/1 77/228/1 97/230/1
f 95/247/1 77/228/1 96/246/1
f 94/248/1 77/228/1 95/247/1
f 93/249/1 77/228/1 94/248/1
f 92/250/1 77/228/1 93/249/1
f 92/250/1 78/251/1 77/228/1
f 92/250/1 79/252/1 78/251/1
f 92/250/1 80/253/1 79/252/1
f 91/254/1 80/253/1 92/250/1
f 91/254/1 81/255/1 80/253/1
f 91/254/1 82/256/1 81/255/1
f 91/254/1 83/257/1 82/256/1
f 90/258/1 83/257/1 91/254/1
f 90/258/1 84/259/1 83/257/1
f 90/258/1 85/260/1 84/259/1
f 90/258/1 86/261/1 85/260/1
f 89/262/1 86/261/1 90/258/1
f 89/262/1 87/263/1 86/261/1
f 89/262/1 88/264/1 87/263/1
f 303/1/2 304/3/2 305/2/2
f 303/1/2 305/2/2 306/4/2
f 303/1/2 306/4/2 307/5/2
f 302/6/2 303/1/2 307/5/2
f 302/6/2 307/5/2 308/7/2
f 277/8/2 278/10/2 279/9/2
f 301/11/2 302/6/2 308/7/2
f 301/11/2 308/7/2 309/12/2
f 277/8/2 279/9/2 280/13/2
f 300/14/2 301/11/2 309/12/2
f 300/14/2 309/12/2 310/15/2
f 277/8/2 280/13/2 281/16/2
f 276/17/2 277/8/2 281/16/2
f 299/18/2 300/14/2 310/15/2
f 403/19/2 404/21/2 405/20/2
f 299/18/2 310/15/2 311/22/2
f 276/17/2 281/16/2 282/23/2
f 298/24/2 299/18/2 311/22/2
f 402/25/2 403/19/2 405/20/2
f 298/24/2 311/22/2 312/26/2
f 276/17/2 282/23/2 283/27/2
f 275/28/2 276/17/2 283/27/2
f 402/25/2 405/20/2 406/29/2
f 297/30/2 298/24/2 312/26/2
f 297/30/2 312/26/2 313/31/2
f 274/32/2 275/28/2 283/27/2
f 274/32/2 283/27/2 284/33/2
f 401/34/2 402/25/2 406/29/2
f 401/34/2 406/29/2 407/35/2
f 296/36/2 297/30/2 313/31/2
f 400/37/2 401/34/2 407/35/2
f 273/38/2 274/32/2 284/33/2
f 296/36/2 313/31/2 314/39/2
f 273/38/2 284/33/2 285/40/2
f 399/41/2 400/37/2 407/35/2
f 295/42/2 296/36/2 314/39/2
f 399/41/2 407/35/2 408/43/2
f 272/44/2 273/38/2 285/40/2
f 295/42/2 314/39/2 315/45/2
f 398/46/2 399/41/2 408/43/2
f 272/44/2 285/40/2 286/47/2
f 397/48/2 398/46/2 408/43/2
f 294/49/2 295/42/2 315/45/2
f 397/48/2 408/43/2 409/50/2
f 294/49/2 315/45/2 316/51/2
f 271/52/2 272/44/2 286/47/2
f 396/53/2 397/48/2 409/50/2
f 271/52/2 286/47/2 287/54/2
f 293/55/2 294/49/2 316/51/2
f 395/56/2 396/53/2 409/50/2
f 395/56/2 409/50/2 410/57/2
f 270/58/2 271/52/2 287/54/2
f 270/58/2 287/54/2 288/59/2
f 394/60/2 395/56/2 410/57/2
f 293/55/2 316/51/2 292/61/2
f 292/61/2 316/51/2 291/62/2
f 393/63/2 394/60/2 410/57/2
f 269/64/2 270/58/2 288/59/2
f 393/63/2 410/57/2 411/65/2
f 269/64/2 288/59/2 289/66/2
f 392/67/2 393/63/2 411/65/2
f 391/68/2 392/67/2 411/65/2
f 268/69/2 269/64/2 289/66/2
f 268/69/2 289/66/2 428/70/2
f 428/70/2 289/66/2 290/71/2
f 528/72/2 391/68/2 411/65/2
f 528/72/2 411/65/2 412/73/2
f 267/74/2 268/69/2 428/70/2
f 267/74/2 428/70/2 427/75/2
f 429/76/2 428/70/2 290/71/2
f 528/72/2 412/73/2 413/77/2
f 265/78/2 290/71/2 429/76/2
f 266/79/2 267/74/2 427/75/2
f 266/79/2 427/75/2 426/80/2
f 266/79/2 426/80/2 425/81/2
f 528/72/2 413/77/2 414/82/2
f 425/81/2 266/79/2 265/78/2
f 424/83/2 425/81/2 265/78/2
f 423/84/2 424/83/2 265/78/2
f 422/85/2 423/84/2 265/78/2
f 528/72/2 414/82/2 415/86/2
f 421/87/2 422/85/2 265/78/2
f 421/87/2 265/78/2 429/76/2
f 420/88/2 421/87/2 429/76/2
f 419/89/2 420/88/2 429/76/2
f 418/90/2 419/89/2 429/76/2
f 528/72/2 415/86/2 416/91/2
f 515/92/2 516/94/2 517/93/2
f 417/95/2 418/90/2 429/76/2
f 416/91/2 417/95/2 429/76/2
f 528/72/2 416/91/2 429/76/2
f 515/92/2 517/93/2 518/96/2
f 515/92/2 518/96/2 519/97/2
f 515/92/2 519/97/2 520/98/2
f 527/99/2 528/72/2 429/76/2
f 515/92/2 520/98/2 521/100/2
f 526/101/2 527/99/2 429/76/2
f 515/92/2 521/100/2 522/102/2
f 525/103/2 526/101/2 429/76/2
f 515/92/2 522/102/2 523/104/2
f 524/105/2 525/103/2 429/76/2
f 515/92/2 523/104/2 524/105/2
f 515/92/2 524/105/2 429/76/2
f 515/92/2 429/76/2 430/106/2
f 515/92/2 430/106/2 431/107/2
f 515/92/2 431/107/2 432/108/2
f 515/92/2 432/108/2 433/109/2
f 515/92/2 433/109/2 434/110/2
f 515/92/2 434/110/2 435/111/2
f 515/92/2 435/111/2 436/112/2
f 515/92/2 436/112/2 437/113/2
f 515/92/2 437/113/2 438/114/2
f 515/92/2 438/114/2 439/115/2
f 515/92/2 439/115/2 440/116/2
f 515/92/2 440/116/2 441/117/2
f 515/92/2 441/117/2 442/118/2
f 514/119/2 515/92/2 442/118/2
f 514/119/2 442/118/2 503/120/2
f 503/120/2 442/118/2 443/121/2
f 513/122/2 514/119/2 503/120/2
f 513/122/2 503/120/2 504/123/2
f 502/124/2 503/120/2 443/121/2
f 513/122/2 504/123/2 505/125/2
f 512/126/2 513/122/2 505/125/2
f 512/126/2 505/125/2 506/127/2
f 511/128/2 512/126/2 506/127/2
f 511/128/2 506/127/2 507/129/2
f 510/130/2 511/128/2 507/129/2
f 510/130/2 507/129/2 508/131/2
f 509/132/2 510/130/2 508/131/2
f 501/133/2 502/124/2 443/121/2
f 501/133/2 443/121/2 444/134/2
f 501/133/2 444/134/2 445/135/2
f 500/136/2 501/133/2 445/135/2
f 500/136/2 445/135/2 446/137/2
f 499/138/2 500/136/2 446/137/2
f 499/138/2 446/137/2 447/139/2
f 498/140/2 499/138/2 447/139/2
f 498/140/2 447/139/2 448/141/2
f 497/142/2 498/140/2 448/141/2
f 497/142/2 448/141/2 449/143/2
f 496/144/2 497/142/2 449/143/2
f 496/144/2 449/143/2 450/145/2
f 495/146/2 496/144/2 450/145/2
f 495/146/2 450/145/2 451/147/2
f 495/146/2 451/147/2 452/148/2
f 494/149/2 495/146/2 452/148/2
f 494/149/2 452/148/2 453/150/2
f 493/151/2 494/149/2 453/150/2
f 493/151/2 453/150/2 454/152/2
f 493/151/2 454/152/2 455/153/2
f 493/151/2 455/153/2 456/154/2
f 492/155/2 493/151/2 490/156/2
f 490/156/2 493/151/2 456/154/2
f 478/157/2 479/159/2 480/158/2
f 478/157/2 480/158/2 481/160/2
f 490/156/2 456/154/2 457/161/2
f 478/157/2 481/160/2 482/162/2
f 376/163/2 377/165/2 378/164/2
f 478/157/2 482/162/2 483/166/2
f 478/157/2 483/166/2 484/167/2
f 490/156/2 457/161/2 458/168/2
f 478/157/2 484/167/2 485/169/2
f 478/157/2 485/169/2 486/170/2
f 478/157/2 486/170/2 487/171/2
f 478/157/2 487/171/2 488/172/2
f 490/156/2 458/168/2 459/173/2
f 478/157/2 488/172/2 489/174/2
f 492/155/2 491/175/2 490/156/2
f 478/157/2 489/174/2 490/156/2
f 478/157/2 490/156/2 459/173/2
f 478/157/2 459/173/2 460/176/2
f 478/157/2 460/176/2 461/177/2
f 478/157/2 461/177/2 462/178/2
f 375/179/2 376/163/2 378/164/2
f 375/179/2 378/164/2 379/180/2
f 478/157/2 462/178/2 463/181/2
f 478/157/2 463/181/2 464/182/2
f 478/157/2 464/182/2 465/183/2
f 374/184/2 375/179/2 379/180/2
f 478/157/2 465/183/2 477/185/2
f 477/185/2 465/183/2 476/186/2
f 476/186/2 465/183/2 475/187/2
f 475/187/2 465/183/2 474/188/2
f 474/188/2 465/183/2 473/189/2
f 473/189/2 465/183/2 472/190/2
f 472/190/2 465/183/2 471/191/2
f 471/191/2 465/183/2 470/192/2
f 470/192/2 465/183/2 469/193/2
f 469/193/2 465/183/2 468/194/2
f 468/194/2 465/183/2 467/195/2
f 467/195/2 465/183/2 466/196/2
f 374/184/2 379/180/2 380/197/2
f 373/198/2 374/184/2 380/197/2
f 373/198/2 380/197/2 381/199/2
f 372/200/2 373/198/2 381/199/2
f 372/200/2 381/199/2 382/201/2
f 371/202/2 372/200/2 382/201/2
f 371/202/2 382/201/2 383/203/2
f 371/202/2 383/203/2 384/204/2
f 370/205/2 371/202/2 384/204/2
f 370/205/2 384/204/2 385/206/2
f 369/207/2 370/205/2 385/206/2
f 369/207/2 385/206/2 386/208/2
f 368/209/2 369/207/2 386/208/2
f 368/209/2 386/208/2 387/210/2
f 367/211/2 368/209/2 387/210/2
f 367/211/2 387/210/2 388/212/2
f 367/211/2 388/212/2 389/213/2
f 366/214/2 367/211/2 389/213/2
f 366/214/2 389/213/2 390/215/2
f 365/216/2 366/214/2 390/215/2
f 365/216/2 390/215/2 317/217/2
f 364/218/2 365/216/2 317/217/2
f 364/218/2 317/217/2 318/219/2
f 364/218/2 318/219/2 319/220/2
f 363/221/2 364/218/2 319/220/2
f 363/221/2 319/220/2 320/222/2
f 363/221/2 320/222/2 321/223/2
f 362/224/2 363/221/2 321/223/2
f 362/224/2 321/223/2 322/225/2
f 362/224/2 322/225/2 323/226/2
f 339/227/2 340/229/2 341/228/2
f 361/230/2 362/224/2 323/226/2
f 361/230/2 323/226/2 324/231/2
f 338/232/2 339/227/2 341/228/2
f 337/233/2 338/232/2 341/228/2
f 361/230/2 324/231/2 325/234/2
f 336/235/2 337/233/2 341/228/2
f 335/236/2 336/235/2 341/228/2
f 361/230/2 325/234/2 326/237/2
f 334/238/2 335/236/2 341/228/2
f 333/239/2 334/238/2 341/228/2
f 332/240/2 333/239/2 341/228/2
f 361/230/2 326/237/2 327/241/2
f 331/242/2 332/240/2 341/228/2
f 330/243/2 331/242/2 341/228/2
f 361/230/2 327/241/2 328/244/2
f 329/245/2 330/243/2 341/228/2
f 361/230/2 328/244/2 329/245/2
f 361/230/2 329/245/2 341/228/2
f 360/246/2 361/230/2 341/228/2
f 359/247/2 360/246/2 341/228/2
f 358/248/2 359/247/2 341/228/2
f 357/249/2 358/248/2 341/228/2
f 356/250/2 357/249/2 341/228/2
f 356/250/2 341/228/2 342/251/2
f 356/250/2 342/251/2 343/252/2
f 356/250/2 343/252/2 344/253/2
f 355/254/2 356/250/2 344/253/2
f 355/254/2 344/253/2 345/255/2
f 355/254/2 345/255/2 346/256/2
f 355/254/2 346/256/2 347/257/2
f 354/258/2 355/254/2 347/257/2
f 354/258/2 347/257/2 348/259/2
f 354/258/2 348/259/2 349/260/2
f 354/258/2 349/260/2 350/261/2
f 353/262/2 354/258/2 350/261/2
f 353/262/2 350/261/2 351/263/2
f 353/262/2 351/263/2 352/264/2
s 1
f 532/265/3 529/78/4 530/266/5
f 534/267/6 531/268/3 532/265/3
f 536/269/7 533/270/6 534/267/6
f 538/271/8 535/272/7 536/269/7
f 540/273/9 537/274/8 538/271/8
f 542/275/10 539/276/9 540/273/9
f 544/277/11 541/278/10 542/275/10
f 546/279/12 543/280/11 544/277/11
f 548/281/13 545/282/14 546/279/12
f 550/283/15 547/284/13 548/281/13
f 552/285/16 549/286/15 550/283/15
f 554/287/17 551/288/16 552/285/16
f 556/289/18 553/290/17 554/287/17
f 558/291/19 555/292/18 556/289/18
f 560/293/20 557/294/19 558/291/19
f 562/295/21 559/296/20 560/293/20
f 564/297/22 561/298/21 562/295/21
f 566/299/23 563/300/22 564/297/22
f 568/301/24 565/302/23 566/299/23
f 570/303/25 567/304/24 568/301/24
f 572/305/26 569/306/27 570/303/25
f 574/307/28 571/308/26 572/305/26
f 576/309/29 573/310/28 574/307/28
f 578/311/30 575/312/29 576/309/29
f 580/313/31 577/314/30 578/311/30
f 530/315/5 579/316/31 580/313/31
f 584/265/32 581/78/33 582/266/34
f 586/267/35 583/268/32 584/265/32
f 588/269/36 585/270/35 586/267/35
f 590/271/37 587/272/36 588/269/36
f 592/273/38 589/274/37 590/271/37
f 594/275/39 591/276/38 592/273/38
f 596/277/40 593/278/39 594/275/39
f 598/279/41 595/280/40 596/277/40
f 600/281/42 597/282/41 598/279/41
f 602/283/43 599/284/42 600/281/42
f 604/285/44 601/286/43 602/283/43
f 606/287/45 603/288/44 604/285/44
f 608/289/46 605/290/45 606/287/45
f 610/291/47 607/292/48 608/289/46
f 612/293/49 609/294/50 610/291/47
f 614/295/51 611/296/49 612/293/49
f 616/297/52 613/298/51 614/295/51
f 618/299/53 615/300/52 616/297/52
f 620/301/54 617/302/53 618/299/53
f 622/303/55 619/304/54 620/301/54
f 624/305/56 621/306/55 622/303/55
f 626/307/57 623/308/56 624/305/56
f 628/309/58 625/310/57 626/307/57
f 630/311/59 627/312/58 628/309/58
f 632/313/60 629/314/59 630/311/59
f 582/315/34 631/316/61 632/313/60
f 636/317/62 633/78/63 634/266/63
f 638/318/64 635/319/62 636/317/62
f 640/320/65 637/321/64 638/318/64
f 642/322/66 639/323/65 640/320/65
f 644/324/67 641/325/66 642/322/66
f 646/326/68 643/327/67 644/324/67
f 648/328/69 645/329/68 646/326/68
f 650/330/70 647/331/69 648/328/69
f 652/332/71 649/333/70 650/330/70
f 654/334/72 651/335/71 652/332/71
f 656/336/73 653/337/72 654/334/72
f 658/338/74 655/339/73 656/336/73
f 660/340/75 657/341/74 658/338/74
f 662/342/76 659/343/75 660/340/75
f 664/344/77 661/345/76 662/342/76
f 666/346/78 663/347/77 664/344/77
f 668/348/79 665/349/78 666/346/78
f 670/350/80 667/351/79 668/348/79
f 672/352/81 669/353/80 670/350/80
f 674/354/82 671/355/81 672/352/81
f 676/356/83 673/357/82 674/354/82
f 678/358/84 675/359/83 676/356/83
f 680/360/85 677/361/84 678/358/84
f 682/362/86 679/363/85 680/360/85
f 684/364/87 681/365/88 682/362/86
f 686/366/89 683/367/87 684/364/87
f 688/368/90 685/369/89 686/366/89
f 690/370/91 687/371/90 688/368/90
f 692/372/92 689/373/91 690/370/91
f 694/374/93 691/375/92 692/372/92
f 696/376/94 693/377/93 694/374/93
f 698/378/95 695/379/94 696/376/94
f 700/380/96 697/381/95 698/378/95
f 702/382/97 699/383/96 700/380/96
f 704/384/98 701/385/97 702/382/97
f 706/386/99 703/387/98 704/384/98
f 708/289/100 705/388/99 706/386/99
f 710/389/101 707/292/100 708/289/100
f 712/390/102 709/391/101 710/389/101
f 714/392/103 711/393/102 712/390/102
f 716/394/104 713/395/103 714/392/103
f 718/396/105 715/397/104 716/394/104
f 720/398/106 717/399/105 718/396/105
f 722/400/107 719/401/106 720/398/106
f 724/402/108 721/403/107 722/400/107
f 726/404/109 723/405/108 724/402/108
f 728/406/110 725/407/109 726/404/109
f 730/408/111 727/409/110 728/406/110
f 732/410/112 729/411/111 730/408/111
f 734/412/113 731/413/112 732/410/112
f 736/414/114 733/415/113 734/412/113
f 738/416/115 735/417/114 736/414/114
f 740/418/116 737/419/115 738/416/115
f 742/420/117 739/421/116 740/418/116
f 744/422/118 741/423/117 742/420/117
f 746/424/119 743/425/118 744/422/118
f 748/426/120 745/427/119 746/424/119
f 750/428/121 747/429/120 748/426/120
f 752/430/122 749/431/121 750/428/121
f 754/432/123 751/433/122 752/430/122
f 756/434/124 753/435/123 754/432/123
f 758/436/125 755/437/126 756/434/124
f 760/438/127 757/439/125 758/436/125
f 762/440/128 759/441/127 760/438/127
f 764/442/129 761/443/128 762/440/128
f 766/444/130 763/445/129 764/442/129
f 768/446/131 765/447/130 766/444/130
f 770/448/132 767/449/131 768/446/131
f 772/450/133 769/451/134 770/448/132
f 774/452/135 771/453/133 772/450/133
f 776/454/136 773/455/135 774/452/135
f 778/456/137 775/457/136 776/454/136
f 780/458/138 777/459/137 778/456/137
f 634/315/63 779/460/138 780/458/138
f 784/461/139 781/78/140 782/266/140
f 786/462/141 783/463/139 784/461/139
f 788/464/142 785/465/143 786/462/141
f 790/466/144 787/467/142 788/464/142
f 792/468/145 789/469/144 790/466/144
f 794/470/146 791/471/145 792/468/145
f 796/472/147 793/473/146 794/470/146
f 798/474/148 795/475/149 796/472/147
f 800/476/150 797/477/148 798/474/148
f 802/478/151 799/479/150 800/476/150
f 804/480/152 801/481/151 802/478/151
f 806/482/153 803/483/152 804/480/152
f 808/484/154 805/485/155 806/482/153
f 810/486/156 807/487/154 808/484/154
f 812/488/157 809/489/156 810/486/156
f 814/490/158 811/491/157 812/488/157
f 816/492/159 813/493/158 814/490/158
f 818/494/160 815/495/159 816/492/159
f 820/496/161 817/497/160 818/494/160
f 822/498/162 819/499/161 820/496/161
f 824/500/163 821/501/162 822/498/162
f 826/502/164 823/503/163 824/500/163
f 828/504/165 825/505/164 826/502/164
f 830/506/166 827/507/165 828/504/165
f 832/508/167 829/509/166 830/506/166
f 834/510/168 831/511/167 832/508/167
f 836/512/169 833/513/168 834/510/168
f 838/514/170 835/515/169 836/512/169
f 840/516/171 837/517/170 838/514/170
f 842/518/172 839/519/171 840/516/171
f 844/520/173 841/521/172 842/518/172
f 846/522/174 843/523/173 844/520/173
f 848/524/175 845/525/174 846/522/174
f 850/526/176 847/527/175 848/524/175
f 852/528/177 849/529/176 850/526/176
f 854/530/178 851/531/177 852/528/177
f 856/532/179 853/533/178 854/530/178
f 858/534/180 855/535/179 856/532/179
f 860/536/181 857/537/180 858/534/180
f 862/538/182 859/539/181 860/536/181
f 864/540/183 861/541/182 862/538/182
f 866/542/184 863/543/183 864/540/183
f 868/544/185 865/545/184 866/542/184
f 870/546/186 867/547/185 868/544/185
f 872/548/187 869/549/186 870/546/186
f 874/550/188 871/551/187 872/548/187
f 876/552/189 873/553/188 874/550/188
f 878/554/190 875/555/189 876/552/189
f 880/556/191 877/557/190 878/554/190
f 882/558/192 879/559/191 880/556/191
f 884/560/193 881/561/192 882/558/192
f 886/562/194 883/563/193 884/560/193
f 888/564/195 885/565/194 886/562/194
f 890/566/196 887/567/195 888/564/195
f 892/568/197 889/569/196 890/566/196
f 894/570/198 891/571/197 892/568/197
f 896/572/199 893/573/198 894/570/198
f 898/574/200 895/575/199 896/572/199
f 900/576/201 897/577/200 898/574/200
f 902/578/202 899/579/201 900/576/201
f 904/580/203 901/581/202 902/578/202
f 906/582/204 903/583/203 904/580/203
f 908/584/205 905/585/204 906/582/204
f 910/586/206 907/587/205 908/584/205
f 912/588/207 909/589/208 910/586/206
f 914/590/209 911/591/207 912/588/207
f 916/592/210 913/593/209 914/590/209
f 918/594/211 915/595/210 916/592/210
f 920/289/212 917/596/211 918/594/211
f 922/597/213 919/292/212 920/289/212
f 924/598/214 921/599/213 922/597/213
f 926/600/215 923/601/214 924/598/214
f 928/602/216 925/603/215 926/600/215
f 930/604/217 927/605/216 928/602/216
f 932/606/218 929/607/219 930/604/217
f 934/608/220 931/609/218 932/606/218
f 936/610/221 933/611/220 934/608/220
f 938/612/222 935/613/221 936/610/221
f 940/614/223 937/615/222 938/612/222
f 942/616/224 939/617/223 940/614/223
f 944/618/225 941/619/224 942/616/224
f 946/620/226 943/621/225 944/618/225
f 948/622/227 945/623/226 946/620/226
f 950/624/228 947/625/227 948/622/227
f 952/626/229 949/627/228 950/624/228
f 954/628/230 951/629/229 952/626/229
f 956/630/231 953/631/230 954/628/230
f 958/632/232 955/633/231 956/630/231
f 960/634/233 957/635/232 958/632/232
f 962/636/234 959/637/233 960/634/233
f 964/638/235 961/639/234 962/636/234
f 966/640/235 963/641/235 964/638/235
f 968/642/236 965/643/235 966/640/235
f 970/644/237 967/645/236 968/642/236
f 972/646/238 969/647/237 970/644/237
f 974/648/239 971/649/238 972/646/238
f 976/650/240 973/651/239 974/648/239
f 978/652/241 975/653/240 976/650/240
f 980/654/242 977/655/241 978/652/241
f 982/656/243 979/657/244 980/654/242
f 984/658/245 981/659/246 982/656/243
f 986/660/247 983/661/248 984/658/245
f 988/662/249 985/663/247 986/660/247
f 990/664/250 987/665/249 988/662/249
f 992/666/251 989/667/250 990/664/250
f 994/668/252 991/669/251 992/666/251
f 996/670/253 993/671/252 994/668/252
f 998/672/254 995/673/253 996/670/253
f 1000/674/255 997/675/254 998/672/254
f 1002/676/256 999/677/255 1000/674/255
f 1004/678/257 1001/679/256 1002/676/256
f 1006/680/258 1003/681/257 1004/678/257
f 1008/682/259 1005/683/258 1006/680/258
f 1010/684/260 1007/685/259 1008/682/259
f 1012/686/261 1009/687/260 1010/684/260
f 1014/688/262 1011/689/261 1012/686/261
f 1016/690/263 1013/691/262 1014/688/262
f 1018/692/264 1015/693/263 1016/690/263
f 1020/694/265 1017/695/264 1018/692/264
f 1022/696/266 1019/697/265 1020/694/265
f 1024/698/267 1021/699/266 1022/696/266
f 1026/700/268 1023/701/267 1024/698/267
f 1028/702/269 1025/703/268 1026/700/268
f 1030/704/270 1027/705/269 1028/702/269
f 1032/706/271 1029/707/270 1030/704/270
f 1034/708/272 1031/709/271 1032/706/271
f 1036/710/273 1033/711/272 1034/708/272
f 1038/712/274 1035/713/273 1036/710/273
f 1040/714/275 1037/715/274 1038/712/274
f 1042/716/276 1039/717/275 1040/714/275
f 1044/718/277 1041/719/276 1042/716/276
f 1046/720/278 1043/721/277 1044/718/277
f 1048/722/279 1045/723/278 1046/720/278
f 1050/724/280 1047/725/279 1048/722/279
f 1052/726/281 1049/727/280 1050/724/280
f 1054/728/282 1051/729/281 1052/726/281
f 1056/730/283 1053/731/282 1054/728/282
f 782/315/140 1055/732/284 1056/730/283
f 532/265/3 531/268/3 529/78/4
f 534/267/6 533/270/6 531/268/3
f 536/269/7 535/272/7 533/270/6
f 538/271/8 537/274/8 535/272/7
f 540/273/9 539/276/9 537/274/8
f 542/275/10 541/278/10 539/276/9
f 544/277/11 543/280/11 541/278/10
f 546/279/12 545/282/14 543/280/11
f 548/281/13 547/284/13 545/282/14
f 550/283/15 549/286/15 547/284/13
f 552/285/16 551/288/16 549/286/15
f 554/287/17 553/290/17 551/288/16
f 556/289/18 555/292/18 553/290/17
f 558/291/19 557/294/19 555/292/18
f 560/293/20 559/296/20 557/294/19
f 562/295/21 561/298/21 559/296/20
f 564/297/22 563/300/22 561/298/21
f 566/299/23 565/302/23 563/300/22
f 568/301/24 567/304/24 565/302/23
f 570/303/25 569/306/27 567/304/24
f 572/305/26 571/308/26 569/306/27
f 574/307/28 573/310/28 571/308/26
f 576/309/29 575/312/29 573/310/28
f 578/311/30 577/314/30 575/312/29
f 580/313/31 579/316/31 577/314/30
f 530/315/5 529/72/4 579/316/31
f 584/265/32 583/268/32 581/78/33
f 586/267/35 585/270/35 583/268/32
f 588/269/36 587/272/36 585/270/35
f 590/271/37 589/274/37 587/272/36
f 592/273/38 591/276/38 589/274/37
f 594/275/39 593/278/39 591/276/38
f 596/277/40 595/280/40 593/278/39
f 598/279/41 597/282/41 595/280/40
f 600/281/42 599/284/42 597/282/41
f 602/283/43 601/286/43 599/284/42
f 604/285/44 603/288/44 601/286/43
f 606/287/45 605/290/45 603/288/44
f 608/289/46 607/292/48 605/290/45
f 610/291/47 609/294/50 607/292/48
f 612/293/49 611/296/49 609/294/50
f 614/295/51 613/298/51 611/296/49
f 616/297/52 615/300/52 613/298/51
f 618/299/53 617/302/53 615/300/52
f 620/301/54 619/304/54 617/302/53
f 622/303/55 621/306/55 619/304/54
f 624/305/56 623/308/56 621/306/55
f 626/307/57 625/310/57 623/308/56
f 628/309/58 627/312/58 625/310/57
f 630/311/59 629/314/59 627/312/58
f 632/313/60 631/316/61 629/314/59
f 582/315/34 581/72/33 631/316/61
f 636/317/62 635/319/62 633/78/63
f 638/318/64 637/321/64 635/319/62
f 640/320/65 639/323/65 637/321/64
f 642/322/66 641/325/66 639/323/65
f 644/324/67 643/327/67 641/325/66
f 646/326/68 645/329/68 643/327/67
f 648/328/69 647/331/69 645/329/68
f 650/330/70 649/333/70 647/331/69
f 652/332/71 651/335/71 649/333/70
f 654/334/72 653/337/72 651/335/71
f 656/336/73 655/339/73 653/337/72
f 658/338/74 657/341/74 655/339/73
f 660/340/75 659/343/75 657/341/74
f 662/342/76 661/345/76 659/343/75
f 664/344/77 663/347/77 661/345/76
f 666/346/78 665/349/78 663/347/77
f 668/348/79 667/351/79 665/349/78
f 670/350/80 669/353/80 667/351/79
f 672/352/81 671/355/81 669/353/80
f 674/354/82 673/357/82 671/355/81
f 676/356/83 675/359/83 673/357/82
f 678/358/84 677/361/84 675/359/83
f 680/360/85 679/363/85 677/361/84
f 682/362/86 681/365/88 679/363/85
f 684/364/87 683/367/87 681/365/88
f 686/366/89 685/369/89 683/367/87
f 688/368/90 687/371/90 685/369/89
f 690/370/91 689/373/91 687/371/90
f 692/372/92 691/375/92 689/373/91
f 694/374/93 693/377/93 691/375/92
f 696/376/94 695/379/94 693/377/93
f 698/378/95 697/381/95 695/379/94
f 700/380/96 699/383/96 697/381/95
f 702/382/97 701/385/97 699/383/96
f 704/384/98 703/387/98 701/385/97
f 706/386/99 705/388/99 703/387/98
f 708/289/100 707/292/100 705/388/99
f 710/389/101 709/391/101 707/292/100
f 712/390/102 711/393/102 709/391/101
f 714/392/103 713/395/103 711/393/102
f 716/394/104 715/397/104 713/395/103
f 718/396/105 717/399/105 715/397/104
f 720/398/106 719/401/106 717/399/105
f 722/400/107 721/403/107 719/401/106
f 724/402/108 723/405/108 721/403/107
f 726/404/109 725/407/109 723/405/108
f 728/406/110 727/409/110 725/407/109
f 730/408/111 729/411/111 727/409/110
f 732/410/112 731/413/112 729/411/111
f 734/412/113 733/415/113 731/413/112
f 736/414/114 735/417/114 733/415/113
f 738/416/115 737/419/115 735/417/114
f 740/418/116 739/421/116 737/419/115
f 742/420/117 741/423/117 739/421/116
f 744/422/118 743/425/118 741/423/117
f 746/424/119 745/427/119 743/425/118
f 748/426/120 747/429/120 745/427/119
f 750/428/121 749/431/121 747/429/120
f 752/430/122 751/433/122 749/431/121
f 754/432/123 753/435/123 751/433/122
f 756/434/124 755/437/126 753/435/123
f 758/436/125 757/439/125 755/437/126
f 760/438/127 759/441/127 757/439/125
f 762/440/128 761/443/128 759/441/127
f 764/442/129 763/445/129 761/443/128
f 766/444/130 765/447/130 763/445/129
f 768/446/131 767/449/131 765/447/130
f 770/448/132 769/451/134 767/449/131
f 772/450/133 771/453/133 769/451/134
f 774/452/135 773/455/135 771/453/133
f 776/454/136 775/457/136 773/455/135
f 778/456/137 777/459/137 775/457/136
f 780/458/138 779/460/138 777/459/137
f 634/315/63 633/72/63 779/460/138
f 784/461/139 783/463/139 781/78/140
f 786/462/141 785/465/143 783/463/139
f 788/464/142 787/467/142 785/465/143
f 790/466/144 789/469/144 787/467/142
f 792/468/145 791/471/145 789/469/144
f 794/470/146 793/473/146 791/471/145
f 796/472/147 795/475/149 793/473/146
f 798/474/148 797/477/148 795/475/149
f 800/476/150 799/479/150 797/477/148
f 802/478/151 801/481/151 799/479/150
f 804/480/152 803/483/152 801/481/151
f 806/482/153 805/485/155 803/483/152
f 808/484/154 807/487/154 805/485/155
f 810/486/156 809/489/156 807/487/154
f 812/488/157 811/491/157 809/489/156
f 814/490/158 813/493/158 811/491/157
f 816/492/159 815/495/159 813/493/158
f 818/494/160 817/497/160 815/495/159
f 820/496/161 819/499/161 817/497/160
f 822/498/162 821/501/162 819/499/161
f 824/500/163 823/503/163 821/501/162
f 826/502/164 825/505/164 823/503/163
f 828/504/165 827/507/165 825/505/164
f 830/506/166 829/509/166 827/507/165
f 832/508/167 831/511/167 829/509/166
f 834/510/168 833/513/168 831/511/167
f 836/512/169 835/515/169 833/513/168
f 838/514/170 837/517/170 835/515/169
f 840/516/171 839/519/171 837/517/170
f 842/518/172 841/521/172 839/519/171
f 844/520/173 843/523/173 841/521/172
f 846/522/174 845/525/174 843/523/173
f 848/524/175 847/527/175 845/525/174
f 850/526/176 849/529/176 847/527/175
f 852/528/177 851/531/177 849/529/176
f 854/530/178 853/533/178 851/531/177
f 856/532/179 855/535/179 853/533/178
f 858/534/180 857/537/180 855/535/179
f 860/536/181 859/539/181 857/537/180
f 862/538/182 861/541/182 859/539/181
f 864/540/183 863/543/183 861/541/182
f 866/542/184 865/545/184 863/543/183
f 868/544/185 867/547/185 865/545/184
f 870/546/186 869/549/186 867/547/185
f 872/548/187 871/551/187 869/549/186
f 874/550/188 873/553/188 871/551/187
f 876/552/189 875/555/189 873/553/188
f 878/554/190 877/557/190 875/555/189
f 880/556/191 879/559/191 877/557/190
f 882/558/192 881/561/192 879/559/191
f 884/560/193 883/563/193 881/561/192
f 886/562/194 885/565/194 883/563/193
f 888/564/195 887/567/195 885/565/194
f 890/566/196 889/569/196 887/567/195
f 892/568/197 891/571/197 889/569/196
f 894/570/198 893/573/198 891/571/197
f 896/572/199 895/575/199 893/573/198
f 898/574/200 897/577/200 895/575/199
f 900/576/201 899/579/201 897/577/200
f 902/578/202 901/581/202 899/579/201
f 904/580/203 903/583/203 901/581/202
f 906/582/204 905/585/204 903/583/203
f 908/584/205 907/587/205 905/585/204
f 910/586/206 909/589/208 907/587/205
f 912/588/207 911/591/207 909/589/208
f 914/590/209 913/593/209 911/591/207
f 916/592/210 915/595/210 913/593/209
f 918/594/211 917/596/211 915/595/210
f 920/289/212 919/292/212 917/596/211
f 922/597/213 921/599/213 919/292/212
f 924/598/214 923/601/214 921/599/213
f 926/600/215 925/603/215 923/601/214
f 928/602/216 927/605/216 925/603/215
f 930/604/217 929/607/219 927/605/216
f 932/606/218 931/609/218 929/607/219
f 934/608/220 933/611/220 931/609/218
f 936/610/221 935/613/221 933/611/220
f 938/612/222 937/615/222 935/613/221
f 940/614/223 939/617/223 937/615/222
f 942/616/224 941/619/224 939/617/223
f 944/618/225 943/621/225 941/619/224
f 946/620/226 945/623/226 943/621/225
f 948/622/227 947/625/227 945/623/226
f 950/624/228 949/627/228 947/625/227
f 952/626/229 951/629/229 949/627/228
f 954/628/230 953/631/230 951/629/229
f 956/630/231 955/633/231 953/631/230
f 958/632/232 957/635/232 955/633/231
f 960/634/233 959/637/233 957/635/232
f 962/636/234 961/639/234 959/637/233
f 964/638/235 963/641/235 961/639/234
f 966/640/235 965/643/235 963/641/235
f 968/642/236 967/645/236 965/643/235
f 970/644/237 969/647/237 967/645/236
f 972/646/238 971/649/238 969/647/237
f 974/648/239 973/651/239 971/649/238
f 976/650/240 975/653/240 973/651/239
f 978/652/241 977/655/241 975/653/240
f 980/654/242 979/657/244 977/655/241
f 982/656/243 981/659/246 979/657/244
f 984/658/245 983/661/248 981/659/246
f 986/660/247 985/663/247 983/661/248
f 988/662/249 987/665/249 985/663/247
f 990/664/250 989/667/250 987/665/249
f 992/666/251 991/669/251 989/667/250
f 994/668/252 993/671/252 991/669/251
f 996/670/253 995/673/253 993/671/252
f 998/672/254 997/675/254 995/673/253
f 1000/674/255 999/677/255 997/675/254
f 1002/676/256 1001/679/256 999/677/255
f 1004/678/257 1003/681/257 1001/679/256
f 1006/680/258 1005/683/258 1003/681/257
f 1008/682/259 1007/685/259 1005/683/258
f 1010/684/260 1009/687/260 1007/685/259
f 1012/686/261 1011/689/261 1009/687/260
f 1014/688/262 1013/691/262 1011/689/261
f 1016/690/263 1015/693/263 1013/691/262
f 1018/692/264 1017/695/264 1015/693/263
f 1020/694/265 1019/697/265 1017/695/264
f 1022/696/266 1021/699/266 1019/697/265
f 1024/698/267 1023/701/267 1021/699/266
f 1026/700/268 1025/703/268 1023/701/267
f 1028/702/269 1027/705/269 1025/703/268
f 1030/704/270 1029/707/270 1027/705/269
f 1032/706/271 1031/709/271 1029/707/270
f 1034/708/272 1033/711/272 1031/709/271
f 1036/710/273 1035/713/273 1033/711/272
f 1038/712/274 1037/715/274 1035/713/273
f 1040/714/275 1039/717/275 1037/715/274
f 1042/716/276 1041/719/276 1039/717/275
f 1044/718/277 1043/721/277 1041/719/276
f 1046/720/278 1045/723/278 1043/721/277
f 1048/722/279 1047/725/279 1045/723/278
f 1050/724/280 1049/727/280 1047/725/279
f 1052/726/281 1051/729/281 1049/727/280
f 1054/728/282 1053/731/282 1051/729/281
f 1056/730/283 1055/732/284 1053/731/282
f 782/315/140 781/72/140 1055/732/284
