# Blender 4.1.1
# www.blender.org
mtllib to.mtl
o Text.003
v -0.460692 0.503781 -0.020000
v -0.484904 0.517767 -0.020000
v -0.509217 0.531442 -0.020000
v -0.533400 0.544744 -0.020000
v -0.557221 0.557606 -0.020000
v -0.580448 0.569964 -0.020000
v -0.602848 0.581752 -0.020000
v -0.624188 0.592902 -0.020000
v -0.644232 0.603350 -0.020000
v -0.662744 0.613025 -0.020000
v -0.679483 0.621858 -0.020000
v -0.694094 0.629716 -0.020000
v -0.700997 0.633778 -0.020000
v -0.707734 0.637784 -0.020000
v -0.714179 0.641669 -0.020000
v -0.720358 0.645461 -0.020000
v -0.726301 0.649187 -0.020000
v -0.732035 0.652875 -0.020000
v -0.737589 0.656552 -0.020000
v -0.742992 0.660246 -0.020000
v -0.748275 0.663986 -0.020000
v -0.753468 0.667801 -0.020000
v -0.758602 0.671720 -0.020000
v -0.772582 0.682817 -0.020000
v -0.827841 0.593650 -0.020000
v -0.813312 0.584920 -0.020000
v -0.807340 0.581418 -0.020000
v -0.801280 0.577944 -0.020000
v -0.795124 0.574485 -0.020000
v -0.788865 0.571032 -0.020000
v -0.782498 0.567574 -0.020000
v -0.776013 0.564100 -0.020000
v -0.769406 0.560599 -0.020000
v -0.762667 0.557061 -0.020000
v -0.755791 0.553476 -0.020000
v -0.748769 0.549832 -0.020000
v -0.741569 0.546105 -0.020000
v -0.723128 0.536704 -0.020000
v -0.702177 0.526135 -0.020000
v -0.679102 0.514511 -0.020000
v -0.654278 0.501940 -0.020000
v -0.628084 0.488532 -0.020000
v -0.600901 0.474397 -0.020000
v -0.573111 0.459648 -0.020000
v -0.545098 0.444397 -0.020000
v -0.517247 0.428757 -0.020000
v -0.489944 0.412845 -0.020000
v -0.463577 0.396776 -0.020000
v -0.438498 0.380646 -0.020000
v -0.416295 0.365698 -0.020000
v -0.395806 0.350581 -0.020000
v -0.377027 0.335245 -0.020000
v -0.360023 0.319690 -0.020000
v -0.344856 0.303917 -0.020000
v -0.331583 0.287930 -0.020000
v -0.320253 0.271730 -0.020000
v -0.310908 0.255315 -0.020000
v -0.303581 0.238671 -0.020000
v -0.298301 0.221771 -0.020000
v -0.295099 0.204568 -0.020000
v -0.294025 0.187102 -0.020000
v -0.295540 0.168604 -0.020000
v -0.300015 0.151634 -0.020000
v -0.307440 0.136032 -0.020000
v -0.317890 0.121720 -0.020000
v -0.331492 0.108684 -0.020000
v -0.348376 0.096989 -0.020000
v -0.368629 0.086756 -0.020000
v -0.392290 0.078122 -0.020000
v -0.419370 0.071217 -0.020000
v -0.449859 0.066161 -0.020000
v -0.483744 0.063058 -0.020000
v -0.521090 0.062001 -0.020000
v -0.548504 0.062285 -0.020000
v -0.576749 0.063123 -0.020000
v -0.605457 0.064485 -0.020000
v -0.634350 0.066344 -0.020000
v -0.663147 0.068674 -0.020000
v -0.691570 0.071445 -0.020000
v -0.719340 0.074628 -0.020000
v -0.746177 0.078196 -0.020000
v -0.771799 0.082118 -0.020000
v -0.795921 0.086363 -0.020000
v -0.818254 0.090898 -0.020000
v -0.851000 0.098640 -0.020000
v -0.851000 -0.011504 -0.020000
v -0.822737 -0.016105 -0.020000
v -0.801273 -0.019269 -0.020000
v -0.778392 -0.022312 -0.020000
v -0.754192 -0.025197 -0.020000
v -0.728771 -0.027885 -0.020000
v -0.702230 -0.030339 -0.020000
v -0.674666 -0.032520 -0.020000
v -0.646179 -0.034390 -0.020000
v -0.616870 -0.035912 -0.020000
v -0.586837 -0.037047 -0.020000
v -0.556180 -0.037755 -0.020000
v -0.524910 -0.038001 -0.020000
v -0.478583 -0.036800 -0.020000
v -0.434542 -0.033093 -0.020000
v -0.393139 -0.026728 -0.020000
v -0.354644 -0.017538 -0.020000
v -0.319336 -0.005344 -0.020000
v -0.287510 0.010055 -0.020000
v -0.259500 0.028866 -0.020000
v -0.235699 0.051274 -0.020000
v -0.216551 0.077398 -0.020000
v -0.202494 0.107254 -0.020000
v -0.193883 0.140790 -0.020000
v -0.190979 0.177878 -0.020000
v -0.192404 0.204385 -0.020000
v -0.196606 0.229904 -0.020000
v -0.203495 0.254575 -0.020000
v -0.212965 0.278415 -0.020000
v -0.224898 0.301457 -0.020000
v -0.239179 0.323745 -0.020000
v -0.255695 0.345337 -0.020000
v -0.274337 0.366297 -0.020000
v -0.295007 0.386693 -0.020000
v -0.317609 0.406594 -0.020000
v -0.342053 0.426069 -0.020000
v -0.361003 0.439896 -0.020000
v -0.353556 0.453465 -0.020000
v -0.341605 0.476112 -0.020000
v -0.329471 0.499900 -0.020000
v -0.317200 0.524684 -0.020000
v -0.304840 0.550316 -0.020000
v -0.292436 0.576651 -0.020000
v -0.280037 0.603539 -0.020000
v -0.267690 0.630834 -0.020000
v -0.255444 0.658388 -0.020000
v -0.243345 0.686051 -0.020000
v -0.231444 0.713675 -0.020000
v -0.215862 0.750349 -0.020000
v -0.313748 0.791239 -0.020000
v -0.327549 0.754105 -0.020000
v -0.338061 0.726965 -0.020000
v -0.348878 0.700090 -0.020000
v -0.359945 0.673576 -0.020000
v -0.371206 0.647519 -0.020000
v -0.382605 0.622011 -0.020000
v -0.394085 0.597150 -0.020000
v -0.405591 0.573030 -0.020000
v -0.417066 0.549746 -0.020000
v -0.428453 0.527393 -0.020000
v -0.439695 0.506069 -0.020000
v -0.445797 0.494904 -0.020000
v -0.460692 0.503781 0.020000
v -0.484904 0.517767 0.020000
v -0.509217 0.531442 0.020000
v -0.533400 0.544744 0.020000
v -0.557221 0.557606 0.020000
v -0.580448 0.569964 0.020000
v -0.602848 0.581752 0.020000
v -0.624188 0.592902 0.020000
v -0.644232 0.603350 0.020000
v -0.662744 0.613025 0.020000
v -0.679483 0.621858 0.020000
v -0.694094 0.629716 0.020000
v -0.700997 0.633778 0.020000
v -0.707734 0.637784 0.020000
v -0.714179 0.641669 0.020000
v -0.720358 0.645461 0.020000
v -0.726301 0.649187 0.020000
v -0.732035 0.652875 0.020000
v -0.737589 0.656552 0.020000
v -0.742992 0.660246 0.020000
v -0.748275 0.663986 0.020000
v -0.753468 0.667801 0.020000
v -0.758602 0.671720 0.020000
v -0.772582 0.682817 0.020000
v -0.827841 0.593650 0.020000
v -0.813312 0.584920 0.020000
v -0.807340 0.581418 0.020000
v -0.801280 0.577944 0.020000
v -0.795124 0.574485 0.020000
v -0.788865 0.571032 0.020000
v -0.782498 0.567574 0.020000
v -0.776013 0.564100 0.020000
v -0.769406 0.560599 0.020000
v -0.762667 0.557061 0.020000
v -0.755791 0.553476 0.020000
v -0.748769 0.549832 0.020000
v -0.741569 0.546105 0.020000
v -0.723128 0.536704 0.020000
v -0.702177 0.526135 0.020000
v -0.679102 0.514511 0.020000
v -0.654278 0.501940 0.020000
v -0.628084 0.488532 0.020000
v -0.600901 0.474397 0.020000
v -0.573111 0.459648 0.020000
v -0.545098 0.444397 0.020000
v -0.517247 0.428757 0.020000
v -0.489944 0.412845 0.020000
v -0.463577 0.396776 0.020000
v -0.438498 0.380646 0.020000
v -0.416295 0.365698 0.020000
v -0.395806 0.350581 0.020000
v -0.377027 0.335245 0.020000
v -0.360023 0.319690 0.020000
v -0.344856 0.303917 0.020000
v -0.331583 0.287930 0.020000
v -0.320253 0.271730 0.020000
v -0.310908 0.255315 0.020000
v -0.303581 0.238671 0.020000
v -0.298301 0.221771 0.020000
v -0.295099 0.204568 0.020000
v -0.294025 0.187102 0.020000
v -0.295540 0.168604 0.020000
v -0.300015 0.151634 0.020000
v -0.307440 0.136032 0.020000
v -0.317890 0.121720 0.020000
v -0.331492 0.108684 0.020000
v -0.348376 0.096989 0.020000
v -0.368629 0.086756 0.020000
v -0.392290 0.078122 0.020000
v -0.419370 0.071217 0.020000
v -0.449859 0.066161 0.020000
v -0.483744 0.063058 0.020000
v -0.521090 0.062001 0.020000
v -0.548504 0.062285 0.020000
v -0.576749 0.063123 0.020000
v -0.605457 0.064485 0.020000
v -0.634350 0.066344 0.020000
v -0.663147 0.068674 0.020000
v -0.691570 0.071445 0.020000
v -0.719340 0.074628 0.020000
v -0.746177 0.078196 0.020000
v -0.771799 0.082118 0.020000
v -0.795921 0.086363 0.020000
v -0.818254 0.090898 0.020000
v -0.851000 0.098640 0.020000
v -0.851000 -0.011504 0.020000
v -0.822737 -0.016105 0.020000
v -0.801273 -0.019269 0.020000
v -0.778392 -0.022312 0.020000
v -0.754192 -0.025197 0.020000
v -0.728771 -0.027885 0.020000
v -0.702230 -0.030339 0.020000
v -0.674666 -0.032520 0.020000
v -0.646179 -0.034390 0.020000
v -0.616870 -0.035912 0.020000
v -0.586837 -0.037047 0.020000
v -0.556180 -0.037755 0.020000
v -0.524910 -0.038001 0.020000
v -0.478583 -0.036800 0.020000
v -0.434542 -0.033093 0.020000
v -0.393139 -0.026728 0.020000
v -0.354644 -0.017538 0.020000
v -0.319336 -0.005344 0.020000
v -0.287510 0.010055 0.020000
v -0.259500 0.028866 0.020000
v -0.235699 0.051274 0.020000
v -0.216551 0.077398 0.020000
v -0.202494 0.107254 0.020000
v -0.193883 0.140790 0.020000
v -0.190979 0.177878 0.020000
v -0.192404 0.204385 0.020000
v -0.196606 0.229904 0.020000
v -0.203495 0.254575 0.020000
v -0.212965 0.278415 0.020000
v -0.224898 0.301457 0.020000
v -0.239179 0.323745 0.020000
v -0.255695 0.345337 0.020000
v -0.274337 0.366297 0.020000
v -0.295007 0.386693 0.020000
v -0.317609 0.406594 0.020000
v -0.342053 0.426069 0.020000
v -0.361003 0.439896 0.020000
v -0.353556 0.453465 0.020000
v -0.341605 0.476112 0.020000
v -0.329471 0.499900 0.020000
v -0.317200 0.524684 0.020000
v -0.304840 0.550316 0.020000
v -0.292436 0.576651 0.020000
v -0.280037 0.603539 0.020000
v -0.267690 0.630834 0.020000
v -0.255444 0.658388 0.020000
v -0.243345 0.686051 0.020000
v -0.231444 0.713675 0.020000
v -0.215862 0.750349 0.020000
v -0.313748 0.791239 0.020000
v -0.327549 0.754105 0.020000
v -0.338061 0.726965 0.020000
v -0.348878 0.700090 0.020000
v -0.359945 0.673576 0.020000
v -0.371206 0.647519 0.020000
v -0.382605 0.622011 0.020000
v -0.394085 0.597150 0.020000
v -0.405591 0.573030 0.020000
v -0.417066 0.549746 0.020000
v -0.428453 0.527393 0.020000
v -0.439695 0.506069 0.020000
v -0.445797 0.494904 0.020000
v -0.460692 0.503781 0.020000
v -0.460692 0.503781 -0.020000
v -0.484904 0.517767 0.020000
v -0.484904 0.517767 -0.020000
v -0.509217 0.531442 0.020000
v -0.509217 0.531442 -0.020000
v -0.533400 0.544744 0.020000
v -0.533400 0.544744 -0.020000
v -0.557221 0.557606 0.020000
v -0.557221 0.557606 -0.020000
v -0.580448 0.569964 0.020000
v -0.580448 0.569964 -0.020000
v -0.602848 0.581752 0.020000
v -0.602848 0.581752 -0.020000
v -0.624188 0.592902 0.020000
v -0.624188 0.592902 -0.020000
v -0.644232 0.603350 0.020000
v -0.644232 0.603350 -0.020000
v -0.662744 0.613025 0.020000
v -0.662744 0.613025 -0.020000
v -0.679483 0.621858 0.020000
v -0.679483 0.621858 -0.020000
v -0.694094 0.629716 0.020000
v -0.694094 0.629716 -0.020000
v -0.700997 0.633778 0.020000
v -0.700997 0.633778 -0.020000
v -0.707734 0.637784 0.020000
v -0.707734 0.637784 -0.020000
v -0.714179 0.641669 0.020000
v -0.714179 0.641669 -0.020000
v -0.720358 0.645461 0.020000
v -0.720358 0.645461 -0.020000
v -0.726301 0.649187 0.020000
v -0.726301 0.649187 -0.020000
v -0.732035 0.652875 0.020000
v -0.732035 0.652875 -0.020000
v -0.737589 0.656552 0.020000
v -0.737589 0.656552 -0.020000
v -0.742992 0.660246 0.020000
v -0.742992 0.660246 -0.020000
v -0.748275 0.663986 0.020000
v -0.748275 0.663986 -0.020000
v -0.753468 0.667801 0.020000
v -0.753468 0.667801 -0.020000
v -0.758602 0.671720 0.020000
v -0.758602 0.671720 -0.020000
v -0.772582 0.682817 0.020000
v -0.772582 0.682817 -0.020000
v -0.827841 0.593650 0.020000
v -0.827841 0.593650 -0.020000
v -0.813312 0.584920 0.020000
v -0.813312 0.584920 -0.020000
v -0.807340 0.581418 0.020000
v -0.807340 0.581418 -0.020000
v -0.801280 0.577944 0.020000
v -0.801280 0.577944 -0.020000
v -0.795124 0.574485 0.020000
v -0.795124 0.574485 -0.020000
v -0.788865 0.571032 0.020000
v -0.788865 0.571032 -0.020000
v -0.782498 0.567574 0.020000
v -0.782498 0.567574 -0.020000
v -0.776013 0.564100 0.020000
v -0.776013 0.564100 -0.020000
v -0.769406 0.560599 0.020000
v -0.769406 0.560599 -0.020000
v -0.762667 0.557061 0.020000
v -0.762667 0.557061 -0.020000
v -0.755791 0.553476 0.020000
v -0.755791 0.553476 -0.020000
v -0.748769 0.549832 0.020000
v -0.748769 0.549832 -0.020000
v -0.741569 0.546105 0.020000
v -0.741569 0.546105 -0.020000
v -0.723128 0.536704 0.020000
v -0.723128 0.536704 -0.020000
v -0.702177 0.526135 0.020000
v -0.702177 0.526135 -0.020000
v -0.679102 0.514511 0.020000
v -0.679102 0.514511 -0.020000
v -0.654278 0.501940 0.020000
v -0.654278 0.501940 -0.020000
v -0.628084 0.488532 0.020000
v -0.628084 0.488532 -0.020000
v -0.600901 0.474397 0.020000
v -0.600901 0.474397 -0.020000
v -0.573111 0.459648 0.020000
v -0.573111 0.459648 -0.020000
v -0.545098 0.444397 0.020000
v -0.545098 0.444397 -0.020000
v -0.517247 0.428757 0.020000
v -0.517247 0.428757 -0.020000
v -0.489944 0.412845 0.020000
v -0.489944 0.412845 -0.020000
v -0.463577 0.396776 0.020000
v -0.463577 0.396776 -0.020000
v -0.438498 0.380646 0.020000
v -0.438498 0.380646 -0.020000
v -0.416295 0.365698 0.020000
v -0.416295 0.365698 -0.020000
v -0.395806 0.350581 0.020000
v -0.395806 0.350581 -0.020000
v -0.377027 0.335245 0.020000
v -0.377027 0.335245 -0.020000
v -0.360023 0.319690 0.020000
v -0.360023 0.319690 -0.020000
v -0.344856 0.303917 0.020000
v -0.344856 0.303917 -0.020000
v -0.331583 0.287930 0.020000
v -0.331583 0.287930 -0.020000
v -0.320253 0.271730 0.020000
v -0.320253 0.271730 -0.020000
v -0.310908 0.255315 0.020000
v -0.310908 0.255315 -0.020000
v -0.303581 0.238671 0.020000
v -0.303581 0.238671 -0.020000
v -0.298301 0.221771 0.020000
v -0.298301 0.221771 -0.020000
v -0.295099 0.204568 0.020000
v -0.295099 0.204568 -0.020000
v -0.294025 0.187102 0.020000
v -0.294025 0.187102 -0.020000
v -0.295540 0.168604 0.020000
v -0.295540 0.168604 -0.020000
v -0.300015 0.151634 0.020000
v -0.300015 0.151634 -0.020000
v -0.307440 0.136032 0.020000
v -0.307440 0.136032 -0.020000
v -0.317890 0.121720 0.020000
v -0.317890 0.121720 -0.020000
v -0.331492 0.108684 0.020000
v -0.331492 0.108684 -0.020000
v -0.348376 0.096989 0.020000
v -0.348376 0.096989 -0.020000
v -0.368629 0.086756 0.020000
v -0.368629 0.086756 -0.020000
v -0.392290 0.078122 0.020000
v -0.392290 0.078122 -0.020000
v -0.419370 0.071217 0.020000
v -0.419370 0.071217 -0.020000
v -0.449859 0.066161 0.020000
v -0.449859 0.066161 -0.020000
v -0.483744 0.063058 0.020000
v -0.483744 0.063058 -0.020000
v -0.521090 0.062001 0.020000
v -0.521090 0.062001 -0.020000
v -0.548504 0.062285 0.020000
v -0.548504 0.062285 -0.020000
v -0.576749 0.063123 0.020000
v -0.576749 0.063123 -0.020000
v -0.605457 0.064485 0.020000
v -0.605457 0.064485 -0.020000
v -0.634350 0.066344 0.020000
v -0.634350 0.066344 -0.020000
v -0.663147 0.068674 0.020000
v -0.663147 0.068674 -0.020000
v -0.691570 0.071445 0.020000
v -0.691570 0.071445 -0.020000
v -0.719340 0.074628 0.020000
v -0.719340 0.074628 -0.020000
v -0.746177 0.078196 0.020000
v -0.746177 0.078196 -0.020000
v -0.771799 0.082118 0.020000
v -0.771799 0.082118 -0.020000
v -0.795921 0.086363 0.020000
v -0.795921 0.086363 -0.020000
v -0.818254 0.090898 0.020000
v -0.818254 0.090898 -0.020000
v -0.851000 0.098640 0.020000
v -0.851000 0.098640 -0.020000
v -0.851000 -0.011504 0.020000
v -0.851000 -0.011504 -0.020000
v -0.822737 -0.016105 0.020000
v -0.822737 -0.016105 -0.020000
v -0.801273 -0.019269 0.020000
v -0.801273 -0.019269 -0.020000
v -0.778392 -0.022312 0.020000
v -0.778392 -0.022312 -0.020000
v -0.754192 -0.025197 0.020000
v -0.754192 -0.025197 -0.020000
v -0.728771 -0.027885 0.020000
v -0.728771 -0.027885 -0.020000
v -0.702230 -0.030339 0.020000
v -0.702230 -0.030339 -0.020000
v -0.674666 -0.032520 0.020000
v -0.674666 -0.032520 -0.020000
v -0.646179 -0.034390 0.020000
v -0.646179 -0.034390 -0.020000
v -0.616870 -0.035912 0.020000
v -0.616870 -0.035912 -0.020000
v -0.586837 -0.037047 0.020000
v -0.586837 -0.037047 -0.020000
v -0.556180 -0.037755 0.020000
v -0.556180 -0.037755 -0.020000
v -0.524910 -0.038001 0.020000
v -0.524910 -0.038001 -0.020000
v -0.478583 -0.036800 0.020000
v -0.478583 -0.036800 -0.020000
v -0.434542 -0.033093 0.020000
v -0.434542 -0.033093 -0.020000
v -0.393139 -0.026728 0.020000
v -0.393139 -0.026728 -0.020000
v -0.354644 -0.017538 0.020000
v -0.354644 -0.017538 -0.020000
v -0.319336 -0.005344 0.020000
v -0.319336 -0.005344 -0.020000
v -0.287510 0.010055 0.020000
v -0.287510 0.010055 -0.020000
v -0.259500 0.028866 0.020000
v -0.259500 0.028866 -0.020000
v -0.235699 0.051274 0.020000
v -0.235699 0.051274 -0.020000
v -0.216551 0.077398 0.020000
v -0.216551 0.077398 -0.020000
v -0.202494 0.107254 0.020000
v -0.202494 0.107254 -0.020000
v -0.193883 0.140790 0.020000
v -0.193883 0.140790 -0.020000
v -0.190979 0.177878 0.020000
v -0.190979 0.177878 -0.020000
v -0.192404 0.204385 0.020000
v -0.192404 0.204385 -0.020000
v -0.196606 0.229904 0.020000
v -0.196606 0.229904 -0.020000
v -0.203495 0.254575 0.020000
v -0.203495 0.254575 -0.020000
v -0.212965 0.278415 0.020000
v -0.212965 0.278415 -0.020000
v -0.224898 0.301457 0.020000
v -0.224898 0.301457 -0.020000
v -0.239179 0.323745 0.020000
v -0.239179 0.323745 -0.020000
v -0.255695 0.345337 0.020000
v -0.255695 0.345337 -0.020000
v -0.274337 0.366297 0.020000
v -0.274337 0.366297 -0.020000
v -0.295007 0.386693 0.020000
v -0.295007 0.386693 -0.020000
v -0.317609 0.406594 0.020000
v -0.317609 0.406594 -0.020000
v -0.342053 0.426069 0.020000
v -0.342053 0.426069 -0.020000
v -0.361003 0.439896 0.020000
v -0.361003 0.439896 -0.020000
v -0.353556 0.453465 0.020000
v -0.353556 0.453465 -0.020000
v -0.341605 0.476112 0.020000
v -0.341605 0.476112 -0.020000
v -0.329471 0.499900 0.020000
v -0.329471 0.499900 -0.020000
v -0.317200 0.524684 0.020000
v -0.317200 0.524684 -0.020000
v -0.304840 0.550316 0.020000
v -0.304840 0.550316 -0.020000
v -0.292436 0.576651 0.020000
v -0.292436 0.576651 -0.020000
v -0.280037 0.603539 0.020000
v -0.280037 0.603539 -0.020000
v -0.267690 0.630834 0.020000
v -0.267690 0.630834 -0.020000
v -0.255444 0.658388 0.020000
v -0.255444 0.658388 -0.020000
v -0.243345 0.686051 0.020000
v -0.243345 0.686051 -0.020000
v -0.231444 0.713675 0.020000
v -0.231444 0.713675 -0.020000
v -0.215862 0.750349 0.020000
v -0.215862 0.750349 -0.020000
v -0.313748 0.791239 0.020000
v -0.313748 0.791239 -0.020000
v -0.327549 0.754105 0.020000
v -0.327549 0.754105 -0.020000
v -0.338061 0.726965 0.020000
v -0.338061 0.726965 -0.020000
v -0.348878 0.700090 0.020000
v -0.348878 0.700090 -0.020000
v -0.359945 0.673576 0.020000
v -0.359945 0.673576 -0.020000
v -0.371206 0.647519 0.020000
v -0.371206 0.647519 -0.020000
v -0.382605 0.622011 0.020000
v -0.382605 0.622011 -0.020000
v -0.394085 0.597150 0.020000
v -0.394085 0.597150 -0.020000
v -0.405591 0.573030 0.020000
v -0.405591 0.573030 -0.020000
v -0.417066 0.549746 0.020000
v -0.417066 0.549746 -0.020000
v -0.428453 0.527393 0.020000
v -0.428453 0.527393 -0.020000
v -0.439695 0.506069 0.020000
v -0.439695 0.506069 -0.020000
v -0.445797 0.494904 0.020000
v -0.445797 0.494904 -0.020000
vn -0.0000 -0.0000 -1.0000
vn -0.0000 -0.0000 1.0000
vn 0.4952 0.8688 -0.0000
vn 0.5061 0.8625 -0.0000
vn 0.4861 0.8739 -0.0000
vn 0.4785 0.8781 -0.0000
vn 0.4724 0.8814 -0.0000
vn 0.4677 0.8839 -0.0000
vn 0.4644 0.8856 -0.0000
vn 0.4627 0.8865 -0.0000
vn 0.4650 0.8853 -0.0000
vn 0.4702 0.8826 -0.0000
vn 0.4905 0.8714 -0.0000
vn 0.5091 0.8607 -0.0000
vn 0.5137 0.8580 -0.0000
vn 0.5196 0.8544 -0.0000
vn 0.5271 0.8498 -0.0000
vn 0.5197 0.8544 -0.0000
vn 0.5361 0.8442 -0.0000
vn 0.5465 0.8375 -0.0000
vn 0.5582 0.8297 -0.0000
vn 0.5711 0.8209 -0.0000
vn 0.5849 0.8111 -0.0000
vn 0.5994 0.8004 -0.0000
vn 0.6143 0.7891 -0.0000
vn -0.1717 0.9852 -0.0000
vn -0.9719 -0.2353 -0.0000
vn -0.1716 0.9852 -0.0000
vn -0.5104 -0.8599 -0.0000
vn -0.9719 -0.2352 -0.0000
vn -0.5016 -0.8651 -0.0000
vn -0.5105 -0.8599 -0.0000
vn -0.4936 -0.8697 -0.0000
vn -0.4865 -0.8737 -0.0000
vn -0.4802 -0.8772 -0.0000
vn -0.4864 -0.8737 -0.0000
vn -0.4748 -0.8801 -0.0000
vn -0.4702 -0.8826 -0.0000
vn -0.4665 -0.8845 -0.0000
vn -0.4636 -0.8860 -0.0000
vn -0.4615 -0.8871 -0.0000
vn -0.4602 -0.8878 -0.0000
vn -0.4569 -0.8895 -0.0000
vn -0.4523 -0.8919 -0.0000
vn -0.4501 -0.8930 -0.0000
vn -0.4508 -0.8926 -0.0000
vn -0.4537 -0.8911 -0.0000
vn -0.4585 -0.8887 -0.0000
vn -0.4651 -0.8853 -0.0000
vn -0.4735 -0.8808 -0.0000
vn -0.4839 -0.8751 -0.0000
vn -0.4966 -0.8680 -0.0000
vn -0.5120 -0.8590 -0.0000
vn -0.5307 -0.8476 -0.0000
vn -0.5497 -0.8353 -0.0000
vn -0.5762 -0.8173 -0.0000
vn -0.6133 -0.7898 -0.0000
vn -0.6540 -0.7565 -0.0000
vn -0.6982 -0.7159 -0.0000
vn -0.7456 -0.6664 -0.0000
vn -0.7951 -0.6065 -0.0000
vn -0.8452 -0.5345 -0.0000
vn -0.8933 -0.4494 -0.0000
vn -0.9363 -0.3511 -0.0000
vn -0.9705 -0.2410 -0.0000
vn -0.9925 -0.1224 -0.0000
vn -0.9999 0.0102 -0.0000
vn -0.9856 0.1689 -0.0000
vn -0.9390 0.3438 -0.0000
vn -0.8590 0.5119 -0.0000
vn -0.7527 0.6584 -0.0000
vn -0.6326 0.7744 -0.0000
vn -0.5114 0.8593 -0.0000
vn -0.3976 0.9176 -0.0000
vn -0.2953 0.9554 -0.0000
vn -0.2055 0.9787 -0.0000
vn -0.1275 0.9918 -0.0000
vn -0.0598 0.9982 -0.0000
vn -0.0090 1.0000 -0.0000
vn 0.0200 0.9998 -0.0000
vn 0.0385 0.9993 -0.0000
vn 0.0558 0.9984 -0.0000
vn 0.0724 0.9974 -0.0000
vn 0.0888 0.9960 -0.0000
vn 0.1055 0.9944 -0.0000
vn 0.1228 0.9924 -0.0000
vn 0.1416 0.9899 -0.0000
vn 0.1623 0.9867 -0.0000
vn 0.1862 0.9825 -0.0000
vn 0.2146 0.9767 -0.0000
vn -0.6204 0.7843 -0.0000
vn -0.7618 -0.6478 -0.0000
vn -0.1533 -0.9882 -0.0000
vn -0.1388 -0.9903 -0.0000
vn -0.1251 -0.9921 -0.0000
vn -0.1118 -0.9937 -0.0000
vn -0.0986 -0.9951 -0.0000
vn -0.0855 -0.9963 -0.0000
vn -0.0722 -0.9974 -0.0000
vn -0.0587 -0.9983 -0.0000
vn -0.0448 -0.9990 -0.0000
vn -0.0304 -0.9995 -0.0000
vn -0.0155 -0.9999 -0.0000
vn 0.0090 -1.0000 -0.0000
vn 0.0549 -0.9985 -0.0000
vn 0.1180 -0.9930 -0.0000
vn 0.1922 -0.9813 -0.0000
vn 0.2797 -0.9601 -0.0000
vn 0.3817 -0.9243 -0.0000
vn 0.4978 -0.8673 -0.0000
vn 0.6236 -0.7818 -0.0000
vn 0.7492 -0.6624 -0.0000
vn 0.6236 -0.7817 -0.0000
vn 0.8596 -0.5109 -0.0000
vn 0.9408 -0.3389 -0.0000
vn 0.9865 -0.1640 -0.0000
vn 0.9408 -0.3388 -0.0000
vn 0.9999 -0.0122 -0.0000
vn 0.9941 0.1082 -0.0000
vn 0.9764 0.2160 -0.0000
vn 0.9476 0.3195 -0.0000
vn 0.9098 0.4150 -0.0000
vn 0.8659 0.5002 -0.0000
vn 0.8188 0.5740 -0.0000
vn 0.7713 0.6365 -0.0000
vn 0.7252 0.6886 -0.0000
vn 0.6819 0.7315 -0.0000
vn 0.6422 0.7666 -0.0000
vn 0.6064 0.7952 -0.0000
vn 0.9761 0.2175 -0.0000
vn 0.8806 -0.4739 -0.0000
vn 0.8876 -0.4606 -0.0000
vn 0.8935 -0.4491 -0.0000
vn 0.8985 -0.4390 -0.0000
vn 0.9027 -0.4302 -0.0000
vn 0.9064 -0.4224 -0.0000
vn 0.9096 -0.4154 -0.0000
vn 0.9125 -0.4092 -0.0000
vn 0.9150 -0.4034 -0.0000
vn 0.9173 -0.3982 -0.0000
vn 0.9194 -0.3934 -0.0000
vn 0.9262 0.3771 -0.0000
vn -0.3983 0.9173 -0.0000
vn -0.9350 0.3548 -0.0000
vn -0.9301 0.3673 -0.0000
vn -0.9253 0.3793 -0.0000
vn -0.9204 0.3910 -0.0000
vn -0.9155 0.4024 -0.0000
vn -0.9104 0.4136 -0.0000
vn -0.9052 0.4249 -0.0000
vn -0.8998 0.4363 -0.0000
vn -0.8940 0.4480 -0.0000
vn -0.8878 0.4602 -0.0000
vn -0.8811 0.4730 -0.0000
vn -0.2634 0.9647 -0.0000
vn -0.2635 0.9647 -0.0000
vt 0.414108 0.964679
vt 0.413378 0.964679
vt 0.413743 0.964679
vt 0.413012 0.964679
vt 0.414473 0.964679
vt 0.412647 0.964679
vt 0.414838 0.964679
vt 0.412282 0.964679
vt 0.415204 0.964679
vt 0.454645 0.964679
vt 0.453914 0.964679
vt 0.454279 0.964679
vt 0.411917 0.964679
vt 0.455010 0.964679
vt 0.455375 0.964679
vt 0.455740 0.964679
vt 0.456105 0.964679
vt 0.415569 0.964679
vt 0.456471 0.964679
vt 0.456836 0.964679
vt 0.457201 0.964679
vt 0.411552 0.964679
vt 0.457566 0.964679
vt 0.457931 0.964679
vt 0.458297 0.964679
vt 0.458662 0.964679
vt 0.415934 0.964679
vt 0.459027 0.964679
vt 0.411186 0.964679
vt 0.459392 0.964679
vt 0.459757 0.964679
vt 0.416299 0.964679
vt 0.460122 0.964679
vt 0.410821 0.964679
vt 0.453549 0.964679
vt 0.460488 0.964679
vt 0.453184 0.964679
vt 0.460853 0.964679
vt 0.452819 0.964679
vt 0.452453 0.964679
vt 0.416664 0.964679
vt 0.452088 0.964679
vt 0.410456 0.964679
vt 0.451723 0.964679
vt 0.461218 0.964679
vt 0.451358 0.964679
vt 0.450993 0.964679
vt 0.450627 0.964679
vt 0.461583 0.964679
vt 0.450262 0.964679
vt 0.449897 0.964679
vt 0.417030 0.964679
vt 0.449532 0.964679
vt 0.410091 0.964679
vt 0.449167 0.964679
vt 0.461948 0.964679
vt 0.448801 0.964679
vt 0.462314 0.964679
vt 0.409726 0.964679
vt 0.448436 0.964679
vt 0.417395 0.964679
vt 0.462679 0.964679
vt 0.448071 0.964679
vt 0.409360 0.964679
vt 0.447706 0.964679
vt 0.417760 0.964679
vt 0.447341 0.964679
vt 0.418125 0.964679
vt 0.446975 0.964679
vt 0.446610 0.964679
vt 0.418490 0.964679
vt 0.446245 0.964679
vt 0.418855 0.964679
vt 0.445880 0.964679
vt 0.419221 0.964679
vt 0.445515 0.964679
vt 0.419586 0.964679
vt 0.445150 0.964679
vt 0.419951 0.964679
vt 0.444784 0.964679
vt 0.420316 0.964679
vt 0.444419 0.964679
vt 0.444054 0.964679
vt 0.420681 0.964679
vt 0.443689 0.964679
vt 0.421047 0.964679
vt 0.443324 0.964679
vt 0.442958 0.964679
vt 0.421412 0.964679
vt 0.442593 0.964679
vt 0.421777 0.964679
vt 0.442228 0.964679
vt 0.441863 0.964679
vt 0.422142 0.964679
vt 0.441498 0.964679
vt 0.422507 0.964679
vt 0.441132 0.964679
vt 0.440767 0.964679
vt 0.422873 0.964679
vt 0.440402 0.964679
vt 0.423238 0.964679
vt 0.440037 0.964679
vt 0.439672 0.964679
vt 0.423603 0.964679
vt 0.439306 0.964679
vt 0.438941 0.964679
vt 0.438576 0.964679
vt 0.423968 0.964679
vt 0.432368 0.964679
vt 0.431637 0.964679
vt 0.432002 0.964679
vt 0.438211 0.964679
vt 0.432733 0.964679
vt 0.437846 0.964679
vt 0.433098 0.964679
vt 0.433463 0.964679
vt 0.433828 0.964679
vt 0.437480 0.964679
vt 0.424333 0.964679
vt 0.434194 0.964679
vt 0.434559 0.964679
vt 0.437115 0.964679
vt 0.434924 0.964679
vt 0.435289 0.964679
vt 0.436750 0.964679
vt 0.435654 0.964679
vt 0.436020 0.964679
vt 0.436385 0.964679
vt 0.424699 0.964679
vt 0.425064 0.964679
vt 0.425429 0.964679
vt 0.425794 0.964679
vt 0.431272 0.964679
vt 0.430907 0.964679
vt 0.426159 0.964679
vt 0.430542 0.964679
vt 0.430177 0.964679
vt 0.429811 0.964679
vt 0.426525 0.964679
vt 0.429446 0.964679
vt 0.429081 0.964679
vt 0.428716 0.964679
vt 0.426890 0.964679
vt 0.428351 0.964679
vt 0.427985 0.964679
vt 0.427255 0.964679
vt 0.427620 0.964679
vt 0.462316 0.911360
vt 0.462679 0.911360
vt 0.461953 0.911360
vt 0.462316 0.964679
vt 0.461591 0.911360
vt 0.461953 0.964679
vt 0.461228 0.911360
vt 0.461591 0.964679
vt 0.460865 0.911360
vt 0.461228 0.964679
vt 0.460503 0.911360
vt 0.460865 0.964679
vt 0.460140 0.911360
vt 0.460503 0.964679
vt 0.459777 0.911360
vt 0.460140 0.964679
vt 0.459414 0.911360
vt 0.459777 0.964679
vt 0.459052 0.911360
vt 0.459414 0.964679
vt 0.458689 0.911360
vt 0.459052 0.964679
vt 0.458326 0.911360
vt 0.458689 0.964679
vt 0.457964 0.911360
vt 0.458326 0.964679
vt 0.457601 0.911360
vt 0.457964 0.964679
vt 0.457238 0.911360
vt 0.457601 0.964679
vt 0.456876 0.911360
vt 0.457238 0.964679
vt 0.456513 0.911360
vt 0.456876 0.964679
vt 0.456150 0.911360
vt 0.456513 0.964679
vt 0.455787 0.911360
vt 0.456150 0.964679
vt 0.455425 0.911360
vt 0.455787 0.964679
vt 0.455062 0.911360
vt 0.455425 0.964679
vt 0.454699 0.911360
vt 0.455062 0.964679
vt 0.454337 0.911360
vt 0.454699 0.964679
vt 0.453974 0.911360
vt 0.454337 0.964679
vt 0.453611 0.911360
vt 0.453974 0.964679
vt 0.453248 0.911360
vt 0.453611 0.964679
vt 0.452886 0.911360
vt 0.453248 0.964679
vt 0.452523 0.911360
vt 0.452886 0.964679
vt 0.452160 0.911360
vt 0.452523 0.964679
vt 0.451798 0.911360
vt 0.452160 0.964679
vt 0.451435 0.911360
vt 0.451798 0.964679
vt 0.451072 0.911360
vt 0.451435 0.964679
vt 0.450709 0.911360
vt 0.451072 0.964679
vt 0.450347 0.911360
vt 0.450709 0.964679
vt 0.449984 0.911360
vt 0.450347 0.964679
vt 0.449621 0.911360
vt 0.449984 0.964679
vt 0.449259 0.911360
vt 0.449621 0.964679
vt 0.448896 0.911360
vt 0.449259 0.964679
vt 0.448533 0.911360
vt 0.448896 0.964679
vt 0.448170 0.911360
vt 0.448533 0.964679
vt 0.447808 0.911360
vt 0.448170 0.964679
vt 0.447445 0.911360
vt 0.447808 0.964679
vt 0.447082 0.911360
vt 0.447445 0.964679
vt 0.446720 0.911360
vt 0.447082 0.964679
vt 0.446357 0.911360
vt 0.446720 0.964679
vt 0.445994 0.911360
vt 0.446357 0.964679
vt 0.445631 0.911360
vt 0.445994 0.964679
vt 0.445269 0.911360
vt 0.445631 0.964679
vt 0.444906 0.911360
vt 0.445269 0.964679
vt 0.444543 0.911360
vt 0.444906 0.964679
vt 0.444181 0.911360
vt 0.444543 0.964679
vt 0.443818 0.911360
vt 0.444181 0.964679
vt 0.443455 0.911360
vt 0.443818 0.964679
vt 0.443093 0.911360
vt 0.443455 0.964679
vt 0.442730 0.911360
vt 0.443093 0.964679
vt 0.442367 0.911360
vt 0.442730 0.964679
vt 0.442004 0.911360
vt 0.442367 0.964679
vt 0.441642 0.911360
vt 0.442004 0.964679
vt 0.441279 0.911360
vt 0.441642 0.964679
vt 0.440916 0.911360
vt 0.441279 0.964679
vt 0.440554 0.911360
vt 0.440916 0.964679
vt 0.440191 0.911360
vt 0.440554 0.964679
vt 0.439828 0.911360
vt 0.440191 0.964679
vt 0.439465 0.911360
vt 0.439828 0.964679
vt 0.439103 0.911360
vt 0.439465 0.964679
vt 0.438740 0.911360
vt 0.439103 0.964679
vt 0.438377 0.911360
vt 0.438740 0.964679
vt 0.438015 0.911360
vt 0.438377 0.964679
vt 0.437652 0.911360
vt 0.438015 0.964679
vt 0.437289 0.911360
vt 0.437652 0.964679
vt 0.436926 0.911360
vt 0.437289 0.964679
vt 0.436564 0.911360
vt 0.436926 0.964679
vt 0.436201 0.911360
vt 0.436564 0.964679
vt 0.435838 0.911360
vt 0.436201 0.964679
vt 0.435476 0.911360
vt 0.435838 0.964679
vt 0.435113 0.911360
vt 0.435476 0.964679
vt 0.434750 0.911360
vt 0.435113 0.964679
vt 0.434387 0.911360
vt 0.434750 0.964679
vt 0.434025 0.911360
vt 0.434387 0.964679
vt 0.433662 0.911360
vt 0.434025 0.964679
vt 0.433299 0.911360
vt 0.433662 0.964679
vt 0.432937 0.911360
vt 0.433299 0.964679
vt 0.432574 0.911360
vt 0.432937 0.964679
vt 0.432211 0.911360
vt 0.432574 0.964679
vt 0.431848 0.911360
vt 0.432211 0.964679
vt 0.431486 0.911360
vt 0.431848 0.964679
vt 0.431123 0.911360
vt 0.431486 0.964679
vt 0.430760 0.911360
vt 0.431123 0.964679
vt 0.430398 0.911360
vt 0.430760 0.964679
vt 0.430035 0.911360
vt 0.430398 0.964679
vt 0.429672 0.911360
vt 0.430035 0.964679
vt 0.429309 0.911360
vt 0.429672 0.964679
vt 0.428947 0.911360
vt 0.429309 0.964679
vt 0.428584 0.911360
vt 0.428947 0.964679
vt 0.428221 0.911360
vt 0.428584 0.964679
vt 0.427859 0.911360
vt 0.428221 0.964679
vt 0.427496 0.911360
vt 0.427859 0.964679
vt 0.427133 0.911360
vt 0.427496 0.964679
vt 0.426771 0.911360
vt 0.427133 0.964679
vt 0.426408 0.911360
vt 0.426771 0.964679
vt 0.426045 0.911360
vt 0.426408 0.964679
vt 0.425682 0.911360
vt 0.426045 0.964679
vt 0.425320 0.911360
vt 0.425682 0.964679
vt 0.424957 0.911360
vt 0.425320 0.964679
vt 0.424594 0.911360
vt 0.424957 0.964679
vt 0.424232 0.911360
vt 0.424594 0.964679
vt 0.423869 0.911360
vt 0.424232 0.964679
vt 0.423506 0.911360
vt 0.423869 0.964679
vt 0.423143 0.911360
vt 0.423506 0.964679
vt 0.422781 0.911360
vt 0.423143 0.964679
vt 0.422418 0.911360
vt 0.422781 0.964679
vt 0.422055 0.911360
vt 0.422418 0.964679
vt 0.421693 0.911360
vt 0.422055 0.964679
vt 0.421330 0.911360
vt 0.421693 0.964679
vt 0.420967 0.911360
vt 0.421330 0.964679
vt 0.420604 0.911360
vt 0.420967 0.964679
vt 0.420242 0.911360
vt 0.420604 0.964679
vt 0.419879 0.911360
vt 0.420242 0.964679
vt 0.419516 0.911360
vt 0.419879 0.964679
vt 0.419154 0.911360
vt 0.419516 0.964679
vt 0.418791 0.911360
vt 0.419154 0.964679
vt 0.418428 0.911360
vt 0.418791 0.964679
vt 0.418065 0.911360
vt 0.418428 0.964679
vt 0.417703 0.911360
vt 0.418065 0.964679
vt 0.417340 0.911360
vt 0.417703 0.964679
vt 0.416977 0.911360
vt 0.417340 0.964679
vt 0.416615 0.911360
vt 0.416977 0.964679
vt 0.416252 0.911360
vt 0.416615 0.964679
vt 0.415889 0.911360
vt 0.416252 0.964679
vt 0.415527 0.911360
vt 0.415889 0.964679
vt 0.415164 0.911360
vt 0.415527 0.964679
vt 0.414801 0.911360
vt 0.415164 0.964679
vt 0.414438 0.911360
vt 0.414801 0.964679
vt 0.414076 0.911360
vt 0.414438 0.964679
vt 0.413713 0.911360
vt 0.414076 0.964679
vt 0.413350 0.911360
vt 0.413713 0.964679
vt 0.412988 0.911360
vt 0.413350 0.964679
vt 0.412625 0.911360
vt 0.412988 0.964679
vt 0.412262 0.911360
vt 0.412625 0.964679
vt 0.411899 0.911360
vt 0.412262 0.964679
vt 0.411537 0.911360
vt 0.411899 0.964679
vt 0.411174 0.911360
vt 0.411537 0.964679
vt 0.410811 0.911360
vt 0.411174 0.964679
vt 0.410449 0.911360
vt 0.410811 0.964679
vt 0.410086 0.911360
vt 0.410449 0.964679
vt 0.409723 0.911360
vt 0.410086 0.964679
vt 0.409360 0.911360
vt 0.409723 0.964679
s 0
usemtl Material
f 134/1/1 136/2/1 135/3/1
f 134/1/1 137/4/1 136/2/1
f 133/5/1 137/4/1 134/1/1
f 133/5/1 138/6/1 137/4/1
f 132/7/1 138/6/1 133/5/1
f 132/7/1 139/8/1 138/6/1
f 131/9/1 139/8/1 132/7/1
f 23/10/1 25/11/1 24/12/1
f 131/9/1 140/13/1 139/8/1
f 22/14/1 25/11/1 23/10/1
f 21/15/1 25/11/1 22/14/1
f 20/16/1 25/11/1 21/15/1
f 19/17/1 25/11/1 20/16/1
f 130/18/1 140/13/1 131/9/1
f 18/19/1 25/11/1 19/17/1
f 17/20/1 25/11/1 18/19/1
f 16/21/1 25/11/1 17/20/1
f 130/18/1 141/22/1 140/13/1
f 15/23/1 25/11/1 16/21/1
f 14/24/1 25/11/1 15/23/1
f 13/25/1 25/11/1 14/24/1
f 12/26/1 25/11/1 13/25/1
f 129/27/1 141/22/1 130/18/1
f 11/28/1 25/11/1 12/26/1
f 129/27/1 142/29/1 141/22/1
f 10/30/1 25/11/1 11/28/1
f 9/31/1 25/11/1 10/30/1
f 128/32/1 142/29/1 129/27/1
f 8/33/1 25/11/1 9/31/1
f 128/32/1 143/34/1 142/29/1
f 8/33/1 26/35/1 25/11/1
f 7/36/1 26/35/1 8/33/1
f 7/36/1 27/37/1 26/35/1
f 6/38/1 27/37/1 7/36/1
f 6/38/1 28/39/1 27/37/1
f 6/38/1 29/40/1 28/39/1
f 127/41/1 143/34/1 128/32/1
f 6/38/1 30/42/1 29/40/1
f 127/41/1 144/43/1 143/34/1
f 6/38/1 31/44/1 30/42/1
f 5/45/1 31/44/1 6/38/1
f 5/45/1 32/46/1 31/44/1
f 5/45/1 33/47/1 32/46/1
f 5/45/1 34/48/1 33/47/1
f 4/49/1 34/48/1 5/45/1
f 4/49/1 35/50/1 34/48/1
f 4/49/1 36/51/1 35/50/1
f 126/52/1 144/43/1 127/41/1
f 4/49/1 37/53/1 36/51/1
f 126/52/1 145/54/1 144/43/1
f 4/49/1 38/55/1 37/53/1
f 3/56/1 38/55/1 4/49/1
f 3/56/1 39/57/1 38/55/1
f 2/58/1 39/57/1 3/56/1
f 126/52/1 146/59/1 145/54/1
f 2/58/1 40/60/1 39/57/1
f 125/61/1 146/59/1 126/52/1
f 1/62/1 40/60/1 2/58/1
f 1/62/1 41/63/1 40/60/1
f 125/61/1 147/64/1 146/59/1
f 147/64/1 41/63/1 1/62/1
f 147/64/1 42/65/1 41/63/1
f 124/66/1 147/64/1 125/61/1
f 124/66/1 42/65/1 147/64/1
f 124/66/1 43/67/1 42/65/1
f 123/68/1 43/67/1 124/66/1
f 123/68/1 44/69/1 43/67/1
f 123/68/1 45/70/1 44/69/1
f 122/71/1 45/70/1 123/68/1
f 122/71/1 46/72/1 45/70/1
f 121/73/1 46/72/1 122/71/1
f 121/73/1 47/74/1 46/72/1
f 120/75/1 47/74/1 121/73/1
f 120/75/1 48/76/1 47/74/1
f 119/77/1 48/76/1 120/75/1
f 119/77/1 49/78/1 48/76/1
f 118/79/1 49/78/1 119/77/1
f 118/79/1 50/80/1 49/78/1
f 117/81/1 50/80/1 118/79/1
f 117/81/1 51/82/1 50/80/1
f 117/81/1 52/83/1 51/82/1
f 116/84/1 52/83/1 117/81/1
f 116/84/1 53/85/1 52/83/1
f 115/86/1 53/85/1 116/84/1
f 115/86/1 54/87/1 53/85/1
f 115/86/1 55/88/1 54/87/1
f 114/89/1 55/88/1 115/86/1
f 114/89/1 56/90/1 55/88/1
f 113/91/1 56/90/1 114/89/1
f 113/91/1 57/92/1 56/90/1
f 113/91/1 58/93/1 57/92/1
f 112/94/1 58/93/1 113/91/1
f 112/94/1 59/95/1 58/93/1
f 111/96/1 59/95/1 112/94/1
f 111/96/1 60/97/1 59/95/1
f 111/96/1 61/98/1 60/97/1
f 110/99/1 61/98/1 111/96/1
f 110/99/1 62/100/1 61/98/1
f 109/101/1 62/100/1 110/99/1
f 109/101/1 63/102/1 62/100/1
f 109/101/1 64/103/1 63/102/1
f 108/104/1 64/103/1 109/101/1
f 108/104/1 65/105/1 64/103/1
f 108/104/1 66/106/1 65/105/1
f 108/104/1 67/107/1 66/106/1
f 107/108/1 67/107/1 108/104/1
f 84/109/1 86/110/1 85/111/1
f 107/108/1 68/112/1 67/107/1
f 83/113/1 86/110/1 84/109/1
f 107/108/1 69/114/1 68/112/1
f 82/115/1 86/110/1 83/113/1
f 81/116/1 86/110/1 82/115/1
f 80/117/1 86/110/1 81/116/1
f 107/108/1 70/118/1 69/114/1
f 106/119/1 70/118/1 107/108/1
f 79/120/1 86/110/1 80/117/1
f 78/121/1 86/110/1 79/120/1
f 106/119/1 71/122/1 70/118/1
f 77/123/1 86/110/1 78/121/1
f 76/124/1 86/110/1 77/123/1
f 106/119/1 72/125/1 71/122/1
f 75/126/1 86/110/1 76/124/1
f 74/127/1 86/110/1 75/126/1
f 106/119/1 73/128/1 72/125/1
f 73/128/1 86/110/1 74/127/1
f 106/119/1 86/110/1 73/128/1
f 105/129/1 86/110/1 106/119/1
f 104/130/1 86/110/1 105/129/1
f 103/131/1 86/110/1 104/130/1
f 102/132/1 86/110/1 103/131/1
f 102/132/1 87/133/1 86/110/1
f 102/132/1 88/134/1 87/133/1
f 101/135/1 88/134/1 102/132/1
f 101/135/1 89/136/1 88/134/1
f 101/135/1 90/137/1 89/136/1
f 101/135/1 91/138/1 90/137/1
f 100/139/1 91/138/1 101/135/1
f 100/139/1 92/140/1 91/138/1
f 100/139/1 93/141/1 92/140/1
f 100/139/1 94/142/1 93/141/1
f 99/143/1 94/142/1 100/139/1
f 99/143/1 95/144/1 94/142/1
f 99/143/1 96/145/1 95/144/1
f 98/146/1 96/145/1 99/143/1
f 98/146/1 97/147/1 96/145/1
f 281/1/2 282/3/2 283/2/2
f 281/1/2 283/2/2 284/4/2
f 280/5/2 281/1/2 284/4/2
f 280/5/2 284/4/2 285/6/2
f 279/7/2 280/5/2 285/6/2
f 279/7/2 285/6/2 286/8/2
f 278/9/2 279/7/2 286/8/2
f 170/10/2 171/12/2 172/11/2
f 278/9/2 286/8/2 287/13/2
f 169/14/2 170/10/2 172/11/2
f 168/15/2 169/14/2 172/11/2
f 167/16/2 168/15/2 172/11/2
f 166/17/2 167/16/2 172/11/2
f 277/18/2 278/9/2 287/13/2
f 165/19/2 166/17/2 172/11/2
f 164/20/2 165/19/2 172/11/2
f 163/21/2 164/20/2 172/11/2
f 277/18/2 287/13/2 288/22/2
f 162/23/2 163/21/2 172/11/2
f 161/24/2 162/23/2 172/11/2
f 160/25/2 161/24/2 172/11/2
f 159/26/2 160/25/2 172/11/2
f 276/27/2 277/18/2 288/22/2
f 158/28/2 159/26/2 172/11/2
f 276/27/2 288/22/2 289/29/2
f 157/30/2 158/28/2 172/11/2
f 156/31/2 157/30/2 172/11/2
f 275/32/2 276/27/2 289/29/2
f 155/33/2 156/31/2 172/11/2
f 275/32/2 289/29/2 290/34/2
f 155/33/2 172/11/2 173/35/2
f 154/36/2 155/33/2 173/35/2
f 154/36/2 173/35/2 174/37/2
f 153/38/2 154/36/2 174/37/2
f 153/38/2 174/37/2 175/39/2
f 153/38/2 175/39/2 176/40/2
f 274/41/2 275/32/2 290/34/2
f 153/38/2 176/40/2 177/42/2
f 274/41/2 290/34/2 291/43/2
f 153/38/2 177/42/2 178/44/2
f 152/45/2 153/38/2 178/44/2
f 152/45/2 178/44/2 179/46/2
f 152/45/2 179/46/2 180/47/2
f 152/45/2 180/47/2 181/48/2
f 151/49/2 152/45/2 181/48/2
f 151/49/2 181/48/2 182/50/2
f 151/49/2 182/50/2 183/51/2
f 273/52/2 274/41/2 291/43/2
f 151/49/2 183/51/2 184/53/2
f 273/52/2 291/43/2 292/54/2
f 151/49/2 184/53/2 185/55/2
f 150/56/2 151/49/2 185/55/2
f 150/56/2 185/55/2 186/57/2
f 149/58/2 150/56/2 186/57/2
f 273/52/2 292/54/2 293/59/2
f 149/58/2 186/57/2 187/60/2
f 272/61/2 273/52/2 293/59/2
f 148/62/2 149/58/2 187/60/2
f 148/62/2 187/60/2 188/63/2
f 272/61/2 293/59/2 294/64/2
f 294/64/2 148/62/2 188/63/2
f 294/64/2 188/63/2 189/65/2
f 271/66/2 272/61/2 294/64/2
f 271/66/2 294/64/2 189/65/2
f 271/66/2 189/65/2 190/67/2
f 270/68/2 271/66/2 190/67/2
f 270/68/2 190/67/2 191/69/2
f 270/68/2 191/69/2 192/70/2
f 269/71/2 270/68/2 192/70/2
f 269/71/2 192/70/2 193/72/2
f 268/73/2 269/71/2 193/72/2
f 268/73/2 193/72/2 194/74/2
f 267/75/2 268/73/2 194/74/2
f 267/75/2 194/74/2 195/76/2
f 266/77/2 267/75/2 195/76/2
f 266/77/2 195/76/2 196/78/2
f 265/79/2 266/77/2 196/78/2
f 265/79/2 196/78/2 197/80/2
f 264/81/2 265/79/2 197/80/2
f 264/81/2 197/80/2 198/82/2
f 264/81/2 198/82/2 199/83/2
f 263/84/2 264/81/2 199/83/2
f 263/84/2 199/83/2 200/85/2
f 262/86/2 263/84/2 200/85/2
f 262/86/2 200/85/2 201/87/2
f 262/86/2 201/87/2 202/88/2
f 261/89/2 262/86/2 202/88/2
f 261/89/2 202/88/2 203/90/2
f 260/91/2 261/89/2 203/90/2
f 260/91/2 203/90/2 204/92/2
f 260/91/2 204/92/2 205/93/2
f 259/94/2 260/91/2 205/93/2
f 259/94/2 205/93/2 206/95/2
f 258/96/2 259/94/2 206/95/2
f 258/96/2 206/95/2 207/97/2
f 258/96/2 207/97/2 208/98/2
f 257/99/2 258/96/2 208/98/2
f 257/99/2 208/98/2 209/100/2
f 256/101/2 257/99/2 209/100/2
f 256/101/2 209/100/2 210/102/2
f 256/101/2 210/102/2 211/103/2
f 255/104/2 256/101/2 211/103/2
f 255/104/2 211/103/2 212/105/2
f 255/104/2 212/105/2 213/106/2
f 255/104/2 213/106/2 214/107/2
f 254/108/2 255/104/2 214/107/2
f 231/109/2 232/111/2 233/110/2
f 254/108/2 214/107/2 215/112/2
f 230/113/2 231/109/2 233/110/2
f 254/108/2 215/112/2 216/114/2
f 229/115/2 230/113/2 233/110/2
f 228/116/2 229/115/2 233/110/2
f 227/117/2 228/116/2 233/110/2
f 254/108/2 216/114/2 217/118/2
f 253/119/2 254/108/2 217/118/2
f 226/120/2 227/117/2 233/110/2
f 225/121/2 226/120/2 233/110/2
f 253/119/2 217/118/2 218/122/2
f 224/123/2 225/121/2 233/110/2
f 223/124/2 224/123/2 233/110/2
f 253/119/2 218/122/2 219/125/2
f 222/126/2 223/124/2 233/110/2
f 221/127/2 222/126/2 233/110/2
f 253/119/2 219/125/2 220/128/2
f 220/128/2 221/127/2 233/110/2
f 253/119/2 220/128/2 233/110/2
f 252/129/2 253/119/2 233/110/2
f 251/130/2 252/129/2 233/110/2
f 250/131/2 251/130/2 233/110/2
f 249/132/2 250/131/2 233/110/2
f 249/132/2 233/110/2 234/133/2
f 249/132/2 234/133/2 235/134/2
f 248/135/2 249/132/2 235/134/2
f 248/135/2 235/134/2 236/136/2
f 248/135/2 236/136/2 237/137/2
f 248/135/2 237/137/2 238/138/2
f 247/139/2 248/135/2 238/138/2
f 247/139/2 238/138/2 239/140/2
f 247/139/2 239/140/2 240/141/2
f 247/139/2 240/141/2 241/142/2
f 246/143/2 247/139/2 241/142/2
f 246/143/2 241/142/2 242/144/2
f 246/143/2 242/144/2 243/145/2
f 245/146/2 246/143/2 243/145/2
f 245/146/2 243/145/2 244/147/2
s 1
f 298/148/3 295/62/4 296/149/4
f 300/150/5 297/151/3 298/148/3
f 302/152/6 299/153/5 300/150/5
f 304/154/7 301/155/6 302/152/6
f 306/156/8 303/157/7 304/154/7
f 308/158/9 305/159/8 306/156/8
f 310/160/10 307/161/9 308/158/9
f 312/162/10 309/163/10 310/160/10
f 314/164/11 311/165/10 312/162/10
f 316/166/12 313/167/11 314/164/11
f 318/168/13 315/169/12 316/166/12
f 320/170/14 317/171/13 318/168/13
f 322/172/15 319/173/14 320/170/14
f 324/174/16 321/175/15 322/172/15
f 326/176/17 323/177/18 324/174/16
f 328/178/19 325/179/17 326/176/17
f 330/180/20 327/181/19 328/178/19
f 332/182/21 329/183/20 330/180/20
f 334/184/22 331/185/21 332/182/21
f 336/186/23 333/187/22 334/184/22
f 338/188/24 335/189/23 336/186/23
f 340/190/25 337/191/24 338/188/24
f 342/192/26 339/193/25 340/190/25
f 344/194/27 341/195/28 342/192/26
f 346/196/29 343/197/30 344/194/27
f 348/198/31 345/199/32 346/196/29
f 350/200/33 347/201/31 348/198/31
f 352/202/34 349/203/33 350/200/33
f 354/204/35 351/205/36 352/202/34
f 356/206/37 353/207/35 354/204/35
f 358/208/38 355/209/37 356/206/37
f 360/210/39 357/211/38 358/208/38
f 362/212/40 359/213/39 360/210/39
f 364/214/41 361/215/40 362/212/40
f 366/216/42 363/217/41 364/214/41
f 368/218/43 365/219/42 366/216/42
f 370/220/44 367/221/43 368/218/43
f 372/222/45 369/223/44 370/220/44
f 374/224/46 371/225/45 372/222/45
f 376/226/47 373/227/46 374/224/46
f 378/228/48 375/229/47 376/226/47
f 380/230/49 377/231/48 378/228/48
f 382/232/50 379/233/49 380/230/49
f 384/234/51 381/235/50 382/232/50
f 386/236/52 383/237/51 384/234/51
f 388/238/53 385/239/52 386/236/52
f 390/240/54 387/241/53 388/238/53
f 392/242/55 389/243/54 390/240/54
f 394/244/56 391/245/55 392/242/55
f 396/246/57 393/247/56 394/244/56
f 398/248/58 395/249/57 396/246/57
f 400/250/59 397/251/58 398/248/58
f 402/252/60 399/253/59 400/250/59
f 404/254/61 401/255/60 402/252/60
f 406/256/62 403/257/61 404/254/61
f 408/258/63 405/259/62 406/256/62
f 410/260/64 407/261/63 408/258/63
f 412/262/65 409/263/64 410/260/64
f 414/264/66 411/265/65 412/262/65
f 416/266/67 413/267/66 414/264/66
f 418/268/68 415/269/67 416/266/67
f 420/270/69 417/271/68 418/268/68
f 422/272/70 419/273/69 420/270/69
f 424/274/71 421/275/70 422/272/70
f 426/276/72 423/277/71 424/274/71
f 428/278/73 425/279/72 426/276/72
f 430/280/74 427/281/73 428/278/73
f 432/282/75 429/283/74 430/280/74
f 434/284/76 431/285/75 432/282/75
f 436/286/77 433/287/76 434/284/76
f 438/288/78 435/289/77 436/286/77
f 440/290/79 437/291/78 438/288/78
f 442/292/80 439/293/79 440/290/79
f 444/294/81 441/295/80 442/292/80
f 446/296/82 443/297/81 444/294/81
f 448/298/83 445/299/82 446/296/82
f 450/300/84 447/301/83 448/298/83
f 452/302/85 449/303/84 450/300/84
f 454/304/86 451/305/85 452/302/85
f 456/306/87 453/307/86 454/304/86
f 458/308/88 455/309/87 456/306/87
f 460/310/89 457/311/88 458/308/88
f 462/312/90 459/313/89 460/310/89
f 464/314/91 461/315/90 462/312/90
f 466/316/92 463/317/91 464/314/91
f 468/318/93 465/319/92 466/316/92
f 470/320/94 467/321/93 468/318/93
f 472/322/95 469/323/94 470/320/94
f 474/324/96 471/325/95 472/322/95
f 476/326/97 473/327/96 474/324/96
f 478/328/98 475/329/97 476/326/97
f 480/330/99 477/331/98 478/328/98
f 482/332/100 479/333/99 480/330/99
f 484/334/101 481/335/100 482/332/100
f 486/336/102 483/337/101 484/334/101
f 488/338/103 485/339/102 486/336/102
f 490/340/104 487/341/103 488/338/103
f 492/342/105 489/343/104 490/340/104
f 494/344/106 491/345/105 492/342/105
f 496/346/107 493/347/106 494/344/106
f 498/348/108 495/349/107 496/346/107
f 500/350/109 497/351/108 498/348/108
f 502/352/110 499/353/109 500/350/109
f 504/354/111 501/355/110 502/352/110
f 506/356/112 503/357/113 504/354/111
f 508/358/114 505/359/112 506/356/112
f 510/360/115 507/361/114 508/358/114
f 512/362/116 509/363/117 510/360/115
f 514/364/118 511/365/116 512/362/116
f 516/366/119 513/367/118 514/364/118
f 518/368/120 515/369/119 516/366/119
f 520/370/121 517/371/120 518/368/120
f 522/372/122 519/373/121 520/370/121
f 524/374/123 521/375/122 522/372/122
f 526/376/124 523/377/123 524/374/123
f 528/378/125 525/379/124 526/376/124
f 530/380/126 527/381/125 528/378/125
f 532/382/127 529/383/126 530/380/126
f 534/384/128 531/385/127 532/382/127
f 536/386/129 533/387/128 534/384/128
f 538/388/130 535/389/129 536/386/129
f 540/390/131 537/391/130 538/388/130
f 542/392/132 539/393/131 540/390/131
f 544/394/133 541/395/132 542/392/132
f 546/396/134 543/397/133 544/394/133
f 548/398/135 545/399/134 546/396/134
f 550/400/136 547/401/135 548/398/135
f 552/402/137 549/403/136 550/400/136
f 554/404/138 551/405/137 552/402/137
f 556/406/139 553/407/138 554/404/138
f 558/408/140 555/409/139 556/406/139
f 560/410/141 557/411/140 558/408/140
f 562/412/142 559/413/141 560/410/141
f 564/414/143 561/415/142 562/412/142
f 566/416/144 563/417/143 564/414/143
f 568/418/145 565/419/144 566/416/144
f 570/420/146 567/421/145 568/418/145
f 572/422/147 569/423/146 570/420/146
f 574/424/148 571/425/147 572/422/147
f 576/426/149 573/427/148 574/424/148
f 578/428/150 575/429/149 576/426/149
f 580/430/151 577/431/150 578/428/150
f 582/432/152 579/433/151 580/430/151
f 584/434/153 581/435/152 582/432/152
f 586/436/154 583/437/153 584/434/153
f 588/438/155 585/439/154 586/436/154
f 296/440/4 587/441/156 588/438/155
f 298/148/3 297/151/3 295/62/4
f 300/150/5 299/153/5 297/151/3
f 302/152/6 301/155/6 299/153/5
f 304/154/7 303/157/7 301/155/6
f 306/156/8 305/159/8 303/157/7
f 308/158/9 307/161/9 305/159/8
f 310/160/10 309/163/10 307/161/9
f 312/162/10 311/165/10 309/163/10
f 314/164/11 313/167/11 311/165/10
f 316/166/12 315/169/12 313/167/11
f 318/168/13 317/171/13 315/169/12
f 320/170/14 319/173/14 317/171/13
f 322/172/15 321/175/15 319/173/14
f 324/174/16 323/177/18 321/175/15
f 326/176/17 325/179/17 323/177/18
f 328/178/19 327/181/19 325/179/17
f 330/180/20 329/183/20 327/181/19
f 332/182/21 331/185/21 329/183/20
f 334/184/22 333/187/22 331/185/21
f 336/186/23 335/189/23 333/187/22
f 338/188/24 337/191/24 335/189/23
f 340/190/25 339/193/25 337/191/24
f 342/192/26 341/195/28 339/193/25
f 344/194/27 343/197/30 341/195/28
f 346/196/29 345/199/32 343/197/30
f 348/198/31 347/201/31 345/199/32
f 350/200/33 349/203/33 347/201/31
f 352/202/34 351/205/36 349/203/33
f 354/204/35 353/207/35 351/205/36
f 356/206/37 355/209/37 353/207/35
f 358/208/38 357/211/38 355/209/37
f 360/210/39 359/213/39 357/211/38
f 362/212/40 361/215/40 359/213/39
f 364/214/41 363/217/41 361/215/40
f 366/216/42 365/219/42 363/217/41
f 368/218/43 367/221/43 365/219/42
f 370/220/44 369/223/44 367/221/43
f 372/222/45 371/225/45 369/223/44
f 374/224/46 373/227/46 371/225/45
f 376/226/47 375/229/47 373/227/46
f 378/228/48 377/231/48 375/229/47
f 380/230/49 379/233/49 377/231/48
f 382/232/50 381/235/50 379/233/49
f 384/234/51 383/237/51 381/235/50
f 386/236/52 385/239/52 383/237/51
f 388/238/53 387/241/53 385/239/52
f 390/240/54 389/243/54 387/241/53
f 392/242/55 391/245/55 389/243/54
f 394/244/56 393/247/56 391/245/55
f 396/246/57 395/249/57 393/247/56
f 398/248/58 397/251/58 395/249/57
f 400/250/59 399/253/59 397/251/58
f 402/252/60 401/255/60 399/253/59
f 404/254/61 403/257/61 401/255/60
f 406/256/62 405/259/62 403/257/61
f 408/258/63 407/261/63 405/259/62
f 410/260/64 409/263/64 407/261/63
f 412/262/65 411/265/65 409/263/64
f 414/264/66 413/267/66 411/265/65
f 416/266/67 415/269/67 413/267/66
f 418/268/68 417/271/68 415/269/67
f 420/270/69 419/273/69 417/271/68
f 422/272/70 421/275/70 419/273/69
f 424/274/71 423/277/71 421/275/70
f 426/276/72 425/279/72 423/277/71
f 428/278/73 427/281/73 425/279/72
f 430/280/74 429/283/74 427/281/73
f 432/282/75 431/285/75 429/283/74
f 434/284/76 433/287/76 431/285/75
f 436/286/77 435/289/77 433/287/76
f 438/288/78 437/291/78 435/289/77
f 440/290/79 439/293/79 437/291/78
f 442/292/80 441/295/80 439/293/79
f 444/294/81 443/297/81 441/295/80
f 446/296/82 445/299/82 443/297/81
f 448/298/83 447/301/83 445/299/82
f 450/300/84 449/303/84 447/301/83
f 452/302/85 451/305/85 449/303/84
f 454/304/86 453/307/86 451/305/85
f 456/306/87 455/309/87 453/307/86
f 458/308/88 457/311/88 455/309/87
f 460/310/89 459/313/89 457/311/88
f 462/312/90 461/315/90 459/313/89
f 464/314/91 463/317/91 461/315/90
f 466/316/92 465/319/92 463/317/91
f 468/318/93 467/321/93 465/319/92
f 470/320/94 469/323/94 467/321/93
f 472/322/95 471/325/95 469/323/94
f 474/324/96 473/327/96 471/325/95
f 476/326/97 475/329/97 473/327/96
f 478/328/98 477/331/98 475/329/97
f 480/330/99 479/333/99 477/331/98
f 482/332/100 481/335/100 479/333/99
f 484/334/101 483/337/101 481/335/100
f 486/336/102 485/339/102 483/337/101
f 488/338/103 487/341/103 485/339/102
f 490/340/104 489/343/104 487/341/103
f 492/342/105 491/345/105 489/343/104
f 494/344/106 493/347/106 491/345/105
f 496/346/107 495/349/107 493/347/106
f 498/348/108 497/351/108 495/349/107
f 500/350/109 499/353/109 497/351/108
f 502/352/110 501/355/110 499/353/109
f 504/354/111 503/357/113 501/355/110
f 506/356/112 505/359/112 503/357/113
f 508/358/114 507/361/114 505/359/112
f 510/360/115 509/363/117 507/361/114
f 512/362/116 511/365/116 509/363/117
f 514/364/118 513/367/118 511/365/116
f 516/366/119 515/369/119 513/367/118
f 518/368/120 517/371/120 515/369/119
f 520/370/121 519/373/121 517/371/120
f 522/372/122 521/375/122 519/373/121
f 524/374/123 523/377/123 521/375/122
f 526/376/124 525/379/124 523/377/123
f 528/378/125 527/381/125 525/379/124
f 530/380/126 529/383/126 527/381/125
f 532/382/127 531/385/127 529/383/126
f 534/384/128 533/387/128 531/385/127
f 536/386/129 535/389/129 533/387/128
f 538/388/130 537/391/130 535/389/129
f 540/390/131 539/393/131 537/391/130
f 542/392/132 541/395/132 539/393/131
f 544/394/133 543/397/133 541/395/132
f 546/396/134 545/399/134 543/397/133
f 548/398/135 547/401/135 545/399/134
f 550/400/136 549/403/136 547/401/135
f 552/402/137 551/405/137 549/403/136
f 554/404/138 553/407/138 551/405/137
f 556/406/139 555/409/139 553/407/138
f 558/408/140 557/411/140 555/409/139
f 560/410/141 559/413/141 557/411/140
f 562/412/142 561/415/142 559/413/141
f 564/414/143 563/417/143 561/415/142
f 566/416/144 565/419/144 563/417/143
f 568/418/145 567/421/145 565/419/144
f 570/420/146 569/423/146 567/421/145
f 572/422/147 571/425/147 569/423/146
f 574/424/148 573/427/148 571/425/147
f 576/426/149 575/429/149 573/427/148
f 578/428/150 577/431/150 575/429/149
f 580/430/151 579/433/151 577/431/150
f 582/432/152 581/435/152 579/433/151
f 584/434/153 583/437/153 581/435/152
f 586/436/154 585/439/154 583/437/153
f 588/438/155 587/441/156 585/439/154
f 296/440/4 295/64/4 587/441/156
